<?xml version="1.0" encoding="utf-8" standalone="no"?>
<!DOCTYPE svg PUBLIC "-//W3C//DTD SVG 1.1//EN"
  "http://www.w3.org/Graphics/SVG/1.1/DTD/svg11.dtd">
<svg xmlns:xlink="http://www.w3.org/1999/xlink" width="720pt" height="504pt" viewBox="0 0 720 504" xmlns="http://www.w3.org/2000/svg" version="1.1">
 <metadata>
  <rdf:RDF xmlns:dc="http://purl.org/dc/elements/1.1/" xmlns:cc="http://creativecommons.org/ns#" xmlns:rdf="http://www.w3.org/1999/02/22-rdf-syntax-ns#">
   <cc:Work>
    <dc:type rdf:resource="http://purl.org/dc/dcmitype/StillImage"/>
    <dc:date>2025-12-12T11:29:36.676980</dc:date>
    <dc:format>image/svg+xml</dc:format>
    <dc:creator>
     <cc:Agent>
      <dc:title>Matplotlib v3.8.2, https://matplotlib.org/</dc:title>
     </cc:Agent>
    </dc:creator>
   </cc:Work>
  </rdf:RDF>
 </metadata>
 <defs>
  <style type="text/css">*{stroke-linejoin: round; stroke-linecap: butt}</style>
 </defs>
 <g id="figure_1">
  <g id="patch_1">
   <path d="M 0 504 
L 720 504 
L 720 0 
L 0 0 
z
" style="fill: #ffffff"/>
  </g>
  <g id="axes_1">
   <g id="patch_2">
    <path d="M 82.37 476.12 
L 709.2 476.12 
L 709.2 26.88 
L 82.37 26.88 
z
" style="fill: #ffffff"/>
   </g>
   <g id="matplotlib.axis_1">
    <g id="xtick_1">
     <g id="line2d_1">
      <path d="M 106.728679 476.12 
L 106.728679 26.88 
" clip-path="url(#pf0faa0db59)" style="fill: none; stroke: #b0b0b0; stroke-width: 0.8; stroke-linecap: square"/>
     </g>
     <g id="line2d_2">
      <defs>
       <path id="mf90601772a" d="M 0 0 
L 0 3.5 
" style="stroke: #000000; stroke-width: 0.8"/>
      </defs>
      <g>
       <use xlink:href="#mf90601772a" x="106.728679" y="476.12" style="stroke: #000000; stroke-width: 0.8"/>
      </g>
     </g>
     <g id="text_1">
      <!-- Jan 1 -->
      <g transform="translate(94.250554 490.718437) scale(0.1 -0.1)">
       <defs>
        <path id="DejaVuSans-4a" d="M 628 4666 
L 1259 4666 
L 1259 325 
Q 1259 -519 939 -900 
Q 619 -1281 -91 -1281 
L -331 -1281 
L -331 -750 
L -134 -750 
Q 284 -750 456 -515 
Q 628 -281 628 325 
L 628 4666 
z
" transform="scale(0.015625)"/>
        <path id="DejaVuSans-61" d="M 2194 1759 
Q 1497 1759 1228 1600 
Q 959 1441 959 1056 
Q 959 750 1161 570 
Q 1363 391 1709 391 
Q 2188 391 2477 730 
Q 2766 1069 2766 1631 
L 2766 1759 
L 2194 1759 
z
M 3341 1997 
L 3341 0 
L 2766 0 
L 2766 531 
Q 2569 213 2275 61 
Q 1981 -91 1556 -91 
Q 1019 -91 701 211 
Q 384 513 384 1019 
Q 384 1609 779 1909 
Q 1175 2209 1959 2209 
L 2766 2209 
L 2766 2266 
Q 2766 2663 2505 2880 
Q 2244 3097 1772 3097 
Q 1472 3097 1187 3025 
Q 903 2953 641 2809 
L 641 3341 
Q 956 3463 1253 3523 
Q 1550 3584 1831 3584 
Q 2591 3584 2966 3190 
Q 3341 2797 3341 1997 
z
" transform="scale(0.015625)"/>
        <path id="DejaVuSans-6e" d="M 3513 2113 
L 3513 0 
L 2938 0 
L 2938 2094 
Q 2938 2591 2744 2837 
Q 2550 3084 2163 3084 
Q 1697 3084 1428 2787 
Q 1159 2491 1159 1978 
L 1159 0 
L 581 0 
L 581 3500 
L 1159 3500 
L 1159 2956 
Q 1366 3272 1645 3428 
Q 1925 3584 2291 3584 
Q 2894 3584 3203 3211 
Q 3513 2838 3513 2113 
z
" transform="scale(0.015625)"/>
        <path id="DejaVuSans-20" transform="scale(0.015625)"/>
        <path id="DejaVuSans-31" d="M 794 531 
L 1825 531 
L 1825 4091 
L 703 3866 
L 703 4441 
L 1819 4666 
L 2450 4666 
L 2450 531 
L 3481 531 
L 3481 0 
L 794 0 
L 794 531 
z
" transform="scale(0.015625)"/>
       </defs>
       <use xlink:href="#DejaVuSans-4a"/>
       <use xlink:href="#DejaVuSans-61" x="29.492188"/>
       <use xlink:href="#DejaVuSans-6e" x="90.771484"/>
       <use xlink:href="#DejaVuSans-20" x="154.150391"/>
       <use xlink:href="#DejaVuSans-31" x="185.9375"/>
      </g>
     </g>
    </g>
    <g id="xtick_2">
     <g id="line2d_3">
      <path d="M 204.163394 476.12 
L 204.163394 26.88 
" clip-path="url(#pf0faa0db59)" style="fill: none; stroke: #b0b0b0; stroke-width: 0.8; stroke-linecap: square"/>
     </g>
     <g id="line2d_4">
      <g>
       <use xlink:href="#mf90601772a" x="204.163394" y="476.12" style="stroke: #000000; stroke-width: 0.8"/>
      </g>
     </g>
     <g id="text_2">
      <!-- Mar 1 -->
      <g transform="translate(189.959488 490.718437) scale(0.1 -0.1)">
       <defs>
        <path id="DejaVuSans-4d" d="M 628 4666 
L 1569 4666 
L 2759 1491 
L 3956 4666 
L 4897 4666 
L 4897 0 
L 4281 0 
L 4281 4097 
L 3078 897 
L 2444 897 
L 1241 4097 
L 1241 0 
L 628 0 
L 628 4666 
z
" transform="scale(0.015625)"/>
        <path id="DejaVuSans-72" d="M 2631 2963 
Q 2534 3019 2420 3045 
Q 2306 3072 2169 3072 
Q 1681 3072 1420 2755 
Q 1159 2438 1159 1844 
L 1159 0 
L 581 0 
L 581 3500 
L 1159 3500 
L 1159 2956 
Q 1341 3275 1631 3429 
Q 1922 3584 2338 3584 
Q 2397 3584 2469 3576 
Q 2541 3569 2628 3553 
L 2631 2963 
z
" transform="scale(0.015625)"/>
       </defs>
       <use xlink:href="#DejaVuSans-4d"/>
       <use xlink:href="#DejaVuSans-61" x="86.279297"/>
       <use xlink:href="#DejaVuSans-72" x="147.558594"/>
       <use xlink:href="#DejaVuSans-20" x="188.671875"/>
       <use xlink:href="#DejaVuSans-31" x="220.458984"/>
      </g>
     </g>
    </g>
    <g id="xtick_3">
     <g id="line2d_5">
      <path d="M 303.222021 476.12 
L 303.222021 26.88 
" clip-path="url(#pf0faa0db59)" style="fill: none; stroke: #b0b0b0; stroke-width: 0.8; stroke-linecap: square"/>
     </g>
     <g id="line2d_6">
      <g>
       <use xlink:href="#mf90601772a" x="303.222021" y="476.12" style="stroke: #000000; stroke-width: 0.8"/>
      </g>
     </g>
     <g id="text_3">
      <!-- May 1 -->
      <g transform="translate(288.114208 490.718437) scale(0.1 -0.1)">
       <defs>
        <path id="DejaVuSans-79" d="M 2059 -325 
Q 1816 -950 1584 -1140 
Q 1353 -1331 966 -1331 
L 506 -1331 
L 506 -850 
L 844 -850 
Q 1081 -850 1212 -737 
Q 1344 -625 1503 -206 
L 1606 56 
L 191 3500 
L 800 3500 
L 1894 763 
L 2988 3500 
L 3597 3500 
L 2059 -325 
z
" transform="scale(0.015625)"/>
       </defs>
       <use xlink:href="#DejaVuSans-4d"/>
       <use xlink:href="#DejaVuSans-61" x="86.279297"/>
       <use xlink:href="#DejaVuSans-79" x="147.558594"/>
       <use xlink:href="#DejaVuSans-20" x="206.738281"/>
       <use xlink:href="#DejaVuSans-31" x="238.525391"/>
      </g>
     </g>
    </g>
    <g id="xtick_4">
     <g id="line2d_7">
      <path d="M 402.280648 476.12 
L 402.280648 26.88 
" clip-path="url(#pf0faa0db59)" style="fill: none; stroke: #b0b0b0; stroke-width: 0.8; stroke-linecap: square"/>
     </g>
     <g id="line2d_8">
      <g>
       <use xlink:href="#mf90601772a" x="402.280648" y="476.12" style="stroke: #000000; stroke-width: 0.8"/>
      </g>
     </g>
     <g id="text_4">
      <!-- Jul 1 -->
      <g transform="translate(391.477523 490.718437) scale(0.1 -0.1)">
       <defs>
        <path id="DejaVuSans-75" d="M 544 1381 
L 544 3500 
L 1119 3500 
L 1119 1403 
Q 1119 906 1312 657 
Q 1506 409 1894 409 
Q 2359 409 2629 706 
Q 2900 1003 2900 1516 
L 2900 3500 
L 3475 3500 
L 3475 0 
L 2900 0 
L 2900 538 
Q 2691 219 2414 64 
Q 2138 -91 1772 -91 
Q 1169 -91 856 284 
Q 544 659 544 1381 
z
M 1991 3584 
L 1991 3584 
z
" transform="scale(0.015625)"/>
        <path id="DejaVuSans-6c" d="M 603 4863 
L 1178 4863 
L 1178 0 
L 603 0 
L 603 4863 
z
" transform="scale(0.015625)"/>
       </defs>
       <use xlink:href="#DejaVuSans-4a"/>
       <use xlink:href="#DejaVuSans-75" x="29.492188"/>
       <use xlink:href="#DejaVuSans-6c" x="92.871094"/>
       <use xlink:href="#DejaVuSans-20" x="120.654297"/>
       <use xlink:href="#DejaVuSans-31" x="152.441406"/>
      </g>
     </g>
    </g>
    <g id="xtick_5">
     <g id="line2d_9">
      <path d="M 502.963187 476.12 
L 502.963187 26.88 
" clip-path="url(#pf0faa0db59)" style="fill: none; stroke: #b0b0b0; stroke-width: 0.8; stroke-linecap: square"/>
     </g>
     <g id="line2d_10">
      <g>
       <use xlink:href="#mf90601772a" x="502.963187" y="476.12" style="stroke: #000000; stroke-width: 0.8"/>
      </g>
     </g>
     <g id="text_5">
      <!-- Sep 1 -->
      <g transform="translate(488.767874 490.718437) scale(0.1 -0.1)">
       <defs>
        <path id="DejaVuSans-53" d="M 3425 4513 
L 3425 3897 
Q 3066 4069 2747 4153 
Q 2428 4238 2131 4238 
Q 1616 4238 1336 4038 
Q 1056 3838 1056 3469 
Q 1056 3159 1242 3001 
Q 1428 2844 1947 2747 
L 2328 2669 
Q 3034 2534 3370 2195 
Q 3706 1856 3706 1288 
Q 3706 609 3251 259 
Q 2797 -91 1919 -91 
Q 1588 -91 1214 -16 
Q 841 59 441 206 
L 441 856 
Q 825 641 1194 531 
Q 1563 422 1919 422 
Q 2459 422 2753 634 
Q 3047 847 3047 1241 
Q 3047 1584 2836 1778 
Q 2625 1972 2144 2069 
L 1759 2144 
Q 1053 2284 737 2584 
Q 422 2884 422 3419 
Q 422 4038 858 4394 
Q 1294 4750 2059 4750 
Q 2388 4750 2728 4690 
Q 3069 4631 3425 4513 
z
" transform="scale(0.015625)"/>
        <path id="DejaVuSans-65" d="M 3597 1894 
L 3597 1613 
L 953 1613 
Q 991 1019 1311 708 
Q 1631 397 2203 397 
Q 2534 397 2845 478 
Q 3156 559 3463 722 
L 3463 178 
Q 3153 47 2828 -22 
Q 2503 -91 2169 -91 
Q 1331 -91 842 396 
Q 353 884 353 1716 
Q 353 2575 817 3079 
Q 1281 3584 2069 3584 
Q 2775 3584 3186 3129 
Q 3597 2675 3597 1894 
z
M 3022 2063 
Q 3016 2534 2758 2815 
Q 2500 3097 2075 3097 
Q 1594 3097 1305 2825 
Q 1016 2553 972 2059 
L 3022 2063 
z
" transform="scale(0.015625)"/>
        <path id="DejaVuSans-70" d="M 1159 525 
L 1159 -1331 
L 581 -1331 
L 581 3500 
L 1159 3500 
L 1159 2969 
Q 1341 3281 1617 3432 
Q 1894 3584 2278 3584 
Q 2916 3584 3314 3078 
Q 3713 2572 3713 1747 
Q 3713 922 3314 415 
Q 2916 -91 2278 -91 
Q 1894 -91 1617 61 
Q 1341 213 1159 525 
z
M 3116 1747 
Q 3116 2381 2855 2742 
Q 2594 3103 2138 3103 
Q 1681 3103 1420 2742 
Q 1159 2381 1159 1747 
Q 1159 1113 1420 752 
Q 1681 391 2138 391 
Q 2594 391 2855 752 
Q 3116 1113 3116 1747 
z
" transform="scale(0.015625)"/>
       </defs>
       <use xlink:href="#DejaVuSans-53"/>
       <use xlink:href="#DejaVuSans-65" x="63.476562"/>
       <use xlink:href="#DejaVuSans-70" x="125"/>
       <use xlink:href="#DejaVuSans-20" x="188.476562"/>
       <use xlink:href="#DejaVuSans-31" x="220.263672"/>
      </g>
     </g>
    </g>
    <g id="xtick_6">
     <g id="line2d_11">
      <path d="M 602.021813 476.12 
L 602.021813 26.88 
" clip-path="url(#pf0faa0db59)" style="fill: none; stroke: #b0b0b0; stroke-width: 0.8; stroke-linecap: square"/>
     </g>
     <g id="line2d_12">
      <g>
       <use xlink:href="#mf90601772a" x="602.021813" y="476.12" style="stroke: #000000; stroke-width: 0.8"/>
      </g>
     </g>
     <g id="text_6">
      <!-- Nov 1 -->
      <g transform="translate(587.492126 490.718437) scale(0.1 -0.1)">
       <defs>
        <path id="DejaVuSans-4e" d="M 628 4666 
L 1478 4666 
L 3547 763 
L 3547 4666 
L 4159 4666 
L 4159 0 
L 3309 0 
L 1241 3903 
L 1241 0 
L 628 0 
L 628 4666 
z
" transform="scale(0.015625)"/>
        <path id="DejaVuSans-6f" d="M 1959 3097 
Q 1497 3097 1228 2736 
Q 959 2375 959 1747 
Q 959 1119 1226 758 
Q 1494 397 1959 397 
Q 2419 397 2687 759 
Q 2956 1122 2956 1747 
Q 2956 2369 2687 2733 
Q 2419 3097 1959 3097 
z
M 1959 3584 
Q 2709 3584 3137 3096 
Q 3566 2609 3566 1747 
Q 3566 888 3137 398 
Q 2709 -91 1959 -91 
Q 1206 -91 779 398 
Q 353 888 353 1747 
Q 353 2609 779 3096 
Q 1206 3584 1959 3584 
z
" transform="scale(0.015625)"/>
        <path id="DejaVuSans-76" d="M 191 3500 
L 800 3500 
L 1894 563 
L 2988 3500 
L 3597 3500 
L 2284 0 
L 1503 0 
L 191 3500 
z
" transform="scale(0.015625)"/>
       </defs>
       <use xlink:href="#DejaVuSans-4e"/>
       <use xlink:href="#DejaVuSans-6f" x="74.804688"/>
       <use xlink:href="#DejaVuSans-76" x="135.986328"/>
       <use xlink:href="#DejaVuSans-20" x="195.166016"/>
       <use xlink:href="#DejaVuSans-31" x="226.953125"/>
      </g>
     </g>
    </g>
   </g>
   <g id="matplotlib.axis_2">
    <g id="ytick_1">
     <g id="line2d_13">
      <path d="M 82.37 455.7 
L 709.2 455.7 
" clip-path="url(#pf0faa0db59)" style="fill: none; stroke: #b0b0b0; stroke-width: 0.8; stroke-linecap: square"/>
     </g>
     <g id="line2d_14">
      <defs>
       <path id="m566a341d1d" d="M 0 0 
L -3.5 0 
" style="stroke: #000000; stroke-width: 0.8"/>
      </defs>
      <g>
       <use xlink:href="#m566a341d1d" x="82.37" y="455.7" style="stroke: #000000; stroke-width: 0.8"/>
      </g>
     </g>
     <g id="text_7">
      <!-- 0 -->
      <g transform="translate(69.0075 459.499219) scale(0.1 -0.1)">
       <defs>
        <path id="DejaVuSans-30" d="M 2034 4250 
Q 1547 4250 1301 3770 
Q 1056 3291 1056 2328 
Q 1056 1369 1301 889 
Q 1547 409 2034 409 
Q 2525 409 2770 889 
Q 3016 1369 3016 2328 
Q 3016 3291 2770 3770 
Q 2525 4250 2034 4250 
z
M 2034 4750 
Q 2819 4750 3233 4129 
Q 3647 3509 3647 2328 
Q 3647 1150 3233 529 
Q 2819 -91 2034 -91 
Q 1250 -91 836 529 
Q 422 1150 422 2328 
Q 422 3509 836 4129 
Q 1250 4750 2034 4750 
z
" transform="scale(0.015625)"/>
       </defs>
       <use xlink:href="#DejaVuSans-30"/>
      </g>
     </g>
    </g>
    <g id="ytick_2">
     <g id="line2d_15">
      <path d="M 82.37 359.658084 
L 709.2 359.658084 
" clip-path="url(#pf0faa0db59)" style="fill: none; stroke: #b0b0b0; stroke-width: 0.8; stroke-linecap: square"/>
     </g>
     <g id="line2d_16">
      <g>
       <use xlink:href="#m566a341d1d" x="82.37" y="359.658084" style="stroke: #000000; stroke-width: 0.8"/>
      </g>
     </g>
     <g id="text_8">
      <!-- 500,000 -->
      <g transform="translate(34.016875 363.457303) scale(0.1 -0.1)">
       <defs>
        <path id="DejaVuSans-35" d="M 691 4666 
L 3169 4666 
L 3169 4134 
L 1269 4134 
L 1269 2991 
Q 1406 3038 1543 3061 
Q 1681 3084 1819 3084 
Q 2600 3084 3056 2656 
Q 3513 2228 3513 1497 
Q 3513 744 3044 326 
Q 2575 -91 1722 -91 
Q 1428 -91 1123 -41 
Q 819 9 494 109 
L 494 744 
Q 775 591 1075 516 
Q 1375 441 1709 441 
Q 2250 441 2565 725 
Q 2881 1009 2881 1497 
Q 2881 1984 2565 2268 
Q 2250 2553 1709 2553 
Q 1456 2553 1204 2497 
Q 953 2441 691 2322 
L 691 4666 
z
" transform="scale(0.015625)"/>
        <path id="DejaVuSans-2c" d="M 750 794 
L 1409 794 
L 1409 256 
L 897 -744 
L 494 -744 
L 750 256 
L 750 794 
z
" transform="scale(0.015625)"/>
       </defs>
       <use xlink:href="#DejaVuSans-35"/>
       <use xlink:href="#DejaVuSans-30" x="63.623047"/>
       <use xlink:href="#DejaVuSans-30" x="127.246094"/>
       <use xlink:href="#DejaVuSans-2c" x="190.869141"/>
       <use xlink:href="#DejaVuSans-30" x="222.65625"/>
       <use xlink:href="#DejaVuSans-30" x="286.279297"/>
       <use xlink:href="#DejaVuSans-30" x="349.902344"/>
      </g>
     </g>
    </g>
    <g id="ytick_3">
     <g id="line2d_17">
      <path d="M 82.37 263.616168 
L 709.2 263.616168 
" clip-path="url(#pf0faa0db59)" style="fill: none; stroke: #b0b0b0; stroke-width: 0.8; stroke-linecap: square"/>
     </g>
     <g id="line2d_18">
      <g>
       <use xlink:href="#m566a341d1d" x="82.37" y="263.616168" style="stroke: #000000; stroke-width: 0.8"/>
      </g>
     </g>
     <g id="text_9">
      <!-- 1,000,000 -->
      <g transform="translate(24.47625 267.415387) scale(0.1 -0.1)">
       <use xlink:href="#DejaVuSans-31"/>
       <use xlink:href="#DejaVuSans-2c" x="63.623047"/>
       <use xlink:href="#DejaVuSans-30" x="95.410156"/>
       <use xlink:href="#DejaVuSans-30" x="159.033203"/>
       <use xlink:href="#DejaVuSans-30" x="222.65625"/>
       <use xlink:href="#DejaVuSans-2c" x="286.279297"/>
       <use xlink:href="#DejaVuSans-30" x="318.066406"/>
       <use xlink:href="#DejaVuSans-30" x="381.689453"/>
       <use xlink:href="#DejaVuSans-30" x="445.3125"/>
      </g>
     </g>
    </g>
    <g id="ytick_4">
     <g id="line2d_19">
      <path d="M 82.37 167.574252 
L 709.2 167.574252 
" clip-path="url(#pf0faa0db59)" style="fill: none; stroke: #b0b0b0; stroke-width: 0.8; stroke-linecap: square"/>
     </g>
     <g id="line2d_20">
      <g>
       <use xlink:href="#m566a341d1d" x="82.37" y="167.574252" style="stroke: #000000; stroke-width: 0.8"/>
      </g>
     </g>
     <g id="text_10">
      <!-- 1,500,000 -->
      <g transform="translate(24.47625 171.373471) scale(0.1 -0.1)">
       <use xlink:href="#DejaVuSans-31"/>
       <use xlink:href="#DejaVuSans-2c" x="63.623047"/>
       <use xlink:href="#DejaVuSans-35" x="95.410156"/>
       <use xlink:href="#DejaVuSans-30" x="159.033203"/>
       <use xlink:href="#DejaVuSans-30" x="222.65625"/>
       <use xlink:href="#DejaVuSans-2c" x="286.279297"/>
       <use xlink:href="#DejaVuSans-30" x="318.066406"/>
       <use xlink:href="#DejaVuSans-30" x="381.689453"/>
       <use xlink:href="#DejaVuSans-30" x="445.3125"/>
      </g>
     </g>
    </g>
    <g id="ytick_5">
     <g id="line2d_21">
      <path d="M 82.37 71.532336 
L 709.2 71.532336 
" clip-path="url(#pf0faa0db59)" style="fill: none; stroke: #b0b0b0; stroke-width: 0.8; stroke-linecap: square"/>
     </g>
     <g id="line2d_22">
      <g>
       <use xlink:href="#m566a341d1d" x="82.37" y="71.532336" style="stroke: #000000; stroke-width: 0.8"/>
      </g>
     </g>
     <g id="text_11">
      <!-- 2,000,000 -->
      <g transform="translate(24.47625 75.331555) scale(0.1 -0.1)">
       <defs>
        <path id="DejaVuSans-32" d="M 1228 531 
L 3431 531 
L 3431 0 
L 469 0 
L 469 531 
Q 828 903 1448 1529 
Q 2069 2156 2228 2338 
Q 2531 2678 2651 2914 
Q 2772 3150 2772 3378 
Q 2772 3750 2511 3984 
Q 2250 4219 1831 4219 
Q 1534 4219 1204 4116 
Q 875 4013 500 3803 
L 500 4441 
Q 881 4594 1212 4672 
Q 1544 4750 1819 4750 
Q 2544 4750 2975 4387 
Q 3406 4025 3406 3419 
Q 3406 3131 3298 2873 
Q 3191 2616 2906 2266 
Q 2828 2175 2409 1742 
Q 1991 1309 1228 531 
z
" transform="scale(0.015625)"/>
       </defs>
       <use xlink:href="#DejaVuSans-32"/>
       <use xlink:href="#DejaVuSans-2c" x="63.623047"/>
       <use xlink:href="#DejaVuSans-30" x="95.410156"/>
       <use xlink:href="#DejaVuSans-30" x="159.033203"/>
       <use xlink:href="#DejaVuSans-30" x="222.65625"/>
       <use xlink:href="#DejaVuSans-2c" x="286.279297"/>
       <use xlink:href="#DejaVuSans-30" x="318.066406"/>
       <use xlink:href="#DejaVuSans-30" x="381.689453"/>
       <use xlink:href="#DejaVuSans-30" x="445.3125"/>
      </g>
     </g>
    </g>
    <g id="text_12">
     <!-- Cumulative Payload Mass (kg) -->
     <g transform="translate(18.396562 326.863281) rotate(-90) scale(0.1 -0.1)">
      <defs>
       <path id="DejaVuSans-43" d="M 4122 4306 
L 4122 3641 
Q 3803 3938 3442 4084 
Q 3081 4231 2675 4231 
Q 1875 4231 1450 3742 
Q 1025 3253 1025 2328 
Q 1025 1406 1450 917 
Q 1875 428 2675 428 
Q 3081 428 3442 575 
Q 3803 722 4122 1019 
L 4122 359 
Q 3791 134 3420 21 
Q 3050 -91 2638 -91 
Q 1578 -91 968 557 
Q 359 1206 359 2328 
Q 359 3453 968 4101 
Q 1578 4750 2638 4750 
Q 3056 4750 3426 4639 
Q 3797 4528 4122 4306 
z
" transform="scale(0.015625)"/>
       <path id="DejaVuSans-6d" d="M 3328 2828 
Q 3544 3216 3844 3400 
Q 4144 3584 4550 3584 
Q 5097 3584 5394 3201 
Q 5691 2819 5691 2113 
L 5691 0 
L 5113 0 
L 5113 2094 
Q 5113 2597 4934 2840 
Q 4756 3084 4391 3084 
Q 3944 3084 3684 2787 
Q 3425 2491 3425 1978 
L 3425 0 
L 2847 0 
L 2847 2094 
Q 2847 2600 2669 2842 
Q 2491 3084 2119 3084 
Q 1678 3084 1418 2786 
Q 1159 2488 1159 1978 
L 1159 0 
L 581 0 
L 581 3500 
L 1159 3500 
L 1159 2956 
Q 1356 3278 1631 3431 
Q 1906 3584 2284 3584 
Q 2666 3584 2933 3390 
Q 3200 3197 3328 2828 
z
" transform="scale(0.015625)"/>
       <path id="DejaVuSans-74" d="M 1172 4494 
L 1172 3500 
L 2356 3500 
L 2356 3053 
L 1172 3053 
L 1172 1153 
Q 1172 725 1289 603 
Q 1406 481 1766 481 
L 2356 481 
L 2356 0 
L 1766 0 
Q 1100 0 847 248 
Q 594 497 594 1153 
L 594 3053 
L 172 3053 
L 172 3500 
L 594 3500 
L 594 4494 
L 1172 4494 
z
" transform="scale(0.015625)"/>
       <path id="DejaVuSans-69" d="M 603 3500 
L 1178 3500 
L 1178 0 
L 603 0 
L 603 3500 
z
M 603 4863 
L 1178 4863 
L 1178 4134 
L 603 4134 
L 603 4863 
z
" transform="scale(0.015625)"/>
       <path id="DejaVuSans-50" d="M 1259 4147 
L 1259 2394 
L 2053 2394 
Q 2494 2394 2734 2622 
Q 2975 2850 2975 3272 
Q 2975 3691 2734 3919 
Q 2494 4147 2053 4147 
L 1259 4147 
z
M 628 4666 
L 2053 4666 
Q 2838 4666 3239 4311 
Q 3641 3956 3641 3272 
Q 3641 2581 3239 2228 
Q 2838 1875 2053 1875 
L 1259 1875 
L 1259 0 
L 628 0 
L 628 4666 
z
" transform="scale(0.015625)"/>
       <path id="DejaVuSans-64" d="M 2906 2969 
L 2906 4863 
L 3481 4863 
L 3481 0 
L 2906 0 
L 2906 525 
Q 2725 213 2448 61 
Q 2172 -91 1784 -91 
Q 1150 -91 751 415 
Q 353 922 353 1747 
Q 353 2572 751 3078 
Q 1150 3584 1784 3584 
Q 2172 3584 2448 3432 
Q 2725 3281 2906 2969 
z
M 947 1747 
Q 947 1113 1208 752 
Q 1469 391 1925 391 
Q 2381 391 2643 752 
Q 2906 1113 2906 1747 
Q 2906 2381 2643 2742 
Q 2381 3103 1925 3103 
Q 1469 3103 1208 2742 
Q 947 2381 947 1747 
z
" transform="scale(0.015625)"/>
       <path id="DejaVuSans-73" d="M 2834 3397 
L 2834 2853 
Q 2591 2978 2328 3040 
Q 2066 3103 1784 3103 
Q 1356 3103 1142 2972 
Q 928 2841 928 2578 
Q 928 2378 1081 2264 
Q 1234 2150 1697 2047 
L 1894 2003 
Q 2506 1872 2764 1633 
Q 3022 1394 3022 966 
Q 3022 478 2636 193 
Q 2250 -91 1575 -91 
Q 1294 -91 989 -36 
Q 684 19 347 128 
L 347 722 
Q 666 556 975 473 
Q 1284 391 1588 391 
Q 1994 391 2212 530 
Q 2431 669 2431 922 
Q 2431 1156 2273 1281 
Q 2116 1406 1581 1522 
L 1381 1569 
Q 847 1681 609 1914 
Q 372 2147 372 2553 
Q 372 3047 722 3315 
Q 1072 3584 1716 3584 
Q 2034 3584 2315 3537 
Q 2597 3491 2834 3397 
z
" transform="scale(0.015625)"/>
       <path id="DejaVuSans-28" d="M 1984 4856 
Q 1566 4138 1362 3434 
Q 1159 2731 1159 2009 
Q 1159 1288 1364 580 
Q 1569 -128 1984 -844 
L 1484 -844 
Q 1016 -109 783 600 
Q 550 1309 550 2009 
Q 550 2706 781 3412 
Q 1013 4119 1484 4856 
L 1984 4856 
z
" transform="scale(0.015625)"/>
       <path id="DejaVuSans-6b" d="M 581 4863 
L 1159 4863 
L 1159 1991 
L 2875 3500 
L 3609 3500 
L 1753 1863 
L 3688 0 
L 2938 0 
L 1159 1709 
L 1159 0 
L 581 0 
L 581 4863 
z
" transform="scale(0.015625)"/>
       <path id="DejaVuSans-67" d="M 2906 1791 
Q 2906 2416 2648 2759 
Q 2391 3103 1925 3103 
Q 1463 3103 1205 2759 
Q 947 2416 947 1791 
Q 947 1169 1205 825 
Q 1463 481 1925 481 
Q 2391 481 2648 825 
Q 2906 1169 2906 1791 
z
M 3481 434 
Q 3481 -459 3084 -895 
Q 2688 -1331 1869 -1331 
Q 1566 -1331 1297 -1286 
Q 1028 -1241 775 -1147 
L 775 -588 
Q 1028 -725 1275 -790 
Q 1522 -856 1778 -856 
Q 2344 -856 2625 -561 
Q 2906 -266 2906 331 
L 2906 616 
Q 2728 306 2450 153 
Q 2172 0 1784 0 
Q 1141 0 747 490 
Q 353 981 353 1791 
Q 353 2603 747 3093 
Q 1141 3584 1784 3584 
Q 2172 3584 2450 3431 
Q 2728 3278 2906 2969 
L 2906 3500 
L 3481 3500 
L 3481 434 
z
" transform="scale(0.015625)"/>
       <path id="DejaVuSans-29" d="M 513 4856 
L 1013 4856 
Q 1481 4119 1714 3412 
Q 1947 2706 1947 2009 
Q 1947 1309 1714 600 
Q 1481 -109 1013 -844 
L 513 -844 
Q 928 -128 1133 580 
Q 1338 1288 1338 2009 
Q 1338 2731 1133 3434 
Q 928 4138 513 4856 
z
" transform="scale(0.015625)"/>
      </defs>
      <use xlink:href="#DejaVuSans-43"/>
      <use xlink:href="#DejaVuSans-75" x="69.824219"/>
      <use xlink:href="#DejaVuSans-6d" x="133.203125"/>
      <use xlink:href="#DejaVuSans-75" x="230.615234"/>
      <use xlink:href="#DejaVuSans-6c" x="293.994141"/>
      <use xlink:href="#DejaVuSans-61" x="321.777344"/>
      <use xlink:href="#DejaVuSans-74" x="383.056641"/>
      <use xlink:href="#DejaVuSans-69" x="422.265625"/>
      <use xlink:href="#DejaVuSans-76" x="450.048828"/>
      <use xlink:href="#DejaVuSans-65" x="509.228516"/>
      <use xlink:href="#DejaVuSans-20" x="570.751953"/>
      <use xlink:href="#DejaVuSans-50" x="602.539062"/>
      <use xlink:href="#DejaVuSans-61" x="658.341797"/>
      <use xlink:href="#DejaVuSans-79" x="719.621094"/>
      <use xlink:href="#DejaVuSans-6c" x="778.800781"/>
      <use xlink:href="#DejaVuSans-6f" x="806.583984"/>
      <use xlink:href="#DejaVuSans-61" x="867.765625"/>
      <use xlink:href="#DejaVuSans-64" x="929.044922"/>
      <use xlink:href="#DejaVuSans-20" x="992.521484"/>
      <use xlink:href="#DejaVuSans-4d" x="1024.308594"/>
      <use xlink:href="#DejaVuSans-61" x="1110.587891"/>
      <use xlink:href="#DejaVuSans-73" x="1171.867188"/>
      <use xlink:href="#DejaVuSans-73" x="1223.966797"/>
      <use xlink:href="#DejaVuSans-20" x="1276.066406"/>
      <use xlink:href="#DejaVuSans-28" x="1307.853516"/>
      <use xlink:href="#DejaVuSans-6b" x="1346.867188"/>
      <use xlink:href="#DejaVuSans-67" x="1404.777344"/>
      <use xlink:href="#DejaVuSans-29" x="1468.253906"/>
     </g>
    </g>
   </g>
   <g id="line2d_23">
    <path d="M 106.728679 455.7 
L 127.839534 455.7 
L 127.839534 453.855995 
L 186.300363 453.855995 
L 186.300363 453.377706 
L 226.898161 453.377706 
L 226.898161 452.302037 
L 249.632927 452.302037 
L 249.632927 451.283993 
L 301.598109 451.283993 
L 301.598109 451.283993 
L 324.332876 451.283993 
L 324.332876 450.118044 
L 355.187202 450.118044 
L 355.187202 449.597881 
L 387.66544 449.597881 
L 387.66544 448.893125 
L 390.913264 448.893125 
L 390.913264 447.04912 
L 407.152383 447.04912 
L 407.152383 445.750442 
L 472.10886 445.750442 
L 472.10886 445.114644 
L 488.347979 445.114644 
L 488.347979 445.023404 
L 511.082746 445.023404 
L 511.082746 444.064906 
L 563.047927 444.064906 
L 563.047927 442.220901 
L 566.295751 442.220901 
L 566.295751 441.183649 
L 597.150078 441.183649 
L 597.150078 440.511355 
L 671.850026 440.511355 
L 671.850026 440.08781 
L 684.841321 440.08781 
L 684.841321 438.243806 
L 697.832617 438.243806 
L 697.832617 438.243806 
" clip-path="url(#pf0faa0db59)" style="fill: none; stroke: #808080; stroke-width: 1.5; stroke-linecap: square"/>
   </g>
   <g id="line2d_24">
    <path d="M 106.728679 455.7 
L 118.096062 455.7 
L 118.096062 455.7 
L 155.446036 455.7 
L 155.446036 454.887485 
L 165.189508 454.887485 
L 165.189508 454.647381 
L 191.172098 454.647381 
L 191.172098 454.2344 
L 210.659041 454.2344 
L 210.659041 453.064226 
L 249.632927 453.064226 
L 249.632927 451.220221 
L 254.504663 451.220221 
L 254.504663 450.711775 
L 280.487254 450.711775 
L 280.487254 450.642241 
L 317.837228 450.642241 
L 317.837228 449.950739 
L 335.700259 449.950739 
L 335.700259 448.709877 
L 356.811114 448.709877 
L 356.811114 447.675698 
L 397.408912 447.675698 
L 397.408912 447.157648 
L 434.758886 447.157648 
L 434.758886 445.798655 
L 439.630622 445.798655 
L 439.630622 443.95465 
L 460.741477 443.95465 
L 460.741477 442.840564 
L 515.954482 442.840564 
L 515.954482 441.484452 
L 561.424016 441.484452 
L 561.424016 440.9082 
L 623.132668 440.9082 
L 623.132668 439.890156 
L 652.363083 439.890156 
L 652.363083 439.121821 
L 655.610907 439.121821 
L 655.610907 438.641611 
L 684.841321 438.641611 
L 684.841321 437.796442 
L 697.832617 437.796442 
L 697.832617 437.796442 
" clip-path="url(#pf0faa0db59)" style="fill: none; stroke: #90ee90; stroke-width: 1.5; stroke-linecap: square"/>
   </g>
   <g id="line2d_25">
    <path d="M 106.728679 455.7 
L 122.967798 455.7 
L 122.967798 453.855995 
L 191.172098 453.855995 
L 191.172098 452.924389 
L 204.163394 452.924389 
L 204.163394 450.608818 
L 269.11987 450.608818 
L 269.11987 449.366996 
L 306.469845 449.366996 
L 306.469845 448.887747 
L 338.948083 448.887747 
L 338.948083 446.271565 
L 369.802409 446.271565 
L 369.802409 445.464813 
L 390.913264 445.464813 
L 390.913264 444.754103 
L 439.630622 444.754103 
L 439.630622 444.318457 
L 459.117565 444.318457 
L 459.117565 443.069912 
L 616.637021 443.069912 
L 616.637021 440.073404 
L 655.610907 440.073404 
L 655.610907 439.570721 
L 675.09785 439.570721 
L 675.09785 438.234585 
L 697.832617 438.234585 
L 697.832617 438.234585 
" clip-path="url(#pf0faa0db59)" style="fill: none; stroke: #add8e6; stroke-width: 1.5; stroke-linecap: square"/>
   </g>
   <g id="line2d_26">
    <path d="M 106.728679 455.7 
L 116.47215 455.7 
L 116.47215 452.703492 
L 135.959093 452.703492 
L 135.959093 450.388882 
L 152.198212 450.388882 
L 152.198212 447.392374 
L 183.052539 447.392374 
L 183.052539 444.395866 
L 213.906865 444.395866 
L 213.906865 444.016117 
L 231.769896 444.016117 
L 231.769896 441.019609 
L 288.606813 441.019609 
L 288.606813 438.023101 
L 350.315466 438.023101 
L 350.315466 435.616291 
L 358.435026 435.616291 
L 358.435026 432.619783 
L 373.050233 432.619783 
L 373.050233 429.659771 
L 400.656736 429.659771 
L 400.656736 428.831698 
L 433.134974 428.831698 
L 433.134974 427.775237 
L 462.365389 427.775237 
L 462.365389 424.907041 
L 480.22842 424.907041 
L 480.22842 421.941267 
L 499.715363 421.941267 
L 499.715363 421.340044 
L 506.21101 421.340044 
L 506.21101 418.343536 
L 559.800104 418.343536 
L 559.800104 415.347029 
L 579.287047 415.347029 
L 579.287047 412.350521 
L 589.030518 412.350521 
L 589.030518 409.354013 
L 608.517461 409.354013 
L 608.517461 408.52594 
L 626.380492 408.52594 
L 626.380492 406.124892 
L 634.500052 406.124892 
L 634.500052 405.895928 
L 640.995699 405.895928 
L 640.995699 402.89942 
L 658.858731 402.89942 
L 658.858731 402.328547 
L 670.226114 402.328547 
L 670.226114 400.98396 
L 679.969585 400.98396 
L 679.969585 400.98396 
L 699.456528 400.98396 
L 699.456528 400.98396 
" clip-path="url(#pf0faa0db59)" style="fill: none; stroke: #ffc0cb; stroke-width: 1.5; stroke-linecap: square"/>
   </g>
   <g id="line2d_27">
    <path d="M 106.728679 455.7 
L 118.096062 455.7 
L 118.096062 455.027707 
L 137.583005 455.027707 
L 137.583005 452.031199 
L 144.078653 452.031199 
L 144.078653 451.07078 
L 161.941684 451.07078 
L 161.941684 448.074272 
L 181.428627 448.074272 
L 181.428627 445.077764 
L 207.411218 445.077764 
L 207.411218 442.081256 
L 218.778601 442.081256 
L 218.778601 439.084749 
L 223.650337 439.084749 
L 223.650337 436.088241 
L 239.889456 436.088241 
L 239.889456 433.091733 
L 262.624223 433.091733 
L 262.624223 430.095225 
L 288.606813 430.095225 
L 288.606813 427.598135 
L 298.350285 427.598135 
L 298.350285 424.601628 
L 306.469845 424.601628 
L 306.469845 421.60512 
L 314.589404 421.60512 
L 314.589404 418.608612 
L 324.332876 418.608612 
L 324.332876 415.642838 
L 342.195907 415.642838 
L 342.195907 412.64633 
L 355.187202 412.64633 
L 355.187202 412.007075 
L 360.058938 412.007075 
L 360.058938 410.662488 
L 377.921969 410.662488 
L 377.921969 409.830573 
L 399.032824 409.830573 
L 399.032824 409.830573 
L 496.467539 409.830573 
L 496.467539 409.407989 
L 522.45013 409.407989 
L 522.45013 406.860957 
L 525.697953 406.860957 
L 525.697953 404.456259 
L 616.637021 404.456259 
L 616.637021 401.95917 
L 619.884845 401.95917 
L 619.884845 398.955939 
L 637.747876 398.955939 
L 637.747876 398.836079 
L 650.739171 398.836079 
L 650.739171 396.050863 
L 662.106554 396.050863 
L 662.106554 395.988436 
L 676.721762 395.988436 
L 676.721762 392.991928 
L 678.345674 392.991928 
L 678.345674 392.127551 
L 681.593497 392.127551 
L 681.593497 391.553412 
L 697.832617 391.553412 
L 697.832617 391.553412 
" clip-path="url(#pf0faa0db59)" style="fill: none; stroke: #800080; stroke-width: 1.5; stroke-linecap: square"/>
   </g>
   <g id="line2d_28">
    <path d="M 106.728679 455.7 
L 114.848238 455.7 
L 114.848238 452.914784 
L 126.215622 452.914784 
L 126.215622 452.914784 
L 135.959093 452.914784 
L 135.959093 450.129569 
L 155.446036 450.129569 
L 155.446036 449.706024 
L 158.69386 449.706024 
L 158.69386 449.706024 
L 160.317772 449.706024 
L 160.317772 446.920808 
L 189.548187 446.920808 
L 189.548187 444.308468 
L 196.043834 444.308468 
L 196.043834 441.475232 
L 205.787306 441.475232 
L 205.787306 438.805267 
L 215.530777 438.805267 
L 215.530777 436.085359 
L 231.769896 436.085359 
L 231.769896 432.963997 
L 252.880751 432.963997 
L 252.880751 432.963997 
L 264.248135 432.963997 
L 264.248135 430.466907 
L 278.863342 430.466907 
L 278.863342 430.466907 
L 285.35899 430.466907 
L 285.35899 427.345545 
L 295.102461 427.345545 
L 295.102461 424.848455 
L 298.350285 424.848455 
L 298.350285 421.727093 
L 309.717668 421.727093 
L 309.717668 418.605731 
L 321.085052 418.605731 
L 321.085052 415.484368 
L 322.708964 415.484368 
L 322.708964 412.363006 
L 329.204611 412.363006 
L 329.204611 409.241644 
L 340.571995 409.241644 
L 340.571995 409.241644 
L 363.306762 409.241644 
L 363.306762 408.4541 
L 377.921969 408.4541 
L 377.921969 405.332738 
L 379.545881 405.332738 
L 379.545881 404.564403 
L 381.169793 404.564403 
L 381.169793 404.429944 
L 397.408912 404.429944 
L 397.408912 403.757651 
L 410.400207 403.757651 
L 410.400207 400.636288 
L 416.895855 400.636288 
L 416.895855 397.927906 
L 423.391503 397.927906 
L 423.391503 397.415427 
L 426.639326 397.415427 
L 426.639326 394.294064 
L 434.758886 394.294064 
L 434.758886 391.585682 
L 438.00671 391.585682 
L 438.00671 388.46432 
L 455.869741 388.46432 
L 455.869741 388.333895 
L 465.613212 388.333895 
L 465.613212 385.260554 
L 468.861036 385.260554 
L 468.861036 382.552172 
L 480.22842 382.552172 
L 480.22842 379.430809 
L 494.843627 379.430809 
L 494.843627 376.223009 
L 499.715363 376.223009 
L 499.715363 373.495419 
L 507.834922 373.495419 
L 507.834922 370.422078 
L 517.578394 370.422078 
L 517.578394 368.128981 
L 530.569689 368.128981 
L 530.569689 364.921181 
L 538.689249 364.921181 
L 538.689249 361.828631 
L 556.55228 361.828631 
L 556.55228 359.331541 
L 556.55228 359.331541 
L 556.55228 356.238992 
L 561.424016 356.238992 
L 561.424016 354.827176 
L 572.791399 354.827176 
L 572.791399 353.962798 
L 580.910959 353.962798 
L 580.910959 350.754998 
L 593.902254 350.754998 
L 593.902254 347.604823 
L 600.397902 347.604823 
L 600.397902 346.884509 
L 603.645725 346.884509 
L 603.645725 346.020132 
L 618.260933 346.020132 
L 618.260933 344.752379 
L 636.123964 344.752379 
L 636.123964 343.695918 
L 640.995699 343.695918 
L 640.995699 343.018246 
L 660.482642 343.018246 
L 660.482642 341.865743 
L 665.354378 341.865743 
L 665.354378 341.673659 
L 673.473938 341.673659 
L 673.473938 341.251074 
L 673.473938 341.251074 
L 673.473938 340.463531 
L 675.09785 340.463531 
L 675.09785 337.255731 
L 692.960881 337.255731 
L 692.960881 334.047931 
L 696.208705 334.047931 
L 696.208705 333.971097 
L 697.832617 333.971097 
L 697.832617 333.971097 
" clip-path="url(#pf0faa0db59)" style="fill: none; stroke: #ffa500; stroke-width: 1.5; stroke-linecap: square"/>
   </g>
   <g id="line2d_29">
    <path d="M 106.728679 455.7 
L 121.343886 455.7 
L 121.343886 454.547497 
L 129.463446 454.547497 
L 129.463446 453.827183 
L 134.335181 453.827183 
L 134.335181 452.991234 
L 135.959093 452.991234 
L 135.959093 450.109976 
L 147.326477 450.109976 
L 147.326477 446.767718 
L 155.446036 446.767718 
L 155.446036 443.848043 
L 158.69386 443.848043 
L 158.69386 440.67866 
L 166.81342 440.67866 
L 166.81342 439.882281 
L 174.932979 439.882281 
L 174.932979 436.597647 
L 183.052539 436.597647 
L 183.052539 433.543514 
L 184.676451 433.543514 
L 184.676451 432.492816 
L 199.291658 432.492816 
L 199.291658 429.553933 
L 204.163394 429.553933 
L 204.163394 427.056843 
L 205.787306 427.056843 
L 205.787306 424.00271 
L 215.530777 424.00271 
L 215.530777 422.850207 
L 225.274249 422.850207 
L 225.274249 422.302384 
L 228.522073 422.302384 
L 228.522073 417.846039 
L 239.889456 417.846039 
L 239.889456 414.503781 
L 248.009016 414.503781 
L 248.009016 411.161522 
L 262.624223 411.161522 
L 262.624223 410.088157 
L 282.111166 410.088157 
L 282.111166 407.149275 
L 295.102461 407.149275 
L 295.102461 404.440893 
L 296.726373 404.440893 
L 296.726373 403.653349 
L 301.598109 403.653349 
L 301.598109 402.424013 
L 306.469845 402.424013 
L 306.469845 399.081754 
L 316.213316 399.081754 
L 316.213316 396.027621 
L 322.708964 396.027621 
L 322.708964 392.685362 
L 330.828523 392.685362 
L 330.828523 389.592813 
L 332.452435 389.592813 
L 332.452435 388.325059 
L 334.076347 388.325059 
L 334.076347 385.827969 
L 343.819819 385.827969 
L 343.819819 384.963592 
L 350.315466 384.963592 
L 350.315466 381.813417 
L 356.811114 381.813417 
L 356.811114 378.720868 
L 358.435026 378.720868 
L 358.435026 378.086223 
L 369.802409 378.086223 
L 369.802409 374.936048 
L 369.802409 374.936048 
L 379.545881 374.936048 
L 379.545881 374.056304 
L 386.041528 374.056304 
L 386.041528 371.271088 
L 387.66544 371.271088 
L 387.66544 367.92883 
L 400.656736 367.92883 
L 400.656736 367.513929 
L 410.400207 367.513929 
L 410.400207 364.651879 
L 415.271943 364.651879 
L 415.271943 361.55933 
L 425.015415 361.55933 
L 425.015415 358.35153 
L 431.511062 358.35153 
L 431.511062 356.046524 
L 438.00671 356.046524 
L 438.00671 352.953974 
L 444.502358 352.953974 
L 444.502358 349.861424 
L 446.126269 349.861424 
L 446.126269 348.094253 
L 454.245829 348.094253 
L 454.245829 347.121733 
L 460.741477 347.121733 
L 460.741477 344.029183 
L 462.365389 344.029183 
L 462.365389 341.724177 
L 467.237124 341.724177 
L 467.237124 338.631627 
L 476.980596 338.631627 
L 476.980596 335.539078 
L 485.100155 335.539078 
L 485.100155 332.600195 
L 491.595803 332.600195 
L 491.595803 330.103105 
L 493.219715 330.103105 
L 493.219715 327.010555 
L 501.339275 327.010555 
L 501.339275 323.918006 
L 506.21101 323.918006 
L 506.21101 320.979123 
L 514.33057 320.979123 
L 514.33057 317.886573 
L 519.202306 317.886573 
L 519.202306 314.947691 
L 525.697953 314.947691 
L 525.697953 311.855141 
L 532.193601 311.855141 
L 532.193601 308.762591 
L 538.689249 308.762591 
L 538.689249 305.670042 
L 540.313161 305.670042 
L 540.313161 302.731159 
L 548.43272 302.731159 
L 548.43272 299.638609 
L 556.55228 299.638609 
L 556.55228 296.54606 
L 563.047927 296.54606 
L 563.047927 293.607177 
L 569.543575 293.607177 
L 569.543575 290.013673 
L 577.663135 290.013673 
L 577.663135 286.921123 
L 582.53487 286.921123 
L 582.53487 283.98224 
L 584.158782 283.98224 
L 584.158782 280.755232 
L 595.526166 280.755232 
L 595.526166 277.662682 
L 597.150078 277.662682 
L 597.150078 274.435674 
L 605.269637 274.435674 
L 605.269637 271.208666 
L 611.765285 271.208666 
L 611.765285 267.981657 
L 615.013109 267.981657 
L 615.013109 266.152059 
L 618.260933 266.152059 
L 618.260933 265.364515 
L 628.004404 265.364515 
L 628.004404 262.137507 
L 628.004404 262.137507 
L 631.252228 262.137507 
L 631.252228 259.044957 
L 634.500052 259.044957 
L 634.500052 255.817949 
L 644.243523 255.817949 
L 644.243523 252.59094 
L 649.115259 252.59094 
L 649.115259 252.437273 
L 652.363083 252.437273 
L 652.363083 249.210265 
L 658.858731 249.210265 
L 658.858731 245.983256 
L 660.482642 245.983256 
L 660.482642 242.890707 
L 678.345674 242.890707 
L 678.345674 239.663698 
L 684.841321 239.663698 
L 684.841321 236.43669 
L 686.465233 236.43669 
L 686.465233 235.745188 
L 694.584793 235.745188 
L 694.584793 231.298447 
L 697.832617 231.298447 
L 697.832617 231.298447 
" clip-path="url(#pf0faa0db59)" style="fill: none; stroke: #0000ff; stroke-width: 1.5; stroke-linecap: square"/>
   </g>
   <g id="line2d_30">
    <path d="M 106.728679 455.7 
L 109.976503 455.7 
L 109.976503 452.127241 
L 116.47215 452.127241 
L 116.47215 448.842607 
L 127.839534 448.842607 
L 127.839534 445.634807 
L 129.463446 445.634807 
L 129.463446 442.350174 
L 134.335181 442.350174 
L 134.335181 439.853084 
L 144.078653 439.853084 
L 144.078653 436.645284 
L 152.198212 436.645284 
L 152.198212 430.15285 
L 153.822124 430.15285 
L 153.822124 429.437146 
L 168.437332 429.437146 
L 168.437332 429.111756 
L 171.685155 429.111756 
L 171.685155 425.903956 
L 179.804715 425.903956 
L 179.804715 422.325242 
L 187.924275 422.325242 
L 187.924275 421.556907 
L 192.79601 421.556907 
L 192.79601 418.349107 
L 196.043834 418.349107 
L 196.043834 414.98764 
L 202.539482 414.98764 
L 202.539482 411.703006 
L 209.03513 411.703006 
L 209.03513 405.921283 
L 218.778601 405.921283 
L 218.778601 402.636649 
L 220.402513 402.636649 
L 220.402513 399.352016 
L 228.522073 399.352016 
L 228.522073 396.067382 
L 233.393808 396.067382 
L 233.393808 392.936416 
L 236.641632 392.936416 
L 236.641632 392.413756 
L 241.513368 392.413756 
L 241.513368 389.129122 
L 243.13728 389.129122 
L 243.13728 385.844489 
L 251.256839 385.844489 
L 251.256839 384.884069 
L 252.880751 384.884069 
L 252.880751 381.599436 
L 256.128575 381.599436 
L 256.128575 378.391636 
L 261.000311 378.391636 
L 261.000311 375.107002 
L 264.248135 375.107002 
L 264.248135 371.879994 
L 264.248135 371.879994 
L 269.11987 371.879994 
L 269.11987 368.59536 
L 270.743782 368.59536 
L 270.743782 368.36486 
L 273.991606 368.36486 
L 273.991606 365.080226 
L 280.487254 365.080226 
L 280.487254 361.795593 
L 282.111166 361.795593 
L 282.111166 358.510959 
L 290.230725 358.510959 
L 290.230725 355.226326 
L 298.350285 355.226326 
L 298.350285 351.634358 
L 304.845933 351.634358 
L 304.845933 351.346232 
L 306.469845 351.346232 
L 306.469845 348.061599 
L 311.34158 348.061599 
L 311.34158 344.776965 
L 314.589404 344.776965 
L 314.589404 341.492332 
L 317.837228 341.492332 
L 317.837228 338.361365 
L 322.708964 338.361365 
L 322.708964 335.076732 
L 324.332876 335.076732 
L 324.332876 331.945765 
L 330.828523 331.945765 
L 330.828523 328.661132 
L 338.948083 328.661132 
L 338.948083 325.376498 
L 340.571995 325.376498 
L 340.571995 322.091865 
L 347.067642 322.091865 
L 347.067642 318.355834 
L 353.56329 318.355834 
L 353.56329 315.071201 
L 360.058938 315.071201 
L 360.058938 311.940234 
L 364.930674 311.940234 
L 364.930674 305.601468 
L 382.793705 305.601468 
L 382.793705 302.470501 
L 384.417617 302.470501 
L 384.417617 301.510082 
L 389.289352 301.510082 
L 389.289352 298.302282 
L 390.913264 298.302282 
L 390.913264 295.171316 
L 392.537176 295.171316 
L 392.537176 294.210897 
L 395.785 294.210897 
L 395.785 290.926263 
L 405.528472 290.926263 
L 405.528472 287.795297 
L 413.648031 287.795297 
L 413.648031 286.97894 
L 444.502358 286.97894 
L 444.502358 283.694307 
L 446.126269 283.694307 
L 446.126269 277.24029 
L 454.245829 277.24029 
L 454.245829 273.955656 
L 457.493653 273.955656 
L 457.493653 269.930156 
L 467.237124 269.930156 
L 467.237124 266.760772 
L 470.484948 266.760772 
L 470.484948 262.087373 
L 475.356684 262.087373 
L 475.356684 261.799247 
L 483.476244 261.799247 
L 483.476244 258.591447 
L 496.467539 258.591447 
L 496.467539 255.383647 
L 501.339275 255.383647 
L 501.339275 248.968047 
L 509.458834 248.968047 
L 509.458834 245.760247 
L 517.578394 245.760247 
L 517.578394 243.263157 
L 520.826218 243.263157 
L 520.826218 241.822528 
L 522.45013 241.822528 
L 522.45013 238.614728 
L 528.945777 238.614728 
L 528.945777 238.307394 
L 533.817513 238.307394 
L 533.817513 235.176428 
L 541.937073 235.176428 
L 541.937073 232.045461 
L 546.808808 232.045461 
L 546.808808 229.548372 
L 561.424016 229.548372 
L 561.424016 229.335543 
L 572.791399 229.335543 
L 572.791399 228.170554 
L 574.415311 228.170554 
L 574.415311 221.754954 
L 579.287047 221.754954 
L 579.287047 218.623988 
L 582.53487 218.623988 
L 582.53487 218.056572 
L 587.406606 218.056572 
L 587.406606 214.771939 
L 592.278342 214.771939 
L 592.278342 211.564139 
L 598.77399 211.564139 
L 598.77399 205.148539 
L 608.517461 205.148539 
L 608.517461 204.618003 
L 611.765285 204.618003 
L 611.765285 201.33337 
L 615.013109 201.33337 
L 615.013109 198.202403 
L 618.260933 198.202403 
L 618.260933 194.168643 
L 623.132668 194.168643 
L 623.132668 187.676209 
L 628.004404 187.676209 
L 628.004404 186.907874 
L 629.628316 186.907874 
L 629.628316 182.874113 
L 634.500052 182.874113 
L 634.500052 179.512646 
L 639.371788 179.512646 
L 639.371788 176.38168 
L 640.995699 176.38168 
L 640.995699 173.097046 
L 644.243523 173.097046 
L 644.243523 169.735579 
L 649.115259 169.735579 
L 649.115259 163.281562 
L 655.610907 163.281562 
L 655.610907 159.920095 
L 657.234819 159.920095 
L 657.234819 155.444542 
L 662.106554 155.444542 
L 662.106554 152.159909 
L 670.226114 152.159909 
L 670.226114 148.952109 
L 676.721762 148.952109 
L 676.721762 147.463459 
L 683.217409 147.463459 
L 683.217409 147.309792 
L 686.465233 147.309792 
L 686.465233 144.140409 
L 696.208705 144.140409 
L 696.208705 140.625274 
L 699.456528 140.625274 
L 699.456528 140.625274 
L 699.456528 137.455891 
L 699.456528 137.455891 
" clip-path="url(#pf0faa0db59)" style="fill: none; stroke: #008000; stroke-width: 1.5; stroke-linecap: square"/>
   </g>
   <g id="line2d_31">
    <path d="M 106.728679 455.7 
L 111.600415 455.7 
L 111.600415 454.739581 
L 114.848238 454.739581 
L 114.848238 451.378114 
L 118.096062 451.378114 
L 118.096062 448.208731 
L 121.343886 448.208731 
L 121.343886 448.208731 
L 121.343886 445.039347 
L 126.215622 445.039347 
L 126.215622 441.869964 
L 127.839534 441.869964 
L 127.839534 441.485796 
L 129.463446 441.485796 
L 129.463446 441.002321 
L 139.206917 441.002321 
L 139.206917 435.086139 
L 144.078653 435.086139 
L 144.078653 431.801506 
L 148.950389 431.801506 
L 148.950389 428.632123 
L 153.822124 428.632123 
L 153.822124 427.460411 
L 157.069948 427.460411 
L 157.069948 424.252611 
L 161.941684 424.252611 
L 161.941684 420.795102 
L 168.437332 420.795102 
L 168.437332 417.625719 
L 173.309067 417.625719 
L 173.309067 411.171702 
L 179.804715 411.171702 
L 179.804715 408.002319 
L 184.676451 408.002319 
L 184.676451 404.717686 
L 189.548187 404.717686 
L 189.548187 401.433052 
L 192.79601 401.433052 
L 192.79601 398.206044 
L 199.291658 398.206044 
L 199.291658 398.206044 
L 199.291658 395.03666 
L 205.787306 395.03666 
L 205.787306 391.867277 
L 220.402513 391.867277 
L 220.402513 391.721678 
L 222.026425 391.721678 
L 222.026425 388.552294 
L 223.650337 388.552294 
L 223.650337 386.055205 
L 225.274249 386.055205 
L 225.274249 386.055205 
L 225.274249 382.770571 
L 230.145984 382.770571 
L 230.145984 379.485938 
L 243.13728 379.485938 
L 243.13728 376.508638 
L 251.256839 376.508638 
L 251.256839 373.416088 
L 252.880751 373.416088 
L 252.880751 370.918999 
L 257.752487 370.918999 
L 257.752487 367.941699 
L 261.000311 367.941699 
L 261.000311 364.84915 
L 262.624223 364.84915 
L 262.624223 361.87185 
L 272.367694 361.87185 
L 272.367694 358.702467 
L 273.991606 358.702467 
L 273.991606 355.725167 
L 285.35899 355.725167 
L 285.35899 355.144882 
L 291.854637 355.144882 
L 291.854637 352.052333 
L 296.726373 352.052333 
L 296.726373 345.7904 
L 298.350285 345.7904 
L 298.350285 342.505766 
L 303.222021 342.505766 
L 303.222021 339.413216 
L 306.469845 339.413216 
L 306.469845 336.210218 
L 311.34158 336.210218 
L 311.34158 333.117669 
L 316.213316 333.117669 
L 316.213316 327.153466 
L 321.085052 327.153466 
L 321.085052 321.189263 
L 322.708964 321.189263 
L 322.708964 318.096713 
L 325.956788 318.096713 
L 325.956788 315.22506 
L 334.076347 315.22506 
L 334.076347 311.940426 
L 337.324171 311.940426 
L 337.324171 308.963127 
L 338.948083 308.963127 
L 338.948083 305.678493 
L 343.819819 305.678493 
L 343.819819 302.317026 
L 343.819819 302.317026 
L 345.443731 302.317026 
L 345.443731 299.339727 
L 348.691554 299.339727 
L 348.691554 298.504162 
L 350.315466 298.504162 
L 350.315466 295.526863 
L 355.187202 295.526863 
L 355.187202 292.242229 
L 356.811114 292.242229 
L 356.811114 289.26493 
L 361.68285 289.26493 
L 361.68285 288.035593 
L 363.306762 288.035593 
L 363.306762 285.16394 
L 366.554585 285.16394 
L 366.554585 281.879307 
L 371.426321 281.879307 
L 371.426321 275.72302 
L 377.921969 275.72302 
L 377.921969 272.851366 
L 379.545881 272.851366 
L 379.545881 269.758817 
L 387.66544 269.758817 
L 387.66544 266.781517 
L 387.66544 266.781517 
L 390.913264 266.781517 
L 390.913264 261.307128 
L 395.785 261.307128 
L 395.785 255.458175 
L 400.656736 255.458175 
L 400.656736 254.728257 
L 402.280648 254.728257 
L 402.280648 251.750958 
L 412.024119 251.750958 
L 412.024119 248.658408 
L 420.143679 248.658408 
L 420.143679 247.890073 
L 425.015415 247.890073 
L 425.015415 242.178652 
L 429.88715 242.178652 
L 429.88715 238.817185 
L 434.758886 238.817185 
L 434.758886 238.1641 
L 436.382798 238.1641 
L 436.382798 237.987383 
L 441.254534 237.987383 
L 441.254534 234.894833 
L 442.878446 234.894833 
L 442.878446 231.533366 
L 447.750181 231.533366 
L 447.750181 228.440816 
L 449.374093 228.440816 
L 449.374093 225.740117 
L 450.998005 225.740117 
L 450.998005 223.243028 
L 455.869741 223.243028 
L 455.869741 220.150478 
L 467.237124 220.150478 
L 467.237124 217.310711 
L 472.10886 217.310711 
L 472.10886 210.856694 
L 478.604508 210.856694 
L 478.604508 207.495227 
L 485.100155 207.495227 
L 485.100155 203.175261 
L 488.347979 203.175261 
L 488.347979 202.733469 
L 491.595803 202.733469 
L 491.595803 199.396972 
L 493.219715 199.396972 
L 493.219715 196.304423 
L 494.843627 196.304423 
L 494.843627 193.211873 
L 498.091451 193.211873 
L 498.091451 189.850406 
L 499.715363 189.850406 
L 499.715363 186.757856 
L 504.587098 186.757856 
L 504.587098 180.30384 
L 507.834922 180.30384 
L 507.834922 177.21129 
L 509.458834 177.21129 
L 509.458834 173.849823 
L 519.202306 173.849823 
L 519.202306 172.351569 
L 520.826218 172.351569 
L 520.826218 168.990102 
L 522.45013 168.990102 
L 522.45013 168.029683 
L 528.945777 168.029683 
L 528.945777 164.937133 
L 530.569689 164.937133 
L 530.569689 161.575666 
L 533.817513 161.575666 
L 533.817513 158.483116 
L 538.689249 158.483116 
L 538.689249 158.199408 
L 540.313161 158.199408 
L 540.313161 155.106859 
L 541.937073 155.106859 
L 541.937073 151.745392 
L 546.808808 151.745392 
L 546.808808 148.652842 
L 553.304456 148.652842 
L 553.304456 145.560292 
L 559.800104 145.560292 
L 559.800104 142.467743 
L 561.424016 142.467743 
L 561.424016 139.375193 
L 569.543575 139.375193 
L 569.543575 136.301852 
L 571.167487 136.301852 
L 571.167487 133.462084 
L 574.415311 133.462084 
L 574.415311 130.369534 
L 579.287047 130.369534 
L 579.287047 124.184435 
L 584.158782 124.184435 
L 584.158782 121.091885 
L 587.406606 121.091885 
L 587.406606 119.920174 
L 589.030518 119.920174 
L 589.030518 116.827624 
L 590.65443 116.827624 
L 590.65443 113.735075 
L 593.902254 113.735075 
L 593.902254 110.642525 
L 595.526166 110.642525 
L 595.526166 107.439527 
L 598.77399 107.439527 
L 598.77399 104.346977 
L 608.517461 104.346977 
L 608.517461 98.05143 
L 613.389197 98.05143 
L 613.389197 94.848432 
L 616.637021 94.848432 
L 616.637021 91.645434 
L 623.132668 91.645434 
L 623.132668 85.239438 
L 626.380492 85.239438 
L 626.380492 84.962837 
L 629.628316 84.962837 
L 629.628316 81.759839 
L 632.87614 81.759839 
L 632.87614 78.556842 
L 634.500052 78.556842 
L 634.500052 75.353844 
L 636.123964 75.353844 
L 636.123964 72.261294 
L 649.115259 72.261294 
L 649.115259 69.058296 
L 650.739171 69.058296 
L 650.739171 62.873197 
L 653.986995 62.873197 
L 653.986995 59.780647 
L 658.858731 59.780647 
L 658.858731 56.688097 
L 660.482642 56.688097 
L 660.482642 53.485099 
L 663.730466 53.485099 
L 663.730466 50.502998 
L 665.354378 50.502998 
L 665.354378 47.3 
L 666.97829 47.3 
L 666.97829 47.3 
" clip-path="url(#pf0faa0db59)" style="fill: none; stroke: #ff0000; stroke-width: 1.5; stroke-linecap: square"/>
   </g>
   <g id="patch_3">
    <path d="M 82.37 476.12 
L 82.37 26.88 
" style="fill: none; stroke: #000000; stroke-width: 0.8; stroke-linejoin: miter; stroke-linecap: square"/>
   </g>
   <g id="patch_4">
    <path d="M 709.2 476.12 
L 709.2 26.88 
" style="fill: none; stroke: #000000; stroke-width: 0.8; stroke-linejoin: miter; stroke-linecap: square"/>
   </g>
   <g id="patch_5">
    <path d="M 82.37 476.12 
L 709.2 476.12 
" style="fill: none; stroke: #000000; stroke-width: 0.8; stroke-linejoin: miter; stroke-linecap: square"/>
   </g>
   <g id="patch_6">
    <path d="M 82.37 26.88 
L 709.2 26.88 
" style="fill: none; stroke: #000000; stroke-width: 0.8; stroke-linejoin: miter; stroke-linecap: square"/>
   </g>
   <g id="text_13">
    <!-- Cumulative Payload Mass to Orbit By Year -->
    <g transform="translate(270.179688 20.88) scale(0.12 -0.12)">
     <defs>
      <path id="DejaVuSans-4f" d="M 2522 4238 
Q 1834 4238 1429 3725 
Q 1025 3213 1025 2328 
Q 1025 1447 1429 934 
Q 1834 422 2522 422 
Q 3209 422 3611 934 
Q 4013 1447 4013 2328 
Q 4013 3213 3611 3725 
Q 3209 4238 2522 4238 
z
M 2522 4750 
Q 3503 4750 4090 4092 
Q 4678 3434 4678 2328 
Q 4678 1225 4090 567 
Q 3503 -91 2522 -91 
Q 1538 -91 948 565 
Q 359 1222 359 2328 
Q 359 3434 948 4092 
Q 1538 4750 2522 4750 
z
" transform="scale(0.015625)"/>
      <path id="DejaVuSans-62" d="M 3116 1747 
Q 3116 2381 2855 2742 
Q 2594 3103 2138 3103 
Q 1681 3103 1420 2742 
Q 1159 2381 1159 1747 
Q 1159 1113 1420 752 
Q 1681 391 2138 391 
Q 2594 391 2855 752 
Q 3116 1113 3116 1747 
z
M 1159 2969 
Q 1341 3281 1617 3432 
Q 1894 3584 2278 3584 
Q 2916 3584 3314 3078 
Q 3713 2572 3713 1747 
Q 3713 922 3314 415 
Q 2916 -91 2278 -91 
Q 1894 -91 1617 61 
Q 1341 213 1159 525 
L 1159 0 
L 581 0 
L 581 4863 
L 1159 4863 
L 1159 2969 
z
" transform="scale(0.015625)"/>
      <path id="DejaVuSans-42" d="M 1259 2228 
L 1259 519 
L 2272 519 
Q 2781 519 3026 730 
Q 3272 941 3272 1375 
Q 3272 1813 3026 2020 
Q 2781 2228 2272 2228 
L 1259 2228 
z
M 1259 4147 
L 1259 2741 
L 2194 2741 
Q 2656 2741 2882 2914 
Q 3109 3088 3109 3444 
Q 3109 3797 2882 3972 
Q 2656 4147 2194 4147 
L 1259 4147 
z
M 628 4666 
L 2241 4666 
Q 2963 4666 3353 4366 
Q 3744 4066 3744 3513 
Q 3744 3084 3544 2831 
Q 3344 2578 2956 2516 
Q 3422 2416 3680 2098 
Q 3938 1781 3938 1306 
Q 3938 681 3513 340 
Q 3088 0 2303 0 
L 628 0 
L 628 4666 
z
" transform="scale(0.015625)"/>
      <path id="DejaVuSans-59" d="M -13 4666 
L 666 4666 
L 1959 2747 
L 3244 4666 
L 3922 4666 
L 2272 2222 
L 2272 0 
L 1638 0 
L 1638 2222 
L -13 4666 
z
" transform="scale(0.015625)"/>
     </defs>
     <use xlink:href="#DejaVuSans-43"/>
     <use xlink:href="#DejaVuSans-75" x="69.824219"/>
     <use xlink:href="#DejaVuSans-6d" x="133.203125"/>
     <use xlink:href="#DejaVuSans-75" x="230.615234"/>
     <use xlink:href="#DejaVuSans-6c" x="293.994141"/>
     <use xlink:href="#DejaVuSans-61" x="321.777344"/>
     <use xlink:href="#DejaVuSans-74" x="383.056641"/>
     <use xlink:href="#DejaVuSans-69" x="422.265625"/>
     <use xlink:href="#DejaVuSans-76" x="450.048828"/>
     <use xlink:href="#DejaVuSans-65" x="509.228516"/>
     <use xlink:href="#DejaVuSans-20" x="570.751953"/>
     <use xlink:href="#DejaVuSans-50" x="602.539062"/>
     <use xlink:href="#DejaVuSans-61" x="658.341797"/>
     <use xlink:href="#DejaVuSans-79" x="719.621094"/>
     <use xlink:href="#DejaVuSans-6c" x="778.800781"/>
     <use xlink:href="#DejaVuSans-6f" x="806.583984"/>
     <use xlink:href="#DejaVuSans-61" x="867.765625"/>
     <use xlink:href="#DejaVuSans-64" x="929.044922"/>
     <use xlink:href="#DejaVuSans-20" x="992.521484"/>
     <use xlink:href="#DejaVuSans-4d" x="1024.308594"/>
     <use xlink:href="#DejaVuSans-61" x="1110.587891"/>
     <use xlink:href="#DejaVuSans-73" x="1171.867188"/>
     <use xlink:href="#DejaVuSans-73" x="1223.966797"/>
     <use xlink:href="#DejaVuSans-20" x="1276.066406"/>
     <use xlink:href="#DejaVuSans-74" x="1307.853516"/>
     <use xlink:href="#DejaVuSans-6f" x="1347.0625"/>
     <use xlink:href="#DejaVuSans-20" x="1408.244141"/>
     <use xlink:href="#DejaVuSans-4f" x="1440.03125"/>
     <use xlink:href="#DejaVuSans-72" x="1518.742188"/>
     <use xlink:href="#DejaVuSans-62" x="1559.855469"/>
     <use xlink:href="#DejaVuSans-69" x="1623.332031"/>
     <use xlink:href="#DejaVuSans-74" x="1651.115234"/>
     <use xlink:href="#DejaVuSans-20" x="1690.324219"/>
     <use xlink:href="#DejaVuSans-42" x="1722.111328"/>
     <use xlink:href="#DejaVuSans-79" x="1790.714844"/>
     <use xlink:href="#DejaVuSans-20" x="1849.894531"/>
     <use xlink:href="#DejaVuSans-59" x="1881.681641"/>
     <use xlink:href="#DejaVuSans-65" x="1929.515625"/>
     <use xlink:href="#DejaVuSans-61" x="1991.039062"/>
     <use xlink:href="#DejaVuSans-72" x="2052.318359"/>
    </g>
   </g>
   <g id="legend_1">
    <g id="patch_7">
     <path d="M 89.37 181.66125 
L 146.82 181.66125 
Q 148.82 181.66125 148.82 179.66125 
L 148.82 33.88 
Q 148.82 31.88 146.82 31.88 
L 89.37 31.88 
Q 87.37 31.88 87.37 33.88 
L 87.37 179.66125 
Q 87.37 181.66125 89.37 181.66125 
z
" style="fill: #ffffff; opacity: 0.8; stroke: #cccccc; stroke-linejoin: miter"/>
    </g>
    <g id="text_14">
     <!-- Year -->
     <g transform="translate(107.5075 43.478437) scale(0.1 -0.1)">
      <use xlink:href="#DejaVuSans-59"/>
      <use xlink:href="#DejaVuSans-65" x="47.833984"/>
      <use xlink:href="#DejaVuSans-61" x="109.357422"/>
      <use xlink:href="#DejaVuSans-72" x="170.636719"/>
     </g>
    </g>
    <g id="line2d_32">
     <path d="M 91.37 54.656562 
L 101.37 54.656562 
L 101.37 54.656562 
L 111.37 54.656562 
L 111.37 54.656562 
" style="fill: none; stroke: #808080; stroke-width: 1.5; stroke-linecap: square"/>
    </g>
    <g id="text_15">
     <!-- 2017 -->
     <g transform="translate(119.37 58.156562) scale(0.1 -0.1)">
      <defs>
       <path id="DejaVuSans-37" d="M 525 4666 
L 3525 4666 
L 3525 4397 
L 1831 0 
L 1172 0 
L 2766 4134 
L 525 4134 
L 525 4666 
z
" transform="scale(0.015625)"/>
      </defs>
      <use xlink:href="#DejaVuSans-32"/>
      <use xlink:href="#DejaVuSans-30" x="63.623047"/>
      <use xlink:href="#DejaVuSans-31" x="127.246094"/>
      <use xlink:href="#DejaVuSans-37" x="190.869141"/>
     </g>
    </g>
    <g id="line2d_33">
     <path d="M 91.37 69.334687 
L 101.37 69.334687 
L 101.37 69.334687 
L 111.37 69.334687 
L 111.37 69.334687 
" style="fill: none; stroke: #90ee90; stroke-width: 1.5; stroke-linecap: square"/>
    </g>
    <g id="text_16">
     <!-- 2018 -->
     <g transform="translate(119.37 72.834687) scale(0.1 -0.1)">
      <defs>
       <path id="DejaVuSans-38" d="M 2034 2216 
Q 1584 2216 1326 1975 
Q 1069 1734 1069 1313 
Q 1069 891 1326 650 
Q 1584 409 2034 409 
Q 2484 409 2743 651 
Q 3003 894 3003 1313 
Q 3003 1734 2745 1975 
Q 2488 2216 2034 2216 
z
M 1403 2484 
Q 997 2584 770 2862 
Q 544 3141 544 3541 
Q 544 4100 942 4425 
Q 1341 4750 2034 4750 
Q 2731 4750 3128 4425 
Q 3525 4100 3525 3541 
Q 3525 3141 3298 2862 
Q 3072 2584 2669 2484 
Q 3125 2378 3379 2068 
Q 3634 1759 3634 1313 
Q 3634 634 3220 271 
Q 2806 -91 2034 -91 
Q 1263 -91 848 271 
Q 434 634 434 1313 
Q 434 1759 690 2068 
Q 947 2378 1403 2484 
z
M 1172 3481 
Q 1172 3119 1398 2916 
Q 1625 2713 2034 2713 
Q 2441 2713 2670 2916 
Q 2900 3119 2900 3481 
Q 2900 3844 2670 4047 
Q 2441 4250 2034 4250 
Q 1625 4250 1398 4047 
Q 1172 3844 1172 3481 
z
" transform="scale(0.015625)"/>
      </defs>
      <use xlink:href="#DejaVuSans-32"/>
      <use xlink:href="#DejaVuSans-30" x="63.623047"/>
      <use xlink:href="#DejaVuSans-31" x="127.246094"/>
      <use xlink:href="#DejaVuSans-38" x="190.869141"/>
     </g>
    </g>
    <g id="line2d_34">
     <path d="M 91.37 84.012812 
L 101.37 84.012812 
L 101.37 84.012812 
L 111.37 84.012812 
L 111.37 84.012812 
" style="fill: none; stroke: #add8e6; stroke-width: 1.5; stroke-linecap: square"/>
    </g>
    <g id="text_17">
     <!-- 2019 -->
     <g transform="translate(119.37 87.512812) scale(0.1 -0.1)">
      <defs>
       <path id="DejaVuSans-39" d="M 703 97 
L 703 672 
Q 941 559 1184 500 
Q 1428 441 1663 441 
Q 2288 441 2617 861 
Q 2947 1281 2994 2138 
Q 2813 1869 2534 1725 
Q 2256 1581 1919 1581 
Q 1219 1581 811 2004 
Q 403 2428 403 3163 
Q 403 3881 828 4315 
Q 1253 4750 1959 4750 
Q 2769 4750 3195 4129 
Q 3622 3509 3622 2328 
Q 3622 1225 3098 567 
Q 2575 -91 1691 -91 
Q 1453 -91 1209 -44 
Q 966 3 703 97 
z
M 1959 2075 
Q 2384 2075 2632 2365 
Q 2881 2656 2881 3163 
Q 2881 3666 2632 3958 
Q 2384 4250 1959 4250 
Q 1534 4250 1286 3958 
Q 1038 3666 1038 3163 
Q 1038 2656 1286 2365 
Q 1534 2075 1959 2075 
z
" transform="scale(0.015625)"/>
      </defs>
      <use xlink:href="#DejaVuSans-32"/>
      <use xlink:href="#DejaVuSans-30" x="63.623047"/>
      <use xlink:href="#DejaVuSans-31" x="127.246094"/>
      <use xlink:href="#DejaVuSans-39" x="190.869141"/>
     </g>
    </g>
    <g id="line2d_35">
     <path d="M 91.37 98.690937 
L 101.37 98.690937 
L 101.37 98.690937 
L 111.37 98.690937 
L 111.37 98.690937 
" style="fill: none; stroke: #ffc0cb; stroke-width: 1.5; stroke-linecap: square"/>
    </g>
    <g id="text_18">
     <!-- 2020 -->
     <g transform="translate(119.37 102.190937) scale(0.1 -0.1)">
      <use xlink:href="#DejaVuSans-32"/>
      <use xlink:href="#DejaVuSans-30" x="63.623047"/>
      <use xlink:href="#DejaVuSans-32" x="127.246094"/>
      <use xlink:href="#DejaVuSans-30" x="190.869141"/>
     </g>
    </g>
    <g id="line2d_36">
     <path d="M 91.37 113.369062 
L 101.37 113.369062 
L 101.37 113.369062 
L 111.37 113.369062 
L 111.37 113.369062 
" style="fill: none; stroke: #800080; stroke-width: 1.5; stroke-linecap: square"/>
    </g>
    <g id="text_19">
     <!-- 2021 -->
     <g transform="translate(119.37 116.869062) scale(0.1 -0.1)">
      <use xlink:href="#DejaVuSans-32"/>
      <use xlink:href="#DejaVuSans-30" x="63.623047"/>
      <use xlink:href="#DejaVuSans-32" x="127.246094"/>
      <use xlink:href="#DejaVuSans-31" x="190.869141"/>
     </g>
    </g>
    <g id="line2d_37">
     <path d="M 91.37 128.047187 
L 101.37 128.047187 
L 101.37 128.047187 
L 111.37 128.047187 
L 111.37 128.047187 
" style="fill: none; stroke: #ffa500; stroke-width: 1.5; stroke-linecap: square"/>
    </g>
    <g id="text_20">
     <!-- 2022 -->
     <g transform="translate(119.37 131.547187) scale(0.1 -0.1)">
      <use xlink:href="#DejaVuSans-32"/>
      <use xlink:href="#DejaVuSans-30" x="63.623047"/>
      <use xlink:href="#DejaVuSans-32" x="127.246094"/>
      <use xlink:href="#DejaVuSans-32" x="190.869141"/>
     </g>
    </g>
    <g id="line2d_38">
     <path d="M 91.37 142.725312 
L 101.37 142.725312 
L 101.37 142.725312 
L 111.37 142.725312 
L 111.37 142.725312 
" style="fill: none; stroke: #0000ff; stroke-width: 1.5; stroke-linecap: square"/>
    </g>
    <g id="text_21">
     <!-- 2023 -->
     <g transform="translate(119.37 146.225312) scale(0.1 -0.1)">
      <defs>
       <path id="DejaVuSans-33" d="M 2597 2516 
Q 3050 2419 3304 2112 
Q 3559 1806 3559 1356 
Q 3559 666 3084 287 
Q 2609 -91 1734 -91 
Q 1441 -91 1130 -33 
Q 819 25 488 141 
L 488 750 
Q 750 597 1062 519 
Q 1375 441 1716 441 
Q 2309 441 2620 675 
Q 2931 909 2931 1356 
Q 2931 1769 2642 2001 
Q 2353 2234 1838 2234 
L 1294 2234 
L 1294 2753 
L 1863 2753 
Q 2328 2753 2575 2939 
Q 2822 3125 2822 3475 
Q 2822 3834 2567 4026 
Q 2313 4219 1838 4219 
Q 1578 4219 1281 4162 
Q 984 4106 628 3988 
L 628 4550 
Q 988 4650 1302 4700 
Q 1616 4750 1894 4750 
Q 2613 4750 3031 4423 
Q 3450 4097 3450 3541 
Q 3450 3153 3228 2886 
Q 3006 2619 2597 2516 
z
" transform="scale(0.015625)"/>
      </defs>
      <use xlink:href="#DejaVuSans-32"/>
      <use xlink:href="#DejaVuSans-30" x="63.623047"/>
      <use xlink:href="#DejaVuSans-32" x="127.246094"/>
      <use xlink:href="#DejaVuSans-33" x="190.869141"/>
     </g>
    </g>
    <g id="line2d_39">
     <path d="M 91.37 157.403437 
L 101.37 157.403437 
L 101.37 157.403437 
L 111.37 157.403437 
L 111.37 157.403437 
" style="fill: none; stroke: #008000; stroke-width: 1.5; stroke-linecap: square"/>
    </g>
    <g id="text_22">
     <!-- 2024 -->
     <g transform="translate(119.37 160.903437) scale(0.1 -0.1)">
      <defs>
       <path id="DejaVuSans-34" d="M 2419 4116 
L 825 1625 
L 2419 1625 
L 2419 4116 
z
M 2253 4666 
L 3047 4666 
L 3047 1625 
L 3713 1625 
L 3713 1100 
L 3047 1100 
L 3047 0 
L 2419 0 
L 2419 1100 
L 313 1100 
L 313 1709 
L 2253 4666 
z
" transform="scale(0.015625)"/>
      </defs>
      <use xlink:href="#DejaVuSans-32"/>
      <use xlink:href="#DejaVuSans-30" x="63.623047"/>
      <use xlink:href="#DejaVuSans-32" x="127.246094"/>
      <use xlink:href="#DejaVuSans-34" x="190.869141"/>
     </g>
    </g>
    <g id="line2d_40">
     <path d="M 91.37 172.081562 
L 101.37 172.081562 
L 101.37 172.081562 
L 111.37 172.081562 
L 111.37 172.081562 
" style="fill: none; stroke: #ff0000; stroke-width: 1.5; stroke-linecap: square"/>
    </g>
    <g id="text_23">
     <!-- 2025 -->
     <g transform="translate(119.37 175.581562) scale(0.1 -0.1)">
      <use xlink:href="#DejaVuSans-32"/>
      <use xlink:href="#DejaVuSans-30" x="63.623047"/>
      <use xlink:href="#DejaVuSans-32" x="127.246094"/>
      <use xlink:href="#DejaVuSans-35" x="190.869141"/>
     </g>
    </g>
   </g>
  </g>
 </g>
 <defs>
  <clipPath id="pf0faa0db59">
   <rect x="82.37" y="26.88" width="626.83" height="449.24"/>
  </clipPath>
 </defs>
</svg>
