<?xml version="1.0" encoding="utf-8" standalone="no"?>
<!DOCTYPE svg PUBLIC "-//W3C//DTD SVG 1.1//EN"
  "http://www.w3.org/Graphics/SVG/1.1/DTD/svg11.dtd">
<svg xmlns:xlink="http://www.w3.org/1999/xlink" width="720pt" height="504pt" viewBox="0 0 720 504" xmlns="http://www.w3.org/2000/svg" version="1.1">
 <metadata>
  <rdf:RDF xmlns:dc="http://purl.org/dc/elements/1.1/" xmlns:cc="http://creativecommons.org/ns#" xmlns:rdf="http://www.w3.org/1999/02/22-rdf-syntax-ns#">
   <cc:Work>
    <dc:type rdf:resource="http://purl.org/dc/dcmitype/StillImage"/>
    <dc:date>2024-10-27T11:20:52.376933</dc:date>
    <dc:format>image/svg+xml</dc:format>
    <dc:creator>
     <cc:Agent>
      <dc:title>Matplotlib v3.8.2, https://matplotlib.org/</dc:title>
     </cc:Agent>
    </dc:creator>
   </cc:Work>
  </rdf:RDF>
 </metadata>
 <defs>
  <style type="text/css">*{stroke-linejoin: round; stroke-linecap: butt}</style>
 </defs>
 <g id="figure_1">
  <g id="patch_1">
   <path d="M 0 504 
L 720 504 
L 720 0 
L 0 0 
z
" style="fill: #ffffff"/>
  </g>
  <g id="axes_1">
   <g id="patch_2">
    <path d="M 82.37 476.12 
L 709.2 476.12 
L 709.2 26.88 
L 82.37 26.88 
z
" style="fill: #ffffff"/>
   </g>
   <g id="matplotlib.axis_1">
    <g id="xtick_1">
     <g id="line2d_1">
      <path d="M 106.665736 476.12 
L 106.665736 26.88 
" clip-path="url(#pd15bf4501a)" style="fill: none; stroke: #b0b0b0; stroke-width: 0.8; stroke-linecap: square"/>
     </g>
     <g id="line2d_2">
      <defs>
       <path id="mcdd427fbbf" d="M 0 0 
L 0 3.5 
" style="stroke: #000000; stroke-width: 0.8"/>
      </defs>
      <g>
       <use xlink:href="#mcdd427fbbf" x="106.665736" y="476.12" style="stroke: #000000; stroke-width: 0.8"/>
      </g>
     </g>
     <g id="text_1">
      <!-- Jan 1 -->
      <g transform="translate(94.187611 490.718437) scale(0.1 -0.1)">
       <defs>
        <path id="DejaVuSans-4a" d="M 628 4666 
L 1259 4666 
L 1259 325 
Q 1259 -519 939 -900 
Q 619 -1281 -91 -1281 
L -331 -1281 
L -331 -750 
L -134 -750 
Q 284 -750 456 -515 
Q 628 -281 628 325 
L 628 4666 
z
" transform="scale(0.015625)"/>
        <path id="DejaVuSans-61" d="M 2194 1759 
Q 1497 1759 1228 1600 
Q 959 1441 959 1056 
Q 959 750 1161 570 
Q 1363 391 1709 391 
Q 2188 391 2477 730 
Q 2766 1069 2766 1631 
L 2766 1759 
L 2194 1759 
z
M 3341 1997 
L 3341 0 
L 2766 0 
L 2766 531 
Q 2569 213 2275 61 
Q 1981 -91 1556 -91 
Q 1019 -91 701 211 
Q 384 513 384 1019 
Q 384 1609 779 1909 
Q 1175 2209 1959 2209 
L 2766 2209 
L 2766 2266 
Q 2766 2663 2505 2880 
Q 2244 3097 1772 3097 
Q 1472 3097 1187 3025 
Q 903 2953 641 2809 
L 641 3341 
Q 956 3463 1253 3523 
Q 1550 3584 1831 3584 
Q 2591 3584 2966 3190 
Q 3341 2797 3341 1997 
z
" transform="scale(0.015625)"/>
        <path id="DejaVuSans-6e" d="M 3513 2113 
L 3513 0 
L 2938 0 
L 2938 2094 
Q 2938 2591 2744 2837 
Q 2550 3084 2163 3084 
Q 1697 3084 1428 2787 
Q 1159 2491 1159 1978 
L 1159 0 
L 581 0 
L 581 3500 
L 1159 3500 
L 1159 2956 
Q 1366 3272 1645 3428 
Q 1925 3584 2291 3584 
Q 2894 3584 3203 3211 
Q 3513 2838 3513 2113 
z
" transform="scale(0.015625)"/>
        <path id="DejaVuSans-20" transform="scale(0.015625)"/>
        <path id="DejaVuSans-31" d="M 794 531 
L 1825 531 
L 1825 4091 
L 703 3866 
L 703 4441 
L 1819 4666 
L 2450 4666 
L 2450 531 
L 3481 531 
L 3481 0 
L 794 0 
L 794 531 
z
" transform="scale(0.015625)"/>
       </defs>
       <use xlink:href="#DejaVuSans-4a"/>
       <use xlink:href="#DejaVuSans-61" x="29.492188"/>
       <use xlink:href="#DejaVuSans-6e" x="90.771484"/>
       <use xlink:href="#DejaVuSans-20" x="154.150391"/>
       <use xlink:href="#DejaVuSans-31" x="185.9375"/>
      </g>
     </g>
    </g>
    <g id="xtick_2">
     <g id="line2d_3">
      <path d="M 203.848682 476.12 
L 203.848682 26.88 
" clip-path="url(#pd15bf4501a)" style="fill: none; stroke: #b0b0b0; stroke-width: 0.8; stroke-linecap: square"/>
     </g>
     <g id="line2d_4">
      <g>
       <use xlink:href="#mcdd427fbbf" x="203.848682" y="476.12" style="stroke: #000000; stroke-width: 0.8"/>
      </g>
     </g>
     <g id="text_2">
      <!-- Mar 1 -->
      <g transform="translate(189.644776 490.718437) scale(0.1 -0.1)">
       <defs>
        <path id="DejaVuSans-4d" d="M 628 4666 
L 1569 4666 
L 2759 1491 
L 3956 4666 
L 4897 4666 
L 4897 0 
L 4281 0 
L 4281 4097 
L 3078 897 
L 2444 897 
L 1241 4097 
L 1241 0 
L 628 0 
L 628 4666 
z
" transform="scale(0.015625)"/>
        <path id="DejaVuSans-72" d="M 2631 2963 
Q 2534 3019 2420 3045 
Q 2306 3072 2169 3072 
Q 1681 3072 1420 2755 
Q 1159 2438 1159 1844 
L 1159 0 
L 581 0 
L 581 3500 
L 1159 3500 
L 1159 2956 
Q 1341 3275 1631 3429 
Q 1922 3584 2338 3584 
Q 2397 3584 2469 3576 
Q 2541 3569 2628 3553 
L 2631 2963 
z
" transform="scale(0.015625)"/>
       </defs>
       <use xlink:href="#DejaVuSans-4d"/>
       <use xlink:href="#DejaVuSans-61" x="86.279297"/>
       <use xlink:href="#DejaVuSans-72" x="147.558594"/>
       <use xlink:href="#DejaVuSans-20" x="188.671875"/>
       <use xlink:href="#DejaVuSans-31" x="220.458984"/>
      </g>
     </g>
    </g>
    <g id="xtick_3">
     <g id="line2d_5">
      <path d="M 302.651344 476.12 
L 302.651344 26.88 
" clip-path="url(#pd15bf4501a)" style="fill: none; stroke: #b0b0b0; stroke-width: 0.8; stroke-linecap: square"/>
     </g>
     <g id="line2d_6">
      <g>
       <use xlink:href="#mcdd427fbbf" x="302.651344" y="476.12" style="stroke: #000000; stroke-width: 0.8"/>
      </g>
     </g>
     <g id="text_3">
      <!-- May 1 -->
      <g transform="translate(287.543531 490.718437) scale(0.1 -0.1)">
       <defs>
        <path id="DejaVuSans-79" d="M 2059 -325 
Q 1816 -950 1584 -1140 
Q 1353 -1331 966 -1331 
L 506 -1331 
L 506 -850 
L 844 -850 
Q 1081 -850 1212 -737 
Q 1344 -625 1503 -206 
L 1606 56 
L 191 3500 
L 800 3500 
L 1894 763 
L 2988 3500 
L 3597 3500 
L 2059 -325 
z
" transform="scale(0.015625)"/>
       </defs>
       <use xlink:href="#DejaVuSans-4d"/>
       <use xlink:href="#DejaVuSans-61" x="86.279297"/>
       <use xlink:href="#DejaVuSans-79" x="147.558594"/>
       <use xlink:href="#DejaVuSans-20" x="206.738281"/>
       <use xlink:href="#DejaVuSans-31" x="238.525391"/>
      </g>
     </g>
    </g>
    <g id="xtick_4">
     <g id="line2d_7">
      <path d="M 401.454005 476.12 
L 401.454005 26.88 
" clip-path="url(#pd15bf4501a)" style="fill: none; stroke: #b0b0b0; stroke-width: 0.8; stroke-linecap: square"/>
     </g>
     <g id="line2d_8">
      <g>
       <use xlink:href="#mcdd427fbbf" x="401.454005" y="476.12" style="stroke: #000000; stroke-width: 0.8"/>
      </g>
     </g>
     <g id="text_4">
      <!-- Jul 1 -->
      <g transform="translate(390.65088 490.718437) scale(0.1 -0.1)">
       <defs>
        <path id="DejaVuSans-75" d="M 544 1381 
L 544 3500 
L 1119 3500 
L 1119 1403 
Q 1119 906 1312 657 
Q 1506 409 1894 409 
Q 2359 409 2629 706 
Q 2900 1003 2900 1516 
L 2900 3500 
L 3475 3500 
L 3475 0 
L 2900 0 
L 2900 538 
Q 2691 219 2414 64 
Q 2138 -91 1772 -91 
Q 1169 -91 856 284 
Q 544 659 544 1381 
z
M 1991 3584 
L 1991 3584 
z
" transform="scale(0.015625)"/>
        <path id="DejaVuSans-6c" d="M 603 4863 
L 1178 4863 
L 1178 0 
L 603 0 
L 603 4863 
z
" transform="scale(0.015625)"/>
       </defs>
       <use xlink:href="#DejaVuSans-4a"/>
       <use xlink:href="#DejaVuSans-75" x="29.492188"/>
       <use xlink:href="#DejaVuSans-6c" x="92.871094"/>
       <use xlink:href="#DejaVuSans-20" x="120.654297"/>
       <use xlink:href="#DejaVuSans-31" x="152.441406"/>
      </g>
     </g>
    </g>
    <g id="xtick_5">
     <g id="line2d_9">
      <path d="M 501.876382 476.12 
L 501.876382 26.88 
" clip-path="url(#pd15bf4501a)" style="fill: none; stroke: #b0b0b0; stroke-width: 0.8; stroke-linecap: square"/>
     </g>
     <g id="line2d_10">
      <g>
       <use xlink:href="#mcdd427fbbf" x="501.876382" y="476.12" style="stroke: #000000; stroke-width: 0.8"/>
      </g>
     </g>
     <g id="text_5">
      <!-- Sep 1 -->
      <g transform="translate(487.68107 490.718437) scale(0.1 -0.1)">
       <defs>
        <path id="DejaVuSans-53" d="M 3425 4513 
L 3425 3897 
Q 3066 4069 2747 4153 
Q 2428 4238 2131 4238 
Q 1616 4238 1336 4038 
Q 1056 3838 1056 3469 
Q 1056 3159 1242 3001 
Q 1428 2844 1947 2747 
L 2328 2669 
Q 3034 2534 3370 2195 
Q 3706 1856 3706 1288 
Q 3706 609 3251 259 
Q 2797 -91 1919 -91 
Q 1588 -91 1214 -16 
Q 841 59 441 206 
L 441 856 
Q 825 641 1194 531 
Q 1563 422 1919 422 
Q 2459 422 2753 634 
Q 3047 847 3047 1241 
Q 3047 1584 2836 1778 
Q 2625 1972 2144 2069 
L 1759 2144 
Q 1053 2284 737 2584 
Q 422 2884 422 3419 
Q 422 4038 858 4394 
Q 1294 4750 2059 4750 
Q 2388 4750 2728 4690 
Q 3069 4631 3425 4513 
z
" transform="scale(0.015625)"/>
        <path id="DejaVuSans-65" d="M 3597 1894 
L 3597 1613 
L 953 1613 
Q 991 1019 1311 708 
Q 1631 397 2203 397 
Q 2534 397 2845 478 
Q 3156 559 3463 722 
L 3463 178 
Q 3153 47 2828 -22 
Q 2503 -91 2169 -91 
Q 1331 -91 842 396 
Q 353 884 353 1716 
Q 353 2575 817 3079 
Q 1281 3584 2069 3584 
Q 2775 3584 3186 3129 
Q 3597 2675 3597 1894 
z
M 3022 2063 
Q 3016 2534 2758 2815 
Q 2500 3097 2075 3097 
Q 1594 3097 1305 2825 
Q 1016 2553 972 2059 
L 3022 2063 
z
" transform="scale(0.015625)"/>
        <path id="DejaVuSans-70" d="M 1159 525 
L 1159 -1331 
L 581 -1331 
L 581 3500 
L 1159 3500 
L 1159 2969 
Q 1341 3281 1617 3432 
Q 1894 3584 2278 3584 
Q 2916 3584 3314 3078 
Q 3713 2572 3713 1747 
Q 3713 922 3314 415 
Q 2916 -91 2278 -91 
Q 1894 -91 1617 61 
Q 1341 213 1159 525 
z
M 3116 1747 
Q 3116 2381 2855 2742 
Q 2594 3103 2138 3103 
Q 1681 3103 1420 2742 
Q 1159 2381 1159 1747 
Q 1159 1113 1420 752 
Q 1681 391 2138 391 
Q 2594 391 2855 752 
Q 3116 1113 3116 1747 
z
" transform="scale(0.015625)"/>
       </defs>
       <use xlink:href="#DejaVuSans-53"/>
       <use xlink:href="#DejaVuSans-65" x="63.476562"/>
       <use xlink:href="#DejaVuSans-70" x="125"/>
       <use xlink:href="#DejaVuSans-20" x="188.476562"/>
       <use xlink:href="#DejaVuSans-31" x="220.263672"/>
      </g>
     </g>
    </g>
    <g id="xtick_6">
     <g id="line2d_11">
      <path d="M 600.679044 476.12 
L 600.679044 26.88 
" clip-path="url(#pd15bf4501a)" style="fill: none; stroke: #b0b0b0; stroke-width: 0.8; stroke-linecap: square"/>
     </g>
     <g id="line2d_12">
      <g>
       <use xlink:href="#mcdd427fbbf" x="600.679044" y="476.12" style="stroke: #000000; stroke-width: 0.8"/>
      </g>
     </g>
     <g id="text_6">
      <!-- Nov 1 -->
      <g transform="translate(586.149356 490.718437) scale(0.1 -0.1)">
       <defs>
        <path id="DejaVuSans-4e" d="M 628 4666 
L 1478 4666 
L 3547 763 
L 3547 4666 
L 4159 4666 
L 4159 0 
L 3309 0 
L 1241 3903 
L 1241 0 
L 628 0 
L 628 4666 
z
" transform="scale(0.015625)"/>
        <path id="DejaVuSans-6f" d="M 1959 3097 
Q 1497 3097 1228 2736 
Q 959 2375 959 1747 
Q 959 1119 1226 758 
Q 1494 397 1959 397 
Q 2419 397 2687 759 
Q 2956 1122 2956 1747 
Q 2956 2369 2687 2733 
Q 2419 3097 1959 3097 
z
M 1959 3584 
Q 2709 3584 3137 3096 
Q 3566 2609 3566 1747 
Q 3566 888 3137 398 
Q 2709 -91 1959 -91 
Q 1206 -91 779 398 
Q 353 888 353 1747 
Q 353 2609 779 3096 
Q 1206 3584 1959 3584 
z
" transform="scale(0.015625)"/>
        <path id="DejaVuSans-76" d="M 191 3500 
L 800 3500 
L 1894 563 
L 2988 3500 
L 3597 3500 
L 2284 0 
L 1503 0 
L 191 3500 
z
" transform="scale(0.015625)"/>
       </defs>
       <use xlink:href="#DejaVuSans-4e"/>
       <use xlink:href="#DejaVuSans-6f" x="74.804688"/>
       <use xlink:href="#DejaVuSans-76" x="135.986328"/>
       <use xlink:href="#DejaVuSans-20" x="195.166016"/>
       <use xlink:href="#DejaVuSans-31" x="226.953125"/>
      </g>
     </g>
    </g>
   </g>
   <g id="matplotlib.axis_2">
    <g id="ytick_1">
     <g id="line2d_13">
      <path d="M 82.37 455.7 
L 709.2 455.7 
" clip-path="url(#pd15bf4501a)" style="fill: none; stroke: #b0b0b0; stroke-width: 0.8; stroke-linecap: square"/>
     </g>
     <g id="line2d_14">
      <defs>
       <path id="m76b44673ce" d="M 0 0 
L -3.5 0 
" style="stroke: #000000; stroke-width: 0.8"/>
      </defs>
      <g>
       <use xlink:href="#m76b44673ce" x="82.37" y="455.7" style="stroke: #000000; stroke-width: 0.8"/>
      </g>
     </g>
     <g id="text_7">
      <!-- 0 -->
      <g transform="translate(69.0075 459.499219) scale(0.1 -0.1)">
       <defs>
        <path id="DejaVuSans-30" d="M 2034 4250 
Q 1547 4250 1301 3770 
Q 1056 3291 1056 2328 
Q 1056 1369 1301 889 
Q 1547 409 2034 409 
Q 2525 409 2770 889 
Q 3016 1369 3016 2328 
Q 3016 3291 2770 3770 
Q 2525 4250 2034 4250 
z
M 2034 4750 
Q 2819 4750 3233 4129 
Q 3647 3509 3647 2328 
Q 3647 1150 3233 529 
Q 2819 -91 2034 -91 
Q 1250 -91 836 529 
Q 422 1150 422 2328 
Q 422 3509 836 4129 
Q 1250 4750 2034 4750 
z
" transform="scale(0.015625)"/>
       </defs>
       <use xlink:href="#DejaVuSans-30"/>
      </g>
     </g>
    </g>
    <g id="ytick_2">
     <g id="line2d_15">
      <path d="M 82.37 392.238817 
L 709.2 392.238817 
" clip-path="url(#pd15bf4501a)" style="fill: none; stroke: #b0b0b0; stroke-width: 0.8; stroke-linecap: square"/>
     </g>
     <g id="line2d_16">
      <g>
       <use xlink:href="#m76b44673ce" x="82.37" y="392.238817" style="stroke: #000000; stroke-width: 0.8"/>
      </g>
     </g>
     <g id="text_8">
      <!-- 200,000 -->
      <g transform="translate(34.016875 396.038036) scale(0.1 -0.1)">
       <defs>
        <path id="DejaVuSans-32" d="M 1228 531 
L 3431 531 
L 3431 0 
L 469 0 
L 469 531 
Q 828 903 1448 1529 
Q 2069 2156 2228 2338 
Q 2531 2678 2651 2914 
Q 2772 3150 2772 3378 
Q 2772 3750 2511 3984 
Q 2250 4219 1831 4219 
Q 1534 4219 1204 4116 
Q 875 4013 500 3803 
L 500 4441 
Q 881 4594 1212 4672 
Q 1544 4750 1819 4750 
Q 2544 4750 2975 4387 
Q 3406 4025 3406 3419 
Q 3406 3131 3298 2873 
Q 3191 2616 2906 2266 
Q 2828 2175 2409 1742 
Q 1991 1309 1228 531 
z
" transform="scale(0.015625)"/>
        <path id="DejaVuSans-2c" d="M 750 794 
L 1409 794 
L 1409 256 
L 897 -744 
L 494 -744 
L 750 256 
L 750 794 
z
" transform="scale(0.015625)"/>
       </defs>
       <use xlink:href="#DejaVuSans-32"/>
       <use xlink:href="#DejaVuSans-30" x="63.623047"/>
       <use xlink:href="#DejaVuSans-30" x="127.246094"/>
       <use xlink:href="#DejaVuSans-2c" x="190.869141"/>
       <use xlink:href="#DejaVuSans-30" x="222.65625"/>
       <use xlink:href="#DejaVuSans-30" x="286.279297"/>
       <use xlink:href="#DejaVuSans-30" x="349.902344"/>
      </g>
     </g>
    </g>
    <g id="ytick_3">
     <g id="line2d_17">
      <path d="M 82.37 328.777634 
L 709.2 328.777634 
" clip-path="url(#pd15bf4501a)" style="fill: none; stroke: #b0b0b0; stroke-width: 0.8; stroke-linecap: square"/>
     </g>
     <g id="line2d_18">
      <g>
       <use xlink:href="#m76b44673ce" x="82.37" y="328.777634" style="stroke: #000000; stroke-width: 0.8"/>
      </g>
     </g>
     <g id="text_9">
      <!-- 400,000 -->
      <g transform="translate(34.016875 332.576853) scale(0.1 -0.1)">
       <defs>
        <path id="DejaVuSans-34" d="M 2419 4116 
L 825 1625 
L 2419 1625 
L 2419 4116 
z
M 2253 4666 
L 3047 4666 
L 3047 1625 
L 3713 1625 
L 3713 1100 
L 3047 1100 
L 3047 0 
L 2419 0 
L 2419 1100 
L 313 1100 
L 313 1709 
L 2253 4666 
z
" transform="scale(0.015625)"/>
       </defs>
       <use xlink:href="#DejaVuSans-34"/>
       <use xlink:href="#DejaVuSans-30" x="63.623047"/>
       <use xlink:href="#DejaVuSans-30" x="127.246094"/>
       <use xlink:href="#DejaVuSans-2c" x="190.869141"/>
       <use xlink:href="#DejaVuSans-30" x="222.65625"/>
       <use xlink:href="#DejaVuSans-30" x="286.279297"/>
       <use xlink:href="#DejaVuSans-30" x="349.902344"/>
      </g>
     </g>
    </g>
    <g id="ytick_4">
     <g id="line2d_19">
      <path d="M 82.37 265.316451 
L 709.2 265.316451 
" clip-path="url(#pd15bf4501a)" style="fill: none; stroke: #b0b0b0; stroke-width: 0.8; stroke-linecap: square"/>
     </g>
     <g id="line2d_20">
      <g>
       <use xlink:href="#m76b44673ce" x="82.37" y="265.316451" style="stroke: #000000; stroke-width: 0.8"/>
      </g>
     </g>
     <g id="text_10">
      <!-- 600,000 -->
      <g transform="translate(34.016875 269.11567) scale(0.1 -0.1)">
       <defs>
        <path id="DejaVuSans-36" d="M 2113 2584 
Q 1688 2584 1439 2293 
Q 1191 2003 1191 1497 
Q 1191 994 1439 701 
Q 1688 409 2113 409 
Q 2538 409 2786 701 
Q 3034 994 3034 1497 
Q 3034 2003 2786 2293 
Q 2538 2584 2113 2584 
z
M 3366 4563 
L 3366 3988 
Q 3128 4100 2886 4159 
Q 2644 4219 2406 4219 
Q 1781 4219 1451 3797 
Q 1122 3375 1075 2522 
Q 1259 2794 1537 2939 
Q 1816 3084 2150 3084 
Q 2853 3084 3261 2657 
Q 3669 2231 3669 1497 
Q 3669 778 3244 343 
Q 2819 -91 2113 -91 
Q 1303 -91 875 529 
Q 447 1150 447 2328 
Q 447 3434 972 4092 
Q 1497 4750 2381 4750 
Q 2619 4750 2861 4703 
Q 3103 4656 3366 4563 
z
" transform="scale(0.015625)"/>
       </defs>
       <use xlink:href="#DejaVuSans-36"/>
       <use xlink:href="#DejaVuSans-30" x="63.623047"/>
       <use xlink:href="#DejaVuSans-30" x="127.246094"/>
       <use xlink:href="#DejaVuSans-2c" x="190.869141"/>
       <use xlink:href="#DejaVuSans-30" x="222.65625"/>
       <use xlink:href="#DejaVuSans-30" x="286.279297"/>
       <use xlink:href="#DejaVuSans-30" x="349.902344"/>
      </g>
     </g>
    </g>
    <g id="ytick_5">
     <g id="line2d_21">
      <path d="M 82.37 201.855269 
L 709.2 201.855269 
" clip-path="url(#pd15bf4501a)" style="fill: none; stroke: #b0b0b0; stroke-width: 0.8; stroke-linecap: square"/>
     </g>
     <g id="line2d_22">
      <g>
       <use xlink:href="#m76b44673ce" x="82.37" y="201.855269" style="stroke: #000000; stroke-width: 0.8"/>
      </g>
     </g>
     <g id="text_11">
      <!-- 800,000 -->
      <g transform="translate(34.016875 205.654487) scale(0.1 -0.1)">
       <defs>
        <path id="DejaVuSans-38" d="M 2034 2216 
Q 1584 2216 1326 1975 
Q 1069 1734 1069 1313 
Q 1069 891 1326 650 
Q 1584 409 2034 409 
Q 2484 409 2743 651 
Q 3003 894 3003 1313 
Q 3003 1734 2745 1975 
Q 2488 2216 2034 2216 
z
M 1403 2484 
Q 997 2584 770 2862 
Q 544 3141 544 3541 
Q 544 4100 942 4425 
Q 1341 4750 2034 4750 
Q 2731 4750 3128 4425 
Q 3525 4100 3525 3541 
Q 3525 3141 3298 2862 
Q 3072 2584 2669 2484 
Q 3125 2378 3379 2068 
Q 3634 1759 3634 1313 
Q 3634 634 3220 271 
Q 2806 -91 2034 -91 
Q 1263 -91 848 271 
Q 434 634 434 1313 
Q 434 1759 690 2068 
Q 947 2378 1403 2484 
z
M 1172 3481 
Q 1172 3119 1398 2916 
Q 1625 2713 2034 2713 
Q 2441 2713 2670 2916 
Q 2900 3119 2900 3481 
Q 2900 3844 2670 4047 
Q 2441 4250 2034 4250 
Q 1625 4250 1398 4047 
Q 1172 3844 1172 3481 
z
" transform="scale(0.015625)"/>
       </defs>
       <use xlink:href="#DejaVuSans-38"/>
       <use xlink:href="#DejaVuSans-30" x="63.623047"/>
       <use xlink:href="#DejaVuSans-30" x="127.246094"/>
       <use xlink:href="#DejaVuSans-2c" x="190.869141"/>
       <use xlink:href="#DejaVuSans-30" x="222.65625"/>
       <use xlink:href="#DejaVuSans-30" x="286.279297"/>
       <use xlink:href="#DejaVuSans-30" x="349.902344"/>
      </g>
     </g>
    </g>
    <g id="ytick_6">
     <g id="line2d_23">
      <path d="M 82.37 138.394086 
L 709.2 138.394086 
" clip-path="url(#pd15bf4501a)" style="fill: none; stroke: #b0b0b0; stroke-width: 0.8; stroke-linecap: square"/>
     </g>
     <g id="line2d_24">
      <g>
       <use xlink:href="#m76b44673ce" x="82.37" y="138.394086" style="stroke: #000000; stroke-width: 0.8"/>
      </g>
     </g>
     <g id="text_12">
      <!-- 1,000,000 -->
      <g transform="translate(24.47625 142.193304) scale(0.1 -0.1)">
       <use xlink:href="#DejaVuSans-31"/>
       <use xlink:href="#DejaVuSans-2c" x="63.623047"/>
       <use xlink:href="#DejaVuSans-30" x="95.410156"/>
       <use xlink:href="#DejaVuSans-30" x="159.033203"/>
       <use xlink:href="#DejaVuSans-30" x="222.65625"/>
       <use xlink:href="#DejaVuSans-2c" x="286.279297"/>
       <use xlink:href="#DejaVuSans-30" x="318.066406"/>
       <use xlink:href="#DejaVuSans-30" x="381.689453"/>
       <use xlink:href="#DejaVuSans-30" x="445.3125"/>
      </g>
     </g>
    </g>
    <g id="ytick_7">
     <g id="line2d_25">
      <path d="M 82.37 74.932903 
L 709.2 74.932903 
" clip-path="url(#pd15bf4501a)" style="fill: none; stroke: #b0b0b0; stroke-width: 0.8; stroke-linecap: square"/>
     </g>
     <g id="line2d_26">
      <g>
       <use xlink:href="#m76b44673ce" x="82.37" y="74.932903" style="stroke: #000000; stroke-width: 0.8"/>
      </g>
     </g>
     <g id="text_13">
      <!-- 1,200,000 -->
      <g transform="translate(24.47625 78.732122) scale(0.1 -0.1)">
       <use xlink:href="#DejaVuSans-31"/>
       <use xlink:href="#DejaVuSans-2c" x="63.623047"/>
       <use xlink:href="#DejaVuSans-32" x="95.410156"/>
       <use xlink:href="#DejaVuSans-30" x="159.033203"/>
       <use xlink:href="#DejaVuSans-30" x="222.65625"/>
       <use xlink:href="#DejaVuSans-2c" x="286.279297"/>
       <use xlink:href="#DejaVuSans-30" x="318.066406"/>
       <use xlink:href="#DejaVuSans-30" x="381.689453"/>
       <use xlink:href="#DejaVuSans-30" x="445.3125"/>
      </g>
     </g>
    </g>
    <g id="text_14">
     <!-- Cumulative Payload Mass (kg) -->
     <g transform="translate(18.396562 326.863281) rotate(-90) scale(0.1 -0.1)">
      <defs>
       <path id="DejaVuSans-43" d="M 4122 4306 
L 4122 3641 
Q 3803 3938 3442 4084 
Q 3081 4231 2675 4231 
Q 1875 4231 1450 3742 
Q 1025 3253 1025 2328 
Q 1025 1406 1450 917 
Q 1875 428 2675 428 
Q 3081 428 3442 575 
Q 3803 722 4122 1019 
L 4122 359 
Q 3791 134 3420 21 
Q 3050 -91 2638 -91 
Q 1578 -91 968 557 
Q 359 1206 359 2328 
Q 359 3453 968 4101 
Q 1578 4750 2638 4750 
Q 3056 4750 3426 4639 
Q 3797 4528 4122 4306 
z
" transform="scale(0.015625)"/>
       <path id="DejaVuSans-6d" d="M 3328 2828 
Q 3544 3216 3844 3400 
Q 4144 3584 4550 3584 
Q 5097 3584 5394 3201 
Q 5691 2819 5691 2113 
L 5691 0 
L 5113 0 
L 5113 2094 
Q 5113 2597 4934 2840 
Q 4756 3084 4391 3084 
Q 3944 3084 3684 2787 
Q 3425 2491 3425 1978 
L 3425 0 
L 2847 0 
L 2847 2094 
Q 2847 2600 2669 2842 
Q 2491 3084 2119 3084 
Q 1678 3084 1418 2786 
Q 1159 2488 1159 1978 
L 1159 0 
L 581 0 
L 581 3500 
L 1159 3500 
L 1159 2956 
Q 1356 3278 1631 3431 
Q 1906 3584 2284 3584 
Q 2666 3584 2933 3390 
Q 3200 3197 3328 2828 
z
" transform="scale(0.015625)"/>
       <path id="DejaVuSans-74" d="M 1172 4494 
L 1172 3500 
L 2356 3500 
L 2356 3053 
L 1172 3053 
L 1172 1153 
Q 1172 725 1289 603 
Q 1406 481 1766 481 
L 2356 481 
L 2356 0 
L 1766 0 
Q 1100 0 847 248 
Q 594 497 594 1153 
L 594 3053 
L 172 3053 
L 172 3500 
L 594 3500 
L 594 4494 
L 1172 4494 
z
" transform="scale(0.015625)"/>
       <path id="DejaVuSans-69" d="M 603 3500 
L 1178 3500 
L 1178 0 
L 603 0 
L 603 3500 
z
M 603 4863 
L 1178 4863 
L 1178 4134 
L 603 4134 
L 603 4863 
z
" transform="scale(0.015625)"/>
       <path id="DejaVuSans-50" d="M 1259 4147 
L 1259 2394 
L 2053 2394 
Q 2494 2394 2734 2622 
Q 2975 2850 2975 3272 
Q 2975 3691 2734 3919 
Q 2494 4147 2053 4147 
L 1259 4147 
z
M 628 4666 
L 2053 4666 
Q 2838 4666 3239 4311 
Q 3641 3956 3641 3272 
Q 3641 2581 3239 2228 
Q 2838 1875 2053 1875 
L 1259 1875 
L 1259 0 
L 628 0 
L 628 4666 
z
" transform="scale(0.015625)"/>
       <path id="DejaVuSans-64" d="M 2906 2969 
L 2906 4863 
L 3481 4863 
L 3481 0 
L 2906 0 
L 2906 525 
Q 2725 213 2448 61 
Q 2172 -91 1784 -91 
Q 1150 -91 751 415 
Q 353 922 353 1747 
Q 353 2572 751 3078 
Q 1150 3584 1784 3584 
Q 2172 3584 2448 3432 
Q 2725 3281 2906 2969 
z
M 947 1747 
Q 947 1113 1208 752 
Q 1469 391 1925 391 
Q 2381 391 2643 752 
Q 2906 1113 2906 1747 
Q 2906 2381 2643 2742 
Q 2381 3103 1925 3103 
Q 1469 3103 1208 2742 
Q 947 2381 947 1747 
z
" transform="scale(0.015625)"/>
       <path id="DejaVuSans-73" d="M 2834 3397 
L 2834 2853 
Q 2591 2978 2328 3040 
Q 2066 3103 1784 3103 
Q 1356 3103 1142 2972 
Q 928 2841 928 2578 
Q 928 2378 1081 2264 
Q 1234 2150 1697 2047 
L 1894 2003 
Q 2506 1872 2764 1633 
Q 3022 1394 3022 966 
Q 3022 478 2636 193 
Q 2250 -91 1575 -91 
Q 1294 -91 989 -36 
Q 684 19 347 128 
L 347 722 
Q 666 556 975 473 
Q 1284 391 1588 391 
Q 1994 391 2212 530 
Q 2431 669 2431 922 
Q 2431 1156 2273 1281 
Q 2116 1406 1581 1522 
L 1381 1569 
Q 847 1681 609 1914 
Q 372 2147 372 2553 
Q 372 3047 722 3315 
Q 1072 3584 1716 3584 
Q 2034 3584 2315 3537 
Q 2597 3491 2834 3397 
z
" transform="scale(0.015625)"/>
       <path id="DejaVuSans-28" d="M 1984 4856 
Q 1566 4138 1362 3434 
Q 1159 2731 1159 2009 
Q 1159 1288 1364 580 
Q 1569 -128 1984 -844 
L 1484 -844 
Q 1016 -109 783 600 
Q 550 1309 550 2009 
Q 550 2706 781 3412 
Q 1013 4119 1484 4856 
L 1984 4856 
z
" transform="scale(0.015625)"/>
       <path id="DejaVuSans-6b" d="M 581 4863 
L 1159 4863 
L 1159 1991 
L 2875 3500 
L 3609 3500 
L 1753 1863 
L 3688 0 
L 2938 0 
L 1159 1709 
L 1159 0 
L 581 0 
L 581 4863 
z
" transform="scale(0.015625)"/>
       <path id="DejaVuSans-67" d="M 2906 1791 
Q 2906 2416 2648 2759 
Q 2391 3103 1925 3103 
Q 1463 3103 1205 2759 
Q 947 2416 947 1791 
Q 947 1169 1205 825 
Q 1463 481 1925 481 
Q 2391 481 2648 825 
Q 2906 1169 2906 1791 
z
M 3481 434 
Q 3481 -459 3084 -895 
Q 2688 -1331 1869 -1331 
Q 1566 -1331 1297 -1286 
Q 1028 -1241 775 -1147 
L 775 -588 
Q 1028 -725 1275 -790 
Q 1522 -856 1778 -856 
Q 2344 -856 2625 -561 
Q 2906 -266 2906 331 
L 2906 616 
Q 2728 306 2450 153 
Q 2172 0 1784 0 
Q 1141 0 747 490 
Q 353 981 353 1791 
Q 353 2603 747 3093 
Q 1141 3584 1784 3584 
Q 2172 3584 2450 3431 
Q 2728 3278 2906 2969 
L 2906 3500 
L 3481 3500 
L 3481 434 
z
" transform="scale(0.015625)"/>
       <path id="DejaVuSans-29" d="M 513 4856 
L 1013 4856 
Q 1481 4119 1714 3412 
Q 1947 2706 1947 2009 
Q 1947 1309 1714 600 
Q 1481 -109 1013 -844 
L 513 -844 
Q 928 -128 1133 580 
Q 1338 1288 1338 2009 
Q 1338 2731 1133 3434 
Q 928 4138 513 4856 
z
" transform="scale(0.015625)"/>
      </defs>
      <use xlink:href="#DejaVuSans-43"/>
      <use xlink:href="#DejaVuSans-75" x="69.824219"/>
      <use xlink:href="#DejaVuSans-6d" x="133.203125"/>
      <use xlink:href="#DejaVuSans-75" x="230.615234"/>
      <use xlink:href="#DejaVuSans-6c" x="293.994141"/>
      <use xlink:href="#DejaVuSans-61" x="321.777344"/>
      <use xlink:href="#DejaVuSans-74" x="383.056641"/>
      <use xlink:href="#DejaVuSans-69" x="422.265625"/>
      <use xlink:href="#DejaVuSans-76" x="450.048828"/>
      <use xlink:href="#DejaVuSans-65" x="509.228516"/>
      <use xlink:href="#DejaVuSans-20" x="570.751953"/>
      <use xlink:href="#DejaVuSans-50" x="602.539062"/>
      <use xlink:href="#DejaVuSans-61" x="658.341797"/>
      <use xlink:href="#DejaVuSans-79" x="719.621094"/>
      <use xlink:href="#DejaVuSans-6c" x="778.800781"/>
      <use xlink:href="#DejaVuSans-6f" x="806.583984"/>
      <use xlink:href="#DejaVuSans-61" x="867.765625"/>
      <use xlink:href="#DejaVuSans-64" x="929.044922"/>
      <use xlink:href="#DejaVuSans-20" x="992.521484"/>
      <use xlink:href="#DejaVuSans-4d" x="1024.308594"/>
      <use xlink:href="#DejaVuSans-61" x="1110.587891"/>
      <use xlink:href="#DejaVuSans-73" x="1171.867188"/>
      <use xlink:href="#DejaVuSans-73" x="1223.966797"/>
      <use xlink:href="#DejaVuSans-20" x="1276.066406"/>
      <use xlink:href="#DejaVuSans-28" x="1307.853516"/>
      <use xlink:href="#DejaVuSans-6b" x="1346.867188"/>
      <use xlink:href="#DejaVuSans-67" x="1404.777344"/>
      <use xlink:href="#DejaVuSans-29" x="1468.253906"/>
     </g>
    </g>
   </g>
   <g id="line2d_27">
    <path d="M 106.665736 455.7 
L 127.722041 455.7 
L 127.722041 452.653863 
L 186.031809 452.653863 
L 186.031809 451.863771 
L 226.524703 451.863771 
L 226.524703 450.086858 
L 249.200724 450.086858 
L 249.200724 448.405137 
L 301.031628 448.405137 
L 301.031628 448.405137 
L 323.707649 448.405137 
L 323.707649 446.47909 
L 354.482248 446.47909 
L 354.482248 445.619826 
L 386.876563 445.619826 
L 386.876563 444.45563 
L 390.115995 444.45563 
L 390.115995 441.409494 
L 406.313152 441.409494 
L 406.313152 439.264188 
L 471.101783 439.264188 
L 471.101783 438.213906 
L 487.298941 438.213906 
L 487.298941 438.063185 
L 509.974961 438.063185 
L 509.974961 436.479829 
L 561.805866 436.479829 
L 561.805866 433.433692 
L 565.045297 433.433692 
L 565.045297 431.72024 
L 595.819897 431.72024 
L 595.819897 430.609669 
L 670.326822 430.609669 
L 670.326822 429.91001 
L 683.284548 429.91001 
L 683.284548 426.863873 
L 696.242274 426.863873 
L 696.242274 426.863873 
" clip-path="url(#pd15bf4501a)" style="fill: none; stroke: #90ee90; stroke-width: 1.5; stroke-linecap: square"/>
   </g>
   <g id="line2d_28">
    <path d="M 106.665736 455.7 
L 118.003747 455.7 
L 118.003747 455.7 
L 155.257209 455.7 
L 155.257209 454.357796 
L 164.975504 454.357796 
L 164.975504 453.961164 
L 190.890956 453.961164 
L 190.890956 453.278956 
L 210.327545 453.278956 
L 210.327545 451.345928 
L 249.200724 451.345928 
L 249.200724 448.299791 
L 254.059871 448.299791 
L 254.059871 447.459883 
L 279.975323 447.459883 
L 279.975323 447.345018 
L 317.228786 447.345018 
L 317.228786 446.202717 
L 335.045659 446.202717 
L 335.045659 444.15292 
L 356.101964 444.15292 
L 356.101964 442.444545 
L 396.594858 442.444545 
L 396.594858 441.588771 
L 433.84832 441.588771 
L 433.84832 439.343832 
L 438.707468 439.343832 
L 438.707468 436.297695 
L 459.763773 436.297695 
L 459.763773 434.457321 
L 514.834109 434.457321 
L 514.834109 432.217141 
L 560.18615 432.217141 
L 560.18615 431.265223 
L 621.735349 431.265223 
L 621.735349 429.583502 
L 650.890233 429.583502 
L 650.890233 428.314278 
L 654.129664 428.314278 
L 654.129664 427.521014 
L 683.284548 427.521014 
L 683.284548 426.124868 
L 696.242274 426.124868 
L 696.242274 426.124868 
" clip-path="url(#pd15bf4501a)" style="fill: none; stroke: #add8e6; stroke-width: 1.5; stroke-linecap: square"/>
   </g>
   <g id="line2d_29">
    <path d="M 106.665736 455.7 
L 122.862894 455.7 
L 122.862894 452.653863 
L 190.890956 452.653863 
L 190.890956 451.11493 
L 203.848682 451.11493 
L 203.848682 447.289807 
L 268.637313 447.289807 
L 268.637313 445.238424 
L 305.890775 445.238424 
L 305.890775 444.446746 
L 338.28509 444.446746 
L 338.28509 440.125039 
L 369.05969 440.125039 
L 369.05969 438.792354 
L 390.115995 438.792354 
L 390.115995 437.618322 
L 438.707468 437.618322 
L 438.707468 436.898673 
L 458.144057 436.898673 
L 458.144057 434.836184 
L 615.256486 434.836184 
L 615.256486 429.886212 
L 654.129664 429.886212 
L 654.129664 429.055822 
L 673.566253 429.055822 
L 673.566253 426.848642 
L 696.242274 426.848642 
L 696.242274 426.848642 
" clip-path="url(#pd15bf4501a)" style="fill: none; stroke: #ffc0cb; stroke-width: 1.5; stroke-linecap: square"/>
   </g>
   <g id="line2d_30">
    <path d="M 106.665736 455.7 
L 116.384031 455.7 
L 116.384031 450.750028 
L 135.82062 450.750028 
L 135.82062 446.926491 
L 152.017778 446.926491 
L 152.017778 441.976519 
L 182.792377 441.976519 
L 182.792377 437.026547 
L 213.566977 437.026547 
L 213.566977 436.399233 
L 231.38385 436.399233 
L 231.38385 431.449261 
L 288.073902 431.449261 
L 288.073902 426.499289 
L 349.623101 426.499289 
L 349.623101 422.523446 
L 357.72168 422.523446 
L 357.72168 417.573473 
L 372.299121 417.573473 
L 372.299121 412.683789 
L 399.834289 412.683789 
L 399.834289 411.315883 
L 432.228605 411.315883 
L 432.228605 409.570701 
L 461.383488 409.570701 
L 461.383488 404.832689 
L 479.200362 404.832689 
L 479.200362 399.933486 
L 498.636951 399.933486 
L 498.636951 398.940318 
L 505.115814 398.940318 
L 505.115814 393.990346 
L 558.566434 393.990346 
L 558.566434 389.040374 
L 578.003023 389.040374 
L 578.003023 384.090401 
L 587.721318 384.090401 
L 587.721318 379.140429 
L 607.157907 379.140429 
L 607.157907 377.772523 
L 624.97478 377.772523 
L 624.97478 373.806199 
L 633.073359 373.806199 
L 633.073359 373.427971 
L 639.552222 373.427971 
L 639.552222 368.477998 
L 657.369096 368.477998 
L 657.369096 367.534965 
L 668.707106 367.534965 
L 668.707106 365.313824 
L 678.425401 365.313824 
L 678.425401 365.313824 
L 697.86199 365.313824 
L 697.86199 365.313824 
" clip-path="url(#pd15bf4501a)" style="fill: none; stroke: #800080; stroke-width: 1.5; stroke-linecap: square"/>
   </g>
   <g id="line2d_31">
    <path d="M 106.665736 455.7 
L 118.003747 455.7 
L 118.003747 454.589429 
L 137.440336 454.589429 
L 137.440336 449.639457 
L 143.919199 449.639457 
L 143.919199 448.052927 
L 161.736072 448.052927 
L 161.736072 443.102955 
L 181.172661 443.102955 
L 181.172661 438.152983 
L 207.088114 438.152983 
L 207.088114 433.203011 
L 218.426124 433.203011 
L 218.426124 428.253038 
L 223.285271 428.253038 
L 223.285271 423.303066 
L 239.482429 423.303066 
L 239.482429 418.353094 
L 262.15845 418.353094 
L 262.15845 413.403122 
L 288.073902 413.403122 
L 288.073902 409.278145 
L 297.792196 409.278145 
L 297.792196 404.328172 
L 305.890775 404.328172 
L 305.890775 399.3782 
L 313.989354 399.3782 
L 313.989354 394.428228 
L 323.707649 394.428228 
L 323.707649 389.529025 
L 341.524522 389.529025 
L 341.524522 384.579052 
L 354.482248 384.579052 
L 354.482248 383.523058 
L 359.341395 383.523058 
L 359.341395 381.301917 
L 377.158269 381.301917 
L 377.158269 379.927665 
L 398.214574 379.927665 
L 398.214574 379.927665 
L 495.397519 379.927665 
L 495.397519 379.229592 
L 521.312972 379.229592 
L 521.312972 375.022116 
L 524.552403 375.022116 
L 524.552403 371.049763 
L 615.256486 371.049763 
L 615.256486 366.924786 
L 618.495917 366.924786 
L 618.495917 361.963708 
L 636.312791 361.963708 
L 636.312791 361.765709 
L 649.270517 361.765709 
L 649.270517 357.164773 
L 660.608527 357.164773 
L 660.608527 357.061649 
L 675.185969 357.061649 
L 675.185969 352.111677 
L 676.805685 352.111677 
L 676.805685 350.6838 
L 680.045116 350.6838 
L 680.045116 349.735373 
L 696.242274 349.735373 
L 696.242274 349.735373 
" clip-path="url(#pd15bf4501a)" style="fill: none; stroke: #ffa500; stroke-width: 1.5; stroke-linecap: square"/>
   </g>
   <g id="line2d_32">
    <path d="M 106.665736 455.7 
L 114.764315 455.7 
L 114.764315 451.099064 
L 126.102326 451.099064 
L 126.102326 451.099064 
L 135.82062 451.099064 
L 135.82062 446.498128 
L 155.257209 446.498128 
L 155.257209 445.798469 
L 158.496641 445.798469 
L 158.496641 445.798469 
L 160.116357 445.798469 
L 160.116357 441.197533 
L 189.27124 441.197533 
L 189.27124 436.882173 
L 195.750103 436.882173 
L 195.750103 432.201911 
L 205.468398 432.201911 
L 205.468398 427.791358 
L 215.186693 427.791358 
L 215.186693 423.298307 
L 231.38385 423.298307 
L 231.38385 418.142085 
L 252.440155 418.142085 
L 252.440155 418.142085 
L 263.778165 418.142085 
L 263.778165 414.017109 
L 278.355607 414.017109 
L 278.355607 414.017109 
L 284.83447 414.017109 
L 284.83447 408.860887 
L 294.552765 408.860887 
L 294.552765 404.735911 
L 297.792196 404.735911 
L 297.792196 399.579689 
L 309.130207 399.579689 
L 309.130207 394.423468 
L 320.468217 394.423468 
L 320.468217 389.267247 
L 322.087933 389.267247 
L 322.087933 384.111026 
L 328.566796 384.111026 
L 328.566796 378.954805 
L 339.904806 378.954805 
L 339.904806 378.954805 
L 362.580827 378.954805 
L 362.580827 377.653851 
L 377.158269 377.653851 
L 377.158269 372.49763 
L 378.777984 372.49763 
L 378.777984 371.228406 
L 380.3977 371.228406 
L 380.3977 371.006292 
L 396.594858 371.006292 
L 396.594858 369.895721 
L 409.552584 369.895721 
L 409.552584 364.7395 
L 416.031447 364.7395 
L 416.031447 360.265487 
L 422.51031 360.265487 
L 422.51031 359.418915 
L 425.749742 359.418915 
L 425.749742 354.262693 
L 433.84832 354.262693 
L 433.84832 349.78868 
L 437.087752 349.78868 
L 437.087752 344.632459 
L 454.904625 344.632459 
L 454.904625 344.417008 
L 464.62292 344.417008 
L 464.62292 339.340114 
L 467.862351 339.340114 
L 467.862351 334.8661 
L 479.200362 334.8661 
L 479.200362 329.709879 
L 493.777804 329.709879 
L 493.777804 324.41087 
L 498.636951 324.41087 
L 498.636951 319.905126 
L 506.73553 319.905126 
L 506.73553 314.828232 
L 516.453824 314.828232 
L 516.453824 311.040234 
L 529.41155 311.040234 
L 529.41155 305.741225 
L 537.510129 305.741225 
L 537.510129 300.6326 
L 555.327003 300.6326 
L 555.327003 296.507623 
L 555.327003 296.507623 
L 555.327003 291.398998 
L 560.18615 291.398998 
L 560.18615 289.066799 
L 571.52416 289.066799 
L 571.52416 287.638922 
L 579.622739 287.638922 
L 579.622739 282.339914 
L 592.580465 282.339914 
L 592.580465 277.136097 
L 599.059328 277.136097 
L 599.059328 275.9462 
L 602.29876 275.9462 
L 602.29876 274.518323 
L 616.876202 274.518323 
L 616.876202 272.424104 
L 634.693075 272.424104 
L 634.693075 270.678921 
L 639.552222 270.678921 
L 639.552222 269.559466 
L 658.988811 269.559466 
L 658.988811 267.655631 
L 663.847959 267.655631 
L 663.847959 267.338325 
L 671.946537 267.338325 
L 671.946537 266.640252 
L 671.946537 266.640252 
L 671.946537 265.339297 
L 673.566253 265.339297 
L 673.566253 260.040289 
L 691.383127 260.040289 
L 691.383127 254.74128 
L 694.622558 254.74128 
L 694.622558 254.614358 
L 696.242274 254.614358 
L 696.242274 254.614358 
" clip-path="url(#pd15bf4501a)" style="fill: none; stroke: #0000ff; stroke-width: 1.5; stroke-linecap: square"/>
   </g>
   <g id="line2d_33">
    <path d="M 106.665736 455.7 
L 121.243178 455.7 
L 121.243178 453.796165 
L 129.341757 453.796165 
L 129.341757 452.606267 
L 134.200904 452.606267 
L 134.200904 451.225352 
L 135.82062 451.225352 
L 135.82062 446.465763 
L 147.15863 446.465763 
L 147.15863 440.94464 
L 155.257209 440.94464 
L 155.257209 436.12159 
L 158.496641 436.12159 
L 158.496641 430.886043 
L 166.59522 430.886043 
L 166.59522 429.570493 
L 174.693798 429.570493 
L 174.693798 424.144561 
L 182.792377 424.144561 
L 182.792377 419.099397 
L 184.412093 419.099397 
L 184.412093 417.363734 
L 198.989535 417.363734 
L 198.989535 412.508954 
L 203.848682 412.508954 
L 203.848682 408.383977 
L 205.468398 408.383977 
L 205.468398 403.338813 
L 215.186693 403.338813 
L 215.186693 401.434977 
L 224.904987 401.434977 
L 224.904987 400.530021 
L 228.144419 400.530021 
L 228.144419 393.168523 
L 239.482429 393.168523 
L 239.482429 387.647401 
L 247.581008 387.647401 
L 247.581008 382.126278 
L 262.15845 382.126278 
L 262.15845 380.353172 
L 281.595039 380.353172 
L 281.595039 375.498392 
L 294.552765 375.498392 
L 294.552765 371.024378 
L 296.172481 371.024378 
L 296.172481 369.723424 
L 301.031628 369.723424 
L 301.031628 367.692666 
L 305.890775 367.692666 
L 305.890775 362.171543 
L 315.60907 362.171543 
L 315.60907 357.126379 
L 322.087933 357.126379 
L 322.087933 351.605256 
L 330.186512 351.605256 
L 330.186512 346.496631 
L 331.806227 346.496631 
L 331.806227 344.402412 
L 333.425943 344.402412 
L 333.425943 340.277435 
L 343.144238 340.277435 
L 343.144238 338.849559 
L 349.623101 338.849559 
L 349.623101 333.645742 
L 356.101964 333.645742 
L 356.101964 328.537116 
L 357.72168 328.537116 
L 357.72168 325.514778 
L 369.05969 325.514778 
L 369.05969 320.310961 
L 369.05969 320.310961 
L 378.777984 320.310961 
L 378.777984 318.857699 
L 385.256848 318.857699 
L 385.256848 314.256764 
L 386.876563 314.256764 
L 386.876563 308.735641 
L 399.834289 308.735641 
L 399.834289 308.05026 
L 409.552584 308.05026 
L 409.552584 303.322402 
L 414.411731 303.322402 
L 414.411731 298.213777 
L 424.130026 298.213777 
L 424.130026 292.914768 
L 430.608889 292.914768 
L 430.608889 289.107097 
L 437.087752 289.107097 
L 437.087752 283.998472 
L 443.566615 283.998472 
L 443.566615 278.889847 
L 445.186331 278.889847 
L 445.186331 275.970632 
L 453.28491 275.970632 
L 453.28491 274.364112 
L 459.763773 274.364112 
L 459.763773 269.255487 
L 461.383488 269.255487 
L 461.383488 265.447816 
L 466.242636 265.447816 
L 466.242636 260.339191 
L 475.96093 260.339191 
L 475.96093 255.230566 
L 484.059509 255.230566 
L 484.059509 250.375785 
L 490.538372 250.375785 
L 490.538372 246.250808 
L 492.158088 246.250808 
L 492.158088 241.142183 
L 500.256667 241.142183 
L 500.256667 236.033558 
L 505.115814 236.033558 
L 505.115814 231.178777 
L 513.214393 231.178777 
L 513.214393 226.070152 
L 518.07354 226.070152 
L 518.07354 221.215372 
L 524.552403 221.215372 
L 524.552403 216.106746 
L 531.031266 216.106746 
L 531.031266 210.998121 
L 537.510129 210.998121 
L 537.510129 205.889496 
L 539.129845 205.889496 
L 539.129845 201.034715 
L 547.228424 201.034715 
L 547.228424 195.92609 
L 555.327003 195.92609 
L 555.327003 190.817465 
L 561.805866 190.817465 
L 561.805866 185.962685 
L 568.284729 185.962685 
L 568.284729 180.026526 
L 576.383307 180.026526 
L 576.383307 174.9179 
L 581.242455 174.9179 
L 581.242455 170.06312 
L 582.862171 170.06312 
L 582.862171 164.73238 
L 594.200181 164.73238 
L 594.200181 159.623755 
L 595.819897 159.623755 
L 595.819897 154.293016 
L 603.918475 154.293016 
L 603.918475 148.962276 
L 610.397339 148.962276 
L 610.397339 143.631537 
L 613.63677 143.631537 
L 613.63677 140.609198 
L 616.876202 140.609198 
L 616.876202 139.308244 
L 626.594496 139.308244 
L 626.594496 133.977505 
L 629.833928 133.977505 
L 629.833928 128.868879 
L 633.073359 128.868879 
L 633.073359 123.53814 
L 642.791654 123.53814 
L 642.791654 118.207401 
L 647.650801 118.207401 
L 647.650801 117.953556 
L 650.890233 117.953556 
L 650.890233 112.622817 
L 657.369096 112.622817 
L 657.369096 107.292077 
L 658.988811 107.292077 
L 658.988811 102.183452 
L 676.805685 102.183452 
L 676.805685 96.852713 
L 683.284548 96.852713 
L 683.284548 91.521973 
L 684.904264 91.521973 
L 684.904264 90.379672 
L 693.002842 90.379672 
L 693.002842 83.03404 
L 696.242274 83.03404 
L 696.242274 83.03404 
" clip-path="url(#pd15bf4501a)" style="fill: none; stroke: #008000; stroke-width: 1.5; stroke-linecap: square"/>
   </g>
   <g id="line2d_34">
    <path d="M 106.665736 455.7 
L 109.905168 455.7 
L 109.905168 449.79811 
L 116.384031 449.79811 
L 116.384031 444.372179 
L 127.722041 444.372179 
L 127.722041 439.07317 
L 129.341757 439.07317 
L 129.341757 433.647239 
L 134.200904 433.647239 
L 134.200904 429.522262 
L 143.919199 429.522262 
L 143.919199 424.223253 
L 152.017778 424.223253 
L 152.017778 413.498313 
L 153.637494 413.498313 
L 153.637494 412.316032 
L 168.214935 412.316032 
L 168.214935 411.778515 
L 171.454367 411.778515 
L 171.454367 406.479507 
L 179.552946 406.479507 
L 179.552946 400.56778 
L 187.651525 400.56778 
L 187.651525 399.298556 
L 192.510672 399.298556 
L 192.510672 393.999548 
L 195.750103 393.999548 
L 195.750103 388.446694 
L 202.228966 388.446694 
L 202.228966 383.020763 
L 208.707829 383.020763 
L 208.707829 373.469855 
L 218.426124 373.469855 
L 218.426124 368.043924 
L 220.04584 368.043924 
L 220.04584 362.617993 
L 228.144419 362.617993 
L 228.144419 357.192062 
L 233.003566 357.192062 
L 233.003566 352.083436 
L 236.242997 352.083436 
L 236.242997 351.220047 
L 241.102145 351.220047 
L 241.102145 345.794116 
L 242.72186 345.794116 
L 242.72186 340.368185 
L 250.820439 340.368185 
L 250.820439 338.781655 
L 252.440155 338.781655 
L 252.440155 333.355724 
L 255.679587 333.355724 
L 255.679587 328.056715 
L 260.538734 328.056715 
L 260.538734 322.630784 
L 263.778165 322.630784 
L 263.778165 317.300045 
L 263.778165 317.300045 
L 268.637313 317.300045 
L 268.637313 311.874114 
L 270.257028 311.874114 
L 270.257028 311.493347 
L 273.49646 311.493347 
L 273.49646 306.067415 
L 279.975323 306.067415 
L 279.975323 300.641484 
L 281.595039 300.641484 
L 281.595039 295.215553 
L 289.693618 295.215553 
L 289.693618 289.789622 
L 297.792196 289.789622 
L 297.792196 283.856001 
L 304.271059 283.856001 
L 304.271059 283.380043 
L 305.890775 283.380043 
L 305.890775 277.954111 
L 310.749922 277.954111 
L 310.749922 272.52818 
L 313.989354 272.52818 
L 313.989354 267.102249 
L 317.228786 267.102249 
L 317.228786 261.930163 
L 322.087933 261.930163 
L 322.087933 256.504232 
L 323.707649 256.504232 
L 323.707649 251.332145 
L 330.186512 251.332145 
L 330.186512 245.906214 
L 338.28509 245.906214 
L 338.28509 240.480283 
L 339.904806 240.480283 
L 339.904806 235.054352 
L 346.383669 235.054352 
L 346.383669 228.882752 
L 352.862532 228.882752 
L 352.862532 223.456821 
L 359.341395 223.456821 
L 359.341395 218.284734 
L 364.200543 218.284734 
L 364.200543 207.813639 
L 382.017416 207.813639 
L 382.017416 202.641553 
L 383.637132 202.641553 
L 383.637132 201.055023 
L 388.496279 201.055023 
L 388.496279 195.756014 
L 390.115995 195.756014 
L 390.115995 190.583928 
L 391.735711 190.583928 
L 391.735711 188.997398 
L 394.975142 188.997398 
L 394.975142 183.571467 
L 404.693437 183.571467 
L 404.693437 178.399381 
L 412.792016 178.399381 
L 412.792016 177.050831 
L 419.270879 177.050831 
L 419.270879 171.878744 
L 443.566615 171.878744 
L 443.566615 166.452813 
L 445.186331 166.452813 
L 445.186331 155.791334 
L 453.28491 155.791334 
L 453.28491 150.365403 
L 456.524341 150.365403 
L 456.524341 143.715623 
L 466.242636 143.715623 
L 466.242636 138.480076 
L 469.482067 138.480076 
L 469.482067 130.760023 
L 474.341214 130.760023 
L 474.341214 130.284064 
L 482.439793 130.284064 
L 482.439793 124.985055 
L 495.397519 124.985055 
L 495.397519 119.686046 
L 500.256667 119.686046 
L 500.256667 109.088029 
L 508.355245 109.088029 
L 508.355245 103.78902 
L 516.453824 103.78902 
L 516.453824 99.664043 
L 519.693256 99.664043 
L 519.693256 97.284249 
L 521.312972 97.284249 
L 521.312972 91.98524 
L 527.791835 91.98524 
L 527.791835 91.477551 
L 532.650982 91.477551 
L 532.650982 86.305464 
L 540.749561 86.305464 
L 540.749561 81.133378 
L 545.608708 81.133378 
L 545.608708 77.008401 
L 560.18615 77.008401 
L 560.18615 76.656826 
L 571.52416 76.656826 
L 571.52416 74.732366 
L 573.143876 74.732366 
L 573.143876 64.134348 
L 578.003023 64.134348 
L 578.003023 58.962262 
L 581.242455 58.962262 
L 581.242455 58.02494 
L 586.101602 58.02494 
L 586.101602 52.599009 
L 590.960749 52.599009 
L 590.960749 47.3 
L 592.580465 47.3 
L 592.580465 47.3 
" clip-path="url(#pd15bf4501a)" style="fill: none; stroke: #ff0000; stroke-width: 1.5; stroke-linecap: square"/>
   </g>
   <g id="patch_3">
    <path d="M 82.37 476.12 
L 82.37 26.88 
" style="fill: none; stroke: #000000; stroke-width: 0.8; stroke-linejoin: miter; stroke-linecap: square"/>
   </g>
   <g id="patch_4">
    <path d="M 709.2 476.12 
L 709.2 26.88 
" style="fill: none; stroke: #000000; stroke-width: 0.8; stroke-linejoin: miter; stroke-linecap: square"/>
   </g>
   <g id="patch_5">
    <path d="M 82.37 476.12 
L 709.2 476.12 
" style="fill: none; stroke: #000000; stroke-width: 0.8; stroke-linejoin: miter; stroke-linecap: square"/>
   </g>
   <g id="patch_6">
    <path d="M 82.37 26.88 
L 709.2 26.88 
" style="fill: none; stroke: #000000; stroke-width: 0.8; stroke-linejoin: miter; stroke-linecap: square"/>
   </g>
   <g id="text_15">
    <!-- Cumulative Payload Mass to Orbit By Year -->
    <g transform="translate(270.179688 20.88) scale(0.12 -0.12)">
     <defs>
      <path id="DejaVuSans-4f" d="M 2522 4238 
Q 1834 4238 1429 3725 
Q 1025 3213 1025 2328 
Q 1025 1447 1429 934 
Q 1834 422 2522 422 
Q 3209 422 3611 934 
Q 4013 1447 4013 2328 
Q 4013 3213 3611 3725 
Q 3209 4238 2522 4238 
z
M 2522 4750 
Q 3503 4750 4090 4092 
Q 4678 3434 4678 2328 
Q 4678 1225 4090 567 
Q 3503 -91 2522 -91 
Q 1538 -91 948 565 
Q 359 1222 359 2328 
Q 359 3434 948 4092 
Q 1538 4750 2522 4750 
z
" transform="scale(0.015625)"/>
      <path id="DejaVuSans-62" d="M 3116 1747 
Q 3116 2381 2855 2742 
Q 2594 3103 2138 3103 
Q 1681 3103 1420 2742 
Q 1159 2381 1159 1747 
Q 1159 1113 1420 752 
Q 1681 391 2138 391 
Q 2594 391 2855 752 
Q 3116 1113 3116 1747 
z
M 1159 2969 
Q 1341 3281 1617 3432 
Q 1894 3584 2278 3584 
Q 2916 3584 3314 3078 
Q 3713 2572 3713 1747 
Q 3713 922 3314 415 
Q 2916 -91 2278 -91 
Q 1894 -91 1617 61 
Q 1341 213 1159 525 
L 1159 0 
L 581 0 
L 581 4863 
L 1159 4863 
L 1159 2969 
z
" transform="scale(0.015625)"/>
      <path id="DejaVuSans-42" d="M 1259 2228 
L 1259 519 
L 2272 519 
Q 2781 519 3026 730 
Q 3272 941 3272 1375 
Q 3272 1813 3026 2020 
Q 2781 2228 2272 2228 
L 1259 2228 
z
M 1259 4147 
L 1259 2741 
L 2194 2741 
Q 2656 2741 2882 2914 
Q 3109 3088 3109 3444 
Q 3109 3797 2882 3972 
Q 2656 4147 2194 4147 
L 1259 4147 
z
M 628 4666 
L 2241 4666 
Q 2963 4666 3353 4366 
Q 3744 4066 3744 3513 
Q 3744 3084 3544 2831 
Q 3344 2578 2956 2516 
Q 3422 2416 3680 2098 
Q 3938 1781 3938 1306 
Q 3938 681 3513 340 
Q 3088 0 2303 0 
L 628 0 
L 628 4666 
z
" transform="scale(0.015625)"/>
      <path id="DejaVuSans-59" d="M -13 4666 
L 666 4666 
L 1959 2747 
L 3244 4666 
L 3922 4666 
L 2272 2222 
L 2272 0 
L 1638 0 
L 1638 2222 
L -13 4666 
z
" transform="scale(0.015625)"/>
     </defs>
     <use xlink:href="#DejaVuSans-43"/>
     <use xlink:href="#DejaVuSans-75" x="69.824219"/>
     <use xlink:href="#DejaVuSans-6d" x="133.203125"/>
     <use xlink:href="#DejaVuSans-75" x="230.615234"/>
     <use xlink:href="#DejaVuSans-6c" x="293.994141"/>
     <use xlink:href="#DejaVuSans-61" x="321.777344"/>
     <use xlink:href="#DejaVuSans-74" x="383.056641"/>
     <use xlink:href="#DejaVuSans-69" x="422.265625"/>
     <use xlink:href="#DejaVuSans-76" x="450.048828"/>
     <use xlink:href="#DejaVuSans-65" x="509.228516"/>
     <use xlink:href="#DejaVuSans-20" x="570.751953"/>
     <use xlink:href="#DejaVuSans-50" x="602.539062"/>
     <use xlink:href="#DejaVuSans-61" x="658.341797"/>
     <use xlink:href="#DejaVuSans-79" x="719.621094"/>
     <use xlink:href="#DejaVuSans-6c" x="778.800781"/>
     <use xlink:href="#DejaVuSans-6f" x="806.583984"/>
     <use xlink:href="#DejaVuSans-61" x="867.765625"/>
     <use xlink:href="#DejaVuSans-64" x="929.044922"/>
     <use xlink:href="#DejaVuSans-20" x="992.521484"/>
     <use xlink:href="#DejaVuSans-4d" x="1024.308594"/>
     <use xlink:href="#DejaVuSans-61" x="1110.587891"/>
     <use xlink:href="#DejaVuSans-73" x="1171.867188"/>
     <use xlink:href="#DejaVuSans-73" x="1223.966797"/>
     <use xlink:href="#DejaVuSans-20" x="1276.066406"/>
     <use xlink:href="#DejaVuSans-74" x="1307.853516"/>
     <use xlink:href="#DejaVuSans-6f" x="1347.0625"/>
     <use xlink:href="#DejaVuSans-20" x="1408.244141"/>
     <use xlink:href="#DejaVuSans-4f" x="1440.03125"/>
     <use xlink:href="#DejaVuSans-72" x="1518.742188"/>
     <use xlink:href="#DejaVuSans-62" x="1559.855469"/>
     <use xlink:href="#DejaVuSans-69" x="1623.332031"/>
     <use xlink:href="#DejaVuSans-74" x="1651.115234"/>
     <use xlink:href="#DejaVuSans-20" x="1690.324219"/>
     <use xlink:href="#DejaVuSans-42" x="1722.111328"/>
     <use xlink:href="#DejaVuSans-79" x="1790.714844"/>
     <use xlink:href="#DejaVuSans-20" x="1849.894531"/>
     <use xlink:href="#DejaVuSans-59" x="1881.681641"/>
     <use xlink:href="#DejaVuSans-65" x="1929.515625"/>
     <use xlink:href="#DejaVuSans-61" x="1991.039062"/>
     <use xlink:href="#DejaVuSans-72" x="2052.318359"/>
    </g>
   </g>
   <g id="legend_1">
    <g id="patch_7">
     <path d="M 89.37 166.983125 
L 146.82 166.983125 
Q 148.82 166.983125 148.82 164.983125 
L 148.82 33.88 
Q 148.82 31.88 146.82 31.88 
L 89.37 31.88 
Q 87.37 31.88 87.37 33.88 
L 87.37 164.983125 
Q 87.37 166.983125 89.37 166.983125 
z
" style="fill: #ffffff; opacity: 0.8; stroke: #cccccc; stroke-linejoin: miter"/>
    </g>
    <g id="text_16">
     <!-- Year -->
     <g transform="translate(107.5075 43.478437) scale(0.1 -0.1)">
      <use xlink:href="#DejaVuSans-59"/>
      <use xlink:href="#DejaVuSans-65" x="47.833984"/>
      <use xlink:href="#DejaVuSans-61" x="109.357422"/>
      <use xlink:href="#DejaVuSans-72" x="170.636719"/>
     </g>
    </g>
    <g id="line2d_35">
     <path d="M 91.37 54.656562 
L 101.37 54.656562 
L 101.37 54.656562 
L 111.37 54.656562 
L 111.37 54.656562 
" style="fill: none; stroke: #90ee90; stroke-width: 1.5; stroke-linecap: square"/>
    </g>
    <g id="text_17">
     <!-- 2017 -->
     <g transform="translate(119.37 58.156562) scale(0.1 -0.1)">
      <defs>
       <path id="DejaVuSans-37" d="M 525 4666 
L 3525 4666 
L 3525 4397 
L 1831 0 
L 1172 0 
L 2766 4134 
L 525 4134 
L 525 4666 
z
" transform="scale(0.015625)"/>
      </defs>
      <use xlink:href="#DejaVuSans-32"/>
      <use xlink:href="#DejaVuSans-30" x="63.623047"/>
      <use xlink:href="#DejaVuSans-31" x="127.246094"/>
      <use xlink:href="#DejaVuSans-37" x="190.869141"/>
     </g>
    </g>
    <g id="line2d_36">
     <path d="M 91.37 69.334687 
L 101.37 69.334687 
L 101.37 69.334687 
L 111.37 69.334687 
L 111.37 69.334687 
" style="fill: none; stroke: #add8e6; stroke-width: 1.5; stroke-linecap: square"/>
    </g>
    <g id="text_18">
     <!-- 2018 -->
     <g transform="translate(119.37 72.834687) scale(0.1 -0.1)">
      <use xlink:href="#DejaVuSans-32"/>
      <use xlink:href="#DejaVuSans-30" x="63.623047"/>
      <use xlink:href="#DejaVuSans-31" x="127.246094"/>
      <use xlink:href="#DejaVuSans-38" x="190.869141"/>
     </g>
    </g>
    <g id="line2d_37">
     <path d="M 91.37 84.012812 
L 101.37 84.012812 
L 101.37 84.012812 
L 111.37 84.012812 
L 111.37 84.012812 
" style="fill: none; stroke: #ffc0cb; stroke-width: 1.5; stroke-linecap: square"/>
    </g>
    <g id="text_19">
     <!-- 2019 -->
     <g transform="translate(119.37 87.512812) scale(0.1 -0.1)">
      <defs>
       <path id="DejaVuSans-39" d="M 703 97 
L 703 672 
Q 941 559 1184 500 
Q 1428 441 1663 441 
Q 2288 441 2617 861 
Q 2947 1281 2994 2138 
Q 2813 1869 2534 1725 
Q 2256 1581 1919 1581 
Q 1219 1581 811 2004 
Q 403 2428 403 3163 
Q 403 3881 828 4315 
Q 1253 4750 1959 4750 
Q 2769 4750 3195 4129 
Q 3622 3509 3622 2328 
Q 3622 1225 3098 567 
Q 2575 -91 1691 -91 
Q 1453 -91 1209 -44 
Q 966 3 703 97 
z
M 1959 2075 
Q 2384 2075 2632 2365 
Q 2881 2656 2881 3163 
Q 2881 3666 2632 3958 
Q 2384 4250 1959 4250 
Q 1534 4250 1286 3958 
Q 1038 3666 1038 3163 
Q 1038 2656 1286 2365 
Q 1534 2075 1959 2075 
z
" transform="scale(0.015625)"/>
      </defs>
      <use xlink:href="#DejaVuSans-32"/>
      <use xlink:href="#DejaVuSans-30" x="63.623047"/>
      <use xlink:href="#DejaVuSans-31" x="127.246094"/>
      <use xlink:href="#DejaVuSans-39" x="190.869141"/>
     </g>
    </g>
    <g id="line2d_38">
     <path d="M 91.37 98.690937 
L 101.37 98.690937 
L 101.37 98.690937 
L 111.37 98.690937 
L 111.37 98.690937 
" style="fill: none; stroke: #800080; stroke-width: 1.5; stroke-linecap: square"/>
    </g>
    <g id="text_20">
     <!-- 2020 -->
     <g transform="translate(119.37 102.190937) scale(0.1 -0.1)">
      <use xlink:href="#DejaVuSans-32"/>
      <use xlink:href="#DejaVuSans-30" x="63.623047"/>
      <use xlink:href="#DejaVuSans-32" x="127.246094"/>
      <use xlink:href="#DejaVuSans-30" x="190.869141"/>
     </g>
    </g>
    <g id="line2d_39">
     <path d="M 91.37 113.369062 
L 101.37 113.369062 
L 101.37 113.369062 
L 111.37 113.369062 
L 111.37 113.369062 
" style="fill: none; stroke: #ffa500; stroke-width: 1.5; stroke-linecap: square"/>
    </g>
    <g id="text_21">
     <!-- 2021 -->
     <g transform="translate(119.37 116.869062) scale(0.1 -0.1)">
      <use xlink:href="#DejaVuSans-32"/>
      <use xlink:href="#DejaVuSans-30" x="63.623047"/>
      <use xlink:href="#DejaVuSans-32" x="127.246094"/>
      <use xlink:href="#DejaVuSans-31" x="190.869141"/>
     </g>
    </g>
    <g id="line2d_40">
     <path d="M 91.37 128.047187 
L 101.37 128.047187 
L 101.37 128.047187 
L 111.37 128.047187 
L 111.37 128.047187 
" style="fill: none; stroke: #0000ff; stroke-width: 1.5; stroke-linecap: square"/>
    </g>
    <g id="text_22">
     <!-- 2022 -->
     <g transform="translate(119.37 131.547187) scale(0.1 -0.1)">
      <use xlink:href="#DejaVuSans-32"/>
      <use xlink:href="#DejaVuSans-30" x="63.623047"/>
      <use xlink:href="#DejaVuSans-32" x="127.246094"/>
      <use xlink:href="#DejaVuSans-32" x="190.869141"/>
     </g>
    </g>
    <g id="line2d_41">
     <path d="M 91.37 142.725312 
L 101.37 142.725312 
L 101.37 142.725312 
L 111.37 142.725312 
L 111.37 142.725312 
" style="fill: none; stroke: #008000; stroke-width: 1.5; stroke-linecap: square"/>
    </g>
    <g id="text_23">
     <!-- 2023 -->
     <g transform="translate(119.37 146.225312) scale(0.1 -0.1)">
      <defs>
       <path id="DejaVuSans-33" d="M 2597 2516 
Q 3050 2419 3304 2112 
Q 3559 1806 3559 1356 
Q 3559 666 3084 287 
Q 2609 -91 1734 -91 
Q 1441 -91 1130 -33 
Q 819 25 488 141 
L 488 750 
Q 750 597 1062 519 
Q 1375 441 1716 441 
Q 2309 441 2620 675 
Q 2931 909 2931 1356 
Q 2931 1769 2642 2001 
Q 2353 2234 1838 2234 
L 1294 2234 
L 1294 2753 
L 1863 2753 
Q 2328 2753 2575 2939 
Q 2822 3125 2822 3475 
Q 2822 3834 2567 4026 
Q 2313 4219 1838 4219 
Q 1578 4219 1281 4162 
Q 984 4106 628 3988 
L 628 4550 
Q 988 4650 1302 4700 
Q 1616 4750 1894 4750 
Q 2613 4750 3031 4423 
Q 3450 4097 3450 3541 
Q 3450 3153 3228 2886 
Q 3006 2619 2597 2516 
z
" transform="scale(0.015625)"/>
      </defs>
      <use xlink:href="#DejaVuSans-32"/>
      <use xlink:href="#DejaVuSans-30" x="63.623047"/>
      <use xlink:href="#DejaVuSans-32" x="127.246094"/>
      <use xlink:href="#DejaVuSans-33" x="190.869141"/>
     </g>
    </g>
    <g id="line2d_42">
     <path d="M 91.37 157.403437 
L 101.37 157.403437 
L 101.37 157.403437 
L 111.37 157.403437 
L 111.37 157.403437 
" style="fill: none; stroke: #ff0000; stroke-width: 1.5; stroke-linecap: square"/>
    </g>
    <g id="text_24">
     <!-- 2024 -->
     <g transform="translate(119.37 160.903437) scale(0.1 -0.1)">
      <use xlink:href="#DejaVuSans-32"/>
      <use xlink:href="#DejaVuSans-30" x="63.623047"/>
      <use xlink:href="#DejaVuSans-32" x="127.246094"/>
      <use xlink:href="#DejaVuSans-34" x="190.869141"/>
     </g>
    </g>
   </g>
  </g>
 </g>
 <defs>
  <clipPath id="pd15bf4501a">
   <rect x="82.37" y="26.88" width="626.83" height="449.24"/>
  </clipPath>
 </defs>
</svg>
