<?xml version="1.0" encoding="utf-8" standalone="no"?>
<!DOCTYPE svg PUBLIC "-//W3C//DTD SVG 1.1//EN"
  "http://www.w3.org/Graphics/SVG/1.1/DTD/svg11.dtd">
<svg xmlns:xlink="http://www.w3.org/1999/xlink" width="720pt" height="504pt" viewBox="0 0 720 504" xmlns="http://www.w3.org/2000/svg" version="1.1">
 <metadata>
  <rdf:RDF xmlns:dc="http://purl.org/dc/elements/1.1/" xmlns:cc="http://creativecommons.org/ns#" xmlns:rdf="http://www.w3.org/1999/02/22-rdf-syntax-ns#">
   <cc:Work>
    <dc:type rdf:resource="http://purl.org/dc/dcmitype/StillImage"/>
    <dc:date>2025-11-17T11:26:17.040883</dc:date>
    <dc:format>image/svg+xml</dc:format>
    <dc:creator>
     <cc:Agent>
      <dc:title>Matplotlib v3.8.2, https://matplotlib.org/</dc:title>
     </cc:Agent>
    </dc:creator>
   </cc:Work>
  </rdf:RDF>
 </metadata>
 <defs>
  <style type="text/css">*{stroke-linejoin: round; stroke-linecap: butt}</style>
 </defs>
 <g id="figure_1">
  <g id="patch_1">
   <path d="M 0 504 
L 720 504 
L 720 0 
L 0 0 
z
" style="fill: #ffffff"/>
  </g>
  <g id="axes_1">
   <g id="patch_2">
    <path d="M 82.37 476.12 
L 709.2 476.12 
L 709.2 26.88 
L 82.37 26.88 
z
" style="fill: #ffffff"/>
   </g>
   <g id="matplotlib.axis_1">
    <g id="xtick_1">
     <g id="line2d_1">
      <path d="M 106.728679 476.12 
L 106.728679 26.88 
" clip-path="url(#p79ea7b7c3a)" style="fill: none; stroke: #b0b0b0; stroke-width: 0.8; stroke-linecap: square"/>
     </g>
     <g id="line2d_2">
      <defs>
       <path id="ma79c930229" d="M 0 0 
L 0 3.5 
" style="stroke: #000000; stroke-width: 0.8"/>
      </defs>
      <g>
       <use xlink:href="#ma79c930229" x="106.728679" y="476.12" style="stroke: #000000; stroke-width: 0.8"/>
      </g>
     </g>
     <g id="text_1">
      <!-- Jan 1 -->
      <g transform="translate(94.250554 490.718437) scale(0.1 -0.1)">
       <defs>
        <path id="DejaVuSans-4a" d="M 628 4666 
L 1259 4666 
L 1259 325 
Q 1259 -519 939 -900 
Q 619 -1281 -91 -1281 
L -331 -1281 
L -331 -750 
L -134 -750 
Q 284 -750 456 -515 
Q 628 -281 628 325 
L 628 4666 
z
" transform="scale(0.015625)"/>
        <path id="DejaVuSans-61" d="M 2194 1759 
Q 1497 1759 1228 1600 
Q 959 1441 959 1056 
Q 959 750 1161 570 
Q 1363 391 1709 391 
Q 2188 391 2477 730 
Q 2766 1069 2766 1631 
L 2766 1759 
L 2194 1759 
z
M 3341 1997 
L 3341 0 
L 2766 0 
L 2766 531 
Q 2569 213 2275 61 
Q 1981 -91 1556 -91 
Q 1019 -91 701 211 
Q 384 513 384 1019 
Q 384 1609 779 1909 
Q 1175 2209 1959 2209 
L 2766 2209 
L 2766 2266 
Q 2766 2663 2505 2880 
Q 2244 3097 1772 3097 
Q 1472 3097 1187 3025 
Q 903 2953 641 2809 
L 641 3341 
Q 956 3463 1253 3523 
Q 1550 3584 1831 3584 
Q 2591 3584 2966 3190 
Q 3341 2797 3341 1997 
z
" transform="scale(0.015625)"/>
        <path id="DejaVuSans-6e" d="M 3513 2113 
L 3513 0 
L 2938 0 
L 2938 2094 
Q 2938 2591 2744 2837 
Q 2550 3084 2163 3084 
Q 1697 3084 1428 2787 
Q 1159 2491 1159 1978 
L 1159 0 
L 581 0 
L 581 3500 
L 1159 3500 
L 1159 2956 
Q 1366 3272 1645 3428 
Q 1925 3584 2291 3584 
Q 2894 3584 3203 3211 
Q 3513 2838 3513 2113 
z
" transform="scale(0.015625)"/>
        <path id="DejaVuSans-20" transform="scale(0.015625)"/>
        <path id="DejaVuSans-31" d="M 794 531 
L 1825 531 
L 1825 4091 
L 703 3866 
L 703 4441 
L 1819 4666 
L 2450 4666 
L 2450 531 
L 3481 531 
L 3481 0 
L 794 0 
L 794 531 
z
" transform="scale(0.015625)"/>
       </defs>
       <use xlink:href="#DejaVuSans-4a"/>
       <use xlink:href="#DejaVuSans-61" x="29.492188"/>
       <use xlink:href="#DejaVuSans-6e" x="90.771484"/>
       <use xlink:href="#DejaVuSans-20" x="154.150391"/>
       <use xlink:href="#DejaVuSans-31" x="185.9375"/>
      </g>
     </g>
    </g>
    <g id="xtick_2">
     <g id="line2d_3">
      <path d="M 204.163394 476.12 
L 204.163394 26.88 
" clip-path="url(#p79ea7b7c3a)" style="fill: none; stroke: #b0b0b0; stroke-width: 0.8; stroke-linecap: square"/>
     </g>
     <g id="line2d_4">
      <g>
       <use xlink:href="#ma79c930229" x="204.163394" y="476.12" style="stroke: #000000; stroke-width: 0.8"/>
      </g>
     </g>
     <g id="text_2">
      <!-- Mar 1 -->
      <g transform="translate(189.959488 490.718437) scale(0.1 -0.1)">
       <defs>
        <path id="DejaVuSans-4d" d="M 628 4666 
L 1569 4666 
L 2759 1491 
L 3956 4666 
L 4897 4666 
L 4897 0 
L 4281 0 
L 4281 4097 
L 3078 897 
L 2444 897 
L 1241 4097 
L 1241 0 
L 628 0 
L 628 4666 
z
" transform="scale(0.015625)"/>
        <path id="DejaVuSans-72" d="M 2631 2963 
Q 2534 3019 2420 3045 
Q 2306 3072 2169 3072 
Q 1681 3072 1420 2755 
Q 1159 2438 1159 1844 
L 1159 0 
L 581 0 
L 581 3500 
L 1159 3500 
L 1159 2956 
Q 1341 3275 1631 3429 
Q 1922 3584 2338 3584 
Q 2397 3584 2469 3576 
Q 2541 3569 2628 3553 
L 2631 2963 
z
" transform="scale(0.015625)"/>
       </defs>
       <use xlink:href="#DejaVuSans-4d"/>
       <use xlink:href="#DejaVuSans-61" x="86.279297"/>
       <use xlink:href="#DejaVuSans-72" x="147.558594"/>
       <use xlink:href="#DejaVuSans-20" x="188.671875"/>
       <use xlink:href="#DejaVuSans-31" x="220.458984"/>
      </g>
     </g>
    </g>
    <g id="xtick_3">
     <g id="line2d_5">
      <path d="M 303.222021 476.12 
L 303.222021 26.88 
" clip-path="url(#p79ea7b7c3a)" style="fill: none; stroke: #b0b0b0; stroke-width: 0.8; stroke-linecap: square"/>
     </g>
     <g id="line2d_6">
      <g>
       <use xlink:href="#ma79c930229" x="303.222021" y="476.12" style="stroke: #000000; stroke-width: 0.8"/>
      </g>
     </g>
     <g id="text_3">
      <!-- May 1 -->
      <g transform="translate(288.114208 490.718437) scale(0.1 -0.1)">
       <defs>
        <path id="DejaVuSans-79" d="M 2059 -325 
Q 1816 -950 1584 -1140 
Q 1353 -1331 966 -1331 
L 506 -1331 
L 506 -850 
L 844 -850 
Q 1081 -850 1212 -737 
Q 1344 -625 1503 -206 
L 1606 56 
L 191 3500 
L 800 3500 
L 1894 763 
L 2988 3500 
L 3597 3500 
L 2059 -325 
z
" transform="scale(0.015625)"/>
       </defs>
       <use xlink:href="#DejaVuSans-4d"/>
       <use xlink:href="#DejaVuSans-61" x="86.279297"/>
       <use xlink:href="#DejaVuSans-79" x="147.558594"/>
       <use xlink:href="#DejaVuSans-20" x="206.738281"/>
       <use xlink:href="#DejaVuSans-31" x="238.525391"/>
      </g>
     </g>
    </g>
    <g id="xtick_4">
     <g id="line2d_7">
      <path d="M 402.280648 476.12 
L 402.280648 26.88 
" clip-path="url(#p79ea7b7c3a)" style="fill: none; stroke: #b0b0b0; stroke-width: 0.8; stroke-linecap: square"/>
     </g>
     <g id="line2d_8">
      <g>
       <use xlink:href="#ma79c930229" x="402.280648" y="476.12" style="stroke: #000000; stroke-width: 0.8"/>
      </g>
     </g>
     <g id="text_4">
      <!-- Jul 1 -->
      <g transform="translate(391.477523 490.718437) scale(0.1 -0.1)">
       <defs>
        <path id="DejaVuSans-75" d="M 544 1381 
L 544 3500 
L 1119 3500 
L 1119 1403 
Q 1119 906 1312 657 
Q 1506 409 1894 409 
Q 2359 409 2629 706 
Q 2900 1003 2900 1516 
L 2900 3500 
L 3475 3500 
L 3475 0 
L 2900 0 
L 2900 538 
Q 2691 219 2414 64 
Q 2138 -91 1772 -91 
Q 1169 -91 856 284 
Q 544 659 544 1381 
z
M 1991 3584 
L 1991 3584 
z
" transform="scale(0.015625)"/>
        <path id="DejaVuSans-6c" d="M 603 4863 
L 1178 4863 
L 1178 0 
L 603 0 
L 603 4863 
z
" transform="scale(0.015625)"/>
       </defs>
       <use xlink:href="#DejaVuSans-4a"/>
       <use xlink:href="#DejaVuSans-75" x="29.492188"/>
       <use xlink:href="#DejaVuSans-6c" x="92.871094"/>
       <use xlink:href="#DejaVuSans-20" x="120.654297"/>
       <use xlink:href="#DejaVuSans-31" x="152.441406"/>
      </g>
     </g>
    </g>
    <g id="xtick_5">
     <g id="line2d_9">
      <path d="M 502.963187 476.12 
L 502.963187 26.88 
" clip-path="url(#p79ea7b7c3a)" style="fill: none; stroke: #b0b0b0; stroke-width: 0.8; stroke-linecap: square"/>
     </g>
     <g id="line2d_10">
      <g>
       <use xlink:href="#ma79c930229" x="502.963187" y="476.12" style="stroke: #000000; stroke-width: 0.8"/>
      </g>
     </g>
     <g id="text_5">
      <!-- Sep 1 -->
      <g transform="translate(488.767874 490.718437) scale(0.1 -0.1)">
       <defs>
        <path id="DejaVuSans-53" d="M 3425 4513 
L 3425 3897 
Q 3066 4069 2747 4153 
Q 2428 4238 2131 4238 
Q 1616 4238 1336 4038 
Q 1056 3838 1056 3469 
Q 1056 3159 1242 3001 
Q 1428 2844 1947 2747 
L 2328 2669 
Q 3034 2534 3370 2195 
Q 3706 1856 3706 1288 
Q 3706 609 3251 259 
Q 2797 -91 1919 -91 
Q 1588 -91 1214 -16 
Q 841 59 441 206 
L 441 856 
Q 825 641 1194 531 
Q 1563 422 1919 422 
Q 2459 422 2753 634 
Q 3047 847 3047 1241 
Q 3047 1584 2836 1778 
Q 2625 1972 2144 2069 
L 1759 2144 
Q 1053 2284 737 2584 
Q 422 2884 422 3419 
Q 422 4038 858 4394 
Q 1294 4750 2059 4750 
Q 2388 4750 2728 4690 
Q 3069 4631 3425 4513 
z
" transform="scale(0.015625)"/>
        <path id="DejaVuSans-65" d="M 3597 1894 
L 3597 1613 
L 953 1613 
Q 991 1019 1311 708 
Q 1631 397 2203 397 
Q 2534 397 2845 478 
Q 3156 559 3463 722 
L 3463 178 
Q 3153 47 2828 -22 
Q 2503 -91 2169 -91 
Q 1331 -91 842 396 
Q 353 884 353 1716 
Q 353 2575 817 3079 
Q 1281 3584 2069 3584 
Q 2775 3584 3186 3129 
Q 3597 2675 3597 1894 
z
M 3022 2063 
Q 3016 2534 2758 2815 
Q 2500 3097 2075 3097 
Q 1594 3097 1305 2825 
Q 1016 2553 972 2059 
L 3022 2063 
z
" transform="scale(0.015625)"/>
        <path id="DejaVuSans-70" d="M 1159 525 
L 1159 -1331 
L 581 -1331 
L 581 3500 
L 1159 3500 
L 1159 2969 
Q 1341 3281 1617 3432 
Q 1894 3584 2278 3584 
Q 2916 3584 3314 3078 
Q 3713 2572 3713 1747 
Q 3713 922 3314 415 
Q 2916 -91 2278 -91 
Q 1894 -91 1617 61 
Q 1341 213 1159 525 
z
M 3116 1747 
Q 3116 2381 2855 2742 
Q 2594 3103 2138 3103 
Q 1681 3103 1420 2742 
Q 1159 2381 1159 1747 
Q 1159 1113 1420 752 
Q 1681 391 2138 391 
Q 2594 391 2855 752 
Q 3116 1113 3116 1747 
z
" transform="scale(0.015625)"/>
       </defs>
       <use xlink:href="#DejaVuSans-53"/>
       <use xlink:href="#DejaVuSans-65" x="63.476562"/>
       <use xlink:href="#DejaVuSans-70" x="125"/>
       <use xlink:href="#DejaVuSans-20" x="188.476562"/>
       <use xlink:href="#DejaVuSans-31" x="220.263672"/>
      </g>
     </g>
    </g>
    <g id="xtick_6">
     <g id="line2d_11">
      <path d="M 602.021813 476.12 
L 602.021813 26.88 
" clip-path="url(#p79ea7b7c3a)" style="fill: none; stroke: #b0b0b0; stroke-width: 0.8; stroke-linecap: square"/>
     </g>
     <g id="line2d_12">
      <g>
       <use xlink:href="#ma79c930229" x="602.021813" y="476.12" style="stroke: #000000; stroke-width: 0.8"/>
      </g>
     </g>
     <g id="text_6">
      <!-- Nov 1 -->
      <g transform="translate(587.492126 490.718437) scale(0.1 -0.1)">
       <defs>
        <path id="DejaVuSans-4e" d="M 628 4666 
L 1478 4666 
L 3547 763 
L 3547 4666 
L 4159 4666 
L 4159 0 
L 3309 0 
L 1241 3903 
L 1241 0 
L 628 0 
L 628 4666 
z
" transform="scale(0.015625)"/>
        <path id="DejaVuSans-6f" d="M 1959 3097 
Q 1497 3097 1228 2736 
Q 959 2375 959 1747 
Q 959 1119 1226 758 
Q 1494 397 1959 397 
Q 2419 397 2687 759 
Q 2956 1122 2956 1747 
Q 2956 2369 2687 2733 
Q 2419 3097 1959 3097 
z
M 1959 3584 
Q 2709 3584 3137 3096 
Q 3566 2609 3566 1747 
Q 3566 888 3137 398 
Q 2709 -91 1959 -91 
Q 1206 -91 779 398 
Q 353 888 353 1747 
Q 353 2609 779 3096 
Q 1206 3584 1959 3584 
z
" transform="scale(0.015625)"/>
        <path id="DejaVuSans-76" d="M 191 3500 
L 800 3500 
L 1894 563 
L 2988 3500 
L 3597 3500 
L 2284 0 
L 1503 0 
L 191 3500 
z
" transform="scale(0.015625)"/>
       </defs>
       <use xlink:href="#DejaVuSans-4e"/>
       <use xlink:href="#DejaVuSans-6f" x="74.804688"/>
       <use xlink:href="#DejaVuSans-76" x="135.986328"/>
       <use xlink:href="#DejaVuSans-20" x="195.166016"/>
       <use xlink:href="#DejaVuSans-31" x="226.953125"/>
      </g>
     </g>
    </g>
   </g>
   <g id="matplotlib.axis_2">
    <g id="ytick_1">
     <g id="line2d_13">
      <path d="M 82.37 455.7 
L 709.2 455.7 
" clip-path="url(#p79ea7b7c3a)" style="fill: none; stroke: #b0b0b0; stroke-width: 0.8; stroke-linecap: square"/>
     </g>
     <g id="line2d_14">
      <defs>
       <path id="mf6c532d878" d="M 0 0 
L -3.5 0 
" style="stroke: #000000; stroke-width: 0.8"/>
      </defs>
      <g>
       <use xlink:href="#mf6c532d878" x="82.37" y="455.7" style="stroke: #000000; stroke-width: 0.8"/>
      </g>
     </g>
     <g id="text_7">
      <!-- 0 -->
      <g transform="translate(69.0075 459.499219) scale(0.1 -0.1)">
       <defs>
        <path id="DejaVuSans-30" d="M 2034 4250 
Q 1547 4250 1301 3770 
Q 1056 3291 1056 2328 
Q 1056 1369 1301 889 
Q 1547 409 2034 409 
Q 2525 409 2770 889 
Q 3016 1369 3016 2328 
Q 3016 3291 2770 3770 
Q 2525 4250 2034 4250 
z
M 2034 4750 
Q 2819 4750 3233 4129 
Q 3647 3509 3647 2328 
Q 3647 1150 3233 529 
Q 2819 -91 2034 -91 
Q 1250 -91 836 529 
Q 422 1150 422 2328 
Q 422 3509 836 4129 
Q 1250 4750 2034 4750 
z
" transform="scale(0.015625)"/>
       </defs>
       <use xlink:href="#DejaVuSans-30"/>
      </g>
     </g>
    </g>
    <g id="ytick_2">
     <g id="line2d_15">
      <path d="M 82.37 402.761142 
L 709.2 402.761142 
" clip-path="url(#p79ea7b7c3a)" style="fill: none; stroke: #b0b0b0; stroke-width: 0.8; stroke-linecap: square"/>
     </g>
     <g id="line2d_16">
      <g>
       <use xlink:href="#mf6c532d878" x="82.37" y="402.761142" style="stroke: #000000; stroke-width: 0.8"/>
      </g>
     </g>
     <g id="text_8">
      <!-- 250,000 -->
      <g transform="translate(34.016875 406.56036) scale(0.1 -0.1)">
       <defs>
        <path id="DejaVuSans-32" d="M 1228 531 
L 3431 531 
L 3431 0 
L 469 0 
L 469 531 
Q 828 903 1448 1529 
Q 2069 2156 2228 2338 
Q 2531 2678 2651 2914 
Q 2772 3150 2772 3378 
Q 2772 3750 2511 3984 
Q 2250 4219 1831 4219 
Q 1534 4219 1204 4116 
Q 875 4013 500 3803 
L 500 4441 
Q 881 4594 1212 4672 
Q 1544 4750 1819 4750 
Q 2544 4750 2975 4387 
Q 3406 4025 3406 3419 
Q 3406 3131 3298 2873 
Q 3191 2616 2906 2266 
Q 2828 2175 2409 1742 
Q 1991 1309 1228 531 
z
" transform="scale(0.015625)"/>
        <path id="DejaVuSans-35" d="M 691 4666 
L 3169 4666 
L 3169 4134 
L 1269 4134 
L 1269 2991 
Q 1406 3038 1543 3061 
Q 1681 3084 1819 3084 
Q 2600 3084 3056 2656 
Q 3513 2228 3513 1497 
Q 3513 744 3044 326 
Q 2575 -91 1722 -91 
Q 1428 -91 1123 -41 
Q 819 9 494 109 
L 494 744 
Q 775 591 1075 516 
Q 1375 441 1709 441 
Q 2250 441 2565 725 
Q 2881 1009 2881 1497 
Q 2881 1984 2565 2268 
Q 2250 2553 1709 2553 
Q 1456 2553 1204 2497 
Q 953 2441 691 2322 
L 691 4666 
z
" transform="scale(0.015625)"/>
        <path id="DejaVuSans-2c" d="M 750 794 
L 1409 794 
L 1409 256 
L 897 -744 
L 494 -744 
L 750 256 
L 750 794 
z
" transform="scale(0.015625)"/>
       </defs>
       <use xlink:href="#DejaVuSans-32"/>
       <use xlink:href="#DejaVuSans-35" x="63.623047"/>
       <use xlink:href="#DejaVuSans-30" x="127.246094"/>
       <use xlink:href="#DejaVuSans-2c" x="190.869141"/>
       <use xlink:href="#DejaVuSans-30" x="222.65625"/>
       <use xlink:href="#DejaVuSans-30" x="286.279297"/>
       <use xlink:href="#DejaVuSans-30" x="349.902344"/>
      </g>
     </g>
    </g>
    <g id="ytick_3">
     <g id="line2d_17">
      <path d="M 82.37 349.822283 
L 709.2 349.822283 
" clip-path="url(#p79ea7b7c3a)" style="fill: none; stroke: #b0b0b0; stroke-width: 0.8; stroke-linecap: square"/>
     </g>
     <g id="line2d_18">
      <g>
       <use xlink:href="#mf6c532d878" x="82.37" y="349.822283" style="stroke: #000000; stroke-width: 0.8"/>
      </g>
     </g>
     <g id="text_9">
      <!-- 500,000 -->
      <g transform="translate(34.016875 353.621502) scale(0.1 -0.1)">
       <use xlink:href="#DejaVuSans-35"/>
       <use xlink:href="#DejaVuSans-30" x="63.623047"/>
       <use xlink:href="#DejaVuSans-30" x="127.246094"/>
       <use xlink:href="#DejaVuSans-2c" x="190.869141"/>
       <use xlink:href="#DejaVuSans-30" x="222.65625"/>
       <use xlink:href="#DejaVuSans-30" x="286.279297"/>
       <use xlink:href="#DejaVuSans-30" x="349.902344"/>
      </g>
     </g>
    </g>
    <g id="ytick_4">
     <g id="line2d_19">
      <path d="M 82.37 296.883425 
L 709.2 296.883425 
" clip-path="url(#p79ea7b7c3a)" style="fill: none; stroke: #b0b0b0; stroke-width: 0.8; stroke-linecap: square"/>
     </g>
     <g id="line2d_20">
      <g>
       <use xlink:href="#mf6c532d878" x="82.37" y="296.883425" style="stroke: #000000; stroke-width: 0.8"/>
      </g>
     </g>
     <g id="text_10">
      <!-- 750,000 -->
      <g transform="translate(34.016875 300.682643) scale(0.1 -0.1)">
       <defs>
        <path id="DejaVuSans-37" d="M 525 4666 
L 3525 4666 
L 3525 4397 
L 1831 0 
L 1172 0 
L 2766 4134 
L 525 4134 
L 525 4666 
z
" transform="scale(0.015625)"/>
       </defs>
       <use xlink:href="#DejaVuSans-37"/>
       <use xlink:href="#DejaVuSans-35" x="63.623047"/>
       <use xlink:href="#DejaVuSans-30" x="127.246094"/>
       <use xlink:href="#DejaVuSans-2c" x="190.869141"/>
       <use xlink:href="#DejaVuSans-30" x="222.65625"/>
       <use xlink:href="#DejaVuSans-30" x="286.279297"/>
       <use xlink:href="#DejaVuSans-30" x="349.902344"/>
      </g>
     </g>
    </g>
    <g id="ytick_5">
     <g id="line2d_21">
      <path d="M 82.37 243.944566 
L 709.2 243.944566 
" clip-path="url(#p79ea7b7c3a)" style="fill: none; stroke: #b0b0b0; stroke-width: 0.8; stroke-linecap: square"/>
     </g>
     <g id="line2d_22">
      <g>
       <use xlink:href="#mf6c532d878" x="82.37" y="243.944566" style="stroke: #000000; stroke-width: 0.8"/>
      </g>
     </g>
     <g id="text_11">
      <!-- 1,000,000 -->
      <g transform="translate(24.47625 247.743785) scale(0.1 -0.1)">
       <use xlink:href="#DejaVuSans-31"/>
       <use xlink:href="#DejaVuSans-2c" x="63.623047"/>
       <use xlink:href="#DejaVuSans-30" x="95.410156"/>
       <use xlink:href="#DejaVuSans-30" x="159.033203"/>
       <use xlink:href="#DejaVuSans-30" x="222.65625"/>
       <use xlink:href="#DejaVuSans-2c" x="286.279297"/>
       <use xlink:href="#DejaVuSans-30" x="318.066406"/>
       <use xlink:href="#DejaVuSans-30" x="381.689453"/>
       <use xlink:href="#DejaVuSans-30" x="445.3125"/>
      </g>
     </g>
    </g>
    <g id="ytick_6">
     <g id="line2d_23">
      <path d="M 82.37 191.005708 
L 709.2 191.005708 
" clip-path="url(#p79ea7b7c3a)" style="fill: none; stroke: #b0b0b0; stroke-width: 0.8; stroke-linecap: square"/>
     </g>
     <g id="line2d_24">
      <g>
       <use xlink:href="#mf6c532d878" x="82.37" y="191.005708" style="stroke: #000000; stroke-width: 0.8"/>
      </g>
     </g>
     <g id="text_12">
      <!-- 1,250,000 -->
      <g transform="translate(24.47625 194.804926) scale(0.1 -0.1)">
       <use xlink:href="#DejaVuSans-31"/>
       <use xlink:href="#DejaVuSans-2c" x="63.623047"/>
       <use xlink:href="#DejaVuSans-32" x="95.410156"/>
       <use xlink:href="#DejaVuSans-35" x="159.033203"/>
       <use xlink:href="#DejaVuSans-30" x="222.65625"/>
       <use xlink:href="#DejaVuSans-2c" x="286.279297"/>
       <use xlink:href="#DejaVuSans-30" x="318.066406"/>
       <use xlink:href="#DejaVuSans-30" x="381.689453"/>
       <use xlink:href="#DejaVuSans-30" x="445.3125"/>
      </g>
     </g>
    </g>
    <g id="ytick_7">
     <g id="line2d_25">
      <path d="M 82.37 138.066849 
L 709.2 138.066849 
" clip-path="url(#p79ea7b7c3a)" style="fill: none; stroke: #b0b0b0; stroke-width: 0.8; stroke-linecap: square"/>
     </g>
     <g id="line2d_26">
      <g>
       <use xlink:href="#mf6c532d878" x="82.37" y="138.066849" style="stroke: #000000; stroke-width: 0.8"/>
      </g>
     </g>
     <g id="text_13">
      <!-- 1,500,000 -->
      <g transform="translate(24.47625 141.866068) scale(0.1 -0.1)">
       <use xlink:href="#DejaVuSans-31"/>
       <use xlink:href="#DejaVuSans-2c" x="63.623047"/>
       <use xlink:href="#DejaVuSans-35" x="95.410156"/>
       <use xlink:href="#DejaVuSans-30" x="159.033203"/>
       <use xlink:href="#DejaVuSans-30" x="222.65625"/>
       <use xlink:href="#DejaVuSans-2c" x="286.279297"/>
       <use xlink:href="#DejaVuSans-30" x="318.066406"/>
       <use xlink:href="#DejaVuSans-30" x="381.689453"/>
       <use xlink:href="#DejaVuSans-30" x="445.3125"/>
      </g>
     </g>
    </g>
    <g id="ytick_8">
     <g id="line2d_27">
      <path d="M 82.37 85.127991 
L 709.2 85.127991 
" clip-path="url(#p79ea7b7c3a)" style="fill: none; stroke: #b0b0b0; stroke-width: 0.8; stroke-linecap: square"/>
     </g>
     <g id="line2d_28">
      <g>
       <use xlink:href="#mf6c532d878" x="82.37" y="85.127991" style="stroke: #000000; stroke-width: 0.8"/>
      </g>
     </g>
     <g id="text_14">
      <!-- 1,750,000 -->
      <g transform="translate(24.47625 88.927209) scale(0.1 -0.1)">
       <use xlink:href="#DejaVuSans-31"/>
       <use xlink:href="#DejaVuSans-2c" x="63.623047"/>
       <use xlink:href="#DejaVuSans-37" x="95.410156"/>
       <use xlink:href="#DejaVuSans-35" x="159.033203"/>
       <use xlink:href="#DejaVuSans-30" x="222.65625"/>
       <use xlink:href="#DejaVuSans-2c" x="286.279297"/>
       <use xlink:href="#DejaVuSans-30" x="318.066406"/>
       <use xlink:href="#DejaVuSans-30" x="381.689453"/>
       <use xlink:href="#DejaVuSans-30" x="445.3125"/>
      </g>
     </g>
    </g>
    <g id="ytick_9">
     <g id="line2d_29">
      <path d="M 82.37 32.189132 
L 709.2 32.189132 
" clip-path="url(#p79ea7b7c3a)" style="fill: none; stroke: #b0b0b0; stroke-width: 0.8; stroke-linecap: square"/>
     </g>
     <g id="line2d_30">
      <g>
       <use xlink:href="#mf6c532d878" x="82.37" y="32.189132" style="stroke: #000000; stroke-width: 0.8"/>
      </g>
     </g>
     <g id="text_15">
      <!-- 2,000,000 -->
      <g transform="translate(24.47625 35.988351) scale(0.1 -0.1)">
       <use xlink:href="#DejaVuSans-32"/>
       <use xlink:href="#DejaVuSans-2c" x="63.623047"/>
       <use xlink:href="#DejaVuSans-30" x="95.410156"/>
       <use xlink:href="#DejaVuSans-30" x="159.033203"/>
       <use xlink:href="#DejaVuSans-30" x="222.65625"/>
       <use xlink:href="#DejaVuSans-2c" x="286.279297"/>
       <use xlink:href="#DejaVuSans-30" x="318.066406"/>
       <use xlink:href="#DejaVuSans-30" x="381.689453"/>
       <use xlink:href="#DejaVuSans-30" x="445.3125"/>
      </g>
     </g>
    </g>
    <g id="text_16">
     <!-- Cumulative Payload Mass (kg) -->
     <g transform="translate(18.396562 326.863281) rotate(-90) scale(0.1 -0.1)">
      <defs>
       <path id="DejaVuSans-43" d="M 4122 4306 
L 4122 3641 
Q 3803 3938 3442 4084 
Q 3081 4231 2675 4231 
Q 1875 4231 1450 3742 
Q 1025 3253 1025 2328 
Q 1025 1406 1450 917 
Q 1875 428 2675 428 
Q 3081 428 3442 575 
Q 3803 722 4122 1019 
L 4122 359 
Q 3791 134 3420 21 
Q 3050 -91 2638 -91 
Q 1578 -91 968 557 
Q 359 1206 359 2328 
Q 359 3453 968 4101 
Q 1578 4750 2638 4750 
Q 3056 4750 3426 4639 
Q 3797 4528 4122 4306 
z
" transform="scale(0.015625)"/>
       <path id="DejaVuSans-6d" d="M 3328 2828 
Q 3544 3216 3844 3400 
Q 4144 3584 4550 3584 
Q 5097 3584 5394 3201 
Q 5691 2819 5691 2113 
L 5691 0 
L 5113 0 
L 5113 2094 
Q 5113 2597 4934 2840 
Q 4756 3084 4391 3084 
Q 3944 3084 3684 2787 
Q 3425 2491 3425 1978 
L 3425 0 
L 2847 0 
L 2847 2094 
Q 2847 2600 2669 2842 
Q 2491 3084 2119 3084 
Q 1678 3084 1418 2786 
Q 1159 2488 1159 1978 
L 1159 0 
L 581 0 
L 581 3500 
L 1159 3500 
L 1159 2956 
Q 1356 3278 1631 3431 
Q 1906 3584 2284 3584 
Q 2666 3584 2933 3390 
Q 3200 3197 3328 2828 
z
" transform="scale(0.015625)"/>
       <path id="DejaVuSans-74" d="M 1172 4494 
L 1172 3500 
L 2356 3500 
L 2356 3053 
L 1172 3053 
L 1172 1153 
Q 1172 725 1289 603 
Q 1406 481 1766 481 
L 2356 481 
L 2356 0 
L 1766 0 
Q 1100 0 847 248 
Q 594 497 594 1153 
L 594 3053 
L 172 3053 
L 172 3500 
L 594 3500 
L 594 4494 
L 1172 4494 
z
" transform="scale(0.015625)"/>
       <path id="DejaVuSans-69" d="M 603 3500 
L 1178 3500 
L 1178 0 
L 603 0 
L 603 3500 
z
M 603 4863 
L 1178 4863 
L 1178 4134 
L 603 4134 
L 603 4863 
z
" transform="scale(0.015625)"/>
       <path id="DejaVuSans-50" d="M 1259 4147 
L 1259 2394 
L 2053 2394 
Q 2494 2394 2734 2622 
Q 2975 2850 2975 3272 
Q 2975 3691 2734 3919 
Q 2494 4147 2053 4147 
L 1259 4147 
z
M 628 4666 
L 2053 4666 
Q 2838 4666 3239 4311 
Q 3641 3956 3641 3272 
Q 3641 2581 3239 2228 
Q 2838 1875 2053 1875 
L 1259 1875 
L 1259 0 
L 628 0 
L 628 4666 
z
" transform="scale(0.015625)"/>
       <path id="DejaVuSans-64" d="M 2906 2969 
L 2906 4863 
L 3481 4863 
L 3481 0 
L 2906 0 
L 2906 525 
Q 2725 213 2448 61 
Q 2172 -91 1784 -91 
Q 1150 -91 751 415 
Q 353 922 353 1747 
Q 353 2572 751 3078 
Q 1150 3584 1784 3584 
Q 2172 3584 2448 3432 
Q 2725 3281 2906 2969 
z
M 947 1747 
Q 947 1113 1208 752 
Q 1469 391 1925 391 
Q 2381 391 2643 752 
Q 2906 1113 2906 1747 
Q 2906 2381 2643 2742 
Q 2381 3103 1925 3103 
Q 1469 3103 1208 2742 
Q 947 2381 947 1747 
z
" transform="scale(0.015625)"/>
       <path id="DejaVuSans-73" d="M 2834 3397 
L 2834 2853 
Q 2591 2978 2328 3040 
Q 2066 3103 1784 3103 
Q 1356 3103 1142 2972 
Q 928 2841 928 2578 
Q 928 2378 1081 2264 
Q 1234 2150 1697 2047 
L 1894 2003 
Q 2506 1872 2764 1633 
Q 3022 1394 3022 966 
Q 3022 478 2636 193 
Q 2250 -91 1575 -91 
Q 1294 -91 989 -36 
Q 684 19 347 128 
L 347 722 
Q 666 556 975 473 
Q 1284 391 1588 391 
Q 1994 391 2212 530 
Q 2431 669 2431 922 
Q 2431 1156 2273 1281 
Q 2116 1406 1581 1522 
L 1381 1569 
Q 847 1681 609 1914 
Q 372 2147 372 2553 
Q 372 3047 722 3315 
Q 1072 3584 1716 3584 
Q 2034 3584 2315 3537 
Q 2597 3491 2834 3397 
z
" transform="scale(0.015625)"/>
       <path id="DejaVuSans-28" d="M 1984 4856 
Q 1566 4138 1362 3434 
Q 1159 2731 1159 2009 
Q 1159 1288 1364 580 
Q 1569 -128 1984 -844 
L 1484 -844 
Q 1016 -109 783 600 
Q 550 1309 550 2009 
Q 550 2706 781 3412 
Q 1013 4119 1484 4856 
L 1984 4856 
z
" transform="scale(0.015625)"/>
       <path id="DejaVuSans-6b" d="M 581 4863 
L 1159 4863 
L 1159 1991 
L 2875 3500 
L 3609 3500 
L 1753 1863 
L 3688 0 
L 2938 0 
L 1159 1709 
L 1159 0 
L 581 0 
L 581 4863 
z
" transform="scale(0.015625)"/>
       <path id="DejaVuSans-67" d="M 2906 1791 
Q 2906 2416 2648 2759 
Q 2391 3103 1925 3103 
Q 1463 3103 1205 2759 
Q 947 2416 947 1791 
Q 947 1169 1205 825 
Q 1463 481 1925 481 
Q 2391 481 2648 825 
Q 2906 1169 2906 1791 
z
M 3481 434 
Q 3481 -459 3084 -895 
Q 2688 -1331 1869 -1331 
Q 1566 -1331 1297 -1286 
Q 1028 -1241 775 -1147 
L 775 -588 
Q 1028 -725 1275 -790 
Q 1522 -856 1778 -856 
Q 2344 -856 2625 -561 
Q 2906 -266 2906 331 
L 2906 616 
Q 2728 306 2450 153 
Q 2172 0 1784 0 
Q 1141 0 747 490 
Q 353 981 353 1791 
Q 353 2603 747 3093 
Q 1141 3584 1784 3584 
Q 2172 3584 2450 3431 
Q 2728 3278 2906 2969 
L 2906 3500 
L 3481 3500 
L 3481 434 
z
" transform="scale(0.015625)"/>
       <path id="DejaVuSans-29" d="M 513 4856 
L 1013 4856 
Q 1481 4119 1714 3412 
Q 1947 2706 1947 2009 
Q 1947 1309 1714 600 
Q 1481 -109 1013 -844 
L 513 -844 
Q 928 -128 1133 580 
Q 1338 1288 1338 2009 
Q 1338 2731 1133 3434 
Q 928 4138 513 4856 
z
" transform="scale(0.015625)"/>
      </defs>
      <use xlink:href="#DejaVuSans-43"/>
      <use xlink:href="#DejaVuSans-75" x="69.824219"/>
      <use xlink:href="#DejaVuSans-6d" x="133.203125"/>
      <use xlink:href="#DejaVuSans-75" x="230.615234"/>
      <use xlink:href="#DejaVuSans-6c" x="293.994141"/>
      <use xlink:href="#DejaVuSans-61" x="321.777344"/>
      <use xlink:href="#DejaVuSans-74" x="383.056641"/>
      <use xlink:href="#DejaVuSans-69" x="422.265625"/>
      <use xlink:href="#DejaVuSans-76" x="450.048828"/>
      <use xlink:href="#DejaVuSans-65" x="509.228516"/>
      <use xlink:href="#DejaVuSans-20" x="570.751953"/>
      <use xlink:href="#DejaVuSans-50" x="602.539062"/>
      <use xlink:href="#DejaVuSans-61" x="658.341797"/>
      <use xlink:href="#DejaVuSans-79" x="719.621094"/>
      <use xlink:href="#DejaVuSans-6c" x="778.800781"/>
      <use xlink:href="#DejaVuSans-6f" x="806.583984"/>
      <use xlink:href="#DejaVuSans-61" x="867.765625"/>
      <use xlink:href="#DejaVuSans-64" x="929.044922"/>
      <use xlink:href="#DejaVuSans-20" x="992.521484"/>
      <use xlink:href="#DejaVuSans-4d" x="1024.308594"/>
      <use xlink:href="#DejaVuSans-61" x="1110.587891"/>
      <use xlink:href="#DejaVuSans-73" x="1171.867188"/>
      <use xlink:href="#DejaVuSans-73" x="1223.966797"/>
      <use xlink:href="#DejaVuSans-20" x="1276.066406"/>
      <use xlink:href="#DejaVuSans-28" x="1307.853516"/>
      <use xlink:href="#DejaVuSans-6b" x="1346.867188"/>
      <use xlink:href="#DejaVuSans-67" x="1404.777344"/>
      <use xlink:href="#DejaVuSans-29" x="1468.253906"/>
     </g>
    </g>
   </g>
   <g id="line2d_31">
    <path d="M 106.728679 455.7 
L 127.839534 455.7 
L 127.839534 453.667148 
L 186.300363 453.667148 
L 186.300363 453.139877 
L 226.898161 453.139877 
L 226.898161 451.954046 
L 249.632927 451.954046 
L 249.632927 450.831743 
L 301.598109 450.831743 
L 301.598109 450.831743 
L 324.332876 450.831743 
L 324.332876 449.546387 
L 355.187202 449.546387 
L 355.187202 448.972953 
L 387.66544 448.972953 
L 387.66544 448.196023 
L 390.913264 448.196023 
L 390.913264 446.163171 
L 407.152383 446.163171 
L 407.152383 444.731492 
L 472.10886 444.731492 
L 472.10886 444.030582 
L 488.347979 444.030582 
L 488.347979 443.929998 
L 511.082746 443.929998 
L 511.082746 442.873338 
L 563.047927 442.873338 
L 563.047927 440.840486 
L 566.295751 440.840486 
L 566.295751 439.697007 
L 597.150078 439.697007 
L 597.150078 438.955863 
L 671.850026 438.955863 
L 671.850026 438.488942 
L 684.841321 438.488942 
L 684.841321 436.45609 
L 697.832617 436.45609 
L 697.832617 436.45609 
" clip-path="url(#p79ea7b7c3a)" style="fill: none; stroke: #808080; stroke-width: 1.5; stroke-linecap: square"/>
   </g>
   <g id="line2d_32">
    <path d="M 106.728679 455.7 
L 118.096062 455.7 
L 118.096062 455.7 
L 155.446036 455.7 
L 155.446036 454.804275 
L 165.189508 454.804275 
L 165.189508 454.53958 
L 191.172098 454.53958 
L 191.172098 454.084306 
L 210.659041 454.084306 
L 210.659041 452.794292 
L 249.632927 452.794292 
L 249.632927 450.76144 
L 254.504663 450.76144 
L 254.504663 450.200923 
L 280.487254 450.200923 
L 280.487254 450.124268 
L 317.837228 450.124268 
L 317.837228 449.361948 
L 335.700259 449.361948 
L 335.700259 447.994008 
L 356.811114 447.994008 
L 356.811114 446.853917 
L 397.408912 446.853917 
L 397.408912 446.282812 
L 434.758886 446.282812 
L 434.758886 444.784643 
L 439.630622 444.784643 
L 439.630622 442.75179 
L 460.741477 442.75179 
L 460.741477 441.523609 
L 515.954482 441.523609 
L 515.954482 440.028616 
L 561.424016 440.028616 
L 561.424016 439.393349 
L 623.132668 439.393349 
L 623.132668 438.271046 
L 652.363083 438.271046 
L 652.363083 437.424024 
L 655.610907 437.424024 
L 655.610907 436.894635 
L 684.841321 436.894635 
L 684.841321 435.962911 
L 697.832617 435.962911 
L 697.832617 435.962911 
" clip-path="url(#p79ea7b7c3a)" style="fill: none; stroke: #90ee90; stroke-width: 1.5; stroke-linecap: square"/>
   </g>
   <g id="line2d_33">
    <path d="M 106.728679 455.7 
L 122.967798 455.7 
L 122.967798 453.667148 
L 191.172098 453.667148 
L 191.172098 452.640134 
L 204.163394 452.640134 
L 204.163394 450.087422 
L 269.11987 450.087422 
L 269.11987 448.718423 
L 306.469845 448.718423 
L 306.469845 448.190094 
L 338.948083 448.190094 
L 338.948083 445.305985 
L 369.802409 445.305985 
L 369.802409 444.416612 
L 390.913264 444.416612 
L 390.913264 443.633117 
L 439.630622 443.633117 
L 439.630622 443.152855 
L 459.117565 443.152855 
L 459.117565 441.776445 
L 616.637021 441.776445 
L 616.637021 438.47306 
L 655.610907 438.47306 
L 655.610907 437.918896 
L 675.09785 437.918896 
L 675.09785 436.445925 
L 697.832617 436.445925 
L 697.832617 436.445925 
" clip-path="url(#p79ea7b7c3a)" style="fill: none; stroke: #add8e6; stroke-width: 1.5; stroke-linecap: square"/>
   </g>
   <g id="line2d_34">
    <path d="M 106.728679 455.7 
L 116.47215 455.7 
L 116.47215 452.396615 
L 135.959093 452.396615 
L 135.959093 449.844962 
L 152.198212 449.844962 
L 152.198212 446.541577 
L 183.052539 446.541577 
L 183.052539 443.238193 
L 213.906865 443.238193 
L 213.906865 442.819552 
L 231.769896 442.819552 
L 231.769896 439.516167 
L 288.606813 439.516167 
L 288.606813 436.212783 
L 350.315466 436.212783 
L 350.315466 433.559487 
L 358.435026 433.559487 
L 358.435026 430.256102 
L 373.050233 430.256102 
L 373.050233 426.992951 
L 400.656736 426.992951 
L 400.656736 426.080073 
L 433.134974 426.080073 
L 433.134974 424.915419 
L 462.365389 424.915419 
L 462.365389 421.753486 
L 480.22842 421.753486 
L 480.22842 418.483982 
L 499.715363 418.483982 
L 499.715363 417.821188 
L 506.21101 417.821188 
L 506.21101 414.517803 
L 559.800104 414.517803 
L 559.800104 411.214418 
L 579.287047 411.214418 
L 579.287047 407.911034 
L 589.030518 407.911034 
L 589.030518 404.607649 
L 608.517461 404.607649 
L 608.517461 403.694771 
L 626.380492 403.694771 
L 626.380492 401.047828 
L 634.500052 401.047828 
L 634.500052 400.795416 
L 640.995699 400.795416 
L 640.995699 397.492031 
L 658.858731 397.492031 
L 658.858731 396.862694 
L 670.226114 396.862694 
L 670.226114 395.380406 
L 679.969585 395.380406 
L 679.969585 395.380406 
L 699.456528 395.380406 
L 699.456528 395.380406 
" clip-path="url(#p79ea7b7c3a)" style="fill: none; stroke: #ffc0cb; stroke-width: 1.5; stroke-linecap: square"/>
   </g>
   <g id="line2d_35">
    <path d="M 106.728679 455.7 
L 118.096062 455.7 
L 118.096062 454.958856 
L 137.583005 454.958856 
L 137.583005 451.655471 
L 144.078653 451.655471 
L 144.078653 450.596694 
L 161.941684 450.596694 
L 161.941684 447.293309 
L 181.428627 447.293309 
L 181.428627 443.989925 
L 207.411218 443.989925 
L 207.411218 440.68654 
L 218.778601 440.68654 
L 218.778601 437.383155 
L 223.650337 437.383155 
L 223.650337 434.07977 
L 239.889456 434.07977 
L 239.889456 430.776385 
L 262.624223 430.776385 
L 262.624223 427.473001 
L 288.606813 427.473001 
L 288.606813 424.72018 
L 298.350285 424.72018 
L 298.350285 421.416795 
L 306.469845 421.416795 
L 306.469845 418.11341 
L 314.589404 418.11341 
L 314.589404 414.810026 
L 324.332876 414.810026 
L 324.332876 411.540522 
L 342.195907 411.540522 
L 342.195907 408.237137 
L 355.187202 408.237137 
L 355.187202 407.532415 
L 360.058938 407.532415 
L 360.058938 406.050127 
L 377.921969 406.050127 
L 377.921969 405.133014 
L 399.032824 405.133014 
L 399.032824 405.133014 
L 496.467539 405.133014 
L 496.467539 404.667152 
L 522.45013 404.667152 
L 522.45013 401.859275 
L 525.697953 401.859275 
L 525.697953 399.208309 
L 616.637021 399.208309 
L 616.637021 396.455488 
L 619.884845 396.455488 
L 619.884845 393.144692 
L 637.747876 393.144692 
L 637.747876 393.012557 
L 650.739171 393.012557 
L 650.739171 389.942103 
L 662.106554 389.942103 
L 662.106554 389.873282 
L 676.721762 389.873282 
L 676.721762 386.569898 
L 678.345674 386.569898 
L 678.345674 385.616998 
L 681.593497 385.616998 
L 681.593497 384.984061 
L 697.832617 384.984061 
L 697.832617 384.984061 
" clip-path="url(#p79ea7b7c3a)" style="fill: none; stroke: #800080; stroke-width: 1.5; stroke-linecap: square"/>
   </g>
   <g id="line2d_36">
    <path d="M 106.728679 455.7 
L 114.848238 455.7 
L 114.848238 452.629546 
L 126.215622 452.629546 
L 126.215622 452.629546 
L 135.959093 452.629546 
L 135.959093 449.559092 
L 155.446036 449.559092 
L 155.446036 449.092172 
L 158.69386 449.092172 
L 158.69386 449.092172 
L 160.317772 449.092172 
L 160.317772 446.021718 
L 189.548187 446.021718 
L 189.548187 443.141844 
L 196.043834 443.141844 
L 196.043834 440.018451 
L 205.787306 440.018451 
L 205.787306 437.075051 
L 215.530777 437.075051 
L 215.530777 434.076594 
L 231.769896 434.076594 
L 231.769896 430.635568 
L 252.880751 430.635568 
L 252.880751 430.635568 
L 264.248135 430.635568 
L 264.248135 427.882747 
L 278.863342 427.882747 
L 278.863342 427.882747 
L 285.35899 427.882747 
L 285.35899 424.441722 
L 295.102461 424.441722 
L 295.102461 421.688901 
L 298.350285 421.688901 
L 298.350285 418.247875 
L 309.717668 418.247875 
L 309.717668 414.806849 
L 321.085052 414.806849 
L 321.085052 411.365824 
L 322.708964 411.365824 
L 322.708964 407.924798 
L 329.204611 407.924798 
L 329.204611 404.483772 
L 340.571995 404.483772 
L 340.571995 404.483772 
L 363.306762 404.483772 
L 363.306762 403.615575 
L 377.921969 403.615575 
L 377.921969 400.174549 
L 379.545881 400.174549 
L 379.545881 399.327527 
L 381.169793 399.327527 
L 381.169793 399.179298 
L 397.408912 399.179298 
L 397.408912 398.438154 
L 410.400207 398.438154 
L 410.400207 394.997129 
L 416.895855 394.997129 
L 416.895855 392.011377 
L 423.391503 392.011377 
L 423.391503 391.446413 
L 426.639326 391.446413 
L 426.639326 388.005388 
L 434.758886 388.005388 
L 434.758886 385.019636 
L 438.00671 385.019636 
L 438.00671 381.57861 
L 455.869741 381.57861 
L 455.869741 381.434828 
L 465.613212 381.434828 
L 465.613212 378.046741 
L 468.861036 378.046741 
L 468.861036 375.06099 
L 480.22842 375.06099 
L 480.22842 371.619964 
L 494.843627 371.619964 
L 494.843627 368.083648 
L 499.715363 368.083648 
L 499.715363 365.076721 
L 507.834922 365.076721 
L 507.834922 361.688634 
L 517.578394 361.688634 
L 517.578394 359.160698 
L 530.569689 359.160698 
L 530.569689 355.624382 
L 538.689249 355.624382 
L 538.689249 352.215119 
L 556.55228 352.215119 
L 556.55228 349.462299 
L 556.55228 349.462299 
L 556.55228 346.053036 
L 561.424016 346.053036 
L 561.424016 344.496634 
L 572.791399 344.496634 
L 572.791399 343.543734 
L 580.910959 343.543734 
L 580.910959 340.007419 
L 593.902254 340.007419 
L 593.902254 336.53463 
L 600.397902 336.53463 
L 600.397902 335.740547 
L 603.645725 335.740547 
L 603.645725 334.787647 
L 618.260933 334.787647 
L 618.260933 333.390061 
L 636.123964 333.390061 
L 636.123964 332.225407 
L 640.995699 332.225407 
L 640.995699 331.478333 
L 660.482642 331.478333 
L 660.482642 330.207801 
L 665.354378 330.207801 
L 665.354378 329.996045 
L 673.473938 329.996045 
L 673.473938 329.530183 
L 673.473938 329.530183 
L 673.473938 328.661986 
L 675.09785 328.661986 
L 675.09785 325.12567 
L 692.960881 325.12567 
L 692.960881 321.589355 
L 696.208705 321.589355 
L 696.208705 321.504652 
L 697.832617 321.504652 
L 697.832617 321.504652 
" clip-path="url(#p79ea7b7c3a)" style="fill: none; stroke: #ffa500; stroke-width: 1.5; stroke-linecap: square"/>
   </g>
   <g id="line2d_37">
    <path d="M 106.728679 455.7 
L 121.343886 455.7 
L 121.343886 454.429467 
L 129.463446 454.429467 
L 129.463446 453.635385 
L 134.335181 453.635385 
L 134.335181 452.713825 
L 135.959093 452.713825 
L 135.959093 449.537493 
L 147.326477 449.537493 
L 147.326477 445.852949 
L 155.446036 445.852949 
L 155.446036 442.634266 
L 158.69386 442.634266 
L 158.69386 439.140302 
L 166.81342 439.140302 
L 166.81342 438.262364 
L 174.932979 438.262364 
L 174.932979 434.641346 
L 183.052539 434.641346 
L 183.052539 431.274434 
L 184.676451 431.274434 
L 184.676451 430.116132 
L 199.291658 430.116132 
L 199.291658 426.876274 
L 204.163394 426.876274 
L 204.163394 424.123453 
L 205.787306 424.123453 
L 205.787306 420.756542 
L 215.530777 420.756542 
L 215.530777 419.486009 
L 225.274249 419.486009 
L 225.274249 418.882083 
L 228.522073 418.882083 
L 228.522073 413.969357 
L 239.889456 413.969357 
L 239.889456 410.284812 
L 248.009016 410.284812 
L 248.009016 406.600268 
L 262.624223 406.600268 
L 262.624223 405.416978 
L 282.111166 405.416978 
L 282.111166 402.17712 
L 295.102461 402.17712 
L 295.102461 399.191368 
L 296.726373 399.191368 
L 296.726373 398.323171 
L 301.598109 398.323171 
L 301.598109 396.967936 
L 306.469845 396.967936 
L 306.469845 393.283392 
L 316.213316 393.283392 
L 316.213316 389.91648 
L 322.708964 389.91648 
L 322.708964 386.231936 
L 330.828523 386.231936 
L 330.828523 382.822673 
L 332.452435 382.822673 
L 332.452435 381.425088 
L 334.076347 381.425088 
L 334.076347 378.672267 
L 343.819819 378.672267 
L 343.819819 377.719367 
L 350.315466 377.719367 
L 350.315466 374.246578 
L 356.811114 374.246578 
L 356.811114 370.837316 
L 358.435026 370.837316 
L 358.435026 370.137676 
L 369.802409 370.137676 
L 369.802409 366.664887 
L 369.802409 366.664887 
L 379.545881 366.664887 
L 379.545881 365.695047 
L 386.041528 365.695047 
L 386.041528 362.624593 
L 387.66544 362.624593 
L 387.66544 358.940049 
L 400.656736 358.940049 
L 400.656736 358.482657 
L 410.400207 358.482657 
L 410.400207 355.327501 
L 415.271943 355.327501 
L 415.271943 351.918238 
L 425.015415 351.918238 
L 425.015415 348.381923 
L 431.511062 348.381923 
L 431.511062 345.840857 
L 438.00671 345.840857 
L 438.00671 342.431595 
L 444.502358 342.431595 
L 444.502358 339.022332 
L 446.126269 339.022332 
L 446.126269 337.074182 
L 454.245829 337.074182 
L 454.245829 336.002065 
L 460.741477 336.002065 
L 460.741477 332.592802 
L 462.365389 332.592802 
L 462.365389 330.051737 
L 467.237124 330.051737 
L 467.237124 326.642474 
L 476.980596 326.642474 
L 476.980596 323.233212 
L 485.100155 323.233212 
L 485.100155 319.993354 
L 491.595803 319.993354 
L 491.595803 317.240533 
L 493.219715 317.240533 
L 493.219715 313.831271 
L 501.339275 313.831271 
L 501.339275 310.422008 
L 506.21101 310.422008 
L 506.21101 307.18215 
L 514.33057 307.18215 
L 514.33057 303.772888 
L 519.202306 303.772888 
L 519.202306 300.533029 
L 525.697953 300.533029 
L 525.697953 297.123767 
L 532.193601 297.123767 
L 532.193601 293.714505 
L 538.689249 293.714505 
L 538.689249 290.305242 
L 540.313161 290.305242 
L 540.313161 287.065384 
L 548.43272 287.065384 
L 548.43272 283.656121 
L 556.55228 283.656121 
L 556.55228 280.246859 
L 563.047927 280.246859 
L 563.047927 277.007001 
L 569.543575 277.007001 
L 569.543575 273.04548 
L 577.663135 273.04548 
L 577.663135 269.636218 
L 582.53487 269.636218 
L 582.53487 266.39636 
L 584.158782 266.39636 
L 584.158782 262.838868 
L 595.526166 262.838868 
L 595.526166 259.429606 
L 597.150078 259.429606 
L 597.150078 255.872114 
L 605.269637 255.872114 
L 605.269637 252.314623 
L 611.765285 252.314623 
L 611.765285 248.757132 
L 615.013109 248.757132 
L 615.013109 246.740161 
L 618.260933 246.740161 
L 618.260933 245.871964 
L 628.004404 245.871964 
L 628.004404 242.314473 
L 628.004404 242.314473 
L 631.252228 242.314473 
L 631.252228 238.90521 
L 634.500052 238.90521 
L 634.500052 235.347719 
L 644.243523 235.347719 
L 644.243523 231.790228 
L 649.115259 231.790228 
L 649.115259 231.620823 
L 652.363083 231.620823 
L 652.363083 228.063332 
L 658.858731 228.063332 
L 658.858731 224.505841 
L 660.482642 224.505841 
L 660.482642 221.096578 
L 678.345674 221.096578 
L 678.345674 217.539087 
L 684.841321 217.539087 
L 684.841321 213.981596 
L 686.465233 213.981596 
L 686.465233 213.219276 
L 694.584793 213.219276 
L 694.584793 208.317138 
L 697.832617 208.317138 
L 697.832617 208.317138 
" clip-path="url(#p79ea7b7c3a)" style="fill: none; stroke: #0000ff; stroke-width: 1.5; stroke-linecap: square"/>
   </g>
   <g id="line2d_38">
    <path d="M 106.728679 455.7 
L 109.976503 455.7 
L 109.976503 451.761349 
L 116.47215 451.761349 
L 116.47215 448.140331 
L 127.839534 448.140331 
L 127.839534 444.604015 
L 129.463446 444.604015 
L 129.463446 440.982997 
L 134.335181 440.982997 
L 134.335181 438.230177 
L 144.078653 438.230177 
L 144.078653 434.693861 
L 152.198212 434.693861 
L 152.198212 427.536527 
L 153.822124 427.536527 
L 153.822124 426.747527 
L 168.437332 426.747527 
L 168.437332 426.388813 
L 171.685155 426.388813 
L 171.685155 422.852497 
L 179.804715 422.852497 
L 179.804715 418.907282 
L 187.924275 418.907282 
L 187.924275 418.06026 
L 192.79601 418.06026 
L 192.79601 414.523944 
L 196.043834 414.523944 
L 196.043834 410.818224 
L 202.539482 410.818224 
L 202.539482 407.197206 
L 209.03513 407.197206 
L 209.03513 400.823368 
L 218.778601 400.823368 
L 218.778601 397.20235 
L 220.402513 397.20235 
L 220.402513 393.581332 
L 228.522073 393.581332 
L 228.522073 389.960314 
L 233.393808 389.960314 
L 233.393808 386.5087 
L 236.641632 386.5087 
L 236.641632 385.932514 
L 241.513368 385.932514 
L 241.513368 382.311496 
L 243.13728 382.311496 
L 243.13728 378.690478 
L 251.256839 378.690478 
L 251.256839 377.631701 
L 252.880751 377.631701 
L 252.880751 374.010683 
L 256.128575 374.010683 
L 256.128575 370.474367 
L 261.000311 370.474367 
L 261.000311 366.853349 
L 264.248135 366.853349 
L 264.248135 363.295858 
L 264.248135 363.295858 
L 269.11987 363.295858 
L 269.11987 359.67484 
L 270.743782 359.67484 
L 270.743782 359.420733 
L 273.991606 359.420733 
L 273.991606 355.799715 
L 280.487254 355.799715 
L 280.487254 352.178698 
L 282.111166 352.178698 
L 282.111166 348.55768 
L 290.230725 348.55768 
L 290.230725 344.936662 
L 298.350285 344.936662 
L 298.350285 340.976835 
L 304.845933 340.976835 
L 304.845933 340.659202 
L 306.469845 340.659202 
L 306.469845 337.038184 
L 311.34158 337.038184 
L 311.34158 333.417166 
L 314.589404 333.417166 
L 314.589404 329.796148 
L 317.837228 329.796148 
L 317.837228 326.344535 
L 322.708964 326.344535 
L 322.708964 322.723517 
L 324.332876 322.723517 
L 324.332876 319.271903 
L 330.828523 319.271903 
L 330.828523 315.650885 
L 338.948083 315.650885 
L 338.948083 312.029867 
L 340.571995 312.029867 
L 340.571995 308.408849 
L 347.067642 308.408849 
L 347.067642 304.290206 
L 353.56329 304.290206 
L 353.56329 300.669188 
L 360.058938 300.669188 
L 360.058938 297.217575 
L 364.930674 297.217575 
L 364.930674 290.229645 
L 382.793705 290.229645 
L 382.793705 286.778032 
L 384.417617 286.778032 
L 384.417617 285.719255 
L 389.289352 285.719255 
L 389.289352 282.182939 
L 390.913264 282.182939 
L 390.913264 278.731325 
L 392.537176 278.731325 
L 392.537176 277.672548 
L 395.785 277.672548 
L 395.785 274.05153 
L 405.528472 274.05153 
L 405.528472 270.599917 
L 413.648031 270.599917 
L 413.648031 269.699956 
L 444.502358 269.699956 
L 444.502358 266.078938 
L 446.126269 266.078938 
L 446.126269 258.963956 
L 454.245829 258.963956 
L 454.245829 255.342938 
L 457.493653 255.342938 
L 457.493653 250.905179 
L 467.237124 250.905179 
L 467.237124 247.411214 
L 470.484948 247.411214 
L 470.484948 242.259205 
L 475.356684 242.259205 
L 475.356684 241.941571 
L 483.476244 241.941571 
L 483.476244 238.405256 
L 496.467539 238.405256 
L 496.467539 234.86894 
L 501.339275 234.86894 
L 501.339275 227.796308 
L 509.458834 227.796308 
L 509.458834 224.259993 
L 517.578394 224.259993 
L 517.578394 221.507172 
L 520.826218 221.507172 
L 520.826218 219.919006 
L 522.45013 219.919006 
L 522.45013 216.382691 
L 528.945777 216.382691 
L 528.945777 216.043882 
L 533.817513 216.043882 
L 533.817513 212.592268 
L 541.937073 212.592268 
L 541.937073 209.140655 
L 546.808808 209.140655 
L 546.808808 206.387834 
L 561.424016 206.387834 
L 561.424016 206.153209 
L 572.791399 206.153209 
L 572.791399 204.868912 
L 574.415311 204.868912 
L 574.415311 197.796281 
L 579.287047 197.796281 
L 579.287047 194.344667 
L 582.53487 194.344667 
L 582.53487 193.719142 
L 587.406606 193.719142 
L 587.406606 190.098124 
L 592.278342 190.098124 
L 592.278342 186.561808 
L 598.77399 186.561808 
L 598.77399 179.489177 
L 608.517461 179.489177 
L 608.517461 178.904308 
L 611.765285 178.904308 
L 611.765285 175.28329 
L 615.013109 175.28329 
L 615.013109 171.831677 
L 618.260933 171.831677 
L 618.260933 167.384813 
L 623.132668 167.384813 
L 623.132668 160.227479 
L 628.004404 160.227479 
L 628.004404 159.380457 
L 629.628316 159.380457 
L 629.628316 154.933593 
L 634.500052 154.933593 
L 634.500052 151.227873 
L 639.371788 151.227873 
L 639.371788 147.776259 
L 640.995699 147.776259 
L 640.995699 144.155241 
L 644.243523 144.155241 
L 644.243523 140.449521 
L 649.115259 140.449521 
L 649.115259 133.334539 
L 655.610907 133.334539 
L 655.610907 129.628819 
L 657.234819 129.628819 
L 657.234819 124.694917 
L 662.106554 124.694917 
L 662.106554 121.073899 
L 670.226114 121.073899 
L 670.226114 117.537583 
L 676.721762 117.537583 
L 676.721762 115.896479 
L 683.217409 115.896479 
L 683.217409 115.727074 
L 686.465233 115.727074 
L 686.465233 112.23311 
L 696.208705 112.23311 
L 696.208705 108.357985 
L 699.456528 108.357985 
L 699.456528 108.357985 
L 699.456528 104.864021 
L 699.456528 104.864021 
" clip-path="url(#p79ea7b7c3a)" style="fill: none; stroke: #008000; stroke-width: 1.5; stroke-linecap: square"/>
   </g>
   <g id="line2d_39">
    <path d="M 106.728679 455.7 
L 111.600415 455.7 
L 111.600415 454.641223 
L 114.848238 454.641223 
L 114.848238 450.935503 
L 118.096062 450.935503 
L 118.096062 447.441538 
L 121.343886 447.441538 
L 121.343886 447.441538 
L 121.343886 443.947573 
L 126.215622 443.947573 
L 126.215622 440.453609 
L 127.839534 440.453609 
L 127.839534 440.030098 
L 129.463446 440.030098 
L 129.463446 439.497109 
L 139.206917 439.497109 
L 139.206917 432.975042 
L 144.078653 432.975042 
L 144.078653 429.354024 
L 148.950389 429.354024 
L 148.950389 425.86006 
L 153.822124 425.86006 
L 153.822124 424.568351 
L 157.069948 424.568351 
L 157.069948 421.032036 
L 161.941684 421.032036 
L 161.941684 417.220438 
L 168.437332 417.220438 
L 168.437332 413.726473 
L 173.309067 413.726473 
L 173.309067 406.611491 
L 179.804715 406.611491 
L 179.804715 403.117526 
L 184.676451 403.117526 
L 184.676451 399.496508 
L 189.548187 399.496508 
L 189.548187 395.87549 
L 192.79601 395.87549 
L 192.79601 392.317999 
L 199.291658 392.317999 
L 199.291658 392.317999 
L 199.291658 388.824034 
L 205.787306 388.824034 
L 205.787306 385.330069 
L 220.402513 385.330069 
L 220.402513 385.169559 
L 222.026425 385.169559 
L 222.026425 381.675594 
L 223.650337 381.675594 
L 223.650337 378.922774 
L 225.274249 378.922774 
L 225.274249 378.922774 
L 225.274249 375.301756 
L 230.145984 375.301756 
L 230.145984 371.680738 
L 243.13728 371.680738 
L 243.13728 368.398528 
L 251.256839 368.398528 
L 251.256839 364.989266 
L 252.880751 364.989266 
L 252.880751 362.236445 
L 257.752487 362.236445 
L 257.752487 358.954236 
L 261.000311 358.954236 
L 261.000311 355.544974 
L 262.624223 355.544974 
L 262.624223 352.262764 
L 272.367694 352.262764 
L 272.367694 348.7688 
L 273.991606 348.7688 
L 273.991606 345.486591 
L 285.35899 345.486591 
L 285.35899 344.846877 
L 291.854637 344.846877 
L 291.854637 341.437615 
L 296.726373 341.437615 
L 296.726373 334.534388 
L 298.350285 334.534388 
L 298.350285 330.91337 
L 303.222021 330.91337 
L 303.222021 327.504107 
L 306.469845 327.504107 
L 306.469845 323.973085 
L 311.34158 323.973085 
L 311.34158 320.563823 
L 316.213316 320.563823 
L 316.213316 313.988817 
L 321.085052 313.988817 
L 321.085052 307.413811 
L 322.708964 307.413811 
L 322.708964 304.004548 
L 325.956788 304.004548 
L 325.956788 300.838804 
L 334.076347 300.838804 
L 334.076347 297.217786 
L 337.324171 297.217786 
L 337.324171 293.935577 
L 338.948083 293.935577 
L 338.948083 290.314559 
L 343.819819 290.314559 
L 343.819819 286.608839 
L 343.819819 286.608839 
L 345.443731 286.608839 
L 345.443731 283.32663 
L 348.691554 283.32663 
L 348.691554 282.405494 
L 350.315466 282.405494 
L 350.315466 279.123285 
L 355.187202 279.123285 
L 355.187202 275.502267 
L 356.811114 275.502267 
L 356.811114 272.220057 
L 361.68285 272.220057 
L 361.68285 270.864823 
L 363.306762 270.864823 
L 363.306762 267.699079 
L 366.554585 267.699079 
L 366.554585 264.078061 
L 371.426321 264.078061 
L 371.426321 257.291299 
L 377.921969 257.291299 
L 377.921969 254.125556 
L 379.545881 254.125556 
L 379.545881 250.716293 
L 387.66544 250.716293 
L 387.66544 247.434084 
L 387.66544 247.434084 
L 390.913264 247.434084 
L 390.913264 241.399054 
L 395.785 241.399054 
L 395.785 234.951101 
L 400.656736 234.951101 
L 400.656736 234.14643 
L 402.280648 234.14643 
L 402.280648 230.864221 
L 412.024119 230.864221 
L 412.024119 227.454959 
L 420.143679 227.454959 
L 420.143679 226.607937 
L 425.015415 226.607937 
L 425.015415 220.311601 
L 429.88715 220.311601 
L 429.88715 216.605881 
L 434.758886 216.605881 
L 434.758886 215.885912 
L 436.382798 215.885912 
L 436.382798 215.691097 
L 441.254534 215.691097 
L 441.254534 212.281835 
L 442.878446 212.281835 
L 442.878446 208.576115 
L 447.750181 208.576115 
L 447.750181 205.166852 
L 449.374093 205.166852 
L 449.374093 202.189571 
L 450.998005 202.189571 
L 450.998005 199.43675 
L 455.869741 199.43675 
L 455.869741 196.027488 
L 467.237124 196.027488 
L 467.237124 192.896895 
L 472.10886 192.896895 
L 472.10886 185.781913 
L 478.604508 185.781913 
L 478.604508 182.076193 
L 485.100155 182.076193 
L 485.100155 177.313813 
L 488.347979 177.313813 
L 488.347979 176.826776 
L 491.595803 176.826776 
L 491.595803 173.148584 
L 493.219715 173.148584 
L 493.219715 169.739321 
L 494.843627 169.739321 
L 494.843627 166.330059 
L 498.091451 166.330059 
L 498.091451 162.624339 
L 499.715363 162.624339 
L 499.715363 159.215076 
L 504.587098 159.215076 
L 504.587098 152.100094 
L 507.834922 152.100094 
L 507.834922 148.690831 
L 509.458834 148.690831 
L 509.458834 144.985111 
L 519.202306 144.985111 
L 519.202306 143.333419 
L 520.826218 143.333419 
L 520.826218 139.627698 
L 522.45013 139.627698 
L 522.45013 138.568921 
L 528.945777 138.568921 
L 528.945777 135.159659 
L 530.569689 135.159659 
L 530.569689 131.453939 
L 533.817513 131.453939 
L 533.817513 128.044676 
L 538.689249 128.044676 
L 538.689249 127.731913 
L 540.313161 127.731913 
L 540.313161 124.322651 
L 541.937073 124.322651 
L 541.937073 120.616931 
L 546.808808 120.616931 
L 546.808808 117.207668 
L 553.304456 117.207668 
L 553.304456 113.798406 
L 559.800104 113.798406 
L 559.800104 110.389143 
L 561.424016 110.389143 
L 561.424016 106.979881 
L 569.543575 106.979881 
L 569.543575 103.591794 
L 571.167487 103.591794 
L 571.167487 100.461202 
L 574.415311 100.461202 
L 574.415311 97.051939 
L 579.287047 97.051939 
L 579.287047 90.233414 
L 584.158782 90.233414 
L 584.158782 86.824152 
L 587.406606 86.824152 
L 587.406606 85.532444 
L 589.030518 85.532444 
L 589.030518 82.123181 
L 590.65443 82.123181 
L 590.65443 78.713919 
L 593.902254 78.713919 
L 593.902254 75.304656 
L 595.526166 75.304656 
L 595.526166 71.773634 
L 598.77399 71.773634 
L 598.77399 68.364372 
L 608.517461 68.364372 
L 608.517461 61.424087 
L 613.389197 61.424087 
L 613.389197 57.893066 
L 616.637021 57.893066 
L 616.637021 54.362044 
L 623.132668 54.362044 
L 623.132668 47.3 
L 626.380492 47.3 
L 626.380492 47.3 
" clip-path="url(#p79ea7b7c3a)" style="fill: none; stroke: #ff0000; stroke-width: 1.5; stroke-linecap: square"/>
   </g>
   <g id="patch_3">
    <path d="M 82.37 476.12 
L 82.37 26.88 
" style="fill: none; stroke: #000000; stroke-width: 0.8; stroke-linejoin: miter; stroke-linecap: square"/>
   </g>
   <g id="patch_4">
    <path d="M 709.2 476.12 
L 709.2 26.88 
" style="fill: none; stroke: #000000; stroke-width: 0.8; stroke-linejoin: miter; stroke-linecap: square"/>
   </g>
   <g id="patch_5">
    <path d="M 82.37 476.12 
L 709.2 476.12 
" style="fill: none; stroke: #000000; stroke-width: 0.8; stroke-linejoin: miter; stroke-linecap: square"/>
   </g>
   <g id="patch_6">
    <path d="M 82.37 26.88 
L 709.2 26.88 
" style="fill: none; stroke: #000000; stroke-width: 0.8; stroke-linejoin: miter; stroke-linecap: square"/>
   </g>
   <g id="text_17">
    <!-- Cumulative Payload Mass to Orbit By Year -->
    <g transform="translate(270.179688 20.88) scale(0.12 -0.12)">
     <defs>
      <path id="DejaVuSans-4f" d="M 2522 4238 
Q 1834 4238 1429 3725 
Q 1025 3213 1025 2328 
Q 1025 1447 1429 934 
Q 1834 422 2522 422 
Q 3209 422 3611 934 
Q 4013 1447 4013 2328 
Q 4013 3213 3611 3725 
Q 3209 4238 2522 4238 
z
M 2522 4750 
Q 3503 4750 4090 4092 
Q 4678 3434 4678 2328 
Q 4678 1225 4090 567 
Q 3503 -91 2522 -91 
Q 1538 -91 948 565 
Q 359 1222 359 2328 
Q 359 3434 948 4092 
Q 1538 4750 2522 4750 
z
" transform="scale(0.015625)"/>
      <path id="DejaVuSans-62" d="M 3116 1747 
Q 3116 2381 2855 2742 
Q 2594 3103 2138 3103 
Q 1681 3103 1420 2742 
Q 1159 2381 1159 1747 
Q 1159 1113 1420 752 
Q 1681 391 2138 391 
Q 2594 391 2855 752 
Q 3116 1113 3116 1747 
z
M 1159 2969 
Q 1341 3281 1617 3432 
Q 1894 3584 2278 3584 
Q 2916 3584 3314 3078 
Q 3713 2572 3713 1747 
Q 3713 922 3314 415 
Q 2916 -91 2278 -91 
Q 1894 -91 1617 61 
Q 1341 213 1159 525 
L 1159 0 
L 581 0 
L 581 4863 
L 1159 4863 
L 1159 2969 
z
" transform="scale(0.015625)"/>
      <path id="DejaVuSans-42" d="M 1259 2228 
L 1259 519 
L 2272 519 
Q 2781 519 3026 730 
Q 3272 941 3272 1375 
Q 3272 1813 3026 2020 
Q 2781 2228 2272 2228 
L 1259 2228 
z
M 1259 4147 
L 1259 2741 
L 2194 2741 
Q 2656 2741 2882 2914 
Q 3109 3088 3109 3444 
Q 3109 3797 2882 3972 
Q 2656 4147 2194 4147 
L 1259 4147 
z
M 628 4666 
L 2241 4666 
Q 2963 4666 3353 4366 
Q 3744 4066 3744 3513 
Q 3744 3084 3544 2831 
Q 3344 2578 2956 2516 
Q 3422 2416 3680 2098 
Q 3938 1781 3938 1306 
Q 3938 681 3513 340 
Q 3088 0 2303 0 
L 628 0 
L 628 4666 
z
" transform="scale(0.015625)"/>
      <path id="DejaVuSans-59" d="M -13 4666 
L 666 4666 
L 1959 2747 
L 3244 4666 
L 3922 4666 
L 2272 2222 
L 2272 0 
L 1638 0 
L 1638 2222 
L -13 4666 
z
" transform="scale(0.015625)"/>
     </defs>
     <use xlink:href="#DejaVuSans-43"/>
     <use xlink:href="#DejaVuSans-75" x="69.824219"/>
     <use xlink:href="#DejaVuSans-6d" x="133.203125"/>
     <use xlink:href="#DejaVuSans-75" x="230.615234"/>
     <use xlink:href="#DejaVuSans-6c" x="293.994141"/>
     <use xlink:href="#DejaVuSans-61" x="321.777344"/>
     <use xlink:href="#DejaVuSans-74" x="383.056641"/>
     <use xlink:href="#DejaVuSans-69" x="422.265625"/>
     <use xlink:href="#DejaVuSans-76" x="450.048828"/>
     <use xlink:href="#DejaVuSans-65" x="509.228516"/>
     <use xlink:href="#DejaVuSans-20" x="570.751953"/>
     <use xlink:href="#DejaVuSans-50" x="602.539062"/>
     <use xlink:href="#DejaVuSans-61" x="658.341797"/>
     <use xlink:href="#DejaVuSans-79" x="719.621094"/>
     <use xlink:href="#DejaVuSans-6c" x="778.800781"/>
     <use xlink:href="#DejaVuSans-6f" x="806.583984"/>
     <use xlink:href="#DejaVuSans-61" x="867.765625"/>
     <use xlink:href="#DejaVuSans-64" x="929.044922"/>
     <use xlink:href="#DejaVuSans-20" x="992.521484"/>
     <use xlink:href="#DejaVuSans-4d" x="1024.308594"/>
     <use xlink:href="#DejaVuSans-61" x="1110.587891"/>
     <use xlink:href="#DejaVuSans-73" x="1171.867188"/>
     <use xlink:href="#DejaVuSans-73" x="1223.966797"/>
     <use xlink:href="#DejaVuSans-20" x="1276.066406"/>
     <use xlink:href="#DejaVuSans-74" x="1307.853516"/>
     <use xlink:href="#DejaVuSans-6f" x="1347.0625"/>
     <use xlink:href="#DejaVuSans-20" x="1408.244141"/>
     <use xlink:href="#DejaVuSans-4f" x="1440.03125"/>
     <use xlink:href="#DejaVuSans-72" x="1518.742188"/>
     <use xlink:href="#DejaVuSans-62" x="1559.855469"/>
     <use xlink:href="#DejaVuSans-69" x="1623.332031"/>
     <use xlink:href="#DejaVuSans-74" x="1651.115234"/>
     <use xlink:href="#DejaVuSans-20" x="1690.324219"/>
     <use xlink:href="#DejaVuSans-42" x="1722.111328"/>
     <use xlink:href="#DejaVuSans-79" x="1790.714844"/>
     <use xlink:href="#DejaVuSans-20" x="1849.894531"/>
     <use xlink:href="#DejaVuSans-59" x="1881.681641"/>
     <use xlink:href="#DejaVuSans-65" x="1929.515625"/>
     <use xlink:href="#DejaVuSans-61" x="1991.039062"/>
     <use xlink:href="#DejaVuSans-72" x="2052.318359"/>
    </g>
   </g>
   <g id="legend_1">
    <g id="patch_7">
     <path d="M 89.37 181.66125 
L 146.82 181.66125 
Q 148.82 181.66125 148.82 179.66125 
L 148.82 33.88 
Q 148.82 31.88 146.82 31.88 
L 89.37 31.88 
Q 87.37 31.88 87.37 33.88 
L 87.37 179.66125 
Q 87.37 181.66125 89.37 181.66125 
z
" style="fill: #ffffff; opacity: 0.8; stroke: #cccccc; stroke-linejoin: miter"/>
    </g>
    <g id="text_18">
     <!-- Year -->
     <g transform="translate(107.5075 43.478437) scale(0.1 -0.1)">
      <use xlink:href="#DejaVuSans-59"/>
      <use xlink:href="#DejaVuSans-65" x="47.833984"/>
      <use xlink:href="#DejaVuSans-61" x="109.357422"/>
      <use xlink:href="#DejaVuSans-72" x="170.636719"/>
     </g>
    </g>
    <g id="line2d_40">
     <path d="M 91.37 54.656562 
L 101.37 54.656562 
L 101.37 54.656562 
L 111.37 54.656562 
L 111.37 54.656562 
" style="fill: none; stroke: #808080; stroke-width: 1.5; stroke-linecap: square"/>
    </g>
    <g id="text_19">
     <!-- 2017 -->
     <g transform="translate(119.37 58.156562) scale(0.1 -0.1)">
      <use xlink:href="#DejaVuSans-32"/>
      <use xlink:href="#DejaVuSans-30" x="63.623047"/>
      <use xlink:href="#DejaVuSans-31" x="127.246094"/>
      <use xlink:href="#DejaVuSans-37" x="190.869141"/>
     </g>
    </g>
    <g id="line2d_41">
     <path d="M 91.37 69.334687 
L 101.37 69.334687 
L 101.37 69.334687 
L 111.37 69.334687 
L 111.37 69.334687 
" style="fill: none; stroke: #90ee90; stroke-width: 1.5; stroke-linecap: square"/>
    </g>
    <g id="text_20">
     <!-- 2018 -->
     <g transform="translate(119.37 72.834687) scale(0.1 -0.1)">
      <defs>
       <path id="DejaVuSans-38" d="M 2034 2216 
Q 1584 2216 1326 1975 
Q 1069 1734 1069 1313 
Q 1069 891 1326 650 
Q 1584 409 2034 409 
Q 2484 409 2743 651 
Q 3003 894 3003 1313 
Q 3003 1734 2745 1975 
Q 2488 2216 2034 2216 
z
M 1403 2484 
Q 997 2584 770 2862 
Q 544 3141 544 3541 
Q 544 4100 942 4425 
Q 1341 4750 2034 4750 
Q 2731 4750 3128 4425 
Q 3525 4100 3525 3541 
Q 3525 3141 3298 2862 
Q 3072 2584 2669 2484 
Q 3125 2378 3379 2068 
Q 3634 1759 3634 1313 
Q 3634 634 3220 271 
Q 2806 -91 2034 -91 
Q 1263 -91 848 271 
Q 434 634 434 1313 
Q 434 1759 690 2068 
Q 947 2378 1403 2484 
z
M 1172 3481 
Q 1172 3119 1398 2916 
Q 1625 2713 2034 2713 
Q 2441 2713 2670 2916 
Q 2900 3119 2900 3481 
Q 2900 3844 2670 4047 
Q 2441 4250 2034 4250 
Q 1625 4250 1398 4047 
Q 1172 3844 1172 3481 
z
" transform="scale(0.015625)"/>
      </defs>
      <use xlink:href="#DejaVuSans-32"/>
      <use xlink:href="#DejaVuSans-30" x="63.623047"/>
      <use xlink:href="#DejaVuSans-31" x="127.246094"/>
      <use xlink:href="#DejaVuSans-38" x="190.869141"/>
     </g>
    </g>
    <g id="line2d_42">
     <path d="M 91.37 84.012812 
L 101.37 84.012812 
L 101.37 84.012812 
L 111.37 84.012812 
L 111.37 84.012812 
" style="fill: none; stroke: #add8e6; stroke-width: 1.5; stroke-linecap: square"/>
    </g>
    <g id="text_21">
     <!-- 2019 -->
     <g transform="translate(119.37 87.512812) scale(0.1 -0.1)">
      <defs>
       <path id="DejaVuSans-39" d="M 703 97 
L 703 672 
Q 941 559 1184 500 
Q 1428 441 1663 441 
Q 2288 441 2617 861 
Q 2947 1281 2994 2138 
Q 2813 1869 2534 1725 
Q 2256 1581 1919 1581 
Q 1219 1581 811 2004 
Q 403 2428 403 3163 
Q 403 3881 828 4315 
Q 1253 4750 1959 4750 
Q 2769 4750 3195 4129 
Q 3622 3509 3622 2328 
Q 3622 1225 3098 567 
Q 2575 -91 1691 -91 
Q 1453 -91 1209 -44 
Q 966 3 703 97 
z
M 1959 2075 
Q 2384 2075 2632 2365 
Q 2881 2656 2881 3163 
Q 2881 3666 2632 3958 
Q 2384 4250 1959 4250 
Q 1534 4250 1286 3958 
Q 1038 3666 1038 3163 
Q 1038 2656 1286 2365 
Q 1534 2075 1959 2075 
z
" transform="scale(0.015625)"/>
      </defs>
      <use xlink:href="#DejaVuSans-32"/>
      <use xlink:href="#DejaVuSans-30" x="63.623047"/>
      <use xlink:href="#DejaVuSans-31" x="127.246094"/>
      <use xlink:href="#DejaVuSans-39" x="190.869141"/>
     </g>
    </g>
    <g id="line2d_43">
     <path d="M 91.37 98.690937 
L 101.37 98.690937 
L 101.37 98.690937 
L 111.37 98.690937 
L 111.37 98.690937 
" style="fill: none; stroke: #ffc0cb; stroke-width: 1.5; stroke-linecap: square"/>
    </g>
    <g id="text_22">
     <!-- 2020 -->
     <g transform="translate(119.37 102.190937) scale(0.1 -0.1)">
      <use xlink:href="#DejaVuSans-32"/>
      <use xlink:href="#DejaVuSans-30" x="63.623047"/>
      <use xlink:href="#DejaVuSans-32" x="127.246094"/>
      <use xlink:href="#DejaVuSans-30" x="190.869141"/>
     </g>
    </g>
    <g id="line2d_44">
     <path d="M 91.37 113.369062 
L 101.37 113.369062 
L 101.37 113.369062 
L 111.37 113.369062 
L 111.37 113.369062 
" style="fill: none; stroke: #800080; stroke-width: 1.5; stroke-linecap: square"/>
    </g>
    <g id="text_23">
     <!-- 2021 -->
     <g transform="translate(119.37 116.869062) scale(0.1 -0.1)">
      <use xlink:href="#DejaVuSans-32"/>
      <use xlink:href="#DejaVuSans-30" x="63.623047"/>
      <use xlink:href="#DejaVuSans-32" x="127.246094"/>
      <use xlink:href="#DejaVuSans-31" x="190.869141"/>
     </g>
    </g>
    <g id="line2d_45">
     <path d="M 91.37 128.047187 
L 101.37 128.047187 
L 101.37 128.047187 
L 111.37 128.047187 
L 111.37 128.047187 
" style="fill: none; stroke: #ffa500; stroke-width: 1.5; stroke-linecap: square"/>
    </g>
    <g id="text_24">
     <!-- 2022 -->
     <g transform="translate(119.37 131.547187) scale(0.1 -0.1)">
      <use xlink:href="#DejaVuSans-32"/>
      <use xlink:href="#DejaVuSans-30" x="63.623047"/>
      <use xlink:href="#DejaVuSans-32" x="127.246094"/>
      <use xlink:href="#DejaVuSans-32" x="190.869141"/>
     </g>
    </g>
    <g id="line2d_46">
     <path d="M 91.37 142.725312 
L 101.37 142.725312 
L 101.37 142.725312 
L 111.37 142.725312 
L 111.37 142.725312 
" style="fill: none; stroke: #0000ff; stroke-width: 1.5; stroke-linecap: square"/>
    </g>
    <g id="text_25">
     <!-- 2023 -->
     <g transform="translate(119.37 146.225312) scale(0.1 -0.1)">
      <defs>
       <path id="DejaVuSans-33" d="M 2597 2516 
Q 3050 2419 3304 2112 
Q 3559 1806 3559 1356 
Q 3559 666 3084 287 
Q 2609 -91 1734 -91 
Q 1441 -91 1130 -33 
Q 819 25 488 141 
L 488 750 
Q 750 597 1062 519 
Q 1375 441 1716 441 
Q 2309 441 2620 675 
Q 2931 909 2931 1356 
Q 2931 1769 2642 2001 
Q 2353 2234 1838 2234 
L 1294 2234 
L 1294 2753 
L 1863 2753 
Q 2328 2753 2575 2939 
Q 2822 3125 2822 3475 
Q 2822 3834 2567 4026 
Q 2313 4219 1838 4219 
Q 1578 4219 1281 4162 
Q 984 4106 628 3988 
L 628 4550 
Q 988 4650 1302 4700 
Q 1616 4750 1894 4750 
Q 2613 4750 3031 4423 
Q 3450 4097 3450 3541 
Q 3450 3153 3228 2886 
Q 3006 2619 2597 2516 
z
" transform="scale(0.015625)"/>
      </defs>
      <use xlink:href="#DejaVuSans-32"/>
      <use xlink:href="#DejaVuSans-30" x="63.623047"/>
      <use xlink:href="#DejaVuSans-32" x="127.246094"/>
      <use xlink:href="#DejaVuSans-33" x="190.869141"/>
     </g>
    </g>
    <g id="line2d_47">
     <path d="M 91.37 157.403437 
L 101.37 157.403437 
L 101.37 157.403437 
L 111.37 157.403437 
L 111.37 157.403437 
" style="fill: none; stroke: #008000; stroke-width: 1.5; stroke-linecap: square"/>
    </g>
    <g id="text_26">
     <!-- 2024 -->
     <g transform="translate(119.37 160.903437) scale(0.1 -0.1)">
      <defs>
       <path id="DejaVuSans-34" d="M 2419 4116 
L 825 1625 
L 2419 1625 
L 2419 4116 
z
M 2253 4666 
L 3047 4666 
L 3047 1625 
L 3713 1625 
L 3713 1100 
L 3047 1100 
L 3047 0 
L 2419 0 
L 2419 1100 
L 313 1100 
L 313 1709 
L 2253 4666 
z
" transform="scale(0.015625)"/>
      </defs>
      <use xlink:href="#DejaVuSans-32"/>
      <use xlink:href="#DejaVuSans-30" x="63.623047"/>
      <use xlink:href="#DejaVuSans-32" x="127.246094"/>
      <use xlink:href="#DejaVuSans-34" x="190.869141"/>
     </g>
    </g>
    <g id="line2d_48">
     <path d="M 91.37 172.081562 
L 101.37 172.081562 
L 101.37 172.081562 
L 111.37 172.081562 
L 111.37 172.081562 
" style="fill: none; stroke: #ff0000; stroke-width: 1.5; stroke-linecap: square"/>
    </g>
    <g id="text_27">
     <!-- 2025 -->
     <g transform="translate(119.37 175.581562) scale(0.1 -0.1)">
      <use xlink:href="#DejaVuSans-32"/>
      <use xlink:href="#DejaVuSans-30" x="63.623047"/>
      <use xlink:href="#DejaVuSans-32" x="127.246094"/>
      <use xlink:href="#DejaVuSans-35" x="190.869141"/>
     </g>
    </g>
   </g>
  </g>
 </g>
 <defs>
  <clipPath id="p79ea7b7c3a">
   <rect x="82.37" y="26.88" width="626.83" height="449.24"/>
  </clipPath>
 </defs>
</svg>
