<?xml version="1.0" encoding="utf-8" standalone="no"?>
<!DOCTYPE svg PUBLIC "-//W3C//DTD SVG 1.1//EN"
  "http://www.w3.org/Graphics/SVG/1.1/DTD/svg11.dtd">
<svg xmlns:xlink="http://www.w3.org/1999/xlink" width="720pt" height="504pt" viewBox="0 0 720 504" xmlns="http://www.w3.org/2000/svg" version="1.1">
 <metadata>
  <rdf:RDF xmlns:dc="http://purl.org/dc/elements/1.1/" xmlns:cc="http://creativecommons.org/ns#" xmlns:rdf="http://www.w3.org/1999/02/22-rdf-syntax-ns#">
   <cc:Work>
    <dc:type rdf:resource="http://purl.org/dc/dcmitype/StillImage"/>
    <dc:date>2025-12-19T11:27:55.065612</dc:date>
    <dc:format>image/svg+xml</dc:format>
    <dc:creator>
     <cc:Agent>
      <dc:title>Matplotlib v3.8.2, https://matplotlib.org/</dc:title>
     </cc:Agent>
    </dc:creator>
   </cc:Work>
  </rdf:RDF>
 </metadata>
 <defs>
  <style type="text/css">*{stroke-linejoin: round; stroke-linecap: butt}</style>
 </defs>
 <g id="figure_1">
  <g id="patch_1">
   <path d="M 0 504 
L 720 504 
L 720 0 
L 0 0 
z
" style="fill: #ffffff"/>
  </g>
  <g id="axes_1">
   <g id="patch_2">
    <path d="M 82.37 476.12 
L 709.2 476.12 
L 709.2 26.88 
L 82.37 26.88 
z
" style="fill: #ffffff"/>
   </g>
   <g id="matplotlib.axis_1">
    <g id="xtick_1">
     <g id="line2d_1">
      <path d="M 106.728679 476.12 
L 106.728679 26.88 
" clip-path="url(#pa8b7688738)" style="fill: none; stroke: #b0b0b0; stroke-width: 0.8; stroke-linecap: square"/>
     </g>
     <g id="line2d_2">
      <defs>
       <path id="m75b729646c" d="M 0 0 
L 0 3.5 
" style="stroke: #000000; stroke-width: 0.8"/>
      </defs>
      <g>
       <use xlink:href="#m75b729646c" x="106.728679" y="476.12" style="stroke: #000000; stroke-width: 0.8"/>
      </g>
     </g>
     <g id="text_1">
      <!-- Jan 1 -->
      <g transform="translate(94.250554 490.718437) scale(0.1 -0.1)">
       <defs>
        <path id="DejaVuSans-4a" d="M 628 4666 
L 1259 4666 
L 1259 325 
Q 1259 -519 939 -900 
Q 619 -1281 -91 -1281 
L -331 -1281 
L -331 -750 
L -134 -750 
Q 284 -750 456 -515 
Q 628 -281 628 325 
L 628 4666 
z
" transform="scale(0.015625)"/>
        <path id="DejaVuSans-61" d="M 2194 1759 
Q 1497 1759 1228 1600 
Q 959 1441 959 1056 
Q 959 750 1161 570 
Q 1363 391 1709 391 
Q 2188 391 2477 730 
Q 2766 1069 2766 1631 
L 2766 1759 
L 2194 1759 
z
M 3341 1997 
L 3341 0 
L 2766 0 
L 2766 531 
Q 2569 213 2275 61 
Q 1981 -91 1556 -91 
Q 1019 -91 701 211 
Q 384 513 384 1019 
Q 384 1609 779 1909 
Q 1175 2209 1959 2209 
L 2766 2209 
L 2766 2266 
Q 2766 2663 2505 2880 
Q 2244 3097 1772 3097 
Q 1472 3097 1187 3025 
Q 903 2953 641 2809 
L 641 3341 
Q 956 3463 1253 3523 
Q 1550 3584 1831 3584 
Q 2591 3584 2966 3190 
Q 3341 2797 3341 1997 
z
" transform="scale(0.015625)"/>
        <path id="DejaVuSans-6e" d="M 3513 2113 
L 3513 0 
L 2938 0 
L 2938 2094 
Q 2938 2591 2744 2837 
Q 2550 3084 2163 3084 
Q 1697 3084 1428 2787 
Q 1159 2491 1159 1978 
L 1159 0 
L 581 0 
L 581 3500 
L 1159 3500 
L 1159 2956 
Q 1366 3272 1645 3428 
Q 1925 3584 2291 3584 
Q 2894 3584 3203 3211 
Q 3513 2838 3513 2113 
z
" transform="scale(0.015625)"/>
        <path id="DejaVuSans-20" transform="scale(0.015625)"/>
        <path id="DejaVuSans-31" d="M 794 531 
L 1825 531 
L 1825 4091 
L 703 3866 
L 703 4441 
L 1819 4666 
L 2450 4666 
L 2450 531 
L 3481 531 
L 3481 0 
L 794 0 
L 794 531 
z
" transform="scale(0.015625)"/>
       </defs>
       <use xlink:href="#DejaVuSans-4a"/>
       <use xlink:href="#DejaVuSans-61" x="29.492188"/>
       <use xlink:href="#DejaVuSans-6e" x="90.771484"/>
       <use xlink:href="#DejaVuSans-20" x="154.150391"/>
       <use xlink:href="#DejaVuSans-31" x="185.9375"/>
      </g>
     </g>
    </g>
    <g id="xtick_2">
     <g id="line2d_3">
      <path d="M 204.163394 476.12 
L 204.163394 26.88 
" clip-path="url(#pa8b7688738)" style="fill: none; stroke: #b0b0b0; stroke-width: 0.8; stroke-linecap: square"/>
     </g>
     <g id="line2d_4">
      <g>
       <use xlink:href="#m75b729646c" x="204.163394" y="476.12" style="stroke: #000000; stroke-width: 0.8"/>
      </g>
     </g>
     <g id="text_2">
      <!-- Mar 1 -->
      <g transform="translate(189.959488 490.718437) scale(0.1 -0.1)">
       <defs>
        <path id="DejaVuSans-4d" d="M 628 4666 
L 1569 4666 
L 2759 1491 
L 3956 4666 
L 4897 4666 
L 4897 0 
L 4281 0 
L 4281 4097 
L 3078 897 
L 2444 897 
L 1241 4097 
L 1241 0 
L 628 0 
L 628 4666 
z
" transform="scale(0.015625)"/>
        <path id="DejaVuSans-72" d="M 2631 2963 
Q 2534 3019 2420 3045 
Q 2306 3072 2169 3072 
Q 1681 3072 1420 2755 
Q 1159 2438 1159 1844 
L 1159 0 
L 581 0 
L 581 3500 
L 1159 3500 
L 1159 2956 
Q 1341 3275 1631 3429 
Q 1922 3584 2338 3584 
Q 2397 3584 2469 3576 
Q 2541 3569 2628 3553 
L 2631 2963 
z
" transform="scale(0.015625)"/>
       </defs>
       <use xlink:href="#DejaVuSans-4d"/>
       <use xlink:href="#DejaVuSans-61" x="86.279297"/>
       <use xlink:href="#DejaVuSans-72" x="147.558594"/>
       <use xlink:href="#DejaVuSans-20" x="188.671875"/>
       <use xlink:href="#DejaVuSans-31" x="220.458984"/>
      </g>
     </g>
    </g>
    <g id="xtick_3">
     <g id="line2d_5">
      <path d="M 303.222021 476.12 
L 303.222021 26.88 
" clip-path="url(#pa8b7688738)" style="fill: none; stroke: #b0b0b0; stroke-width: 0.8; stroke-linecap: square"/>
     </g>
     <g id="line2d_6">
      <g>
       <use xlink:href="#m75b729646c" x="303.222021" y="476.12" style="stroke: #000000; stroke-width: 0.8"/>
      </g>
     </g>
     <g id="text_3">
      <!-- May 1 -->
      <g transform="translate(288.114208 490.718437) scale(0.1 -0.1)">
       <defs>
        <path id="DejaVuSans-79" d="M 2059 -325 
Q 1816 -950 1584 -1140 
Q 1353 -1331 966 -1331 
L 506 -1331 
L 506 -850 
L 844 -850 
Q 1081 -850 1212 -737 
Q 1344 -625 1503 -206 
L 1606 56 
L 191 3500 
L 800 3500 
L 1894 763 
L 2988 3500 
L 3597 3500 
L 2059 -325 
z
" transform="scale(0.015625)"/>
       </defs>
       <use xlink:href="#DejaVuSans-4d"/>
       <use xlink:href="#DejaVuSans-61" x="86.279297"/>
       <use xlink:href="#DejaVuSans-79" x="147.558594"/>
       <use xlink:href="#DejaVuSans-20" x="206.738281"/>
       <use xlink:href="#DejaVuSans-31" x="238.525391"/>
      </g>
     </g>
    </g>
    <g id="xtick_4">
     <g id="line2d_7">
      <path d="M 402.280648 476.12 
L 402.280648 26.88 
" clip-path="url(#pa8b7688738)" style="fill: none; stroke: #b0b0b0; stroke-width: 0.8; stroke-linecap: square"/>
     </g>
     <g id="line2d_8">
      <g>
       <use xlink:href="#m75b729646c" x="402.280648" y="476.12" style="stroke: #000000; stroke-width: 0.8"/>
      </g>
     </g>
     <g id="text_4">
      <!-- Jul 1 -->
      <g transform="translate(391.477523 490.718437) scale(0.1 -0.1)">
       <defs>
        <path id="DejaVuSans-75" d="M 544 1381 
L 544 3500 
L 1119 3500 
L 1119 1403 
Q 1119 906 1312 657 
Q 1506 409 1894 409 
Q 2359 409 2629 706 
Q 2900 1003 2900 1516 
L 2900 3500 
L 3475 3500 
L 3475 0 
L 2900 0 
L 2900 538 
Q 2691 219 2414 64 
Q 2138 -91 1772 -91 
Q 1169 -91 856 284 
Q 544 659 544 1381 
z
M 1991 3584 
L 1991 3584 
z
" transform="scale(0.015625)"/>
        <path id="DejaVuSans-6c" d="M 603 4863 
L 1178 4863 
L 1178 0 
L 603 0 
L 603 4863 
z
" transform="scale(0.015625)"/>
       </defs>
       <use xlink:href="#DejaVuSans-4a"/>
       <use xlink:href="#DejaVuSans-75" x="29.492188"/>
       <use xlink:href="#DejaVuSans-6c" x="92.871094"/>
       <use xlink:href="#DejaVuSans-20" x="120.654297"/>
       <use xlink:href="#DejaVuSans-31" x="152.441406"/>
      </g>
     </g>
    </g>
    <g id="xtick_5">
     <g id="line2d_9">
      <path d="M 502.963187 476.12 
L 502.963187 26.88 
" clip-path="url(#pa8b7688738)" style="fill: none; stroke: #b0b0b0; stroke-width: 0.8; stroke-linecap: square"/>
     </g>
     <g id="line2d_10">
      <g>
       <use xlink:href="#m75b729646c" x="502.963187" y="476.12" style="stroke: #000000; stroke-width: 0.8"/>
      </g>
     </g>
     <g id="text_5">
      <!-- Sep 1 -->
      <g transform="translate(488.767874 490.718437) scale(0.1 -0.1)">
       <defs>
        <path id="DejaVuSans-53" d="M 3425 4513 
L 3425 3897 
Q 3066 4069 2747 4153 
Q 2428 4238 2131 4238 
Q 1616 4238 1336 4038 
Q 1056 3838 1056 3469 
Q 1056 3159 1242 3001 
Q 1428 2844 1947 2747 
L 2328 2669 
Q 3034 2534 3370 2195 
Q 3706 1856 3706 1288 
Q 3706 609 3251 259 
Q 2797 -91 1919 -91 
Q 1588 -91 1214 -16 
Q 841 59 441 206 
L 441 856 
Q 825 641 1194 531 
Q 1563 422 1919 422 
Q 2459 422 2753 634 
Q 3047 847 3047 1241 
Q 3047 1584 2836 1778 
Q 2625 1972 2144 2069 
L 1759 2144 
Q 1053 2284 737 2584 
Q 422 2884 422 3419 
Q 422 4038 858 4394 
Q 1294 4750 2059 4750 
Q 2388 4750 2728 4690 
Q 3069 4631 3425 4513 
z
" transform="scale(0.015625)"/>
        <path id="DejaVuSans-65" d="M 3597 1894 
L 3597 1613 
L 953 1613 
Q 991 1019 1311 708 
Q 1631 397 2203 397 
Q 2534 397 2845 478 
Q 3156 559 3463 722 
L 3463 178 
Q 3153 47 2828 -22 
Q 2503 -91 2169 -91 
Q 1331 -91 842 396 
Q 353 884 353 1716 
Q 353 2575 817 3079 
Q 1281 3584 2069 3584 
Q 2775 3584 3186 3129 
Q 3597 2675 3597 1894 
z
M 3022 2063 
Q 3016 2534 2758 2815 
Q 2500 3097 2075 3097 
Q 1594 3097 1305 2825 
Q 1016 2553 972 2059 
L 3022 2063 
z
" transform="scale(0.015625)"/>
        <path id="DejaVuSans-70" d="M 1159 525 
L 1159 -1331 
L 581 -1331 
L 581 3500 
L 1159 3500 
L 1159 2969 
Q 1341 3281 1617 3432 
Q 1894 3584 2278 3584 
Q 2916 3584 3314 3078 
Q 3713 2572 3713 1747 
Q 3713 922 3314 415 
Q 2916 -91 2278 -91 
Q 1894 -91 1617 61 
Q 1341 213 1159 525 
z
M 3116 1747 
Q 3116 2381 2855 2742 
Q 2594 3103 2138 3103 
Q 1681 3103 1420 2742 
Q 1159 2381 1159 1747 
Q 1159 1113 1420 752 
Q 1681 391 2138 391 
Q 2594 391 2855 752 
Q 3116 1113 3116 1747 
z
" transform="scale(0.015625)"/>
       </defs>
       <use xlink:href="#DejaVuSans-53"/>
       <use xlink:href="#DejaVuSans-65" x="63.476562"/>
       <use xlink:href="#DejaVuSans-70" x="125"/>
       <use xlink:href="#DejaVuSans-20" x="188.476562"/>
       <use xlink:href="#DejaVuSans-31" x="220.263672"/>
      </g>
     </g>
    </g>
    <g id="xtick_6">
     <g id="line2d_11">
      <path d="M 602.021813 476.12 
L 602.021813 26.88 
" clip-path="url(#pa8b7688738)" style="fill: none; stroke: #b0b0b0; stroke-width: 0.8; stroke-linecap: square"/>
     </g>
     <g id="line2d_12">
      <g>
       <use xlink:href="#m75b729646c" x="602.021813" y="476.12" style="stroke: #000000; stroke-width: 0.8"/>
      </g>
     </g>
     <g id="text_6">
      <!-- Nov 1 -->
      <g transform="translate(587.492126 490.718437) scale(0.1 -0.1)">
       <defs>
        <path id="DejaVuSans-4e" d="M 628 4666 
L 1478 4666 
L 3547 763 
L 3547 4666 
L 4159 4666 
L 4159 0 
L 3309 0 
L 1241 3903 
L 1241 0 
L 628 0 
L 628 4666 
z
" transform="scale(0.015625)"/>
        <path id="DejaVuSans-6f" d="M 1959 3097 
Q 1497 3097 1228 2736 
Q 959 2375 959 1747 
Q 959 1119 1226 758 
Q 1494 397 1959 397 
Q 2419 397 2687 759 
Q 2956 1122 2956 1747 
Q 2956 2369 2687 2733 
Q 2419 3097 1959 3097 
z
M 1959 3584 
Q 2709 3584 3137 3096 
Q 3566 2609 3566 1747 
Q 3566 888 3137 398 
Q 2709 -91 1959 -91 
Q 1206 -91 779 398 
Q 353 888 353 1747 
Q 353 2609 779 3096 
Q 1206 3584 1959 3584 
z
" transform="scale(0.015625)"/>
        <path id="DejaVuSans-76" d="M 191 3500 
L 800 3500 
L 1894 563 
L 2988 3500 
L 3597 3500 
L 2284 0 
L 1503 0 
L 191 3500 
z
" transform="scale(0.015625)"/>
       </defs>
       <use xlink:href="#DejaVuSans-4e"/>
       <use xlink:href="#DejaVuSans-6f" x="74.804688"/>
       <use xlink:href="#DejaVuSans-76" x="135.986328"/>
       <use xlink:href="#DejaVuSans-20" x="195.166016"/>
       <use xlink:href="#DejaVuSans-31" x="226.953125"/>
      </g>
     </g>
    </g>
   </g>
   <g id="matplotlib.axis_2">
    <g id="ytick_1">
     <g id="line2d_13">
      <path d="M 82.37 455.7 
L 709.2 455.7 
" clip-path="url(#pa8b7688738)" style="fill: none; stroke: #b0b0b0; stroke-width: 0.8; stroke-linecap: square"/>
     </g>
     <g id="line2d_14">
      <defs>
       <path id="m82de97f90c" d="M 0 0 
L -3.5 0 
" style="stroke: #000000; stroke-width: 0.8"/>
      </defs>
      <g>
       <use xlink:href="#m82de97f90c" x="82.37" y="455.7" style="stroke: #000000; stroke-width: 0.8"/>
      </g>
     </g>
     <g id="text_7">
      <!-- 0 -->
      <g transform="translate(69.0075 459.499219) scale(0.1 -0.1)">
       <defs>
        <path id="DejaVuSans-30" d="M 2034 4250 
Q 1547 4250 1301 3770 
Q 1056 3291 1056 2328 
Q 1056 1369 1301 889 
Q 1547 409 2034 409 
Q 2525 409 2770 889 
Q 3016 1369 3016 2328 
Q 3016 3291 2770 3770 
Q 2525 4250 2034 4250 
z
M 2034 4750 
Q 2819 4750 3233 4129 
Q 3647 3509 3647 2328 
Q 3647 1150 3233 529 
Q 2819 -91 2034 -91 
Q 1250 -91 836 529 
Q 422 1150 422 2328 
Q 422 3509 836 4129 
Q 1250 4750 2034 4750 
z
" transform="scale(0.015625)"/>
       </defs>
       <use xlink:href="#DejaVuSans-30"/>
      </g>
     </g>
    </g>
    <g id="ytick_2">
     <g id="line2d_15">
      <path d="M 82.37 362.481615 
L 709.2 362.481615 
" clip-path="url(#pa8b7688738)" style="fill: none; stroke: #b0b0b0; stroke-width: 0.8; stroke-linecap: square"/>
     </g>
     <g id="line2d_16">
      <g>
       <use xlink:href="#m82de97f90c" x="82.37" y="362.481615" style="stroke: #000000; stroke-width: 0.8"/>
      </g>
     </g>
     <g id="text_8">
      <!-- 500,000 -->
      <g transform="translate(34.016875 366.280833) scale(0.1 -0.1)">
       <defs>
        <path id="DejaVuSans-35" d="M 691 4666 
L 3169 4666 
L 3169 4134 
L 1269 4134 
L 1269 2991 
Q 1406 3038 1543 3061 
Q 1681 3084 1819 3084 
Q 2600 3084 3056 2656 
Q 3513 2228 3513 1497 
Q 3513 744 3044 326 
Q 2575 -91 1722 -91 
Q 1428 -91 1123 -41 
Q 819 9 494 109 
L 494 744 
Q 775 591 1075 516 
Q 1375 441 1709 441 
Q 2250 441 2565 725 
Q 2881 1009 2881 1497 
Q 2881 1984 2565 2268 
Q 2250 2553 1709 2553 
Q 1456 2553 1204 2497 
Q 953 2441 691 2322 
L 691 4666 
z
" transform="scale(0.015625)"/>
        <path id="DejaVuSans-2c" d="M 750 794 
L 1409 794 
L 1409 256 
L 897 -744 
L 494 -744 
L 750 256 
L 750 794 
z
" transform="scale(0.015625)"/>
       </defs>
       <use xlink:href="#DejaVuSans-35"/>
       <use xlink:href="#DejaVuSans-30" x="63.623047"/>
       <use xlink:href="#DejaVuSans-30" x="127.246094"/>
       <use xlink:href="#DejaVuSans-2c" x="190.869141"/>
       <use xlink:href="#DejaVuSans-30" x="222.65625"/>
       <use xlink:href="#DejaVuSans-30" x="286.279297"/>
       <use xlink:href="#DejaVuSans-30" x="349.902344"/>
      </g>
     </g>
    </g>
    <g id="ytick_3">
     <g id="line2d_17">
      <path d="M 82.37 269.263229 
L 709.2 269.263229 
" clip-path="url(#pa8b7688738)" style="fill: none; stroke: #b0b0b0; stroke-width: 0.8; stroke-linecap: square"/>
     </g>
     <g id="line2d_18">
      <g>
       <use xlink:href="#m82de97f90c" x="82.37" y="269.263229" style="stroke: #000000; stroke-width: 0.8"/>
      </g>
     </g>
     <g id="text_9">
      <!-- 1,000,000 -->
      <g transform="translate(24.47625 273.062448) scale(0.1 -0.1)">
       <use xlink:href="#DejaVuSans-31"/>
       <use xlink:href="#DejaVuSans-2c" x="63.623047"/>
       <use xlink:href="#DejaVuSans-30" x="95.410156"/>
       <use xlink:href="#DejaVuSans-30" x="159.033203"/>
       <use xlink:href="#DejaVuSans-30" x="222.65625"/>
       <use xlink:href="#DejaVuSans-2c" x="286.279297"/>
       <use xlink:href="#DejaVuSans-30" x="318.066406"/>
       <use xlink:href="#DejaVuSans-30" x="381.689453"/>
       <use xlink:href="#DejaVuSans-30" x="445.3125"/>
      </g>
     </g>
    </g>
    <g id="ytick_4">
     <g id="line2d_19">
      <path d="M 82.37 176.044844 
L 709.2 176.044844 
" clip-path="url(#pa8b7688738)" style="fill: none; stroke: #b0b0b0; stroke-width: 0.8; stroke-linecap: square"/>
     </g>
     <g id="line2d_20">
      <g>
       <use xlink:href="#m82de97f90c" x="82.37" y="176.044844" style="stroke: #000000; stroke-width: 0.8"/>
      </g>
     </g>
     <g id="text_10">
      <!-- 1,500,000 -->
      <g transform="translate(24.47625 179.844063) scale(0.1 -0.1)">
       <use xlink:href="#DejaVuSans-31"/>
       <use xlink:href="#DejaVuSans-2c" x="63.623047"/>
       <use xlink:href="#DejaVuSans-35" x="95.410156"/>
       <use xlink:href="#DejaVuSans-30" x="159.033203"/>
       <use xlink:href="#DejaVuSans-30" x="222.65625"/>
       <use xlink:href="#DejaVuSans-2c" x="286.279297"/>
       <use xlink:href="#DejaVuSans-30" x="318.066406"/>
       <use xlink:href="#DejaVuSans-30" x="381.689453"/>
       <use xlink:href="#DejaVuSans-30" x="445.3125"/>
      </g>
     </g>
    </g>
    <g id="ytick_5">
     <g id="line2d_21">
      <path d="M 82.37 82.826459 
L 709.2 82.826459 
" clip-path="url(#pa8b7688738)" style="fill: none; stroke: #b0b0b0; stroke-width: 0.8; stroke-linecap: square"/>
     </g>
     <g id="line2d_22">
      <g>
       <use xlink:href="#m82de97f90c" x="82.37" y="82.826459" style="stroke: #000000; stroke-width: 0.8"/>
      </g>
     </g>
     <g id="text_11">
      <!-- 2,000,000 -->
      <g transform="translate(24.47625 86.625678) scale(0.1 -0.1)">
       <defs>
        <path id="DejaVuSans-32" d="M 1228 531 
L 3431 531 
L 3431 0 
L 469 0 
L 469 531 
Q 828 903 1448 1529 
Q 2069 2156 2228 2338 
Q 2531 2678 2651 2914 
Q 2772 3150 2772 3378 
Q 2772 3750 2511 3984 
Q 2250 4219 1831 4219 
Q 1534 4219 1204 4116 
Q 875 4013 500 3803 
L 500 4441 
Q 881 4594 1212 4672 
Q 1544 4750 1819 4750 
Q 2544 4750 2975 4387 
Q 3406 4025 3406 3419 
Q 3406 3131 3298 2873 
Q 3191 2616 2906 2266 
Q 2828 2175 2409 1742 
Q 1991 1309 1228 531 
z
" transform="scale(0.015625)"/>
       </defs>
       <use xlink:href="#DejaVuSans-32"/>
       <use xlink:href="#DejaVuSans-2c" x="63.623047"/>
       <use xlink:href="#DejaVuSans-30" x="95.410156"/>
       <use xlink:href="#DejaVuSans-30" x="159.033203"/>
       <use xlink:href="#DejaVuSans-30" x="222.65625"/>
       <use xlink:href="#DejaVuSans-2c" x="286.279297"/>
       <use xlink:href="#DejaVuSans-30" x="318.066406"/>
       <use xlink:href="#DejaVuSans-30" x="381.689453"/>
       <use xlink:href="#DejaVuSans-30" x="445.3125"/>
      </g>
     </g>
    </g>
    <g id="text_12">
     <!-- Cumulative Payload Mass (kg) -->
     <g transform="translate(18.396562 326.863281) rotate(-90) scale(0.1 -0.1)">
      <defs>
       <path id="DejaVuSans-43" d="M 4122 4306 
L 4122 3641 
Q 3803 3938 3442 4084 
Q 3081 4231 2675 4231 
Q 1875 4231 1450 3742 
Q 1025 3253 1025 2328 
Q 1025 1406 1450 917 
Q 1875 428 2675 428 
Q 3081 428 3442 575 
Q 3803 722 4122 1019 
L 4122 359 
Q 3791 134 3420 21 
Q 3050 -91 2638 -91 
Q 1578 -91 968 557 
Q 359 1206 359 2328 
Q 359 3453 968 4101 
Q 1578 4750 2638 4750 
Q 3056 4750 3426 4639 
Q 3797 4528 4122 4306 
z
" transform="scale(0.015625)"/>
       <path id="DejaVuSans-6d" d="M 3328 2828 
Q 3544 3216 3844 3400 
Q 4144 3584 4550 3584 
Q 5097 3584 5394 3201 
Q 5691 2819 5691 2113 
L 5691 0 
L 5113 0 
L 5113 2094 
Q 5113 2597 4934 2840 
Q 4756 3084 4391 3084 
Q 3944 3084 3684 2787 
Q 3425 2491 3425 1978 
L 3425 0 
L 2847 0 
L 2847 2094 
Q 2847 2600 2669 2842 
Q 2491 3084 2119 3084 
Q 1678 3084 1418 2786 
Q 1159 2488 1159 1978 
L 1159 0 
L 581 0 
L 581 3500 
L 1159 3500 
L 1159 2956 
Q 1356 3278 1631 3431 
Q 1906 3584 2284 3584 
Q 2666 3584 2933 3390 
Q 3200 3197 3328 2828 
z
" transform="scale(0.015625)"/>
       <path id="DejaVuSans-74" d="M 1172 4494 
L 1172 3500 
L 2356 3500 
L 2356 3053 
L 1172 3053 
L 1172 1153 
Q 1172 725 1289 603 
Q 1406 481 1766 481 
L 2356 481 
L 2356 0 
L 1766 0 
Q 1100 0 847 248 
Q 594 497 594 1153 
L 594 3053 
L 172 3053 
L 172 3500 
L 594 3500 
L 594 4494 
L 1172 4494 
z
" transform="scale(0.015625)"/>
       <path id="DejaVuSans-69" d="M 603 3500 
L 1178 3500 
L 1178 0 
L 603 0 
L 603 3500 
z
M 603 4863 
L 1178 4863 
L 1178 4134 
L 603 4134 
L 603 4863 
z
" transform="scale(0.015625)"/>
       <path id="DejaVuSans-50" d="M 1259 4147 
L 1259 2394 
L 2053 2394 
Q 2494 2394 2734 2622 
Q 2975 2850 2975 3272 
Q 2975 3691 2734 3919 
Q 2494 4147 2053 4147 
L 1259 4147 
z
M 628 4666 
L 2053 4666 
Q 2838 4666 3239 4311 
Q 3641 3956 3641 3272 
Q 3641 2581 3239 2228 
Q 2838 1875 2053 1875 
L 1259 1875 
L 1259 0 
L 628 0 
L 628 4666 
z
" transform="scale(0.015625)"/>
       <path id="DejaVuSans-64" d="M 2906 2969 
L 2906 4863 
L 3481 4863 
L 3481 0 
L 2906 0 
L 2906 525 
Q 2725 213 2448 61 
Q 2172 -91 1784 -91 
Q 1150 -91 751 415 
Q 353 922 353 1747 
Q 353 2572 751 3078 
Q 1150 3584 1784 3584 
Q 2172 3584 2448 3432 
Q 2725 3281 2906 2969 
z
M 947 1747 
Q 947 1113 1208 752 
Q 1469 391 1925 391 
Q 2381 391 2643 752 
Q 2906 1113 2906 1747 
Q 2906 2381 2643 2742 
Q 2381 3103 1925 3103 
Q 1469 3103 1208 2742 
Q 947 2381 947 1747 
z
" transform="scale(0.015625)"/>
       <path id="DejaVuSans-73" d="M 2834 3397 
L 2834 2853 
Q 2591 2978 2328 3040 
Q 2066 3103 1784 3103 
Q 1356 3103 1142 2972 
Q 928 2841 928 2578 
Q 928 2378 1081 2264 
Q 1234 2150 1697 2047 
L 1894 2003 
Q 2506 1872 2764 1633 
Q 3022 1394 3022 966 
Q 3022 478 2636 193 
Q 2250 -91 1575 -91 
Q 1294 -91 989 -36 
Q 684 19 347 128 
L 347 722 
Q 666 556 975 473 
Q 1284 391 1588 391 
Q 1994 391 2212 530 
Q 2431 669 2431 922 
Q 2431 1156 2273 1281 
Q 2116 1406 1581 1522 
L 1381 1569 
Q 847 1681 609 1914 
Q 372 2147 372 2553 
Q 372 3047 722 3315 
Q 1072 3584 1716 3584 
Q 2034 3584 2315 3537 
Q 2597 3491 2834 3397 
z
" transform="scale(0.015625)"/>
       <path id="DejaVuSans-28" d="M 1984 4856 
Q 1566 4138 1362 3434 
Q 1159 2731 1159 2009 
Q 1159 1288 1364 580 
Q 1569 -128 1984 -844 
L 1484 -844 
Q 1016 -109 783 600 
Q 550 1309 550 2009 
Q 550 2706 781 3412 
Q 1013 4119 1484 4856 
L 1984 4856 
z
" transform="scale(0.015625)"/>
       <path id="DejaVuSans-6b" d="M 581 4863 
L 1159 4863 
L 1159 1991 
L 2875 3500 
L 3609 3500 
L 1753 1863 
L 3688 0 
L 2938 0 
L 1159 1709 
L 1159 0 
L 581 0 
L 581 4863 
z
" transform="scale(0.015625)"/>
       <path id="DejaVuSans-67" d="M 2906 1791 
Q 2906 2416 2648 2759 
Q 2391 3103 1925 3103 
Q 1463 3103 1205 2759 
Q 947 2416 947 1791 
Q 947 1169 1205 825 
Q 1463 481 1925 481 
Q 2391 481 2648 825 
Q 2906 1169 2906 1791 
z
M 3481 434 
Q 3481 -459 3084 -895 
Q 2688 -1331 1869 -1331 
Q 1566 -1331 1297 -1286 
Q 1028 -1241 775 -1147 
L 775 -588 
Q 1028 -725 1275 -790 
Q 1522 -856 1778 -856 
Q 2344 -856 2625 -561 
Q 2906 -266 2906 331 
L 2906 616 
Q 2728 306 2450 153 
Q 2172 0 1784 0 
Q 1141 0 747 490 
Q 353 981 353 1791 
Q 353 2603 747 3093 
Q 1141 3584 1784 3584 
Q 2172 3584 2450 3431 
Q 2728 3278 2906 2969 
L 2906 3500 
L 3481 3500 
L 3481 434 
z
" transform="scale(0.015625)"/>
       <path id="DejaVuSans-29" d="M 513 4856 
L 1013 4856 
Q 1481 4119 1714 3412 
Q 1947 2706 1947 2009 
Q 1947 1309 1714 600 
Q 1481 -109 1013 -844 
L 513 -844 
Q 928 -128 1133 580 
Q 1338 1288 1338 2009 
Q 1338 2731 1133 3434 
Q 928 4138 513 4856 
z
" transform="scale(0.015625)"/>
      </defs>
      <use xlink:href="#DejaVuSans-43"/>
      <use xlink:href="#DejaVuSans-75" x="69.824219"/>
      <use xlink:href="#DejaVuSans-6d" x="133.203125"/>
      <use xlink:href="#DejaVuSans-75" x="230.615234"/>
      <use xlink:href="#DejaVuSans-6c" x="293.994141"/>
      <use xlink:href="#DejaVuSans-61" x="321.777344"/>
      <use xlink:href="#DejaVuSans-74" x="383.056641"/>
      <use xlink:href="#DejaVuSans-69" x="422.265625"/>
      <use xlink:href="#DejaVuSans-76" x="450.048828"/>
      <use xlink:href="#DejaVuSans-65" x="509.228516"/>
      <use xlink:href="#DejaVuSans-20" x="570.751953"/>
      <use xlink:href="#DejaVuSans-50" x="602.539062"/>
      <use xlink:href="#DejaVuSans-61" x="658.341797"/>
      <use xlink:href="#DejaVuSans-79" x="719.621094"/>
      <use xlink:href="#DejaVuSans-6c" x="778.800781"/>
      <use xlink:href="#DejaVuSans-6f" x="806.583984"/>
      <use xlink:href="#DejaVuSans-61" x="867.765625"/>
      <use xlink:href="#DejaVuSans-64" x="929.044922"/>
      <use xlink:href="#DejaVuSans-20" x="992.521484"/>
      <use xlink:href="#DejaVuSans-4d" x="1024.308594"/>
      <use xlink:href="#DejaVuSans-61" x="1110.587891"/>
      <use xlink:href="#DejaVuSans-73" x="1171.867188"/>
      <use xlink:href="#DejaVuSans-73" x="1223.966797"/>
      <use xlink:href="#DejaVuSans-20" x="1276.066406"/>
      <use xlink:href="#DejaVuSans-28" x="1307.853516"/>
      <use xlink:href="#DejaVuSans-6b" x="1346.867188"/>
      <use xlink:href="#DejaVuSans-67" x="1404.777344"/>
      <use xlink:href="#DejaVuSans-29" x="1468.253906"/>
     </g>
    </g>
   </g>
   <g id="line2d_23">
    <path d="M 106.728679 455.7 
L 127.839534 455.7 
L 127.839534 453.910207 
L 186.300363 453.910207 
L 186.300363 453.445979 
L 226.898161 453.445979 
L 226.898161 452.401934 
L 249.632927 452.401934 
L 249.632927 451.413819 
L 301.598109 451.413819 
L 301.598109 451.413819 
L 324.332876 451.413819 
L 324.332876 450.282147 
L 355.187202 450.282147 
L 355.187202 449.777277 
L 387.66544 449.777277 
L 387.66544 449.09324 
L 390.913264 449.09324 
L 390.913264 447.303447 
L 407.152383 447.303447 
L 407.152383 446.042948 
L 472.10886 446.042948 
L 472.10886 445.425842 
L 488.347979 445.425842 
L 488.347979 445.337285 
L 511.082746 445.337285 
L 511.082746 444.406965 
L 563.047927 444.406965 
L 563.047927 442.617172 
L 566.295751 442.617172 
L 566.295751 441.610414 
L 597.150078 441.610414 
L 597.150078 440.957885 
L 671.850026 440.957885 
L 671.850026 440.546792 
L 684.841321 440.546792 
L 684.841321 438.756999 
L 697.832617 438.756999 
L 697.832617 438.756999 
" clip-path="url(#pa8b7688738)" style="fill: none; stroke: #808080; stroke-width: 1.5; stroke-linecap: square"/>
   </g>
   <g id="line2d_24">
    <path d="M 106.728679 455.7 
L 118.096062 455.7 
L 118.096062 455.7 
L 155.446036 455.7 
L 155.446036 454.911372 
L 165.189508 454.911372 
L 165.189508 454.678326 
L 191.172098 454.678326 
L 191.172098 454.277487 
L 210.659041 454.277487 
L 210.659041 453.141715 
L 249.632927 453.141715 
L 249.632927 451.351922 
L 254.504663 451.351922 
L 254.504663 450.858424 
L 280.487254 450.858424 
L 280.487254 450.790933 
L 317.837228 450.790933 
L 317.837228 450.119761 
L 335.700259 450.119761 
L 335.700259 448.915379 
L 356.811114 448.915379 
L 356.811114 447.911604 
L 397.408912 447.911604 
L 397.408912 447.408784 
L 434.758886 447.408784 
L 434.758886 446.089744 
L 439.630622 446.089744 
L 439.630622 444.299951 
L 460.741477 444.299951 
L 460.741477 443.218618 
L 515.954482 443.218618 
L 515.954482 441.902374 
L 561.424016 441.902374 
L 561.424016 441.343064 
L 623.132668 441.343064 
L 623.132668 440.354949 
L 652.363083 440.354949 
L 652.363083 439.609202 
L 655.610907 439.609202 
L 655.610907 439.14311 
L 684.841321 439.14311 
L 684.841321 438.322788 
L 697.832617 438.322788 
L 697.832617 438.322788 
" clip-path="url(#pa8b7688738)" style="fill: none; stroke: #90ee90; stroke-width: 1.5; stroke-linecap: square"/>
   </g>
   <g id="line2d_25">
    <path d="M 106.728679 455.7 
L 122.967798 455.7 
L 122.967798 453.910207 
L 191.172098 453.910207 
L 191.172098 453.005989 
L 204.163394 453.005989 
L 204.163394 450.758493 
L 269.11987 450.758493 
L 269.11987 449.55318 
L 306.469845 449.55318 
L 306.469845 449.08802 
L 338.948083 449.08802 
L 338.948083 446.548751 
L 369.802409 446.548751 
L 369.802409 445.765717 
L 390.913264 445.765717 
L 390.913264 445.075901 
L 439.630622 445.075901 
L 439.630622 444.653062 
L 459.117565 444.653062 
L 459.117565 443.441223 
L 616.637021 443.441223 
L 616.637021 440.532809 
L 655.610907 440.532809 
L 655.610907 440.044904 
L 675.09785 440.044904 
L 675.09785 438.74805 
L 697.832617 438.74805 
L 697.832617 438.74805 
" clip-path="url(#pa8b7688738)" style="fill: none; stroke: #add8e6; stroke-width: 1.5; stroke-linecap: square"/>
   </g>
   <g id="line2d_26">
    <path d="M 106.728679 455.7 
L 116.47215 455.7 
L 116.47215 452.791586 
L 135.959093 452.791586 
L 135.959093 450.545023 
L 152.198212 450.545023 
L 152.198212 447.63661 
L 183.052539 447.63661 
L 183.052539 444.728196 
L 213.906865 444.728196 
L 213.906865 444.359611 
L 231.769896 444.359611 
L 231.769896 441.451197 
L 288.606813 441.451197 
L 288.606813 438.542783 
L 350.315466 438.542783 
L 350.315466 436.206731 
L 358.435026 436.206731 
L 358.435026 433.298317 
L 373.050233 433.298317 
L 373.050233 430.425326 
L 400.656736 430.425326 
L 400.656736 429.621597 
L 433.134974 429.621597 
L 433.134974 428.596195 
L 462.365389 428.596195 
L 462.365389 425.812321 
L 480.22842 425.812321 
L 480.22842 422.933738 
L 499.715363 422.933738 
L 499.715363 422.35019 
L 506.21101 422.35019 
L 506.21101 419.441777 
L 559.800104 419.441777 
L 559.800104 416.533363 
L 579.287047 416.533363 
L 579.287047 413.62495 
L 589.030518 413.62495 
L 589.030518 410.716536 
L 608.517461 410.716536 
L 608.517461 409.912807 
L 626.380492 409.912807 
L 626.380492 407.582347 
L 634.500052 407.582347 
L 634.500052 407.360115 
L 640.995699 407.360115 
L 640.995699 404.451701 
L 658.858731 404.451701 
L 658.858731 403.897611 
L 670.226114 403.897611 
L 670.226114 402.592554 
L 679.969585 402.592554 
L 679.969585 402.592554 
L 699.456528 402.592554 
L 699.456528 402.592554 
" clip-path="url(#pa8b7688738)" style="fill: none; stroke: #ffc0cb; stroke-width: 1.5; stroke-linecap: square"/>
   </g>
   <g id="line2d_27">
    <path d="M 106.728679 455.7 
L 118.096062 455.7 
L 118.096062 455.047471 
L 137.583005 455.047471 
L 137.583005 452.139058 
L 144.078653 452.139058 
L 144.078653 451.206874 
L 161.941684 451.206874 
L 161.941684 448.29846 
L 181.428627 448.29846 
L 181.428627 445.390047 
L 207.411218 445.390047 
L 207.411218 442.481633 
L 218.778601 442.481633 
L 218.778601 439.573219 
L 223.650337 439.573219 
L 223.650337 436.664806 
L 239.889456 436.664806 
L 239.889456 433.756392 
L 262.624223 433.756392 
L 262.624223 430.847978 
L 288.606813 430.847978 
L 288.606813 428.4243 
L 298.350285 428.4243 
L 298.350285 425.515887 
L 306.469845 425.515887 
L 306.469845 422.607473 
L 314.589404 422.607473 
L 314.589404 419.69906 
L 324.332876 419.69906 
L 324.332876 416.820476 
L 342.195907 416.820476 
L 342.195907 413.912062 
L 355.187202 413.912062 
L 355.187202 413.291601 
L 360.058938 413.291601 
L 360.058938 411.986543 
L 377.921969 411.986543 
L 377.921969 411.179086 
L 399.032824 411.179086 
L 399.032824 411.179086 
L 496.467539 411.179086 
L 496.467539 410.768925 
L 522.45013 410.768925 
L 522.45013 408.296773 
L 525.697953 408.296773 
L 525.697953 405.962771 
L 616.637021 405.962771 
L 616.637021 403.539093 
L 619.884845 403.539093 
L 619.884845 400.624154 
L 637.747876 400.624154 
L 637.747876 400.507818 
L 650.739171 400.507818 
L 650.739171 397.804485 
L 662.106554 397.804485 
L 662.106554 397.743893 
L 676.721762 397.743893 
L 676.721762 394.835479 
L 678.345674 394.835479 
L 678.345674 393.996514 
L 681.593497 393.996514 
L 681.593497 393.439254 
L 697.832617 393.439254 
L 697.832617 393.439254 
" clip-path="url(#pa8b7688738)" style="fill: none; stroke: #800080; stroke-width: 1.5; stroke-linecap: square"/>
   </g>
   <g id="line2d_28">
    <path d="M 106.728679 455.7 
L 114.848238 455.7 
L 114.848238 452.996667 
L 126.215622 452.996667 
L 126.215622 452.996667 
L 135.959093 452.996667 
L 135.959093 450.293334 
L 155.446036 450.293334 
L 155.446036 449.882241 
L 158.69386 449.882241 
L 158.69386 449.882241 
L 160.317772 449.882241 
L 160.317772 447.178907 
L 189.548187 447.178907 
L 189.548187 444.643367 
L 196.043834 444.643367 
L 196.043834 441.893425 
L 205.787306 441.893425 
L 205.787306 439.301954 
L 215.530777 439.301954 
L 215.530777 436.662009 
L 231.769896 436.662009 
L 231.769896 433.632412 
L 252.880751 433.632412 
L 252.880751 433.632412 
L 264.248135 433.632412 
L 264.248135 431.208734 
L 278.863342 431.208734 
L 278.863342 431.208734 
L 285.35899 431.208734 
L 285.35899 428.179136 
L 295.102461 428.179136 
L 295.102461 425.755458 
L 298.350285 425.755458 
L 298.350285 422.725861 
L 309.717668 422.725861 
L 309.717668 419.696263 
L 321.085052 419.696263 
L 321.085052 416.666666 
L 322.708964 416.666666 
L 322.708964 413.637068 
L 329.204611 413.637068 
L 329.204611 410.60747 
L 340.571995 410.60747 
L 340.571995 410.60747 
L 363.306762 410.60747 
L 363.306762 409.84308 
L 377.921969 409.84308 
L 377.921969 406.813482 
L 379.545881 406.813482 
L 379.545881 406.067735 
L 381.169793 406.067735 
L 381.169793 405.937229 
L 397.408912 405.937229 
L 397.408912 405.284701 
L 410.400207 405.284701 
L 410.400207 402.255103 
L 416.895855 402.255103 
L 416.895855 399.626345 
L 423.391503 399.626345 
L 423.391503 399.128931 
L 426.639326 399.128931 
L 426.639326 396.099334 
L 434.758886 396.099334 
L 434.758886 393.470575 
L 438.00671 393.470575 
L 438.00671 390.440978 
L 455.869741 390.440978 
L 455.869741 390.314387 
L 465.613212 390.314387 
L 465.613212 387.331399 
L 468.861036 387.331399 
L 468.861036 384.702641 
L 480.22842 384.702641 
L 480.22842 381.673043 
L 494.843627 381.673043 
L 494.843627 378.559549 
L 499.715363 378.559549 
L 499.715363 375.912147 
L 507.834922 375.912147 
L 507.834922 372.929158 
L 517.578394 372.929158 
L 517.578394 370.703476 
L 530.569689 370.703476 
L 530.569689 367.589982 
L 538.689249 367.589982 
L 538.689249 364.58835 
L 556.55228 364.58835 
L 556.55228 362.164672 
L 556.55228 362.164672 
L 556.55228 359.16304 
L 561.424016 359.16304 
L 561.424016 357.79273 
L 572.791399 357.79273 
L 572.791399 356.953764 
L 580.910959 356.953764 
L 580.910959 353.84027 
L 593.902254 353.84027 
L 593.902254 350.782707 
L 600.397902 350.782707 
L 600.397902 350.083569 
L 603.645725 350.083569 
L 603.645725 349.244604 
L 618.260933 349.244604 
L 618.260933 348.014121 
L 636.123964 348.014121 
L 636.123964 346.988719 
L 640.995699 346.988719 
L 640.995699 346.33097 
L 660.482642 346.33097 
L 660.482642 345.21235 
L 665.354378 345.21235 
L 665.354378 345.025913 
L 673.473938 345.025913 
L 673.473938 344.615752 
L 673.473938 344.615752 
L 673.473938 343.851361 
L 675.09785 343.851361 
L 675.09785 340.737867 
L 692.960881 340.737867 
L 692.960881 337.624373 
L 696.208705 337.624373 
L 696.208705 337.549798 
L 697.832617 337.549798 
L 697.832617 337.549798 
" clip-path="url(#pa8b7688738)" style="fill: none; stroke: #ffa500; stroke-width: 1.5; stroke-linecap: square"/>
   </g>
   <g id="line2d_29">
    <path d="M 106.728679 455.7 
L 121.343886 455.7 
L 121.343886 454.581379 
L 129.463446 454.581379 
L 129.463446 453.882241 
L 134.335181 453.882241 
L 134.335181 453.070869 
L 135.959093 453.070869 
L 135.959093 450.274317 
L 147.326477 450.274317 
L 147.326477 447.030317 
L 155.446036 447.030317 
L 155.446036 444.196478 
L 158.69386 444.196478 
L 158.69386 441.120272 
L 166.81342 441.120272 
L 166.81342 440.347305 
L 174.932979 440.347305 
L 174.932979 437.159236 
L 183.052539 437.159236 
L 183.052539 434.194891 
L 184.676451 434.194891 
L 184.676451 433.175082 
L 199.291658 433.175082 
L 199.291658 430.3226 
L 204.163394 430.3226 
L 204.163394 427.898922 
L 205.787306 427.898922 
L 205.787306 424.934577 
L 215.530777 424.934577 
L 215.530777 423.815956 
L 225.274249 423.815956 
L 225.274249 423.284239 
L 228.522073 423.284239 
L 228.522073 418.958906 
L 239.889456 418.958906 
L 239.889456 415.714906 
L 248.009016 415.714906 
L 248.009016 412.470906 
L 262.624223 412.470906 
L 262.624223 411.429097 
L 282.111166 411.429097 
L 282.111166 408.576615 
L 295.102461 408.576615 
L 295.102461 405.947856 
L 296.726373 405.947856 
L 296.726373 405.183466 
L 301.598109 405.183466 
L 301.598109 403.99027 
L 306.469845 403.99027 
L 306.469845 400.74627 
L 316.213316 400.74627 
L 316.213316 397.781926 
L 322.708964 397.781926 
L 322.708964 394.537926 
L 330.828523 394.537926 
L 330.828523 391.536294 
L 332.452435 391.536294 
L 332.452435 390.305811 
L 334.076347 390.305811 
L 334.076347 387.882133 
L 343.819819 387.882133 
L 343.819819 387.043168 
L 350.315466 387.043168 
L 350.315466 383.985605 
L 356.811114 383.985605 
L 356.811114 380.983973 
L 358.435026 380.983973 
L 358.435026 380.367986 
L 369.802409 380.367986 
L 369.802409 377.310423 
L 369.802409 377.310423 
L 379.545881 377.310423 
L 379.545881 376.456542 
L 386.041528 376.456542 
L 386.041528 373.753209 
L 387.66544 373.753209 
L 387.66544 370.509209 
L 400.656736 370.509209 
L 400.656736 370.106506 
L 410.400207 370.106506 
L 410.400207 367.328598 
L 415.271943 367.328598 
L 415.271943 364.326966 
L 425.015415 364.326966 
L 425.015415 361.213472 
L 431.511062 361.213472 
L 431.511062 358.976231 
L 438.00671 358.976231 
L 438.00671 355.974599 
L 444.502358 355.974599 
L 444.502358 352.972967 
L 446.126269 352.972967 
L 446.126269 351.257748 
L 454.245829 351.257748 
L 454.245829 350.313819 
L 460.741477 350.313819 
L 460.741477 347.312187 
L 462.365389 347.312187 
L 462.365389 345.074946 
L 467.237124 345.074946 
L 467.237124 342.073314 
L 476.980596 342.073314 
L 476.980596 339.071682 
L 485.100155 339.071682 
L 485.100155 336.219199 
L 491.595803 336.219199 
L 491.595803 333.795521 
L 493.219715 333.795521 
L 493.219715 330.793889 
L 501.339275 330.793889 
L 501.339275 327.792257 
L 506.21101 327.792257 
L 506.21101 324.939774 
L 514.33057 324.939774 
L 514.33057 321.938142 
L 519.202306 321.938142 
L 519.202306 319.08566 
L 525.697953 319.08566 
L 525.697953 316.084028 
L 532.193601 316.084028 
L 532.193601 313.082396 
L 538.689249 313.082396 
L 538.689249 310.080764 
L 540.313161 310.080764 
L 540.313161 307.228281 
L 548.43272 307.228281 
L 548.43272 304.226649 
L 556.55228 304.226649 
L 556.55228 301.225017 
L 563.047927 301.225017 
L 563.047927 298.372535 
L 569.543575 298.372535 
L 569.543575 294.884675 
L 577.663135 294.884675 
L 577.663135 291.883043 
L 582.53487 291.883043 
L 582.53487 289.030561 
L 584.158782 289.030561 
L 584.158782 285.898423 
L 595.526166 285.898423 
L 595.526166 282.896791 
L 597.150078 282.896791 
L 597.150078 279.764653 
L 605.269637 279.764653 
L 605.269637 276.632516 
L 611.765285 276.632516 
L 611.765285 273.500378 
L 615.013109 273.500378 
L 615.013109 271.724568 
L 618.260933 271.724568 
L 618.260933 270.960177 
L 628.004404 270.960177 
L 628.004404 267.828039 
L 628.004404 267.828039 
L 631.252228 267.828039 
L 631.252228 264.826407 
L 634.500052 264.826407 
L 634.500052 261.694269 
L 644.243523 261.694269 
L 644.243523 258.562132 
L 649.115259 258.562132 
L 649.115259 258.412982 
L 652.363083 258.412982 
L 652.363083 255.280844 
L 658.858731 255.280844 
L 658.858731 252.148707 
L 660.482642 252.148707 
L 660.482642 249.147075 
L 678.345674 249.147075 
L 678.345674 246.014937 
L 684.841321 246.014937 
L 684.841321 242.882799 
L 686.465233 242.882799 
L 686.465233 242.211627 
L 694.584793 242.211627 
L 694.584793 237.895616 
L 697.832617 237.895616 
L 697.832617 237.895616 
" clip-path="url(#pa8b7688738)" style="fill: none; stroke: #0000ff; stroke-width: 1.5; stroke-linecap: square"/>
   </g>
   <g id="line2d_30">
    <path d="M 106.728679 455.7 
L 109.976503 455.7 
L 109.976503 452.232276 
L 116.47215 452.232276 
L 116.47215 449.044207 
L 127.839534 449.044207 
L 127.839534 445.930713 
L 129.463446 445.930713 
L 129.463446 442.742644 
L 134.335181 442.742644 
L 134.335181 440.318966 
L 144.078653 440.318966 
L 144.078653 437.205472 
L 152.198212 437.205472 
L 152.198212 430.90391 
L 153.822124 430.90391 
L 153.822124 430.209246 
L 168.437332 430.209246 
L 168.437332 429.893422 
L 171.685155 429.893422 
L 171.685155 426.779928 
L 179.804715 426.779928 
L 179.804715 423.306425 
L 187.924275 423.306425 
L 187.924275 422.560678 
L 192.79601 422.560678 
L 192.79601 419.447184 
L 196.043834 419.447184 
L 196.043834 416.18454 
L 202.539482 416.18454 
L 202.539482 412.996471 
L 209.03513 412.996471 
L 209.03513 407.384724 
L 218.778601 407.384724 
L 218.778601 404.196656 
L 220.402513 404.196656 
L 220.402513 401.008587 
L 228.522073 401.008587 
L 228.522073 397.820518 
L 233.393808 397.820518 
L 233.393808 394.781599 
L 236.641632 394.781599 
L 236.641632 394.274304 
L 241.513368 394.274304 
L 241.513368 391.086236 
L 243.13728 391.086236 
L 243.13728 387.898167 
L 251.256839 387.898167 
L 251.256839 386.965983 
L 252.880751 386.965983 
L 252.880751 383.777914 
L 256.128575 383.777914 
L 256.128575 380.66442 
L 261.000311 380.66442 
L 261.000311 377.476351 
L 264.248135 377.476351 
L 264.248135 374.344214 
L 264.248135 374.344214 
L 269.11987 374.344214 
L 269.11987 371.156145 
L 270.743782 371.156145 
L 270.743782 370.932421 
L 273.991606 370.932421 
L 273.991606 367.744352 
L 280.487254 367.744352 
L 280.487254 364.556283 
L 282.111166 364.556283 
L 282.111166 361.368214 
L 290.230725 361.368214 
L 290.230725 358.180146 
L 298.350285 358.180146 
L 298.350285 354.693778 
L 304.845933 354.693778 
L 304.845933 354.414123 
L 306.469845 354.414123 
L 306.469845 351.226054 
L 311.34158 351.226054 
L 311.34158 348.037985 
L 314.589404 348.037985 
L 314.589404 344.849916 
L 317.837228 344.849916 
L 317.837228 341.810997 
L 322.708964 341.810997 
L 322.708964 338.622928 
L 324.332876 338.622928 
L 324.332876 335.584009 
L 330.828523 335.584009 
L 330.828523 332.39594 
L 338.948083 332.39594 
L 338.948083 329.207871 
L 340.571995 329.207871 
L 340.571995 326.019803 
L 347.067642 326.019803 
L 347.067642 322.393607 
L 353.56329 322.393607 
L 353.56329 319.205539 
L 360.058938 319.205539 
L 360.058938 316.166619 
L 364.930674 316.166619 
L 364.930674 310.014206 
L 382.793705 310.014206 
L 382.793705 306.975286 
L 384.417617 306.975286 
L 384.417617 306.043103 
L 389.289352 306.043103 
L 389.289352 302.929609 
L 390.913264 302.929609 
L 390.913264 299.890689 
L 392.537176 299.890689 
L 392.537176 298.958505 
L 395.785 298.958505 
L 395.785 295.770437 
L 405.528472 295.770437 
L 405.528472 292.731517 
L 413.648031 292.731517 
L 413.648031 291.939161 
L 444.502358 291.939161 
L 444.502358 288.751092 
L 446.126269 288.751092 
L 446.126269 282.486817 
L 454.245829 282.486817 
L 454.245829 279.298748 
L 457.493653 279.298748 
L 457.493653 275.391592 
L 467.237124 275.391592 
L 467.237124 272.315386 
L 470.484948 272.315386 
L 470.484948 267.779379 
L 475.356684 267.779379 
L 475.356684 267.499724 
L 483.476244 267.499724 
L 483.476244 264.38623 
L 496.467539 264.38623 
L 496.467539 261.272736 
L 501.339275 261.272736 
L 501.339275 255.045748 
L 509.458834 255.045748 
L 509.458834 251.932254 
L 517.578394 251.932254 
L 517.578394 249.508576 
L 520.826218 249.508576 
L 520.826218 248.1103 
L 522.45013 248.1103 
L 522.45013 244.996806 
L 528.945777 244.996806 
L 528.945777 244.698507 
L 533.817513 244.698507 
L 533.817513 241.659588 
L 541.937073 241.659588 
L 541.937073 238.620668 
L 546.808808 238.620668 
L 546.808808 236.19699 
L 561.424016 236.19699 
L 561.424016 235.990418 
L 572.791399 235.990418 
L 572.791399 234.859679 
L 574.415311 234.859679 
L 574.415311 228.632691 
L 579.287047 228.632691 
L 579.287047 225.593772 
L 582.53487 225.593772 
L 582.53487 225.043038 
L 587.406606 225.043038 
L 587.406606 221.854969 
L 592.278342 221.854969 
L 592.278342 218.741475 
L 598.77399 218.741475 
L 598.77399 212.514487 
L 608.517461 212.514487 
L 608.517461 211.999548 
L 611.765285 211.999548 
L 611.765285 208.811479 
L 615.013109 208.811479 
L 615.013109 205.77256 
L 618.260933 205.77256 
L 618.260933 201.857388 
L 623.132668 201.857388 
L 623.132668 195.555825 
L 628.004404 195.555825 
L 628.004404 194.810078 
L 629.628316 194.810078 
L 629.628316 190.894906 
L 634.500052 190.894906 
L 634.500052 187.632262 
L 639.371788 187.632262 
L 639.371788 184.593343 
L 640.995699 184.593343 
L 640.995699 181.405274 
L 644.243523 181.405274 
L 644.243523 178.142631 
L 649.115259 178.142631 
L 649.115259 171.878355 
L 655.610907 171.878355 
L 655.610907 168.615712 
L 657.234819 168.615712 
L 657.234819 164.271735 
L 662.106554 164.271735 
L 662.106554 161.083666 
L 670.226114 161.083666 
L 670.226114 157.970172 
L 676.721762 157.970172 
L 676.721762 156.525287 
L 683.217409 156.525287 
L 683.217409 156.376138 
L 686.465233 156.376138 
L 686.465233 153.299931 
L 696.208705 153.299931 
L 696.208705 149.888138 
L 699.456528 149.888138 
L 699.456528 149.888138 
L 699.456528 146.811931 
L 699.456528 146.811931 
" clip-path="url(#pa8b7688738)" style="fill: none; stroke: #008000; stroke-width: 1.5; stroke-linecap: square"/>
   </g>
   <g id="line2d_31">
    <path d="M 106.728679 455.7 
L 111.600415 455.7 
L 111.600415 454.767816 
L 114.848238 454.767816 
L 114.848238 451.505173 
L 118.096062 451.505173 
L 118.096062 448.428966 
L 121.343886 448.428966 
L 121.343886 448.428966 
L 121.343886 445.352759 
L 126.215622 445.352759 
L 126.215622 442.276553 
L 127.839534 442.276553 
L 127.839534 441.903679 
L 129.463446 441.903679 
L 129.463446 441.434418 
L 139.206917 441.434418 
L 139.206917 435.692165 
L 144.078653 435.692165 
L 144.078653 432.504096 
L 148.950389 432.504096 
L 148.950389 429.42789 
L 153.822124 429.42789 
L 153.822124 428.290625 
L 157.069948 428.290625 
L 157.069948 425.177131 
L 161.941684 425.177131 
L 161.941684 421.821269 
L 168.437332 421.821269 
L 168.437332 418.745063 
L 173.309067 418.745063 
L 173.309067 412.480787 
L 179.804715 412.480787 
L 179.804715 409.40458 
L 184.676451 409.40458 
L 184.676451 406.216512 
L 189.548187 406.216512 
L 189.548187 403.028443 
L 192.79601 403.028443 
L 192.79601 399.896305 
L 199.291658 399.896305 
L 199.291658 399.896305 
L 199.291658 396.820098 
L 205.787306 396.820098 
L 205.787306 393.743892 
L 220.402513 393.743892 
L 220.402513 393.602573 
L 222.026425 393.602573 
L 222.026425 390.526366 
L 223.650337 390.526366 
L 223.650337 388.102688 
L 225.274249 388.102688 
L 225.274249 388.102688 
L 225.274249 384.914619 
L 230.145984 384.914619 
L 230.145984 381.72655 
L 243.13728 381.72655 
L 243.13728 378.83678 
L 251.256839 378.83678 
L 251.256839 375.835148 
L 252.880751 375.835148 
L 252.880751 373.41147 
L 257.752487 373.41147 
L 257.752487 370.5217 
L 261.000311 370.5217 
L 261.000311 367.520068 
L 262.624223 367.520068 
L 262.624223 364.630298 
L 272.367694 364.630298 
L 272.367694 361.554092 
L 273.991606 361.554092 
L 273.991606 358.664322 
L 285.35899 358.664322 
L 285.35899 358.101096 
L 291.854637 358.101096 
L 291.854637 355.099464 
L 296.726373 355.099464 
L 296.726373 349.021626 
L 298.350285 349.021626 
L 298.350285 345.833557 
L 303.222021 345.833557 
L 303.222021 342.831925 
L 306.469845 342.831925 
L 306.469845 339.723092 
L 311.34158 339.723092 
L 311.34158 336.72146 
L 316.213316 336.72146 
L 316.213316 330.932598 
L 321.085052 330.932598 
L 321.085052 325.143736 
L 322.708964 325.143736 
L 322.708964 322.142104 
L 325.956788 322.142104 
L 325.956788 319.354874 
L 334.076347 319.354874 
L 334.076347 316.166806 
L 337.324171 316.166806 
L 337.324171 313.277036 
L 338.948083 313.277036 
L 338.948083 310.088967 
L 343.819819 310.088967 
L 343.819819 306.826324 
L 343.819819 306.826324 
L 345.443731 306.826324 
L 345.443731 303.936554 
L 348.691554 303.936554 
L 348.691554 303.125554 
L 350.315466 303.125554 
L 350.315466 300.235784 
L 355.187202 300.235784 
L 355.187202 297.047715 
L 356.811114 297.047715 
L 356.811114 294.157945 
L 361.68285 294.157945 
L 361.68285 292.96475 
L 363.306762 292.96475 
L 363.306762 290.17752 
L 366.554585 290.17752 
L 366.554585 286.989451 
L 371.426321 286.989451 
L 371.426321 281.014153 
L 377.921969 281.014153 
L 377.921969 278.226923 
L 379.545881 278.226923 
L 379.545881 275.225291 
L 387.66544 275.225291 
L 387.66544 272.335521 
L 387.66544 272.335521 
L 390.913264 272.335521 
L 390.913264 267.022073 
L 395.785 267.022073 
L 395.785 261.345073 
L 400.656736 261.345073 
L 400.656736 260.636614 
L 402.280648 260.636614 
L 402.280648 257.746844 
L 412.024119 257.746844 
L 412.024119 254.745212 
L 420.143679 254.745212 
L 420.143679 253.999465 
L 425.015415 253.999465 
L 425.015415 248.455954 
L 429.88715 248.455954 
L 429.88715 245.19331 
L 434.758886 245.19331 
L 434.758886 244.559425 
L 436.382798 244.559425 
L 436.382798 244.387903 
L 441.254534 244.387903 
L 441.254534 241.386271 
L 442.878446 241.386271 
L 442.878446 238.123628 
L 447.750181 238.123628 
L 447.750181 235.121996 
L 449.374093 235.121996 
L 449.374093 232.500695 
L 450.998005 232.500695 
L 450.998005 230.077017 
L 455.869741 230.077017 
L 455.869741 227.075385 
L 467.237124 227.075385 
L 467.237124 224.319104 
L 472.10886 224.319104 
L 472.10886 218.054828 
L 478.604508 218.054828 
L 478.604508 214.792185 
L 485.100155 214.792185 
L 485.100155 210.599222 
L 488.347979 210.599222 
L 488.347979 210.170417 
L 491.595803 210.170417 
L 491.595803 206.93201 
L 493.219715 206.93201 
L 493.219715 203.930378 
L 494.843627 203.930378 
L 494.843627 200.928746 
L 498.091451 200.928746 
L 498.091451 197.666103 
L 499.715363 197.666103 
L 499.715363 194.664471 
L 504.587098 194.664471 
L 504.587098 188.400195 
L 507.834922 188.400195 
L 507.834922 185.398563 
L 509.458834 185.398563 
L 509.458834 182.13592 
L 519.202306 182.13592 
L 519.202306 180.681713 
L 520.826218 180.681713 
L 520.826218 177.41907 
L 522.45013 177.41907 
L 522.45013 176.486886 
L 528.945777 176.486886 
L 528.945777 173.485254 
L 530.569689 173.485254 
L 530.569689 170.22261 
L 533.817513 170.22261 
L 533.817513 167.220978 
L 538.689249 167.220978 
L 538.689249 166.945611 
L 540.313161 166.945611 
L 540.313161 163.943979 
L 541.937073 163.943979 
L 541.937073 160.681336 
L 546.808808 160.681336 
L 546.808808 157.679704 
L 553.304456 157.679704 
L 553.304456 154.678072 
L 559.800104 154.678072 
L 559.800104 151.67644 
L 561.424016 151.67644 
L 561.424016 148.674808 
L 569.543575 148.674808 
L 569.543575 145.691819 
L 571.167487 145.691819 
L 571.167487 142.935538 
L 574.415311 142.935538 
L 574.415311 139.933906 
L 579.287047 139.933906 
L 579.287047 133.930642 
L 584.158782 133.930642 
L 584.158782 130.92901 
L 587.406606 130.92901 
L 587.406606 129.791746 
L 589.030518 129.791746 
L 589.030518 126.790114 
L 590.65443 126.790114 
L 590.65443 123.788482 
L 593.902254 123.788482 
L 593.902254 120.78685 
L 595.526166 120.78685 
L 595.526166 117.678017 
L 598.77399 117.678017 
L 598.77399 114.676385 
L 608.517461 114.676385 
L 608.517461 108.565919 
L 613.389197 108.565919 
L 613.389197 105.457086 
L 616.637021 105.457086 
L 616.637021 102.348253 
L 623.132668 102.348253 
L 623.132668 96.130587 
L 626.380492 96.130587 
L 626.380492 95.862118 
L 629.628316 95.862118 
L 629.628316 92.753285 
L 632.87614 92.753285 
L 632.87614 89.644452 
L 634.500052 89.644452 
L 634.500052 86.535618 
L 636.123964 86.535618 
L 636.123964 83.533986 
L 649.115259 83.533986 
L 649.115259 80.425153 
L 650.739171 80.425153 
L 650.739171 74.421889 
L 653.986995 74.421889 
L 653.986995 71.420257 
L 658.858731 71.420257 
L 658.858731 68.418625 
L 660.482642 68.418625 
L 660.482642 65.309792 
L 663.730466 65.309792 
L 663.730466 62.415361 
L 665.354378 62.415361 
L 665.354378 59.306528 
L 670.226114 59.306528 
L 670.226114 56.412097 
L 671.850026 56.412097 
L 671.850026 53.303264 
L 675.09785 53.303264 
L 675.09785 47.3 
L 678.345674 47.3 
L 678.345674 47.3 
" clip-path="url(#pa8b7688738)" style="fill: none; stroke: #ff0000; stroke-width: 1.5; stroke-linecap: square"/>
   </g>
   <g id="patch_3">
    <path d="M 82.37 476.12 
L 82.37 26.88 
" style="fill: none; stroke: #000000; stroke-width: 0.8; stroke-linejoin: miter; stroke-linecap: square"/>
   </g>
   <g id="patch_4">
    <path d="M 709.2 476.12 
L 709.2 26.88 
" style="fill: none; stroke: #000000; stroke-width: 0.8; stroke-linejoin: miter; stroke-linecap: square"/>
   </g>
   <g id="patch_5">
    <path d="M 82.37 476.12 
L 709.2 476.12 
" style="fill: none; stroke: #000000; stroke-width: 0.8; stroke-linejoin: miter; stroke-linecap: square"/>
   </g>
   <g id="patch_6">
    <path d="M 82.37 26.88 
L 709.2 26.88 
" style="fill: none; stroke: #000000; stroke-width: 0.8; stroke-linejoin: miter; stroke-linecap: square"/>
   </g>
   <g id="text_13">
    <!-- Cumulative Payload Mass to Orbit By Year -->
    <g transform="translate(270.179688 20.88) scale(0.12 -0.12)">
     <defs>
      <path id="DejaVuSans-4f" d="M 2522 4238 
Q 1834 4238 1429 3725 
Q 1025 3213 1025 2328 
Q 1025 1447 1429 934 
Q 1834 422 2522 422 
Q 3209 422 3611 934 
Q 4013 1447 4013 2328 
Q 4013 3213 3611 3725 
Q 3209 4238 2522 4238 
z
M 2522 4750 
Q 3503 4750 4090 4092 
Q 4678 3434 4678 2328 
Q 4678 1225 4090 567 
Q 3503 -91 2522 -91 
Q 1538 -91 948 565 
Q 359 1222 359 2328 
Q 359 3434 948 4092 
Q 1538 4750 2522 4750 
z
" transform="scale(0.015625)"/>
      <path id="DejaVuSans-62" d="M 3116 1747 
Q 3116 2381 2855 2742 
Q 2594 3103 2138 3103 
Q 1681 3103 1420 2742 
Q 1159 2381 1159 1747 
Q 1159 1113 1420 752 
Q 1681 391 2138 391 
Q 2594 391 2855 752 
Q 3116 1113 3116 1747 
z
M 1159 2969 
Q 1341 3281 1617 3432 
Q 1894 3584 2278 3584 
Q 2916 3584 3314 3078 
Q 3713 2572 3713 1747 
Q 3713 922 3314 415 
Q 2916 -91 2278 -91 
Q 1894 -91 1617 61 
Q 1341 213 1159 525 
L 1159 0 
L 581 0 
L 581 4863 
L 1159 4863 
L 1159 2969 
z
" transform="scale(0.015625)"/>
      <path id="DejaVuSans-42" d="M 1259 2228 
L 1259 519 
L 2272 519 
Q 2781 519 3026 730 
Q 3272 941 3272 1375 
Q 3272 1813 3026 2020 
Q 2781 2228 2272 2228 
L 1259 2228 
z
M 1259 4147 
L 1259 2741 
L 2194 2741 
Q 2656 2741 2882 2914 
Q 3109 3088 3109 3444 
Q 3109 3797 2882 3972 
Q 2656 4147 2194 4147 
L 1259 4147 
z
M 628 4666 
L 2241 4666 
Q 2963 4666 3353 4366 
Q 3744 4066 3744 3513 
Q 3744 3084 3544 2831 
Q 3344 2578 2956 2516 
Q 3422 2416 3680 2098 
Q 3938 1781 3938 1306 
Q 3938 681 3513 340 
Q 3088 0 2303 0 
L 628 0 
L 628 4666 
z
" transform="scale(0.015625)"/>
      <path id="DejaVuSans-59" d="M -13 4666 
L 666 4666 
L 1959 2747 
L 3244 4666 
L 3922 4666 
L 2272 2222 
L 2272 0 
L 1638 0 
L 1638 2222 
L -13 4666 
z
" transform="scale(0.015625)"/>
     </defs>
     <use xlink:href="#DejaVuSans-43"/>
     <use xlink:href="#DejaVuSans-75" x="69.824219"/>
     <use xlink:href="#DejaVuSans-6d" x="133.203125"/>
     <use xlink:href="#DejaVuSans-75" x="230.615234"/>
     <use xlink:href="#DejaVuSans-6c" x="293.994141"/>
     <use xlink:href="#DejaVuSans-61" x="321.777344"/>
     <use xlink:href="#DejaVuSans-74" x="383.056641"/>
     <use xlink:href="#DejaVuSans-69" x="422.265625"/>
     <use xlink:href="#DejaVuSans-76" x="450.048828"/>
     <use xlink:href="#DejaVuSans-65" x="509.228516"/>
     <use xlink:href="#DejaVuSans-20" x="570.751953"/>
     <use xlink:href="#DejaVuSans-50" x="602.539062"/>
     <use xlink:href="#DejaVuSans-61" x="658.341797"/>
     <use xlink:href="#DejaVuSans-79" x="719.621094"/>
     <use xlink:href="#DejaVuSans-6c" x="778.800781"/>
     <use xlink:href="#DejaVuSans-6f" x="806.583984"/>
     <use xlink:href="#DejaVuSans-61" x="867.765625"/>
     <use xlink:href="#DejaVuSans-64" x="929.044922"/>
     <use xlink:href="#DejaVuSans-20" x="992.521484"/>
     <use xlink:href="#DejaVuSans-4d" x="1024.308594"/>
     <use xlink:href="#DejaVuSans-61" x="1110.587891"/>
     <use xlink:href="#DejaVuSans-73" x="1171.867188"/>
     <use xlink:href="#DejaVuSans-73" x="1223.966797"/>
     <use xlink:href="#DejaVuSans-20" x="1276.066406"/>
     <use xlink:href="#DejaVuSans-74" x="1307.853516"/>
     <use xlink:href="#DejaVuSans-6f" x="1347.0625"/>
     <use xlink:href="#DejaVuSans-20" x="1408.244141"/>
     <use xlink:href="#DejaVuSans-4f" x="1440.03125"/>
     <use xlink:href="#DejaVuSans-72" x="1518.742188"/>
     <use xlink:href="#DejaVuSans-62" x="1559.855469"/>
     <use xlink:href="#DejaVuSans-69" x="1623.332031"/>
     <use xlink:href="#DejaVuSans-74" x="1651.115234"/>
     <use xlink:href="#DejaVuSans-20" x="1690.324219"/>
     <use xlink:href="#DejaVuSans-42" x="1722.111328"/>
     <use xlink:href="#DejaVuSans-79" x="1790.714844"/>
     <use xlink:href="#DejaVuSans-20" x="1849.894531"/>
     <use xlink:href="#DejaVuSans-59" x="1881.681641"/>
     <use xlink:href="#DejaVuSans-65" x="1929.515625"/>
     <use xlink:href="#DejaVuSans-61" x="1991.039062"/>
     <use xlink:href="#DejaVuSans-72" x="2052.318359"/>
    </g>
   </g>
   <g id="legend_1">
    <g id="patch_7">
     <path d="M 89.37 181.66125 
L 146.82 181.66125 
Q 148.82 181.66125 148.82 179.66125 
L 148.82 33.88 
Q 148.82 31.88 146.82 31.88 
L 89.37 31.88 
Q 87.37 31.88 87.37 33.88 
L 87.37 179.66125 
Q 87.37 181.66125 89.37 181.66125 
z
" style="fill: #ffffff; opacity: 0.8; stroke: #cccccc; stroke-linejoin: miter"/>
    </g>
    <g id="text_14">
     <!-- Year -->
     <g transform="translate(107.5075 43.478437) scale(0.1 -0.1)">
      <use xlink:href="#DejaVuSans-59"/>
      <use xlink:href="#DejaVuSans-65" x="47.833984"/>
      <use xlink:href="#DejaVuSans-61" x="109.357422"/>
      <use xlink:href="#DejaVuSans-72" x="170.636719"/>
     </g>
    </g>
    <g id="line2d_32">
     <path d="M 91.37 54.656562 
L 101.37 54.656562 
L 101.37 54.656562 
L 111.37 54.656562 
L 111.37 54.656562 
" style="fill: none; stroke: #808080; stroke-width: 1.5; stroke-linecap: square"/>
    </g>
    <g id="text_15">
     <!-- 2017 -->
     <g transform="translate(119.37 58.156562) scale(0.1 -0.1)">
      <defs>
       <path id="DejaVuSans-37" d="M 525 4666 
L 3525 4666 
L 3525 4397 
L 1831 0 
L 1172 0 
L 2766 4134 
L 525 4134 
L 525 4666 
z
" transform="scale(0.015625)"/>
      </defs>
      <use xlink:href="#DejaVuSans-32"/>
      <use xlink:href="#DejaVuSans-30" x="63.623047"/>
      <use xlink:href="#DejaVuSans-31" x="127.246094"/>
      <use xlink:href="#DejaVuSans-37" x="190.869141"/>
     </g>
    </g>
    <g id="line2d_33">
     <path d="M 91.37 69.334687 
L 101.37 69.334687 
L 101.37 69.334687 
L 111.37 69.334687 
L 111.37 69.334687 
" style="fill: none; stroke: #90ee90; stroke-width: 1.5; stroke-linecap: square"/>
    </g>
    <g id="text_16">
     <!-- 2018 -->
     <g transform="translate(119.37 72.834687) scale(0.1 -0.1)">
      <defs>
       <path id="DejaVuSans-38" d="M 2034 2216 
Q 1584 2216 1326 1975 
Q 1069 1734 1069 1313 
Q 1069 891 1326 650 
Q 1584 409 2034 409 
Q 2484 409 2743 651 
Q 3003 894 3003 1313 
Q 3003 1734 2745 1975 
Q 2488 2216 2034 2216 
z
M 1403 2484 
Q 997 2584 770 2862 
Q 544 3141 544 3541 
Q 544 4100 942 4425 
Q 1341 4750 2034 4750 
Q 2731 4750 3128 4425 
Q 3525 4100 3525 3541 
Q 3525 3141 3298 2862 
Q 3072 2584 2669 2484 
Q 3125 2378 3379 2068 
Q 3634 1759 3634 1313 
Q 3634 634 3220 271 
Q 2806 -91 2034 -91 
Q 1263 -91 848 271 
Q 434 634 434 1313 
Q 434 1759 690 2068 
Q 947 2378 1403 2484 
z
M 1172 3481 
Q 1172 3119 1398 2916 
Q 1625 2713 2034 2713 
Q 2441 2713 2670 2916 
Q 2900 3119 2900 3481 
Q 2900 3844 2670 4047 
Q 2441 4250 2034 4250 
Q 1625 4250 1398 4047 
Q 1172 3844 1172 3481 
z
" transform="scale(0.015625)"/>
      </defs>
      <use xlink:href="#DejaVuSans-32"/>
      <use xlink:href="#DejaVuSans-30" x="63.623047"/>
      <use xlink:href="#DejaVuSans-31" x="127.246094"/>
      <use xlink:href="#DejaVuSans-38" x="190.869141"/>
     </g>
    </g>
    <g id="line2d_34">
     <path d="M 91.37 84.012812 
L 101.37 84.012812 
L 101.37 84.012812 
L 111.37 84.012812 
L 111.37 84.012812 
" style="fill: none; stroke: #add8e6; stroke-width: 1.5; stroke-linecap: square"/>
    </g>
    <g id="text_17">
     <!-- 2019 -->
     <g transform="translate(119.37 87.512812) scale(0.1 -0.1)">
      <defs>
       <path id="DejaVuSans-39" d="M 703 97 
L 703 672 
Q 941 559 1184 500 
Q 1428 441 1663 441 
Q 2288 441 2617 861 
Q 2947 1281 2994 2138 
Q 2813 1869 2534 1725 
Q 2256 1581 1919 1581 
Q 1219 1581 811 2004 
Q 403 2428 403 3163 
Q 403 3881 828 4315 
Q 1253 4750 1959 4750 
Q 2769 4750 3195 4129 
Q 3622 3509 3622 2328 
Q 3622 1225 3098 567 
Q 2575 -91 1691 -91 
Q 1453 -91 1209 -44 
Q 966 3 703 97 
z
M 1959 2075 
Q 2384 2075 2632 2365 
Q 2881 2656 2881 3163 
Q 2881 3666 2632 3958 
Q 2384 4250 1959 4250 
Q 1534 4250 1286 3958 
Q 1038 3666 1038 3163 
Q 1038 2656 1286 2365 
Q 1534 2075 1959 2075 
z
" transform="scale(0.015625)"/>
      </defs>
      <use xlink:href="#DejaVuSans-32"/>
      <use xlink:href="#DejaVuSans-30" x="63.623047"/>
      <use xlink:href="#DejaVuSans-31" x="127.246094"/>
      <use xlink:href="#DejaVuSans-39" x="190.869141"/>
     </g>
    </g>
    <g id="line2d_35">
     <path d="M 91.37 98.690937 
L 101.37 98.690937 
L 101.37 98.690937 
L 111.37 98.690937 
L 111.37 98.690937 
" style="fill: none; stroke: #ffc0cb; stroke-width: 1.5; stroke-linecap: square"/>
    </g>
    <g id="text_18">
     <!-- 2020 -->
     <g transform="translate(119.37 102.190937) scale(0.1 -0.1)">
      <use xlink:href="#DejaVuSans-32"/>
      <use xlink:href="#DejaVuSans-30" x="63.623047"/>
      <use xlink:href="#DejaVuSans-32" x="127.246094"/>
      <use xlink:href="#DejaVuSans-30" x="190.869141"/>
     </g>
    </g>
    <g id="line2d_36">
     <path d="M 91.37 113.369062 
L 101.37 113.369062 
L 101.37 113.369062 
L 111.37 113.369062 
L 111.37 113.369062 
" style="fill: none; stroke: #800080; stroke-width: 1.5; stroke-linecap: square"/>
    </g>
    <g id="text_19">
     <!-- 2021 -->
     <g transform="translate(119.37 116.869062) scale(0.1 -0.1)">
      <use xlink:href="#DejaVuSans-32"/>
      <use xlink:href="#DejaVuSans-30" x="63.623047"/>
      <use xlink:href="#DejaVuSans-32" x="127.246094"/>
      <use xlink:href="#DejaVuSans-31" x="190.869141"/>
     </g>
    </g>
    <g id="line2d_37">
     <path d="M 91.37 128.047187 
L 101.37 128.047187 
L 101.37 128.047187 
L 111.37 128.047187 
L 111.37 128.047187 
" style="fill: none; stroke: #ffa500; stroke-width: 1.5; stroke-linecap: square"/>
    </g>
    <g id="text_20">
     <!-- 2022 -->
     <g transform="translate(119.37 131.547187) scale(0.1 -0.1)">
      <use xlink:href="#DejaVuSans-32"/>
      <use xlink:href="#DejaVuSans-30" x="63.623047"/>
      <use xlink:href="#DejaVuSans-32" x="127.246094"/>
      <use xlink:href="#DejaVuSans-32" x="190.869141"/>
     </g>
    </g>
    <g id="line2d_38">
     <path d="M 91.37 142.725312 
L 101.37 142.725312 
L 101.37 142.725312 
L 111.37 142.725312 
L 111.37 142.725312 
" style="fill: none; stroke: #0000ff; stroke-width: 1.5; stroke-linecap: square"/>
    </g>
    <g id="text_21">
     <!-- 2023 -->
     <g transform="translate(119.37 146.225312) scale(0.1 -0.1)">
      <defs>
       <path id="DejaVuSans-33" d="M 2597 2516 
Q 3050 2419 3304 2112 
Q 3559 1806 3559 1356 
Q 3559 666 3084 287 
Q 2609 -91 1734 -91 
Q 1441 -91 1130 -33 
Q 819 25 488 141 
L 488 750 
Q 750 597 1062 519 
Q 1375 441 1716 441 
Q 2309 441 2620 675 
Q 2931 909 2931 1356 
Q 2931 1769 2642 2001 
Q 2353 2234 1838 2234 
L 1294 2234 
L 1294 2753 
L 1863 2753 
Q 2328 2753 2575 2939 
Q 2822 3125 2822 3475 
Q 2822 3834 2567 4026 
Q 2313 4219 1838 4219 
Q 1578 4219 1281 4162 
Q 984 4106 628 3988 
L 628 4550 
Q 988 4650 1302 4700 
Q 1616 4750 1894 4750 
Q 2613 4750 3031 4423 
Q 3450 4097 3450 3541 
Q 3450 3153 3228 2886 
Q 3006 2619 2597 2516 
z
" transform="scale(0.015625)"/>
      </defs>
      <use xlink:href="#DejaVuSans-32"/>
      <use xlink:href="#DejaVuSans-30" x="63.623047"/>
      <use xlink:href="#DejaVuSans-32" x="127.246094"/>
      <use xlink:href="#DejaVuSans-33" x="190.869141"/>
     </g>
    </g>
    <g id="line2d_39">
     <path d="M 91.37 157.403437 
L 101.37 157.403437 
L 101.37 157.403437 
L 111.37 157.403437 
L 111.37 157.403437 
" style="fill: none; stroke: #008000; stroke-width: 1.5; stroke-linecap: square"/>
    </g>
    <g id="text_22">
     <!-- 2024 -->
     <g transform="translate(119.37 160.903437) scale(0.1 -0.1)">
      <defs>
       <path id="DejaVuSans-34" d="M 2419 4116 
L 825 1625 
L 2419 1625 
L 2419 4116 
z
M 2253 4666 
L 3047 4666 
L 3047 1625 
L 3713 1625 
L 3713 1100 
L 3047 1100 
L 3047 0 
L 2419 0 
L 2419 1100 
L 313 1100 
L 313 1709 
L 2253 4666 
z
" transform="scale(0.015625)"/>
      </defs>
      <use xlink:href="#DejaVuSans-32"/>
      <use xlink:href="#DejaVuSans-30" x="63.623047"/>
      <use xlink:href="#DejaVuSans-32" x="127.246094"/>
      <use xlink:href="#DejaVuSans-34" x="190.869141"/>
     </g>
    </g>
    <g id="line2d_40">
     <path d="M 91.37 172.081562 
L 101.37 172.081562 
L 101.37 172.081562 
L 111.37 172.081562 
L 111.37 172.081562 
" style="fill: none; stroke: #ff0000; stroke-width: 1.5; stroke-linecap: square"/>
    </g>
    <g id="text_23">
     <!-- 2025 -->
     <g transform="translate(119.37 175.581562) scale(0.1 -0.1)">
      <use xlink:href="#DejaVuSans-32"/>
      <use xlink:href="#DejaVuSans-30" x="63.623047"/>
      <use xlink:href="#DejaVuSans-32" x="127.246094"/>
      <use xlink:href="#DejaVuSans-35" x="190.869141"/>
     </g>
    </g>
   </g>
  </g>
 </g>
 <defs>
  <clipPath id="pa8b7688738">
   <rect x="82.37" y="26.88" width="626.83" height="449.24"/>
  </clipPath>
 </defs>
</svg>
