<?xml version="1.0" encoding="utf-8" standalone="no"?>
<!DOCTYPE svg PUBLIC "-//W3C//DTD SVG 1.1//EN"
  "http://www.w3.org/Graphics/SVG/1.1/DTD/svg11.dtd">
<svg xmlns:xlink="http://www.w3.org/1999/xlink" width="720pt" height="504pt" viewBox="0 0 720 504" xmlns="http://www.w3.org/2000/svg" version="1.1">
 <metadata>
  <rdf:RDF xmlns:dc="http://purl.org/dc/elements/1.1/" xmlns:cc="http://creativecommons.org/ns#" xmlns:rdf="http://www.w3.org/1999/02/22-rdf-syntax-ns#">
   <cc:Work>
    <dc:type rdf:resource="http://purl.org/dc/dcmitype/StillImage"/>
    <dc:date>2025-11-21T11:25:18.327214</dc:date>
    <dc:format>image/svg+xml</dc:format>
    <dc:creator>
     <cc:Agent>
      <dc:title>Matplotlib v3.8.2, https://matplotlib.org/</dc:title>
     </cc:Agent>
    </dc:creator>
   </cc:Work>
  </rdf:RDF>
 </metadata>
 <defs>
  <style type="text/css">*{stroke-linejoin: round; stroke-linecap: butt}</style>
 </defs>
 <g id="figure_1">
  <g id="patch_1">
   <path d="M 0 504 
L 720 504 
L 720 0 
L 0 0 
z
" style="fill: #ffffff"/>
  </g>
  <g id="axes_1">
   <g id="patch_2">
    <path d="M 82.37 476.12 
L 709.2 476.12 
L 709.2 26.88 
L 82.37 26.88 
z
" style="fill: #ffffff"/>
   </g>
   <g id="matplotlib.axis_1">
    <g id="xtick_1">
     <g id="line2d_1">
      <path d="M 106.728679 476.12 
L 106.728679 26.88 
" clip-path="url(#p1935ed69df)" style="fill: none; stroke: #b0b0b0; stroke-width: 0.8; stroke-linecap: square"/>
     </g>
     <g id="line2d_2">
      <defs>
       <path id="m648b4f6e51" d="M 0 0 
L 0 3.5 
" style="stroke: #000000; stroke-width: 0.8"/>
      </defs>
      <g>
       <use xlink:href="#m648b4f6e51" x="106.728679" y="476.12" style="stroke: #000000; stroke-width: 0.8"/>
      </g>
     </g>
     <g id="text_1">
      <!-- Jan 1 -->
      <g transform="translate(94.250554 490.718437) scale(0.1 -0.1)">
       <defs>
        <path id="DejaVuSans-4a" d="M 628 4666 
L 1259 4666 
L 1259 325 
Q 1259 -519 939 -900 
Q 619 -1281 -91 -1281 
L -331 -1281 
L -331 -750 
L -134 -750 
Q 284 -750 456 -515 
Q 628 -281 628 325 
L 628 4666 
z
" transform="scale(0.015625)"/>
        <path id="DejaVuSans-61" d="M 2194 1759 
Q 1497 1759 1228 1600 
Q 959 1441 959 1056 
Q 959 750 1161 570 
Q 1363 391 1709 391 
Q 2188 391 2477 730 
Q 2766 1069 2766 1631 
L 2766 1759 
L 2194 1759 
z
M 3341 1997 
L 3341 0 
L 2766 0 
L 2766 531 
Q 2569 213 2275 61 
Q 1981 -91 1556 -91 
Q 1019 -91 701 211 
Q 384 513 384 1019 
Q 384 1609 779 1909 
Q 1175 2209 1959 2209 
L 2766 2209 
L 2766 2266 
Q 2766 2663 2505 2880 
Q 2244 3097 1772 3097 
Q 1472 3097 1187 3025 
Q 903 2953 641 2809 
L 641 3341 
Q 956 3463 1253 3523 
Q 1550 3584 1831 3584 
Q 2591 3584 2966 3190 
Q 3341 2797 3341 1997 
z
" transform="scale(0.015625)"/>
        <path id="DejaVuSans-6e" d="M 3513 2113 
L 3513 0 
L 2938 0 
L 2938 2094 
Q 2938 2591 2744 2837 
Q 2550 3084 2163 3084 
Q 1697 3084 1428 2787 
Q 1159 2491 1159 1978 
L 1159 0 
L 581 0 
L 581 3500 
L 1159 3500 
L 1159 2956 
Q 1366 3272 1645 3428 
Q 1925 3584 2291 3584 
Q 2894 3584 3203 3211 
Q 3513 2838 3513 2113 
z
" transform="scale(0.015625)"/>
        <path id="DejaVuSans-20" transform="scale(0.015625)"/>
        <path id="DejaVuSans-31" d="M 794 531 
L 1825 531 
L 1825 4091 
L 703 3866 
L 703 4441 
L 1819 4666 
L 2450 4666 
L 2450 531 
L 3481 531 
L 3481 0 
L 794 0 
L 794 531 
z
" transform="scale(0.015625)"/>
       </defs>
       <use xlink:href="#DejaVuSans-4a"/>
       <use xlink:href="#DejaVuSans-61" x="29.492188"/>
       <use xlink:href="#DejaVuSans-6e" x="90.771484"/>
       <use xlink:href="#DejaVuSans-20" x="154.150391"/>
       <use xlink:href="#DejaVuSans-31" x="185.9375"/>
      </g>
     </g>
    </g>
    <g id="xtick_2">
     <g id="line2d_3">
      <path d="M 204.163394 476.12 
L 204.163394 26.88 
" clip-path="url(#p1935ed69df)" style="fill: none; stroke: #b0b0b0; stroke-width: 0.8; stroke-linecap: square"/>
     </g>
     <g id="line2d_4">
      <g>
       <use xlink:href="#m648b4f6e51" x="204.163394" y="476.12" style="stroke: #000000; stroke-width: 0.8"/>
      </g>
     </g>
     <g id="text_2">
      <!-- Mar 1 -->
      <g transform="translate(189.959488 490.718437) scale(0.1 -0.1)">
       <defs>
        <path id="DejaVuSans-4d" d="M 628 4666 
L 1569 4666 
L 2759 1491 
L 3956 4666 
L 4897 4666 
L 4897 0 
L 4281 0 
L 4281 4097 
L 3078 897 
L 2444 897 
L 1241 4097 
L 1241 0 
L 628 0 
L 628 4666 
z
" transform="scale(0.015625)"/>
        <path id="DejaVuSans-72" d="M 2631 2963 
Q 2534 3019 2420 3045 
Q 2306 3072 2169 3072 
Q 1681 3072 1420 2755 
Q 1159 2438 1159 1844 
L 1159 0 
L 581 0 
L 581 3500 
L 1159 3500 
L 1159 2956 
Q 1341 3275 1631 3429 
Q 1922 3584 2338 3584 
Q 2397 3584 2469 3576 
Q 2541 3569 2628 3553 
L 2631 2963 
z
" transform="scale(0.015625)"/>
       </defs>
       <use xlink:href="#DejaVuSans-4d"/>
       <use xlink:href="#DejaVuSans-61" x="86.279297"/>
       <use xlink:href="#DejaVuSans-72" x="147.558594"/>
       <use xlink:href="#DejaVuSans-20" x="188.671875"/>
       <use xlink:href="#DejaVuSans-31" x="220.458984"/>
      </g>
     </g>
    </g>
    <g id="xtick_3">
     <g id="line2d_5">
      <path d="M 303.222021 476.12 
L 303.222021 26.88 
" clip-path="url(#p1935ed69df)" style="fill: none; stroke: #b0b0b0; stroke-width: 0.8; stroke-linecap: square"/>
     </g>
     <g id="line2d_6">
      <g>
       <use xlink:href="#m648b4f6e51" x="303.222021" y="476.12" style="stroke: #000000; stroke-width: 0.8"/>
      </g>
     </g>
     <g id="text_3">
      <!-- May 1 -->
      <g transform="translate(288.114208 490.718437) scale(0.1 -0.1)">
       <defs>
        <path id="DejaVuSans-79" d="M 2059 -325 
Q 1816 -950 1584 -1140 
Q 1353 -1331 966 -1331 
L 506 -1331 
L 506 -850 
L 844 -850 
Q 1081 -850 1212 -737 
Q 1344 -625 1503 -206 
L 1606 56 
L 191 3500 
L 800 3500 
L 1894 763 
L 2988 3500 
L 3597 3500 
L 2059 -325 
z
" transform="scale(0.015625)"/>
       </defs>
       <use xlink:href="#DejaVuSans-4d"/>
       <use xlink:href="#DejaVuSans-61" x="86.279297"/>
       <use xlink:href="#DejaVuSans-79" x="147.558594"/>
       <use xlink:href="#DejaVuSans-20" x="206.738281"/>
       <use xlink:href="#DejaVuSans-31" x="238.525391"/>
      </g>
     </g>
    </g>
    <g id="xtick_4">
     <g id="line2d_7">
      <path d="M 402.280648 476.12 
L 402.280648 26.88 
" clip-path="url(#p1935ed69df)" style="fill: none; stroke: #b0b0b0; stroke-width: 0.8; stroke-linecap: square"/>
     </g>
     <g id="line2d_8">
      <g>
       <use xlink:href="#m648b4f6e51" x="402.280648" y="476.12" style="stroke: #000000; stroke-width: 0.8"/>
      </g>
     </g>
     <g id="text_4">
      <!-- Jul 1 -->
      <g transform="translate(391.477523 490.718437) scale(0.1 -0.1)">
       <defs>
        <path id="DejaVuSans-75" d="M 544 1381 
L 544 3500 
L 1119 3500 
L 1119 1403 
Q 1119 906 1312 657 
Q 1506 409 1894 409 
Q 2359 409 2629 706 
Q 2900 1003 2900 1516 
L 2900 3500 
L 3475 3500 
L 3475 0 
L 2900 0 
L 2900 538 
Q 2691 219 2414 64 
Q 2138 -91 1772 -91 
Q 1169 -91 856 284 
Q 544 659 544 1381 
z
M 1991 3584 
L 1991 3584 
z
" transform="scale(0.015625)"/>
        <path id="DejaVuSans-6c" d="M 603 4863 
L 1178 4863 
L 1178 0 
L 603 0 
L 603 4863 
z
" transform="scale(0.015625)"/>
       </defs>
       <use xlink:href="#DejaVuSans-4a"/>
       <use xlink:href="#DejaVuSans-75" x="29.492188"/>
       <use xlink:href="#DejaVuSans-6c" x="92.871094"/>
       <use xlink:href="#DejaVuSans-20" x="120.654297"/>
       <use xlink:href="#DejaVuSans-31" x="152.441406"/>
      </g>
     </g>
    </g>
    <g id="xtick_5">
     <g id="line2d_9">
      <path d="M 502.963187 476.12 
L 502.963187 26.88 
" clip-path="url(#p1935ed69df)" style="fill: none; stroke: #b0b0b0; stroke-width: 0.8; stroke-linecap: square"/>
     </g>
     <g id="line2d_10">
      <g>
       <use xlink:href="#m648b4f6e51" x="502.963187" y="476.12" style="stroke: #000000; stroke-width: 0.8"/>
      </g>
     </g>
     <g id="text_5">
      <!-- Sep 1 -->
      <g transform="translate(488.767874 490.718437) scale(0.1 -0.1)">
       <defs>
        <path id="DejaVuSans-53" d="M 3425 4513 
L 3425 3897 
Q 3066 4069 2747 4153 
Q 2428 4238 2131 4238 
Q 1616 4238 1336 4038 
Q 1056 3838 1056 3469 
Q 1056 3159 1242 3001 
Q 1428 2844 1947 2747 
L 2328 2669 
Q 3034 2534 3370 2195 
Q 3706 1856 3706 1288 
Q 3706 609 3251 259 
Q 2797 -91 1919 -91 
Q 1588 -91 1214 -16 
Q 841 59 441 206 
L 441 856 
Q 825 641 1194 531 
Q 1563 422 1919 422 
Q 2459 422 2753 634 
Q 3047 847 3047 1241 
Q 3047 1584 2836 1778 
Q 2625 1972 2144 2069 
L 1759 2144 
Q 1053 2284 737 2584 
Q 422 2884 422 3419 
Q 422 4038 858 4394 
Q 1294 4750 2059 4750 
Q 2388 4750 2728 4690 
Q 3069 4631 3425 4513 
z
" transform="scale(0.015625)"/>
        <path id="DejaVuSans-65" d="M 3597 1894 
L 3597 1613 
L 953 1613 
Q 991 1019 1311 708 
Q 1631 397 2203 397 
Q 2534 397 2845 478 
Q 3156 559 3463 722 
L 3463 178 
Q 3153 47 2828 -22 
Q 2503 -91 2169 -91 
Q 1331 -91 842 396 
Q 353 884 353 1716 
Q 353 2575 817 3079 
Q 1281 3584 2069 3584 
Q 2775 3584 3186 3129 
Q 3597 2675 3597 1894 
z
M 3022 2063 
Q 3016 2534 2758 2815 
Q 2500 3097 2075 3097 
Q 1594 3097 1305 2825 
Q 1016 2553 972 2059 
L 3022 2063 
z
" transform="scale(0.015625)"/>
        <path id="DejaVuSans-70" d="M 1159 525 
L 1159 -1331 
L 581 -1331 
L 581 3500 
L 1159 3500 
L 1159 2969 
Q 1341 3281 1617 3432 
Q 1894 3584 2278 3584 
Q 2916 3584 3314 3078 
Q 3713 2572 3713 1747 
Q 3713 922 3314 415 
Q 2916 -91 2278 -91 
Q 1894 -91 1617 61 
Q 1341 213 1159 525 
z
M 3116 1747 
Q 3116 2381 2855 2742 
Q 2594 3103 2138 3103 
Q 1681 3103 1420 2742 
Q 1159 2381 1159 1747 
Q 1159 1113 1420 752 
Q 1681 391 2138 391 
Q 2594 391 2855 752 
Q 3116 1113 3116 1747 
z
" transform="scale(0.015625)"/>
       </defs>
       <use xlink:href="#DejaVuSans-53"/>
       <use xlink:href="#DejaVuSans-65" x="63.476562"/>
       <use xlink:href="#DejaVuSans-70" x="125"/>
       <use xlink:href="#DejaVuSans-20" x="188.476562"/>
       <use xlink:href="#DejaVuSans-31" x="220.263672"/>
      </g>
     </g>
    </g>
    <g id="xtick_6">
     <g id="line2d_11">
      <path d="M 602.021813 476.12 
L 602.021813 26.88 
" clip-path="url(#p1935ed69df)" style="fill: none; stroke: #b0b0b0; stroke-width: 0.8; stroke-linecap: square"/>
     </g>
     <g id="line2d_12">
      <g>
       <use xlink:href="#m648b4f6e51" x="602.021813" y="476.12" style="stroke: #000000; stroke-width: 0.8"/>
      </g>
     </g>
     <g id="text_6">
      <!-- Nov 1 -->
      <g transform="translate(587.492126 490.718437) scale(0.1 -0.1)">
       <defs>
        <path id="DejaVuSans-4e" d="M 628 4666 
L 1478 4666 
L 3547 763 
L 3547 4666 
L 4159 4666 
L 4159 0 
L 3309 0 
L 1241 3903 
L 1241 0 
L 628 0 
L 628 4666 
z
" transform="scale(0.015625)"/>
        <path id="DejaVuSans-6f" d="M 1959 3097 
Q 1497 3097 1228 2736 
Q 959 2375 959 1747 
Q 959 1119 1226 758 
Q 1494 397 1959 397 
Q 2419 397 2687 759 
Q 2956 1122 2956 1747 
Q 2956 2369 2687 2733 
Q 2419 3097 1959 3097 
z
M 1959 3584 
Q 2709 3584 3137 3096 
Q 3566 2609 3566 1747 
Q 3566 888 3137 398 
Q 2709 -91 1959 -91 
Q 1206 -91 779 398 
Q 353 888 353 1747 
Q 353 2609 779 3096 
Q 1206 3584 1959 3584 
z
" transform="scale(0.015625)"/>
        <path id="DejaVuSans-76" d="M 191 3500 
L 800 3500 
L 1894 563 
L 2988 3500 
L 3597 3500 
L 2284 0 
L 1503 0 
L 191 3500 
z
" transform="scale(0.015625)"/>
       </defs>
       <use xlink:href="#DejaVuSans-4e"/>
       <use xlink:href="#DejaVuSans-6f" x="74.804688"/>
       <use xlink:href="#DejaVuSans-76" x="135.986328"/>
       <use xlink:href="#DejaVuSans-20" x="195.166016"/>
       <use xlink:href="#DejaVuSans-31" x="226.953125"/>
      </g>
     </g>
    </g>
   </g>
   <g id="matplotlib.axis_2">
    <g id="ytick_1">
     <g id="line2d_13">
      <path d="M 82.37 455.7 
L 709.2 455.7 
" clip-path="url(#p1935ed69df)" style="fill: none; stroke: #b0b0b0; stroke-width: 0.8; stroke-linecap: square"/>
     </g>
     <g id="line2d_14">
      <defs>
       <path id="m0be0fcfb8d" d="M 0 0 
L -3.5 0 
" style="stroke: #000000; stroke-width: 0.8"/>
      </defs>
      <g>
       <use xlink:href="#m0be0fcfb8d" x="82.37" y="455.7" style="stroke: #000000; stroke-width: 0.8"/>
      </g>
     </g>
     <g id="text_7">
      <!-- 0 -->
      <g transform="translate(69.0075 459.499219) scale(0.1 -0.1)">
       <defs>
        <path id="DejaVuSans-30" d="M 2034 4250 
Q 1547 4250 1301 3770 
Q 1056 3291 1056 2328 
Q 1056 1369 1301 889 
Q 1547 409 2034 409 
Q 2525 409 2770 889 
Q 3016 1369 3016 2328 
Q 3016 3291 2770 3770 
Q 2525 4250 2034 4250 
z
M 2034 4750 
Q 2819 4750 3233 4129 
Q 3647 3509 3647 2328 
Q 3647 1150 3233 529 
Q 2819 -91 2034 -91 
Q 1250 -91 836 529 
Q 422 1150 422 2328 
Q 422 3509 836 4129 
Q 1250 4750 2034 4750 
z
" transform="scale(0.015625)"/>
       </defs>
       <use xlink:href="#DejaVuSans-30"/>
      </g>
     </g>
    </g>
    <g id="ytick_2">
     <g id="line2d_15">
      <path d="M 82.37 403.699165 
L 709.2 403.699165 
" clip-path="url(#p1935ed69df)" style="fill: none; stroke: #b0b0b0; stroke-width: 0.8; stroke-linecap: square"/>
     </g>
     <g id="line2d_16">
      <g>
       <use xlink:href="#m0be0fcfb8d" x="82.37" y="403.699165" style="stroke: #000000; stroke-width: 0.8"/>
      </g>
     </g>
     <g id="text_8">
      <!-- 250,000 -->
      <g transform="translate(34.016875 407.498383) scale(0.1 -0.1)">
       <defs>
        <path id="DejaVuSans-32" d="M 1228 531 
L 3431 531 
L 3431 0 
L 469 0 
L 469 531 
Q 828 903 1448 1529 
Q 2069 2156 2228 2338 
Q 2531 2678 2651 2914 
Q 2772 3150 2772 3378 
Q 2772 3750 2511 3984 
Q 2250 4219 1831 4219 
Q 1534 4219 1204 4116 
Q 875 4013 500 3803 
L 500 4441 
Q 881 4594 1212 4672 
Q 1544 4750 1819 4750 
Q 2544 4750 2975 4387 
Q 3406 4025 3406 3419 
Q 3406 3131 3298 2873 
Q 3191 2616 2906 2266 
Q 2828 2175 2409 1742 
Q 1991 1309 1228 531 
z
" transform="scale(0.015625)"/>
        <path id="DejaVuSans-35" d="M 691 4666 
L 3169 4666 
L 3169 4134 
L 1269 4134 
L 1269 2991 
Q 1406 3038 1543 3061 
Q 1681 3084 1819 3084 
Q 2600 3084 3056 2656 
Q 3513 2228 3513 1497 
Q 3513 744 3044 326 
Q 2575 -91 1722 -91 
Q 1428 -91 1123 -41 
Q 819 9 494 109 
L 494 744 
Q 775 591 1075 516 
Q 1375 441 1709 441 
Q 2250 441 2565 725 
Q 2881 1009 2881 1497 
Q 2881 1984 2565 2268 
Q 2250 2553 1709 2553 
Q 1456 2553 1204 2497 
Q 953 2441 691 2322 
L 691 4666 
z
" transform="scale(0.015625)"/>
        <path id="DejaVuSans-2c" d="M 750 794 
L 1409 794 
L 1409 256 
L 897 -744 
L 494 -744 
L 750 256 
L 750 794 
z
" transform="scale(0.015625)"/>
       </defs>
       <use xlink:href="#DejaVuSans-32"/>
       <use xlink:href="#DejaVuSans-35" x="63.623047"/>
       <use xlink:href="#DejaVuSans-30" x="127.246094"/>
       <use xlink:href="#DejaVuSans-2c" x="190.869141"/>
       <use xlink:href="#DejaVuSans-30" x="222.65625"/>
       <use xlink:href="#DejaVuSans-30" x="286.279297"/>
       <use xlink:href="#DejaVuSans-30" x="349.902344"/>
      </g>
     </g>
    </g>
    <g id="ytick_3">
     <g id="line2d_17">
      <path d="M 82.37 351.698329 
L 709.2 351.698329 
" clip-path="url(#p1935ed69df)" style="fill: none; stroke: #b0b0b0; stroke-width: 0.8; stroke-linecap: square"/>
     </g>
     <g id="line2d_18">
      <g>
       <use xlink:href="#m0be0fcfb8d" x="82.37" y="351.698329" style="stroke: #000000; stroke-width: 0.8"/>
      </g>
     </g>
     <g id="text_9">
      <!-- 500,000 -->
      <g transform="translate(34.016875 355.497548) scale(0.1 -0.1)">
       <use xlink:href="#DejaVuSans-35"/>
       <use xlink:href="#DejaVuSans-30" x="63.623047"/>
       <use xlink:href="#DejaVuSans-30" x="127.246094"/>
       <use xlink:href="#DejaVuSans-2c" x="190.869141"/>
       <use xlink:href="#DejaVuSans-30" x="222.65625"/>
       <use xlink:href="#DejaVuSans-30" x="286.279297"/>
       <use xlink:href="#DejaVuSans-30" x="349.902344"/>
      </g>
     </g>
    </g>
    <g id="ytick_4">
     <g id="line2d_19">
      <path d="M 82.37 299.697494 
L 709.2 299.697494 
" clip-path="url(#p1935ed69df)" style="fill: none; stroke: #b0b0b0; stroke-width: 0.8; stroke-linecap: square"/>
     </g>
     <g id="line2d_20">
      <g>
       <use xlink:href="#m0be0fcfb8d" x="82.37" y="299.697494" style="stroke: #000000; stroke-width: 0.8"/>
      </g>
     </g>
     <g id="text_10">
      <!-- 750,000 -->
      <g transform="translate(34.016875 303.496713) scale(0.1 -0.1)">
       <defs>
        <path id="DejaVuSans-37" d="M 525 4666 
L 3525 4666 
L 3525 4397 
L 1831 0 
L 1172 0 
L 2766 4134 
L 525 4134 
L 525 4666 
z
" transform="scale(0.015625)"/>
       </defs>
       <use xlink:href="#DejaVuSans-37"/>
       <use xlink:href="#DejaVuSans-35" x="63.623047"/>
       <use xlink:href="#DejaVuSans-30" x="127.246094"/>
       <use xlink:href="#DejaVuSans-2c" x="190.869141"/>
       <use xlink:href="#DejaVuSans-30" x="222.65625"/>
       <use xlink:href="#DejaVuSans-30" x="286.279297"/>
       <use xlink:href="#DejaVuSans-30" x="349.902344"/>
      </g>
     </g>
    </g>
    <g id="ytick_5">
     <g id="line2d_21">
      <path d="M 82.37 247.696659 
L 709.2 247.696659 
" clip-path="url(#p1935ed69df)" style="fill: none; stroke: #b0b0b0; stroke-width: 0.8; stroke-linecap: square"/>
     </g>
     <g id="line2d_22">
      <g>
       <use xlink:href="#m0be0fcfb8d" x="82.37" y="247.696659" style="stroke: #000000; stroke-width: 0.8"/>
      </g>
     </g>
     <g id="text_11">
      <!-- 1,000,000 -->
      <g transform="translate(24.47625 251.495878) scale(0.1 -0.1)">
       <use xlink:href="#DejaVuSans-31"/>
       <use xlink:href="#DejaVuSans-2c" x="63.623047"/>
       <use xlink:href="#DejaVuSans-30" x="95.410156"/>
       <use xlink:href="#DejaVuSans-30" x="159.033203"/>
       <use xlink:href="#DejaVuSans-30" x="222.65625"/>
       <use xlink:href="#DejaVuSans-2c" x="286.279297"/>
       <use xlink:href="#DejaVuSans-30" x="318.066406"/>
       <use xlink:href="#DejaVuSans-30" x="381.689453"/>
       <use xlink:href="#DejaVuSans-30" x="445.3125"/>
      </g>
     </g>
    </g>
    <g id="ytick_6">
     <g id="line2d_23">
      <path d="M 82.37 195.695824 
L 709.2 195.695824 
" clip-path="url(#p1935ed69df)" style="fill: none; stroke: #b0b0b0; stroke-width: 0.8; stroke-linecap: square"/>
     </g>
     <g id="line2d_24">
      <g>
       <use xlink:href="#m0be0fcfb8d" x="82.37" y="195.695824" style="stroke: #000000; stroke-width: 0.8"/>
      </g>
     </g>
     <g id="text_12">
      <!-- 1,250,000 -->
      <g transform="translate(24.47625 199.495042) scale(0.1 -0.1)">
       <use xlink:href="#DejaVuSans-31"/>
       <use xlink:href="#DejaVuSans-2c" x="63.623047"/>
       <use xlink:href="#DejaVuSans-32" x="95.410156"/>
       <use xlink:href="#DejaVuSans-35" x="159.033203"/>
       <use xlink:href="#DejaVuSans-30" x="222.65625"/>
       <use xlink:href="#DejaVuSans-2c" x="286.279297"/>
       <use xlink:href="#DejaVuSans-30" x="318.066406"/>
       <use xlink:href="#DejaVuSans-30" x="381.689453"/>
       <use xlink:href="#DejaVuSans-30" x="445.3125"/>
      </g>
     </g>
    </g>
    <g id="ytick_7">
     <g id="line2d_25">
      <path d="M 82.37 143.694988 
L 709.2 143.694988 
" clip-path="url(#p1935ed69df)" style="fill: none; stroke: #b0b0b0; stroke-width: 0.8; stroke-linecap: square"/>
     </g>
     <g id="line2d_26">
      <g>
       <use xlink:href="#m0be0fcfb8d" x="82.37" y="143.694988" style="stroke: #000000; stroke-width: 0.8"/>
      </g>
     </g>
     <g id="text_13">
      <!-- 1,500,000 -->
      <g transform="translate(24.47625 147.494207) scale(0.1 -0.1)">
       <use xlink:href="#DejaVuSans-31"/>
       <use xlink:href="#DejaVuSans-2c" x="63.623047"/>
       <use xlink:href="#DejaVuSans-35" x="95.410156"/>
       <use xlink:href="#DejaVuSans-30" x="159.033203"/>
       <use xlink:href="#DejaVuSans-30" x="222.65625"/>
       <use xlink:href="#DejaVuSans-2c" x="286.279297"/>
       <use xlink:href="#DejaVuSans-30" x="318.066406"/>
       <use xlink:href="#DejaVuSans-30" x="381.689453"/>
       <use xlink:href="#DejaVuSans-30" x="445.3125"/>
      </g>
     </g>
    </g>
    <g id="ytick_8">
     <g id="line2d_27">
      <path d="M 82.37 91.694153 
L 709.2 91.694153 
" clip-path="url(#p1935ed69df)" style="fill: none; stroke: #b0b0b0; stroke-width: 0.8; stroke-linecap: square"/>
     </g>
     <g id="line2d_28">
      <g>
       <use xlink:href="#m0be0fcfb8d" x="82.37" y="91.694153" style="stroke: #000000; stroke-width: 0.8"/>
      </g>
     </g>
     <g id="text_14">
      <!-- 1,750,000 -->
      <g transform="translate(24.47625 95.493372) scale(0.1 -0.1)">
       <use xlink:href="#DejaVuSans-31"/>
       <use xlink:href="#DejaVuSans-2c" x="63.623047"/>
       <use xlink:href="#DejaVuSans-37" x="95.410156"/>
       <use xlink:href="#DejaVuSans-35" x="159.033203"/>
       <use xlink:href="#DejaVuSans-30" x="222.65625"/>
       <use xlink:href="#DejaVuSans-2c" x="286.279297"/>
       <use xlink:href="#DejaVuSans-30" x="318.066406"/>
       <use xlink:href="#DejaVuSans-30" x="381.689453"/>
       <use xlink:href="#DejaVuSans-30" x="445.3125"/>
      </g>
     </g>
    </g>
    <g id="ytick_9">
     <g id="line2d_29">
      <path d="M 82.37 39.693318 
L 709.2 39.693318 
" clip-path="url(#p1935ed69df)" style="fill: none; stroke: #b0b0b0; stroke-width: 0.8; stroke-linecap: square"/>
     </g>
     <g id="line2d_30">
      <g>
       <use xlink:href="#m0be0fcfb8d" x="82.37" y="39.693318" style="stroke: #000000; stroke-width: 0.8"/>
      </g>
     </g>
     <g id="text_15">
      <!-- 2,000,000 -->
      <g transform="translate(24.47625 43.492537) scale(0.1 -0.1)">
       <use xlink:href="#DejaVuSans-32"/>
       <use xlink:href="#DejaVuSans-2c" x="63.623047"/>
       <use xlink:href="#DejaVuSans-30" x="95.410156"/>
       <use xlink:href="#DejaVuSans-30" x="159.033203"/>
       <use xlink:href="#DejaVuSans-30" x="222.65625"/>
       <use xlink:href="#DejaVuSans-2c" x="286.279297"/>
       <use xlink:href="#DejaVuSans-30" x="318.066406"/>
       <use xlink:href="#DejaVuSans-30" x="381.689453"/>
       <use xlink:href="#DejaVuSans-30" x="445.3125"/>
      </g>
     </g>
    </g>
    <g id="text_16">
     <!-- Cumulative Payload Mass (kg) -->
     <g transform="translate(18.396562 326.863281) rotate(-90) scale(0.1 -0.1)">
      <defs>
       <path id="DejaVuSans-43" d="M 4122 4306 
L 4122 3641 
Q 3803 3938 3442 4084 
Q 3081 4231 2675 4231 
Q 1875 4231 1450 3742 
Q 1025 3253 1025 2328 
Q 1025 1406 1450 917 
Q 1875 428 2675 428 
Q 3081 428 3442 575 
Q 3803 722 4122 1019 
L 4122 359 
Q 3791 134 3420 21 
Q 3050 -91 2638 -91 
Q 1578 -91 968 557 
Q 359 1206 359 2328 
Q 359 3453 968 4101 
Q 1578 4750 2638 4750 
Q 3056 4750 3426 4639 
Q 3797 4528 4122 4306 
z
" transform="scale(0.015625)"/>
       <path id="DejaVuSans-6d" d="M 3328 2828 
Q 3544 3216 3844 3400 
Q 4144 3584 4550 3584 
Q 5097 3584 5394 3201 
Q 5691 2819 5691 2113 
L 5691 0 
L 5113 0 
L 5113 2094 
Q 5113 2597 4934 2840 
Q 4756 3084 4391 3084 
Q 3944 3084 3684 2787 
Q 3425 2491 3425 1978 
L 3425 0 
L 2847 0 
L 2847 2094 
Q 2847 2600 2669 2842 
Q 2491 3084 2119 3084 
Q 1678 3084 1418 2786 
Q 1159 2488 1159 1978 
L 1159 0 
L 581 0 
L 581 3500 
L 1159 3500 
L 1159 2956 
Q 1356 3278 1631 3431 
Q 1906 3584 2284 3584 
Q 2666 3584 2933 3390 
Q 3200 3197 3328 2828 
z
" transform="scale(0.015625)"/>
       <path id="DejaVuSans-74" d="M 1172 4494 
L 1172 3500 
L 2356 3500 
L 2356 3053 
L 1172 3053 
L 1172 1153 
Q 1172 725 1289 603 
Q 1406 481 1766 481 
L 2356 481 
L 2356 0 
L 1766 0 
Q 1100 0 847 248 
Q 594 497 594 1153 
L 594 3053 
L 172 3053 
L 172 3500 
L 594 3500 
L 594 4494 
L 1172 4494 
z
" transform="scale(0.015625)"/>
       <path id="DejaVuSans-69" d="M 603 3500 
L 1178 3500 
L 1178 0 
L 603 0 
L 603 3500 
z
M 603 4863 
L 1178 4863 
L 1178 4134 
L 603 4134 
L 603 4863 
z
" transform="scale(0.015625)"/>
       <path id="DejaVuSans-50" d="M 1259 4147 
L 1259 2394 
L 2053 2394 
Q 2494 2394 2734 2622 
Q 2975 2850 2975 3272 
Q 2975 3691 2734 3919 
Q 2494 4147 2053 4147 
L 1259 4147 
z
M 628 4666 
L 2053 4666 
Q 2838 4666 3239 4311 
Q 3641 3956 3641 3272 
Q 3641 2581 3239 2228 
Q 2838 1875 2053 1875 
L 1259 1875 
L 1259 0 
L 628 0 
L 628 4666 
z
" transform="scale(0.015625)"/>
       <path id="DejaVuSans-64" d="M 2906 2969 
L 2906 4863 
L 3481 4863 
L 3481 0 
L 2906 0 
L 2906 525 
Q 2725 213 2448 61 
Q 2172 -91 1784 -91 
Q 1150 -91 751 415 
Q 353 922 353 1747 
Q 353 2572 751 3078 
Q 1150 3584 1784 3584 
Q 2172 3584 2448 3432 
Q 2725 3281 2906 2969 
z
M 947 1747 
Q 947 1113 1208 752 
Q 1469 391 1925 391 
Q 2381 391 2643 752 
Q 2906 1113 2906 1747 
Q 2906 2381 2643 2742 
Q 2381 3103 1925 3103 
Q 1469 3103 1208 2742 
Q 947 2381 947 1747 
z
" transform="scale(0.015625)"/>
       <path id="DejaVuSans-73" d="M 2834 3397 
L 2834 2853 
Q 2591 2978 2328 3040 
Q 2066 3103 1784 3103 
Q 1356 3103 1142 2972 
Q 928 2841 928 2578 
Q 928 2378 1081 2264 
Q 1234 2150 1697 2047 
L 1894 2003 
Q 2506 1872 2764 1633 
Q 3022 1394 3022 966 
Q 3022 478 2636 193 
Q 2250 -91 1575 -91 
Q 1294 -91 989 -36 
Q 684 19 347 128 
L 347 722 
Q 666 556 975 473 
Q 1284 391 1588 391 
Q 1994 391 2212 530 
Q 2431 669 2431 922 
Q 2431 1156 2273 1281 
Q 2116 1406 1581 1522 
L 1381 1569 
Q 847 1681 609 1914 
Q 372 2147 372 2553 
Q 372 3047 722 3315 
Q 1072 3584 1716 3584 
Q 2034 3584 2315 3537 
Q 2597 3491 2834 3397 
z
" transform="scale(0.015625)"/>
       <path id="DejaVuSans-28" d="M 1984 4856 
Q 1566 4138 1362 3434 
Q 1159 2731 1159 2009 
Q 1159 1288 1364 580 
Q 1569 -128 1984 -844 
L 1484 -844 
Q 1016 -109 783 600 
Q 550 1309 550 2009 
Q 550 2706 781 3412 
Q 1013 4119 1484 4856 
L 1984 4856 
z
" transform="scale(0.015625)"/>
       <path id="DejaVuSans-6b" d="M 581 4863 
L 1159 4863 
L 1159 1991 
L 2875 3500 
L 3609 3500 
L 1753 1863 
L 3688 0 
L 2938 0 
L 1159 1709 
L 1159 0 
L 581 0 
L 581 4863 
z
" transform="scale(0.015625)"/>
       <path id="DejaVuSans-67" d="M 2906 1791 
Q 2906 2416 2648 2759 
Q 2391 3103 1925 3103 
Q 1463 3103 1205 2759 
Q 947 2416 947 1791 
Q 947 1169 1205 825 
Q 1463 481 1925 481 
Q 2391 481 2648 825 
Q 2906 1169 2906 1791 
z
M 3481 434 
Q 3481 -459 3084 -895 
Q 2688 -1331 1869 -1331 
Q 1566 -1331 1297 -1286 
Q 1028 -1241 775 -1147 
L 775 -588 
Q 1028 -725 1275 -790 
Q 1522 -856 1778 -856 
Q 2344 -856 2625 -561 
Q 2906 -266 2906 331 
L 2906 616 
Q 2728 306 2450 153 
Q 2172 0 1784 0 
Q 1141 0 747 490 
Q 353 981 353 1791 
Q 353 2603 747 3093 
Q 1141 3584 1784 3584 
Q 2172 3584 2450 3431 
Q 2728 3278 2906 2969 
L 2906 3500 
L 3481 3500 
L 3481 434 
z
" transform="scale(0.015625)"/>
       <path id="DejaVuSans-29" d="M 513 4856 
L 1013 4856 
Q 1481 4119 1714 3412 
Q 1947 2706 1947 2009 
Q 1947 1309 1714 600 
Q 1481 -109 1013 -844 
L 513 -844 
Q 928 -128 1133 580 
Q 1338 1288 1338 2009 
Q 1338 2731 1133 3434 
Q 928 4138 513 4856 
z
" transform="scale(0.015625)"/>
      </defs>
      <use xlink:href="#DejaVuSans-43"/>
      <use xlink:href="#DejaVuSans-75" x="69.824219"/>
      <use xlink:href="#DejaVuSans-6d" x="133.203125"/>
      <use xlink:href="#DejaVuSans-75" x="230.615234"/>
      <use xlink:href="#DejaVuSans-6c" x="293.994141"/>
      <use xlink:href="#DejaVuSans-61" x="321.777344"/>
      <use xlink:href="#DejaVuSans-74" x="383.056641"/>
      <use xlink:href="#DejaVuSans-69" x="422.265625"/>
      <use xlink:href="#DejaVuSans-76" x="450.048828"/>
      <use xlink:href="#DejaVuSans-65" x="509.228516"/>
      <use xlink:href="#DejaVuSans-20" x="570.751953"/>
      <use xlink:href="#DejaVuSans-50" x="602.539062"/>
      <use xlink:href="#DejaVuSans-61" x="658.341797"/>
      <use xlink:href="#DejaVuSans-79" x="719.621094"/>
      <use xlink:href="#DejaVuSans-6c" x="778.800781"/>
      <use xlink:href="#DejaVuSans-6f" x="806.583984"/>
      <use xlink:href="#DejaVuSans-61" x="867.765625"/>
      <use xlink:href="#DejaVuSans-64" x="929.044922"/>
      <use xlink:href="#DejaVuSans-20" x="992.521484"/>
      <use xlink:href="#DejaVuSans-4d" x="1024.308594"/>
      <use xlink:href="#DejaVuSans-61" x="1110.587891"/>
      <use xlink:href="#DejaVuSans-73" x="1171.867188"/>
      <use xlink:href="#DejaVuSans-73" x="1223.966797"/>
      <use xlink:href="#DejaVuSans-20" x="1276.066406"/>
      <use xlink:href="#DejaVuSans-28" x="1307.853516"/>
      <use xlink:href="#DejaVuSans-6b" x="1346.867188"/>
      <use xlink:href="#DejaVuSans-67" x="1404.777344"/>
      <use xlink:href="#DejaVuSans-29" x="1468.253906"/>
     </g>
    </g>
   </g>
   <g id="line2d_31">
    <path d="M 106.728679 455.7 
L 127.839534 455.7 
L 127.839534 453.703168 
L 186.300363 453.703168 
L 186.300363 453.18524 
L 226.898161 453.18524 
L 226.898161 452.020421 
L 249.632927 452.020421 
L 249.632927 450.918003 
L 301.598109 450.918003 
L 301.598109 450.918003 
L 324.332876 450.918003 
L 324.332876 449.655423 
L 355.187202 449.655423 
L 355.187202 449.09215 
L 387.66544 449.09215 
L 387.66544 448.328986 
L 390.913264 448.328986 
L 390.913264 446.332154 
L 407.152383 446.332154 
L 407.152383 444.925843 
L 472.10886 444.925843 
L 472.10886 444.237352 
L 488.347979 444.237352 
L 488.347979 444.13855 
L 511.082746 444.13855 
L 511.082746 443.100614 
L 563.047927 443.100614 
L 563.047927 441.103782 
L 566.295751 441.103782 
L 566.295751 439.980564 
L 597.150078 439.980564 
L 597.150078 439.252552 
L 671.850026 439.252552 
L 671.850026 438.793904 
L 684.841321 438.793904 
L 684.841321 436.797072 
L 697.832617 436.797072 
L 697.832617 436.797072 
" clip-path="url(#p1935ed69df)" style="fill: none; stroke: #808080; stroke-width: 1.5; stroke-linecap: square"/>
   </g>
   <g id="line2d_32">
    <path d="M 106.728679 455.7 
L 118.096062 455.7 
L 118.096062 455.7 
L 155.446036 455.7 
L 155.446036 454.820146 
L 165.189508 454.820146 
L 165.189508 454.560142 
L 191.172098 454.560142 
L 191.172098 454.112935 
L 210.659041 454.112935 
L 210.659041 452.845778 
L 249.632927 452.845778 
L 249.632927 450.848946 
L 254.504663 450.848946 
L 254.504663 450.298361 
L 280.487254 450.298361 
L 280.487254 450.223064 
L 317.837228 450.223064 
L 317.837228 449.474252 
L 335.700259 449.474252 
L 335.700259 448.13055 
L 356.811114 448.13055 
L 356.811114 447.01066 
L 397.408912 447.01066 
L 397.408912 446.449675 
L 434.758886 446.449675 
L 434.758886 444.978052 
L 439.630622 444.978052 
L 439.630622 442.98122 
L 460.741477 442.98122 
L 460.741477 441.7748 
L 515.954482 441.7748 
L 515.954482 440.306297 
L 561.424016 440.306297 
L 561.424016 439.682287 
L 623.132668 439.682287 
L 623.132668 438.579869 
L 652.363083 438.579869 
L 652.363083 437.747856 
L 655.610907 437.747856 
L 655.610907 437.227847 
L 684.841321 437.227847 
L 684.841321 436.312633 
L 697.832617 436.312633 
L 697.832617 436.312633 
" clip-path="url(#p1935ed69df)" style="fill: none; stroke: #90ee90; stroke-width: 1.5; stroke-linecap: square"/>
   </g>
   <g id="line2d_33">
    <path d="M 106.728679 455.7 
L 122.967798 455.7 
L 122.967798 453.703168 
L 191.172098 453.703168 
L 191.172098 452.694352 
L 204.163394 452.694352 
L 204.163394 450.186871 
L 269.11987 450.186871 
L 269.11987 448.84213 
L 306.469845 448.84213 
L 306.469845 448.323162 
L 338.948083 448.323162 
L 338.948083 445.490156 
L 369.802409 445.490156 
L 369.802409 444.616542 
L 390.913264 444.616542 
L 390.913264 443.84693 
L 439.630622 443.84693 
L 439.630622 443.375178 
L 459.117565 443.375178 
L 459.117565 442.023156 
L 616.637021 442.023156 
L 616.637021 438.778304 
L 655.610907 438.778304 
L 655.610907 438.233959 
L 675.09785 438.233959 
L 675.09785 436.787088 
L 697.832617 436.787088 
L 697.832617 436.787088 
" clip-path="url(#p1935ed69df)" style="fill: none; stroke: #add8e6; stroke-width: 1.5; stroke-linecap: square"/>
   </g>
   <g id="line2d_34">
    <path d="M 106.728679 455.7 
L 116.47215 455.7 
L 116.47215 452.455148 
L 135.959093 452.455148 
L 135.959093 449.948708 
L 152.198212 449.948708 
L 152.198212 446.703855 
L 183.052539 446.703855 
L 183.052539 443.459003 
L 213.906865 443.459003 
L 213.906865 443.047781 
L 231.769896 443.047781 
L 231.769896 439.802929 
L 288.606813 439.802929 
L 288.606813 436.558077 
L 350.315466 436.558077 
L 350.315466 433.951795 
L 358.435026 433.951795 
L 358.435026 430.706943 
L 373.050233 430.706943 
L 373.050233 427.501611 
L 400.656736 427.501611 
L 400.656736 426.604909 
L 433.134974 426.604909 
L 433.134974 425.46089 
L 462.365389 425.46089 
L 462.365389 422.354984 
L 480.22842 422.354984 
L 480.22842 419.143413 
L 499.715363 419.143413 
L 499.715363 418.492362 
L 506.21101 418.492362 
L 506.21101 415.24751 
L 559.800104 415.24751 
L 559.800104 412.002658 
L 579.287047 412.002658 
L 579.287047 408.757806 
L 589.030518 408.757806 
L 589.030518 405.512954 
L 608.517461 405.512954 
L 608.517461 404.616251 
L 626.380492 404.616251 
L 626.380492 402.01621 
L 634.500052 402.01621 
L 634.500052 401.76827 
L 640.995699 401.76827 
L 640.995699 398.523418 
L 658.858731 398.523418 
L 658.858731 397.905232 
L 670.226114 397.905232 
L 670.226114 396.449208 
L 679.969585 396.449208 
L 679.969585 396.449208 
L 699.456528 396.449208 
L 699.456528 396.449208 
" clip-path="url(#p1935ed69df)" style="fill: none; stroke: #ffc0cb; stroke-width: 1.5; stroke-linecap: square"/>
   </g>
   <g id="line2d_35">
    <path d="M 106.728679 455.7 
L 118.096062 455.7 
L 118.096062 454.971988 
L 137.583005 454.971988 
L 137.583005 451.727136 
L 144.078653 451.727136 
L 144.078653 450.687119 
L 161.941684 450.687119 
L 161.941684 447.442267 
L 181.428627 447.442267 
L 181.428627 444.197415 
L 207.411218 444.197415 
L 207.411218 440.952563 
L 218.778601 440.952563 
L 218.778601 437.707711 
L 223.650337 437.707711 
L 223.650337 434.462859 
L 239.889456 434.462859 
L 239.889456 431.218007 
L 262.624223 431.218007 
L 262.624223 427.973155 
L 288.606813 427.973155 
L 288.606813 425.269111 
L 298.350285 425.269111 
L 298.350285 422.024259 
L 306.469845 422.024259 
L 306.469845 418.779407 
L 314.589404 418.779407 
L 314.589404 415.534555 
L 324.332876 415.534555 
L 324.332876 412.322983 
L 342.195907 412.322983 
L 342.195907 409.078131 
L 355.187202 409.078131 
L 355.187202 408.385896 
L 360.058938 408.385896 
L 360.058938 406.929873 
L 377.921969 406.929873 
L 377.921969 406.02901 
L 399.032824 406.02901 
L 399.032824 406.02901 
L 496.467539 406.02901 
L 496.467539 405.571403 
L 522.45013 405.571403 
L 522.45013 402.813278 
L 525.697953 402.813278 
L 525.697953 400.209285 
L 616.637021 400.209285 
L 616.637021 397.505241 
L 619.884845 397.505241 
L 619.884845 394.253109 
L 637.747876 394.253109 
L 637.747876 394.123315 
L 650.739171 394.123315 
L 650.739171 391.107266 
L 662.106554 391.107266 
L 662.106554 391.039665 
L 676.721762 391.039665 
L 676.721762 387.794813 
L 678.345674 387.794813 
L 678.345674 386.858798 
L 681.593497 386.858798 
L 681.593497 386.237076 
L 697.832617 386.237076 
L 697.832617 386.237076 
" clip-path="url(#p1935ed69df)" style="fill: none; stroke: #800080; stroke-width: 1.5; stroke-linecap: square"/>
   </g>
   <g id="line2d_36">
    <path d="M 106.728679 455.7 
L 114.848238 455.7 
L 114.848238 452.683952 
L 126.215622 452.683952 
L 126.215622 452.683952 
L 135.959093 452.683952 
L 135.959093 449.667903 
L 155.446036 449.667903 
L 155.446036 449.209256 
L 158.69386 449.209256 
L 158.69386 449.209256 
L 160.317772 449.209256 
L 160.317772 446.193207 
L 189.548187 446.193207 
L 189.548187 443.364362 
L 196.043834 443.364362 
L 196.043834 440.296313 
L 205.787306 440.296313 
L 205.787306 437.405066 
L 215.530777 437.405066 
L 215.530777 434.459739 
L 231.769896 434.459739 
L 231.769896 431.079685 
L 252.880751 431.079685 
L 252.880751 431.079685 
L 264.248135 431.079685 
L 264.248135 428.375641 
L 278.863342 428.375641 
L 278.863342 428.375641 
L 285.35899 428.375641 
L 285.35899 424.995587 
L 295.102461 424.995587 
L 295.102461 422.291543 
L 298.350285 422.291543 
L 298.350285 418.911489 
L 309.717668 418.911489 
L 309.717668 415.531435 
L 321.085052 415.531435 
L 321.085052 412.15138 
L 322.708964 412.15138 
L 322.708964 408.771326 
L 329.204611 408.771326 
L 329.204611 405.391272 
L 340.571995 405.391272 
L 340.571995 405.391272 
L 363.306762 405.391272 
L 363.306762 404.538458 
L 377.921969 404.538458 
L 377.921969 401.158404 
L 379.545881 401.158404 
L 379.545881 400.326391 
L 381.169793 400.326391 
L 381.169793 400.180788 
L 397.408912 400.180788 
L 397.408912 399.452777 
L 410.400207 399.452777 
L 410.400207 396.072722 
L 416.895855 396.072722 
L 416.895855 393.139875 
L 423.391503 393.139875 
L 423.391503 392.584922 
L 426.639326 392.584922 
L 426.639326 389.204868 
L 434.758886 389.204868 
L 434.758886 386.272021 
L 438.00671 386.272021 
L 438.00671 382.891967 
L 455.869741 382.891967 
L 455.869741 382.750732 
L 465.613212 382.750732 
L 465.613212 379.422679 
L 468.861036 379.422679 
L 468.861036 376.489832 
L 480.22842 376.489832 
L 480.22842 373.109777 
L 494.843627 373.109777 
L 494.843627 369.636122 
L 499.715363 369.636122 
L 499.715363 366.682474 
L 507.834922 366.682474 
L 507.834922 363.354421 
L 517.578394 363.354421 
L 517.578394 360.871277 
L 530.569689 360.871277 
L 530.569689 357.397621 
L 538.689249 357.397621 
L 538.689249 354.048767 
L 556.55228 354.048767 
L 556.55228 351.344724 
L 556.55228 351.344724 
L 556.55228 347.99587 
L 561.424016 347.99587 
L 561.424016 346.467045 
L 572.791399 346.467045 
L 572.791399 345.53103 
L 580.910959 345.53103 
L 580.910959 342.057375 
L 593.902254 342.057375 
L 593.902254 338.64612 
L 600.397902 338.64612 
L 600.397902 337.866107 
L 603.645725 337.866107 
L 603.645725 336.930092 
L 618.260933 336.930092 
L 618.260933 335.55727 
L 636.123964 335.55727 
L 636.123964 334.413252 
L 640.995699 334.413252 
L 640.995699 333.679416 
L 660.482642 333.679416 
L 660.482642 332.431396 
L 665.354378 332.431396 
L 665.354378 332.223393 
L 673.473938 332.223393 
L 673.473938 331.765785 
L 673.473938 331.765785 
L 673.473938 330.912972 
L 675.09785 330.912972 
L 675.09785 327.439316 
L 692.960881 327.439316 
L 692.960881 323.96566 
L 696.208705 323.96566 
L 696.208705 323.882459 
L 697.832617 323.882459 
L 697.832617 323.882459 
" clip-path="url(#p1935ed69df)" style="fill: none; stroke: #ffa500; stroke-width: 1.5; stroke-linecap: square"/>
   </g>
   <g id="line2d_37">
    <path d="M 106.728679 455.7 
L 121.343886 455.7 
L 121.343886 454.45198 
L 129.463446 454.45198 
L 129.463446 453.671967 
L 134.335181 453.671967 
L 134.335181 452.766737 
L 135.959093 452.766737 
L 135.959093 449.646687 
L 147.326477 449.646687 
L 147.326477 446.027429 
L 155.446036 446.027429 
L 155.446036 442.865778 
L 158.69386 442.865778 
L 158.69386 439.433723 
L 166.81342 439.433723 
L 166.81342 438.571341 
L 174.932979 438.571341 
L 174.932979 435.014484 
L 183.052539 435.014484 
L 183.052539 431.707231 
L 184.676451 431.707231 
L 184.676451 430.569452 
L 199.291658 430.569452 
L 199.291658 427.387001 
L 204.163394 427.387001 
L 204.163394 424.682958 
L 205.787306 424.682958 
L 205.787306 421.375705 
L 215.530777 421.375705 
L 215.530777 420.127685 
L 225.274249 420.127685 
L 225.274249 419.534459 
L 228.522073 419.534459 
L 228.522073 414.708782 
L 239.889456 414.708782 
L 239.889456 411.089523 
L 248.009016 411.089523 
L 248.009016 407.470265 
L 262.624223 407.470265 
L 262.624223 406.307943 
L 282.111166 406.307943 
L 282.111166 403.125492 
L 295.102461 403.125492 
L 295.102461 400.192644 
L 296.726373 400.192644 
L 296.726373 399.339831 
L 301.598109 399.339831 
L 301.598109 398.008609 
L 306.469845 398.008609 
L 306.469845 394.389351 
L 316.213316 394.389351 
L 316.213316 391.082098 
L 322.708964 391.082098 
L 322.708964 387.46284 
L 330.828523 387.46284 
L 330.828523 384.113986 
L 332.452435 384.113986 
L 332.452435 382.741164 
L 334.076347 382.741164 
L 334.076347 380.037121 
L 343.819819 380.037121 
L 343.819819 379.101106 
L 350.315466 379.101106 
L 350.315466 375.689851 
L 356.811114 375.689851 
L 356.811114 372.340997 
L 358.435026 372.340997 
L 358.435026 371.653754 
L 369.802409 371.653754 
L 369.802409 368.242499 
L 369.802409 368.242499 
L 379.545881 368.242499 
L 379.545881 367.289844 
L 386.041528 367.289844 
L 386.041528 364.273795 
L 387.66544 364.273795 
L 387.66544 360.654537 
L 400.656736 360.654537 
L 400.656736 360.20525 
L 410.400207 360.20525 
L 410.400207 357.106 
L 415.271943 357.106 
L 415.271943 353.757147 
L 425.015415 353.757147 
L 425.015415 350.283491 
L 431.511062 350.283491 
L 431.511062 347.787451 
L 438.00671 347.787451 
L 438.00671 344.438597 
L 444.502358 344.438597 
L 444.502358 341.089743 
L 446.126269 341.089743 
L 446.126269 339.176112 
L 454.245829 339.176112 
L 454.245829 338.122991 
L 460.741477 338.122991 
L 460.741477 334.774138 
L 462.365389 334.774138 
L 462.365389 332.278098 
L 467.237124 332.278098 
L 467.237124 328.929244 
L 476.980596 328.929244 
L 476.980596 325.58039 
L 485.100155 325.58039 
L 485.100155 322.397939 
L 491.595803 322.397939 
L 491.595803 319.693895 
L 493.219715 319.693895 
L 493.219715 316.345042 
L 501.339275 316.345042 
L 501.339275 312.996188 
L 506.21101 312.996188 
L 506.21101 309.813737 
L 514.33057 309.813737 
L 514.33057 306.464883 
L 519.202306 306.464883 
L 519.202306 303.282432 
L 525.697953 303.282432 
L 525.697953 299.933578 
L 532.193601 299.933578 
L 532.193601 296.584724 
L 538.689249 296.584724 
L 538.689249 293.23587 
L 540.313161 293.23587 
L 540.313161 290.053419 
L 548.43272 290.053419 
L 548.43272 286.704565 
L 556.55228 286.704565 
L 556.55228 283.355712 
L 563.047927 283.355712 
L 563.047927 280.173261 
L 569.543575 280.173261 
L 569.543575 276.281934 
L 577.663135 276.281934 
L 577.663135 272.93308 
L 582.53487 272.93308 
L 582.53487 269.750629 
L 584.158782 269.750629 
L 584.158782 266.256173 
L 595.526166 266.256173 
L 595.526166 262.907319 
L 597.150078 262.907319 
L 597.150078 259.412863 
L 605.269637 259.412863 
L 605.269637 255.918407 
L 611.765285 255.918407 
L 611.765285 252.423951 
L 615.013109 252.423951 
L 615.013109 250.442719 
L 618.260933 250.442719 
L 618.260933 249.589905 
L 628.004404 249.589905 
L 628.004404 246.095449 
L 628.004404 246.095449 
L 631.252228 246.095449 
L 631.252228 242.746595 
L 634.500052 242.746595 
L 634.500052 239.252139 
L 644.243523 239.252139 
L 644.243523 235.757683 
L 649.115259 235.757683 
L 649.115259 235.59128 
L 652.363083 235.59128 
L 652.363083 232.096824 
L 658.858731 232.096824 
L 658.858731 228.602368 
L 660.482642 228.602368 
L 660.482642 225.253514 
L 678.345674 225.253514 
L 678.345674 221.759058 
L 684.841321 221.759058 
L 684.841321 218.264602 
L 686.465233 218.264602 
L 686.465233 217.51579 
L 694.584793 217.51579 
L 694.584793 212.700513 
L 697.832617 212.700513 
L 697.832617 212.700513 
" clip-path="url(#p1935ed69df)" style="fill: none; stroke: #0000ff; stroke-width: 1.5; stroke-linecap: square"/>
   </g>
   <g id="line2d_38">
    <path d="M 106.728679 455.7 
L 109.976503 455.7 
L 109.976503 451.831138 
L 116.47215 451.831138 
L 116.47215 448.274281 
L 127.839534 448.274281 
L 127.839534 444.800625 
L 129.463446 444.800625 
L 129.463446 441.243768 
L 134.335181 441.243768 
L 134.335181 438.539724 
L 144.078653 438.539724 
L 144.078653 435.066069 
L 152.198212 435.066069 
L 152.198212 428.035556 
L 153.822124 428.035556 
L 153.822124 427.260535 
L 168.437332 427.260535 
L 168.437332 426.908178 
L 171.685155 426.908178 
L 171.685155 423.434522 
L 179.804715 423.434522 
L 179.804715 419.559211 
L 187.924275 419.559211 
L 187.924275 418.727198 
L 192.79601 418.727198 
L 192.79601 415.253542 
L 196.043834 415.253542 
L 196.043834 411.613484 
L 202.539482 411.613484 
L 202.539482 408.056627 
L 209.03513 408.056627 
L 209.03513 401.795726 
L 218.778601 401.795726 
L 218.778601 398.238869 
L 220.402513 398.238869 
L 220.402513 394.682012 
L 228.522073 394.682012 
L 228.522073 391.125155 
L 233.393808 391.125155 
L 233.393808 387.7347 
L 236.641632 387.7347 
L 236.641632 387.168723 
L 241.513368 387.168723 
L 241.513368 383.611866 
L 243.13728 383.611866 
L 243.13728 380.055009 
L 251.256839 380.055009 
L 251.256839 379.014992 
L 252.880751 379.014992 
L 252.880751 375.458135 
L 256.128575 375.458135 
L 256.128575 371.984479 
L 261.000311 371.984479 
L 261.000311 368.427622 
L 264.248135 368.427622 
L 264.248135 364.933166 
L 264.248135 364.933166 
L 269.11987 364.933166 
L 269.11987 361.376309 
L 270.743782 361.376309 
L 270.743782 361.126705 
L 273.991606 361.126705 
L 273.991606 357.569848 
L 280.487254 357.569848 
L 280.487254 354.012991 
L 282.111166 354.012991 
L 282.111166 350.456134 
L 290.230725 350.456134 
L 290.230725 346.899276 
L 298.350285 346.899276 
L 298.350285 343.009614 
L 304.845933 343.009614 
L 304.845933 342.697609 
L 306.469845 342.697609 
L 306.469845 339.140752 
L 311.34158 339.140752 
L 311.34158 335.583895 
L 314.589404 335.583895 
L 314.589404 332.027037 
L 317.837228 332.027037 
L 317.837228 328.636583 
L 322.708964 328.636583 
L 322.708964 325.079726 
L 324.332876 325.079726 
L 324.332876 321.689271 
L 330.828523 321.689271 
L 330.828523 318.132414 
L 338.948083 318.132414 
L 338.948083 314.575557 
L 340.571995 314.575557 
L 340.571995 311.0187 
L 347.067642 311.0187 
L 347.067642 306.973035 
L 353.56329 306.973035 
L 353.56329 303.416178 
L 360.058938 303.416178 
L 360.058938 300.025723 
L 364.930674 300.025723 
L 364.930674 293.161613 
L 382.793705 293.161613 
L 382.793705 289.771159 
L 384.417617 289.771159 
L 384.417617 288.731142 
L 389.289352 288.731142 
L 389.289352 285.257486 
L 390.913264 285.257486 
L 390.913264 281.867032 
L 392.537176 281.867032 
L 392.537176 280.827015 
L 395.785 280.827015 
L 395.785 277.270158 
L 405.528472 277.270158 
L 405.528472 273.879703 
L 413.648031 273.879703 
L 413.648031 272.995689 
L 444.502358 272.995689 
L 444.502358 269.438832 
L 446.126269 269.438832 
L 446.126269 262.44992 
L 454.245829 262.44992 
L 454.245829 258.893063 
L 457.493653 258.893063 
L 457.493653 254.533937 
L 467.237124 254.533937 
L 467.237124 251.101882 
L 470.484948 251.101882 
L 470.484948 246.04116 
L 475.356684 246.04116 
L 475.356684 245.729155 
L 483.476244 245.729155 
L 483.476244 242.2555 
L 496.467539 242.2555 
L 496.467539 238.781844 
L 501.339275 238.781844 
L 501.339275 231.834532 
L 509.458834 231.834532 
L 509.458834 228.360876 
L 517.578394 228.360876 
L 517.578394 225.656833 
L 520.826218 225.656833 
L 520.826218 224.096808 
L 522.45013 224.096808 
L 522.45013 220.623152 
L 528.945777 220.623152 
L 528.945777 220.290347 
L 533.817513 220.290347 
L 533.817513 216.899892 
L 541.937073 216.899892 
L 541.937073 213.509438 
L 546.808808 213.509438 
L 546.808808 210.805394 
L 561.424016 210.805394 
L 561.424016 210.574927 
L 572.791399 210.574927 
L 572.791399 209.313386 
L 574.415311 209.313386 
L 574.415311 202.366075 
L 579.287047 202.366075 
L 579.287047 198.97562 
L 582.53487 198.97562 
L 582.53487 198.361178 
L 587.406606 198.361178 
L 587.406606 194.804321 
L 592.278342 194.804321 
L 592.278342 191.330666 
L 598.77399 191.330666 
L 598.77399 184.383354 
L 608.517461 184.383354 
L 608.517461 183.808849 
L 611.765285 183.808849 
L 611.765285 180.251992 
L 615.013109 180.251992 
L 615.013109 176.861537 
L 618.260933 176.861537 
L 618.260933 172.493467 
L 623.132668 172.493467 
L 623.132668 165.462954 
L 628.004404 165.462954 
L 628.004404 164.630941 
L 629.628316 164.630941 
L 629.628316 160.26287 
L 634.500052 160.26287 
L 634.500052 156.622812 
L 639.371788 156.622812 
L 639.371788 153.232358 
L 640.995699 153.232358 
L 640.995699 149.6755 
L 644.243523 149.6755 
L 644.243523 146.035442 
L 649.115259 146.035442 
L 649.115259 139.04653 
L 655.610907 139.04653 
L 655.610907 135.406471 
L 657.234819 135.406471 
L 657.234819 130.559993 
L 662.106554 130.559993 
L 662.106554 127.003136 
L 670.226114 127.003136 
L 670.226114 123.52948 
L 676.721762 123.52948 
L 676.721762 121.917455 
L 683.217409 121.917455 
L 683.217409 121.751052 
L 686.465233 121.751052 
L 686.465233 118.318997 
L 696.208705 118.318997 
L 696.208705 114.512536 
L 699.456528 114.512536 
L 699.456528 114.512536 
L 699.456528 111.08048 
L 699.456528 111.08048 
" clip-path="url(#p1935ed69df)" style="fill: none; stroke: #008000; stroke-width: 1.5; stroke-linecap: square"/>
   </g>
   <g id="line2d_39">
    <path d="M 106.728679 455.7 
L 111.600415 455.7 
L 111.600415 454.659983 
L 114.848238 454.659983 
L 114.848238 451.019925 
L 118.096062 451.019925 
L 118.096062 447.58787 
L 121.343886 447.58787 
L 121.343886 447.58787 
L 121.343886 444.155815 
L 126.215622 444.155815 
L 126.215622 440.723759 
L 127.839534 440.723759 
L 127.839534 440.307753 
L 129.463446 440.307753 
L 129.463446 439.784208 
L 139.206917 439.784208 
L 139.206917 433.377705 
L 144.078653 433.377705 
L 144.078653 429.820848 
L 148.950389 429.820848 
L 148.950389 426.388793 
L 153.822124 426.388793 
L 153.822124 425.119973 
L 157.069948 425.119973 
L 157.069948 421.646317 
L 161.941684 421.646317 
L 161.941684 417.902257 
L 168.437332 417.902257 
L 168.437332 414.470202 
L 173.309067 414.470202 
L 173.309067 407.481289 
L 179.804715 407.481289 
L 179.804715 404.049234 
L 184.676451 404.049234 
L 184.676451 400.492377 
L 189.548187 400.492377 
L 189.548187 396.93552 
L 192.79601 396.93552 
L 192.79601 393.441064 
L 199.291658 393.441064 
L 199.291658 393.441064 
L 199.291658 390.009009 
L 205.787306 390.009009 
L 205.787306 386.576954 
L 220.402513 386.576954 
L 220.402513 386.419287 
L 222.026425 386.419287 
L 222.026425 382.987232 
L 223.650337 382.987232 
L 223.650337 380.283189 
L 225.274249 380.283189 
L 225.274249 380.283189 
L 225.274249 376.726331 
L 230.145984 376.726331 
L 230.145984 373.169474 
L 243.13728 373.169474 
L 243.13728 369.945423 
L 251.256839 369.945423 
L 251.256839 366.596569 
L 252.880751 366.596569 
L 252.880751 363.892525 
L 257.752487 363.892525 
L 257.752487 360.668474 
L 261.000311 360.668474 
L 261.000311 357.31962 
L 262.624223 357.31962 
L 262.624223 354.095568 
L 272.367694 354.095568 
L 272.367694 350.663513 
L 273.991606 350.663513 
L 273.991606 347.439461 
L 285.35899 347.439461 
L 285.35899 346.811083 
L 291.854637 346.811083 
L 291.854637 343.462229 
L 296.726373 343.462229 
L 296.726373 336.68132 
L 298.350285 336.68132 
L 298.350285 333.124463 
L 303.222021 333.124463 
L 303.222021 329.775609 
L 306.469845 329.775609 
L 306.469845 326.307154 
L 311.34158 326.307154 
L 311.34158 322.9583 
L 316.213316 322.9583 
L 316.213316 316.499796 
L 321.085052 316.499796 
L 321.085052 310.041292 
L 322.708964 310.041292 
L 322.708964 306.692439 
L 325.956788 306.692439 
L 325.956788 303.582789 
L 334.076347 303.582789 
L 334.076347 300.025931 
L 337.324171 300.025931 
L 337.324171 296.80188 
L 338.948083 296.80188 
L 338.948083 293.245023 
L 343.819819 293.245023 
L 343.819819 289.604964 
L 343.819819 289.604964 
L 345.443731 289.604964 
L 345.443731 286.380912 
L 348.691554 286.380912 
L 348.691554 285.476098 
L 350.315466 285.476098 
L 350.315466 282.252046 
L 355.187202 282.252046 
L 355.187202 278.695189 
L 356.811114 278.695189 
L 356.811114 275.471137 
L 361.68285 275.471137 
L 361.68285 274.139916 
L 363.306762 274.139916 
L 363.306762 271.030266 
L 366.554585 271.030266 
L 366.554585 267.473409 
L 371.426321 267.473409 
L 371.426321 260.806901 
L 377.921969 260.806901 
L 377.921969 257.697252 
L 379.545881 257.697252 
L 379.545881 254.348398 
L 387.66544 254.348398 
L 387.66544 251.124346 
L 387.66544 251.124346 
L 390.913264 251.124346 
L 390.913264 245.196251 
L 395.785 245.196251 
L 395.785 238.862549 
L 400.656736 238.862549 
L 400.656736 238.072136 
L 402.280648 238.072136 
L 402.280648 234.848085 
L 412.024119 234.848085 
L 412.024119 231.499231 
L 420.143679 231.499231 
L 420.143679 230.667217 
L 425.015415 230.667217 
L 425.015415 224.482446 
L 429.88715 224.482446 
L 429.88715 220.842388 
L 434.758886 220.842388 
L 434.758886 220.135176 
L 436.382798 220.135176 
L 436.382798 219.943813 
L 441.254534 219.943813 
L 441.254534 216.594959 
L 442.878446 216.594959 
L 442.878446 212.954901 
L 447.750181 212.954901 
L 447.750181 209.606047 
L 449.374093 209.606047 
L 449.374093 206.68152 
L 450.998005 206.68152 
L 450.998005 203.977477 
L 455.869741 203.977477 
L 455.869741 200.628623 
L 467.237124 200.628623 
L 467.237124 197.553501 
L 472.10886 197.553501 
L 472.10886 190.564589 
L 478.604508 190.564589 
L 478.604508 186.924531 
L 485.100155 186.924531 
L 485.100155 182.246536 
L 488.347979 182.246536 
L 488.347979 181.768128 
L 491.595803 181.768128 
L 491.595803 178.15511 
L 493.219715 178.15511 
L 493.219715 174.806256 
L 494.843627 174.806256 
L 494.843627 171.457402 
L 498.091451 171.457402 
L 498.091451 167.817344 
L 499.715363 167.817344 
L 499.715363 164.46849 
L 504.587098 164.46849 
L 504.587098 157.479578 
L 507.834922 157.479578 
L 507.834922 154.130724 
L 509.458834 154.130724 
L 509.458834 150.490666 
L 519.202306 150.490666 
L 519.202306 148.868239 
L 520.826218 148.868239 
L 520.826218 145.228181 
L 522.45013 145.228181 
L 522.45013 144.188164 
L 528.945777 144.188164 
L 528.945777 140.83931 
L 530.569689 140.83931 
L 530.569689 137.199252 
L 533.817513 137.199252 
L 533.817513 133.850398 
L 538.689249 133.850398 
L 538.689249 133.543177 
L 540.313161 133.543177 
L 540.313161 130.194324 
L 541.937073 130.194324 
L 541.937073 126.554265 
L 546.808808 126.554265 
L 546.808808 123.205411 
L 553.304456 123.205411 
L 553.304456 119.856557 
L 559.800104 119.856557 
L 559.800104 116.507704 
L 561.424016 116.507704 
L 561.424016 113.15885 
L 569.543575 113.15885 
L 569.543575 109.830796 
L 571.167487 109.830796 
L 571.167487 106.755675 
L 574.415311 106.755675 
L 574.415311 103.406821 
L 579.287047 103.406821 
L 579.287047 96.709114 
L 584.158782 96.709114 
L 584.158782 93.36026 
L 587.406606 93.36026 
L 587.406606 92.091439 
L 589.030518 92.091439 
L 589.030518 88.742586 
L 590.65443 88.742586 
L 590.65443 85.393732 
L 593.902254 85.393732 
L 593.902254 82.044878 
L 595.526166 82.044878 
L 595.526166 78.576422 
L 598.77399 78.576422 
L 598.77399 75.227569 
L 608.517461 75.227569 
L 608.517461 68.410259 
L 613.389197 68.410259 
L 613.389197 64.941803 
L 616.637021 64.941803 
L 616.637021 61.473348 
L 623.132668 61.473348 
L 623.132668 54.536436 
L 626.380492 54.536436 
L 626.380492 54.236911 
L 629.628316 54.236911 
L 629.628316 50.768456 
L 632.87614 50.768456 
L 632.87614 50.768456 
L 632.87614 47.3 
L 632.87614 47.3 
" clip-path="url(#p1935ed69df)" style="fill: none; stroke: #ff0000; stroke-width: 1.5; stroke-linecap: square"/>
   </g>
   <g id="patch_3">
    <path d="M 82.37 476.12 
L 82.37 26.88 
" style="fill: none; stroke: #000000; stroke-width: 0.8; stroke-linejoin: miter; stroke-linecap: square"/>
   </g>
   <g id="patch_4">
    <path d="M 709.2 476.12 
L 709.2 26.88 
" style="fill: none; stroke: #000000; stroke-width: 0.8; stroke-linejoin: miter; stroke-linecap: square"/>
   </g>
   <g id="patch_5">
    <path d="M 82.37 476.12 
L 709.2 476.12 
" style="fill: none; stroke: #000000; stroke-width: 0.8; stroke-linejoin: miter; stroke-linecap: square"/>
   </g>
   <g id="patch_6">
    <path d="M 82.37 26.88 
L 709.2 26.88 
" style="fill: none; stroke: #000000; stroke-width: 0.8; stroke-linejoin: miter; stroke-linecap: square"/>
   </g>
   <g id="text_17">
    <!-- Cumulative Payload Mass to Orbit By Year -->
    <g transform="translate(270.179688 20.88) scale(0.12 -0.12)">
     <defs>
      <path id="DejaVuSans-4f" d="M 2522 4238 
Q 1834 4238 1429 3725 
Q 1025 3213 1025 2328 
Q 1025 1447 1429 934 
Q 1834 422 2522 422 
Q 3209 422 3611 934 
Q 4013 1447 4013 2328 
Q 4013 3213 3611 3725 
Q 3209 4238 2522 4238 
z
M 2522 4750 
Q 3503 4750 4090 4092 
Q 4678 3434 4678 2328 
Q 4678 1225 4090 567 
Q 3503 -91 2522 -91 
Q 1538 -91 948 565 
Q 359 1222 359 2328 
Q 359 3434 948 4092 
Q 1538 4750 2522 4750 
z
" transform="scale(0.015625)"/>
      <path id="DejaVuSans-62" d="M 3116 1747 
Q 3116 2381 2855 2742 
Q 2594 3103 2138 3103 
Q 1681 3103 1420 2742 
Q 1159 2381 1159 1747 
Q 1159 1113 1420 752 
Q 1681 391 2138 391 
Q 2594 391 2855 752 
Q 3116 1113 3116 1747 
z
M 1159 2969 
Q 1341 3281 1617 3432 
Q 1894 3584 2278 3584 
Q 2916 3584 3314 3078 
Q 3713 2572 3713 1747 
Q 3713 922 3314 415 
Q 2916 -91 2278 -91 
Q 1894 -91 1617 61 
Q 1341 213 1159 525 
L 1159 0 
L 581 0 
L 581 4863 
L 1159 4863 
L 1159 2969 
z
" transform="scale(0.015625)"/>
      <path id="DejaVuSans-42" d="M 1259 2228 
L 1259 519 
L 2272 519 
Q 2781 519 3026 730 
Q 3272 941 3272 1375 
Q 3272 1813 3026 2020 
Q 2781 2228 2272 2228 
L 1259 2228 
z
M 1259 4147 
L 1259 2741 
L 2194 2741 
Q 2656 2741 2882 2914 
Q 3109 3088 3109 3444 
Q 3109 3797 2882 3972 
Q 2656 4147 2194 4147 
L 1259 4147 
z
M 628 4666 
L 2241 4666 
Q 2963 4666 3353 4366 
Q 3744 4066 3744 3513 
Q 3744 3084 3544 2831 
Q 3344 2578 2956 2516 
Q 3422 2416 3680 2098 
Q 3938 1781 3938 1306 
Q 3938 681 3513 340 
Q 3088 0 2303 0 
L 628 0 
L 628 4666 
z
" transform="scale(0.015625)"/>
      <path id="DejaVuSans-59" d="M -13 4666 
L 666 4666 
L 1959 2747 
L 3244 4666 
L 3922 4666 
L 2272 2222 
L 2272 0 
L 1638 0 
L 1638 2222 
L -13 4666 
z
" transform="scale(0.015625)"/>
     </defs>
     <use xlink:href="#DejaVuSans-43"/>
     <use xlink:href="#DejaVuSans-75" x="69.824219"/>
     <use xlink:href="#DejaVuSans-6d" x="133.203125"/>
     <use xlink:href="#DejaVuSans-75" x="230.615234"/>
     <use xlink:href="#DejaVuSans-6c" x="293.994141"/>
     <use xlink:href="#DejaVuSans-61" x="321.777344"/>
     <use xlink:href="#DejaVuSans-74" x="383.056641"/>
     <use xlink:href="#DejaVuSans-69" x="422.265625"/>
     <use xlink:href="#DejaVuSans-76" x="450.048828"/>
     <use xlink:href="#DejaVuSans-65" x="509.228516"/>
     <use xlink:href="#DejaVuSans-20" x="570.751953"/>
     <use xlink:href="#DejaVuSans-50" x="602.539062"/>
     <use xlink:href="#DejaVuSans-61" x="658.341797"/>
     <use xlink:href="#DejaVuSans-79" x="719.621094"/>
     <use xlink:href="#DejaVuSans-6c" x="778.800781"/>
     <use xlink:href="#DejaVuSans-6f" x="806.583984"/>
     <use xlink:href="#DejaVuSans-61" x="867.765625"/>
     <use xlink:href="#DejaVuSans-64" x="929.044922"/>
     <use xlink:href="#DejaVuSans-20" x="992.521484"/>
     <use xlink:href="#DejaVuSans-4d" x="1024.308594"/>
     <use xlink:href="#DejaVuSans-61" x="1110.587891"/>
     <use xlink:href="#DejaVuSans-73" x="1171.867188"/>
     <use xlink:href="#DejaVuSans-73" x="1223.966797"/>
     <use xlink:href="#DejaVuSans-20" x="1276.066406"/>
     <use xlink:href="#DejaVuSans-74" x="1307.853516"/>
     <use xlink:href="#DejaVuSans-6f" x="1347.0625"/>
     <use xlink:href="#DejaVuSans-20" x="1408.244141"/>
     <use xlink:href="#DejaVuSans-4f" x="1440.03125"/>
     <use xlink:href="#DejaVuSans-72" x="1518.742188"/>
     <use xlink:href="#DejaVuSans-62" x="1559.855469"/>
     <use xlink:href="#DejaVuSans-69" x="1623.332031"/>
     <use xlink:href="#DejaVuSans-74" x="1651.115234"/>
     <use xlink:href="#DejaVuSans-20" x="1690.324219"/>
     <use xlink:href="#DejaVuSans-42" x="1722.111328"/>
     <use xlink:href="#DejaVuSans-79" x="1790.714844"/>
     <use xlink:href="#DejaVuSans-20" x="1849.894531"/>
     <use xlink:href="#DejaVuSans-59" x="1881.681641"/>
     <use xlink:href="#DejaVuSans-65" x="1929.515625"/>
     <use xlink:href="#DejaVuSans-61" x="1991.039062"/>
     <use xlink:href="#DejaVuSans-72" x="2052.318359"/>
    </g>
   </g>
   <g id="legend_1">
    <g id="patch_7">
     <path d="M 89.37 181.66125 
L 146.82 181.66125 
Q 148.82 181.66125 148.82 179.66125 
L 148.82 33.88 
Q 148.82 31.88 146.82 31.88 
L 89.37 31.88 
Q 87.37 31.88 87.37 33.88 
L 87.37 179.66125 
Q 87.37 181.66125 89.37 181.66125 
z
" style="fill: #ffffff; opacity: 0.8; stroke: #cccccc; stroke-linejoin: miter"/>
    </g>
    <g id="text_18">
     <!-- Year -->
     <g transform="translate(107.5075 43.478437) scale(0.1 -0.1)">
      <use xlink:href="#DejaVuSans-59"/>
      <use xlink:href="#DejaVuSans-65" x="47.833984"/>
      <use xlink:href="#DejaVuSans-61" x="109.357422"/>
      <use xlink:href="#DejaVuSans-72" x="170.636719"/>
     </g>
    </g>
    <g id="line2d_40">
     <path d="M 91.37 54.656562 
L 101.37 54.656562 
L 101.37 54.656562 
L 111.37 54.656562 
L 111.37 54.656562 
" style="fill: none; stroke: #808080; stroke-width: 1.5; stroke-linecap: square"/>
    </g>
    <g id="text_19">
     <!-- 2017 -->
     <g transform="translate(119.37 58.156562) scale(0.1 -0.1)">
      <use xlink:href="#DejaVuSans-32"/>
      <use xlink:href="#DejaVuSans-30" x="63.623047"/>
      <use xlink:href="#DejaVuSans-31" x="127.246094"/>
      <use xlink:href="#DejaVuSans-37" x="190.869141"/>
     </g>
    </g>
    <g id="line2d_41">
     <path d="M 91.37 69.334687 
L 101.37 69.334687 
L 101.37 69.334687 
L 111.37 69.334687 
L 111.37 69.334687 
" style="fill: none; stroke: #90ee90; stroke-width: 1.5; stroke-linecap: square"/>
    </g>
    <g id="text_20">
     <!-- 2018 -->
     <g transform="translate(119.37 72.834687) scale(0.1 -0.1)">
      <defs>
       <path id="DejaVuSans-38" d="M 2034 2216 
Q 1584 2216 1326 1975 
Q 1069 1734 1069 1313 
Q 1069 891 1326 650 
Q 1584 409 2034 409 
Q 2484 409 2743 651 
Q 3003 894 3003 1313 
Q 3003 1734 2745 1975 
Q 2488 2216 2034 2216 
z
M 1403 2484 
Q 997 2584 770 2862 
Q 544 3141 544 3541 
Q 544 4100 942 4425 
Q 1341 4750 2034 4750 
Q 2731 4750 3128 4425 
Q 3525 4100 3525 3541 
Q 3525 3141 3298 2862 
Q 3072 2584 2669 2484 
Q 3125 2378 3379 2068 
Q 3634 1759 3634 1313 
Q 3634 634 3220 271 
Q 2806 -91 2034 -91 
Q 1263 -91 848 271 
Q 434 634 434 1313 
Q 434 1759 690 2068 
Q 947 2378 1403 2484 
z
M 1172 3481 
Q 1172 3119 1398 2916 
Q 1625 2713 2034 2713 
Q 2441 2713 2670 2916 
Q 2900 3119 2900 3481 
Q 2900 3844 2670 4047 
Q 2441 4250 2034 4250 
Q 1625 4250 1398 4047 
Q 1172 3844 1172 3481 
z
" transform="scale(0.015625)"/>
      </defs>
      <use xlink:href="#DejaVuSans-32"/>
      <use xlink:href="#DejaVuSans-30" x="63.623047"/>
      <use xlink:href="#DejaVuSans-31" x="127.246094"/>
      <use xlink:href="#DejaVuSans-38" x="190.869141"/>
     </g>
    </g>
    <g id="line2d_42">
     <path d="M 91.37 84.012812 
L 101.37 84.012812 
L 101.37 84.012812 
L 111.37 84.012812 
L 111.37 84.012812 
" style="fill: none; stroke: #add8e6; stroke-width: 1.5; stroke-linecap: square"/>
    </g>
    <g id="text_21">
     <!-- 2019 -->
     <g transform="translate(119.37 87.512812) scale(0.1 -0.1)">
      <defs>
       <path id="DejaVuSans-39" d="M 703 97 
L 703 672 
Q 941 559 1184 500 
Q 1428 441 1663 441 
Q 2288 441 2617 861 
Q 2947 1281 2994 2138 
Q 2813 1869 2534 1725 
Q 2256 1581 1919 1581 
Q 1219 1581 811 2004 
Q 403 2428 403 3163 
Q 403 3881 828 4315 
Q 1253 4750 1959 4750 
Q 2769 4750 3195 4129 
Q 3622 3509 3622 2328 
Q 3622 1225 3098 567 
Q 2575 -91 1691 -91 
Q 1453 -91 1209 -44 
Q 966 3 703 97 
z
M 1959 2075 
Q 2384 2075 2632 2365 
Q 2881 2656 2881 3163 
Q 2881 3666 2632 3958 
Q 2384 4250 1959 4250 
Q 1534 4250 1286 3958 
Q 1038 3666 1038 3163 
Q 1038 2656 1286 2365 
Q 1534 2075 1959 2075 
z
" transform="scale(0.015625)"/>
      </defs>
      <use xlink:href="#DejaVuSans-32"/>
      <use xlink:href="#DejaVuSans-30" x="63.623047"/>
      <use xlink:href="#DejaVuSans-31" x="127.246094"/>
      <use xlink:href="#DejaVuSans-39" x="190.869141"/>
     </g>
    </g>
    <g id="line2d_43">
     <path d="M 91.37 98.690937 
L 101.37 98.690937 
L 101.37 98.690937 
L 111.37 98.690937 
L 111.37 98.690937 
" style="fill: none; stroke: #ffc0cb; stroke-width: 1.5; stroke-linecap: square"/>
    </g>
    <g id="text_22">
     <!-- 2020 -->
     <g transform="translate(119.37 102.190937) scale(0.1 -0.1)">
      <use xlink:href="#DejaVuSans-32"/>
      <use xlink:href="#DejaVuSans-30" x="63.623047"/>
      <use xlink:href="#DejaVuSans-32" x="127.246094"/>
      <use xlink:href="#DejaVuSans-30" x="190.869141"/>
     </g>
    </g>
    <g id="line2d_44">
     <path d="M 91.37 113.369062 
L 101.37 113.369062 
L 101.37 113.369062 
L 111.37 113.369062 
L 111.37 113.369062 
" style="fill: none; stroke: #800080; stroke-width: 1.5; stroke-linecap: square"/>
    </g>
    <g id="text_23">
     <!-- 2021 -->
     <g transform="translate(119.37 116.869062) scale(0.1 -0.1)">
      <use xlink:href="#DejaVuSans-32"/>
      <use xlink:href="#DejaVuSans-30" x="63.623047"/>
      <use xlink:href="#DejaVuSans-32" x="127.246094"/>
      <use xlink:href="#DejaVuSans-31" x="190.869141"/>
     </g>
    </g>
    <g id="line2d_45">
     <path d="M 91.37 128.047187 
L 101.37 128.047187 
L 101.37 128.047187 
L 111.37 128.047187 
L 111.37 128.047187 
" style="fill: none; stroke: #ffa500; stroke-width: 1.5; stroke-linecap: square"/>
    </g>
    <g id="text_24">
     <!-- 2022 -->
     <g transform="translate(119.37 131.547187) scale(0.1 -0.1)">
      <use xlink:href="#DejaVuSans-32"/>
      <use xlink:href="#DejaVuSans-30" x="63.623047"/>
      <use xlink:href="#DejaVuSans-32" x="127.246094"/>
      <use xlink:href="#DejaVuSans-32" x="190.869141"/>
     </g>
    </g>
    <g id="line2d_46">
     <path d="M 91.37 142.725312 
L 101.37 142.725312 
L 101.37 142.725312 
L 111.37 142.725312 
L 111.37 142.725312 
" style="fill: none; stroke: #0000ff; stroke-width: 1.5; stroke-linecap: square"/>
    </g>
    <g id="text_25">
     <!-- 2023 -->
     <g transform="translate(119.37 146.225312) scale(0.1 -0.1)">
      <defs>
       <path id="DejaVuSans-33" d="M 2597 2516 
Q 3050 2419 3304 2112 
Q 3559 1806 3559 1356 
Q 3559 666 3084 287 
Q 2609 -91 1734 -91 
Q 1441 -91 1130 -33 
Q 819 25 488 141 
L 488 750 
Q 750 597 1062 519 
Q 1375 441 1716 441 
Q 2309 441 2620 675 
Q 2931 909 2931 1356 
Q 2931 1769 2642 2001 
Q 2353 2234 1838 2234 
L 1294 2234 
L 1294 2753 
L 1863 2753 
Q 2328 2753 2575 2939 
Q 2822 3125 2822 3475 
Q 2822 3834 2567 4026 
Q 2313 4219 1838 4219 
Q 1578 4219 1281 4162 
Q 984 4106 628 3988 
L 628 4550 
Q 988 4650 1302 4700 
Q 1616 4750 1894 4750 
Q 2613 4750 3031 4423 
Q 3450 4097 3450 3541 
Q 3450 3153 3228 2886 
Q 3006 2619 2597 2516 
z
" transform="scale(0.015625)"/>
      </defs>
      <use xlink:href="#DejaVuSans-32"/>
      <use xlink:href="#DejaVuSans-30" x="63.623047"/>
      <use xlink:href="#DejaVuSans-32" x="127.246094"/>
      <use xlink:href="#DejaVuSans-33" x="190.869141"/>
     </g>
    </g>
    <g id="line2d_47">
     <path d="M 91.37 157.403437 
L 101.37 157.403437 
L 101.37 157.403437 
L 111.37 157.403437 
L 111.37 157.403437 
" style="fill: none; stroke: #008000; stroke-width: 1.5; stroke-linecap: square"/>
    </g>
    <g id="text_26">
     <!-- 2024 -->
     <g transform="translate(119.37 160.903437) scale(0.1 -0.1)">
      <defs>
       <path id="DejaVuSans-34" d="M 2419 4116 
L 825 1625 
L 2419 1625 
L 2419 4116 
z
M 2253 4666 
L 3047 4666 
L 3047 1625 
L 3713 1625 
L 3713 1100 
L 3047 1100 
L 3047 0 
L 2419 0 
L 2419 1100 
L 313 1100 
L 313 1709 
L 2253 4666 
z
" transform="scale(0.015625)"/>
      </defs>
      <use xlink:href="#DejaVuSans-32"/>
      <use xlink:href="#DejaVuSans-30" x="63.623047"/>
      <use xlink:href="#DejaVuSans-32" x="127.246094"/>
      <use xlink:href="#DejaVuSans-34" x="190.869141"/>
     </g>
    </g>
    <g id="line2d_48">
     <path d="M 91.37 172.081562 
L 101.37 172.081562 
L 101.37 172.081562 
L 111.37 172.081562 
L 111.37 172.081562 
" style="fill: none; stroke: #ff0000; stroke-width: 1.5; stroke-linecap: square"/>
    </g>
    <g id="text_27">
     <!-- 2025 -->
     <g transform="translate(119.37 175.581562) scale(0.1 -0.1)">
      <use xlink:href="#DejaVuSans-32"/>
      <use xlink:href="#DejaVuSans-30" x="63.623047"/>
      <use xlink:href="#DejaVuSans-32" x="127.246094"/>
      <use xlink:href="#DejaVuSans-35" x="190.869141"/>
     </g>
    </g>
   </g>
  </g>
 </g>
 <defs>
  <clipPath id="p1935ed69df">
   <rect x="82.37" y="26.88" width="626.83" height="449.24"/>
  </clipPath>
 </defs>
</svg>
