<?xml version="1.0" encoding="utf-8" standalone="no"?>
<!DOCTYPE svg PUBLIC "-//W3C//DTD SVG 1.1//EN"
  "http://www.w3.org/Graphics/SVG/1.1/DTD/svg11.dtd">
<svg xmlns:xlink="http://www.w3.org/1999/xlink" width="720pt" height="504pt" viewBox="0 0 720 504" xmlns="http://www.w3.org/2000/svg" version="1.1">
 <metadata>
  <rdf:RDF xmlns:dc="http://purl.org/dc/elements/1.1/" xmlns:cc="http://creativecommons.org/ns#" xmlns:rdf="http://www.w3.org/1999/02/22-rdf-syntax-ns#">
   <cc:Work>
    <dc:type rdf:resource="http://purl.org/dc/dcmitype/StillImage"/>
    <dc:date>2024-11-04T11:24:27.489572</dc:date>
    <dc:format>image/svg+xml</dc:format>
    <dc:creator>
     <cc:Agent>
      <dc:title>Matplotlib v3.8.2, https://matplotlib.org/</dc:title>
     </cc:Agent>
    </dc:creator>
   </cc:Work>
  </rdf:RDF>
 </metadata>
 <defs>
  <style type="text/css">*{stroke-linejoin: round; stroke-linecap: butt}</style>
 </defs>
 <g id="figure_1">
  <g id="patch_1">
   <path d="M 0 504 
L 720 504 
L 720 0 
L 0 0 
z
" style="fill: #ffffff"/>
  </g>
  <g id="axes_1">
   <g id="patch_2">
    <path d="M 82.37 476.12 
L 709.2 476.12 
L 709.2 26.88 
L 82.37 26.88 
z
" style="fill: #ffffff"/>
   </g>
   <g id="matplotlib.axis_1">
    <g id="xtick_1">
     <g id="line2d_1">
      <path d="M 106.665736 476.12 
L 106.665736 26.88 
" clip-path="url(#p0990cde7d1)" style="fill: none; stroke: #b0b0b0; stroke-width: 0.8; stroke-linecap: square"/>
     </g>
     <g id="line2d_2">
      <defs>
       <path id="m9d069dab06" d="M 0 0 
L 0 3.5 
" style="stroke: #000000; stroke-width: 0.8"/>
      </defs>
      <g>
       <use xlink:href="#m9d069dab06" x="106.665736" y="476.12" style="stroke: #000000; stroke-width: 0.8"/>
      </g>
     </g>
     <g id="text_1">
      <!-- Jan 1 -->
      <g transform="translate(94.187611 490.718437) scale(0.1 -0.1)">
       <defs>
        <path id="DejaVuSans-4a" d="M 628 4666 
L 1259 4666 
L 1259 325 
Q 1259 -519 939 -900 
Q 619 -1281 -91 -1281 
L -331 -1281 
L -331 -750 
L -134 -750 
Q 284 -750 456 -515 
Q 628 -281 628 325 
L 628 4666 
z
" transform="scale(0.015625)"/>
        <path id="DejaVuSans-61" d="M 2194 1759 
Q 1497 1759 1228 1600 
Q 959 1441 959 1056 
Q 959 750 1161 570 
Q 1363 391 1709 391 
Q 2188 391 2477 730 
Q 2766 1069 2766 1631 
L 2766 1759 
L 2194 1759 
z
M 3341 1997 
L 3341 0 
L 2766 0 
L 2766 531 
Q 2569 213 2275 61 
Q 1981 -91 1556 -91 
Q 1019 -91 701 211 
Q 384 513 384 1019 
Q 384 1609 779 1909 
Q 1175 2209 1959 2209 
L 2766 2209 
L 2766 2266 
Q 2766 2663 2505 2880 
Q 2244 3097 1772 3097 
Q 1472 3097 1187 3025 
Q 903 2953 641 2809 
L 641 3341 
Q 956 3463 1253 3523 
Q 1550 3584 1831 3584 
Q 2591 3584 2966 3190 
Q 3341 2797 3341 1997 
z
" transform="scale(0.015625)"/>
        <path id="DejaVuSans-6e" d="M 3513 2113 
L 3513 0 
L 2938 0 
L 2938 2094 
Q 2938 2591 2744 2837 
Q 2550 3084 2163 3084 
Q 1697 3084 1428 2787 
Q 1159 2491 1159 1978 
L 1159 0 
L 581 0 
L 581 3500 
L 1159 3500 
L 1159 2956 
Q 1366 3272 1645 3428 
Q 1925 3584 2291 3584 
Q 2894 3584 3203 3211 
Q 3513 2838 3513 2113 
z
" transform="scale(0.015625)"/>
        <path id="DejaVuSans-20" transform="scale(0.015625)"/>
        <path id="DejaVuSans-31" d="M 794 531 
L 1825 531 
L 1825 4091 
L 703 3866 
L 703 4441 
L 1819 4666 
L 2450 4666 
L 2450 531 
L 3481 531 
L 3481 0 
L 794 0 
L 794 531 
z
" transform="scale(0.015625)"/>
       </defs>
       <use xlink:href="#DejaVuSans-4a"/>
       <use xlink:href="#DejaVuSans-61" x="29.492188"/>
       <use xlink:href="#DejaVuSans-6e" x="90.771484"/>
       <use xlink:href="#DejaVuSans-20" x="154.150391"/>
       <use xlink:href="#DejaVuSans-31" x="185.9375"/>
      </g>
     </g>
    </g>
    <g id="xtick_2">
     <g id="line2d_3">
      <path d="M 203.848682 476.12 
L 203.848682 26.88 
" clip-path="url(#p0990cde7d1)" style="fill: none; stroke: #b0b0b0; stroke-width: 0.8; stroke-linecap: square"/>
     </g>
     <g id="line2d_4">
      <g>
       <use xlink:href="#m9d069dab06" x="203.848682" y="476.12" style="stroke: #000000; stroke-width: 0.8"/>
      </g>
     </g>
     <g id="text_2">
      <!-- Mar 1 -->
      <g transform="translate(189.644776 490.718437) scale(0.1 -0.1)">
       <defs>
        <path id="DejaVuSans-4d" d="M 628 4666 
L 1569 4666 
L 2759 1491 
L 3956 4666 
L 4897 4666 
L 4897 0 
L 4281 0 
L 4281 4097 
L 3078 897 
L 2444 897 
L 1241 4097 
L 1241 0 
L 628 0 
L 628 4666 
z
" transform="scale(0.015625)"/>
        <path id="DejaVuSans-72" d="M 2631 2963 
Q 2534 3019 2420 3045 
Q 2306 3072 2169 3072 
Q 1681 3072 1420 2755 
Q 1159 2438 1159 1844 
L 1159 0 
L 581 0 
L 581 3500 
L 1159 3500 
L 1159 2956 
Q 1341 3275 1631 3429 
Q 1922 3584 2338 3584 
Q 2397 3584 2469 3576 
Q 2541 3569 2628 3553 
L 2631 2963 
z
" transform="scale(0.015625)"/>
       </defs>
       <use xlink:href="#DejaVuSans-4d"/>
       <use xlink:href="#DejaVuSans-61" x="86.279297"/>
       <use xlink:href="#DejaVuSans-72" x="147.558594"/>
       <use xlink:href="#DejaVuSans-20" x="188.671875"/>
       <use xlink:href="#DejaVuSans-31" x="220.458984"/>
      </g>
     </g>
    </g>
    <g id="xtick_3">
     <g id="line2d_5">
      <path d="M 302.651344 476.12 
L 302.651344 26.88 
" clip-path="url(#p0990cde7d1)" style="fill: none; stroke: #b0b0b0; stroke-width: 0.8; stroke-linecap: square"/>
     </g>
     <g id="line2d_6">
      <g>
       <use xlink:href="#m9d069dab06" x="302.651344" y="476.12" style="stroke: #000000; stroke-width: 0.8"/>
      </g>
     </g>
     <g id="text_3">
      <!-- May 1 -->
      <g transform="translate(287.543531 490.718437) scale(0.1 -0.1)">
       <defs>
        <path id="DejaVuSans-79" d="M 2059 -325 
Q 1816 -950 1584 -1140 
Q 1353 -1331 966 -1331 
L 506 -1331 
L 506 -850 
L 844 -850 
Q 1081 -850 1212 -737 
Q 1344 -625 1503 -206 
L 1606 56 
L 191 3500 
L 800 3500 
L 1894 763 
L 2988 3500 
L 3597 3500 
L 2059 -325 
z
" transform="scale(0.015625)"/>
       </defs>
       <use xlink:href="#DejaVuSans-4d"/>
       <use xlink:href="#DejaVuSans-61" x="86.279297"/>
       <use xlink:href="#DejaVuSans-79" x="147.558594"/>
       <use xlink:href="#DejaVuSans-20" x="206.738281"/>
       <use xlink:href="#DejaVuSans-31" x="238.525391"/>
      </g>
     </g>
    </g>
    <g id="xtick_4">
     <g id="line2d_7">
      <path d="M 401.454005 476.12 
L 401.454005 26.88 
" clip-path="url(#p0990cde7d1)" style="fill: none; stroke: #b0b0b0; stroke-width: 0.8; stroke-linecap: square"/>
     </g>
     <g id="line2d_8">
      <g>
       <use xlink:href="#m9d069dab06" x="401.454005" y="476.12" style="stroke: #000000; stroke-width: 0.8"/>
      </g>
     </g>
     <g id="text_4">
      <!-- Jul 1 -->
      <g transform="translate(390.65088 490.718437) scale(0.1 -0.1)">
       <defs>
        <path id="DejaVuSans-75" d="M 544 1381 
L 544 3500 
L 1119 3500 
L 1119 1403 
Q 1119 906 1312 657 
Q 1506 409 1894 409 
Q 2359 409 2629 706 
Q 2900 1003 2900 1516 
L 2900 3500 
L 3475 3500 
L 3475 0 
L 2900 0 
L 2900 538 
Q 2691 219 2414 64 
Q 2138 -91 1772 -91 
Q 1169 -91 856 284 
Q 544 659 544 1381 
z
M 1991 3584 
L 1991 3584 
z
" transform="scale(0.015625)"/>
        <path id="DejaVuSans-6c" d="M 603 4863 
L 1178 4863 
L 1178 0 
L 603 0 
L 603 4863 
z
" transform="scale(0.015625)"/>
       </defs>
       <use xlink:href="#DejaVuSans-4a"/>
       <use xlink:href="#DejaVuSans-75" x="29.492188"/>
       <use xlink:href="#DejaVuSans-6c" x="92.871094"/>
       <use xlink:href="#DejaVuSans-20" x="120.654297"/>
       <use xlink:href="#DejaVuSans-31" x="152.441406"/>
      </g>
     </g>
    </g>
    <g id="xtick_5">
     <g id="line2d_9">
      <path d="M 501.876382 476.12 
L 501.876382 26.88 
" clip-path="url(#p0990cde7d1)" style="fill: none; stroke: #b0b0b0; stroke-width: 0.8; stroke-linecap: square"/>
     </g>
     <g id="line2d_10">
      <g>
       <use xlink:href="#m9d069dab06" x="501.876382" y="476.12" style="stroke: #000000; stroke-width: 0.8"/>
      </g>
     </g>
     <g id="text_5">
      <!-- Sep 1 -->
      <g transform="translate(487.68107 490.718437) scale(0.1 -0.1)">
       <defs>
        <path id="DejaVuSans-53" d="M 3425 4513 
L 3425 3897 
Q 3066 4069 2747 4153 
Q 2428 4238 2131 4238 
Q 1616 4238 1336 4038 
Q 1056 3838 1056 3469 
Q 1056 3159 1242 3001 
Q 1428 2844 1947 2747 
L 2328 2669 
Q 3034 2534 3370 2195 
Q 3706 1856 3706 1288 
Q 3706 609 3251 259 
Q 2797 -91 1919 -91 
Q 1588 -91 1214 -16 
Q 841 59 441 206 
L 441 856 
Q 825 641 1194 531 
Q 1563 422 1919 422 
Q 2459 422 2753 634 
Q 3047 847 3047 1241 
Q 3047 1584 2836 1778 
Q 2625 1972 2144 2069 
L 1759 2144 
Q 1053 2284 737 2584 
Q 422 2884 422 3419 
Q 422 4038 858 4394 
Q 1294 4750 2059 4750 
Q 2388 4750 2728 4690 
Q 3069 4631 3425 4513 
z
" transform="scale(0.015625)"/>
        <path id="DejaVuSans-65" d="M 3597 1894 
L 3597 1613 
L 953 1613 
Q 991 1019 1311 708 
Q 1631 397 2203 397 
Q 2534 397 2845 478 
Q 3156 559 3463 722 
L 3463 178 
Q 3153 47 2828 -22 
Q 2503 -91 2169 -91 
Q 1331 -91 842 396 
Q 353 884 353 1716 
Q 353 2575 817 3079 
Q 1281 3584 2069 3584 
Q 2775 3584 3186 3129 
Q 3597 2675 3597 1894 
z
M 3022 2063 
Q 3016 2534 2758 2815 
Q 2500 3097 2075 3097 
Q 1594 3097 1305 2825 
Q 1016 2553 972 2059 
L 3022 2063 
z
" transform="scale(0.015625)"/>
        <path id="DejaVuSans-70" d="M 1159 525 
L 1159 -1331 
L 581 -1331 
L 581 3500 
L 1159 3500 
L 1159 2969 
Q 1341 3281 1617 3432 
Q 1894 3584 2278 3584 
Q 2916 3584 3314 3078 
Q 3713 2572 3713 1747 
Q 3713 922 3314 415 
Q 2916 -91 2278 -91 
Q 1894 -91 1617 61 
Q 1341 213 1159 525 
z
M 3116 1747 
Q 3116 2381 2855 2742 
Q 2594 3103 2138 3103 
Q 1681 3103 1420 2742 
Q 1159 2381 1159 1747 
Q 1159 1113 1420 752 
Q 1681 391 2138 391 
Q 2594 391 2855 752 
Q 3116 1113 3116 1747 
z
" transform="scale(0.015625)"/>
       </defs>
       <use xlink:href="#DejaVuSans-53"/>
       <use xlink:href="#DejaVuSans-65" x="63.476562"/>
       <use xlink:href="#DejaVuSans-70" x="125"/>
       <use xlink:href="#DejaVuSans-20" x="188.476562"/>
       <use xlink:href="#DejaVuSans-31" x="220.263672"/>
      </g>
     </g>
    </g>
    <g id="xtick_6">
     <g id="line2d_11">
      <path d="M 600.679044 476.12 
L 600.679044 26.88 
" clip-path="url(#p0990cde7d1)" style="fill: none; stroke: #b0b0b0; stroke-width: 0.8; stroke-linecap: square"/>
     </g>
     <g id="line2d_12">
      <g>
       <use xlink:href="#m9d069dab06" x="600.679044" y="476.12" style="stroke: #000000; stroke-width: 0.8"/>
      </g>
     </g>
     <g id="text_6">
      <!-- Nov 1 -->
      <g transform="translate(586.149356 490.718437) scale(0.1 -0.1)">
       <defs>
        <path id="DejaVuSans-4e" d="M 628 4666 
L 1478 4666 
L 3547 763 
L 3547 4666 
L 4159 4666 
L 4159 0 
L 3309 0 
L 1241 3903 
L 1241 0 
L 628 0 
L 628 4666 
z
" transform="scale(0.015625)"/>
        <path id="DejaVuSans-6f" d="M 1959 3097 
Q 1497 3097 1228 2736 
Q 959 2375 959 1747 
Q 959 1119 1226 758 
Q 1494 397 1959 397 
Q 2419 397 2687 759 
Q 2956 1122 2956 1747 
Q 2956 2369 2687 2733 
Q 2419 3097 1959 3097 
z
M 1959 3584 
Q 2709 3584 3137 3096 
Q 3566 2609 3566 1747 
Q 3566 888 3137 398 
Q 2709 -91 1959 -91 
Q 1206 -91 779 398 
Q 353 888 353 1747 
Q 353 2609 779 3096 
Q 1206 3584 1959 3584 
z
" transform="scale(0.015625)"/>
        <path id="DejaVuSans-76" d="M 191 3500 
L 800 3500 
L 1894 563 
L 2988 3500 
L 3597 3500 
L 2284 0 
L 1503 0 
L 191 3500 
z
" transform="scale(0.015625)"/>
       </defs>
       <use xlink:href="#DejaVuSans-4e"/>
       <use xlink:href="#DejaVuSans-6f" x="74.804688"/>
       <use xlink:href="#DejaVuSans-76" x="135.986328"/>
       <use xlink:href="#DejaVuSans-20" x="195.166016"/>
       <use xlink:href="#DejaVuSans-31" x="226.953125"/>
      </g>
     </g>
    </g>
   </g>
   <g id="matplotlib.axis_2">
    <g id="ytick_1">
     <g id="line2d_13">
      <path d="M 82.37 455.7 
L 709.2 455.7 
" clip-path="url(#p0990cde7d1)" style="fill: none; stroke: #b0b0b0; stroke-width: 0.8; stroke-linecap: square"/>
     </g>
     <g id="line2d_14">
      <defs>
       <path id="mc0b4d301ee" d="M 0 0 
L -3.5 0 
" style="stroke: #000000; stroke-width: 0.8"/>
      </defs>
      <g>
       <use xlink:href="#mc0b4d301ee" x="82.37" y="455.7" style="stroke: #000000; stroke-width: 0.8"/>
      </g>
     </g>
     <g id="text_7">
      <!-- 0 -->
      <g transform="translate(69.0075 459.499219) scale(0.1 -0.1)">
       <defs>
        <path id="DejaVuSans-30" d="M 2034 4250 
Q 1547 4250 1301 3770 
Q 1056 3291 1056 2328 
Q 1056 1369 1301 889 
Q 1547 409 2034 409 
Q 2525 409 2770 889 
Q 3016 1369 3016 2328 
Q 3016 3291 2770 3770 
Q 2525 4250 2034 4250 
z
M 2034 4750 
Q 2819 4750 3233 4129 
Q 3647 3509 3647 2328 
Q 3647 1150 3233 529 
Q 2819 -91 2034 -91 
Q 1250 -91 836 529 
Q 422 1150 422 2328 
Q 422 3509 836 4129 
Q 1250 4750 2034 4750 
z
" transform="scale(0.015625)"/>
       </defs>
       <use xlink:href="#DejaVuSans-30"/>
      </g>
     </g>
    </g>
    <g id="ytick_2">
     <g id="line2d_15">
      <path d="M 82.37 393.843986 
L 709.2 393.843986 
" clip-path="url(#p0990cde7d1)" style="fill: none; stroke: #b0b0b0; stroke-width: 0.8; stroke-linecap: square"/>
     </g>
     <g id="line2d_16">
      <g>
       <use xlink:href="#mc0b4d301ee" x="82.37" y="393.843986" style="stroke: #000000; stroke-width: 0.8"/>
      </g>
     </g>
     <g id="text_8">
      <!-- 200,000 -->
      <g transform="translate(34.016875 397.643205) scale(0.1 -0.1)">
       <defs>
        <path id="DejaVuSans-32" d="M 1228 531 
L 3431 531 
L 3431 0 
L 469 0 
L 469 531 
Q 828 903 1448 1529 
Q 2069 2156 2228 2338 
Q 2531 2678 2651 2914 
Q 2772 3150 2772 3378 
Q 2772 3750 2511 3984 
Q 2250 4219 1831 4219 
Q 1534 4219 1204 4116 
Q 875 4013 500 3803 
L 500 4441 
Q 881 4594 1212 4672 
Q 1544 4750 1819 4750 
Q 2544 4750 2975 4387 
Q 3406 4025 3406 3419 
Q 3406 3131 3298 2873 
Q 3191 2616 2906 2266 
Q 2828 2175 2409 1742 
Q 1991 1309 1228 531 
z
" transform="scale(0.015625)"/>
        <path id="DejaVuSans-2c" d="M 750 794 
L 1409 794 
L 1409 256 
L 897 -744 
L 494 -744 
L 750 256 
L 750 794 
z
" transform="scale(0.015625)"/>
       </defs>
       <use xlink:href="#DejaVuSans-32"/>
       <use xlink:href="#DejaVuSans-30" x="63.623047"/>
       <use xlink:href="#DejaVuSans-30" x="127.246094"/>
       <use xlink:href="#DejaVuSans-2c" x="190.869141"/>
       <use xlink:href="#DejaVuSans-30" x="222.65625"/>
       <use xlink:href="#DejaVuSans-30" x="286.279297"/>
       <use xlink:href="#DejaVuSans-30" x="349.902344"/>
      </g>
     </g>
    </g>
    <g id="ytick_3">
     <g id="line2d_17">
      <path d="M 82.37 331.987973 
L 709.2 331.987973 
" clip-path="url(#p0990cde7d1)" style="fill: none; stroke: #b0b0b0; stroke-width: 0.8; stroke-linecap: square"/>
     </g>
     <g id="line2d_18">
      <g>
       <use xlink:href="#mc0b4d301ee" x="82.37" y="331.987973" style="stroke: #000000; stroke-width: 0.8"/>
      </g>
     </g>
     <g id="text_9">
      <!-- 400,000 -->
      <g transform="translate(34.016875 335.787192) scale(0.1 -0.1)">
       <defs>
        <path id="DejaVuSans-34" d="M 2419 4116 
L 825 1625 
L 2419 1625 
L 2419 4116 
z
M 2253 4666 
L 3047 4666 
L 3047 1625 
L 3713 1625 
L 3713 1100 
L 3047 1100 
L 3047 0 
L 2419 0 
L 2419 1100 
L 313 1100 
L 313 1709 
L 2253 4666 
z
" transform="scale(0.015625)"/>
       </defs>
       <use xlink:href="#DejaVuSans-34"/>
       <use xlink:href="#DejaVuSans-30" x="63.623047"/>
       <use xlink:href="#DejaVuSans-30" x="127.246094"/>
       <use xlink:href="#DejaVuSans-2c" x="190.869141"/>
       <use xlink:href="#DejaVuSans-30" x="222.65625"/>
       <use xlink:href="#DejaVuSans-30" x="286.279297"/>
       <use xlink:href="#DejaVuSans-30" x="349.902344"/>
      </g>
     </g>
    </g>
    <g id="ytick_4">
     <g id="line2d_19">
      <path d="M 82.37 270.131959 
L 709.2 270.131959 
" clip-path="url(#p0990cde7d1)" style="fill: none; stroke: #b0b0b0; stroke-width: 0.8; stroke-linecap: square"/>
     </g>
     <g id="line2d_20">
      <g>
       <use xlink:href="#mc0b4d301ee" x="82.37" y="270.131959" style="stroke: #000000; stroke-width: 0.8"/>
      </g>
     </g>
     <g id="text_10">
      <!-- 600,000 -->
      <g transform="translate(34.016875 273.931178) scale(0.1 -0.1)">
       <defs>
        <path id="DejaVuSans-36" d="M 2113 2584 
Q 1688 2584 1439 2293 
Q 1191 2003 1191 1497 
Q 1191 994 1439 701 
Q 1688 409 2113 409 
Q 2538 409 2786 701 
Q 3034 994 3034 1497 
Q 3034 2003 2786 2293 
Q 2538 2584 2113 2584 
z
M 3366 4563 
L 3366 3988 
Q 3128 4100 2886 4159 
Q 2644 4219 2406 4219 
Q 1781 4219 1451 3797 
Q 1122 3375 1075 2522 
Q 1259 2794 1537 2939 
Q 1816 3084 2150 3084 
Q 2853 3084 3261 2657 
Q 3669 2231 3669 1497 
Q 3669 778 3244 343 
Q 2819 -91 2113 -91 
Q 1303 -91 875 529 
Q 447 1150 447 2328 
Q 447 3434 972 4092 
Q 1497 4750 2381 4750 
Q 2619 4750 2861 4703 
Q 3103 4656 3366 4563 
z
" transform="scale(0.015625)"/>
       </defs>
       <use xlink:href="#DejaVuSans-36"/>
       <use xlink:href="#DejaVuSans-30" x="63.623047"/>
       <use xlink:href="#DejaVuSans-30" x="127.246094"/>
       <use xlink:href="#DejaVuSans-2c" x="190.869141"/>
       <use xlink:href="#DejaVuSans-30" x="222.65625"/>
       <use xlink:href="#DejaVuSans-30" x="286.279297"/>
       <use xlink:href="#DejaVuSans-30" x="349.902344"/>
      </g>
     </g>
    </g>
    <g id="ytick_5">
     <g id="line2d_21">
      <path d="M 82.37 208.275946 
L 709.2 208.275946 
" clip-path="url(#p0990cde7d1)" style="fill: none; stroke: #b0b0b0; stroke-width: 0.8; stroke-linecap: square"/>
     </g>
     <g id="line2d_22">
      <g>
       <use xlink:href="#mc0b4d301ee" x="82.37" y="208.275946" style="stroke: #000000; stroke-width: 0.8"/>
      </g>
     </g>
     <g id="text_11">
      <!-- 800,000 -->
      <g transform="translate(34.016875 212.075164) scale(0.1 -0.1)">
       <defs>
        <path id="DejaVuSans-38" d="M 2034 2216 
Q 1584 2216 1326 1975 
Q 1069 1734 1069 1313 
Q 1069 891 1326 650 
Q 1584 409 2034 409 
Q 2484 409 2743 651 
Q 3003 894 3003 1313 
Q 3003 1734 2745 1975 
Q 2488 2216 2034 2216 
z
M 1403 2484 
Q 997 2584 770 2862 
Q 544 3141 544 3541 
Q 544 4100 942 4425 
Q 1341 4750 2034 4750 
Q 2731 4750 3128 4425 
Q 3525 4100 3525 3541 
Q 3525 3141 3298 2862 
Q 3072 2584 2669 2484 
Q 3125 2378 3379 2068 
Q 3634 1759 3634 1313 
Q 3634 634 3220 271 
Q 2806 -91 2034 -91 
Q 1263 -91 848 271 
Q 434 634 434 1313 
Q 434 1759 690 2068 
Q 947 2378 1403 2484 
z
M 1172 3481 
Q 1172 3119 1398 2916 
Q 1625 2713 2034 2713 
Q 2441 2713 2670 2916 
Q 2900 3119 2900 3481 
Q 2900 3844 2670 4047 
Q 2441 4250 2034 4250 
Q 1625 4250 1398 4047 
Q 1172 3844 1172 3481 
z
" transform="scale(0.015625)"/>
       </defs>
       <use xlink:href="#DejaVuSans-38"/>
       <use xlink:href="#DejaVuSans-30" x="63.623047"/>
       <use xlink:href="#DejaVuSans-30" x="127.246094"/>
       <use xlink:href="#DejaVuSans-2c" x="190.869141"/>
       <use xlink:href="#DejaVuSans-30" x="222.65625"/>
       <use xlink:href="#DejaVuSans-30" x="286.279297"/>
       <use xlink:href="#DejaVuSans-30" x="349.902344"/>
      </g>
     </g>
    </g>
    <g id="ytick_6">
     <g id="line2d_23">
      <path d="M 82.37 146.419932 
L 709.2 146.419932 
" clip-path="url(#p0990cde7d1)" style="fill: none; stroke: #b0b0b0; stroke-width: 0.8; stroke-linecap: square"/>
     </g>
     <g id="line2d_24">
      <g>
       <use xlink:href="#mc0b4d301ee" x="82.37" y="146.419932" style="stroke: #000000; stroke-width: 0.8"/>
      </g>
     </g>
     <g id="text_12">
      <!-- 1,000,000 -->
      <g transform="translate(24.47625 150.219151) scale(0.1 -0.1)">
       <use xlink:href="#DejaVuSans-31"/>
       <use xlink:href="#DejaVuSans-2c" x="63.623047"/>
       <use xlink:href="#DejaVuSans-30" x="95.410156"/>
       <use xlink:href="#DejaVuSans-30" x="159.033203"/>
       <use xlink:href="#DejaVuSans-30" x="222.65625"/>
       <use xlink:href="#DejaVuSans-2c" x="286.279297"/>
       <use xlink:href="#DejaVuSans-30" x="318.066406"/>
       <use xlink:href="#DejaVuSans-30" x="381.689453"/>
       <use xlink:href="#DejaVuSans-30" x="445.3125"/>
      </g>
     </g>
    </g>
    <g id="ytick_7">
     <g id="line2d_25">
      <path d="M 82.37 84.563918 
L 709.2 84.563918 
" clip-path="url(#p0990cde7d1)" style="fill: none; stroke: #b0b0b0; stroke-width: 0.8; stroke-linecap: square"/>
     </g>
     <g id="line2d_26">
      <g>
       <use xlink:href="#mc0b4d301ee" x="82.37" y="84.563918" style="stroke: #000000; stroke-width: 0.8"/>
      </g>
     </g>
     <g id="text_13">
      <!-- 1,200,000 -->
      <g transform="translate(24.47625 88.363137) scale(0.1 -0.1)">
       <use xlink:href="#DejaVuSans-31"/>
       <use xlink:href="#DejaVuSans-2c" x="63.623047"/>
       <use xlink:href="#DejaVuSans-32" x="95.410156"/>
       <use xlink:href="#DejaVuSans-30" x="159.033203"/>
       <use xlink:href="#DejaVuSans-30" x="222.65625"/>
       <use xlink:href="#DejaVuSans-2c" x="286.279297"/>
       <use xlink:href="#DejaVuSans-30" x="318.066406"/>
       <use xlink:href="#DejaVuSans-30" x="381.689453"/>
       <use xlink:href="#DejaVuSans-30" x="445.3125"/>
      </g>
     </g>
    </g>
    <g id="text_14">
     <!-- Cumulative Payload Mass (kg) -->
     <g transform="translate(18.396562 326.863281) rotate(-90) scale(0.1 -0.1)">
      <defs>
       <path id="DejaVuSans-43" d="M 4122 4306 
L 4122 3641 
Q 3803 3938 3442 4084 
Q 3081 4231 2675 4231 
Q 1875 4231 1450 3742 
Q 1025 3253 1025 2328 
Q 1025 1406 1450 917 
Q 1875 428 2675 428 
Q 3081 428 3442 575 
Q 3803 722 4122 1019 
L 4122 359 
Q 3791 134 3420 21 
Q 3050 -91 2638 -91 
Q 1578 -91 968 557 
Q 359 1206 359 2328 
Q 359 3453 968 4101 
Q 1578 4750 2638 4750 
Q 3056 4750 3426 4639 
Q 3797 4528 4122 4306 
z
" transform="scale(0.015625)"/>
       <path id="DejaVuSans-6d" d="M 3328 2828 
Q 3544 3216 3844 3400 
Q 4144 3584 4550 3584 
Q 5097 3584 5394 3201 
Q 5691 2819 5691 2113 
L 5691 0 
L 5113 0 
L 5113 2094 
Q 5113 2597 4934 2840 
Q 4756 3084 4391 3084 
Q 3944 3084 3684 2787 
Q 3425 2491 3425 1978 
L 3425 0 
L 2847 0 
L 2847 2094 
Q 2847 2600 2669 2842 
Q 2491 3084 2119 3084 
Q 1678 3084 1418 2786 
Q 1159 2488 1159 1978 
L 1159 0 
L 581 0 
L 581 3500 
L 1159 3500 
L 1159 2956 
Q 1356 3278 1631 3431 
Q 1906 3584 2284 3584 
Q 2666 3584 2933 3390 
Q 3200 3197 3328 2828 
z
" transform="scale(0.015625)"/>
       <path id="DejaVuSans-74" d="M 1172 4494 
L 1172 3500 
L 2356 3500 
L 2356 3053 
L 1172 3053 
L 1172 1153 
Q 1172 725 1289 603 
Q 1406 481 1766 481 
L 2356 481 
L 2356 0 
L 1766 0 
Q 1100 0 847 248 
Q 594 497 594 1153 
L 594 3053 
L 172 3053 
L 172 3500 
L 594 3500 
L 594 4494 
L 1172 4494 
z
" transform="scale(0.015625)"/>
       <path id="DejaVuSans-69" d="M 603 3500 
L 1178 3500 
L 1178 0 
L 603 0 
L 603 3500 
z
M 603 4863 
L 1178 4863 
L 1178 4134 
L 603 4134 
L 603 4863 
z
" transform="scale(0.015625)"/>
       <path id="DejaVuSans-50" d="M 1259 4147 
L 1259 2394 
L 2053 2394 
Q 2494 2394 2734 2622 
Q 2975 2850 2975 3272 
Q 2975 3691 2734 3919 
Q 2494 4147 2053 4147 
L 1259 4147 
z
M 628 4666 
L 2053 4666 
Q 2838 4666 3239 4311 
Q 3641 3956 3641 3272 
Q 3641 2581 3239 2228 
Q 2838 1875 2053 1875 
L 1259 1875 
L 1259 0 
L 628 0 
L 628 4666 
z
" transform="scale(0.015625)"/>
       <path id="DejaVuSans-64" d="M 2906 2969 
L 2906 4863 
L 3481 4863 
L 3481 0 
L 2906 0 
L 2906 525 
Q 2725 213 2448 61 
Q 2172 -91 1784 -91 
Q 1150 -91 751 415 
Q 353 922 353 1747 
Q 353 2572 751 3078 
Q 1150 3584 1784 3584 
Q 2172 3584 2448 3432 
Q 2725 3281 2906 2969 
z
M 947 1747 
Q 947 1113 1208 752 
Q 1469 391 1925 391 
Q 2381 391 2643 752 
Q 2906 1113 2906 1747 
Q 2906 2381 2643 2742 
Q 2381 3103 1925 3103 
Q 1469 3103 1208 2742 
Q 947 2381 947 1747 
z
" transform="scale(0.015625)"/>
       <path id="DejaVuSans-73" d="M 2834 3397 
L 2834 2853 
Q 2591 2978 2328 3040 
Q 2066 3103 1784 3103 
Q 1356 3103 1142 2972 
Q 928 2841 928 2578 
Q 928 2378 1081 2264 
Q 1234 2150 1697 2047 
L 1894 2003 
Q 2506 1872 2764 1633 
Q 3022 1394 3022 966 
Q 3022 478 2636 193 
Q 2250 -91 1575 -91 
Q 1294 -91 989 -36 
Q 684 19 347 128 
L 347 722 
Q 666 556 975 473 
Q 1284 391 1588 391 
Q 1994 391 2212 530 
Q 2431 669 2431 922 
Q 2431 1156 2273 1281 
Q 2116 1406 1581 1522 
L 1381 1569 
Q 847 1681 609 1914 
Q 372 2147 372 2553 
Q 372 3047 722 3315 
Q 1072 3584 1716 3584 
Q 2034 3584 2315 3537 
Q 2597 3491 2834 3397 
z
" transform="scale(0.015625)"/>
       <path id="DejaVuSans-28" d="M 1984 4856 
Q 1566 4138 1362 3434 
Q 1159 2731 1159 2009 
Q 1159 1288 1364 580 
Q 1569 -128 1984 -844 
L 1484 -844 
Q 1016 -109 783 600 
Q 550 1309 550 2009 
Q 550 2706 781 3412 
Q 1013 4119 1484 4856 
L 1984 4856 
z
" transform="scale(0.015625)"/>
       <path id="DejaVuSans-6b" d="M 581 4863 
L 1159 4863 
L 1159 1991 
L 2875 3500 
L 3609 3500 
L 1753 1863 
L 3688 0 
L 2938 0 
L 1159 1709 
L 1159 0 
L 581 0 
L 581 4863 
z
" transform="scale(0.015625)"/>
       <path id="DejaVuSans-67" d="M 2906 1791 
Q 2906 2416 2648 2759 
Q 2391 3103 1925 3103 
Q 1463 3103 1205 2759 
Q 947 2416 947 1791 
Q 947 1169 1205 825 
Q 1463 481 1925 481 
Q 2391 481 2648 825 
Q 2906 1169 2906 1791 
z
M 3481 434 
Q 3481 -459 3084 -895 
Q 2688 -1331 1869 -1331 
Q 1566 -1331 1297 -1286 
Q 1028 -1241 775 -1147 
L 775 -588 
Q 1028 -725 1275 -790 
Q 1522 -856 1778 -856 
Q 2344 -856 2625 -561 
Q 2906 -266 2906 331 
L 2906 616 
Q 2728 306 2450 153 
Q 2172 0 1784 0 
Q 1141 0 747 490 
Q 353 981 353 1791 
Q 353 2603 747 3093 
Q 1141 3584 1784 3584 
Q 2172 3584 2450 3431 
Q 2728 3278 2906 2969 
L 2906 3500 
L 3481 3500 
L 3481 434 
z
" transform="scale(0.015625)"/>
       <path id="DejaVuSans-29" d="M 513 4856 
L 1013 4856 
Q 1481 4119 1714 3412 
Q 1947 2706 1947 2009 
Q 1947 1309 1714 600 
Q 1481 -109 1013 -844 
L 513 -844 
Q 928 -128 1133 580 
Q 1338 1288 1338 2009 
Q 1338 2731 1133 3434 
Q 928 4138 513 4856 
z
" transform="scale(0.015625)"/>
      </defs>
      <use xlink:href="#DejaVuSans-43"/>
      <use xlink:href="#DejaVuSans-75" x="69.824219"/>
      <use xlink:href="#DejaVuSans-6d" x="133.203125"/>
      <use xlink:href="#DejaVuSans-75" x="230.615234"/>
      <use xlink:href="#DejaVuSans-6c" x="293.994141"/>
      <use xlink:href="#DejaVuSans-61" x="321.777344"/>
      <use xlink:href="#DejaVuSans-74" x="383.056641"/>
      <use xlink:href="#DejaVuSans-69" x="422.265625"/>
      <use xlink:href="#DejaVuSans-76" x="450.048828"/>
      <use xlink:href="#DejaVuSans-65" x="509.228516"/>
      <use xlink:href="#DejaVuSans-20" x="570.751953"/>
      <use xlink:href="#DejaVuSans-50" x="602.539062"/>
      <use xlink:href="#DejaVuSans-61" x="658.341797"/>
      <use xlink:href="#DejaVuSans-79" x="719.621094"/>
      <use xlink:href="#DejaVuSans-6c" x="778.800781"/>
      <use xlink:href="#DejaVuSans-6f" x="806.583984"/>
      <use xlink:href="#DejaVuSans-61" x="867.765625"/>
      <use xlink:href="#DejaVuSans-64" x="929.044922"/>
      <use xlink:href="#DejaVuSans-20" x="992.521484"/>
      <use xlink:href="#DejaVuSans-4d" x="1024.308594"/>
      <use xlink:href="#DejaVuSans-61" x="1110.587891"/>
      <use xlink:href="#DejaVuSans-73" x="1171.867188"/>
      <use xlink:href="#DejaVuSans-73" x="1223.966797"/>
      <use xlink:href="#DejaVuSans-20" x="1276.066406"/>
      <use xlink:href="#DejaVuSans-28" x="1307.853516"/>
      <use xlink:href="#DejaVuSans-6b" x="1346.867188"/>
      <use xlink:href="#DejaVuSans-67" x="1404.777344"/>
      <use xlink:href="#DejaVuSans-29" x="1468.253906"/>
     </g>
    </g>
   </g>
   <g id="line2d_27">
    <path d="M 106.665736 455.7 
L 127.722041 455.7 
L 127.722041 452.730911 
L 186.031809 452.730911 
L 186.031809 451.960804 
L 226.524703 451.960804 
L 226.524703 450.228836 
L 249.200724 450.228836 
L 249.200724 448.589651 
L 301.031628 448.589651 
L 301.031628 448.589651 
L 323.707649 448.589651 
L 323.707649 446.712321 
L 354.482248 446.712321 
L 354.482248 445.874791 
L 386.876563 445.874791 
L 386.876563 444.740042 
L 390.115995 444.740042 
L 390.115995 441.770954 
L 406.313152 441.770954 
L 406.313152 439.679911 
L 471.101783 439.679911 
L 471.101783 438.656194 
L 487.298941 438.656194 
L 487.298941 438.509286 
L 509.974961 438.509286 
L 509.974961 436.965978 
L 561.805866 436.965978 
L 561.805866 433.99689 
L 565.045297 433.99689 
L 565.045297 432.326777 
L 595.819897 432.326777 
L 595.819897 431.244297 
L 670.326822 431.244297 
L 670.326822 430.562335 
L 683.284548 430.562335 
L 683.284548 427.593246 
L 696.242274 427.593246 
L 696.242274 427.593246 
" clip-path="url(#p0990cde7d1)" style="fill: none; stroke: #90ee90; stroke-width: 1.5; stroke-linecap: square"/>
   </g>
   <g id="line2d_28">
    <path d="M 106.665736 455.7 
L 118.003747 455.7 
L 118.003747 455.7 
L 155.257209 455.7 
L 155.257209 454.391745 
L 164.975504 454.391745 
L 164.975504 454.005145 
L 190.890956 454.005145 
L 190.890956 453.340193 
L 210.327545 453.340193 
L 210.327545 451.456059 
L 249.200724 451.456059 
L 249.200724 448.48697 
L 254.059871 448.48697 
L 254.059871 447.668306 
L 279.975323 447.668306 
L 279.975323 447.556347 
L 317.228786 447.556347 
L 317.228786 446.442938 
L 335.045659 446.442938 
L 335.045659 444.444989 
L 356.101964 444.444989 
L 356.101964 442.779825 
L 396.594858 442.779825 
L 396.594858 441.945697 
L 433.84832 441.945697 
L 433.84832 439.75754 
L 438.707468 439.75754 
L 438.707468 436.788452 
L 459.763773 436.788452 
L 459.763773 434.994627 
L 514.834109 434.994627 
L 514.834109 432.81111 
L 560.18615 432.81111 
L 560.18615 431.88327 
L 621.735349 431.88327 
L 621.735349 430.244085 
L 650.890233 430.244085 
L 650.890233 429.006965 
L 654.129664 429.006965 
L 654.129664 428.233765 
L 683.284548 428.233765 
L 683.284548 426.872933 
L 696.242274 426.872933 
L 696.242274 426.872933 
" clip-path="url(#p0990cde7d1)" style="fill: none; stroke: #add8e6; stroke-width: 1.5; stroke-linecap: square"/>
   </g>
   <g id="line2d_29">
    <path d="M 106.665736 455.7 
L 122.862894 455.7 
L 122.862894 452.730911 
L 190.890956 452.730911 
L 190.890956 451.230903 
L 203.848682 451.230903 
L 203.848682 447.502532 
L 268.637313 447.502532 
L 268.637313 445.503036 
L 305.890775 445.503036 
L 305.890775 444.731382 
L 338.28509 444.731382 
L 338.28509 440.518988 
L 369.05969 440.518988 
L 369.05969 439.220012 
L 390.115995 439.220012 
L 390.115995 438.075675 
L 438.707468 438.075675 
L 438.707468 437.374228 
L 458.144057 437.374228 
L 458.144057 435.363908 
L 615.256486 435.363908 
L 615.256486 430.539139 
L 654.129664 430.539139 
L 654.129664 429.729753 
L 673.566253 429.729753 
L 673.566253 427.578401 
L 696.242274 427.578401 
L 696.242274 427.578401 
" clip-path="url(#p0990cde7d1)" style="fill: none; stroke: #ffc0cb; stroke-width: 1.5; stroke-linecap: square"/>
   </g>
   <g id="line2d_30">
    <path d="M 106.665736 455.7 
L 116.384031 455.7 
L 116.384031 450.875231 
L 135.82062 450.875231 
L 135.82062 447.148406 
L 152.017778 447.148406 
L 152.017778 442.323637 
L 182.792377 442.323637 
L 182.792377 437.498868 
L 213.566977 437.498868 
L 213.566977 436.887421 
L 231.38385 436.887421 
L 231.38385 432.062652 
L 288.073902 432.062652 
L 288.073902 427.237883 
L 349.623101 427.237883 
L 349.623101 423.362604 
L 357.72168 423.362604 
L 357.72168 418.537835 
L 372.299121 418.537835 
L 372.299121 413.771829 
L 399.834289 413.771829 
L 399.834289 412.438523 
L 432.228605 412.438523 
L 432.228605 410.737482 
L 461.383488 410.737482 
L 461.383488 406.119312 
L 479.200362 406.119312 
L 479.200362 401.344028 
L 498.636951 401.344028 
L 498.636951 400.375981 
L 505.115814 400.375981 
L 505.115814 395.551212 
L 558.566434 395.551212 
L 558.566434 390.726443 
L 578.003023 390.726443 
L 578.003023 385.901674 
L 587.721318 385.901674 
L 587.721318 381.076905 
L 607.157907 381.076905 
L 607.157907 379.743599 
L 624.97478 379.743599 
L 624.97478 375.877598 
L 633.073359 375.877598 
L 633.073359 375.508936 
L 639.552222 375.508936 
L 639.552222 370.684167 
L 657.369096 370.684167 
L 657.369096 369.764987 
L 668.707106 369.764987 
L 668.707106 367.600026 
L 678.425401 367.600026 
L 678.425401 367.600026 
L 697.86199 367.600026 
L 697.86199 367.600026 
" clip-path="url(#p0990cde7d1)" style="fill: none; stroke: #800080; stroke-width: 1.5; stroke-linecap: square"/>
   </g>
   <g id="line2d_31">
    <path d="M 106.665736 455.7 
L 118.003747 455.7 
L 118.003747 454.61752 
L 137.440336 454.61752 
L 137.440336 449.792751 
L 143.919199 449.792751 
L 143.919199 448.24635 
L 161.736072 448.24635 
L 161.736072 443.421581 
L 181.172661 443.421581 
L 181.172661 438.596812 
L 207.088114 438.596812 
L 207.088114 433.772043 
L 218.426124 433.772043 
L 218.426124 428.947274 
L 223.285271 428.947274 
L 223.285271 424.122505 
L 239.482429 424.122505 
L 239.482429 419.297736 
L 262.15845 419.297736 
L 262.15845 414.472967 
L 288.073902 414.472967 
L 288.073902 410.452326 
L 297.792196 410.452326 
L 297.792196 405.627557 
L 305.890775 405.627557 
L 305.890775 400.802788 
L 313.989354 400.802788 
L 313.989354 395.978019 
L 323.707649 395.978019 
L 323.707649 391.202735 
L 341.524522 391.202735 
L 341.524522 386.377966 
L 354.482248 386.377966 
L 354.482248 385.348681 
L 359.341395 385.348681 
L 359.341395 383.183721 
L 377.158269 383.183721 
L 377.158269 381.844229 
L 398.214574 381.844229 
L 398.214574 381.844229 
L 495.397519 381.844229 
L 495.397519 381.163813 
L 521.312972 381.163813 
L 521.312972 377.062759 
L 524.552403 377.062759 
L 524.552403 373.190882 
L 615.256486 373.190882 
L 615.256486 369.170241 
L 618.495917 369.170241 
L 618.495917 364.334647 
L 636.312791 364.334647 
L 636.312791 364.141656 
L 649.270517 364.141656 
L 649.270517 359.657095 
L 660.608527 359.657095 
L 660.608527 359.556579 
L 675.185969 359.556579 
L 675.185969 354.73181 
L 676.805685 354.73181 
L 676.805685 353.34005 
L 680.045116 353.34005 
L 680.045116 352.415612 
L 696.242274 352.415612 
L 696.242274 352.415612 
" clip-path="url(#p0990cde7d1)" style="fill: none; stroke: #ffa500; stroke-width: 1.5; stroke-linecap: square"/>
   </g>
   <g id="line2d_32">
    <path d="M 106.665736 455.7 
L 114.764315 455.7 
L 114.764315 451.215439 
L 126.102326 451.215439 
L 126.102326 451.215439 
L 135.82062 451.215439 
L 135.82062 446.730878 
L 155.257209 446.730878 
L 155.257209 446.048915 
L 158.496641 446.048915 
L 158.496641 446.048915 
L 160.116357 446.048915 
L 160.116357 441.564354 
L 189.27124 441.564354 
L 189.27124 437.358146 
L 195.750103 437.358146 
L 195.750103 432.796265 
L 205.468398 432.796265 
L 205.468398 428.497272 
L 215.186693 428.497272 
L 215.186693 424.117866 
L 231.38385 424.117866 
L 231.38385 419.092065 
L 252.440155 419.092065 
L 252.440155 419.092065 
L 263.778165 419.092065 
L 263.778165 415.071424 
L 278.355607 415.071424 
L 278.355607 415.071424 
L 284.83447 415.071424 
L 284.83447 410.045623 
L 294.552765 410.045623 
L 294.552765 406.024982 
L 297.792196 406.024982 
L 297.792196 400.999181 
L 309.130207 400.999181 
L 309.130207 395.97338 
L 320.468217 395.97338 
L 320.468217 390.947579 
L 322.087933 390.947579 
L 322.087933 385.921777 
L 328.566796 385.921777 
L 328.566796 380.895976 
L 339.904806 380.895976 
L 339.904806 380.895976 
L 362.580827 380.895976 
L 362.580827 379.627928 
L 377.158269 379.627928 
L 377.158269 374.602127 
L 378.777984 374.602127 
L 378.777984 373.365007 
L 380.3977 373.365007 
L 380.3977 373.148511 
L 396.594858 373.148511 
L 396.594858 372.06603 
L 409.552584 372.06603 
L 409.552584 367.040229 
L 416.031447 367.040229 
L 416.031447 362.67938 
L 422.51031 362.67938 
L 422.51031 361.854221 
L 425.749742 361.854221 
L 425.749742 356.82842 
L 433.84832 356.82842 
L 433.84832 352.467571 
L 437.087752 352.467571 
L 437.087752 347.44177 
L 454.904625 347.44177 
L 454.904625 347.231769 
L 464.62292 347.231769 
L 464.62292 342.283288 
L 467.862351 342.283288 
L 467.862351 337.922439 
L 479.200362 337.922439 
L 479.200362 332.896638 
L 493.777804 332.896638 
L 493.777804 327.73166 
L 498.636951 327.73166 
L 498.636951 323.339883 
L 506.73553 323.339883 
L 506.73553 318.391402 
L 516.453824 318.391402 
L 516.453824 314.699217 
L 529.41155 314.699217 
L 529.41155 309.53424 
L 537.510129 309.53424 
L 537.510129 304.554831 
L 555.327003 304.554831 
L 555.327003 300.53419 
L 555.327003 300.53419 
L 555.327003 295.554781 
L 560.18615 295.554781 
L 560.18615 293.281572 
L 571.52416 293.281572 
L 571.52416 291.889812 
L 579.622739 291.889812 
L 579.622739 286.724835 
L 592.580465 286.724835 
L 592.580465 281.652642 
L 599.059328 281.652642 
L 599.059328 280.492841 
L 602.29876 280.492841 
L 602.29876 279.101081 
L 616.876202 279.101081 
L 616.876202 277.059833 
L 634.693075 277.059833 
L 634.693075 275.358792 
L 639.552222 275.358792 
L 639.552222 274.267652 
L 658.988811 274.267652 
L 658.988811 272.411972 
L 663.847959 272.411972 
L 663.847959 272.102692 
L 671.946537 272.102692 
L 671.946537 271.422276 
L 671.946537 271.422276 
L 671.946537 270.154227 
L 673.566253 270.154227 
L 673.566253 264.98925 
L 691.383127 264.98925 
L 691.383127 259.824273 
L 694.622558 259.824273 
L 694.622558 259.700561 
L 696.242274 259.700561 
L 696.242274 259.700561 
" clip-path="url(#p0990cde7d1)" style="fill: none; stroke: #0000ff; stroke-width: 1.5; stroke-linecap: square"/>
   </g>
   <g id="line2d_33">
    <path d="M 106.665736 455.7 
L 121.243178 455.7 
L 121.243178 453.84432 
L 129.341757 453.84432 
L 129.341757 452.684519 
L 134.200904 452.684519 
L 134.200904 451.338532 
L 135.82062 451.338532 
L 135.82062 446.699331 
L 147.15863 446.699331 
L 147.15863 441.317858 
L 155.257209 441.317858 
L 155.257209 436.616801 
L 158.496641 436.616801 
L 158.496641 431.51368 
L 166.59522 431.51368 
L 166.59522 430.231405 
L 174.693798 430.231405 
L 174.693798 424.942716 
L 182.792377 424.942716 
L 182.792377 420.025163 
L 184.412093 420.025163 
L 184.412093 418.333401 
L 198.989535 418.333401 
L 198.989535 413.601416 
L 203.848682 413.601416 
L 203.848682 409.580775 
L 205.468398 409.580775 
L 205.468398 404.663222 
L 215.186693 404.663222 
L 215.186693 402.807541 
L 224.904987 402.807541 
L 224.904987 401.925475 
L 228.144419 401.925475 
L 228.144419 394.750177 
L 239.482429 394.750177 
L 239.482429 389.368704 
L 247.581008 389.368704 
L 247.581008 383.987231 
L 262.15845 383.987231 
L 262.15845 382.258974 
L 281.595039 382.258974 
L 281.595039 377.526989 
L 294.552765 377.526989 
L 294.552765 373.16614 
L 296.172481 373.16614 
L 296.172481 371.898091 
L 301.031628 371.898091 
L 301.031628 369.918699 
L 305.890775 369.918699 
L 305.890775 364.537226 
L 315.60907 364.537226 
L 315.60907 359.619673 
L 322.087933 359.619673 
L 322.087933 354.238199 
L 330.186512 354.238199 
L 330.186512 349.25879 
L 331.806227 349.25879 
L 331.806227 347.217542 
L 333.425943 347.217542 
L 333.425943 343.196901 
L 343.144238 343.196901 
L 343.144238 341.805141 
L 349.623101 341.805141 
L 349.623101 336.732948 
L 356.101964 336.732948 
L 356.101964 331.753538 
L 357.72168 331.753538 
L 357.72168 328.807646 
L 369.05969 328.807646 
L 369.05969 323.735453 
L 369.05969 323.735453 
L 378.777984 323.735453 
L 378.777984 322.31895 
L 385.256848 322.31895 
L 385.256848 317.834389 
L 386.876563 317.834389 
L 386.876563 312.452916 
L 399.834289 312.452916 
L 399.834289 311.784871 
L 409.552584 311.784871 
L 409.552584 307.176598 
L 414.411731 307.176598 
L 414.411731 302.197189 
L 424.130026 302.197189 
L 424.130026 297.032212 
L 430.608889 297.032212 
L 430.608889 293.320851 
L 437.087752 293.320851 
L 437.087752 288.341442 
L 443.566615 288.341442 
L 443.566615 283.362033 
L 445.186331 283.362033 
L 445.186331 280.516656 
L 453.28491 280.516656 
L 453.28491 278.950771 
L 459.763773 278.950771 
L 459.763773 273.971362 
L 461.383488 273.971362 
L 461.383488 270.260001 
L 466.242636 270.260001 
L 466.242636 265.280592 
L 475.96093 265.280592 
L 475.96093 260.301183 
L 484.059509 260.301183 
L 484.059509 255.569198 
L 490.538372 255.569198 
L 490.538372 251.548557 
L 492.158088 251.548557 
L 492.158088 246.569148 
L 500.256667 246.569148 
L 500.256667 241.589739 
L 505.115814 241.589739 
L 505.115814 236.857754 
L 513.214393 236.857754 
L 513.214393 231.878345 
L 518.07354 231.878345 
L 518.07354 227.14636 
L 524.552403 227.14636 
L 524.552403 222.166951 
L 531.031266 222.166951 
L 531.031266 217.187541 
L 537.510129 217.187541 
L 537.510129 212.208132 
L 539.129845 212.208132 
L 539.129845 207.476147 
L 547.228424 207.476147 
L 547.228424 202.496738 
L 555.327003 202.496738 
L 555.327003 197.517329 
L 561.805866 197.517329 
L 561.805866 192.785344 
L 568.284729 192.785344 
L 568.284729 186.999333 
L 576.383307 186.999333 
L 576.383307 182.019923 
L 581.242455 182.019923 
L 581.242455 177.287938 
L 582.862171 177.287938 
L 582.862171 172.092033 
L 594.200181 172.092033 
L 594.200181 167.112624 
L 595.819897 167.112624 
L 595.819897 161.916719 
L 603.918475 161.916719 
L 603.918475 156.720814 
L 610.397339 156.720814 
L 610.397339 151.524909 
L 613.63677 151.524909 
L 613.63677 148.579016 
L 616.876202 148.579016 
L 616.876202 147.310968 
L 626.594496 147.310968 
L 626.594496 142.115063 
L 629.833928 142.115063 
L 629.833928 137.135654 
L 633.073359 137.135654 
L 633.073359 131.939748 
L 642.791654 131.939748 
L 642.791654 126.743843 
L 647.650801 126.743843 
L 647.650801 126.496419 
L 650.890233 126.496419 
L 650.890233 121.300514 
L 657.369096 121.300514 
L 657.369096 116.104609 
L 658.988811 116.104609 
L 658.988811 111.1252 
L 676.805685 111.1252 
L 676.805685 105.929295 
L 683.284548 105.929295 
L 683.284548 100.73339 
L 684.904264 100.73339 
L 684.904264 99.619981 
L 693.002842 99.619981 
L 693.002842 92.460148 
L 696.242274 92.460148 
L 696.242274 92.460148 
" clip-path="url(#p0990cde7d1)" style="fill: none; stroke: #008000; stroke-width: 1.5; stroke-linecap: square"/>
   </g>
   <g id="line2d_34">
    <path d="M 106.665736 455.7 
L 109.905168 455.7 
L 109.905168 449.947391 
L 116.384031 449.947391 
L 116.384031 444.658702 
L 127.722041 444.658702 
L 127.722041 439.493724 
L 129.341757 439.493724 
L 129.341757 434.205035 
L 134.200904 434.205035 
L 134.200904 430.184394 
L 143.919199 430.184394 
L 143.919199 425.019417 
L 152.017778 425.019417 
L 152.017778 414.565751 
L 153.637494 414.565751 
L 153.637494 413.413373 
L 168.214935 413.413373 
L 168.214935 412.889453 
L 171.454367 412.889453 
L 171.454367 407.724476 
L 179.552946 407.724476 
L 179.552946 401.962279 
L 187.651525 401.962279 
L 187.651525 400.725159 
L 192.510672 400.725159 
L 192.510672 395.560181 
L 195.750103 395.560181 
L 195.750103 390.14778 
L 202.228966 390.14778 
L 202.228966 384.859091 
L 208.707829 384.859091 
L 208.707829 375.549761 
L 218.426124 375.549761 
L 218.426124 370.261072 
L 220.04584 370.261072 
L 220.04584 364.972383 
L 228.144419 364.972383 
L 228.144419 359.683694 
L 233.003566 359.683694 
L 233.003566 354.704284 
L 236.242997 354.704284 
L 236.242997 353.862733 
L 241.102145 353.862733 
L 241.102145 348.574044 
L 242.72186 348.574044 
L 242.72186 343.285355 
L 250.820439 343.285355 
L 250.820439 341.738955 
L 252.440155 341.738955 
L 252.440155 336.450266 
L 255.679587 336.450266 
L 255.679587 331.285288 
L 260.538734 331.285288 
L 260.538734 325.996599 
L 263.778165 325.996599 
L 263.778165 320.800694 
L 263.778165 320.800694 
L 268.637313 320.800694 
L 268.637313 315.512005 
L 270.257028 315.512005 
L 270.257028 315.140869 
L 273.49646 315.140869 
L 273.49646 309.85218 
L 279.975323 309.85218 
L 279.975323 304.563491 
L 281.595039 304.563491 
L 281.595039 299.274801 
L 289.693618 299.274801 
L 289.693618 293.986112 
L 297.792196 293.986112 
L 297.792196 288.202575 
L 304.271059 288.202575 
L 304.271059 287.738655 
L 305.890775 287.738655 
L 305.890775 282.449966 
L 310.749922 282.449966 
L 310.749922 277.161277 
L 313.989354 277.161277 
L 313.989354 271.872587 
L 317.228786 271.872587 
L 317.228786 266.831322 
L 322.087933 266.831322 
L 322.087933 261.542633 
L 323.707649 261.542633 
L 323.707649 256.501368 
L 330.186512 256.501368 
L 330.186512 251.212679 
L 338.28509 251.212679 
L 338.28509 245.92399 
L 339.904806 245.92399 
L 339.904806 240.6353 
L 346.383669 240.6353 
L 346.383669 234.619803 
L 352.862532 234.619803 
L 352.862532 229.331114 
L 359.341395 229.331114 
L 359.341395 224.289849 
L 364.200543 224.289849 
L 364.200543 214.083607 
L 382.017416 214.083607 
L 382.017416 209.042342 
L 383.637132 209.042342 
L 383.637132 207.495941 
L 388.496279 207.495941 
L 388.496279 202.330964 
L 390.115995 202.330964 
L 390.115995 197.289699 
L 391.735711 197.289699 
L 391.735711 195.743299 
L 394.975142 195.743299 
L 394.975142 190.454609 
L 404.693437 190.454609 
L 404.693437 185.413344 
L 412.792016 185.413344 
L 412.792016 184.098904 
L 419.270879 184.098904 
L 419.270879 179.057639 
L 443.566615 179.057639 
L 443.566615 173.76895 
L 445.186331 173.76895 
L 445.186331 163.377139 
L 453.28491 163.377139 
L 453.28491 158.08845 
L 456.524341 158.08845 
L 456.524341 151.606868 
L 466.242636 151.606868 
L 466.242636 146.503747 
L 469.482067 146.503747 
L 469.482067 138.978963 
L 474.341214 138.978963 
L 474.341214 138.515043 
L 482.439793 138.515043 
L 482.439793 133.350066 
L 495.397519 133.350066 
L 495.397519 128.185088 
L 500.256667 128.185088 
L 500.256667 117.855134 
L 508.355245 117.855134 
L 508.355245 112.690157 
L 516.453824 112.690157 
L 516.453824 108.669516 
L 519.693256 108.669516 
L 519.693256 106.349916 
L 521.312972 106.349916 
L 521.312972 101.184938 
L 527.791835 101.184938 
L 527.791835 100.69009 
L 532.650982 100.69009 
L 532.650982 95.648825 
L 540.749561 95.648825 
L 540.749561 90.60756 
L 545.608708 90.60756 
L 545.608708 86.586919 
L 560.18615 86.586919 
L 560.18615 86.244237 
L 571.52416 86.244237 
L 571.52416 84.368453 
L 573.143876 84.368453 
L 573.143876 74.038499 
L 578.003023 74.038499 
L 578.003023 68.997234 
L 581.242455 68.997234 
L 581.242455 68.083621 
L 586.101602 68.083621 
L 586.101602 62.794931 
L 590.960749 62.794931 
L 590.960749 57.629954 
L 597.439612 57.629954 
L 597.439612 47.3 
L 605.538191 47.3 
L 605.538191 47.3 
" clip-path="url(#p0990cde7d1)" style="fill: none; stroke: #ff0000; stroke-width: 1.5; stroke-linecap: square"/>
   </g>
   <g id="patch_3">
    <path d="M 82.37 476.12 
L 82.37 26.88 
" style="fill: none; stroke: #000000; stroke-width: 0.8; stroke-linejoin: miter; stroke-linecap: square"/>
   </g>
   <g id="patch_4">
    <path d="M 709.2 476.12 
L 709.2 26.88 
" style="fill: none; stroke: #000000; stroke-width: 0.8; stroke-linejoin: miter; stroke-linecap: square"/>
   </g>
   <g id="patch_5">
    <path d="M 82.37 476.12 
L 709.2 476.12 
" style="fill: none; stroke: #000000; stroke-width: 0.8; stroke-linejoin: miter; stroke-linecap: square"/>
   </g>
   <g id="patch_6">
    <path d="M 82.37 26.88 
L 709.2 26.88 
" style="fill: none; stroke: #000000; stroke-width: 0.8; stroke-linejoin: miter; stroke-linecap: square"/>
   </g>
   <g id="text_15">
    <!-- Cumulative Payload Mass to Orbit By Year -->
    <g transform="translate(270.179688 20.88) scale(0.12 -0.12)">
     <defs>
      <path id="DejaVuSans-4f" d="M 2522 4238 
Q 1834 4238 1429 3725 
Q 1025 3213 1025 2328 
Q 1025 1447 1429 934 
Q 1834 422 2522 422 
Q 3209 422 3611 934 
Q 4013 1447 4013 2328 
Q 4013 3213 3611 3725 
Q 3209 4238 2522 4238 
z
M 2522 4750 
Q 3503 4750 4090 4092 
Q 4678 3434 4678 2328 
Q 4678 1225 4090 567 
Q 3503 -91 2522 -91 
Q 1538 -91 948 565 
Q 359 1222 359 2328 
Q 359 3434 948 4092 
Q 1538 4750 2522 4750 
z
" transform="scale(0.015625)"/>
      <path id="DejaVuSans-62" d="M 3116 1747 
Q 3116 2381 2855 2742 
Q 2594 3103 2138 3103 
Q 1681 3103 1420 2742 
Q 1159 2381 1159 1747 
Q 1159 1113 1420 752 
Q 1681 391 2138 391 
Q 2594 391 2855 752 
Q 3116 1113 3116 1747 
z
M 1159 2969 
Q 1341 3281 1617 3432 
Q 1894 3584 2278 3584 
Q 2916 3584 3314 3078 
Q 3713 2572 3713 1747 
Q 3713 922 3314 415 
Q 2916 -91 2278 -91 
Q 1894 -91 1617 61 
Q 1341 213 1159 525 
L 1159 0 
L 581 0 
L 581 4863 
L 1159 4863 
L 1159 2969 
z
" transform="scale(0.015625)"/>
      <path id="DejaVuSans-42" d="M 1259 2228 
L 1259 519 
L 2272 519 
Q 2781 519 3026 730 
Q 3272 941 3272 1375 
Q 3272 1813 3026 2020 
Q 2781 2228 2272 2228 
L 1259 2228 
z
M 1259 4147 
L 1259 2741 
L 2194 2741 
Q 2656 2741 2882 2914 
Q 3109 3088 3109 3444 
Q 3109 3797 2882 3972 
Q 2656 4147 2194 4147 
L 1259 4147 
z
M 628 4666 
L 2241 4666 
Q 2963 4666 3353 4366 
Q 3744 4066 3744 3513 
Q 3744 3084 3544 2831 
Q 3344 2578 2956 2516 
Q 3422 2416 3680 2098 
Q 3938 1781 3938 1306 
Q 3938 681 3513 340 
Q 3088 0 2303 0 
L 628 0 
L 628 4666 
z
" transform="scale(0.015625)"/>
      <path id="DejaVuSans-59" d="M -13 4666 
L 666 4666 
L 1959 2747 
L 3244 4666 
L 3922 4666 
L 2272 2222 
L 2272 0 
L 1638 0 
L 1638 2222 
L -13 4666 
z
" transform="scale(0.015625)"/>
     </defs>
     <use xlink:href="#DejaVuSans-43"/>
     <use xlink:href="#DejaVuSans-75" x="69.824219"/>
     <use xlink:href="#DejaVuSans-6d" x="133.203125"/>
     <use xlink:href="#DejaVuSans-75" x="230.615234"/>
     <use xlink:href="#DejaVuSans-6c" x="293.994141"/>
     <use xlink:href="#DejaVuSans-61" x="321.777344"/>
     <use xlink:href="#DejaVuSans-74" x="383.056641"/>
     <use xlink:href="#DejaVuSans-69" x="422.265625"/>
     <use xlink:href="#DejaVuSans-76" x="450.048828"/>
     <use xlink:href="#DejaVuSans-65" x="509.228516"/>
     <use xlink:href="#DejaVuSans-20" x="570.751953"/>
     <use xlink:href="#DejaVuSans-50" x="602.539062"/>
     <use xlink:href="#DejaVuSans-61" x="658.341797"/>
     <use xlink:href="#DejaVuSans-79" x="719.621094"/>
     <use xlink:href="#DejaVuSans-6c" x="778.800781"/>
     <use xlink:href="#DejaVuSans-6f" x="806.583984"/>
     <use xlink:href="#DejaVuSans-61" x="867.765625"/>
     <use xlink:href="#DejaVuSans-64" x="929.044922"/>
     <use xlink:href="#DejaVuSans-20" x="992.521484"/>
     <use xlink:href="#DejaVuSans-4d" x="1024.308594"/>
     <use xlink:href="#DejaVuSans-61" x="1110.587891"/>
     <use xlink:href="#DejaVuSans-73" x="1171.867188"/>
     <use xlink:href="#DejaVuSans-73" x="1223.966797"/>
     <use xlink:href="#DejaVuSans-20" x="1276.066406"/>
     <use xlink:href="#DejaVuSans-74" x="1307.853516"/>
     <use xlink:href="#DejaVuSans-6f" x="1347.0625"/>
     <use xlink:href="#DejaVuSans-20" x="1408.244141"/>
     <use xlink:href="#DejaVuSans-4f" x="1440.03125"/>
     <use xlink:href="#DejaVuSans-72" x="1518.742188"/>
     <use xlink:href="#DejaVuSans-62" x="1559.855469"/>
     <use xlink:href="#DejaVuSans-69" x="1623.332031"/>
     <use xlink:href="#DejaVuSans-74" x="1651.115234"/>
     <use xlink:href="#DejaVuSans-20" x="1690.324219"/>
     <use xlink:href="#DejaVuSans-42" x="1722.111328"/>
     <use xlink:href="#DejaVuSans-79" x="1790.714844"/>
     <use xlink:href="#DejaVuSans-20" x="1849.894531"/>
     <use xlink:href="#DejaVuSans-59" x="1881.681641"/>
     <use xlink:href="#DejaVuSans-65" x="1929.515625"/>
     <use xlink:href="#DejaVuSans-61" x="1991.039062"/>
     <use xlink:href="#DejaVuSans-72" x="2052.318359"/>
    </g>
   </g>
   <g id="legend_1">
    <g id="patch_7">
     <path d="M 89.37 166.983125 
L 146.82 166.983125 
Q 148.82 166.983125 148.82 164.983125 
L 148.82 33.88 
Q 148.82 31.88 146.82 31.88 
L 89.37 31.88 
Q 87.37 31.88 87.37 33.88 
L 87.37 164.983125 
Q 87.37 166.983125 89.37 166.983125 
z
" style="fill: #ffffff; opacity: 0.8; stroke: #cccccc; stroke-linejoin: miter"/>
    </g>
    <g id="text_16">
     <!-- Year -->
     <g transform="translate(107.5075 43.478437) scale(0.1 -0.1)">
      <use xlink:href="#DejaVuSans-59"/>
      <use xlink:href="#DejaVuSans-65" x="47.833984"/>
      <use xlink:href="#DejaVuSans-61" x="109.357422"/>
      <use xlink:href="#DejaVuSans-72" x="170.636719"/>
     </g>
    </g>
    <g id="line2d_35">
     <path d="M 91.37 54.656562 
L 101.37 54.656562 
L 101.37 54.656562 
L 111.37 54.656562 
L 111.37 54.656562 
" style="fill: none; stroke: #90ee90; stroke-width: 1.5; stroke-linecap: square"/>
    </g>
    <g id="text_17">
     <!-- 2017 -->
     <g transform="translate(119.37 58.156562) scale(0.1 -0.1)">
      <defs>
       <path id="DejaVuSans-37" d="M 525 4666 
L 3525 4666 
L 3525 4397 
L 1831 0 
L 1172 0 
L 2766 4134 
L 525 4134 
L 525 4666 
z
" transform="scale(0.015625)"/>
      </defs>
      <use xlink:href="#DejaVuSans-32"/>
      <use xlink:href="#DejaVuSans-30" x="63.623047"/>
      <use xlink:href="#DejaVuSans-31" x="127.246094"/>
      <use xlink:href="#DejaVuSans-37" x="190.869141"/>
     </g>
    </g>
    <g id="line2d_36">
     <path d="M 91.37 69.334687 
L 101.37 69.334687 
L 101.37 69.334687 
L 111.37 69.334687 
L 111.37 69.334687 
" style="fill: none; stroke: #add8e6; stroke-width: 1.5; stroke-linecap: square"/>
    </g>
    <g id="text_18">
     <!-- 2018 -->
     <g transform="translate(119.37 72.834687) scale(0.1 -0.1)">
      <use xlink:href="#DejaVuSans-32"/>
      <use xlink:href="#DejaVuSans-30" x="63.623047"/>
      <use xlink:href="#DejaVuSans-31" x="127.246094"/>
      <use xlink:href="#DejaVuSans-38" x="190.869141"/>
     </g>
    </g>
    <g id="line2d_37">
     <path d="M 91.37 84.012812 
L 101.37 84.012812 
L 101.37 84.012812 
L 111.37 84.012812 
L 111.37 84.012812 
" style="fill: none; stroke: #ffc0cb; stroke-width: 1.5; stroke-linecap: square"/>
    </g>
    <g id="text_19">
     <!-- 2019 -->
     <g transform="translate(119.37 87.512812) scale(0.1 -0.1)">
      <defs>
       <path id="DejaVuSans-39" d="M 703 97 
L 703 672 
Q 941 559 1184 500 
Q 1428 441 1663 441 
Q 2288 441 2617 861 
Q 2947 1281 2994 2138 
Q 2813 1869 2534 1725 
Q 2256 1581 1919 1581 
Q 1219 1581 811 2004 
Q 403 2428 403 3163 
Q 403 3881 828 4315 
Q 1253 4750 1959 4750 
Q 2769 4750 3195 4129 
Q 3622 3509 3622 2328 
Q 3622 1225 3098 567 
Q 2575 -91 1691 -91 
Q 1453 -91 1209 -44 
Q 966 3 703 97 
z
M 1959 2075 
Q 2384 2075 2632 2365 
Q 2881 2656 2881 3163 
Q 2881 3666 2632 3958 
Q 2384 4250 1959 4250 
Q 1534 4250 1286 3958 
Q 1038 3666 1038 3163 
Q 1038 2656 1286 2365 
Q 1534 2075 1959 2075 
z
" transform="scale(0.015625)"/>
      </defs>
      <use xlink:href="#DejaVuSans-32"/>
      <use xlink:href="#DejaVuSans-30" x="63.623047"/>
      <use xlink:href="#DejaVuSans-31" x="127.246094"/>
      <use xlink:href="#DejaVuSans-39" x="190.869141"/>
     </g>
    </g>
    <g id="line2d_38">
     <path d="M 91.37 98.690937 
L 101.37 98.690937 
L 101.37 98.690937 
L 111.37 98.690937 
L 111.37 98.690937 
" style="fill: none; stroke: #800080; stroke-width: 1.5; stroke-linecap: square"/>
    </g>
    <g id="text_20">
     <!-- 2020 -->
     <g transform="translate(119.37 102.190937) scale(0.1 -0.1)">
      <use xlink:href="#DejaVuSans-32"/>
      <use xlink:href="#DejaVuSans-30" x="63.623047"/>
      <use xlink:href="#DejaVuSans-32" x="127.246094"/>
      <use xlink:href="#DejaVuSans-30" x="190.869141"/>
     </g>
    </g>
    <g id="line2d_39">
     <path d="M 91.37 113.369062 
L 101.37 113.369062 
L 101.37 113.369062 
L 111.37 113.369062 
L 111.37 113.369062 
" style="fill: none; stroke: #ffa500; stroke-width: 1.5; stroke-linecap: square"/>
    </g>
    <g id="text_21">
     <!-- 2021 -->
     <g transform="translate(119.37 116.869062) scale(0.1 -0.1)">
      <use xlink:href="#DejaVuSans-32"/>
      <use xlink:href="#DejaVuSans-30" x="63.623047"/>
      <use xlink:href="#DejaVuSans-32" x="127.246094"/>
      <use xlink:href="#DejaVuSans-31" x="190.869141"/>
     </g>
    </g>
    <g id="line2d_40">
     <path d="M 91.37 128.047187 
L 101.37 128.047187 
L 101.37 128.047187 
L 111.37 128.047187 
L 111.37 128.047187 
" style="fill: none; stroke: #0000ff; stroke-width: 1.5; stroke-linecap: square"/>
    </g>
    <g id="text_22">
     <!-- 2022 -->
     <g transform="translate(119.37 131.547187) scale(0.1 -0.1)">
      <use xlink:href="#DejaVuSans-32"/>
      <use xlink:href="#DejaVuSans-30" x="63.623047"/>
      <use xlink:href="#DejaVuSans-32" x="127.246094"/>
      <use xlink:href="#DejaVuSans-32" x="190.869141"/>
     </g>
    </g>
    <g id="line2d_41">
     <path d="M 91.37 142.725312 
L 101.37 142.725312 
L 101.37 142.725312 
L 111.37 142.725312 
L 111.37 142.725312 
" style="fill: none; stroke: #008000; stroke-width: 1.5; stroke-linecap: square"/>
    </g>
    <g id="text_23">
     <!-- 2023 -->
     <g transform="translate(119.37 146.225312) scale(0.1 -0.1)">
      <defs>
       <path id="DejaVuSans-33" d="M 2597 2516 
Q 3050 2419 3304 2112 
Q 3559 1806 3559 1356 
Q 3559 666 3084 287 
Q 2609 -91 1734 -91 
Q 1441 -91 1130 -33 
Q 819 25 488 141 
L 488 750 
Q 750 597 1062 519 
Q 1375 441 1716 441 
Q 2309 441 2620 675 
Q 2931 909 2931 1356 
Q 2931 1769 2642 2001 
Q 2353 2234 1838 2234 
L 1294 2234 
L 1294 2753 
L 1863 2753 
Q 2328 2753 2575 2939 
Q 2822 3125 2822 3475 
Q 2822 3834 2567 4026 
Q 2313 4219 1838 4219 
Q 1578 4219 1281 4162 
Q 984 4106 628 3988 
L 628 4550 
Q 988 4650 1302 4700 
Q 1616 4750 1894 4750 
Q 2613 4750 3031 4423 
Q 3450 4097 3450 3541 
Q 3450 3153 3228 2886 
Q 3006 2619 2597 2516 
z
" transform="scale(0.015625)"/>
      </defs>
      <use xlink:href="#DejaVuSans-32"/>
      <use xlink:href="#DejaVuSans-30" x="63.623047"/>
      <use xlink:href="#DejaVuSans-32" x="127.246094"/>
      <use xlink:href="#DejaVuSans-33" x="190.869141"/>
     </g>
    </g>
    <g id="line2d_42">
     <path d="M 91.37 157.403437 
L 101.37 157.403437 
L 101.37 157.403437 
L 111.37 157.403437 
L 111.37 157.403437 
" style="fill: none; stroke: #ff0000; stroke-width: 1.5; stroke-linecap: square"/>
    </g>
    <g id="text_24">
     <!-- 2024 -->
     <g transform="translate(119.37 160.903437) scale(0.1 -0.1)">
      <use xlink:href="#DejaVuSans-32"/>
      <use xlink:href="#DejaVuSans-30" x="63.623047"/>
      <use xlink:href="#DejaVuSans-32" x="127.246094"/>
      <use xlink:href="#DejaVuSans-34" x="190.869141"/>
     </g>
    </g>
   </g>
  </g>
 </g>
 <defs>
  <clipPath id="p0990cde7d1">
   <rect x="82.37" y="26.88" width="626.83" height="449.24"/>
  </clipPath>
 </defs>
</svg>
