<?xml version="1.0" encoding="utf-8" standalone="no"?>
<!DOCTYPE svg PUBLIC "-//W3C//DTD SVG 1.1//EN"
  "http://www.w3.org/Graphics/SVG/1.1/DTD/svg11.dtd">
<svg xmlns:xlink="http://www.w3.org/1999/xlink" width="720pt" height="504pt" viewBox="0 0 720 504" xmlns="http://www.w3.org/2000/svg" version="1.1">
 <metadata>
  <rdf:RDF xmlns:dc="http://purl.org/dc/elements/1.1/" xmlns:cc="http://creativecommons.org/ns#" xmlns:rdf="http://www.w3.org/1999/02/22-rdf-syntax-ns#">
   <cc:Work>
    <dc:type rdf:resource="http://purl.org/dc/dcmitype/StillImage"/>
    <dc:date>2025-11-09T11:21:54.123710</dc:date>
    <dc:format>image/svg+xml</dc:format>
    <dc:creator>
     <cc:Agent>
      <dc:title>Matplotlib v3.8.2, https://matplotlib.org/</dc:title>
     </cc:Agent>
    </dc:creator>
   </cc:Work>
  </rdf:RDF>
 </metadata>
 <defs>
  <style type="text/css">*{stroke-linejoin: round; stroke-linecap: butt}</style>
 </defs>
 <g id="figure_1">
  <g id="patch_1">
   <path d="M 0 504 
L 720 504 
L 720 0 
L 0 0 
z
" style="fill: #ffffff"/>
  </g>
  <g id="axes_1">
   <g id="patch_2">
    <path d="M 82.37 476.12 
L 709.2 476.12 
L 709.2 26.88 
L 82.37 26.88 
z
" style="fill: #ffffff"/>
   </g>
   <g id="matplotlib.axis_1">
    <g id="xtick_1">
     <g id="line2d_1">
      <path d="M 106.728679 476.12 
L 106.728679 26.88 
" clip-path="url(#p2c6cdb5a49)" style="fill: none; stroke: #b0b0b0; stroke-width: 0.8; stroke-linecap: square"/>
     </g>
     <g id="line2d_2">
      <defs>
       <path id="md8b40cd18a" d="M 0 0 
L 0 3.5 
" style="stroke: #000000; stroke-width: 0.8"/>
      </defs>
      <g>
       <use xlink:href="#md8b40cd18a" x="106.728679" y="476.12" style="stroke: #000000; stroke-width: 0.8"/>
      </g>
     </g>
     <g id="text_1">
      <!-- Jan 1 -->
      <g transform="translate(94.250554 490.718437) scale(0.1 -0.1)">
       <defs>
        <path id="DejaVuSans-4a" d="M 628 4666 
L 1259 4666 
L 1259 325 
Q 1259 -519 939 -900 
Q 619 -1281 -91 -1281 
L -331 -1281 
L -331 -750 
L -134 -750 
Q 284 -750 456 -515 
Q 628 -281 628 325 
L 628 4666 
z
" transform="scale(0.015625)"/>
        <path id="DejaVuSans-61" d="M 2194 1759 
Q 1497 1759 1228 1600 
Q 959 1441 959 1056 
Q 959 750 1161 570 
Q 1363 391 1709 391 
Q 2188 391 2477 730 
Q 2766 1069 2766 1631 
L 2766 1759 
L 2194 1759 
z
M 3341 1997 
L 3341 0 
L 2766 0 
L 2766 531 
Q 2569 213 2275 61 
Q 1981 -91 1556 -91 
Q 1019 -91 701 211 
Q 384 513 384 1019 
Q 384 1609 779 1909 
Q 1175 2209 1959 2209 
L 2766 2209 
L 2766 2266 
Q 2766 2663 2505 2880 
Q 2244 3097 1772 3097 
Q 1472 3097 1187 3025 
Q 903 2953 641 2809 
L 641 3341 
Q 956 3463 1253 3523 
Q 1550 3584 1831 3584 
Q 2591 3584 2966 3190 
Q 3341 2797 3341 1997 
z
" transform="scale(0.015625)"/>
        <path id="DejaVuSans-6e" d="M 3513 2113 
L 3513 0 
L 2938 0 
L 2938 2094 
Q 2938 2591 2744 2837 
Q 2550 3084 2163 3084 
Q 1697 3084 1428 2787 
Q 1159 2491 1159 1978 
L 1159 0 
L 581 0 
L 581 3500 
L 1159 3500 
L 1159 2956 
Q 1366 3272 1645 3428 
Q 1925 3584 2291 3584 
Q 2894 3584 3203 3211 
Q 3513 2838 3513 2113 
z
" transform="scale(0.015625)"/>
        <path id="DejaVuSans-20" transform="scale(0.015625)"/>
        <path id="DejaVuSans-31" d="M 794 531 
L 1825 531 
L 1825 4091 
L 703 3866 
L 703 4441 
L 1819 4666 
L 2450 4666 
L 2450 531 
L 3481 531 
L 3481 0 
L 794 0 
L 794 531 
z
" transform="scale(0.015625)"/>
       </defs>
       <use xlink:href="#DejaVuSans-4a"/>
       <use xlink:href="#DejaVuSans-61" x="29.492188"/>
       <use xlink:href="#DejaVuSans-6e" x="90.771484"/>
       <use xlink:href="#DejaVuSans-20" x="154.150391"/>
       <use xlink:href="#DejaVuSans-31" x="185.9375"/>
      </g>
     </g>
    </g>
    <g id="xtick_2">
     <g id="line2d_3">
      <path d="M 204.163394 476.12 
L 204.163394 26.88 
" clip-path="url(#p2c6cdb5a49)" style="fill: none; stroke: #b0b0b0; stroke-width: 0.8; stroke-linecap: square"/>
     </g>
     <g id="line2d_4">
      <g>
       <use xlink:href="#md8b40cd18a" x="204.163394" y="476.12" style="stroke: #000000; stroke-width: 0.8"/>
      </g>
     </g>
     <g id="text_2">
      <!-- Mar 1 -->
      <g transform="translate(189.959488 490.718437) scale(0.1 -0.1)">
       <defs>
        <path id="DejaVuSans-4d" d="M 628 4666 
L 1569 4666 
L 2759 1491 
L 3956 4666 
L 4897 4666 
L 4897 0 
L 4281 0 
L 4281 4097 
L 3078 897 
L 2444 897 
L 1241 4097 
L 1241 0 
L 628 0 
L 628 4666 
z
" transform="scale(0.015625)"/>
        <path id="DejaVuSans-72" d="M 2631 2963 
Q 2534 3019 2420 3045 
Q 2306 3072 2169 3072 
Q 1681 3072 1420 2755 
Q 1159 2438 1159 1844 
L 1159 0 
L 581 0 
L 581 3500 
L 1159 3500 
L 1159 2956 
Q 1341 3275 1631 3429 
Q 1922 3584 2338 3584 
Q 2397 3584 2469 3576 
Q 2541 3569 2628 3553 
L 2631 2963 
z
" transform="scale(0.015625)"/>
       </defs>
       <use xlink:href="#DejaVuSans-4d"/>
       <use xlink:href="#DejaVuSans-61" x="86.279297"/>
       <use xlink:href="#DejaVuSans-72" x="147.558594"/>
       <use xlink:href="#DejaVuSans-20" x="188.671875"/>
       <use xlink:href="#DejaVuSans-31" x="220.458984"/>
      </g>
     </g>
    </g>
    <g id="xtick_3">
     <g id="line2d_5">
      <path d="M 303.222021 476.12 
L 303.222021 26.88 
" clip-path="url(#p2c6cdb5a49)" style="fill: none; stroke: #b0b0b0; stroke-width: 0.8; stroke-linecap: square"/>
     </g>
     <g id="line2d_6">
      <g>
       <use xlink:href="#md8b40cd18a" x="303.222021" y="476.12" style="stroke: #000000; stroke-width: 0.8"/>
      </g>
     </g>
     <g id="text_3">
      <!-- May 1 -->
      <g transform="translate(288.114208 490.718437) scale(0.1 -0.1)">
       <defs>
        <path id="DejaVuSans-79" d="M 2059 -325 
Q 1816 -950 1584 -1140 
Q 1353 -1331 966 -1331 
L 506 -1331 
L 506 -850 
L 844 -850 
Q 1081 -850 1212 -737 
Q 1344 -625 1503 -206 
L 1606 56 
L 191 3500 
L 800 3500 
L 1894 763 
L 2988 3500 
L 3597 3500 
L 2059 -325 
z
" transform="scale(0.015625)"/>
       </defs>
       <use xlink:href="#DejaVuSans-4d"/>
       <use xlink:href="#DejaVuSans-61" x="86.279297"/>
       <use xlink:href="#DejaVuSans-79" x="147.558594"/>
       <use xlink:href="#DejaVuSans-20" x="206.738281"/>
       <use xlink:href="#DejaVuSans-31" x="238.525391"/>
      </g>
     </g>
    </g>
    <g id="xtick_4">
     <g id="line2d_7">
      <path d="M 402.280648 476.12 
L 402.280648 26.88 
" clip-path="url(#p2c6cdb5a49)" style="fill: none; stroke: #b0b0b0; stroke-width: 0.8; stroke-linecap: square"/>
     </g>
     <g id="line2d_8">
      <g>
       <use xlink:href="#md8b40cd18a" x="402.280648" y="476.12" style="stroke: #000000; stroke-width: 0.8"/>
      </g>
     </g>
     <g id="text_4">
      <!-- Jul 1 -->
      <g transform="translate(391.477523 490.718437) scale(0.1 -0.1)">
       <defs>
        <path id="DejaVuSans-75" d="M 544 1381 
L 544 3500 
L 1119 3500 
L 1119 1403 
Q 1119 906 1312 657 
Q 1506 409 1894 409 
Q 2359 409 2629 706 
Q 2900 1003 2900 1516 
L 2900 3500 
L 3475 3500 
L 3475 0 
L 2900 0 
L 2900 538 
Q 2691 219 2414 64 
Q 2138 -91 1772 -91 
Q 1169 -91 856 284 
Q 544 659 544 1381 
z
M 1991 3584 
L 1991 3584 
z
" transform="scale(0.015625)"/>
        <path id="DejaVuSans-6c" d="M 603 4863 
L 1178 4863 
L 1178 0 
L 603 0 
L 603 4863 
z
" transform="scale(0.015625)"/>
       </defs>
       <use xlink:href="#DejaVuSans-4a"/>
       <use xlink:href="#DejaVuSans-75" x="29.492188"/>
       <use xlink:href="#DejaVuSans-6c" x="92.871094"/>
       <use xlink:href="#DejaVuSans-20" x="120.654297"/>
       <use xlink:href="#DejaVuSans-31" x="152.441406"/>
      </g>
     </g>
    </g>
    <g id="xtick_5">
     <g id="line2d_9">
      <path d="M 502.963187 476.12 
L 502.963187 26.88 
" clip-path="url(#p2c6cdb5a49)" style="fill: none; stroke: #b0b0b0; stroke-width: 0.8; stroke-linecap: square"/>
     </g>
     <g id="line2d_10">
      <g>
       <use xlink:href="#md8b40cd18a" x="502.963187" y="476.12" style="stroke: #000000; stroke-width: 0.8"/>
      </g>
     </g>
     <g id="text_5">
      <!-- Sep 1 -->
      <g transform="translate(488.767874 490.718437) scale(0.1 -0.1)">
       <defs>
        <path id="DejaVuSans-53" d="M 3425 4513 
L 3425 3897 
Q 3066 4069 2747 4153 
Q 2428 4238 2131 4238 
Q 1616 4238 1336 4038 
Q 1056 3838 1056 3469 
Q 1056 3159 1242 3001 
Q 1428 2844 1947 2747 
L 2328 2669 
Q 3034 2534 3370 2195 
Q 3706 1856 3706 1288 
Q 3706 609 3251 259 
Q 2797 -91 1919 -91 
Q 1588 -91 1214 -16 
Q 841 59 441 206 
L 441 856 
Q 825 641 1194 531 
Q 1563 422 1919 422 
Q 2459 422 2753 634 
Q 3047 847 3047 1241 
Q 3047 1584 2836 1778 
Q 2625 1972 2144 2069 
L 1759 2144 
Q 1053 2284 737 2584 
Q 422 2884 422 3419 
Q 422 4038 858 4394 
Q 1294 4750 2059 4750 
Q 2388 4750 2728 4690 
Q 3069 4631 3425 4513 
z
" transform="scale(0.015625)"/>
        <path id="DejaVuSans-65" d="M 3597 1894 
L 3597 1613 
L 953 1613 
Q 991 1019 1311 708 
Q 1631 397 2203 397 
Q 2534 397 2845 478 
Q 3156 559 3463 722 
L 3463 178 
Q 3153 47 2828 -22 
Q 2503 -91 2169 -91 
Q 1331 -91 842 396 
Q 353 884 353 1716 
Q 353 2575 817 3079 
Q 1281 3584 2069 3584 
Q 2775 3584 3186 3129 
Q 3597 2675 3597 1894 
z
M 3022 2063 
Q 3016 2534 2758 2815 
Q 2500 3097 2075 3097 
Q 1594 3097 1305 2825 
Q 1016 2553 972 2059 
L 3022 2063 
z
" transform="scale(0.015625)"/>
        <path id="DejaVuSans-70" d="M 1159 525 
L 1159 -1331 
L 581 -1331 
L 581 3500 
L 1159 3500 
L 1159 2969 
Q 1341 3281 1617 3432 
Q 1894 3584 2278 3584 
Q 2916 3584 3314 3078 
Q 3713 2572 3713 1747 
Q 3713 922 3314 415 
Q 2916 -91 2278 -91 
Q 1894 -91 1617 61 
Q 1341 213 1159 525 
z
M 3116 1747 
Q 3116 2381 2855 2742 
Q 2594 3103 2138 3103 
Q 1681 3103 1420 2742 
Q 1159 2381 1159 1747 
Q 1159 1113 1420 752 
Q 1681 391 2138 391 
Q 2594 391 2855 752 
Q 3116 1113 3116 1747 
z
" transform="scale(0.015625)"/>
       </defs>
       <use xlink:href="#DejaVuSans-53"/>
       <use xlink:href="#DejaVuSans-65" x="63.476562"/>
       <use xlink:href="#DejaVuSans-70" x="125"/>
       <use xlink:href="#DejaVuSans-20" x="188.476562"/>
       <use xlink:href="#DejaVuSans-31" x="220.263672"/>
      </g>
     </g>
    </g>
    <g id="xtick_6">
     <g id="line2d_11">
      <path d="M 602.021813 476.12 
L 602.021813 26.88 
" clip-path="url(#p2c6cdb5a49)" style="fill: none; stroke: #b0b0b0; stroke-width: 0.8; stroke-linecap: square"/>
     </g>
     <g id="line2d_12">
      <g>
       <use xlink:href="#md8b40cd18a" x="602.021813" y="476.12" style="stroke: #000000; stroke-width: 0.8"/>
      </g>
     </g>
     <g id="text_6">
      <!-- Nov 1 -->
      <g transform="translate(587.492126 490.718437) scale(0.1 -0.1)">
       <defs>
        <path id="DejaVuSans-4e" d="M 628 4666 
L 1478 4666 
L 3547 763 
L 3547 4666 
L 4159 4666 
L 4159 0 
L 3309 0 
L 1241 3903 
L 1241 0 
L 628 0 
L 628 4666 
z
" transform="scale(0.015625)"/>
        <path id="DejaVuSans-6f" d="M 1959 3097 
Q 1497 3097 1228 2736 
Q 959 2375 959 1747 
Q 959 1119 1226 758 
Q 1494 397 1959 397 
Q 2419 397 2687 759 
Q 2956 1122 2956 1747 
Q 2956 2369 2687 2733 
Q 2419 3097 1959 3097 
z
M 1959 3584 
Q 2709 3584 3137 3096 
Q 3566 2609 3566 1747 
Q 3566 888 3137 398 
Q 2709 -91 1959 -91 
Q 1206 -91 779 398 
Q 353 888 353 1747 
Q 353 2609 779 3096 
Q 1206 3584 1959 3584 
z
" transform="scale(0.015625)"/>
        <path id="DejaVuSans-76" d="M 191 3500 
L 800 3500 
L 1894 563 
L 2988 3500 
L 3597 3500 
L 2284 0 
L 1503 0 
L 191 3500 
z
" transform="scale(0.015625)"/>
       </defs>
       <use xlink:href="#DejaVuSans-4e"/>
       <use xlink:href="#DejaVuSans-6f" x="74.804688"/>
       <use xlink:href="#DejaVuSans-76" x="135.986328"/>
       <use xlink:href="#DejaVuSans-20" x="195.166016"/>
       <use xlink:href="#DejaVuSans-31" x="226.953125"/>
      </g>
     </g>
    </g>
   </g>
   <g id="matplotlib.axis_2">
    <g id="ytick_1">
     <g id="line2d_13">
      <path d="M 82.37 455.7 
L 709.2 455.7 
" clip-path="url(#p2c6cdb5a49)" style="fill: none; stroke: #b0b0b0; stroke-width: 0.8; stroke-linecap: square"/>
     </g>
     <g id="line2d_14">
      <defs>
       <path id="m889e795abd" d="M 0 0 
L -3.5 0 
" style="stroke: #000000; stroke-width: 0.8"/>
      </defs>
      <g>
       <use xlink:href="#m889e795abd" x="82.37" y="455.7" style="stroke: #000000; stroke-width: 0.8"/>
      </g>
     </g>
     <g id="text_7">
      <!-- 0 -->
      <g transform="translate(69.0075 459.499219) scale(0.1 -0.1)">
       <defs>
        <path id="DejaVuSans-30" d="M 2034 4250 
Q 1547 4250 1301 3770 
Q 1056 3291 1056 2328 
Q 1056 1369 1301 889 
Q 1547 409 2034 409 
Q 2525 409 2770 889 
Q 3016 1369 3016 2328 
Q 3016 3291 2770 3770 
Q 2525 4250 2034 4250 
z
M 2034 4750 
Q 2819 4750 3233 4129 
Q 3647 3509 3647 2328 
Q 3647 1150 3233 529 
Q 2819 -91 2034 -91 
Q 1250 -91 836 529 
Q 422 1150 422 2328 
Q 422 3509 836 4129 
Q 1250 4750 2034 4750 
z
" transform="scale(0.015625)"/>
       </defs>
       <use xlink:href="#DejaVuSans-30"/>
      </g>
     </g>
    </g>
    <g id="ytick_2">
     <g id="line2d_15">
      <path d="M 82.37 401.351451 
L 709.2 401.351451 
" clip-path="url(#p2c6cdb5a49)" style="fill: none; stroke: #b0b0b0; stroke-width: 0.8; stroke-linecap: square"/>
     </g>
     <g id="line2d_16">
      <g>
       <use xlink:href="#m889e795abd" x="82.37" y="401.351451" style="stroke: #000000; stroke-width: 0.8"/>
      </g>
     </g>
     <g id="text_8">
      <!-- 250,000 -->
      <g transform="translate(34.016875 405.150669) scale(0.1 -0.1)">
       <defs>
        <path id="DejaVuSans-32" d="M 1228 531 
L 3431 531 
L 3431 0 
L 469 0 
L 469 531 
Q 828 903 1448 1529 
Q 2069 2156 2228 2338 
Q 2531 2678 2651 2914 
Q 2772 3150 2772 3378 
Q 2772 3750 2511 3984 
Q 2250 4219 1831 4219 
Q 1534 4219 1204 4116 
Q 875 4013 500 3803 
L 500 4441 
Q 881 4594 1212 4672 
Q 1544 4750 1819 4750 
Q 2544 4750 2975 4387 
Q 3406 4025 3406 3419 
Q 3406 3131 3298 2873 
Q 3191 2616 2906 2266 
Q 2828 2175 2409 1742 
Q 1991 1309 1228 531 
z
" transform="scale(0.015625)"/>
        <path id="DejaVuSans-35" d="M 691 4666 
L 3169 4666 
L 3169 4134 
L 1269 4134 
L 1269 2991 
Q 1406 3038 1543 3061 
Q 1681 3084 1819 3084 
Q 2600 3084 3056 2656 
Q 3513 2228 3513 1497 
Q 3513 744 3044 326 
Q 2575 -91 1722 -91 
Q 1428 -91 1123 -41 
Q 819 9 494 109 
L 494 744 
Q 775 591 1075 516 
Q 1375 441 1709 441 
Q 2250 441 2565 725 
Q 2881 1009 2881 1497 
Q 2881 1984 2565 2268 
Q 2250 2553 1709 2553 
Q 1456 2553 1204 2497 
Q 953 2441 691 2322 
L 691 4666 
z
" transform="scale(0.015625)"/>
        <path id="DejaVuSans-2c" d="M 750 794 
L 1409 794 
L 1409 256 
L 897 -744 
L 494 -744 
L 750 256 
L 750 794 
z
" transform="scale(0.015625)"/>
       </defs>
       <use xlink:href="#DejaVuSans-32"/>
       <use xlink:href="#DejaVuSans-35" x="63.623047"/>
       <use xlink:href="#DejaVuSans-30" x="127.246094"/>
       <use xlink:href="#DejaVuSans-2c" x="190.869141"/>
       <use xlink:href="#DejaVuSans-30" x="222.65625"/>
       <use xlink:href="#DejaVuSans-30" x="286.279297"/>
       <use xlink:href="#DejaVuSans-30" x="349.902344"/>
      </g>
     </g>
    </g>
    <g id="ytick_3">
     <g id="line2d_17">
      <path d="M 82.37 347.002901 
L 709.2 347.002901 
" clip-path="url(#p2c6cdb5a49)" style="fill: none; stroke: #b0b0b0; stroke-width: 0.8; stroke-linecap: square"/>
     </g>
     <g id="line2d_18">
      <g>
       <use xlink:href="#m889e795abd" x="82.37" y="347.002901" style="stroke: #000000; stroke-width: 0.8"/>
      </g>
     </g>
     <g id="text_9">
      <!-- 500,000 -->
      <g transform="translate(34.016875 350.80212) scale(0.1 -0.1)">
       <use xlink:href="#DejaVuSans-35"/>
       <use xlink:href="#DejaVuSans-30" x="63.623047"/>
       <use xlink:href="#DejaVuSans-30" x="127.246094"/>
       <use xlink:href="#DejaVuSans-2c" x="190.869141"/>
       <use xlink:href="#DejaVuSans-30" x="222.65625"/>
       <use xlink:href="#DejaVuSans-30" x="286.279297"/>
       <use xlink:href="#DejaVuSans-30" x="349.902344"/>
      </g>
     </g>
    </g>
    <g id="ytick_4">
     <g id="line2d_19">
      <path d="M 82.37 292.654352 
L 709.2 292.654352 
" clip-path="url(#p2c6cdb5a49)" style="fill: none; stroke: #b0b0b0; stroke-width: 0.8; stroke-linecap: square"/>
     </g>
     <g id="line2d_20">
      <g>
       <use xlink:href="#m889e795abd" x="82.37" y="292.654352" style="stroke: #000000; stroke-width: 0.8"/>
      </g>
     </g>
     <g id="text_10">
      <!-- 750,000 -->
      <g transform="translate(34.016875 296.453571) scale(0.1 -0.1)">
       <defs>
        <path id="DejaVuSans-37" d="M 525 4666 
L 3525 4666 
L 3525 4397 
L 1831 0 
L 1172 0 
L 2766 4134 
L 525 4134 
L 525 4666 
z
" transform="scale(0.015625)"/>
       </defs>
       <use xlink:href="#DejaVuSans-37"/>
       <use xlink:href="#DejaVuSans-35" x="63.623047"/>
       <use xlink:href="#DejaVuSans-30" x="127.246094"/>
       <use xlink:href="#DejaVuSans-2c" x="190.869141"/>
       <use xlink:href="#DejaVuSans-30" x="222.65625"/>
       <use xlink:href="#DejaVuSans-30" x="286.279297"/>
       <use xlink:href="#DejaVuSans-30" x="349.902344"/>
      </g>
     </g>
    </g>
    <g id="ytick_5">
     <g id="line2d_21">
      <path d="M 82.37 238.305803 
L 709.2 238.305803 
" clip-path="url(#p2c6cdb5a49)" style="fill: none; stroke: #b0b0b0; stroke-width: 0.8; stroke-linecap: square"/>
     </g>
     <g id="line2d_22">
      <g>
       <use xlink:href="#m889e795abd" x="82.37" y="238.305803" style="stroke: #000000; stroke-width: 0.8"/>
      </g>
     </g>
     <g id="text_11">
      <!-- 1,000,000 -->
      <g transform="translate(24.47625 242.105021) scale(0.1 -0.1)">
       <use xlink:href="#DejaVuSans-31"/>
       <use xlink:href="#DejaVuSans-2c" x="63.623047"/>
       <use xlink:href="#DejaVuSans-30" x="95.410156"/>
       <use xlink:href="#DejaVuSans-30" x="159.033203"/>
       <use xlink:href="#DejaVuSans-30" x="222.65625"/>
       <use xlink:href="#DejaVuSans-2c" x="286.279297"/>
       <use xlink:href="#DejaVuSans-30" x="318.066406"/>
       <use xlink:href="#DejaVuSans-30" x="381.689453"/>
       <use xlink:href="#DejaVuSans-30" x="445.3125"/>
      </g>
     </g>
    </g>
    <g id="ytick_6">
     <g id="line2d_23">
      <path d="M 82.37 183.957253 
L 709.2 183.957253 
" clip-path="url(#p2c6cdb5a49)" style="fill: none; stroke: #b0b0b0; stroke-width: 0.8; stroke-linecap: square"/>
     </g>
     <g id="line2d_24">
      <g>
       <use xlink:href="#m889e795abd" x="82.37" y="183.957253" style="stroke: #000000; stroke-width: 0.8"/>
      </g>
     </g>
     <g id="text_12">
      <!-- 1,250,000 -->
      <g transform="translate(24.47625 187.756472) scale(0.1 -0.1)">
       <use xlink:href="#DejaVuSans-31"/>
       <use xlink:href="#DejaVuSans-2c" x="63.623047"/>
       <use xlink:href="#DejaVuSans-32" x="95.410156"/>
       <use xlink:href="#DejaVuSans-35" x="159.033203"/>
       <use xlink:href="#DejaVuSans-30" x="222.65625"/>
       <use xlink:href="#DejaVuSans-2c" x="286.279297"/>
       <use xlink:href="#DejaVuSans-30" x="318.066406"/>
       <use xlink:href="#DejaVuSans-30" x="381.689453"/>
       <use xlink:href="#DejaVuSans-30" x="445.3125"/>
      </g>
     </g>
    </g>
    <g id="ytick_7">
     <g id="line2d_25">
      <path d="M 82.37 129.608704 
L 709.2 129.608704 
" clip-path="url(#p2c6cdb5a49)" style="fill: none; stroke: #b0b0b0; stroke-width: 0.8; stroke-linecap: square"/>
     </g>
     <g id="line2d_26">
      <g>
       <use xlink:href="#m889e795abd" x="82.37" y="129.608704" style="stroke: #000000; stroke-width: 0.8"/>
      </g>
     </g>
     <g id="text_13">
      <!-- 1,500,000 -->
      <g transform="translate(24.47625 133.407923) scale(0.1 -0.1)">
       <use xlink:href="#DejaVuSans-31"/>
       <use xlink:href="#DejaVuSans-2c" x="63.623047"/>
       <use xlink:href="#DejaVuSans-35" x="95.410156"/>
       <use xlink:href="#DejaVuSans-30" x="159.033203"/>
       <use xlink:href="#DejaVuSans-30" x="222.65625"/>
       <use xlink:href="#DejaVuSans-2c" x="286.279297"/>
       <use xlink:href="#DejaVuSans-30" x="318.066406"/>
       <use xlink:href="#DejaVuSans-30" x="381.689453"/>
       <use xlink:href="#DejaVuSans-30" x="445.3125"/>
      </g>
     </g>
    </g>
    <g id="ytick_8">
     <g id="line2d_27">
      <path d="M 82.37 75.260155 
L 709.2 75.260155 
" clip-path="url(#p2c6cdb5a49)" style="fill: none; stroke: #b0b0b0; stroke-width: 0.8; stroke-linecap: square"/>
     </g>
     <g id="line2d_28">
      <g>
       <use xlink:href="#m889e795abd" x="82.37" y="75.260155" style="stroke: #000000; stroke-width: 0.8"/>
      </g>
     </g>
     <g id="text_14">
      <!-- 1,750,000 -->
      <g transform="translate(24.47625 79.059373) scale(0.1 -0.1)">
       <use xlink:href="#DejaVuSans-31"/>
       <use xlink:href="#DejaVuSans-2c" x="63.623047"/>
       <use xlink:href="#DejaVuSans-37" x="95.410156"/>
       <use xlink:href="#DejaVuSans-35" x="159.033203"/>
       <use xlink:href="#DejaVuSans-30" x="222.65625"/>
       <use xlink:href="#DejaVuSans-2c" x="286.279297"/>
       <use xlink:href="#DejaVuSans-30" x="318.066406"/>
       <use xlink:href="#DejaVuSans-30" x="381.689453"/>
       <use xlink:href="#DejaVuSans-30" x="445.3125"/>
      </g>
     </g>
    </g>
    <g id="text_15">
     <!-- Cumulative Payload Mass (kg) -->
     <g transform="translate(18.396562 326.863281) rotate(-90) scale(0.1 -0.1)">
      <defs>
       <path id="DejaVuSans-43" d="M 4122 4306 
L 4122 3641 
Q 3803 3938 3442 4084 
Q 3081 4231 2675 4231 
Q 1875 4231 1450 3742 
Q 1025 3253 1025 2328 
Q 1025 1406 1450 917 
Q 1875 428 2675 428 
Q 3081 428 3442 575 
Q 3803 722 4122 1019 
L 4122 359 
Q 3791 134 3420 21 
Q 3050 -91 2638 -91 
Q 1578 -91 968 557 
Q 359 1206 359 2328 
Q 359 3453 968 4101 
Q 1578 4750 2638 4750 
Q 3056 4750 3426 4639 
Q 3797 4528 4122 4306 
z
" transform="scale(0.015625)"/>
       <path id="DejaVuSans-6d" d="M 3328 2828 
Q 3544 3216 3844 3400 
Q 4144 3584 4550 3584 
Q 5097 3584 5394 3201 
Q 5691 2819 5691 2113 
L 5691 0 
L 5113 0 
L 5113 2094 
Q 5113 2597 4934 2840 
Q 4756 3084 4391 3084 
Q 3944 3084 3684 2787 
Q 3425 2491 3425 1978 
L 3425 0 
L 2847 0 
L 2847 2094 
Q 2847 2600 2669 2842 
Q 2491 3084 2119 3084 
Q 1678 3084 1418 2786 
Q 1159 2488 1159 1978 
L 1159 0 
L 581 0 
L 581 3500 
L 1159 3500 
L 1159 2956 
Q 1356 3278 1631 3431 
Q 1906 3584 2284 3584 
Q 2666 3584 2933 3390 
Q 3200 3197 3328 2828 
z
" transform="scale(0.015625)"/>
       <path id="DejaVuSans-74" d="M 1172 4494 
L 1172 3500 
L 2356 3500 
L 2356 3053 
L 1172 3053 
L 1172 1153 
Q 1172 725 1289 603 
Q 1406 481 1766 481 
L 2356 481 
L 2356 0 
L 1766 0 
Q 1100 0 847 248 
Q 594 497 594 1153 
L 594 3053 
L 172 3053 
L 172 3500 
L 594 3500 
L 594 4494 
L 1172 4494 
z
" transform="scale(0.015625)"/>
       <path id="DejaVuSans-69" d="M 603 3500 
L 1178 3500 
L 1178 0 
L 603 0 
L 603 3500 
z
M 603 4863 
L 1178 4863 
L 1178 4134 
L 603 4134 
L 603 4863 
z
" transform="scale(0.015625)"/>
       <path id="DejaVuSans-50" d="M 1259 4147 
L 1259 2394 
L 2053 2394 
Q 2494 2394 2734 2622 
Q 2975 2850 2975 3272 
Q 2975 3691 2734 3919 
Q 2494 4147 2053 4147 
L 1259 4147 
z
M 628 4666 
L 2053 4666 
Q 2838 4666 3239 4311 
Q 3641 3956 3641 3272 
Q 3641 2581 3239 2228 
Q 2838 1875 2053 1875 
L 1259 1875 
L 1259 0 
L 628 0 
L 628 4666 
z
" transform="scale(0.015625)"/>
       <path id="DejaVuSans-64" d="M 2906 2969 
L 2906 4863 
L 3481 4863 
L 3481 0 
L 2906 0 
L 2906 525 
Q 2725 213 2448 61 
Q 2172 -91 1784 -91 
Q 1150 -91 751 415 
Q 353 922 353 1747 
Q 353 2572 751 3078 
Q 1150 3584 1784 3584 
Q 2172 3584 2448 3432 
Q 2725 3281 2906 2969 
z
M 947 1747 
Q 947 1113 1208 752 
Q 1469 391 1925 391 
Q 2381 391 2643 752 
Q 2906 1113 2906 1747 
Q 2906 2381 2643 2742 
Q 2381 3103 1925 3103 
Q 1469 3103 1208 2742 
Q 947 2381 947 1747 
z
" transform="scale(0.015625)"/>
       <path id="DejaVuSans-73" d="M 2834 3397 
L 2834 2853 
Q 2591 2978 2328 3040 
Q 2066 3103 1784 3103 
Q 1356 3103 1142 2972 
Q 928 2841 928 2578 
Q 928 2378 1081 2264 
Q 1234 2150 1697 2047 
L 1894 2003 
Q 2506 1872 2764 1633 
Q 3022 1394 3022 966 
Q 3022 478 2636 193 
Q 2250 -91 1575 -91 
Q 1294 -91 989 -36 
Q 684 19 347 128 
L 347 722 
Q 666 556 975 473 
Q 1284 391 1588 391 
Q 1994 391 2212 530 
Q 2431 669 2431 922 
Q 2431 1156 2273 1281 
Q 2116 1406 1581 1522 
L 1381 1569 
Q 847 1681 609 1914 
Q 372 2147 372 2553 
Q 372 3047 722 3315 
Q 1072 3584 1716 3584 
Q 2034 3584 2315 3537 
Q 2597 3491 2834 3397 
z
" transform="scale(0.015625)"/>
       <path id="DejaVuSans-28" d="M 1984 4856 
Q 1566 4138 1362 3434 
Q 1159 2731 1159 2009 
Q 1159 1288 1364 580 
Q 1569 -128 1984 -844 
L 1484 -844 
Q 1016 -109 783 600 
Q 550 1309 550 2009 
Q 550 2706 781 3412 
Q 1013 4119 1484 4856 
L 1984 4856 
z
" transform="scale(0.015625)"/>
       <path id="DejaVuSans-6b" d="M 581 4863 
L 1159 4863 
L 1159 1991 
L 2875 3500 
L 3609 3500 
L 1753 1863 
L 3688 0 
L 2938 0 
L 1159 1709 
L 1159 0 
L 581 0 
L 581 4863 
z
" transform="scale(0.015625)"/>
       <path id="DejaVuSans-67" d="M 2906 1791 
Q 2906 2416 2648 2759 
Q 2391 3103 1925 3103 
Q 1463 3103 1205 2759 
Q 947 2416 947 1791 
Q 947 1169 1205 825 
Q 1463 481 1925 481 
Q 2391 481 2648 825 
Q 2906 1169 2906 1791 
z
M 3481 434 
Q 3481 -459 3084 -895 
Q 2688 -1331 1869 -1331 
Q 1566 -1331 1297 -1286 
Q 1028 -1241 775 -1147 
L 775 -588 
Q 1028 -725 1275 -790 
Q 1522 -856 1778 -856 
Q 2344 -856 2625 -561 
Q 2906 -266 2906 331 
L 2906 616 
Q 2728 306 2450 153 
Q 2172 0 1784 0 
Q 1141 0 747 490 
Q 353 981 353 1791 
Q 353 2603 747 3093 
Q 1141 3584 1784 3584 
Q 2172 3584 2450 3431 
Q 2728 3278 2906 2969 
L 2906 3500 
L 3481 3500 
L 3481 434 
z
" transform="scale(0.015625)"/>
       <path id="DejaVuSans-29" d="M 513 4856 
L 1013 4856 
Q 1481 4119 1714 3412 
Q 1947 2706 1947 2009 
Q 1947 1309 1714 600 
Q 1481 -109 1013 -844 
L 513 -844 
Q 928 -128 1133 580 
Q 1338 1288 1338 2009 
Q 1338 2731 1133 3434 
Q 928 4138 513 4856 
z
" transform="scale(0.015625)"/>
      </defs>
      <use xlink:href="#DejaVuSans-43"/>
      <use xlink:href="#DejaVuSans-75" x="69.824219"/>
      <use xlink:href="#DejaVuSans-6d" x="133.203125"/>
      <use xlink:href="#DejaVuSans-75" x="230.615234"/>
      <use xlink:href="#DejaVuSans-6c" x="293.994141"/>
      <use xlink:href="#DejaVuSans-61" x="321.777344"/>
      <use xlink:href="#DejaVuSans-74" x="383.056641"/>
      <use xlink:href="#DejaVuSans-69" x="422.265625"/>
      <use xlink:href="#DejaVuSans-76" x="450.048828"/>
      <use xlink:href="#DejaVuSans-65" x="509.228516"/>
      <use xlink:href="#DejaVuSans-20" x="570.751953"/>
      <use xlink:href="#DejaVuSans-50" x="602.539062"/>
      <use xlink:href="#DejaVuSans-61" x="658.341797"/>
      <use xlink:href="#DejaVuSans-79" x="719.621094"/>
      <use xlink:href="#DejaVuSans-6c" x="778.800781"/>
      <use xlink:href="#DejaVuSans-6f" x="806.583984"/>
      <use xlink:href="#DejaVuSans-61" x="867.765625"/>
      <use xlink:href="#DejaVuSans-64" x="929.044922"/>
      <use xlink:href="#DejaVuSans-20" x="992.521484"/>
      <use xlink:href="#DejaVuSans-4d" x="1024.308594"/>
      <use xlink:href="#DejaVuSans-61" x="1110.587891"/>
      <use xlink:href="#DejaVuSans-73" x="1171.867188"/>
      <use xlink:href="#DejaVuSans-73" x="1223.966797"/>
      <use xlink:href="#DejaVuSans-20" x="1276.066406"/>
      <use xlink:href="#DejaVuSans-28" x="1307.853516"/>
      <use xlink:href="#DejaVuSans-6b" x="1346.867188"/>
      <use xlink:href="#DejaVuSans-67" x="1404.777344"/>
      <use xlink:href="#DejaVuSans-29" x="1468.253906"/>
     </g>
    </g>
   </g>
   <g id="line2d_29">
    <path d="M 106.728679 455.7 
L 127.839534 455.7 
L 127.839534 453.613016 
L 186.300363 453.613016 
L 186.300363 453.071704 
L 226.898161 453.071704 
L 226.898161 451.854297 
L 249.632927 451.854297 
L 249.632927 450.702107 
L 301.598109 450.702107 
L 301.598109 450.702107 
L 324.332876 450.702107 
L 324.332876 449.382525 
L 355.187202 449.382525 
L 355.187202 448.793821 
L 387.66544 448.793821 
L 387.66544 447.996202 
L 390.913264 447.996202 
L 390.913264 445.909218 
L 407.152383 445.909218 
L 407.152383 444.439415 
L 472.10886 444.439415 
L 472.10886 443.719841 
L 488.347979 443.719841 
L 488.347979 443.616578 
L 511.082746 443.616578 
L 511.082746 442.531781 
L 563.047927 442.531781 
L 563.047927 440.444797 
L 566.295751 440.444797 
L 566.295751 439.270868 
L 597.150078 439.270868 
L 597.150078 438.509989 
L 671.850026 438.509989 
L 671.850026 438.030634 
L 684.841321 438.030634 
L 684.841321 435.94365 
L 697.832617 435.94365 
L 697.832617 435.94365 
" clip-path="url(#p2c6cdb5a49)" style="fill: none; stroke: #808080; stroke-width: 1.5; stroke-linecap: square"/>
   </g>
   <g id="line2d_30">
    <path d="M 106.728679 455.7 
L 118.096062 455.7 
L 118.096062 455.7 
L 155.446036 455.7 
L 155.446036 454.780423 
L 165.189508 454.780423 
L 165.189508 454.50868 
L 191.172098 454.50868 
L 191.172098 454.041282 
L 210.659041 454.041282 
L 210.659041 452.716917 
L 249.632927 452.716917 
L 249.632927 450.629933 
L 254.504663 450.629933 
L 254.504663 450.05449 
L 280.487254 450.05449 
L 280.487254 449.975793 
L 317.837228 449.975793 
L 317.837228 449.193174 
L 335.700259 449.193174 
L 335.700259 447.788808 
L 356.811114 447.788808 
L 356.811114 446.618357 
L 397.408912 446.618357 
L 397.408912 446.032045 
L 434.758886 446.032045 
L 434.758886 444.493981 
L 439.630622 444.493981 
L 439.630622 442.406997 
L 460.741477 442.406997 
L 460.741477 441.146111 
L 515.954482 441.146111 
L 515.954482 439.611308 
L 561.424016 439.611308 
L 561.424016 438.959125 
L 623.132668 438.959125 
L 623.132668 437.806936 
L 652.363083 437.806936 
L 652.363083 436.937359 
L 655.610907 436.937359 
L 655.610907 436.393874 
L 684.841321 436.393874 
L 684.841321 435.437339 
L 697.832617 435.437339 
L 697.832617 435.437339 
" clip-path="url(#p2c6cdb5a49)" style="fill: none; stroke: #90ee90; stroke-width: 1.5; stroke-linecap: square"/>
   </g>
   <g id="line2d_31">
    <path d="M 106.728679 455.7 
L 122.967798 455.7 
L 122.967798 453.613016 
L 191.172098 453.613016 
L 191.172098 452.558654 
L 204.163394 452.558654 
L 204.163394 449.937967 
L 269.11987 449.937967 
L 269.11987 448.532513 
L 306.469845 448.532513 
L 306.469845 447.990115 
L 338.948083 447.990115 
L 338.948083 445.029206 
L 369.802409 445.029206 
L 369.802409 444.11615 
L 390.913264 444.11615 
L 390.913264 443.311792 
L 439.630622 443.311792 
L 439.630622 442.818742 
L 459.117565 442.818742 
L 459.117565 441.405679 
L 616.637021 441.405679 
L 616.637021 438.01433 
L 655.610907 438.01433 
L 655.610907 437.445409 
L 675.09785 437.445409 
L 675.09785 435.933215 
L 697.832617 435.933215 
L 697.832617 435.933215 
" clip-path="url(#p2c6cdb5a49)" style="fill: none; stroke: #add8e6; stroke-width: 1.5; stroke-linecap: square"/>
   </g>
   <g id="line2d_32">
    <path d="M 106.728679 455.7 
L 116.47215 455.7 
L 116.47215 452.308651 
L 135.959093 452.308651 
L 135.959093 449.68905 
L 152.198212 449.68905 
L 152.198212 446.297701 
L 183.052539 446.297701 
L 183.052539 442.906351 
L 213.906865 442.906351 
L 213.906865 442.476563 
L 231.769896 442.476563 
L 231.769896 439.085214 
L 288.606813 439.085214 
L 288.606813 435.693864 
L 350.315466 435.693864 
L 350.315466 432.969915 
L 358.435026 432.969915 
L 358.435026 429.578565 
L 373.050233 429.578565 
L 373.050233 426.228521 
L 400.656736 426.228521 
L 400.656736 425.291334 
L 433.134974 425.291334 
L 433.134974 424.095666 
L 462.365389 424.095666 
L 462.365389 420.849536 
L 480.22842 420.849536 
L 480.22842 417.49297 
L 499.715363 417.49297 
L 499.715363 416.812526 
L 506.21101 416.812526 
L 506.21101 413.421177 
L 559.800104 413.421177 
L 559.800104 410.029827 
L 579.287047 410.029827 
L 579.287047 406.638478 
L 589.030518 406.638478 
L 589.030518 403.247128 
L 608.517461 403.247128 
L 608.517461 402.309942 
L 626.380492 402.309942 
L 626.380492 399.592514 
L 634.500052 399.592514 
L 634.500052 399.33338 
L 640.995699 399.33338 
L 640.995699 395.942031 
L 658.858731 395.942031 
L 658.858731 395.295935 
L 670.226114 395.295935 
L 670.226114 393.774176 
L 679.969585 393.774176 
L 679.969585 393.774176 
L 699.456528 393.774176 
L 699.456528 393.774176 
" clip-path="url(#p2c6cdb5a49)" style="fill: none; stroke: #ffc0cb; stroke-width: 1.5; stroke-linecap: square"/>
   </g>
   <g id="line2d_33">
    <path d="M 106.728679 455.7 
L 118.096062 455.7 
L 118.096062 454.93912 
L 137.583005 454.93912 
L 137.583005 451.547771 
L 144.078653 451.547771 
L 144.078653 450.4608 
L 161.941684 450.4608 
L 161.941684 447.06945 
L 181.428627 447.06945 
L 181.428627 443.678101 
L 207.411218 443.678101 
L 207.411218 440.286751 
L 218.778601 440.286751 
L 218.778601 436.895402 
L 223.650337 436.895402 
L 223.650337 433.504052 
L 239.889456 433.504052 
L 239.889456 430.112703 
L 262.624223 430.112703 
L 262.624223 426.721353 
L 288.606813 426.721353 
L 288.606813 423.895229 
L 298.350285 423.895229 
L 298.350285 420.503879 
L 306.469845 420.503879 
L 306.469845 417.11253 
L 314.589404 417.11253 
L 314.589404 413.72118 
L 324.332876 413.72118 
L 324.332876 410.364614 
L 342.195907 410.364614 
L 342.195907 406.973265 
L 355.187202 406.973265 
L 355.187202 406.249777 
L 360.058938 406.249777 
L 360.058938 404.728017 
L 377.921969 404.728017 
L 377.921969 403.786483 
L 399.032824 403.786483 
L 399.032824 403.786483 
L 496.467539 403.786483 
L 496.467539 403.308216 
L 522.45013 403.308216 
L 522.45013 400.425569 
L 525.697953 400.425569 
L 525.697953 397.704011 
L 616.637021 397.704011 
L 616.637021 394.877886 
L 619.884845 394.877886 
L 619.884845 391.478928 
L 637.747876 391.478928 
L 637.747876 391.343274 
L 650.739171 391.343274 
L 650.739171 388.191058 
L 662.106554 388.191058 
L 662.106554 388.120405 
L 676.721762 388.120405 
L 676.721762 384.729056 
L 678.345674 384.729056 
L 678.345674 383.750782 
L 681.593497 383.750782 
L 681.593497 383.10099 
L 697.832617 383.10099 
L 697.832617 383.10099 
" clip-path="url(#p2c6cdb5a49)" style="fill: none; stroke: #800080; stroke-width: 1.5; stroke-linecap: square"/>
   </g>
   <g id="line2d_34">
    <path d="M 106.728679 455.7 
L 114.848238 455.7 
L 114.848238 452.547784 
L 126.215622 452.547784 
L 126.215622 452.547784 
L 135.959093 452.547784 
L 135.959093 449.395568 
L 155.446036 449.395568 
L 155.446036 448.916214 
L 158.69386 448.916214 
L 158.69386 448.916214 
L 160.317772 448.916214 
L 160.317772 445.763998 
L 189.548187 445.763998 
L 189.548187 442.807437 
L 196.043834 442.807437 
L 196.043834 439.600873 
L 205.787306 439.600873 
L 205.787306 436.579093 
L 215.530777 436.579093 
L 215.530777 433.500792 
L 231.769896 433.500792 
L 231.769896 429.968136 
L 252.880751 429.968136 
L 252.880751 429.968136 
L 264.248135 429.968136 
L 264.248135 427.142011 
L 278.863342 427.142011 
L 278.863342 427.142011 
L 285.35899 427.142011 
L 285.35899 423.609356 
L 295.102461 423.609356 
L 295.102461 420.783231 
L 298.350285 420.783231 
L 298.350285 417.250575 
L 309.717668 417.250575 
L 309.717668 413.71792 
L 321.085052 413.71792 
L 321.085052 410.185264 
L 322.708964 410.185264 
L 322.708964 406.652608 
L 329.204611 406.652608 
L 329.204611 403.119952 
L 340.571995 403.119952 
L 340.571995 403.119952 
L 363.306762 403.119952 
L 363.306762 402.228636 
L 377.921969 402.228636 
L 377.921969 398.695981 
L 379.545881 398.695981 
L 379.545881 397.826404 
L 381.169793 397.826404 
L 381.169793 397.674228 
L 397.408912 397.674228 
L 397.408912 396.913348 
L 410.400207 396.913348 
L 410.400207 393.380692 
L 416.895855 393.380692 
L 416.895855 390.315434 
L 423.391503 390.315434 
L 423.391503 389.735427 
L 426.639326 389.735427 
L 426.639326 386.202771 
L 434.758886 386.202771 
L 434.758886 383.137513 
L 438.00671 383.137513 
L 438.00671 379.604857 
L 455.869741 379.604857 
L 455.869741 379.457246 
L 465.613212 379.457246 
L 465.613212 375.978939 
L 468.861036 375.978939 
L 468.861036 372.913681 
L 480.22842 372.913681 
L 480.22842 369.381025 
L 494.843627 369.381025 
L 494.843627 365.750542 
L 499.715363 365.750542 
L 499.715363 362.663545 
L 507.834922 362.663545 
L 507.834922 359.185237 
L 517.578394 359.185237 
L 517.578394 356.589985 
L 530.569689 356.589985 
L 530.569689 352.959502 
L 538.689249 352.959502 
L 538.689249 349.459456 
L 556.55228 349.459456 
L 556.55228 346.633331 
L 556.55228 346.633331 
L 556.55228 343.133285 
L 561.424016 343.133285 
L 561.424016 341.535437 
L 572.791399 341.535437 
L 572.791399 340.557163 
L 580.910959 340.557163 
L 580.910959 336.92668 
L 593.902254 336.92668 
L 593.902254 333.361415 
L 600.397902 333.361415 
L 600.397902 332.546187 
L 603.645725 332.546187 
L 603.645725 331.567913 
L 618.260933 331.567913 
L 618.260933 330.133112 
L 636.123964 330.133112 
L 636.123964 328.937444 
L 640.995699 328.937444 
L 640.995699 328.170477 
L 660.482642 328.170477 
L 660.482642 326.866112 
L 665.354378 326.866112 
L 665.354378 326.648717 
L 673.473938 326.648717 
L 673.473938 326.17045 
L 673.473938 326.17045 
L 673.473938 325.279134 
L 675.09785 325.279134 
L 675.09785 321.648651 
L 692.960881 321.648651 
L 692.960881 318.018168 
L 696.208705 318.018168 
L 696.208705 317.93121 
L 697.832617 317.93121 
L 697.832617 317.93121 
" clip-path="url(#p2c6cdb5a49)" style="fill: none; stroke: #ffa500; stroke-width: 1.5; stroke-linecap: square"/>
   </g>
   <g id="line2d_35">
    <path d="M 106.728679 455.7 
L 121.343886 455.7 
L 121.343886 454.395635 
L 129.463446 454.395635 
L 129.463446 453.580407 
L 134.335181 453.580407 
L 134.335181 452.634307 
L 135.959093 452.634307 
L 135.959093 449.373394 
L 147.326477 449.373394 
L 147.326477 445.590735 
L 155.446036 445.590735 
L 155.446036 442.286343 
L 158.69386 442.286343 
L 158.69386 438.699339 
L 166.81342 438.699339 
L 166.81342 437.798023 
L 174.932979 437.798023 
L 174.932979 434.080582 
L 183.052539 434.080582 
L 183.052539 430.624014 
L 184.676451 430.624014 
L 184.676451 429.434868 
L 199.291658 429.434868 
L 199.291658 426.108737 
L 204.163394 426.108737 
L 204.163394 423.282612 
L 205.787306 423.282612 
L 205.787306 419.826044 
L 215.530777 419.826044 
L 215.530777 418.521679 
L 225.274249 418.521679 
L 225.274249 417.901671 
L 228.522073 417.901671 
L 228.522073 412.858126 
L 239.889456 412.858126 
L 239.889456 409.075467 
L 248.009016 409.075467 
L 248.009016 405.292807 
L 262.624223 405.292807 
L 262.624223 404.078009 
L 282.111166 404.078009 
L 282.111166 400.751877 
L 295.102461 400.751877 
L 295.102461 397.686619 
L 296.726373 397.686619 
L 296.726373 396.795303 
L 301.598109 396.795303 
L 301.598109 395.40398 
L 306.469845 395.40398 
L 306.469845 391.621321 
L 316.213316 391.621321 
L 316.213316 388.164753 
L 322.708964 388.164753 
L 322.708964 384.382094 
L 330.828523 384.382094 
L 330.828523 380.882048 
L 332.452435 380.882048 
L 332.452435 379.447246 
L 334.076347 379.447246 
L 334.076347 376.621122 
L 343.819819 376.621122 
L 343.819819 375.642848 
L 350.315466 375.642848 
L 350.315466 372.077583 
L 356.811114 372.077583 
L 356.811114 368.577536 
L 358.435026 368.577536 
L 358.435026 367.859266 
L 369.802409 367.859266 
L 369.802409 364.294001 
L 369.802409 364.294001 
L 379.545881 364.294001 
L 379.545881 363.298336 
L 386.041528 363.298336 
L 386.041528 360.14612 
L 387.66544 360.14612 
L 387.66544 356.363461 
L 400.656736 356.363461 
L 400.656736 355.893889 
L 410.400207 355.893889 
L 410.400207 352.654716 
L 415.271943 352.654716 
L 415.271943 349.154669 
L 425.015415 349.154669 
L 425.015415 345.524186 
L 431.511062 345.524186 
L 431.511062 342.915456 
L 438.00671 342.915456 
L 438.00671 339.415409 
L 444.502358 339.415409 
L 444.502358 335.915362 
L 446.126269 335.915362 
L 446.126269 333.915336 
L 454.245829 333.915336 
L 454.245829 332.814669 
L 460.741477 332.814669 
L 460.741477 329.314622 
L 462.365389 329.314622 
L 462.365389 326.705892 
L 467.237124 326.705892 
L 467.237124 323.205846 
L 476.980596 323.205846 
L 476.980596 319.705799 
L 485.100155 319.705799 
L 485.100155 316.379668 
L 491.595803 316.379668 
L 491.595803 313.553543 
L 493.219715 313.553543 
L 493.219715 310.053497 
L 501.339275 310.053497 
L 501.339275 306.55345 
L 506.21101 306.55345 
L 506.21101 303.227319 
L 514.33057 303.227319 
L 514.33057 299.727272 
L 519.202306 299.727272 
L 519.202306 296.401141 
L 525.697953 296.401141 
L 525.697953 292.901094 
L 532.193601 292.901094 
L 532.193601 289.401048 
L 538.689249 289.401048 
L 538.689249 285.901001 
L 540.313161 285.901001 
L 540.313161 282.57487 
L 548.43272 282.57487 
L 548.43272 279.074823 
L 556.55228 279.074823 
L 556.55228 275.574777 
L 563.047927 275.574777 
L 563.047927 272.248646 
L 569.543575 272.248646 
L 569.543575 268.181635 
L 577.663135 268.181635 
L 577.663135 264.681588 
L 582.53487 264.681588 
L 582.53487 261.355457 
L 584.158782 261.355457 
L 584.158782 257.703235 
L 595.526166 257.703235 
L 595.526166 254.203188 
L 597.150078 254.203188 
L 597.150078 250.550966 
L 605.269637 250.550966 
L 605.269637 246.898743 
L 611.765285 246.898743 
L 611.765285 243.246521 
L 615.013109 243.246521 
L 615.013109 241.175841 
L 618.260933 241.175841 
L 618.260933 240.284525 
L 628.004404 240.284525 
L 628.004404 236.632302 
L 628.004404 236.632302 
L 631.252228 236.632302 
L 631.252228 233.132256 
L 634.500052 233.132256 
L 634.500052 229.480033 
L 644.243523 229.480033 
L 644.243523 225.827811 
L 649.115259 225.827811 
L 649.115259 225.653895 
L 652.363083 225.653895 
L 652.363083 222.001673 
L 658.858731 222.001673 
L 658.858731 218.34945 
L 660.482642 218.34945 
L 660.482642 214.849404 
L 678.345674 214.849404 
L 678.345674 211.197181 
L 684.841321 211.197181 
L 684.841321 207.544959 
L 686.465233 207.544959 
L 686.465233 206.762339 
L 694.584793 206.762339 
L 694.584793 201.729664 
L 697.832617 201.729664 
L 697.832617 201.729664 
" clip-path="url(#p2c6cdb5a49)" style="fill: none; stroke: #0000ff; stroke-width: 1.5; stroke-linecap: square"/>
   </g>
   <g id="line2d_36">
    <path d="M 106.728679 455.7 
L 109.976503 455.7 
L 109.976503 451.656468 
L 116.47215 451.656468 
L 116.47215 447.939027 
L 127.839534 447.939027 
L 127.839534 444.308544 
L 129.463446 444.308544 
L 129.463446 440.591103 
L 134.335181 440.591103 
L 134.335181 437.764979 
L 144.078653 437.764979 
L 144.078653 434.134496 
L 152.198212 434.134496 
L 152.198212 426.786572 
L 153.822124 426.786572 
L 153.822124 425.976561 
L 168.437332 425.976561 
L 168.437332 425.608295 
L 171.685155 425.608295 
L 171.685155 421.977812 
L 179.804715 421.977812 
L 179.804715 417.927541 
L 187.924275 417.927541 
L 187.924275 417.057964 
L 192.79601 417.057964 
L 192.79601 413.427481 
L 196.043834 413.427481 
L 196.043834 409.623082 
L 202.539482 409.623082 
L 202.539482 405.905642 
L 209.03513 405.905642 
L 209.03513 399.362076 
L 218.778601 399.362076 
L 218.778601 395.644636 
L 220.402513 395.644636 
L 220.402513 391.927195 
L 228.522073 391.927195 
L 228.522073 388.209754 
L 233.393808 388.209754 
L 233.393808 384.666229 
L 236.641632 384.666229 
L 236.641632 384.074699 
L 241.513368 384.074699 
L 241.513368 380.357258 
L 243.13728 380.357258 
L 243.13728 376.639817 
L 251.256839 376.639817 
L 251.256839 375.552846 
L 252.880751 375.552846 
L 252.880751 371.835406 
L 256.128575 371.835406 
L 256.128575 368.204923 
L 261.000311 368.204923 
L 261.000311 364.487482 
L 264.248135 364.487482 
L 264.248135 360.835259 
L 264.248135 360.835259 
L 269.11987 360.835259 
L 269.11987 357.117819 
L 270.743782 357.117819 
L 270.743782 356.856946 
L 273.991606 356.856946 
L 273.991606 353.139505 
L 280.487254 353.139505 
L 280.487254 349.422064 
L 282.111166 349.422064 
L 282.111166 345.704623 
L 290.230725 345.704623 
L 290.230725 341.987182 
L 298.350285 341.987182 
L 298.350285 337.921911 
L 304.845933 337.921911 
L 304.845933 337.59582 
L 306.469845 337.59582 
L 306.469845 333.878379 
L 311.34158 333.878379 
L 311.34158 330.160938 
L 314.589404 330.160938 
L 314.589404 326.443497 
L 317.837228 326.443497 
L 317.837228 322.899972 
L 322.708964 322.899972 
L 322.708964 319.182531 
L 324.332876 319.182531 
L 324.332876 315.639006 
L 330.828523 315.639006 
L 330.828523 311.921565 
L 338.948083 311.921565 
L 338.948083 308.204124 
L 340.571995 308.204124 
L 340.571995 304.486683 
L 347.067642 304.486683 
L 347.067642 300.258366 
L 353.56329 300.258366 
L 353.56329 296.540925 
L 360.058938 296.540925 
L 360.058938 292.9974 
L 364.930674 292.9974 
L 364.930674 285.823392 
L 382.793705 285.823392 
L 382.793705 282.279866 
L 384.417617 282.279866 
L 384.417617 281.192895 
L 389.289352 281.192895 
L 389.289352 277.562412 
L 390.913264 277.562412 
L 390.913264 274.018887 
L 392.537176 274.018887 
L 392.537176 272.931916 
L 395.785 272.931916 
L 395.785 269.214475 
L 405.528472 269.214475 
L 405.528472 265.670949 
L 413.648031 265.670949 
L 413.648031 264.747024 
L 444.502358 264.747024 
L 444.502358 261.029583 
L 446.126269 261.029583 
L 446.126269 253.725138 
L 454.245829 253.725138 
L 454.245829 250.007698 
L 457.493653 250.007698 
L 457.493653 245.451767 
L 467.237124 245.451767 
L 467.237124 241.864763 
L 470.484948 241.864763 
L 470.484948 236.575562 
L 475.356684 236.575562 
L 475.356684 236.249471 
L 483.476244 236.249471 
L 483.476244 232.618988 
L 496.467539 232.618988 
L 496.467539 228.988505 
L 501.339275 228.988505 
L 501.339275 221.727539 
L 509.458834 221.727539 
L 509.458834 218.097055 
L 517.578394 218.097055 
L 517.578394 215.270931 
L 520.826218 215.270931 
L 520.826218 213.640474 
L 522.45013 213.640474 
L 522.45013 210.009991 
L 528.945777 210.009991 
L 528.945777 209.662161 
L 533.817513 209.662161 
L 533.817513 206.118635 
L 541.937073 206.118635 
L 541.937073 202.57511 
L 546.808808 202.57511 
L 546.808808 199.748985 
L 561.424016 199.748985 
L 561.424016 199.508112 
L 572.791399 199.508112 
L 572.791399 198.189617 
L 574.415311 198.189617 
L 574.415311 190.92865 
L 579.287047 190.92865 
L 579.287047 187.385125 
L 582.53487 187.385125 
L 582.53487 186.742943 
L 587.406606 186.742943 
L 587.406606 183.025502 
L 592.278342 183.025502 
L 592.278342 179.395019 
L 598.77399 179.395019 
L 598.77399 172.134053 
L 608.517461 172.134053 
L 608.517461 171.53361 
L 611.765285 171.53361 
L 611.765285 167.816169 
L 615.013109 167.816169 
L 615.013109 164.272644 
L 618.260933 164.272644 
L 618.260933 159.707365 
L 623.132668 159.707365 
L 623.132668 152.359442 
L 628.004404 152.359442 
L 628.004404 151.489865 
L 629.628316 151.489865 
L 629.628316 146.924587 
L 634.500052 146.924587 
L 634.500052 143.120188 
L 639.371788 143.120188 
L 639.371788 139.576663 
L 640.995699 139.576663 
L 640.995699 135.859222 
L 644.243523 135.859222 
L 644.243523 132.054824 
L 649.115259 132.054824 
L 649.115259 124.750378 
L 655.610907 124.750378 
L 655.610907 120.94598 
L 657.234819 120.94598 
L 657.234819 115.880695 
L 662.106554 115.880695 
L 662.106554 112.163254 
L 670.226114 112.163254 
L 670.226114 108.532771 
L 676.721762 108.532771 
L 676.721762 106.847966 
L 683.217409 106.847966 
L 683.217409 106.674051 
L 686.465233 106.674051 
L 686.465233 103.087047 
L 696.208705 103.087047 
L 696.208705 99.108733 
L 699.456528 99.108733 
L 699.456528 99.108733 
L 699.456528 95.521729 
L 699.456528 95.521729 
" clip-path="url(#p2c6cdb5a49)" style="fill: none; stroke: #008000; stroke-width: 1.5; stroke-linecap: square"/>
   </g>
   <g id="line2d_37">
    <path d="M 106.728679 455.7 
L 111.600415 455.7 
L 111.600415 454.613029 
L 114.848238 454.613029 
L 114.848238 450.808631 
L 118.096062 450.808631 
L 118.096062 447.221626 
L 121.343886 447.221626 
L 121.343886 447.221626 
L 121.343886 443.634622 
L 126.215622 443.634622 
L 126.215622 440.047618 
L 127.839534 440.047618 
L 127.839534 439.612829 
L 129.463446 439.612829 
L 129.463446 439.065648 
L 139.206917 439.065648 
L 139.206917 432.369907 
L 144.078653 432.369907 
L 144.078653 428.652466 
L 148.950389 428.652466 
L 148.950389 425.065462 
L 153.822124 425.065462 
L 153.822124 423.739357 
L 157.069948 423.739357 
L 157.069948 420.108874 
L 161.941684 420.108874 
L 161.941684 416.195779 
L 168.437332 416.195779 
L 168.437332 412.608774 
L 173.309067 412.608774 
L 173.309067 405.304329 
L 179.804715 405.304329 
L 179.804715 401.717325 
L 184.676451 401.717325 
L 184.676451 397.999884 
L 189.548187 397.999884 
L 189.548187 394.282444 
L 192.79601 394.282444 
L 192.79601 390.630221 
L 199.291658 390.630221 
L 199.291658 390.630221 
L 199.291658 387.043217 
L 205.787306 387.043217 
L 205.787306 383.456213 
L 220.402513 383.456213 
L 220.402513 383.291428 
L 222.026425 383.291428 
L 222.026425 379.704423 
L 223.650337 379.704423 
L 223.650337 376.878299 
L 225.274249 376.878299 
L 225.274249 376.878299 
L 225.274249 373.160858 
L 230.145984 373.160858 
L 230.145984 369.443417 
L 243.13728 369.443417 
L 243.13728 366.073807 
L 251.256839 366.073807 
L 251.256839 362.573761 
L 252.880751 362.573761 
L 252.880751 359.747636 
L 257.752487 359.747636 
L 257.752487 356.378026 
L 261.000311 356.378026 
L 261.000311 352.87798 
L 262.624223 352.87798 
L 262.624223 349.508369 
L 272.367694 349.508369 
L 272.367694 345.921365 
L 273.991606 345.921365 
L 273.991606 342.551755 
L 285.35899 342.551755 
L 285.35899 341.895007 
L 291.854637 341.895007 
L 291.854637 338.394961 
L 296.726373 338.394961 
L 296.726373 331.30791 
L 298.350285 331.30791 
L 298.350285 327.590469 
L 303.222021 327.590469 
L 303.222021 324.090423 
L 306.469845 324.090423 
L 306.469845 320.465374 
L 311.34158 320.465374 
L 311.34158 316.965328 
L 316.213316 316.965328 
L 316.213316 310.215238 
L 321.085052 310.215238 
L 321.085052 303.465148 
L 322.708964 303.465148 
L 322.708964 299.965101 
L 325.956788 299.965101 
L 325.956788 296.715058 
L 334.076347 296.715058 
L 334.076347 292.997617 
L 337.324171 292.997617 
L 337.324171 289.628007 
L 338.948083 289.628007 
L 338.948083 285.910567 
L 343.819819 285.910567 
L 343.819819 282.106168 
L 343.819819 282.106168 
L 345.443731 282.106168 
L 345.443731 278.736558 
L 348.691554 278.736558 
L 348.691554 277.790893 
L 350.315466 277.790893 
L 350.315466 274.421283 
L 355.187202 274.421283 
L 355.187202 270.703843 
L 356.811114 270.703843 
L 356.811114 267.334232 
L 361.68285 267.334232 
L 361.68285 265.94291 
L 363.306762 265.94291 
L 363.306762 262.692866 
L 366.554585 262.692866 
L 366.554585 258.975426 
L 371.426321 258.975426 
L 371.426321 252.007942 
L 377.921969 252.007942 
L 377.921969 248.757898 
L 379.545881 248.757898 
L 379.545881 245.257852 
L 387.66544 245.257852 
L 387.66544 241.888242 
L 387.66544 241.888242 
L 390.913264 241.888242 
L 390.913264 235.692507 
L 395.785 235.692507 
L 395.785 229.072854 
L 400.656736 229.072854 
L 400.656736 228.246756 
L 402.280648 228.246756 
L 402.280648 224.877146 
L 412.024119 224.877146 
L 412.024119 221.377099 
L 420.143679 221.377099 
L 420.143679 220.507522 
L 425.015415 220.507522 
L 425.015415 214.043523 
L 429.88715 214.043523 
L 429.88715 210.239125 
L 434.758886 210.239125 
L 434.758886 209.499985 
L 436.382798 209.499985 
L 436.382798 209.299982 
L 441.254534 209.299982 
L 441.254534 205.799935 
L 442.878446 205.799935 
L 442.878446 201.995537 
L 447.750181 201.995537 
L 447.750181 198.49549 
L 449.374093 198.49549 
L 449.374093 195.438928 
L 450.998005 195.438928 
L 450.998005 192.612803 
L 455.869741 192.612803 
L 455.869741 189.112757 
L 467.237124 189.112757 
L 467.237124 185.898801 
L 472.10886 185.898801 
L 472.10886 178.594356 
L 478.604508 178.594356 
L 478.604508 174.789957 
L 485.100155 174.789957 
L 485.100155 169.900762 
L 488.347979 169.900762 
L 488.347979 169.400755 
L 491.595803 169.400755 
L 491.595803 165.624618 
L 493.219715 165.624618 
L 493.219715 162.124572 
L 494.843627 162.124572 
L 494.843627 158.624525 
L 498.091451 158.624525 
L 498.091451 154.820126 
L 499.715363 154.820126 
L 499.715363 151.32008 
L 504.587098 151.32008 
L 504.587098 144.015635 
L 507.834922 144.015635 
L 507.834922 140.515588 
L 509.458834 140.515588 
L 509.458834 136.71119 
L 519.202306 136.71119 
L 519.202306 135.015515 
L 520.826218 135.015515 
L 520.826218 131.211117 
L 522.45013 131.211117 
L 522.45013 130.124146 
L 528.945777 130.124146 
L 528.945777 126.624099 
L 530.569689 126.624099 
L 530.569689 122.819701 
L 533.817513 122.819701 
L 533.817513 119.319654 
L 538.689249 119.319654 
L 538.689249 118.998563 
L 540.313161 118.998563 
L 540.313161 115.498516 
L 541.937073 115.498516 
L 541.937073 111.694118 
L 546.808808 111.694118 
L 546.808808 108.194071 
L 553.304456 108.194071 
L 553.304456 104.694025 
L 559.800104 104.694025 
L 559.800104 101.193978 
L 561.424016 101.193978 
L 561.424016 97.693931 
L 569.543575 97.693931 
L 569.543575 94.215624 
L 571.167487 94.215624 
L 571.167487 91.001669 
L 574.415311 91.001669 
L 574.415311 87.501622 
L 579.287047 87.501622 
L 579.287047 80.501529 
L 584.158782 80.501529 
L 584.158782 77.001482 
L 587.406606 77.001482 
L 587.406606 75.675378 
L 589.030518 75.675378 
L 589.030518 72.175331 
L 590.65443 72.175331 
L 590.65443 68.675284 
L 593.902254 68.675284 
L 593.902254 65.175238 
L 595.526166 65.175238 
L 595.526166 61.55019 
L 598.77399 61.55019 
L 598.77399 58.050143 
L 608.517461 58.050143 
L 608.517461 50.925048 
L 613.389197 50.925048 
L 613.389197 50.925048 
L 613.389197 47.3 
L 613.389197 47.3 
" clip-path="url(#p2c6cdb5a49)" style="fill: none; stroke: #ff0000; stroke-width: 1.5; stroke-linecap: square"/>
   </g>
   <g id="patch_3">
    <path d="M 82.37 476.12 
L 82.37 26.88 
" style="fill: none; stroke: #000000; stroke-width: 0.8; stroke-linejoin: miter; stroke-linecap: square"/>
   </g>
   <g id="patch_4">
    <path d="M 709.2 476.12 
L 709.2 26.88 
" style="fill: none; stroke: #000000; stroke-width: 0.8; stroke-linejoin: miter; stroke-linecap: square"/>
   </g>
   <g id="patch_5">
    <path d="M 82.37 476.12 
L 709.2 476.12 
" style="fill: none; stroke: #000000; stroke-width: 0.8; stroke-linejoin: miter; stroke-linecap: square"/>
   </g>
   <g id="patch_6">
    <path d="M 82.37 26.88 
L 709.2 26.88 
" style="fill: none; stroke: #000000; stroke-width: 0.8; stroke-linejoin: miter; stroke-linecap: square"/>
   </g>
   <g id="text_16">
    <!-- Cumulative Payload Mass to Orbit By Year -->
    <g transform="translate(270.179688 20.88) scale(0.12 -0.12)">
     <defs>
      <path id="DejaVuSans-4f" d="M 2522 4238 
Q 1834 4238 1429 3725 
Q 1025 3213 1025 2328 
Q 1025 1447 1429 934 
Q 1834 422 2522 422 
Q 3209 422 3611 934 
Q 4013 1447 4013 2328 
Q 4013 3213 3611 3725 
Q 3209 4238 2522 4238 
z
M 2522 4750 
Q 3503 4750 4090 4092 
Q 4678 3434 4678 2328 
Q 4678 1225 4090 567 
Q 3503 -91 2522 -91 
Q 1538 -91 948 565 
Q 359 1222 359 2328 
Q 359 3434 948 4092 
Q 1538 4750 2522 4750 
z
" transform="scale(0.015625)"/>
      <path id="DejaVuSans-62" d="M 3116 1747 
Q 3116 2381 2855 2742 
Q 2594 3103 2138 3103 
Q 1681 3103 1420 2742 
Q 1159 2381 1159 1747 
Q 1159 1113 1420 752 
Q 1681 391 2138 391 
Q 2594 391 2855 752 
Q 3116 1113 3116 1747 
z
M 1159 2969 
Q 1341 3281 1617 3432 
Q 1894 3584 2278 3584 
Q 2916 3584 3314 3078 
Q 3713 2572 3713 1747 
Q 3713 922 3314 415 
Q 2916 -91 2278 -91 
Q 1894 -91 1617 61 
Q 1341 213 1159 525 
L 1159 0 
L 581 0 
L 581 4863 
L 1159 4863 
L 1159 2969 
z
" transform="scale(0.015625)"/>
      <path id="DejaVuSans-42" d="M 1259 2228 
L 1259 519 
L 2272 519 
Q 2781 519 3026 730 
Q 3272 941 3272 1375 
Q 3272 1813 3026 2020 
Q 2781 2228 2272 2228 
L 1259 2228 
z
M 1259 4147 
L 1259 2741 
L 2194 2741 
Q 2656 2741 2882 2914 
Q 3109 3088 3109 3444 
Q 3109 3797 2882 3972 
Q 2656 4147 2194 4147 
L 1259 4147 
z
M 628 4666 
L 2241 4666 
Q 2963 4666 3353 4366 
Q 3744 4066 3744 3513 
Q 3744 3084 3544 2831 
Q 3344 2578 2956 2516 
Q 3422 2416 3680 2098 
Q 3938 1781 3938 1306 
Q 3938 681 3513 340 
Q 3088 0 2303 0 
L 628 0 
L 628 4666 
z
" transform="scale(0.015625)"/>
      <path id="DejaVuSans-59" d="M -13 4666 
L 666 4666 
L 1959 2747 
L 3244 4666 
L 3922 4666 
L 2272 2222 
L 2272 0 
L 1638 0 
L 1638 2222 
L -13 4666 
z
" transform="scale(0.015625)"/>
     </defs>
     <use xlink:href="#DejaVuSans-43"/>
     <use xlink:href="#DejaVuSans-75" x="69.824219"/>
     <use xlink:href="#DejaVuSans-6d" x="133.203125"/>
     <use xlink:href="#DejaVuSans-75" x="230.615234"/>
     <use xlink:href="#DejaVuSans-6c" x="293.994141"/>
     <use xlink:href="#DejaVuSans-61" x="321.777344"/>
     <use xlink:href="#DejaVuSans-74" x="383.056641"/>
     <use xlink:href="#DejaVuSans-69" x="422.265625"/>
     <use xlink:href="#DejaVuSans-76" x="450.048828"/>
     <use xlink:href="#DejaVuSans-65" x="509.228516"/>
     <use xlink:href="#DejaVuSans-20" x="570.751953"/>
     <use xlink:href="#DejaVuSans-50" x="602.539062"/>
     <use xlink:href="#DejaVuSans-61" x="658.341797"/>
     <use xlink:href="#DejaVuSans-79" x="719.621094"/>
     <use xlink:href="#DejaVuSans-6c" x="778.800781"/>
     <use xlink:href="#DejaVuSans-6f" x="806.583984"/>
     <use xlink:href="#DejaVuSans-61" x="867.765625"/>
     <use xlink:href="#DejaVuSans-64" x="929.044922"/>
     <use xlink:href="#DejaVuSans-20" x="992.521484"/>
     <use xlink:href="#DejaVuSans-4d" x="1024.308594"/>
     <use xlink:href="#DejaVuSans-61" x="1110.587891"/>
     <use xlink:href="#DejaVuSans-73" x="1171.867188"/>
     <use xlink:href="#DejaVuSans-73" x="1223.966797"/>
     <use xlink:href="#DejaVuSans-20" x="1276.066406"/>
     <use xlink:href="#DejaVuSans-74" x="1307.853516"/>
     <use xlink:href="#DejaVuSans-6f" x="1347.0625"/>
     <use xlink:href="#DejaVuSans-20" x="1408.244141"/>
     <use xlink:href="#DejaVuSans-4f" x="1440.03125"/>
     <use xlink:href="#DejaVuSans-72" x="1518.742188"/>
     <use xlink:href="#DejaVuSans-62" x="1559.855469"/>
     <use xlink:href="#DejaVuSans-69" x="1623.332031"/>
     <use xlink:href="#DejaVuSans-74" x="1651.115234"/>
     <use xlink:href="#DejaVuSans-20" x="1690.324219"/>
     <use xlink:href="#DejaVuSans-42" x="1722.111328"/>
     <use xlink:href="#DejaVuSans-79" x="1790.714844"/>
     <use xlink:href="#DejaVuSans-20" x="1849.894531"/>
     <use xlink:href="#DejaVuSans-59" x="1881.681641"/>
     <use xlink:href="#DejaVuSans-65" x="1929.515625"/>
     <use xlink:href="#DejaVuSans-61" x="1991.039062"/>
     <use xlink:href="#DejaVuSans-72" x="2052.318359"/>
    </g>
   </g>
   <g id="legend_1">
    <g id="patch_7">
     <path d="M 89.37 181.66125 
L 146.82 181.66125 
Q 148.82 181.66125 148.82 179.66125 
L 148.82 33.88 
Q 148.82 31.88 146.82 31.88 
L 89.37 31.88 
Q 87.37 31.88 87.37 33.88 
L 87.37 179.66125 
Q 87.37 181.66125 89.37 181.66125 
z
" style="fill: #ffffff; opacity: 0.8; stroke: #cccccc; stroke-linejoin: miter"/>
    </g>
    <g id="text_17">
     <!-- Year -->
     <g transform="translate(107.5075 43.478437) scale(0.1 -0.1)">
      <use xlink:href="#DejaVuSans-59"/>
      <use xlink:href="#DejaVuSans-65" x="47.833984"/>
      <use xlink:href="#DejaVuSans-61" x="109.357422"/>
      <use xlink:href="#DejaVuSans-72" x="170.636719"/>
     </g>
    </g>
    <g id="line2d_38">
     <path d="M 91.37 54.656562 
L 101.37 54.656562 
L 101.37 54.656562 
L 111.37 54.656562 
L 111.37 54.656562 
" style="fill: none; stroke: #808080; stroke-width: 1.5; stroke-linecap: square"/>
    </g>
    <g id="text_18">
     <!-- 2017 -->
     <g transform="translate(119.37 58.156562) scale(0.1 -0.1)">
      <use xlink:href="#DejaVuSans-32"/>
      <use xlink:href="#DejaVuSans-30" x="63.623047"/>
      <use xlink:href="#DejaVuSans-31" x="127.246094"/>
      <use xlink:href="#DejaVuSans-37" x="190.869141"/>
     </g>
    </g>
    <g id="line2d_39">
     <path d="M 91.37 69.334687 
L 101.37 69.334687 
L 101.37 69.334687 
L 111.37 69.334687 
L 111.37 69.334687 
" style="fill: none; stroke: #90ee90; stroke-width: 1.5; stroke-linecap: square"/>
    </g>
    <g id="text_19">
     <!-- 2018 -->
     <g transform="translate(119.37 72.834687) scale(0.1 -0.1)">
      <defs>
       <path id="DejaVuSans-38" d="M 2034 2216 
Q 1584 2216 1326 1975 
Q 1069 1734 1069 1313 
Q 1069 891 1326 650 
Q 1584 409 2034 409 
Q 2484 409 2743 651 
Q 3003 894 3003 1313 
Q 3003 1734 2745 1975 
Q 2488 2216 2034 2216 
z
M 1403 2484 
Q 997 2584 770 2862 
Q 544 3141 544 3541 
Q 544 4100 942 4425 
Q 1341 4750 2034 4750 
Q 2731 4750 3128 4425 
Q 3525 4100 3525 3541 
Q 3525 3141 3298 2862 
Q 3072 2584 2669 2484 
Q 3125 2378 3379 2068 
Q 3634 1759 3634 1313 
Q 3634 634 3220 271 
Q 2806 -91 2034 -91 
Q 1263 -91 848 271 
Q 434 634 434 1313 
Q 434 1759 690 2068 
Q 947 2378 1403 2484 
z
M 1172 3481 
Q 1172 3119 1398 2916 
Q 1625 2713 2034 2713 
Q 2441 2713 2670 2916 
Q 2900 3119 2900 3481 
Q 2900 3844 2670 4047 
Q 2441 4250 2034 4250 
Q 1625 4250 1398 4047 
Q 1172 3844 1172 3481 
z
" transform="scale(0.015625)"/>
      </defs>
      <use xlink:href="#DejaVuSans-32"/>
      <use xlink:href="#DejaVuSans-30" x="63.623047"/>
      <use xlink:href="#DejaVuSans-31" x="127.246094"/>
      <use xlink:href="#DejaVuSans-38" x="190.869141"/>
     </g>
    </g>
    <g id="line2d_40">
     <path d="M 91.37 84.012812 
L 101.37 84.012812 
L 101.37 84.012812 
L 111.37 84.012812 
L 111.37 84.012812 
" style="fill: none; stroke: #add8e6; stroke-width: 1.5; stroke-linecap: square"/>
    </g>
    <g id="text_20">
     <!-- 2019 -->
     <g transform="translate(119.37 87.512812) scale(0.1 -0.1)">
      <defs>
       <path id="DejaVuSans-39" d="M 703 97 
L 703 672 
Q 941 559 1184 500 
Q 1428 441 1663 441 
Q 2288 441 2617 861 
Q 2947 1281 2994 2138 
Q 2813 1869 2534 1725 
Q 2256 1581 1919 1581 
Q 1219 1581 811 2004 
Q 403 2428 403 3163 
Q 403 3881 828 4315 
Q 1253 4750 1959 4750 
Q 2769 4750 3195 4129 
Q 3622 3509 3622 2328 
Q 3622 1225 3098 567 
Q 2575 -91 1691 -91 
Q 1453 -91 1209 -44 
Q 966 3 703 97 
z
M 1959 2075 
Q 2384 2075 2632 2365 
Q 2881 2656 2881 3163 
Q 2881 3666 2632 3958 
Q 2384 4250 1959 4250 
Q 1534 4250 1286 3958 
Q 1038 3666 1038 3163 
Q 1038 2656 1286 2365 
Q 1534 2075 1959 2075 
z
" transform="scale(0.015625)"/>
      </defs>
      <use xlink:href="#DejaVuSans-32"/>
      <use xlink:href="#DejaVuSans-30" x="63.623047"/>
      <use xlink:href="#DejaVuSans-31" x="127.246094"/>
      <use xlink:href="#DejaVuSans-39" x="190.869141"/>
     </g>
    </g>
    <g id="line2d_41">
     <path d="M 91.37 98.690937 
L 101.37 98.690937 
L 101.37 98.690937 
L 111.37 98.690937 
L 111.37 98.690937 
" style="fill: none; stroke: #ffc0cb; stroke-width: 1.5; stroke-linecap: square"/>
    </g>
    <g id="text_21">
     <!-- 2020 -->
     <g transform="translate(119.37 102.190937) scale(0.1 -0.1)">
      <use xlink:href="#DejaVuSans-32"/>
      <use xlink:href="#DejaVuSans-30" x="63.623047"/>
      <use xlink:href="#DejaVuSans-32" x="127.246094"/>
      <use xlink:href="#DejaVuSans-30" x="190.869141"/>
     </g>
    </g>
    <g id="line2d_42">
     <path d="M 91.37 113.369062 
L 101.37 113.369062 
L 101.37 113.369062 
L 111.37 113.369062 
L 111.37 113.369062 
" style="fill: none; stroke: #800080; stroke-width: 1.5; stroke-linecap: square"/>
    </g>
    <g id="text_22">
     <!-- 2021 -->
     <g transform="translate(119.37 116.869062) scale(0.1 -0.1)">
      <use xlink:href="#DejaVuSans-32"/>
      <use xlink:href="#DejaVuSans-30" x="63.623047"/>
      <use xlink:href="#DejaVuSans-32" x="127.246094"/>
      <use xlink:href="#DejaVuSans-31" x="190.869141"/>
     </g>
    </g>
    <g id="line2d_43">
     <path d="M 91.37 128.047187 
L 101.37 128.047187 
L 101.37 128.047187 
L 111.37 128.047187 
L 111.37 128.047187 
" style="fill: none; stroke: #ffa500; stroke-width: 1.5; stroke-linecap: square"/>
    </g>
    <g id="text_23">
     <!-- 2022 -->
     <g transform="translate(119.37 131.547187) scale(0.1 -0.1)">
      <use xlink:href="#DejaVuSans-32"/>
      <use xlink:href="#DejaVuSans-30" x="63.623047"/>
      <use xlink:href="#DejaVuSans-32" x="127.246094"/>
      <use xlink:href="#DejaVuSans-32" x="190.869141"/>
     </g>
    </g>
    <g id="line2d_44">
     <path d="M 91.37 142.725312 
L 101.37 142.725312 
L 101.37 142.725312 
L 111.37 142.725312 
L 111.37 142.725312 
" style="fill: none; stroke: #0000ff; stroke-width: 1.5; stroke-linecap: square"/>
    </g>
    <g id="text_24">
     <!-- 2023 -->
     <g transform="translate(119.37 146.225312) scale(0.1 -0.1)">
      <defs>
       <path id="DejaVuSans-33" d="M 2597 2516 
Q 3050 2419 3304 2112 
Q 3559 1806 3559 1356 
Q 3559 666 3084 287 
Q 2609 -91 1734 -91 
Q 1441 -91 1130 -33 
Q 819 25 488 141 
L 488 750 
Q 750 597 1062 519 
Q 1375 441 1716 441 
Q 2309 441 2620 675 
Q 2931 909 2931 1356 
Q 2931 1769 2642 2001 
Q 2353 2234 1838 2234 
L 1294 2234 
L 1294 2753 
L 1863 2753 
Q 2328 2753 2575 2939 
Q 2822 3125 2822 3475 
Q 2822 3834 2567 4026 
Q 2313 4219 1838 4219 
Q 1578 4219 1281 4162 
Q 984 4106 628 3988 
L 628 4550 
Q 988 4650 1302 4700 
Q 1616 4750 1894 4750 
Q 2613 4750 3031 4423 
Q 3450 4097 3450 3541 
Q 3450 3153 3228 2886 
Q 3006 2619 2597 2516 
z
" transform="scale(0.015625)"/>
      </defs>
      <use xlink:href="#DejaVuSans-32"/>
      <use xlink:href="#DejaVuSans-30" x="63.623047"/>
      <use xlink:href="#DejaVuSans-32" x="127.246094"/>
      <use xlink:href="#DejaVuSans-33" x="190.869141"/>
     </g>
    </g>
    <g id="line2d_45">
     <path d="M 91.37 157.403437 
L 101.37 157.403437 
L 101.37 157.403437 
L 111.37 157.403437 
L 111.37 157.403437 
" style="fill: none; stroke: #008000; stroke-width: 1.5; stroke-linecap: square"/>
    </g>
    <g id="text_25">
     <!-- 2024 -->
     <g transform="translate(119.37 160.903437) scale(0.1 -0.1)">
      <defs>
       <path id="DejaVuSans-34" d="M 2419 4116 
L 825 1625 
L 2419 1625 
L 2419 4116 
z
M 2253 4666 
L 3047 4666 
L 3047 1625 
L 3713 1625 
L 3713 1100 
L 3047 1100 
L 3047 0 
L 2419 0 
L 2419 1100 
L 313 1100 
L 313 1709 
L 2253 4666 
z
" transform="scale(0.015625)"/>
      </defs>
      <use xlink:href="#DejaVuSans-32"/>
      <use xlink:href="#DejaVuSans-30" x="63.623047"/>
      <use xlink:href="#DejaVuSans-32" x="127.246094"/>
      <use xlink:href="#DejaVuSans-34" x="190.869141"/>
     </g>
    </g>
    <g id="line2d_46">
     <path d="M 91.37 172.081562 
L 101.37 172.081562 
L 101.37 172.081562 
L 111.37 172.081562 
L 111.37 172.081562 
" style="fill: none; stroke: #ff0000; stroke-width: 1.5; stroke-linecap: square"/>
    </g>
    <g id="text_26">
     <!-- 2025 -->
     <g transform="translate(119.37 175.581562) scale(0.1 -0.1)">
      <use xlink:href="#DejaVuSans-32"/>
      <use xlink:href="#DejaVuSans-30" x="63.623047"/>
      <use xlink:href="#DejaVuSans-32" x="127.246094"/>
      <use xlink:href="#DejaVuSans-35" x="190.869141"/>
     </g>
    </g>
   </g>
  </g>
 </g>
 <defs>
  <clipPath id="p2c6cdb5a49">
   <rect x="82.37" y="26.88" width="626.83" height="449.24"/>
  </clipPath>
 </defs>
</svg>
