<?xml version="1.0" encoding="utf-8" standalone="no"?>
<!DOCTYPE svg PUBLIC "-//W3C//DTD SVG 1.1//EN"
  "http://www.w3.org/Graphics/SVG/1.1/DTD/svg11.dtd">
<svg xmlns:xlink="http://www.w3.org/1999/xlink" width="720pt" height="504pt" viewBox="0 0 720 504" xmlns="http://www.w3.org/2000/svg" version="1.1">
 <metadata>
  <rdf:RDF xmlns:dc="http://purl.org/dc/elements/1.1/" xmlns:cc="http://creativecommons.org/ns#" xmlns:rdf="http://www.w3.org/1999/02/22-rdf-syntax-ns#">
   <cc:Work>
    <dc:type rdf:resource="http://purl.org/dc/dcmitype/StillImage"/>
    <dc:date>2025-10-27T11:25:22.684752</dc:date>
    <dc:format>image/svg+xml</dc:format>
    <dc:creator>
     <cc:Agent>
      <dc:title>Matplotlib v3.8.2, https://matplotlib.org/</dc:title>
     </cc:Agent>
    </dc:creator>
   </cc:Work>
  </rdf:RDF>
 </metadata>
 <defs>
  <style type="text/css">*{stroke-linejoin: round; stroke-linecap: butt}</style>
 </defs>
 <g id="figure_1">
  <g id="patch_1">
   <path d="M 0 504 
L 720 504 
L 720 0 
L 0 0 
z
" style="fill: #ffffff"/>
  </g>
  <g id="axes_1">
   <g id="patch_2">
    <path d="M 82.37 476.12 
L 709.2 476.12 
L 709.2 26.88 
L 82.37 26.88 
z
" style="fill: #ffffff"/>
   </g>
   <g id="matplotlib.axis_1">
    <g id="xtick_1">
     <g id="line2d_1">
      <path d="M 106.728679 476.12 
L 106.728679 26.88 
" clip-path="url(#p1cbd0524ed)" style="fill: none; stroke: #b0b0b0; stroke-width: 0.8; stroke-linecap: square"/>
     </g>
     <g id="line2d_2">
      <defs>
       <path id="m8ef0f8f6c8" d="M 0 0 
L 0 3.5 
" style="stroke: #000000; stroke-width: 0.8"/>
      </defs>
      <g>
       <use xlink:href="#m8ef0f8f6c8" x="106.728679" y="476.12" style="stroke: #000000; stroke-width: 0.8"/>
      </g>
     </g>
     <g id="text_1">
      <!-- Jan 1 -->
      <g transform="translate(94.250554 490.718437) scale(0.1 -0.1)">
       <defs>
        <path id="DejaVuSans-4a" d="M 628 4666 
L 1259 4666 
L 1259 325 
Q 1259 -519 939 -900 
Q 619 -1281 -91 -1281 
L -331 -1281 
L -331 -750 
L -134 -750 
Q 284 -750 456 -515 
Q 628 -281 628 325 
L 628 4666 
z
" transform="scale(0.015625)"/>
        <path id="DejaVuSans-61" d="M 2194 1759 
Q 1497 1759 1228 1600 
Q 959 1441 959 1056 
Q 959 750 1161 570 
Q 1363 391 1709 391 
Q 2188 391 2477 730 
Q 2766 1069 2766 1631 
L 2766 1759 
L 2194 1759 
z
M 3341 1997 
L 3341 0 
L 2766 0 
L 2766 531 
Q 2569 213 2275 61 
Q 1981 -91 1556 -91 
Q 1019 -91 701 211 
Q 384 513 384 1019 
Q 384 1609 779 1909 
Q 1175 2209 1959 2209 
L 2766 2209 
L 2766 2266 
Q 2766 2663 2505 2880 
Q 2244 3097 1772 3097 
Q 1472 3097 1187 3025 
Q 903 2953 641 2809 
L 641 3341 
Q 956 3463 1253 3523 
Q 1550 3584 1831 3584 
Q 2591 3584 2966 3190 
Q 3341 2797 3341 1997 
z
" transform="scale(0.015625)"/>
        <path id="DejaVuSans-6e" d="M 3513 2113 
L 3513 0 
L 2938 0 
L 2938 2094 
Q 2938 2591 2744 2837 
Q 2550 3084 2163 3084 
Q 1697 3084 1428 2787 
Q 1159 2491 1159 1978 
L 1159 0 
L 581 0 
L 581 3500 
L 1159 3500 
L 1159 2956 
Q 1366 3272 1645 3428 
Q 1925 3584 2291 3584 
Q 2894 3584 3203 3211 
Q 3513 2838 3513 2113 
z
" transform="scale(0.015625)"/>
        <path id="DejaVuSans-20" transform="scale(0.015625)"/>
        <path id="DejaVuSans-31" d="M 794 531 
L 1825 531 
L 1825 4091 
L 703 3866 
L 703 4441 
L 1819 4666 
L 2450 4666 
L 2450 531 
L 3481 531 
L 3481 0 
L 794 0 
L 794 531 
z
" transform="scale(0.015625)"/>
       </defs>
       <use xlink:href="#DejaVuSans-4a"/>
       <use xlink:href="#DejaVuSans-61" x="29.492188"/>
       <use xlink:href="#DejaVuSans-6e" x="90.771484"/>
       <use xlink:href="#DejaVuSans-20" x="154.150391"/>
       <use xlink:href="#DejaVuSans-31" x="185.9375"/>
      </g>
     </g>
    </g>
    <g id="xtick_2">
     <g id="line2d_3">
      <path d="M 204.163394 476.12 
L 204.163394 26.88 
" clip-path="url(#p1cbd0524ed)" style="fill: none; stroke: #b0b0b0; stroke-width: 0.8; stroke-linecap: square"/>
     </g>
     <g id="line2d_4">
      <g>
       <use xlink:href="#m8ef0f8f6c8" x="204.163394" y="476.12" style="stroke: #000000; stroke-width: 0.8"/>
      </g>
     </g>
     <g id="text_2">
      <!-- Mar 1 -->
      <g transform="translate(189.959488 490.718437) scale(0.1 -0.1)">
       <defs>
        <path id="DejaVuSans-4d" d="M 628 4666 
L 1569 4666 
L 2759 1491 
L 3956 4666 
L 4897 4666 
L 4897 0 
L 4281 0 
L 4281 4097 
L 3078 897 
L 2444 897 
L 1241 4097 
L 1241 0 
L 628 0 
L 628 4666 
z
" transform="scale(0.015625)"/>
        <path id="DejaVuSans-72" d="M 2631 2963 
Q 2534 3019 2420 3045 
Q 2306 3072 2169 3072 
Q 1681 3072 1420 2755 
Q 1159 2438 1159 1844 
L 1159 0 
L 581 0 
L 581 3500 
L 1159 3500 
L 1159 2956 
Q 1341 3275 1631 3429 
Q 1922 3584 2338 3584 
Q 2397 3584 2469 3576 
Q 2541 3569 2628 3553 
L 2631 2963 
z
" transform="scale(0.015625)"/>
       </defs>
       <use xlink:href="#DejaVuSans-4d"/>
       <use xlink:href="#DejaVuSans-61" x="86.279297"/>
       <use xlink:href="#DejaVuSans-72" x="147.558594"/>
       <use xlink:href="#DejaVuSans-20" x="188.671875"/>
       <use xlink:href="#DejaVuSans-31" x="220.458984"/>
      </g>
     </g>
    </g>
    <g id="xtick_3">
     <g id="line2d_5">
      <path d="M 303.222021 476.12 
L 303.222021 26.88 
" clip-path="url(#p1cbd0524ed)" style="fill: none; stroke: #b0b0b0; stroke-width: 0.8; stroke-linecap: square"/>
     </g>
     <g id="line2d_6">
      <g>
       <use xlink:href="#m8ef0f8f6c8" x="303.222021" y="476.12" style="stroke: #000000; stroke-width: 0.8"/>
      </g>
     </g>
     <g id="text_3">
      <!-- May 1 -->
      <g transform="translate(288.114208 490.718437) scale(0.1 -0.1)">
       <defs>
        <path id="DejaVuSans-79" d="M 2059 -325 
Q 1816 -950 1584 -1140 
Q 1353 -1331 966 -1331 
L 506 -1331 
L 506 -850 
L 844 -850 
Q 1081 -850 1212 -737 
Q 1344 -625 1503 -206 
L 1606 56 
L 191 3500 
L 800 3500 
L 1894 763 
L 2988 3500 
L 3597 3500 
L 2059 -325 
z
" transform="scale(0.015625)"/>
       </defs>
       <use xlink:href="#DejaVuSans-4d"/>
       <use xlink:href="#DejaVuSans-61" x="86.279297"/>
       <use xlink:href="#DejaVuSans-79" x="147.558594"/>
       <use xlink:href="#DejaVuSans-20" x="206.738281"/>
       <use xlink:href="#DejaVuSans-31" x="238.525391"/>
      </g>
     </g>
    </g>
    <g id="xtick_4">
     <g id="line2d_7">
      <path d="M 402.280648 476.12 
L 402.280648 26.88 
" clip-path="url(#p1cbd0524ed)" style="fill: none; stroke: #b0b0b0; stroke-width: 0.8; stroke-linecap: square"/>
     </g>
     <g id="line2d_8">
      <g>
       <use xlink:href="#m8ef0f8f6c8" x="402.280648" y="476.12" style="stroke: #000000; stroke-width: 0.8"/>
      </g>
     </g>
     <g id="text_4">
      <!-- Jul 1 -->
      <g transform="translate(391.477523 490.718437) scale(0.1 -0.1)">
       <defs>
        <path id="DejaVuSans-75" d="M 544 1381 
L 544 3500 
L 1119 3500 
L 1119 1403 
Q 1119 906 1312 657 
Q 1506 409 1894 409 
Q 2359 409 2629 706 
Q 2900 1003 2900 1516 
L 2900 3500 
L 3475 3500 
L 3475 0 
L 2900 0 
L 2900 538 
Q 2691 219 2414 64 
Q 2138 -91 1772 -91 
Q 1169 -91 856 284 
Q 544 659 544 1381 
z
M 1991 3584 
L 1991 3584 
z
" transform="scale(0.015625)"/>
        <path id="DejaVuSans-6c" d="M 603 4863 
L 1178 4863 
L 1178 0 
L 603 0 
L 603 4863 
z
" transform="scale(0.015625)"/>
       </defs>
       <use xlink:href="#DejaVuSans-4a"/>
       <use xlink:href="#DejaVuSans-75" x="29.492188"/>
       <use xlink:href="#DejaVuSans-6c" x="92.871094"/>
       <use xlink:href="#DejaVuSans-20" x="120.654297"/>
       <use xlink:href="#DejaVuSans-31" x="152.441406"/>
      </g>
     </g>
    </g>
    <g id="xtick_5">
     <g id="line2d_9">
      <path d="M 502.963187 476.12 
L 502.963187 26.88 
" clip-path="url(#p1cbd0524ed)" style="fill: none; stroke: #b0b0b0; stroke-width: 0.8; stroke-linecap: square"/>
     </g>
     <g id="line2d_10">
      <g>
       <use xlink:href="#m8ef0f8f6c8" x="502.963187" y="476.12" style="stroke: #000000; stroke-width: 0.8"/>
      </g>
     </g>
     <g id="text_5">
      <!-- Sep 1 -->
      <g transform="translate(488.767874 490.718437) scale(0.1 -0.1)">
       <defs>
        <path id="DejaVuSans-53" d="M 3425 4513 
L 3425 3897 
Q 3066 4069 2747 4153 
Q 2428 4238 2131 4238 
Q 1616 4238 1336 4038 
Q 1056 3838 1056 3469 
Q 1056 3159 1242 3001 
Q 1428 2844 1947 2747 
L 2328 2669 
Q 3034 2534 3370 2195 
Q 3706 1856 3706 1288 
Q 3706 609 3251 259 
Q 2797 -91 1919 -91 
Q 1588 -91 1214 -16 
Q 841 59 441 206 
L 441 856 
Q 825 641 1194 531 
Q 1563 422 1919 422 
Q 2459 422 2753 634 
Q 3047 847 3047 1241 
Q 3047 1584 2836 1778 
Q 2625 1972 2144 2069 
L 1759 2144 
Q 1053 2284 737 2584 
Q 422 2884 422 3419 
Q 422 4038 858 4394 
Q 1294 4750 2059 4750 
Q 2388 4750 2728 4690 
Q 3069 4631 3425 4513 
z
" transform="scale(0.015625)"/>
        <path id="DejaVuSans-65" d="M 3597 1894 
L 3597 1613 
L 953 1613 
Q 991 1019 1311 708 
Q 1631 397 2203 397 
Q 2534 397 2845 478 
Q 3156 559 3463 722 
L 3463 178 
Q 3153 47 2828 -22 
Q 2503 -91 2169 -91 
Q 1331 -91 842 396 
Q 353 884 353 1716 
Q 353 2575 817 3079 
Q 1281 3584 2069 3584 
Q 2775 3584 3186 3129 
Q 3597 2675 3597 1894 
z
M 3022 2063 
Q 3016 2534 2758 2815 
Q 2500 3097 2075 3097 
Q 1594 3097 1305 2825 
Q 1016 2553 972 2059 
L 3022 2063 
z
" transform="scale(0.015625)"/>
        <path id="DejaVuSans-70" d="M 1159 525 
L 1159 -1331 
L 581 -1331 
L 581 3500 
L 1159 3500 
L 1159 2969 
Q 1341 3281 1617 3432 
Q 1894 3584 2278 3584 
Q 2916 3584 3314 3078 
Q 3713 2572 3713 1747 
Q 3713 922 3314 415 
Q 2916 -91 2278 -91 
Q 1894 -91 1617 61 
Q 1341 213 1159 525 
z
M 3116 1747 
Q 3116 2381 2855 2742 
Q 2594 3103 2138 3103 
Q 1681 3103 1420 2742 
Q 1159 2381 1159 1747 
Q 1159 1113 1420 752 
Q 1681 391 2138 391 
Q 2594 391 2855 752 
Q 3116 1113 3116 1747 
z
" transform="scale(0.015625)"/>
       </defs>
       <use xlink:href="#DejaVuSans-53"/>
       <use xlink:href="#DejaVuSans-65" x="63.476562"/>
       <use xlink:href="#DejaVuSans-70" x="125"/>
       <use xlink:href="#DejaVuSans-20" x="188.476562"/>
       <use xlink:href="#DejaVuSans-31" x="220.263672"/>
      </g>
     </g>
    </g>
    <g id="xtick_6">
     <g id="line2d_11">
      <path d="M 602.021813 476.12 
L 602.021813 26.88 
" clip-path="url(#p1cbd0524ed)" style="fill: none; stroke: #b0b0b0; stroke-width: 0.8; stroke-linecap: square"/>
     </g>
     <g id="line2d_12">
      <g>
       <use xlink:href="#m8ef0f8f6c8" x="602.021813" y="476.12" style="stroke: #000000; stroke-width: 0.8"/>
      </g>
     </g>
     <g id="text_6">
      <!-- Nov 1 -->
      <g transform="translate(587.492126 490.718437) scale(0.1 -0.1)">
       <defs>
        <path id="DejaVuSans-4e" d="M 628 4666 
L 1478 4666 
L 3547 763 
L 3547 4666 
L 4159 4666 
L 4159 0 
L 3309 0 
L 1241 3903 
L 1241 0 
L 628 0 
L 628 4666 
z
" transform="scale(0.015625)"/>
        <path id="DejaVuSans-6f" d="M 1959 3097 
Q 1497 3097 1228 2736 
Q 959 2375 959 1747 
Q 959 1119 1226 758 
Q 1494 397 1959 397 
Q 2419 397 2687 759 
Q 2956 1122 2956 1747 
Q 2956 2369 2687 2733 
Q 2419 3097 1959 3097 
z
M 1959 3584 
Q 2709 3584 3137 3096 
Q 3566 2609 3566 1747 
Q 3566 888 3137 398 
Q 2709 -91 1959 -91 
Q 1206 -91 779 398 
Q 353 888 353 1747 
Q 353 2609 779 3096 
Q 1206 3584 1959 3584 
z
" transform="scale(0.015625)"/>
        <path id="DejaVuSans-76" d="M 191 3500 
L 800 3500 
L 1894 563 
L 2988 3500 
L 3597 3500 
L 2284 0 
L 1503 0 
L 191 3500 
z
" transform="scale(0.015625)"/>
       </defs>
       <use xlink:href="#DejaVuSans-4e"/>
       <use xlink:href="#DejaVuSans-6f" x="74.804688"/>
       <use xlink:href="#DejaVuSans-76" x="135.986328"/>
       <use xlink:href="#DejaVuSans-20" x="195.166016"/>
       <use xlink:href="#DejaVuSans-31" x="226.953125"/>
      </g>
     </g>
    </g>
   </g>
   <g id="matplotlib.axis_2">
    <g id="ytick_1">
     <g id="line2d_13">
      <path d="M 82.37 455.7 
L 709.2 455.7 
" clip-path="url(#p1cbd0524ed)" style="fill: none; stroke: #b0b0b0; stroke-width: 0.8; stroke-linecap: square"/>
     </g>
     <g id="line2d_14">
      <defs>
       <path id="m4c417c24a1" d="M 0 0 
L -3.5 0 
" style="stroke: #000000; stroke-width: 0.8"/>
      </defs>
      <g>
       <use xlink:href="#m4c417c24a1" x="82.37" y="455.7" style="stroke: #000000; stroke-width: 0.8"/>
      </g>
     </g>
     <g id="text_7">
      <!-- 0 -->
      <g transform="translate(69.0075 459.499219) scale(0.1 -0.1)">
       <defs>
        <path id="DejaVuSans-30" d="M 2034 4250 
Q 1547 4250 1301 3770 
Q 1056 3291 1056 2328 
Q 1056 1369 1301 889 
Q 1547 409 2034 409 
Q 2525 409 2770 889 
Q 3016 1369 3016 2328 
Q 3016 3291 2770 3770 
Q 2525 4250 2034 4250 
z
M 2034 4750 
Q 2819 4750 3233 4129 
Q 3647 3509 3647 2328 
Q 3647 1150 3233 529 
Q 2819 -91 2034 -91 
Q 1250 -91 836 529 
Q 422 1150 422 2328 
Q 422 3509 836 4129 
Q 1250 4750 2034 4750 
z
" transform="scale(0.015625)"/>
       </defs>
       <use xlink:href="#DejaVuSans-30"/>
      </g>
     </g>
    </g>
    <g id="ytick_2">
     <g id="line2d_15">
      <path d="M 82.37 398.349793 
L 709.2 398.349793 
" clip-path="url(#p1cbd0524ed)" style="fill: none; stroke: #b0b0b0; stroke-width: 0.8; stroke-linecap: square"/>
     </g>
     <g id="line2d_16">
      <g>
       <use xlink:href="#m4c417c24a1" x="82.37" y="398.349793" style="stroke: #000000; stroke-width: 0.8"/>
      </g>
     </g>
     <g id="text_8">
      <!-- 250,000 -->
      <g transform="translate(34.016875 402.149012) scale(0.1 -0.1)">
       <defs>
        <path id="DejaVuSans-32" d="M 1228 531 
L 3431 531 
L 3431 0 
L 469 0 
L 469 531 
Q 828 903 1448 1529 
Q 2069 2156 2228 2338 
Q 2531 2678 2651 2914 
Q 2772 3150 2772 3378 
Q 2772 3750 2511 3984 
Q 2250 4219 1831 4219 
Q 1534 4219 1204 4116 
Q 875 4013 500 3803 
L 500 4441 
Q 881 4594 1212 4672 
Q 1544 4750 1819 4750 
Q 2544 4750 2975 4387 
Q 3406 4025 3406 3419 
Q 3406 3131 3298 2873 
Q 3191 2616 2906 2266 
Q 2828 2175 2409 1742 
Q 1991 1309 1228 531 
z
" transform="scale(0.015625)"/>
        <path id="DejaVuSans-35" d="M 691 4666 
L 3169 4666 
L 3169 4134 
L 1269 4134 
L 1269 2991 
Q 1406 3038 1543 3061 
Q 1681 3084 1819 3084 
Q 2600 3084 3056 2656 
Q 3513 2228 3513 1497 
Q 3513 744 3044 326 
Q 2575 -91 1722 -91 
Q 1428 -91 1123 -41 
Q 819 9 494 109 
L 494 744 
Q 775 591 1075 516 
Q 1375 441 1709 441 
Q 2250 441 2565 725 
Q 2881 1009 2881 1497 
Q 2881 1984 2565 2268 
Q 2250 2553 1709 2553 
Q 1456 2553 1204 2497 
Q 953 2441 691 2322 
L 691 4666 
z
" transform="scale(0.015625)"/>
        <path id="DejaVuSans-2c" d="M 750 794 
L 1409 794 
L 1409 256 
L 897 -744 
L 494 -744 
L 750 256 
L 750 794 
z
" transform="scale(0.015625)"/>
       </defs>
       <use xlink:href="#DejaVuSans-32"/>
       <use xlink:href="#DejaVuSans-35" x="63.623047"/>
       <use xlink:href="#DejaVuSans-30" x="127.246094"/>
       <use xlink:href="#DejaVuSans-2c" x="190.869141"/>
       <use xlink:href="#DejaVuSans-30" x="222.65625"/>
       <use xlink:href="#DejaVuSans-30" x="286.279297"/>
       <use xlink:href="#DejaVuSans-30" x="349.902344"/>
      </g>
     </g>
    </g>
    <g id="ytick_3">
     <g id="line2d_17">
      <path d="M 82.37 340.999586 
L 709.2 340.999586 
" clip-path="url(#p1cbd0524ed)" style="fill: none; stroke: #b0b0b0; stroke-width: 0.8; stroke-linecap: square"/>
     </g>
     <g id="line2d_18">
      <g>
       <use xlink:href="#m4c417c24a1" x="82.37" y="340.999586" style="stroke: #000000; stroke-width: 0.8"/>
      </g>
     </g>
     <g id="text_9">
      <!-- 500,000 -->
      <g transform="translate(34.016875 344.798805) scale(0.1 -0.1)">
       <use xlink:href="#DejaVuSans-35"/>
       <use xlink:href="#DejaVuSans-30" x="63.623047"/>
       <use xlink:href="#DejaVuSans-30" x="127.246094"/>
       <use xlink:href="#DejaVuSans-2c" x="190.869141"/>
       <use xlink:href="#DejaVuSans-30" x="222.65625"/>
       <use xlink:href="#DejaVuSans-30" x="286.279297"/>
       <use xlink:href="#DejaVuSans-30" x="349.902344"/>
      </g>
     </g>
    </g>
    <g id="ytick_4">
     <g id="line2d_19">
      <path d="M 82.37 283.649379 
L 709.2 283.649379 
" clip-path="url(#p1cbd0524ed)" style="fill: none; stroke: #b0b0b0; stroke-width: 0.8; stroke-linecap: square"/>
     </g>
     <g id="line2d_20">
      <g>
       <use xlink:href="#m4c417c24a1" x="82.37" y="283.649379" style="stroke: #000000; stroke-width: 0.8"/>
      </g>
     </g>
     <g id="text_10">
      <!-- 750,000 -->
      <g transform="translate(34.016875 287.448598) scale(0.1 -0.1)">
       <defs>
        <path id="DejaVuSans-37" d="M 525 4666 
L 3525 4666 
L 3525 4397 
L 1831 0 
L 1172 0 
L 2766 4134 
L 525 4134 
L 525 4666 
z
" transform="scale(0.015625)"/>
       </defs>
       <use xlink:href="#DejaVuSans-37"/>
       <use xlink:href="#DejaVuSans-35" x="63.623047"/>
       <use xlink:href="#DejaVuSans-30" x="127.246094"/>
       <use xlink:href="#DejaVuSans-2c" x="190.869141"/>
       <use xlink:href="#DejaVuSans-30" x="222.65625"/>
       <use xlink:href="#DejaVuSans-30" x="286.279297"/>
       <use xlink:href="#DejaVuSans-30" x="349.902344"/>
      </g>
     </g>
    </g>
    <g id="ytick_5">
     <g id="line2d_21">
      <path d="M 82.37 226.299172 
L 709.2 226.299172 
" clip-path="url(#p1cbd0524ed)" style="fill: none; stroke: #b0b0b0; stroke-width: 0.8; stroke-linecap: square"/>
     </g>
     <g id="line2d_22">
      <g>
       <use xlink:href="#m4c417c24a1" x="82.37" y="226.299172" style="stroke: #000000; stroke-width: 0.8"/>
      </g>
     </g>
     <g id="text_11">
      <!-- 1,000,000 -->
      <g transform="translate(24.47625 230.098391) scale(0.1 -0.1)">
       <use xlink:href="#DejaVuSans-31"/>
       <use xlink:href="#DejaVuSans-2c" x="63.623047"/>
       <use xlink:href="#DejaVuSans-30" x="95.410156"/>
       <use xlink:href="#DejaVuSans-30" x="159.033203"/>
       <use xlink:href="#DejaVuSans-30" x="222.65625"/>
       <use xlink:href="#DejaVuSans-2c" x="286.279297"/>
       <use xlink:href="#DejaVuSans-30" x="318.066406"/>
       <use xlink:href="#DejaVuSans-30" x="381.689453"/>
       <use xlink:href="#DejaVuSans-30" x="445.3125"/>
      </g>
     </g>
    </g>
    <g id="ytick_6">
     <g id="line2d_23">
      <path d="M 82.37 168.948965 
L 709.2 168.948965 
" clip-path="url(#p1cbd0524ed)" style="fill: none; stroke: #b0b0b0; stroke-width: 0.8; stroke-linecap: square"/>
     </g>
     <g id="line2d_24">
      <g>
       <use xlink:href="#m4c417c24a1" x="82.37" y="168.948965" style="stroke: #000000; stroke-width: 0.8"/>
      </g>
     </g>
     <g id="text_12">
      <!-- 1,250,000 -->
      <g transform="translate(24.47625 172.748184) scale(0.1 -0.1)">
       <use xlink:href="#DejaVuSans-31"/>
       <use xlink:href="#DejaVuSans-2c" x="63.623047"/>
       <use xlink:href="#DejaVuSans-32" x="95.410156"/>
       <use xlink:href="#DejaVuSans-35" x="159.033203"/>
       <use xlink:href="#DejaVuSans-30" x="222.65625"/>
       <use xlink:href="#DejaVuSans-2c" x="286.279297"/>
       <use xlink:href="#DejaVuSans-30" x="318.066406"/>
       <use xlink:href="#DejaVuSans-30" x="381.689453"/>
       <use xlink:href="#DejaVuSans-30" x="445.3125"/>
      </g>
     </g>
    </g>
    <g id="ytick_7">
     <g id="line2d_25">
      <path d="M 82.37 111.598758 
L 709.2 111.598758 
" clip-path="url(#p1cbd0524ed)" style="fill: none; stroke: #b0b0b0; stroke-width: 0.8; stroke-linecap: square"/>
     </g>
     <g id="line2d_26">
      <g>
       <use xlink:href="#m4c417c24a1" x="82.37" y="111.598758" style="stroke: #000000; stroke-width: 0.8"/>
      </g>
     </g>
     <g id="text_13">
      <!-- 1,500,000 -->
      <g transform="translate(24.47625 115.397977) scale(0.1 -0.1)">
       <use xlink:href="#DejaVuSans-31"/>
       <use xlink:href="#DejaVuSans-2c" x="63.623047"/>
       <use xlink:href="#DejaVuSans-35" x="95.410156"/>
       <use xlink:href="#DejaVuSans-30" x="159.033203"/>
       <use xlink:href="#DejaVuSans-30" x="222.65625"/>
       <use xlink:href="#DejaVuSans-2c" x="286.279297"/>
       <use xlink:href="#DejaVuSans-30" x="318.066406"/>
       <use xlink:href="#DejaVuSans-30" x="381.689453"/>
       <use xlink:href="#DejaVuSans-30" x="445.3125"/>
      </g>
     </g>
    </g>
    <g id="ytick_8">
     <g id="line2d_27">
      <path d="M 82.37 54.248551 
L 709.2 54.248551 
" clip-path="url(#p1cbd0524ed)" style="fill: none; stroke: #b0b0b0; stroke-width: 0.8; stroke-linecap: square"/>
     </g>
     <g id="line2d_28">
      <g>
       <use xlink:href="#m4c417c24a1" x="82.37" y="54.248551" style="stroke: #000000; stroke-width: 0.8"/>
      </g>
     </g>
     <g id="text_14">
      <!-- 1,750,000 -->
      <g transform="translate(24.47625 58.04777) scale(0.1 -0.1)">
       <use xlink:href="#DejaVuSans-31"/>
       <use xlink:href="#DejaVuSans-2c" x="63.623047"/>
       <use xlink:href="#DejaVuSans-37" x="95.410156"/>
       <use xlink:href="#DejaVuSans-35" x="159.033203"/>
       <use xlink:href="#DejaVuSans-30" x="222.65625"/>
       <use xlink:href="#DejaVuSans-2c" x="286.279297"/>
       <use xlink:href="#DejaVuSans-30" x="318.066406"/>
       <use xlink:href="#DejaVuSans-30" x="381.689453"/>
       <use xlink:href="#DejaVuSans-30" x="445.3125"/>
      </g>
     </g>
    </g>
    <g id="text_15">
     <!-- Cumulative Payload Mass (kg) -->
     <g transform="translate(18.396562 326.863281) rotate(-90) scale(0.1 -0.1)">
      <defs>
       <path id="DejaVuSans-43" d="M 4122 4306 
L 4122 3641 
Q 3803 3938 3442 4084 
Q 3081 4231 2675 4231 
Q 1875 4231 1450 3742 
Q 1025 3253 1025 2328 
Q 1025 1406 1450 917 
Q 1875 428 2675 428 
Q 3081 428 3442 575 
Q 3803 722 4122 1019 
L 4122 359 
Q 3791 134 3420 21 
Q 3050 -91 2638 -91 
Q 1578 -91 968 557 
Q 359 1206 359 2328 
Q 359 3453 968 4101 
Q 1578 4750 2638 4750 
Q 3056 4750 3426 4639 
Q 3797 4528 4122 4306 
z
" transform="scale(0.015625)"/>
       <path id="DejaVuSans-6d" d="M 3328 2828 
Q 3544 3216 3844 3400 
Q 4144 3584 4550 3584 
Q 5097 3584 5394 3201 
Q 5691 2819 5691 2113 
L 5691 0 
L 5113 0 
L 5113 2094 
Q 5113 2597 4934 2840 
Q 4756 3084 4391 3084 
Q 3944 3084 3684 2787 
Q 3425 2491 3425 1978 
L 3425 0 
L 2847 0 
L 2847 2094 
Q 2847 2600 2669 2842 
Q 2491 3084 2119 3084 
Q 1678 3084 1418 2786 
Q 1159 2488 1159 1978 
L 1159 0 
L 581 0 
L 581 3500 
L 1159 3500 
L 1159 2956 
Q 1356 3278 1631 3431 
Q 1906 3584 2284 3584 
Q 2666 3584 2933 3390 
Q 3200 3197 3328 2828 
z
" transform="scale(0.015625)"/>
       <path id="DejaVuSans-74" d="M 1172 4494 
L 1172 3500 
L 2356 3500 
L 2356 3053 
L 1172 3053 
L 1172 1153 
Q 1172 725 1289 603 
Q 1406 481 1766 481 
L 2356 481 
L 2356 0 
L 1766 0 
Q 1100 0 847 248 
Q 594 497 594 1153 
L 594 3053 
L 172 3053 
L 172 3500 
L 594 3500 
L 594 4494 
L 1172 4494 
z
" transform="scale(0.015625)"/>
       <path id="DejaVuSans-69" d="M 603 3500 
L 1178 3500 
L 1178 0 
L 603 0 
L 603 3500 
z
M 603 4863 
L 1178 4863 
L 1178 4134 
L 603 4134 
L 603 4863 
z
" transform="scale(0.015625)"/>
       <path id="DejaVuSans-50" d="M 1259 4147 
L 1259 2394 
L 2053 2394 
Q 2494 2394 2734 2622 
Q 2975 2850 2975 3272 
Q 2975 3691 2734 3919 
Q 2494 4147 2053 4147 
L 1259 4147 
z
M 628 4666 
L 2053 4666 
Q 2838 4666 3239 4311 
Q 3641 3956 3641 3272 
Q 3641 2581 3239 2228 
Q 2838 1875 2053 1875 
L 1259 1875 
L 1259 0 
L 628 0 
L 628 4666 
z
" transform="scale(0.015625)"/>
       <path id="DejaVuSans-64" d="M 2906 2969 
L 2906 4863 
L 3481 4863 
L 3481 0 
L 2906 0 
L 2906 525 
Q 2725 213 2448 61 
Q 2172 -91 1784 -91 
Q 1150 -91 751 415 
Q 353 922 353 1747 
Q 353 2572 751 3078 
Q 1150 3584 1784 3584 
Q 2172 3584 2448 3432 
Q 2725 3281 2906 2969 
z
M 947 1747 
Q 947 1113 1208 752 
Q 1469 391 1925 391 
Q 2381 391 2643 752 
Q 2906 1113 2906 1747 
Q 2906 2381 2643 2742 
Q 2381 3103 1925 3103 
Q 1469 3103 1208 2742 
Q 947 2381 947 1747 
z
" transform="scale(0.015625)"/>
       <path id="DejaVuSans-73" d="M 2834 3397 
L 2834 2853 
Q 2591 2978 2328 3040 
Q 2066 3103 1784 3103 
Q 1356 3103 1142 2972 
Q 928 2841 928 2578 
Q 928 2378 1081 2264 
Q 1234 2150 1697 2047 
L 1894 2003 
Q 2506 1872 2764 1633 
Q 3022 1394 3022 966 
Q 3022 478 2636 193 
Q 2250 -91 1575 -91 
Q 1294 -91 989 -36 
Q 684 19 347 128 
L 347 722 
Q 666 556 975 473 
Q 1284 391 1588 391 
Q 1994 391 2212 530 
Q 2431 669 2431 922 
Q 2431 1156 2273 1281 
Q 2116 1406 1581 1522 
L 1381 1569 
Q 847 1681 609 1914 
Q 372 2147 372 2553 
Q 372 3047 722 3315 
Q 1072 3584 1716 3584 
Q 2034 3584 2315 3537 
Q 2597 3491 2834 3397 
z
" transform="scale(0.015625)"/>
       <path id="DejaVuSans-28" d="M 1984 4856 
Q 1566 4138 1362 3434 
Q 1159 2731 1159 2009 
Q 1159 1288 1364 580 
Q 1569 -128 1984 -844 
L 1484 -844 
Q 1016 -109 783 600 
Q 550 1309 550 2009 
Q 550 2706 781 3412 
Q 1013 4119 1484 4856 
L 1984 4856 
z
" transform="scale(0.015625)"/>
       <path id="DejaVuSans-6b" d="M 581 4863 
L 1159 4863 
L 1159 1991 
L 2875 3500 
L 3609 3500 
L 1753 1863 
L 3688 0 
L 2938 0 
L 1159 1709 
L 1159 0 
L 581 0 
L 581 4863 
z
" transform="scale(0.015625)"/>
       <path id="DejaVuSans-67" d="M 2906 1791 
Q 2906 2416 2648 2759 
Q 2391 3103 1925 3103 
Q 1463 3103 1205 2759 
Q 947 2416 947 1791 
Q 947 1169 1205 825 
Q 1463 481 1925 481 
Q 2391 481 2648 825 
Q 2906 1169 2906 1791 
z
M 3481 434 
Q 3481 -459 3084 -895 
Q 2688 -1331 1869 -1331 
Q 1566 -1331 1297 -1286 
Q 1028 -1241 775 -1147 
L 775 -588 
Q 1028 -725 1275 -790 
Q 1522 -856 1778 -856 
Q 2344 -856 2625 -561 
Q 2906 -266 2906 331 
L 2906 616 
Q 2728 306 2450 153 
Q 2172 0 1784 0 
Q 1141 0 747 490 
Q 353 981 353 1791 
Q 353 2603 747 3093 
Q 1141 3584 1784 3584 
Q 2172 3584 2450 3431 
Q 2728 3278 2906 2969 
L 2906 3500 
L 3481 3500 
L 3481 434 
z
" transform="scale(0.015625)"/>
       <path id="DejaVuSans-29" d="M 513 4856 
L 1013 4856 
Q 1481 4119 1714 3412 
Q 1947 2706 1947 2009 
Q 1947 1309 1714 600 
Q 1481 -109 1013 -844 
L 513 -844 
Q 928 -128 1133 580 
Q 1338 1288 1338 2009 
Q 1338 2731 1133 3434 
Q 928 4138 513 4856 
z
" transform="scale(0.015625)"/>
      </defs>
      <use xlink:href="#DejaVuSans-43"/>
      <use xlink:href="#DejaVuSans-75" x="69.824219"/>
      <use xlink:href="#DejaVuSans-6d" x="133.203125"/>
      <use xlink:href="#DejaVuSans-75" x="230.615234"/>
      <use xlink:href="#DejaVuSans-6c" x="293.994141"/>
      <use xlink:href="#DejaVuSans-61" x="321.777344"/>
      <use xlink:href="#DejaVuSans-74" x="383.056641"/>
      <use xlink:href="#DejaVuSans-69" x="422.265625"/>
      <use xlink:href="#DejaVuSans-76" x="450.048828"/>
      <use xlink:href="#DejaVuSans-65" x="509.228516"/>
      <use xlink:href="#DejaVuSans-20" x="570.751953"/>
      <use xlink:href="#DejaVuSans-50" x="602.539062"/>
      <use xlink:href="#DejaVuSans-61" x="658.341797"/>
      <use xlink:href="#DejaVuSans-79" x="719.621094"/>
      <use xlink:href="#DejaVuSans-6c" x="778.800781"/>
      <use xlink:href="#DejaVuSans-6f" x="806.583984"/>
      <use xlink:href="#DejaVuSans-61" x="867.765625"/>
      <use xlink:href="#DejaVuSans-64" x="929.044922"/>
      <use xlink:href="#DejaVuSans-20" x="992.521484"/>
      <use xlink:href="#DejaVuSans-4d" x="1024.308594"/>
      <use xlink:href="#DejaVuSans-61" x="1110.587891"/>
      <use xlink:href="#DejaVuSans-73" x="1171.867188"/>
      <use xlink:href="#DejaVuSans-73" x="1223.966797"/>
      <use xlink:href="#DejaVuSans-20" x="1276.066406"/>
      <use xlink:href="#DejaVuSans-28" x="1307.853516"/>
      <use xlink:href="#DejaVuSans-6b" x="1346.867188"/>
      <use xlink:href="#DejaVuSans-67" x="1404.777344"/>
      <use xlink:href="#DejaVuSans-29" x="1468.253906"/>
     </g>
    </g>
   </g>
   <g id="line2d_29">
    <path d="M 106.728679 455.7 
L 127.839534 455.7 
L 127.839534 453.497752 
L 186.300363 453.497752 
L 186.300363 452.926544 
L 226.898161 452.926544 
L 226.898161 451.641899 
L 249.632927 451.641899 
L 249.632927 450.426075 
L 301.598109 450.426075 
L 301.598109 450.426075 
L 324.332876 450.426075 
L 324.332876 449.033612 
L 355.187202 449.033612 
L 355.187202 448.412394 
L 387.66544 448.412394 
L 387.66544 447.570723 
L 390.913264 447.570723 
L 390.913264 445.368475 
L 407.152383 445.368475 
L 407.152383 443.817496 
L 472.10886 443.817496 
L 472.10886 443.058179 
L 488.347979 443.058179 
L 488.347979 442.949214 
L 511.082746 442.949214 
L 511.082746 441.804504 
L 563.047927 441.804504 
L 563.047927 439.602256 
L 566.295751 439.602256 
L 566.295751 438.363491 
L 597.150078 438.363491 
L 597.150078 437.560588 
L 671.850026 437.560588 
L 671.850026 437.05476 
L 684.841321 437.05476 
L 684.841321 434.852512 
L 697.832617 434.852512 
L 697.832617 434.852512 
" clip-path="url(#p1cbd0524ed)" style="fill: none; stroke: #808080; stroke-width: 1.5; stroke-linecap: square"/>
   </g>
   <g id="line2d_30">
    <path d="M 106.728679 455.7 
L 118.096062 455.7 
L 118.096062 455.7 
L 155.446036 455.7 
L 155.446036 454.729634 
L 165.189508 454.729634 
L 165.189508 454.442883 
L 191.172098 454.442883 
L 191.172098 453.949672 
L 210.659041 453.949672 
L 210.659041 452.552162 
L 249.632927 452.552162 
L 249.632927 450.349914 
L 254.504663 450.349914 
L 254.504663 449.74269 
L 280.487254 449.74269 
L 280.487254 449.659647 
L 317.837228 449.659647 
L 317.837228 448.833804 
L 335.700259 448.833804 
L 335.700259 447.351874 
L 356.811114 447.351874 
L 356.811114 446.11678 
L 397.408912 446.11678 
L 397.408912 445.498086 
L 434.758886 445.498086 
L 434.758886 443.875076 
L 439.630622 443.875076 
L 439.630622 441.672828 
L 460.741477 441.672828 
L 460.741477 440.342303 
L 515.954482 440.342303 
L 515.954482 438.722733 
L 561.424016 438.722733 
L 561.424016 438.03453 
L 623.132668 438.03453 
L 623.132668 436.818706 
L 652.363083 436.818706 
L 652.363083 435.901103 
L 655.610907 435.901103 
L 655.610907 435.327601 
L 684.841321 435.327601 
L 684.841321 434.318237 
L 697.832617 434.318237 
L 697.832617 434.318237 
" clip-path="url(#p1cbd0524ed)" style="fill: none; stroke: #90ee90; stroke-width: 1.5; stroke-linecap: square"/>
   </g>
   <g id="line2d_31">
    <path d="M 106.728679 455.7 
L 122.967798 455.7 
L 122.967798 453.497752 
L 191.172098 453.497752 
L 191.172098 452.385158 
L 204.163394 452.385158 
L 204.163394 449.619731 
L 269.11987 449.619731 
L 269.11987 448.136655 
L 306.469845 448.136655 
L 306.469845 447.5643 
L 338.948083 447.5643 
L 338.948083 444.43986 
L 369.802409 444.43986 
L 369.802409 443.476377 
L 390.913264 443.476377 
L 390.913264 442.627594 
L 439.630622 442.627594 
L 439.630622 442.107313 
L 459.117565 442.107313 
L 459.117565 440.616207 
L 616.637021 440.616207 
L 616.637021 437.037554 
L 655.610907 437.037554 
L 655.610907 436.437212 
L 675.09785 436.437212 
L 675.09785 434.8415 
L 697.832617 434.8415 
L 697.832617 434.8415 
" clip-path="url(#p1cbd0524ed)" style="fill: none; stroke: #add8e6; stroke-width: 1.5; stroke-linecap: square"/>
   </g>
   <g id="line2d_32">
    <path d="M 106.728679 455.7 
L 116.47215 455.7 
L 116.47215 452.121347 
L 135.959093 452.121347 
L 135.959093 449.357067 
L 152.198212 449.357067 
L 152.198212 445.778414 
L 183.052539 445.778414 
L 183.052539 442.199761 
L 213.906865 442.199761 
L 213.906865 441.746236 
L 231.769896 441.746236 
L 231.769896 438.167583 
L 288.606813 438.167583 
L 288.606813 434.58893 
L 350.315466 434.58893 
L 350.315466 431.714538 
L 358.435026 431.714538 
L 358.435026 428.135885 
L 373.050233 428.135885 
L 373.050233 424.600818 
L 400.656736 424.600818 
L 400.656736 423.611871 
L 433.134974 423.611871 
L 433.134974 422.350166 
L 462.365389 422.350166 
L 462.365389 418.924753 
L 480.22842 418.924753 
L 480.22842 415.382804 
L 499.715363 415.382804 
L 499.715363 414.66478 
L 506.21101 414.66478 
L 506.21101 411.086127 
L 559.800104 411.086127 
L 559.800104 407.507474 
L 579.287047 407.507474 
L 579.287047 403.928821 
L 589.030518 403.928821 
L 589.030518 400.350168 
L 608.517461 400.350168 
L 608.517461 399.361221 
L 626.380492 399.361221 
L 626.380492 396.493711 
L 634.500052 396.493711 
L 634.500052 396.220265 
L 640.995699 396.220265 
L 640.995699 392.641612 
L 658.858731 392.641612 
L 658.858731 391.959833 
L 670.226114 391.959833 
L 670.226114 390.354027 
L 679.969585 390.354027 
L 679.969585 390.354027 
L 699.456528 390.354027 
L 699.456528 390.354027 
" clip-path="url(#p1cbd0524ed)" style="fill: none; stroke: #ffc0cb; stroke-width: 1.5; stroke-linecap: square"/>
   </g>
   <g id="line2d_33">
    <path d="M 106.728679 455.7 
L 118.096062 455.7 
L 118.096062 454.897097 
L 137.583005 454.897097 
L 137.583005 451.318444 
L 144.078653 451.318444 
L 144.078653 450.17144 
L 161.941684 450.17144 
L 161.941684 446.592787 
L 181.428627 446.592787 
L 181.428627 443.014134 
L 207.411218 443.014134 
L 207.411218 439.435481 
L 218.778601 439.435481 
L 218.778601 435.856828 
L 223.650337 435.856828 
L 223.650337 432.278175 
L 239.889456 432.278175 
L 239.889456 428.699523 
L 262.624223 428.699523 
L 262.624223 425.12087 
L 288.606813 425.12087 
L 288.606813 422.138659 
L 298.350285 422.138659 
L 298.350285 418.560006 
L 306.469845 418.560006 
L 306.469845 414.981353 
L 314.589404 414.981353 
L 314.589404 411.4027 
L 324.332876 411.4027 
L 324.332876 407.860751 
L 342.195907 407.860751 
L 342.195907 404.282098 
L 355.187202 404.282098 
L 355.187202 403.518652 
L 360.058938 403.518652 
L 360.058938 401.912847 
L 377.921969 401.912847 
L 377.921969 400.919312 
L 399.032824 400.919312 
L 399.032824 400.919312 
L 496.467539 400.919312 
L 496.467539 400.41463 
L 522.45013 400.41463 
L 522.45013 397.372775 
L 525.697953 397.372775 
L 525.697953 394.500906 
L 616.637021 394.500906 
L 616.637021 391.518695 
L 619.884845 391.518695 
L 619.884845 387.932013 
L 637.747876 387.932013 
L 637.747876 387.788867 
L 650.739171 387.788867 
L 650.739171 384.462555 
L 662.106554 384.462555 
L 662.106554 384.388 
L 676.721762 384.388 
L 676.721762 380.809347 
L 678.345674 380.809347 
L 678.345674 379.777043 
L 681.593497 379.777043 
L 681.593497 379.091364 
L 697.832617 379.091364 
L 697.832617 379.091364 
" clip-path="url(#p1cbd0524ed)" style="fill: none; stroke: #800080; stroke-width: 1.5; stroke-linecap: square"/>
   </g>
   <g id="line2d_34">
    <path d="M 106.728679 455.7 
L 114.848238 455.7 
L 114.848238 452.373688 
L 126.215622 452.373688 
L 126.215622 452.373688 
L 135.959093 452.373688 
L 135.959093 449.047376 
L 155.446036 449.047376 
L 155.446036 448.541547 
L 158.69386 448.541547 
L 158.69386 448.541547 
L 160.317772 448.541547 
L 160.317772 445.215235 
L 189.548187 445.215235 
L 189.548187 442.095384 
L 196.043834 442.095384 
L 196.043834 438.711722 
L 205.787306 438.711722 
L 205.787306 435.52305 
L 215.530777 435.52305 
L 215.530777 432.274734 
L 231.769896 432.274734 
L 231.769896 428.546971 
L 252.880751 428.546971 
L 252.880751 428.546971 
L 264.248135 428.546971 
L 264.248135 425.56476 
L 278.863342 425.56476 
L 278.863342 425.56476 
L 285.35899 425.56476 
L 285.35899 421.836997 
L 295.102461 421.836997 
L 295.102461 418.854786 
L 298.350285 418.854786 
L 298.350285 415.127023 
L 309.717668 415.127023 
L 309.717668 411.399259 
L 321.085052 411.399259 
L 321.085052 407.671496 
L 322.708964 407.671496 
L 322.708964 403.943732 
L 329.204611 403.943732 
L 329.204611 400.215969 
L 340.571995 400.215969 
L 340.571995 400.215969 
L 363.306762 400.215969 
L 363.306762 399.275425 
L 377.921969 399.275425 
L 377.921969 395.547662 
L 379.545881 395.547662 
L 379.545881 394.630059 
L 381.169793 394.630059 
L 381.169793 394.469478 
L 397.408912 394.469478 
L 397.408912 393.666575 
L 410.400207 393.666575 
L 410.400207 389.938812 
L 416.895855 389.938812 
L 416.895855 386.70426 
L 423.391503 386.70426 
L 423.391503 386.092219 
L 426.639326 386.092219 
L 426.639326 382.364455 
L 434.758886 382.364455 
L 434.758886 379.129903 
L 438.00671 379.129903 
L 438.00671 375.40214 
L 455.869741 375.40214 
L 455.869741 375.246377 
L 465.613212 375.246377 
L 465.613212 371.575964 
L 468.861036 371.575964 
L 468.861036 368.341412 
L 480.22842 368.341412 
L 480.22842 364.613648 
L 494.843627 364.613648 
L 494.843627 360.782655 
L 499.715363 360.782655 
L 499.715363 357.525163 
L 507.834922 357.525163 
L 507.834922 353.85475 
L 517.578394 353.85475 
L 517.578394 351.116163 
L 530.569689 351.116163 
L 530.569689 347.285169 
L 538.689249 347.285169 
L 538.689249 343.591815 
L 556.55228 343.591815 
L 556.55228 340.609605 
L 556.55228 340.609605 
L 556.55228 336.916251 
L 561.424016 336.916251 
L 561.424016 335.230155 
L 572.791399 335.230155 
L 572.791399 334.197851 
L 580.910959 334.197851 
L 580.910959 330.366858 
L 593.902254 330.366858 
L 593.902254 326.604684 
L 600.397902 326.604684 
L 600.397902 325.744431 
L 603.645725 325.744431 
L 603.645725 324.712127 
L 618.260933 324.712127 
L 618.260933 323.198082 
L 636.123964 323.198082 
L 636.123964 321.936377 
L 640.995699 321.936377 
L 640.995699 321.127051 
L 660.482642 321.127051 
L 660.482642 319.750646 
L 665.354378 319.750646 
L 665.354378 319.521245 
L 673.473938 319.521245 
L 673.473938 319.016563 
L 673.473938 319.016563 
L 673.473938 318.07602 
L 675.09785 318.07602 
L 675.09785 314.245026 
L 692.960881 314.245026 
L 692.960881 310.414032 
L 696.208705 310.414032 
L 696.208705 310.322272 
L 697.832617 310.322272 
L 697.832617 310.322272 
" clip-path="url(#p1cbd0524ed)" style="fill: none; stroke: #ffa500; stroke-width: 1.5; stroke-linecap: square"/>
   </g>
   <g id="line2d_35">
    <path d="M 106.728679 455.7 
L 121.343886 455.7 
L 121.343886 454.323595 
L 129.463446 454.323595 
L 129.463446 453.463342 
L 134.335181 453.463342 
L 134.335181 452.46499 
L 135.959093 452.46499 
L 135.959093 449.023977 
L 147.326477 449.023977 
L 147.326477 445.032403 
L 155.446036 445.032403 
L 155.446036 441.54551 
L 158.69386 441.54551 
L 158.69386 437.760396 
L 166.81342 437.760396 
L 166.81342 436.809301 
L 174.932979 436.809301 
L 174.932979 432.886546 
L 183.052539 432.886546 
L 183.052539 429.239073 
L 184.676451 429.239073 
L 184.676451 427.984251 
L 199.291658 427.984251 
L 199.291658 424.474418 
L 204.163394 424.474418 
L 204.163394 421.492207 
L 205.787306 421.492207 
L 205.787306 417.844734 
L 215.530777 417.844734 
L 215.530777 416.468329 
L 225.274249 416.468329 
L 225.274249 415.814078 
L 228.522073 415.814078 
L 228.522073 410.491979 
L 239.889456 410.491979 
L 239.889456 406.500404 
L 248.009016 406.500404 
L 248.009016 402.50883 
L 262.624223 402.50883 
L 262.624223 401.226938 
L 282.111166 401.226938 
L 282.111166 397.717106 
L 295.102461 397.717106 
L 295.102461 394.482554 
L 296.726373 394.482554 
L 296.726373 393.54201 
L 301.598109 393.54201 
L 301.598109 392.073845 
L 306.469845 392.073845 
L 306.469845 388.082271 
L 316.213316 388.082271 
L 316.213316 384.434798 
L 322.708964 384.434798 
L 322.708964 380.443223 
L 330.828523 380.443223 
L 330.828523 376.74987 
L 332.452435 376.74987 
L 332.452435 375.235824 
L 334.076347 375.235824 
L 334.076347 372.253614 
L 343.819819 372.253614 
L 343.819819 371.22131 
L 350.315466 371.22131 
L 350.315466 367.459136 
L 356.811114 367.459136 
L 356.811114 363.765783 
L 358.435026 363.765783 
L 358.435026 363.007843 
L 369.802409 363.007843 
L 369.802409 359.245669 
L 369.802409 359.245669 
L 379.545881 359.245669 
L 379.545881 358.195013 
L 386.041528 358.195013 
L 386.041528 354.868701 
L 387.66544 354.868701 
L 387.66544 350.877127 
L 400.656736 350.877127 
L 400.656736 350.381621 
L 410.400207 350.381621 
L 410.400207 346.963549 
L 415.271943 346.963549 
L 415.271943 343.270195 
L 425.015415 343.270195 
L 425.015415 339.439202 
L 431.511062 339.439202 
L 431.511062 336.686392 
L 438.00671 336.686392 
L 438.00671 332.993038 
L 444.502358 332.993038 
L 444.502358 329.299685 
L 446.126269 329.299685 
L 446.126269 327.189197 
L 454.245829 327.189197 
L 454.245829 326.027741 
L 460.741477 326.027741 
L 460.741477 322.334388 
L 462.365389 322.334388 
L 462.365389 319.581578 
L 467.237124 319.581578 
L 467.237124 315.888224 
L 476.980596 315.888224 
L 476.980596 312.194871 
L 485.100155 312.194871 
L 485.100155 308.685038 
L 491.595803 308.685038 
L 491.595803 305.702828 
L 493.219715 305.702828 
L 493.219715 302.009474 
L 501.339275 302.009474 
L 501.339275 298.316121 
L 506.21101 298.316121 
L 506.21101 294.806288 
L 514.33057 294.806288 
L 514.33057 291.112935 
L 519.202306 291.112935 
L 519.202306 287.603102 
L 525.697953 287.603102 
L 525.697953 283.909749 
L 532.193601 283.909749 
L 532.193601 280.216396 
L 538.689249 280.216396 
L 538.689249 276.523042 
L 540.313161 276.523042 
L 540.313161 273.01321 
L 548.43272 273.01321 
L 548.43272 269.319856 
L 556.55228 269.319856 
L 556.55228 265.626503 
L 563.047927 265.626503 
L 563.047927 262.11667 
L 569.543575 262.11667 
L 569.543575 257.82504 
L 577.663135 257.82504 
L 577.663135 254.131686 
L 582.53487 254.131686 
L 582.53487 250.621854 
L 584.158782 250.621854 
L 584.158782 246.76792 
L 595.526166 246.76792 
L 595.526166 243.074566 
L 597.150078 243.074566 
L 597.150078 239.220632 
L 605.269637 239.220632 
L 605.269637 235.366699 
L 611.765285 235.366699 
L 611.765285 231.512765 
L 615.013109 231.512765 
L 615.013109 229.327722 
L 618.260933 229.327722 
L 618.260933 228.387178 
L 628.004404 228.387178 
L 628.004404 224.533244 
L 628.004404 224.533244 
L 631.252228 224.533244 
L 631.252228 220.839891 
L 634.500052 220.839891 
L 634.500052 216.985957 
L 644.243523 216.985957 
L 644.243523 213.132023 
L 649.115259 213.132023 
L 649.115259 212.948503 
L 652.363083 212.948503 
L 652.363083 209.094569 
L 658.858731 209.094569 
L 658.858731 205.240635 
L 660.482642 205.240635 
L 660.482642 201.547282 
L 678.345674 201.547282 
L 678.345674 197.693348 
L 684.841321 197.693348 
L 684.841321 193.839414 
L 686.465233 193.839414 
L 686.465233 193.013571 
L 694.584793 193.013571 
L 694.584793 187.702942 
L 697.832617 187.702942 
L 697.832617 187.702942 
" clip-path="url(#p1cbd0524ed)" style="fill: none; stroke: #0000ff; stroke-width: 1.5; stroke-linecap: square"/>
   </g>
   <g id="line2d_36">
    <path d="M 106.728679 455.7 
L 109.976503 455.7 
L 109.976503 451.433145 
L 116.47215 451.433145 
L 116.47215 447.51039 
L 127.839534 447.51039 
L 127.839534 443.679397 
L 129.463446 443.679397 
L 129.463446 439.756642 
L 134.335181 439.756642 
L 134.335181 436.774432 
L 144.078653 436.774432 
L 144.078653 432.943438 
L 152.198212 432.943438 
L 152.198212 425.18969 
L 153.822124 425.18969 
L 153.822124 424.334942 
L 168.437332 424.334942 
L 168.437332 423.946337 
L 171.685155 423.946337 
L 171.685155 420.115344 
L 179.804715 420.115344 
L 179.804715 415.841377 
L 187.924275 415.841377 
L 187.924275 414.923773 
L 192.79601 414.923773 
L 192.79601 411.09278 
L 196.043834 411.09278 
L 196.043834 407.078265 
L 202.539482 407.078265 
L 202.539482 403.155511 
L 209.03513 403.155511 
L 209.03513 396.250546 
L 218.778601 396.250546 
L 218.778601 392.327792 
L 220.402513 392.327792 
L 220.402513 388.405038 
L 228.522073 388.405038 
L 228.522073 384.482284 
L 233.393808 384.482284 
L 233.393808 380.74305 
L 236.641632 380.74305 
L 236.641632 380.11885 
L 241.513368 380.11885 
L 241.513368 376.196096 
L 243.13728 376.196096 
L 243.13728 372.273342 
L 251.256839 372.273342 
L 251.256839 371.126338 
L 252.880751 371.126338 
L 252.880751 367.203584 
L 256.128575 367.203584 
L 256.128575 363.37259 
L 261.000311 363.37259 
L 261.000311 359.449836 
L 264.248135 359.449836 
L 264.248135 355.595902 
L 264.248135 355.595902 
L 269.11987 355.595902 
L 269.11987 351.673148 
L 270.743782 351.673148 
L 270.743782 351.397867 
L 273.991606 351.397867 
L 273.991606 347.475113 
L 280.487254 347.475113 
L 280.487254 343.552358 
L 282.111166 343.552358 
L 282.111166 339.629604 
L 290.230725 339.629604 
L 290.230725 335.70685 
L 298.350285 335.70685 
L 298.350285 331.417055 
L 304.845933 331.417055 
L 304.845933 331.072953 
L 306.469845 331.072953 
L 306.469845 327.150199 
L 311.34158 327.150199 
L 311.34158 323.227445 
L 314.589404 323.227445 
L 314.589404 319.304691 
L 317.837228 319.304691 
L 317.837228 315.565457 
L 322.708964 315.565457 
L 322.708964 311.642703 
L 324.332876 311.642703 
L 324.332876 307.90347 
L 330.828523 307.90347 
L 330.828523 303.980716 
L 338.948083 303.980716 
L 338.948083 300.057961 
L 340.571995 300.057961 
L 340.571995 296.135207 
L 347.067642 296.135207 
L 347.067642 291.673361 
L 353.56329 291.673361 
L 353.56329 287.750607 
L 360.058938 287.750607 
L 360.058938 284.011374 
L 364.930674 284.011374 
L 364.930674 276.441146 
L 382.793705 276.441146 
L 382.793705 272.701913 
L 384.417617 272.701913 
L 384.417617 271.554909 
L 389.289352 271.554909 
L 389.289352 267.723915 
L 390.913264 267.723915 
L 390.913264 263.984681 
L 392.537176 263.984681 
L 392.537176 262.837677 
L 395.785 262.837677 
L 395.785 258.914923 
L 405.528472 258.914923 
L 405.528472 255.175689 
L 413.648031 255.175689 
L 413.648031 254.200736 
L 444.502358 254.200736 
L 444.502358 250.277982 
L 446.126269 250.277982 
L 446.126269 242.570114 
L 454.245829 242.570114 
L 454.245829 238.64736 
L 457.493653 238.64736 
L 457.493653 233.839807 
L 467.237124 233.839807 
L 467.237124 230.054693 
L 470.484948 230.054693 
L 470.484948 224.473371 
L 475.356684 224.473371 
L 475.356684 224.12927 
L 483.476244 224.12927 
L 483.476244 220.298276 
L 496.467539 220.298276 
L 496.467539 216.467282 
L 501.339275 216.467282 
L 501.339275 208.805294 
L 509.458834 208.805294 
L 509.458834 204.9743 
L 517.578394 204.9743 
L 517.578394 201.99209 
L 520.826218 201.99209 
L 520.826218 200.271584 
L 522.45013 200.271584 
L 522.45013 196.44059 
L 528.945777 196.44059 
L 528.945777 196.073548 
L 533.817513 196.073548 
L 533.817513 192.334315 
L 541.937073 192.334315 
L 541.937073 188.595081 
L 546.808808 188.595081 
L 546.808808 185.612871 
L 561.424016 185.612871 
L 561.424016 185.358694 
L 572.791399 185.358694 
L 572.791399 183.967378 
L 574.415311 183.967378 
L 574.415311 176.305391 
L 579.287047 176.305391 
L 579.287047 172.566157 
L 582.53487 172.566157 
L 582.53487 171.888507 
L 587.406606 171.888507 
L 587.406606 167.965753 
L 592.278342 167.965753 
L 592.278342 164.134759 
L 598.77399 164.134759 
L 598.77399 156.472772 
L 608.517461 156.472772 
L 608.517461 155.839167 
L 611.765285 155.839167 
L 611.765285 151.916412 
L 615.013109 151.916412 
L 615.013109 148.177179 
L 618.260933 148.177179 
L 618.260933 143.268001 
L 623.132668 143.268001 
L 623.132668 135.514253 
L 628.004404 135.514253 
L 628.004404 134.59665 
L 629.628316 134.59665 
L 629.628316 129.779232 
L 634.500052 129.779232 
L 634.500052 125.764718 
L 639.371788 125.764718 
L 639.371788 122.025484 
L 640.995699 122.025484 
L 640.995699 118.10273 
L 644.243523 118.10273 
L 644.243523 114.088216 
L 649.115259 114.088216 
L 649.115259 106.380348 
L 655.610907 106.380348 
L 655.610907 102.365834 
L 657.234819 102.365834 
L 657.234819 97.020794 
L 662.106554 97.020794 
L 662.106554 93.09804 
L 670.226114 93.09804 
L 670.226114 89.267046 
L 676.721762 89.267046 
L 676.721762 87.48919 
L 683.217409 87.48919 
L 683.217409 87.305669 
L 686.465233 87.305669 
L 686.465233 83.520556 
L 696.208705 83.520556 
L 696.208705 79.32252 
L 699.456528 79.32252 
L 699.456528 79.32252 
L 699.456528 75.537407 
L 699.456528 75.537407 
" clip-path="url(#p1cbd0524ed)" style="fill: none; stroke: #008000; stroke-width: 1.5; stroke-linecap: square"/>
   </g>
   <g id="line2d_37">
    <path d="M 106.728679 455.7 
L 111.600415 455.7 
L 111.600415 454.552996 
L 114.848238 454.552996 
L 114.848238 450.538481 
L 118.096062 450.538481 
L 118.096062 446.753368 
L 121.343886 446.753368 
L 121.343886 446.753368 
L 121.343886 442.968254 
L 126.215622 442.968254 
L 126.215622 439.18314 
L 127.839534 439.18314 
L 127.839534 438.724339 
L 129.463446 438.724339 
L 129.463446 438.146937 
L 139.206917 438.146937 
L 139.206917 431.081391 
L 144.078653 431.081391 
L 144.078653 427.158637 
L 148.950389 427.158637 
L 148.950389 423.373524 
L 153.822124 423.373524 
L 153.822124 421.974178 
L 157.069948 421.974178 
L 157.069948 418.143185 
L 161.941684 418.143185 
L 161.941684 414.01397 
L 168.437332 414.01397 
L 168.437332 410.228856 
L 173.309067 410.228856 
L 173.309067 402.520988 
L 179.804715 402.520988 
L 179.804715 398.735875 
L 184.676451 398.735875 
L 184.676451 394.81312 
L 189.548187 394.81312 
L 189.548187 390.890366 
L 192.79601 390.890366 
L 192.79601 387.036432 
L 199.291658 387.036432 
L 199.291658 387.036432 
L 199.291658 383.251319 
L 205.787306 383.251319 
L 205.787306 379.466205 
L 220.402513 379.466205 
L 220.402513 379.292319 
L 222.026425 379.292319 
L 222.026425 375.507206 
L 223.650337 375.507206 
L 223.650337 372.524995 
L 225.274249 372.524995 
L 225.274249 372.524995 
L 225.274249 368.602241 
L 230.145984 368.602241 
L 230.145984 364.679486 
L 243.13728 364.679486 
L 243.13728 361.123774 
L 251.256839 361.123774 
L 251.256839 357.43042 
L 252.880751 357.43042 
L 252.880751 354.44821 
L 257.752487 354.44821 
L 257.752487 350.892497 
L 261.000311 350.892497 
L 261.000311 347.199143 
L 262.624223 347.199143 
L 262.624223 343.643431 
L 272.367694 343.643431 
L 272.367694 339.858317 
L 273.991606 339.858317 
L 273.991606 336.302604 
L 285.35899 336.302604 
L 285.35899 335.609584 
L 291.854637 335.609584 
L 291.854637 331.916231 
L 296.726373 331.916231 
L 296.726373 324.437764 
L 298.350285 324.437764 
L 298.350285 320.51501 
L 303.222021 320.51501 
L 303.222021 316.821656 
L 306.469845 316.821656 
L 306.469845 312.996398 
L 311.34158 312.996398 
L 311.34158 309.303044 
L 316.213316 309.303044 
L 316.213316 302.180149 
L 321.085052 302.180149 
L 321.085052 295.057253 
L 322.708964 295.057253 
L 322.708964 291.363899 
L 325.956788 291.363899 
L 325.956788 287.934357 
L 334.076347 287.934357 
L 334.076347 284.011603 
L 337.324171 284.011603 
L 337.324171 280.45589 
L 338.948083 280.45589 
L 338.948083 276.533136 
L 343.819819 276.533136 
L 343.819819 272.518621 
L 343.819819 272.518621 
L 345.443731 272.518621 
L 345.443731 268.962909 
L 348.691554 268.962909 
L 348.691554 267.965015 
L 350.315466 267.965015 
L 350.315466 264.409302 
L 355.187202 264.409302 
L 355.187202 260.486548 
L 356.811114 260.486548 
L 356.811114 256.930835 
L 361.68285 256.930835 
L 361.68285 255.46267 
L 363.306762 255.46267 
L 363.306762 252.033128 
L 366.554585 252.033128 
L 366.554585 248.110373 
L 371.426321 248.110373 
L 371.426321 240.758077 
L 377.921969 240.758077 
L 377.921969 237.328534 
L 379.545881 237.328534 
L 379.545881 233.635181 
L 387.66544 233.635181 
L 387.66544 230.079468 
L 387.66544 230.079468 
L 390.913264 230.079468 
L 390.913264 223.541545 
L 395.785 223.541545 
L 395.785 216.556289 
L 400.656736 216.556289 
L 400.656736 215.684566 
L 402.280648 215.684566 
L 402.280648 212.128854 
L 412.024119 212.128854 
L 412.024119 208.4355 
L 420.143679 208.4355 
L 420.143679 207.517897 
L 425.015415 207.517897 
L 425.015415 200.696893 
L 429.88715 200.696893 
L 429.88715 196.682378 
L 434.758886 196.682378 
L 434.758886 195.902415 
L 436.382798 195.902415 
L 436.382798 195.691367 
L 441.254534 195.691367 
L 441.254534 191.998013 
L 442.878446 191.998013 
L 442.878446 187.983499 
L 447.750181 187.983499 
L 447.750181 184.290145 
L 449.374093 184.290145 
L 449.374093 181.06477 
L 450.998005 181.06477 
L 450.998005 178.082559 
L 455.869741 178.082559 
L 455.869741 174.389206 
L 467.237124 174.389206 
L 467.237124 170.997744 
L 472.10886 170.997744 
L 472.10886 163.289876 
L 478.604508 163.289876 
L 478.604508 159.275362 
L 485.100155 159.275362 
L 485.100155 154.116137 
L 488.347979 154.116137 
L 488.347979 153.588515 
L 491.595803 153.588515 
L 491.595803 149.603823 
L 493.219715 149.603823 
L 493.219715 145.910469 
L 494.843627 145.910469 
L 494.843627 142.217116 
L 498.091451 142.217116 
L 498.091451 138.202601 
L 499.715363 138.202601 
L 499.715363 134.509248 
L 504.587098 134.509248 
L 504.587098 126.80138 
L 507.834922 126.80138 
L 507.834922 123.108027 
L 509.458834 123.108027 
L 509.458834 119.093513 
L 519.202306 119.093513 
L 519.202306 117.304186 
L 520.826218 117.304186 
L 520.826218 113.289672 
L 522.45013 113.289672 
L 522.45013 112.142667 
L 528.945777 112.142667 
L 528.945777 108.449314 
L 530.569689 108.449314 
L 530.569689 104.4348 
L 533.817513 104.4348 
L 533.817513 100.741446 
L 538.689249 100.741446 
L 538.689249 100.402621 
L 540.313161 100.402621 
L 540.313161 96.709268 
L 541.937073 96.709268 
L 541.937073 92.694753 
L 546.808808 92.694753 
L 546.808808 89.0014 
L 553.304456 89.0014 
L 553.304456 85.308047 
L 559.800104 85.308047 
L 559.800104 81.614693 
L 561.424016 81.614693 
L 561.424016 77.92134 
L 569.543575 77.92134 
L 569.543575 74.250927 
L 571.167487 74.250927 
L 571.167487 70.859465 
L 574.415311 70.859465 
L 574.415311 67.166112 
L 579.287047 67.166112 
L 579.287047 59.779405 
L 584.158782 59.779405 
L 584.158782 56.086052 
L 587.406606 56.086052 
L 587.406606 54.686707 
L 589.030518 54.686707 
L 589.030518 50.993353 
L 590.65443 50.993353 
L 590.65443 47.3 
L 592.278342 47.3 
L 592.278342 47.3 
" clip-path="url(#p1cbd0524ed)" style="fill: none; stroke: #ff0000; stroke-width: 1.5; stroke-linecap: square"/>
   </g>
   <g id="patch_3">
    <path d="M 82.37 476.12 
L 82.37 26.88 
" style="fill: none; stroke: #000000; stroke-width: 0.8; stroke-linejoin: miter; stroke-linecap: square"/>
   </g>
   <g id="patch_4">
    <path d="M 709.2 476.12 
L 709.2 26.88 
" style="fill: none; stroke: #000000; stroke-width: 0.8; stroke-linejoin: miter; stroke-linecap: square"/>
   </g>
   <g id="patch_5">
    <path d="M 82.37 476.12 
L 709.2 476.12 
" style="fill: none; stroke: #000000; stroke-width: 0.8; stroke-linejoin: miter; stroke-linecap: square"/>
   </g>
   <g id="patch_6">
    <path d="M 82.37 26.88 
L 709.2 26.88 
" style="fill: none; stroke: #000000; stroke-width: 0.8; stroke-linejoin: miter; stroke-linecap: square"/>
   </g>
   <g id="text_16">
    <!-- Cumulative Payload Mass to Orbit By Year -->
    <g transform="translate(270.179688 20.88) scale(0.12 -0.12)">
     <defs>
      <path id="DejaVuSans-4f" d="M 2522 4238 
Q 1834 4238 1429 3725 
Q 1025 3213 1025 2328 
Q 1025 1447 1429 934 
Q 1834 422 2522 422 
Q 3209 422 3611 934 
Q 4013 1447 4013 2328 
Q 4013 3213 3611 3725 
Q 3209 4238 2522 4238 
z
M 2522 4750 
Q 3503 4750 4090 4092 
Q 4678 3434 4678 2328 
Q 4678 1225 4090 567 
Q 3503 -91 2522 -91 
Q 1538 -91 948 565 
Q 359 1222 359 2328 
Q 359 3434 948 4092 
Q 1538 4750 2522 4750 
z
" transform="scale(0.015625)"/>
      <path id="DejaVuSans-62" d="M 3116 1747 
Q 3116 2381 2855 2742 
Q 2594 3103 2138 3103 
Q 1681 3103 1420 2742 
Q 1159 2381 1159 1747 
Q 1159 1113 1420 752 
Q 1681 391 2138 391 
Q 2594 391 2855 752 
Q 3116 1113 3116 1747 
z
M 1159 2969 
Q 1341 3281 1617 3432 
Q 1894 3584 2278 3584 
Q 2916 3584 3314 3078 
Q 3713 2572 3713 1747 
Q 3713 922 3314 415 
Q 2916 -91 2278 -91 
Q 1894 -91 1617 61 
Q 1341 213 1159 525 
L 1159 0 
L 581 0 
L 581 4863 
L 1159 4863 
L 1159 2969 
z
" transform="scale(0.015625)"/>
      <path id="DejaVuSans-42" d="M 1259 2228 
L 1259 519 
L 2272 519 
Q 2781 519 3026 730 
Q 3272 941 3272 1375 
Q 3272 1813 3026 2020 
Q 2781 2228 2272 2228 
L 1259 2228 
z
M 1259 4147 
L 1259 2741 
L 2194 2741 
Q 2656 2741 2882 2914 
Q 3109 3088 3109 3444 
Q 3109 3797 2882 3972 
Q 2656 4147 2194 4147 
L 1259 4147 
z
M 628 4666 
L 2241 4666 
Q 2963 4666 3353 4366 
Q 3744 4066 3744 3513 
Q 3744 3084 3544 2831 
Q 3344 2578 2956 2516 
Q 3422 2416 3680 2098 
Q 3938 1781 3938 1306 
Q 3938 681 3513 340 
Q 3088 0 2303 0 
L 628 0 
L 628 4666 
z
" transform="scale(0.015625)"/>
      <path id="DejaVuSans-59" d="M -13 4666 
L 666 4666 
L 1959 2747 
L 3244 4666 
L 3922 4666 
L 2272 2222 
L 2272 0 
L 1638 0 
L 1638 2222 
L -13 4666 
z
" transform="scale(0.015625)"/>
     </defs>
     <use xlink:href="#DejaVuSans-43"/>
     <use xlink:href="#DejaVuSans-75" x="69.824219"/>
     <use xlink:href="#DejaVuSans-6d" x="133.203125"/>
     <use xlink:href="#DejaVuSans-75" x="230.615234"/>
     <use xlink:href="#DejaVuSans-6c" x="293.994141"/>
     <use xlink:href="#DejaVuSans-61" x="321.777344"/>
     <use xlink:href="#DejaVuSans-74" x="383.056641"/>
     <use xlink:href="#DejaVuSans-69" x="422.265625"/>
     <use xlink:href="#DejaVuSans-76" x="450.048828"/>
     <use xlink:href="#DejaVuSans-65" x="509.228516"/>
     <use xlink:href="#DejaVuSans-20" x="570.751953"/>
     <use xlink:href="#DejaVuSans-50" x="602.539062"/>
     <use xlink:href="#DejaVuSans-61" x="658.341797"/>
     <use xlink:href="#DejaVuSans-79" x="719.621094"/>
     <use xlink:href="#DejaVuSans-6c" x="778.800781"/>
     <use xlink:href="#DejaVuSans-6f" x="806.583984"/>
     <use xlink:href="#DejaVuSans-61" x="867.765625"/>
     <use xlink:href="#DejaVuSans-64" x="929.044922"/>
     <use xlink:href="#DejaVuSans-20" x="992.521484"/>
     <use xlink:href="#DejaVuSans-4d" x="1024.308594"/>
     <use xlink:href="#DejaVuSans-61" x="1110.587891"/>
     <use xlink:href="#DejaVuSans-73" x="1171.867188"/>
     <use xlink:href="#DejaVuSans-73" x="1223.966797"/>
     <use xlink:href="#DejaVuSans-20" x="1276.066406"/>
     <use xlink:href="#DejaVuSans-74" x="1307.853516"/>
     <use xlink:href="#DejaVuSans-6f" x="1347.0625"/>
     <use xlink:href="#DejaVuSans-20" x="1408.244141"/>
     <use xlink:href="#DejaVuSans-4f" x="1440.03125"/>
     <use xlink:href="#DejaVuSans-72" x="1518.742188"/>
     <use xlink:href="#DejaVuSans-62" x="1559.855469"/>
     <use xlink:href="#DejaVuSans-69" x="1623.332031"/>
     <use xlink:href="#DejaVuSans-74" x="1651.115234"/>
     <use xlink:href="#DejaVuSans-20" x="1690.324219"/>
     <use xlink:href="#DejaVuSans-42" x="1722.111328"/>
     <use xlink:href="#DejaVuSans-79" x="1790.714844"/>
     <use xlink:href="#DejaVuSans-20" x="1849.894531"/>
     <use xlink:href="#DejaVuSans-59" x="1881.681641"/>
     <use xlink:href="#DejaVuSans-65" x="1929.515625"/>
     <use xlink:href="#DejaVuSans-61" x="1991.039062"/>
     <use xlink:href="#DejaVuSans-72" x="2052.318359"/>
    </g>
   </g>
   <g id="legend_1">
    <g id="patch_7">
     <path d="M 89.37 181.66125 
L 146.82 181.66125 
Q 148.82 181.66125 148.82 179.66125 
L 148.82 33.88 
Q 148.82 31.88 146.82 31.88 
L 89.37 31.88 
Q 87.37 31.88 87.37 33.88 
L 87.37 179.66125 
Q 87.37 181.66125 89.37 181.66125 
z
" style="fill: #ffffff; opacity: 0.8; stroke: #cccccc; stroke-linejoin: miter"/>
    </g>
    <g id="text_17">
     <!-- Year -->
     <g transform="translate(107.5075 43.478437) scale(0.1 -0.1)">
      <use xlink:href="#DejaVuSans-59"/>
      <use xlink:href="#DejaVuSans-65" x="47.833984"/>
      <use xlink:href="#DejaVuSans-61" x="109.357422"/>
      <use xlink:href="#DejaVuSans-72" x="170.636719"/>
     </g>
    </g>
    <g id="line2d_38">
     <path d="M 91.37 54.656562 
L 101.37 54.656562 
L 101.37 54.656562 
L 111.37 54.656562 
L 111.37 54.656562 
" style="fill: none; stroke: #808080; stroke-width: 1.5; stroke-linecap: square"/>
    </g>
    <g id="text_18">
     <!-- 2017 -->
     <g transform="translate(119.37 58.156562) scale(0.1 -0.1)">
      <use xlink:href="#DejaVuSans-32"/>
      <use xlink:href="#DejaVuSans-30" x="63.623047"/>
      <use xlink:href="#DejaVuSans-31" x="127.246094"/>
      <use xlink:href="#DejaVuSans-37" x="190.869141"/>
     </g>
    </g>
    <g id="line2d_39">
     <path d="M 91.37 69.334687 
L 101.37 69.334687 
L 101.37 69.334687 
L 111.37 69.334687 
L 111.37 69.334687 
" style="fill: none; stroke: #90ee90; stroke-width: 1.5; stroke-linecap: square"/>
    </g>
    <g id="text_19">
     <!-- 2018 -->
     <g transform="translate(119.37 72.834687) scale(0.1 -0.1)">
      <defs>
       <path id="DejaVuSans-38" d="M 2034 2216 
Q 1584 2216 1326 1975 
Q 1069 1734 1069 1313 
Q 1069 891 1326 650 
Q 1584 409 2034 409 
Q 2484 409 2743 651 
Q 3003 894 3003 1313 
Q 3003 1734 2745 1975 
Q 2488 2216 2034 2216 
z
M 1403 2484 
Q 997 2584 770 2862 
Q 544 3141 544 3541 
Q 544 4100 942 4425 
Q 1341 4750 2034 4750 
Q 2731 4750 3128 4425 
Q 3525 4100 3525 3541 
Q 3525 3141 3298 2862 
Q 3072 2584 2669 2484 
Q 3125 2378 3379 2068 
Q 3634 1759 3634 1313 
Q 3634 634 3220 271 
Q 2806 -91 2034 -91 
Q 1263 -91 848 271 
Q 434 634 434 1313 
Q 434 1759 690 2068 
Q 947 2378 1403 2484 
z
M 1172 3481 
Q 1172 3119 1398 2916 
Q 1625 2713 2034 2713 
Q 2441 2713 2670 2916 
Q 2900 3119 2900 3481 
Q 2900 3844 2670 4047 
Q 2441 4250 2034 4250 
Q 1625 4250 1398 4047 
Q 1172 3844 1172 3481 
z
" transform="scale(0.015625)"/>
      </defs>
      <use xlink:href="#DejaVuSans-32"/>
      <use xlink:href="#DejaVuSans-30" x="63.623047"/>
      <use xlink:href="#DejaVuSans-31" x="127.246094"/>
      <use xlink:href="#DejaVuSans-38" x="190.869141"/>
     </g>
    </g>
    <g id="line2d_40">
     <path d="M 91.37 84.012812 
L 101.37 84.012812 
L 101.37 84.012812 
L 111.37 84.012812 
L 111.37 84.012812 
" style="fill: none; stroke: #add8e6; stroke-width: 1.5; stroke-linecap: square"/>
    </g>
    <g id="text_20">
     <!-- 2019 -->
     <g transform="translate(119.37 87.512812) scale(0.1 -0.1)">
      <defs>
       <path id="DejaVuSans-39" d="M 703 97 
L 703 672 
Q 941 559 1184 500 
Q 1428 441 1663 441 
Q 2288 441 2617 861 
Q 2947 1281 2994 2138 
Q 2813 1869 2534 1725 
Q 2256 1581 1919 1581 
Q 1219 1581 811 2004 
Q 403 2428 403 3163 
Q 403 3881 828 4315 
Q 1253 4750 1959 4750 
Q 2769 4750 3195 4129 
Q 3622 3509 3622 2328 
Q 3622 1225 3098 567 
Q 2575 -91 1691 -91 
Q 1453 -91 1209 -44 
Q 966 3 703 97 
z
M 1959 2075 
Q 2384 2075 2632 2365 
Q 2881 2656 2881 3163 
Q 2881 3666 2632 3958 
Q 2384 4250 1959 4250 
Q 1534 4250 1286 3958 
Q 1038 3666 1038 3163 
Q 1038 2656 1286 2365 
Q 1534 2075 1959 2075 
z
" transform="scale(0.015625)"/>
      </defs>
      <use xlink:href="#DejaVuSans-32"/>
      <use xlink:href="#DejaVuSans-30" x="63.623047"/>
      <use xlink:href="#DejaVuSans-31" x="127.246094"/>
      <use xlink:href="#DejaVuSans-39" x="190.869141"/>
     </g>
    </g>
    <g id="line2d_41">
     <path d="M 91.37 98.690937 
L 101.37 98.690937 
L 101.37 98.690937 
L 111.37 98.690937 
L 111.37 98.690937 
" style="fill: none; stroke: #ffc0cb; stroke-width: 1.5; stroke-linecap: square"/>
    </g>
    <g id="text_21">
     <!-- 2020 -->
     <g transform="translate(119.37 102.190937) scale(0.1 -0.1)">
      <use xlink:href="#DejaVuSans-32"/>
      <use xlink:href="#DejaVuSans-30" x="63.623047"/>
      <use xlink:href="#DejaVuSans-32" x="127.246094"/>
      <use xlink:href="#DejaVuSans-30" x="190.869141"/>
     </g>
    </g>
    <g id="line2d_42">
     <path d="M 91.37 113.369062 
L 101.37 113.369062 
L 101.37 113.369062 
L 111.37 113.369062 
L 111.37 113.369062 
" style="fill: none; stroke: #800080; stroke-width: 1.5; stroke-linecap: square"/>
    </g>
    <g id="text_22">
     <!-- 2021 -->
     <g transform="translate(119.37 116.869062) scale(0.1 -0.1)">
      <use xlink:href="#DejaVuSans-32"/>
      <use xlink:href="#DejaVuSans-30" x="63.623047"/>
      <use xlink:href="#DejaVuSans-32" x="127.246094"/>
      <use xlink:href="#DejaVuSans-31" x="190.869141"/>
     </g>
    </g>
    <g id="line2d_43">
     <path d="M 91.37 128.047187 
L 101.37 128.047187 
L 101.37 128.047187 
L 111.37 128.047187 
L 111.37 128.047187 
" style="fill: none; stroke: #ffa500; stroke-width: 1.5; stroke-linecap: square"/>
    </g>
    <g id="text_23">
     <!-- 2022 -->
     <g transform="translate(119.37 131.547187) scale(0.1 -0.1)">
      <use xlink:href="#DejaVuSans-32"/>
      <use xlink:href="#DejaVuSans-30" x="63.623047"/>
      <use xlink:href="#DejaVuSans-32" x="127.246094"/>
      <use xlink:href="#DejaVuSans-32" x="190.869141"/>
     </g>
    </g>
    <g id="line2d_44">
     <path d="M 91.37 142.725312 
L 101.37 142.725312 
L 101.37 142.725312 
L 111.37 142.725312 
L 111.37 142.725312 
" style="fill: none; stroke: #0000ff; stroke-width: 1.5; stroke-linecap: square"/>
    </g>
    <g id="text_24">
     <!-- 2023 -->
     <g transform="translate(119.37 146.225312) scale(0.1 -0.1)">
      <defs>
       <path id="DejaVuSans-33" d="M 2597 2516 
Q 3050 2419 3304 2112 
Q 3559 1806 3559 1356 
Q 3559 666 3084 287 
Q 2609 -91 1734 -91 
Q 1441 -91 1130 -33 
Q 819 25 488 141 
L 488 750 
Q 750 597 1062 519 
Q 1375 441 1716 441 
Q 2309 441 2620 675 
Q 2931 909 2931 1356 
Q 2931 1769 2642 2001 
Q 2353 2234 1838 2234 
L 1294 2234 
L 1294 2753 
L 1863 2753 
Q 2328 2753 2575 2939 
Q 2822 3125 2822 3475 
Q 2822 3834 2567 4026 
Q 2313 4219 1838 4219 
Q 1578 4219 1281 4162 
Q 984 4106 628 3988 
L 628 4550 
Q 988 4650 1302 4700 
Q 1616 4750 1894 4750 
Q 2613 4750 3031 4423 
Q 3450 4097 3450 3541 
Q 3450 3153 3228 2886 
Q 3006 2619 2597 2516 
z
" transform="scale(0.015625)"/>
      </defs>
      <use xlink:href="#DejaVuSans-32"/>
      <use xlink:href="#DejaVuSans-30" x="63.623047"/>
      <use xlink:href="#DejaVuSans-32" x="127.246094"/>
      <use xlink:href="#DejaVuSans-33" x="190.869141"/>
     </g>
    </g>
    <g id="line2d_45">
     <path d="M 91.37 157.403437 
L 101.37 157.403437 
L 101.37 157.403437 
L 111.37 157.403437 
L 111.37 157.403437 
" style="fill: none; stroke: #008000; stroke-width: 1.5; stroke-linecap: square"/>
    </g>
    <g id="text_25">
     <!-- 2024 -->
     <g transform="translate(119.37 160.903437) scale(0.1 -0.1)">
      <defs>
       <path id="DejaVuSans-34" d="M 2419 4116 
L 825 1625 
L 2419 1625 
L 2419 4116 
z
M 2253 4666 
L 3047 4666 
L 3047 1625 
L 3713 1625 
L 3713 1100 
L 3047 1100 
L 3047 0 
L 2419 0 
L 2419 1100 
L 313 1100 
L 313 1709 
L 2253 4666 
z
" transform="scale(0.015625)"/>
      </defs>
      <use xlink:href="#DejaVuSans-32"/>
      <use xlink:href="#DejaVuSans-30" x="63.623047"/>
      <use xlink:href="#DejaVuSans-32" x="127.246094"/>
      <use xlink:href="#DejaVuSans-34" x="190.869141"/>
     </g>
    </g>
    <g id="line2d_46">
     <path d="M 91.37 172.081562 
L 101.37 172.081562 
L 101.37 172.081562 
L 111.37 172.081562 
L 111.37 172.081562 
" style="fill: none; stroke: #ff0000; stroke-width: 1.5; stroke-linecap: square"/>
    </g>
    <g id="text_26">
     <!-- 2025 -->
     <g transform="translate(119.37 175.581562) scale(0.1 -0.1)">
      <use xlink:href="#DejaVuSans-32"/>
      <use xlink:href="#DejaVuSans-30" x="63.623047"/>
      <use xlink:href="#DejaVuSans-32" x="127.246094"/>
      <use xlink:href="#DejaVuSans-35" x="190.869141"/>
     </g>
    </g>
   </g>
  </g>
 </g>
 <defs>
  <clipPath id="p1cbd0524ed">
   <rect x="82.37" y="26.88" width="626.83" height="449.24"/>
  </clipPath>
 </defs>
</svg>
