<?xml version="1.0" encoding="utf-8" standalone="no"?>
<!DOCTYPE svg PUBLIC "-//W3C//DTD SVG 1.1//EN"
  "http://www.w3.org/Graphics/SVG/1.1/DTD/svg11.dtd">
<svg xmlns:xlink="http://www.w3.org/1999/xlink" width="720pt" height="504pt" viewBox="0 0 720 504" xmlns="http://www.w3.org/2000/svg" version="1.1">
 <metadata>
  <rdf:RDF xmlns:dc="http://purl.org/dc/elements/1.1/" xmlns:cc="http://creativecommons.org/ns#" xmlns:rdf="http://www.w3.org/1999/02/22-rdf-syntax-ns#">
   <cc:Work>
    <dc:type rdf:resource="http://purl.org/dc/dcmitype/StillImage"/>
    <dc:date>2025-12-08T11:28:38.108011</dc:date>
    <dc:format>image/svg+xml</dc:format>
    <dc:creator>
     <cc:Agent>
      <dc:title>Matplotlib v3.8.2, https://matplotlib.org/</dc:title>
     </cc:Agent>
    </dc:creator>
   </cc:Work>
  </rdf:RDF>
 </metadata>
 <defs>
  <style type="text/css">*{stroke-linejoin: round; stroke-linecap: butt}</style>
 </defs>
 <g id="figure_1">
  <g id="patch_1">
   <path d="M 0 504 
L 720 504 
L 720 0 
L 0 0 
z
" style="fill: #ffffff"/>
  </g>
  <g id="axes_1">
   <g id="patch_2">
    <path d="M 82.37 476.12 
L 709.2 476.12 
L 709.2 26.88 
L 82.37 26.88 
z
" style="fill: #ffffff"/>
   </g>
   <g id="matplotlib.axis_1">
    <g id="xtick_1">
     <g id="line2d_1">
      <path d="M 106.728679 476.12 
L 106.728679 26.88 
" clip-path="url(#p53ef7e064d)" style="fill: none; stroke: #b0b0b0; stroke-width: 0.8; stroke-linecap: square"/>
     </g>
     <g id="line2d_2">
      <defs>
       <path id="me99e68552d" d="M 0 0 
L 0 3.5 
" style="stroke: #000000; stroke-width: 0.8"/>
      </defs>
      <g>
       <use xlink:href="#me99e68552d" x="106.728679" y="476.12" style="stroke: #000000; stroke-width: 0.8"/>
      </g>
     </g>
     <g id="text_1">
      <!-- Jan 1 -->
      <g transform="translate(94.250554 490.718437) scale(0.1 -0.1)">
       <defs>
        <path id="DejaVuSans-4a" d="M 628 4666 
L 1259 4666 
L 1259 325 
Q 1259 -519 939 -900 
Q 619 -1281 -91 -1281 
L -331 -1281 
L -331 -750 
L -134 -750 
Q 284 -750 456 -515 
Q 628 -281 628 325 
L 628 4666 
z
" transform="scale(0.015625)"/>
        <path id="DejaVuSans-61" d="M 2194 1759 
Q 1497 1759 1228 1600 
Q 959 1441 959 1056 
Q 959 750 1161 570 
Q 1363 391 1709 391 
Q 2188 391 2477 730 
Q 2766 1069 2766 1631 
L 2766 1759 
L 2194 1759 
z
M 3341 1997 
L 3341 0 
L 2766 0 
L 2766 531 
Q 2569 213 2275 61 
Q 1981 -91 1556 -91 
Q 1019 -91 701 211 
Q 384 513 384 1019 
Q 384 1609 779 1909 
Q 1175 2209 1959 2209 
L 2766 2209 
L 2766 2266 
Q 2766 2663 2505 2880 
Q 2244 3097 1772 3097 
Q 1472 3097 1187 3025 
Q 903 2953 641 2809 
L 641 3341 
Q 956 3463 1253 3523 
Q 1550 3584 1831 3584 
Q 2591 3584 2966 3190 
Q 3341 2797 3341 1997 
z
" transform="scale(0.015625)"/>
        <path id="DejaVuSans-6e" d="M 3513 2113 
L 3513 0 
L 2938 0 
L 2938 2094 
Q 2938 2591 2744 2837 
Q 2550 3084 2163 3084 
Q 1697 3084 1428 2787 
Q 1159 2491 1159 1978 
L 1159 0 
L 581 0 
L 581 3500 
L 1159 3500 
L 1159 2956 
Q 1366 3272 1645 3428 
Q 1925 3584 2291 3584 
Q 2894 3584 3203 3211 
Q 3513 2838 3513 2113 
z
" transform="scale(0.015625)"/>
        <path id="DejaVuSans-20" transform="scale(0.015625)"/>
        <path id="DejaVuSans-31" d="M 794 531 
L 1825 531 
L 1825 4091 
L 703 3866 
L 703 4441 
L 1819 4666 
L 2450 4666 
L 2450 531 
L 3481 531 
L 3481 0 
L 794 0 
L 794 531 
z
" transform="scale(0.015625)"/>
       </defs>
       <use xlink:href="#DejaVuSans-4a"/>
       <use xlink:href="#DejaVuSans-61" x="29.492188"/>
       <use xlink:href="#DejaVuSans-6e" x="90.771484"/>
       <use xlink:href="#DejaVuSans-20" x="154.150391"/>
       <use xlink:href="#DejaVuSans-31" x="185.9375"/>
      </g>
     </g>
    </g>
    <g id="xtick_2">
     <g id="line2d_3">
      <path d="M 204.163394 476.12 
L 204.163394 26.88 
" clip-path="url(#p53ef7e064d)" style="fill: none; stroke: #b0b0b0; stroke-width: 0.8; stroke-linecap: square"/>
     </g>
     <g id="line2d_4">
      <g>
       <use xlink:href="#me99e68552d" x="204.163394" y="476.12" style="stroke: #000000; stroke-width: 0.8"/>
      </g>
     </g>
     <g id="text_2">
      <!-- Mar 1 -->
      <g transform="translate(189.959488 490.718437) scale(0.1 -0.1)">
       <defs>
        <path id="DejaVuSans-4d" d="M 628 4666 
L 1569 4666 
L 2759 1491 
L 3956 4666 
L 4897 4666 
L 4897 0 
L 4281 0 
L 4281 4097 
L 3078 897 
L 2444 897 
L 1241 4097 
L 1241 0 
L 628 0 
L 628 4666 
z
" transform="scale(0.015625)"/>
        <path id="DejaVuSans-72" d="M 2631 2963 
Q 2534 3019 2420 3045 
Q 2306 3072 2169 3072 
Q 1681 3072 1420 2755 
Q 1159 2438 1159 1844 
L 1159 0 
L 581 0 
L 581 3500 
L 1159 3500 
L 1159 2956 
Q 1341 3275 1631 3429 
Q 1922 3584 2338 3584 
Q 2397 3584 2469 3576 
Q 2541 3569 2628 3553 
L 2631 2963 
z
" transform="scale(0.015625)"/>
       </defs>
       <use xlink:href="#DejaVuSans-4d"/>
       <use xlink:href="#DejaVuSans-61" x="86.279297"/>
       <use xlink:href="#DejaVuSans-72" x="147.558594"/>
       <use xlink:href="#DejaVuSans-20" x="188.671875"/>
       <use xlink:href="#DejaVuSans-31" x="220.458984"/>
      </g>
     </g>
    </g>
    <g id="xtick_3">
     <g id="line2d_5">
      <path d="M 303.222021 476.12 
L 303.222021 26.88 
" clip-path="url(#p53ef7e064d)" style="fill: none; stroke: #b0b0b0; stroke-width: 0.8; stroke-linecap: square"/>
     </g>
     <g id="line2d_6">
      <g>
       <use xlink:href="#me99e68552d" x="303.222021" y="476.12" style="stroke: #000000; stroke-width: 0.8"/>
      </g>
     </g>
     <g id="text_3">
      <!-- May 1 -->
      <g transform="translate(288.114208 490.718437) scale(0.1 -0.1)">
       <defs>
        <path id="DejaVuSans-79" d="M 2059 -325 
Q 1816 -950 1584 -1140 
Q 1353 -1331 966 -1331 
L 506 -1331 
L 506 -850 
L 844 -850 
Q 1081 -850 1212 -737 
Q 1344 -625 1503 -206 
L 1606 56 
L 191 3500 
L 800 3500 
L 1894 763 
L 2988 3500 
L 3597 3500 
L 2059 -325 
z
" transform="scale(0.015625)"/>
       </defs>
       <use xlink:href="#DejaVuSans-4d"/>
       <use xlink:href="#DejaVuSans-61" x="86.279297"/>
       <use xlink:href="#DejaVuSans-79" x="147.558594"/>
       <use xlink:href="#DejaVuSans-20" x="206.738281"/>
       <use xlink:href="#DejaVuSans-31" x="238.525391"/>
      </g>
     </g>
    </g>
    <g id="xtick_4">
     <g id="line2d_7">
      <path d="M 402.280648 476.12 
L 402.280648 26.88 
" clip-path="url(#p53ef7e064d)" style="fill: none; stroke: #b0b0b0; stroke-width: 0.8; stroke-linecap: square"/>
     </g>
     <g id="line2d_8">
      <g>
       <use xlink:href="#me99e68552d" x="402.280648" y="476.12" style="stroke: #000000; stroke-width: 0.8"/>
      </g>
     </g>
     <g id="text_4">
      <!-- Jul 1 -->
      <g transform="translate(391.477523 490.718437) scale(0.1 -0.1)">
       <defs>
        <path id="DejaVuSans-75" d="M 544 1381 
L 544 3500 
L 1119 3500 
L 1119 1403 
Q 1119 906 1312 657 
Q 1506 409 1894 409 
Q 2359 409 2629 706 
Q 2900 1003 2900 1516 
L 2900 3500 
L 3475 3500 
L 3475 0 
L 2900 0 
L 2900 538 
Q 2691 219 2414 64 
Q 2138 -91 1772 -91 
Q 1169 -91 856 284 
Q 544 659 544 1381 
z
M 1991 3584 
L 1991 3584 
z
" transform="scale(0.015625)"/>
        <path id="DejaVuSans-6c" d="M 603 4863 
L 1178 4863 
L 1178 0 
L 603 0 
L 603 4863 
z
" transform="scale(0.015625)"/>
       </defs>
       <use xlink:href="#DejaVuSans-4a"/>
       <use xlink:href="#DejaVuSans-75" x="29.492188"/>
       <use xlink:href="#DejaVuSans-6c" x="92.871094"/>
       <use xlink:href="#DejaVuSans-20" x="120.654297"/>
       <use xlink:href="#DejaVuSans-31" x="152.441406"/>
      </g>
     </g>
    </g>
    <g id="xtick_5">
     <g id="line2d_9">
      <path d="M 502.963187 476.12 
L 502.963187 26.88 
" clip-path="url(#p53ef7e064d)" style="fill: none; stroke: #b0b0b0; stroke-width: 0.8; stroke-linecap: square"/>
     </g>
     <g id="line2d_10">
      <g>
       <use xlink:href="#me99e68552d" x="502.963187" y="476.12" style="stroke: #000000; stroke-width: 0.8"/>
      </g>
     </g>
     <g id="text_5">
      <!-- Sep 1 -->
      <g transform="translate(488.767874 490.718437) scale(0.1 -0.1)">
       <defs>
        <path id="DejaVuSans-53" d="M 3425 4513 
L 3425 3897 
Q 3066 4069 2747 4153 
Q 2428 4238 2131 4238 
Q 1616 4238 1336 4038 
Q 1056 3838 1056 3469 
Q 1056 3159 1242 3001 
Q 1428 2844 1947 2747 
L 2328 2669 
Q 3034 2534 3370 2195 
Q 3706 1856 3706 1288 
Q 3706 609 3251 259 
Q 2797 -91 1919 -91 
Q 1588 -91 1214 -16 
Q 841 59 441 206 
L 441 856 
Q 825 641 1194 531 
Q 1563 422 1919 422 
Q 2459 422 2753 634 
Q 3047 847 3047 1241 
Q 3047 1584 2836 1778 
Q 2625 1972 2144 2069 
L 1759 2144 
Q 1053 2284 737 2584 
Q 422 2884 422 3419 
Q 422 4038 858 4394 
Q 1294 4750 2059 4750 
Q 2388 4750 2728 4690 
Q 3069 4631 3425 4513 
z
" transform="scale(0.015625)"/>
        <path id="DejaVuSans-65" d="M 3597 1894 
L 3597 1613 
L 953 1613 
Q 991 1019 1311 708 
Q 1631 397 2203 397 
Q 2534 397 2845 478 
Q 3156 559 3463 722 
L 3463 178 
Q 3153 47 2828 -22 
Q 2503 -91 2169 -91 
Q 1331 -91 842 396 
Q 353 884 353 1716 
Q 353 2575 817 3079 
Q 1281 3584 2069 3584 
Q 2775 3584 3186 3129 
Q 3597 2675 3597 1894 
z
M 3022 2063 
Q 3016 2534 2758 2815 
Q 2500 3097 2075 3097 
Q 1594 3097 1305 2825 
Q 1016 2553 972 2059 
L 3022 2063 
z
" transform="scale(0.015625)"/>
        <path id="DejaVuSans-70" d="M 1159 525 
L 1159 -1331 
L 581 -1331 
L 581 3500 
L 1159 3500 
L 1159 2969 
Q 1341 3281 1617 3432 
Q 1894 3584 2278 3584 
Q 2916 3584 3314 3078 
Q 3713 2572 3713 1747 
Q 3713 922 3314 415 
Q 2916 -91 2278 -91 
Q 1894 -91 1617 61 
Q 1341 213 1159 525 
z
M 3116 1747 
Q 3116 2381 2855 2742 
Q 2594 3103 2138 3103 
Q 1681 3103 1420 2742 
Q 1159 2381 1159 1747 
Q 1159 1113 1420 752 
Q 1681 391 2138 391 
Q 2594 391 2855 752 
Q 3116 1113 3116 1747 
z
" transform="scale(0.015625)"/>
       </defs>
       <use xlink:href="#DejaVuSans-53"/>
       <use xlink:href="#DejaVuSans-65" x="63.476562"/>
       <use xlink:href="#DejaVuSans-70" x="125"/>
       <use xlink:href="#DejaVuSans-20" x="188.476562"/>
       <use xlink:href="#DejaVuSans-31" x="220.263672"/>
      </g>
     </g>
    </g>
    <g id="xtick_6">
     <g id="line2d_11">
      <path d="M 602.021813 476.12 
L 602.021813 26.88 
" clip-path="url(#p53ef7e064d)" style="fill: none; stroke: #b0b0b0; stroke-width: 0.8; stroke-linecap: square"/>
     </g>
     <g id="line2d_12">
      <g>
       <use xlink:href="#me99e68552d" x="602.021813" y="476.12" style="stroke: #000000; stroke-width: 0.8"/>
      </g>
     </g>
     <g id="text_6">
      <!-- Nov 1 -->
      <g transform="translate(587.492126 490.718437) scale(0.1 -0.1)">
       <defs>
        <path id="DejaVuSans-4e" d="M 628 4666 
L 1478 4666 
L 3547 763 
L 3547 4666 
L 4159 4666 
L 4159 0 
L 3309 0 
L 1241 3903 
L 1241 0 
L 628 0 
L 628 4666 
z
" transform="scale(0.015625)"/>
        <path id="DejaVuSans-6f" d="M 1959 3097 
Q 1497 3097 1228 2736 
Q 959 2375 959 1747 
Q 959 1119 1226 758 
Q 1494 397 1959 397 
Q 2419 397 2687 759 
Q 2956 1122 2956 1747 
Q 2956 2369 2687 2733 
Q 2419 3097 1959 3097 
z
M 1959 3584 
Q 2709 3584 3137 3096 
Q 3566 2609 3566 1747 
Q 3566 888 3137 398 
Q 2709 -91 1959 -91 
Q 1206 -91 779 398 
Q 353 888 353 1747 
Q 353 2609 779 3096 
Q 1206 3584 1959 3584 
z
" transform="scale(0.015625)"/>
        <path id="DejaVuSans-76" d="M 191 3500 
L 800 3500 
L 1894 563 
L 2988 3500 
L 3597 3500 
L 2284 0 
L 1503 0 
L 191 3500 
z
" transform="scale(0.015625)"/>
       </defs>
       <use xlink:href="#DejaVuSans-4e"/>
       <use xlink:href="#DejaVuSans-6f" x="74.804688"/>
       <use xlink:href="#DejaVuSans-76" x="135.986328"/>
       <use xlink:href="#DejaVuSans-20" x="195.166016"/>
       <use xlink:href="#DejaVuSans-31" x="226.953125"/>
      </g>
     </g>
    </g>
   </g>
   <g id="matplotlib.axis_2">
    <g id="ytick_1">
     <g id="line2d_13">
      <path d="M 82.37 455.7 
L 709.2 455.7 
" clip-path="url(#p53ef7e064d)" style="fill: none; stroke: #b0b0b0; stroke-width: 0.8; stroke-linecap: square"/>
     </g>
     <g id="line2d_14">
      <defs>
       <path id="me00a512645" d="M 0 0 
L -3.5 0 
" style="stroke: #000000; stroke-width: 0.8"/>
      </defs>
      <g>
       <use xlink:href="#me00a512645" x="82.37" y="455.7" style="stroke: #000000; stroke-width: 0.8"/>
      </g>
     </g>
     <g id="text_7">
      <!-- 0 -->
      <g transform="translate(69.0075 459.499219) scale(0.1 -0.1)">
       <defs>
        <path id="DejaVuSans-30" d="M 2034 4250 
Q 1547 4250 1301 3770 
Q 1056 3291 1056 2328 
Q 1056 1369 1301 889 
Q 1547 409 2034 409 
Q 2525 409 2770 889 
Q 3016 1369 3016 2328 
Q 3016 3291 2770 3770 
Q 2525 4250 2034 4250 
z
M 2034 4750 
Q 2819 4750 3233 4129 
Q 3647 3509 3647 2328 
Q 3647 1150 3233 529 
Q 2819 -91 2034 -91 
Q 1250 -91 836 529 
Q 422 1150 422 2328 
Q 422 3509 836 4129 
Q 1250 4750 2034 4750 
z
" transform="scale(0.015625)"/>
       </defs>
       <use xlink:href="#DejaVuSans-30"/>
      </g>
     </g>
    </g>
    <g id="ytick_2">
     <g id="line2d_15">
      <path d="M 82.37 357.398375 
L 709.2 357.398375 
" clip-path="url(#p53ef7e064d)" style="fill: none; stroke: #b0b0b0; stroke-width: 0.8; stroke-linecap: square"/>
     </g>
     <g id="line2d_16">
      <g>
       <use xlink:href="#me00a512645" x="82.37" y="357.398375" style="stroke: #000000; stroke-width: 0.8"/>
      </g>
     </g>
     <g id="text_8">
      <!-- 500,000 -->
      <g transform="translate(34.016875 361.197594) scale(0.1 -0.1)">
       <defs>
        <path id="DejaVuSans-35" d="M 691 4666 
L 3169 4666 
L 3169 4134 
L 1269 4134 
L 1269 2991 
Q 1406 3038 1543 3061 
Q 1681 3084 1819 3084 
Q 2600 3084 3056 2656 
Q 3513 2228 3513 1497 
Q 3513 744 3044 326 
Q 2575 -91 1722 -91 
Q 1428 -91 1123 -41 
Q 819 9 494 109 
L 494 744 
Q 775 591 1075 516 
Q 1375 441 1709 441 
Q 2250 441 2565 725 
Q 2881 1009 2881 1497 
Q 2881 1984 2565 2268 
Q 2250 2553 1709 2553 
Q 1456 2553 1204 2497 
Q 953 2441 691 2322 
L 691 4666 
z
" transform="scale(0.015625)"/>
        <path id="DejaVuSans-2c" d="M 750 794 
L 1409 794 
L 1409 256 
L 897 -744 
L 494 -744 
L 750 256 
L 750 794 
z
" transform="scale(0.015625)"/>
       </defs>
       <use xlink:href="#DejaVuSans-35"/>
       <use xlink:href="#DejaVuSans-30" x="63.623047"/>
       <use xlink:href="#DejaVuSans-30" x="127.246094"/>
       <use xlink:href="#DejaVuSans-2c" x="190.869141"/>
       <use xlink:href="#DejaVuSans-30" x="222.65625"/>
       <use xlink:href="#DejaVuSans-30" x="286.279297"/>
       <use xlink:href="#DejaVuSans-30" x="349.902344"/>
      </g>
     </g>
    </g>
    <g id="ytick_3">
     <g id="line2d_17">
      <path d="M 82.37 259.09675 
L 709.2 259.09675 
" clip-path="url(#p53ef7e064d)" style="fill: none; stroke: #b0b0b0; stroke-width: 0.8; stroke-linecap: square"/>
     </g>
     <g id="line2d_18">
      <g>
       <use xlink:href="#me00a512645" x="82.37" y="259.09675" style="stroke: #000000; stroke-width: 0.8"/>
      </g>
     </g>
     <g id="text_9">
      <!-- 1,000,000 -->
      <g transform="translate(24.47625 262.895968) scale(0.1 -0.1)">
       <use xlink:href="#DejaVuSans-31"/>
       <use xlink:href="#DejaVuSans-2c" x="63.623047"/>
       <use xlink:href="#DejaVuSans-30" x="95.410156"/>
       <use xlink:href="#DejaVuSans-30" x="159.033203"/>
       <use xlink:href="#DejaVuSans-30" x="222.65625"/>
       <use xlink:href="#DejaVuSans-2c" x="286.279297"/>
       <use xlink:href="#DejaVuSans-30" x="318.066406"/>
       <use xlink:href="#DejaVuSans-30" x="381.689453"/>
       <use xlink:href="#DejaVuSans-30" x="445.3125"/>
      </g>
     </g>
    </g>
    <g id="ytick_4">
     <g id="line2d_19">
      <path d="M 82.37 160.795124 
L 709.2 160.795124 
" clip-path="url(#p53ef7e064d)" style="fill: none; stroke: #b0b0b0; stroke-width: 0.8; stroke-linecap: square"/>
     </g>
     <g id="line2d_20">
      <g>
       <use xlink:href="#me00a512645" x="82.37" y="160.795124" style="stroke: #000000; stroke-width: 0.8"/>
      </g>
     </g>
     <g id="text_10">
      <!-- 1,500,000 -->
      <g transform="translate(24.47625 164.594343) scale(0.1 -0.1)">
       <use xlink:href="#DejaVuSans-31"/>
       <use xlink:href="#DejaVuSans-2c" x="63.623047"/>
       <use xlink:href="#DejaVuSans-35" x="95.410156"/>
       <use xlink:href="#DejaVuSans-30" x="159.033203"/>
       <use xlink:href="#DejaVuSans-30" x="222.65625"/>
       <use xlink:href="#DejaVuSans-2c" x="286.279297"/>
       <use xlink:href="#DejaVuSans-30" x="318.066406"/>
       <use xlink:href="#DejaVuSans-30" x="381.689453"/>
       <use xlink:href="#DejaVuSans-30" x="445.3125"/>
      </g>
     </g>
    </g>
    <g id="ytick_5">
     <g id="line2d_21">
      <path d="M 82.37 62.493499 
L 709.2 62.493499 
" clip-path="url(#p53ef7e064d)" style="fill: none; stroke: #b0b0b0; stroke-width: 0.8; stroke-linecap: square"/>
     </g>
     <g id="line2d_22">
      <g>
       <use xlink:href="#me00a512645" x="82.37" y="62.493499" style="stroke: #000000; stroke-width: 0.8"/>
      </g>
     </g>
     <g id="text_11">
      <!-- 2,000,000 -->
      <g transform="translate(24.47625 66.292718) scale(0.1 -0.1)">
       <defs>
        <path id="DejaVuSans-32" d="M 1228 531 
L 3431 531 
L 3431 0 
L 469 0 
L 469 531 
Q 828 903 1448 1529 
Q 2069 2156 2228 2338 
Q 2531 2678 2651 2914 
Q 2772 3150 2772 3378 
Q 2772 3750 2511 3984 
Q 2250 4219 1831 4219 
Q 1534 4219 1204 4116 
Q 875 4013 500 3803 
L 500 4441 
Q 881 4594 1212 4672 
Q 1544 4750 1819 4750 
Q 2544 4750 2975 4387 
Q 3406 4025 3406 3419 
Q 3406 3131 3298 2873 
Q 3191 2616 2906 2266 
Q 2828 2175 2409 1742 
Q 1991 1309 1228 531 
z
" transform="scale(0.015625)"/>
       </defs>
       <use xlink:href="#DejaVuSans-32"/>
       <use xlink:href="#DejaVuSans-2c" x="63.623047"/>
       <use xlink:href="#DejaVuSans-30" x="95.410156"/>
       <use xlink:href="#DejaVuSans-30" x="159.033203"/>
       <use xlink:href="#DejaVuSans-30" x="222.65625"/>
       <use xlink:href="#DejaVuSans-2c" x="286.279297"/>
       <use xlink:href="#DejaVuSans-30" x="318.066406"/>
       <use xlink:href="#DejaVuSans-30" x="381.689453"/>
       <use xlink:href="#DejaVuSans-30" x="445.3125"/>
      </g>
     </g>
    </g>
    <g id="text_12">
     <!-- Cumulative Payload Mass (kg) -->
     <g transform="translate(18.396562 326.863281) rotate(-90) scale(0.1 -0.1)">
      <defs>
       <path id="DejaVuSans-43" d="M 4122 4306 
L 4122 3641 
Q 3803 3938 3442 4084 
Q 3081 4231 2675 4231 
Q 1875 4231 1450 3742 
Q 1025 3253 1025 2328 
Q 1025 1406 1450 917 
Q 1875 428 2675 428 
Q 3081 428 3442 575 
Q 3803 722 4122 1019 
L 4122 359 
Q 3791 134 3420 21 
Q 3050 -91 2638 -91 
Q 1578 -91 968 557 
Q 359 1206 359 2328 
Q 359 3453 968 4101 
Q 1578 4750 2638 4750 
Q 3056 4750 3426 4639 
Q 3797 4528 4122 4306 
z
" transform="scale(0.015625)"/>
       <path id="DejaVuSans-6d" d="M 3328 2828 
Q 3544 3216 3844 3400 
Q 4144 3584 4550 3584 
Q 5097 3584 5394 3201 
Q 5691 2819 5691 2113 
L 5691 0 
L 5113 0 
L 5113 2094 
Q 5113 2597 4934 2840 
Q 4756 3084 4391 3084 
Q 3944 3084 3684 2787 
Q 3425 2491 3425 1978 
L 3425 0 
L 2847 0 
L 2847 2094 
Q 2847 2600 2669 2842 
Q 2491 3084 2119 3084 
Q 1678 3084 1418 2786 
Q 1159 2488 1159 1978 
L 1159 0 
L 581 0 
L 581 3500 
L 1159 3500 
L 1159 2956 
Q 1356 3278 1631 3431 
Q 1906 3584 2284 3584 
Q 2666 3584 2933 3390 
Q 3200 3197 3328 2828 
z
" transform="scale(0.015625)"/>
       <path id="DejaVuSans-74" d="M 1172 4494 
L 1172 3500 
L 2356 3500 
L 2356 3053 
L 1172 3053 
L 1172 1153 
Q 1172 725 1289 603 
Q 1406 481 1766 481 
L 2356 481 
L 2356 0 
L 1766 0 
Q 1100 0 847 248 
Q 594 497 594 1153 
L 594 3053 
L 172 3053 
L 172 3500 
L 594 3500 
L 594 4494 
L 1172 4494 
z
" transform="scale(0.015625)"/>
       <path id="DejaVuSans-69" d="M 603 3500 
L 1178 3500 
L 1178 0 
L 603 0 
L 603 3500 
z
M 603 4863 
L 1178 4863 
L 1178 4134 
L 603 4134 
L 603 4863 
z
" transform="scale(0.015625)"/>
       <path id="DejaVuSans-50" d="M 1259 4147 
L 1259 2394 
L 2053 2394 
Q 2494 2394 2734 2622 
Q 2975 2850 2975 3272 
Q 2975 3691 2734 3919 
Q 2494 4147 2053 4147 
L 1259 4147 
z
M 628 4666 
L 2053 4666 
Q 2838 4666 3239 4311 
Q 3641 3956 3641 3272 
Q 3641 2581 3239 2228 
Q 2838 1875 2053 1875 
L 1259 1875 
L 1259 0 
L 628 0 
L 628 4666 
z
" transform="scale(0.015625)"/>
       <path id="DejaVuSans-64" d="M 2906 2969 
L 2906 4863 
L 3481 4863 
L 3481 0 
L 2906 0 
L 2906 525 
Q 2725 213 2448 61 
Q 2172 -91 1784 -91 
Q 1150 -91 751 415 
Q 353 922 353 1747 
Q 353 2572 751 3078 
Q 1150 3584 1784 3584 
Q 2172 3584 2448 3432 
Q 2725 3281 2906 2969 
z
M 947 1747 
Q 947 1113 1208 752 
Q 1469 391 1925 391 
Q 2381 391 2643 752 
Q 2906 1113 2906 1747 
Q 2906 2381 2643 2742 
Q 2381 3103 1925 3103 
Q 1469 3103 1208 2742 
Q 947 2381 947 1747 
z
" transform="scale(0.015625)"/>
       <path id="DejaVuSans-73" d="M 2834 3397 
L 2834 2853 
Q 2591 2978 2328 3040 
Q 2066 3103 1784 3103 
Q 1356 3103 1142 2972 
Q 928 2841 928 2578 
Q 928 2378 1081 2264 
Q 1234 2150 1697 2047 
L 1894 2003 
Q 2506 1872 2764 1633 
Q 3022 1394 3022 966 
Q 3022 478 2636 193 
Q 2250 -91 1575 -91 
Q 1294 -91 989 -36 
Q 684 19 347 128 
L 347 722 
Q 666 556 975 473 
Q 1284 391 1588 391 
Q 1994 391 2212 530 
Q 2431 669 2431 922 
Q 2431 1156 2273 1281 
Q 2116 1406 1581 1522 
L 1381 1569 
Q 847 1681 609 1914 
Q 372 2147 372 2553 
Q 372 3047 722 3315 
Q 1072 3584 1716 3584 
Q 2034 3584 2315 3537 
Q 2597 3491 2834 3397 
z
" transform="scale(0.015625)"/>
       <path id="DejaVuSans-28" d="M 1984 4856 
Q 1566 4138 1362 3434 
Q 1159 2731 1159 2009 
Q 1159 1288 1364 580 
Q 1569 -128 1984 -844 
L 1484 -844 
Q 1016 -109 783 600 
Q 550 1309 550 2009 
Q 550 2706 781 3412 
Q 1013 4119 1484 4856 
L 1984 4856 
z
" transform="scale(0.015625)"/>
       <path id="DejaVuSans-6b" d="M 581 4863 
L 1159 4863 
L 1159 1991 
L 2875 3500 
L 3609 3500 
L 1753 1863 
L 3688 0 
L 2938 0 
L 1159 1709 
L 1159 0 
L 581 0 
L 581 4863 
z
" transform="scale(0.015625)"/>
       <path id="DejaVuSans-67" d="M 2906 1791 
Q 2906 2416 2648 2759 
Q 2391 3103 1925 3103 
Q 1463 3103 1205 2759 
Q 947 2416 947 1791 
Q 947 1169 1205 825 
Q 1463 481 1925 481 
Q 2391 481 2648 825 
Q 2906 1169 2906 1791 
z
M 3481 434 
Q 3481 -459 3084 -895 
Q 2688 -1331 1869 -1331 
Q 1566 -1331 1297 -1286 
Q 1028 -1241 775 -1147 
L 775 -588 
Q 1028 -725 1275 -790 
Q 1522 -856 1778 -856 
Q 2344 -856 2625 -561 
Q 2906 -266 2906 331 
L 2906 616 
Q 2728 306 2450 153 
Q 2172 0 1784 0 
Q 1141 0 747 490 
Q 353 981 353 1791 
Q 353 2603 747 3093 
Q 1141 3584 1784 3584 
Q 2172 3584 2450 3431 
Q 2728 3278 2906 2969 
L 2906 3500 
L 3481 3500 
L 3481 434 
z
" transform="scale(0.015625)"/>
       <path id="DejaVuSans-29" d="M 513 4856 
L 1013 4856 
Q 1481 4119 1714 3412 
Q 1947 2706 1947 2009 
Q 1947 1309 1714 600 
Q 1481 -109 1013 -844 
L 513 -844 
Q 928 -128 1133 580 
Q 1338 1288 1338 2009 
Q 1338 2731 1133 3434 
Q 928 4138 513 4856 
z
" transform="scale(0.015625)"/>
      </defs>
      <use xlink:href="#DejaVuSans-43"/>
      <use xlink:href="#DejaVuSans-75" x="69.824219"/>
      <use xlink:href="#DejaVuSans-6d" x="133.203125"/>
      <use xlink:href="#DejaVuSans-75" x="230.615234"/>
      <use xlink:href="#DejaVuSans-6c" x="293.994141"/>
      <use xlink:href="#DejaVuSans-61" x="321.777344"/>
      <use xlink:href="#DejaVuSans-74" x="383.056641"/>
      <use xlink:href="#DejaVuSans-69" x="422.265625"/>
      <use xlink:href="#DejaVuSans-76" x="450.048828"/>
      <use xlink:href="#DejaVuSans-65" x="509.228516"/>
      <use xlink:href="#DejaVuSans-20" x="570.751953"/>
      <use xlink:href="#DejaVuSans-50" x="602.539062"/>
      <use xlink:href="#DejaVuSans-61" x="658.341797"/>
      <use xlink:href="#DejaVuSans-79" x="719.621094"/>
      <use xlink:href="#DejaVuSans-6c" x="778.800781"/>
      <use xlink:href="#DejaVuSans-6f" x="806.583984"/>
      <use xlink:href="#DejaVuSans-61" x="867.765625"/>
      <use xlink:href="#DejaVuSans-64" x="929.044922"/>
      <use xlink:href="#DejaVuSans-20" x="992.521484"/>
      <use xlink:href="#DejaVuSans-4d" x="1024.308594"/>
      <use xlink:href="#DejaVuSans-61" x="1110.587891"/>
      <use xlink:href="#DejaVuSans-73" x="1171.867188"/>
      <use xlink:href="#DejaVuSans-73" x="1223.966797"/>
      <use xlink:href="#DejaVuSans-20" x="1276.066406"/>
      <use xlink:href="#DejaVuSans-28" x="1307.853516"/>
      <use xlink:href="#DejaVuSans-6b" x="1346.867188"/>
      <use xlink:href="#DejaVuSans-67" x="1404.777344"/>
      <use xlink:href="#DejaVuSans-29" x="1468.253906"/>
     </g>
    </g>
   </g>
   <g id="line2d_23">
    <path d="M 106.728679 455.7 
L 127.839534 455.7 
L 127.839534 453.812609 
L 186.300363 453.812609 
L 186.300363 453.323067 
L 226.898161 453.323067 
L 226.898161 452.222089 
L 249.632927 452.222089 
L 249.632927 451.180091 
L 301.598109 451.180091 
L 301.598109 451.180091 
L 324.332876 451.180091 
L 324.332876 449.98671 
L 355.187202 449.98671 
L 355.187202 449.454308 
L 387.66544 449.454308 
L 387.66544 448.732971 
L 390.913264 448.732971 
L 390.913264 446.845579 
L 407.152383 446.845579 
L 407.152383 445.516345 
L 472.10886 445.516345 
L 472.10886 444.865588 
L 488.347979 444.865588 
L 488.347979 444.772202 
L 511.082746 444.772202 
L 511.082746 443.791151 
L 563.047927 443.791151 
L 563.047927 441.90376 
L 566.295751 441.90376 
L 566.295751 440.842103 
L 597.150078 440.842103 
L 597.150078 440.153991 
L 671.850026 440.153991 
L 671.850026 439.720481 
L 684.841321 439.720481 
L 684.841321 437.83309 
L 697.832617 437.83309 
L 697.832617 437.83309 
" clip-path="url(#p53ef7e064d)" style="fill: none; stroke: #808080; stroke-width: 1.5; stroke-linecap: square"/>
   </g>
   <g id="line2d_24">
    <path d="M 106.728679 455.7 
L 118.096062 455.7 
L 118.096062 455.7 
L 155.446036 455.7 
L 155.446036 454.868368 
L 165.189508 454.868368 
L 165.189508 454.622614 
L 191.172098 454.622614 
L 191.172098 454.199917 
L 210.659041 454.199917 
L 210.659041 453.00221 
L 249.632927 453.00221 
L 249.632927 451.114819 
L 254.504663 451.114819 
L 254.504663 450.59441 
L 280.487254 450.59441 
L 280.487254 450.52324 
L 317.837228 450.52324 
L 317.837228 449.815468 
L 335.700259 449.815468 
L 335.700259 448.545411 
L 356.811114 448.545411 
L 356.811114 447.486899 
L 397.408912 447.486899 
L 397.408912 446.95666 
L 434.758886 446.95666 
L 434.758886 445.565692 
L 439.630622 445.565692 
L 439.630622 443.678301 
L 460.741477 443.678301 
L 460.741477 442.538002 
L 515.954482 442.538002 
L 515.954482 441.149983 
L 561.424016 441.149983 
L 561.424016 440.560173 
L 623.132668 440.560173 
L 623.132668 439.518176 
L 652.363083 439.518176 
L 652.363083 438.731763 
L 655.610907 438.731763 
L 655.610907 438.240255 
L 684.841321 438.240255 
L 684.841321 437.375201 
L 697.832617 437.375201 
L 697.832617 437.375201 
" clip-path="url(#p53ef7e064d)" style="fill: none; stroke: #90ee90; stroke-width: 1.5; stroke-linecap: square"/>
   </g>
   <g id="line2d_25">
    <path d="M 106.728679 455.7 
L 122.967798 455.7 
L 122.967798 453.812609 
L 191.172098 453.812609 
L 191.172098 452.859083 
L 204.163394 452.859083 
L 204.163394 450.489031 
L 269.11987 450.489031 
L 269.11987 449.217991 
L 306.469845 449.217991 
L 306.469845 448.727466 
L 338.948083 448.727466 
L 338.948083 446.049729 
L 369.802409 446.049729 
L 369.802409 445.223996 
L 390.913264 445.223996 
L 390.913264 444.496564 
L 439.630622 444.496564 
L 439.630622 444.050668 
L 459.117565 444.050668 
L 459.117565 442.772746 
L 616.637021 442.772746 
L 616.637021 439.705736 
L 655.610907 439.705736 
L 655.610907 439.191225 
L 675.09785 439.191225 
L 675.09785 437.823653 
L 697.832617 437.823653 
L 697.832617 437.823653 
" clip-path="url(#p53ef7e064d)" style="fill: none; stroke: #add8e6; stroke-width: 1.5; stroke-linecap: square"/>
   </g>
   <g id="line2d_26">
    <path d="M 106.728679 455.7 
L 116.47215 455.7 
L 116.47215 452.632989 
L 135.959093 452.632989 
L 135.959093 450.26392 
L 152.198212 450.26392 
L 152.198212 447.196909 
L 183.052539 447.196909 
L 183.052539 444.129899 
L 213.906865 444.129899 
L 213.906865 443.741214 
L 231.769896 443.741214 
L 231.769896 440.674203 
L 288.606813 440.674203 
L 288.606813 437.607193 
L 350.315466 437.607193 
L 350.315466 435.143754 
L 358.435026 435.143754 
L 358.435026 432.076743 
L 373.050233 432.076743 
L 373.050233 429.047087 
L 400.656736 429.047087 
L 400.656736 428.199531 
L 433.134974 428.199531 
L 433.134974 427.118213 
L 462.365389 427.118213 
L 462.365389 424.182533 
L 480.22842 424.182533 
L 480.22842 421.146979 
L 499.715363 421.146979 
L 499.715363 420.531611 
L 506.21101 420.531611 
L 506.21101 417.4646 
L 559.800104 417.4646 
L 559.800104 414.397589 
L 579.287047 414.397589 
L 579.287047 411.330578 
L 589.030518 411.330578 
L 589.030518 408.263568 
L 608.517461 408.263568 
L 608.517461 407.416011 
L 626.380492 407.416011 
L 626.380492 404.95847 
L 634.500052 404.95847 
L 634.500052 404.724119 
L 640.995699 404.724119 
L 640.995699 401.657109 
L 658.858731 401.657109 
L 658.858731 401.072804 
L 670.226114 401.072804 
L 670.226114 399.696581 
L 679.969585 399.696581 
L 679.969585 399.696581 
L 699.456528 399.696581 
L 699.456528 399.696581 
" clip-path="url(#p53ef7e064d)" style="fill: none; stroke: #ffc0cb; stroke-width: 1.5; stroke-linecap: square"/>
   </g>
   <g id="line2d_27">
    <path d="M 106.728679 455.7 
L 118.096062 455.7 
L 118.096062 455.011889 
L 137.583005 455.011889 
L 137.583005 451.944878 
L 144.078653 451.944878 
L 144.078653 450.961862 
L 161.941684 450.961862 
L 161.941684 447.894851 
L 181.428627 447.894851 
L 181.428627 444.82784 
L 207.411218 444.82784 
L 207.411218 441.76083 
L 218.778601 441.76083 
L 218.778601 438.693819 
L 223.650337 438.693819 
L 223.650337 435.626808 
L 239.889456 435.626808 
L 239.889456 432.559797 
L 262.624223 432.559797 
L 262.624223 429.492787 
L 288.606813 429.492787 
L 288.606813 426.936944 
L 298.350285 426.936944 
L 298.350285 423.869934 
L 306.469845 423.869934 
L 306.469845 420.802923 
L 314.589404 420.802923 
L 314.589404 417.735912 
L 324.332876 417.735912 
L 324.332876 414.700358 
L 342.195907 414.700358 
L 342.195907 411.633347 
L 355.187202 411.633347 
L 355.187202 410.979052 
L 360.058938 410.979052 
L 360.058938 409.602829 
L 377.921969 409.602829 
L 377.921969 408.75134 
L 399.032824 408.75134 
L 399.032824 408.75134 
L 496.467539 408.75134 
L 496.467539 408.318813 
L 522.45013 408.318813 
L 522.45013 405.711854 
L 525.697953 405.711854 
L 525.697953 403.250578 
L 616.637021 403.250578 
L 616.637021 400.694736 
L 619.884845 400.694736 
L 619.884845 397.620844 
L 637.747876 397.620844 
L 637.747876 397.498164 
L 650.739171 397.498164 
L 650.739171 394.647416 
L 662.106554 394.647416 
L 662.106554 394.58352 
L 676.721762 394.58352 
L 676.721762 391.51651 
L 678.345674 391.51651 
L 678.345674 390.631795 
L 681.593497 390.631795 
L 681.593497 390.044148 
L 697.832617 390.044148 
L 697.832617 390.044148 
" clip-path="url(#p53ef7e064d)" style="fill: none; stroke: #800080; stroke-width: 1.5; stroke-linecap: square"/>
   </g>
   <g id="line2d_28">
    <path d="M 106.728679 455.7 
L 114.848238 455.7 
L 114.848238 452.849253 
L 126.215622 452.849253 
L 126.215622 452.849253 
L 135.959093 452.849253 
L 135.959093 449.998506 
L 155.446036 449.998506 
L 155.446036 449.564996 
L 158.69386 449.564996 
L 158.69386 449.564996 
L 160.317772 449.564996 
L 160.317772 446.714248 
L 189.548187 446.714248 
L 189.548187 444.040444 
L 196.043834 444.040444 
L 196.043834 441.140546 
L 205.787306 441.140546 
L 205.787306 438.407761 
L 215.530777 438.407761 
L 215.530777 435.623859 
L 231.769896 435.623859 
L 231.769896 432.429056 
L 252.880751 432.429056 
L 252.880751 432.429056 
L 264.248135 432.429056 
L 264.248135 429.873214 
L 278.863342 429.873214 
L 278.863342 429.873214 
L 285.35899 429.873214 
L 285.35899 426.678411 
L 295.102461 426.678411 
L 295.102461 424.122569 
L 298.350285 424.122569 
L 298.350285 420.927766 
L 309.717668 420.927766 
L 309.717668 417.732963 
L 321.085052 417.732963 
L 321.085052 414.53816 
L 322.708964 414.53816 
L 322.708964 411.343358 
L 329.204611 411.343358 
L 329.204611 408.148555 
L 340.571995 408.148555 
L 340.571995 408.148555 
L 363.306762 408.148555 
L 363.306762 407.342482 
L 377.921969 407.342482 
L 377.921969 404.147679 
L 379.545881 404.147679 
L 379.545881 403.361266 
L 381.169793 403.361266 
L 381.169793 403.223643 
L 397.408912 403.223643 
L 397.408912 402.535532 
L 410.400207 402.535532 
L 410.400207 399.340729 
L 416.895855 399.340729 
L 416.895855 396.568623 
L 423.391503 396.568623 
L 423.391503 396.044086 
L 426.639326 396.044086 
L 426.639326 392.849283 
L 434.758886 392.849283 
L 434.758886 390.077177 
L 438.00671 390.077177 
L 438.00671 386.882374 
L 455.869741 386.882374 
L 455.869741 386.748881 
L 465.613212 386.748881 
L 465.613212 383.603229 
L 468.861036 383.603229 
L 468.861036 380.831123 
L 480.22842 380.831123 
L 480.22842 377.63632 
L 494.843627 377.63632 
L 494.843627 374.353046 
L 499.715363 374.353046 
L 499.715363 371.56128 
L 507.834922 371.56128 
L 507.834922 368.415628 
L 517.578394 368.415628 
L 517.578394 366.068578 
L 530.569689 366.068578 
L 530.569689 362.785304 
L 538.689249 362.785304 
L 538.689249 359.619992 
L 556.55228 359.619992 
L 556.55228 357.064149 
L 556.55228 357.064149 
L 556.55228 353.898837 
L 561.424016 353.898837 
L 561.424016 352.453803 
L 572.791399 352.453803 
L 572.791399 351.569088 
L 580.910959 351.569088 
L 580.910959 348.285814 
L 593.902254 348.285814 
L 593.902254 345.061521 
L 600.397902 345.061521 
L 600.397902 344.324259 
L 603.645725 344.324259 
L 603.645725 343.439544 
L 618.260933 343.439544 
L 618.260933 342.141963 
L 636.123964 342.141963 
L 636.123964 341.060645 
L 640.995699 341.060645 
L 640.995699 340.367028 
L 660.482642 340.367028 
L 660.482642 339.187409 
L 665.354378 339.187409 
L 665.354378 338.990806 
L 673.473938 338.990806 
L 673.473938 338.558279 
L 673.473938 338.558279 
L 673.473938 337.752205 
L 675.09785 337.752205 
L 675.09785 334.468931 
L 692.960881 334.468931 
L 692.960881 331.185657 
L 696.208705 331.185657 
L 696.208705 331.107015 
L 697.832617 331.107015 
L 697.832617 331.107015 
" clip-path="url(#p53ef7e064d)" style="fill: none; stroke: #ffa500; stroke-width: 1.5; stroke-linecap: square"/>
   </g>
   <g id="line2d_29">
    <path d="M 106.728679 455.7 
L 121.343886 455.7 
L 121.343886 454.52038 
L 129.463446 454.52038 
L 129.463446 453.783118 
L 134.335181 453.783118 
L 134.335181 452.927501 
L 135.959093 452.927501 
L 135.959093 449.978452 
L 147.326477 449.978452 
L 147.326477 446.557556 
L 155.446036 446.557556 
L 155.446036 443.569186 
L 158.69386 443.569186 
L 158.69386 440.325233 
L 166.81342 440.325233 
L 166.81342 439.510116 
L 174.932979 439.510116 
L 174.932979 436.1482 
L 183.052539 436.1482 
L 183.052539 433.022208 
L 184.676451 433.022208 
L 184.676451 431.946788 
L 199.291658 431.946788 
L 199.291658 428.938759 
L 204.163394 428.938759 
L 204.163394 426.382917 
L 205.787306 426.382917 
L 205.787306 423.256925 
L 215.530777 423.256925 
L 215.530777 422.077305 
L 225.274249 422.077305 
L 225.274249 421.516593 
L 228.522073 421.516593 
L 228.522073 416.955397 
L 239.889456 416.955397 
L 239.889456 413.534501 
L 248.009016 413.534501 
L 248.009016 410.113604 
L 262.624223 410.113604 
L 262.624223 409.014985 
L 282.111166 409.014985 
L 282.111166 406.006956 
L 295.102461 406.006956 
L 295.102461 403.23485 
L 296.726373 403.23485 
L 296.726373 402.428776 
L 301.598109 402.428776 
L 301.598109 401.170516 
L 306.469845 401.170516 
L 306.469845 397.749619 
L 316.213316 397.749619 
L 316.213316 394.623627 
L 322.708964 394.623627 
L 322.708964 391.202731 
L 330.828523 391.202731 
L 330.828523 388.037419 
L 332.452435 388.037419 
L 332.452435 386.739837 
L 334.076347 386.739837 
L 334.076347 384.183995 
L 343.819819 384.183995 
L 343.819819 383.29928 
L 350.315466 383.29928 
L 350.315466 380.074987 
L 356.811114 380.074987 
L 356.811114 376.909675 
L 358.435026 376.909675 
L 358.435026 376.260097 
L 369.802409 376.260097 
L 369.802409 373.035804 
L 369.802409 373.035804 
L 379.545881 373.035804 
L 379.545881 372.135361 
L 386.041528 372.135361 
L 386.041528 369.284614 
L 387.66544 369.284614 
L 387.66544 365.863718 
L 400.656736 365.863718 
L 400.656736 365.439055 
L 410.400207 365.439055 
L 410.400207 362.509666 
L 415.271943 362.509666 
L 415.271943 359.344354 
L 425.015415 359.344354 
L 425.015415 356.061079 
L 431.511062 356.061079 
L 431.511062 353.70184 
L 438.00671 353.70184 
L 438.00671 350.536528 
L 444.502358 350.536528 
L 444.502358 347.371216 
L 446.126269 347.371216 
L 446.126269 345.562466 
L 454.245829 345.562466 
L 454.245829 344.567064 
L 460.741477 344.567064 
L 460.741477 341.401751 
L 462.365389 341.401751 
L 462.365389 339.042512 
L 467.237124 339.042512 
L 467.237124 335.8772 
L 476.980596 335.8772 
L 476.980596 332.711888 
L 485.100155 332.711888 
L 485.100155 329.703858 
L 491.595803 329.703858 
L 491.595803 327.148016 
L 493.219715 327.148016 
L 493.219715 323.982703 
L 501.339275 323.982703 
L 501.339275 320.817391 
L 506.21101 320.817391 
L 506.21101 317.809361 
L 514.33057 317.809361 
L 514.33057 314.644049 
L 519.202306 314.644049 
L 519.202306 311.636019 
L 525.697953 311.636019 
L 525.697953 308.470707 
L 532.193601 308.470707 
L 532.193601 305.305395 
L 538.689249 305.305395 
L 538.689249 302.140082 
L 540.313161 302.140082 
L 540.313161 299.132052 
L 548.43272 299.132052 
L 548.43272 295.96674 
L 556.55228 295.96674 
L 556.55228 292.801428 
L 563.047927 292.801428 
L 563.047927 289.793398 
L 569.543575 289.793398 
L 569.543575 286.115344 
L 577.663135 286.115344 
L 577.663135 282.950032 
L 582.53487 282.950032 
L 582.53487 279.942002 
L 584.158782 279.942002 
L 584.158782 276.639068 
L 595.526166 276.639068 
L 595.526166 273.473755 
L 597.150078 273.473755 
L 597.150078 270.170821 
L 605.269637 270.170821 
L 605.269637 266.867886 
L 611.765285 266.867886 
L 611.765285 263.564952 
L 615.013109 263.564952 
L 615.013109 261.692306 
L 618.260933 261.692306 
L 618.260933 260.886232 
L 628.004404 260.886232 
L 628.004404 257.583298 
L 628.004404 257.583298 
L 631.252228 257.583298 
L 631.252228 254.417985 
L 634.500052 254.417985 
L 634.500052 251.115051 
L 644.243523 251.115051 
L 644.243523 247.812116 
L 649.115259 247.812116 
L 649.115259 247.654834 
L 652.363083 247.654834 
L 652.363083 244.351899 
L 658.858731 244.351899 
L 658.858731 241.048964 
L 660.482642 241.048964 
L 660.482642 237.883652 
L 678.345674 237.883652 
L 678.345674 234.580717 
L 684.841321 234.580717 
L 684.841321 231.277783 
L 686.465233 231.277783 
L 686.465233 230.570011 
L 694.584793 230.570011 
L 694.584793 226.018646 
L 697.832617 226.018646 
L 697.832617 226.018646 
" clip-path="url(#p53ef7e064d)" style="fill: none; stroke: #0000ff; stroke-width: 1.5; stroke-linecap: square"/>
   </g>
   <g id="line2d_30">
    <path d="M 106.728679 455.7 
L 109.976503 455.7 
L 109.976503 452.04318 
L 116.47215 452.04318 
L 116.47215 448.681264 
L 127.839534 448.681264 
L 127.839534 445.39799 
L 129.463446 445.39799 
L 129.463446 442.036074 
L 134.335181 442.036074 
L 134.335181 439.480232 
L 144.078653 439.480232 
L 144.078653 436.196958 
L 152.198212 436.196958 
L 152.198212 429.551768 
L 153.822124 429.551768 
L 153.822124 428.819224 
L 168.437332 428.819224 
L 168.437332 428.486178 
L 171.685155 428.486178 
L 171.685155 425.202904 
L 179.804715 425.202904 
L 179.804715 421.539989 
L 187.924275 421.539989 
L 187.924275 420.753576 
L 192.79601 420.753576 
L 192.79601 417.470301 
L 196.043834 417.470301 
L 196.043834 414.029744 
L 202.539482 414.029744 
L 202.539482 410.667829 
L 209.03513 410.667829 
L 209.03513 404.750071 
L 218.778601 404.750071 
L 218.778601 401.388155 
L 220.402513 401.388155 
L 220.402513 398.02624 
L 228.522073 398.02624 
L 228.522073 394.664324 
L 233.393808 394.664324 
L 233.393808 391.459691 
L 236.641632 391.459691 
L 236.641632 390.924734 
L 241.513368 390.924734 
L 241.513368 387.562818 
L 243.13728 387.562818 
L 243.13728 384.200903 
L 251.256839 384.200903 
L 251.256839 383.217886 
L 252.880751 383.217886 
L 252.880751 379.855971 
L 256.128575 379.855971 
L 256.128575 376.572697 
L 261.000311 376.572697 
L 261.000311 373.210781 
L 264.248135 373.210781 
L 264.248135 369.907846 
L 264.248135 369.907846 
L 269.11987 369.907846 
L 269.11987 366.545931 
L 270.743782 366.545931 
L 270.743782 366.310007 
L 273.991606 366.310007 
L 273.991606 362.948091 
L 280.487254 362.948091 
L 280.487254 359.586176 
L 282.111166 359.586176 
L 282.111166 356.22426 
L 290.230725 356.22426 
L 290.230725 352.862345 
L 298.350285 352.862345 
L 298.350285 349.185864 
L 304.845933 349.185864 
L 304.845933 348.890959 
L 306.469845 348.890959 
L 306.469845 345.529043 
L 311.34158 345.529043 
L 311.34158 342.167128 
L 314.589404 342.167128 
L 314.589404 338.805212 
L 317.837228 338.805212 
L 317.837228 335.600579 
L 322.708964 335.600579 
L 322.708964 332.238664 
L 324.332876 332.238664 
L 324.332876 329.034031 
L 330.828523 329.034031 
L 330.828523 325.672115 
L 338.948083 325.672115 
L 338.948083 322.310199 
L 340.571995 322.310199 
L 340.571995 318.948284 
L 347.067642 318.948284 
L 347.067642 315.124351 
L 353.56329 315.124351 
L 353.56329 311.762435 
L 360.058938 311.762435 
L 360.058938 308.557802 
L 364.930674 308.557802 
L 364.930674 302.069895 
L 382.793705 302.069895 
L 382.793705 298.865262 
L 384.417617 298.865262 
L 384.417617 297.882246 
L 389.289352 297.882246 
L 389.289352 294.598971 
L 390.913264 294.598971 
L 390.913264 291.394338 
L 392.537176 291.394338 
L 392.537176 290.411322 
L 395.785 290.411322 
L 395.785 287.049407 
L 405.528472 287.049407 
L 405.528472 283.844774 
L 413.648031 283.844774 
L 413.648031 283.00921 
L 444.502358 283.00921 
L 444.502358 279.647294 
L 446.126269 279.647294 
L 446.126269 273.041425 
L 454.245829 273.041425 
L 454.245829 269.679509 
L 457.493653 269.679509 
L 457.493653 265.559295 
L 467.237124 265.559295 
L 467.237124 262.315341 
L 470.484948 262.315341 
L 470.484948 257.531984 
L 475.356684 257.531984 
L 475.356684 257.237079 
L 483.476244 257.237079 
L 483.476244 253.953805 
L 496.467539 253.953805 
L 496.467539 250.670531 
L 501.339275 250.670531 
L 501.339275 244.103982 
L 509.458834 244.103982 
L 509.458834 240.820708 
L 517.578394 240.820708 
L 517.578394 238.264866 
L 520.826218 238.264866 
L 520.826218 236.790341 
L 522.45013 236.790341 
L 522.45013 233.507067 
L 528.945777 233.507067 
L 528.945777 233.192502 
L 533.817513 233.192502 
L 533.817513 229.987869 
L 541.937073 229.987869 
L 541.937073 226.783236 
L 546.808808 226.783236 
L 546.808808 224.227394 
L 561.424016 224.227394 
L 561.424016 224.009557 
L 572.791399 224.009557 
L 572.791399 222.817159 
L 574.415311 222.817159 
L 574.415311 216.25061 
L 579.287047 216.25061 
L 579.287047 213.045977 
L 582.53487 213.045977 
L 582.53487 212.465211 
L 587.406606 212.465211 
L 587.406606 209.103295 
L 592.278342 209.103295 
L 592.278342 205.820021 
L 598.77399 205.820021 
L 598.77399 199.253473 
L 608.517461 199.253473 
L 608.517461 198.710454 
L 611.765285 198.710454 
L 611.765285 195.348539 
L 615.013109 195.348539 
L 615.013109 192.143906 
L 618.260933 192.143906 
L 618.260933 188.015238 
L 623.132668 188.015238 
L 623.132668 181.370048 
L 628.004404 181.370048 
L 628.004404 180.583635 
L 629.628316 180.583635 
L 629.628316 176.454966 
L 634.500052 176.454966 
L 634.500052 173.01441 
L 639.371788 173.01441 
L 639.371788 169.809777 
L 640.995699 169.809777 
L 640.995699 166.447861 
L 644.243523 166.447861 
L 644.243523 163.007304 
L 649.115259 163.007304 
L 649.115259 156.401435 
L 655.610907 156.401435 
L 655.610907 152.960878 
L 657.234819 152.960878 
L 657.234819 148.380022 
L 662.106554 148.380022 
L 662.106554 145.018107 
L 670.226114 145.018107 
L 670.226114 141.734832 
L 676.721762 141.734832 
L 676.721762 140.211157 
L 683.217409 140.211157 
L 683.217409 140.053875 
L 686.465233 140.053875 
L 686.465233 136.809921 
L 696.208705 136.809921 
L 696.208705 133.212082 
L 699.456528 133.212082 
L 699.456528 133.212082 
L 699.456528 129.968128 
L 699.456528 129.968128 
" clip-path="url(#p53ef7e064d)" style="fill: none; stroke: #008000; stroke-width: 1.5; stroke-linecap: square"/>
   </g>
   <g id="line2d_31">
    <path d="M 106.728679 455.7 
L 111.600415 455.7 
L 111.600415 454.716984 
L 114.848238 454.716984 
L 114.848238 451.276427 
L 118.096062 451.276427 
L 118.096062 448.032473 
L 121.343886 448.032473 
L 121.343886 448.032473 
L 121.343886 444.78852 
L 126.215622 444.78852 
L 126.215622 441.544566 
L 127.839534 441.544566 
L 127.839534 441.151359 
L 129.463446 441.151359 
L 129.463446 440.656509 
L 139.206917 440.656509 
L 139.206917 434.601129 
L 144.078653 434.601129 
L 144.078653 431.239213 
L 148.950389 431.239213 
L 148.950389 427.99526 
L 153.822124 427.99526 
L 153.822124 426.79598 
L 157.069948 426.79598 
L 157.069948 423.512706 
L 161.941684 423.512706 
L 161.941684 419.973847 
L 168.437332 419.973847 
L 168.437332 416.729894 
L 173.309067 416.729894 
L 173.309067 410.124024 
L 179.804715 410.124024 
L 179.804715 406.880071 
L 184.676451 406.880071 
L 184.676451 403.518155 
L 189.548187 403.518155 
L 189.548187 400.15624 
L 192.79601 400.15624 
L 192.79601 396.853305 
L 199.291658 396.853305 
L 199.291658 396.853305 
L 199.291658 393.609351 
L 205.787306 393.609351 
L 205.787306 390.365398 
L 220.402513 390.365398 
L 220.402513 390.216372 
L 222.026425 390.216372 
L 222.026425 386.972419 
L 223.650337 386.972419 
L 223.650337 384.416576 
L 225.274249 384.416576 
L 225.274249 384.416576 
L 225.274249 381.054661 
L 230.145984 381.054661 
L 230.145984 377.692745 
L 243.13728 377.692745 
L 243.13728 374.645395 
L 251.256839 374.645395 
L 251.256839 371.480083 
L 252.880751 371.480083 
L 252.880751 368.92424 
L 257.752487 368.92424 
L 257.752487 365.87689 
L 261.000311 365.87689 
L 261.000311 362.711578 
L 262.624223 362.711578 
L 262.624223 359.664227 
L 272.367694 359.664227 
L 272.367694 356.420274 
L 273.991606 356.420274 
L 273.991606 353.372923 
L 285.35899 353.372923 
L 285.35899 352.778985 
L 291.854637 352.778985 
L 291.854637 349.613672 
L 296.726373 349.613672 
L 296.726373 343.204407 
L 298.350285 343.204407 
L 298.350285 339.842491 
L 303.222021 339.842491 
L 303.222021 336.677179 
L 306.469845 336.677179 
L 306.469845 333.398819 
L 311.34158 333.398819 
L 311.34158 330.233507 
L 316.213316 330.233507 
L 316.213316 324.128976 
L 321.085052 324.128976 
L 321.085052 318.024445 
L 322.708964 318.024445 
L 322.708964 314.859133 
L 325.956788 314.859133 
L 325.956788 311.919914 
L 334.076347 311.919914 
L 334.076347 308.557999 
L 337.324171 308.557999 
L 337.324171 305.510648 
L 338.948083 305.510648 
L 338.948083 302.148733 
L 343.819819 302.148733 
L 343.819819 298.708176 
L 343.819819 298.708176 
L 345.443731 298.708176 
L 345.443731 295.660826 
L 348.691554 295.660826 
L 348.691554 294.805601 
L 350.315466 294.805601 
L 350.315466 291.758251 
L 355.187202 291.758251 
L 355.187202 288.396335 
L 356.811114 288.396335 
L 356.811114 285.348985 
L 361.68285 285.348985 
L 361.68285 284.090724 
L 363.306762 284.090724 
L 363.306762 281.151506 
L 366.554585 281.151506 
L 366.554585 277.78959 
L 371.426321 277.78959 
L 371.426321 271.488456 
L 377.921969 271.488456 
L 377.921969 268.549237 
L 379.545881 268.549237 
L 379.545881 265.383925 
L 387.66544 265.383925 
L 387.66544 262.336575 
L 387.66544 262.336575 
L 390.913264 262.336575 
L 390.913264 256.733382 
L 395.785 256.733382 
L 395.785 250.746813 
L 400.656736 250.746813 
L 400.656736 249.999721 
L 402.280648 249.999721 
L 402.280648 246.95237 
L 412.024119 246.95237 
L 412.024119 243.787058 
L 420.143679 243.787058 
L 420.143679 243.000645 
L 425.015415 243.000645 
L 425.015415 237.154844 
L 429.88715 237.154844 
L 429.88715 233.714287 
L 434.758886 233.714287 
L 434.758886 233.045836 
L 436.382798 233.045836 
L 436.382798 232.864961 
L 441.254534 232.864961 
L 441.254534 229.699649 
L 442.878446 229.699649 
L 442.878446 226.259092 
L 447.750181 226.259092 
L 447.750181 223.093779 
L 449.374093 223.093779 
L 449.374093 220.329538 
L 450.998005 220.329538 
L 450.998005 217.773695 
L 455.869741 217.773695 
L 455.869741 214.608383 
L 467.237124 214.608383 
L 467.237124 211.701801 
L 472.10886 211.701801 
L 472.10886 205.095931 
L 478.604508 205.095931 
L 478.604508 201.655375 
L 485.100155 201.655375 
L 485.100155 197.233767 
L 488.347979 197.233767 
L 488.347979 196.78158 
L 491.595803 196.78158 
L 491.595803 193.366581 
L 493.219715 193.366581 
L 493.219715 190.201269 
L 494.843627 190.201269 
L 494.843627 187.035957 
L 498.091451 187.035957 
L 498.091451 183.5954 
L 499.715363 183.5954 
L 499.715363 180.430088 
L 504.587098 180.430088 
L 504.587098 173.824218 
L 507.834922 173.824218 
L 507.834922 170.658906 
L 509.458834 170.658906 
L 509.458834 167.218349 
L 519.202306 167.218349 
L 519.202306 165.684844 
L 520.826218 165.684844 
L 520.826218 162.244287 
L 522.45013 162.244287 
L 522.45013 161.261271 
L 528.945777 161.261271 
L 528.945777 158.095958 
L 530.569689 158.095958 
L 530.569689 154.655401 
L 533.817513 154.655401 
L 533.817513 151.490089 
L 538.689249 151.490089 
L 538.689249 151.199706 
L 540.313161 151.199706 
L 540.313161 148.034394 
L 541.937073 148.034394 
L 541.937073 144.593837 
L 546.808808 144.593837 
L 546.808808 141.428525 
L 553.304456 141.428525 
L 553.304456 138.263212 
L 559.800104 138.263212 
L 559.800104 135.0979 
L 561.424016 135.0979 
L 561.424016 131.932588 
L 569.543575 131.932588 
L 569.543575 128.786936 
L 571.167487 128.786936 
L 571.167487 125.880353 
L 574.415311 125.880353 
L 574.415311 122.715041 
L 579.287047 122.715041 
L 579.287047 116.384416 
L 584.158782 116.384416 
L 584.158782 113.219104 
L 587.406606 113.219104 
L 587.406606 112.019824 
L 589.030518 112.019824 
L 589.030518 108.854512 
L 590.65443 108.854512 
L 590.65443 105.689199 
L 593.902254 105.689199 
L 593.902254 102.523887 
L 595.526166 102.523887 
L 595.526166 99.245528 
L 598.77399 99.245528 
L 598.77399 96.080215 
L 608.517461 96.080215 
L 608.517461 89.636544 
L 613.389197 89.636544 
L 613.389197 86.358185 
L 616.637021 86.358185 
L 616.637021 83.079826 
L 623.132668 83.079826 
L 623.132668 76.523107 
L 626.380492 76.523107 
L 626.380492 76.239998 
L 629.628316 76.239998 
L 629.628316 72.961639 
L 632.87614 72.961639 
L 632.87614 69.68328 
L 634.500052 69.68328 
L 634.500052 66.404921 
L 636.123964 66.404921 
L 636.123964 63.239609 
L 649.115259 63.239609 
L 649.115259 59.961249 
L 650.739171 59.961249 
L 650.739171 53.630625 
L 653.986995 53.630625 
L 653.986995 50.465312 
L 658.858731 50.465312 
L 658.858731 47.3 
L 660.482642 47.3 
L 660.482642 47.3 
" clip-path="url(#p53ef7e064d)" style="fill: none; stroke: #ff0000; stroke-width: 1.5; stroke-linecap: square"/>
   </g>
   <g id="patch_3">
    <path d="M 82.37 476.12 
L 82.37 26.88 
" style="fill: none; stroke: #000000; stroke-width: 0.8; stroke-linejoin: miter; stroke-linecap: square"/>
   </g>
   <g id="patch_4">
    <path d="M 709.2 476.12 
L 709.2 26.88 
" style="fill: none; stroke: #000000; stroke-width: 0.8; stroke-linejoin: miter; stroke-linecap: square"/>
   </g>
   <g id="patch_5">
    <path d="M 82.37 476.12 
L 709.2 476.12 
" style="fill: none; stroke: #000000; stroke-width: 0.8; stroke-linejoin: miter; stroke-linecap: square"/>
   </g>
   <g id="patch_6">
    <path d="M 82.37 26.88 
L 709.2 26.88 
" style="fill: none; stroke: #000000; stroke-width: 0.8; stroke-linejoin: miter; stroke-linecap: square"/>
   </g>
   <g id="text_13">
    <!-- Cumulative Payload Mass to Orbit By Year -->
    <g transform="translate(270.179688 20.88) scale(0.12 -0.12)">
     <defs>
      <path id="DejaVuSans-4f" d="M 2522 4238 
Q 1834 4238 1429 3725 
Q 1025 3213 1025 2328 
Q 1025 1447 1429 934 
Q 1834 422 2522 422 
Q 3209 422 3611 934 
Q 4013 1447 4013 2328 
Q 4013 3213 3611 3725 
Q 3209 4238 2522 4238 
z
M 2522 4750 
Q 3503 4750 4090 4092 
Q 4678 3434 4678 2328 
Q 4678 1225 4090 567 
Q 3503 -91 2522 -91 
Q 1538 -91 948 565 
Q 359 1222 359 2328 
Q 359 3434 948 4092 
Q 1538 4750 2522 4750 
z
" transform="scale(0.015625)"/>
      <path id="DejaVuSans-62" d="M 3116 1747 
Q 3116 2381 2855 2742 
Q 2594 3103 2138 3103 
Q 1681 3103 1420 2742 
Q 1159 2381 1159 1747 
Q 1159 1113 1420 752 
Q 1681 391 2138 391 
Q 2594 391 2855 752 
Q 3116 1113 3116 1747 
z
M 1159 2969 
Q 1341 3281 1617 3432 
Q 1894 3584 2278 3584 
Q 2916 3584 3314 3078 
Q 3713 2572 3713 1747 
Q 3713 922 3314 415 
Q 2916 -91 2278 -91 
Q 1894 -91 1617 61 
Q 1341 213 1159 525 
L 1159 0 
L 581 0 
L 581 4863 
L 1159 4863 
L 1159 2969 
z
" transform="scale(0.015625)"/>
      <path id="DejaVuSans-42" d="M 1259 2228 
L 1259 519 
L 2272 519 
Q 2781 519 3026 730 
Q 3272 941 3272 1375 
Q 3272 1813 3026 2020 
Q 2781 2228 2272 2228 
L 1259 2228 
z
M 1259 4147 
L 1259 2741 
L 2194 2741 
Q 2656 2741 2882 2914 
Q 3109 3088 3109 3444 
Q 3109 3797 2882 3972 
Q 2656 4147 2194 4147 
L 1259 4147 
z
M 628 4666 
L 2241 4666 
Q 2963 4666 3353 4366 
Q 3744 4066 3744 3513 
Q 3744 3084 3544 2831 
Q 3344 2578 2956 2516 
Q 3422 2416 3680 2098 
Q 3938 1781 3938 1306 
Q 3938 681 3513 340 
Q 3088 0 2303 0 
L 628 0 
L 628 4666 
z
" transform="scale(0.015625)"/>
      <path id="DejaVuSans-59" d="M -13 4666 
L 666 4666 
L 1959 2747 
L 3244 4666 
L 3922 4666 
L 2272 2222 
L 2272 0 
L 1638 0 
L 1638 2222 
L -13 4666 
z
" transform="scale(0.015625)"/>
     </defs>
     <use xlink:href="#DejaVuSans-43"/>
     <use xlink:href="#DejaVuSans-75" x="69.824219"/>
     <use xlink:href="#DejaVuSans-6d" x="133.203125"/>
     <use xlink:href="#DejaVuSans-75" x="230.615234"/>
     <use xlink:href="#DejaVuSans-6c" x="293.994141"/>
     <use xlink:href="#DejaVuSans-61" x="321.777344"/>
     <use xlink:href="#DejaVuSans-74" x="383.056641"/>
     <use xlink:href="#DejaVuSans-69" x="422.265625"/>
     <use xlink:href="#DejaVuSans-76" x="450.048828"/>
     <use xlink:href="#DejaVuSans-65" x="509.228516"/>
     <use xlink:href="#DejaVuSans-20" x="570.751953"/>
     <use xlink:href="#DejaVuSans-50" x="602.539062"/>
     <use xlink:href="#DejaVuSans-61" x="658.341797"/>
     <use xlink:href="#DejaVuSans-79" x="719.621094"/>
     <use xlink:href="#DejaVuSans-6c" x="778.800781"/>
     <use xlink:href="#DejaVuSans-6f" x="806.583984"/>
     <use xlink:href="#DejaVuSans-61" x="867.765625"/>
     <use xlink:href="#DejaVuSans-64" x="929.044922"/>
     <use xlink:href="#DejaVuSans-20" x="992.521484"/>
     <use xlink:href="#DejaVuSans-4d" x="1024.308594"/>
     <use xlink:href="#DejaVuSans-61" x="1110.587891"/>
     <use xlink:href="#DejaVuSans-73" x="1171.867188"/>
     <use xlink:href="#DejaVuSans-73" x="1223.966797"/>
     <use xlink:href="#DejaVuSans-20" x="1276.066406"/>
     <use xlink:href="#DejaVuSans-74" x="1307.853516"/>
     <use xlink:href="#DejaVuSans-6f" x="1347.0625"/>
     <use xlink:href="#DejaVuSans-20" x="1408.244141"/>
     <use xlink:href="#DejaVuSans-4f" x="1440.03125"/>
     <use xlink:href="#DejaVuSans-72" x="1518.742188"/>
     <use xlink:href="#DejaVuSans-62" x="1559.855469"/>
     <use xlink:href="#DejaVuSans-69" x="1623.332031"/>
     <use xlink:href="#DejaVuSans-74" x="1651.115234"/>
     <use xlink:href="#DejaVuSans-20" x="1690.324219"/>
     <use xlink:href="#DejaVuSans-42" x="1722.111328"/>
     <use xlink:href="#DejaVuSans-79" x="1790.714844"/>
     <use xlink:href="#DejaVuSans-20" x="1849.894531"/>
     <use xlink:href="#DejaVuSans-59" x="1881.681641"/>
     <use xlink:href="#DejaVuSans-65" x="1929.515625"/>
     <use xlink:href="#DejaVuSans-61" x="1991.039062"/>
     <use xlink:href="#DejaVuSans-72" x="2052.318359"/>
    </g>
   </g>
   <g id="legend_1">
    <g id="patch_7">
     <path d="M 89.37 181.66125 
L 146.82 181.66125 
Q 148.82 181.66125 148.82 179.66125 
L 148.82 33.88 
Q 148.82 31.88 146.82 31.88 
L 89.37 31.88 
Q 87.37 31.88 87.37 33.88 
L 87.37 179.66125 
Q 87.37 181.66125 89.37 181.66125 
z
" style="fill: #ffffff; opacity: 0.8; stroke: #cccccc; stroke-linejoin: miter"/>
    </g>
    <g id="text_14">
     <!-- Year -->
     <g transform="translate(107.5075 43.478437) scale(0.1 -0.1)">
      <use xlink:href="#DejaVuSans-59"/>
      <use xlink:href="#DejaVuSans-65" x="47.833984"/>
      <use xlink:href="#DejaVuSans-61" x="109.357422"/>
      <use xlink:href="#DejaVuSans-72" x="170.636719"/>
     </g>
    </g>
    <g id="line2d_32">
     <path d="M 91.37 54.656562 
L 101.37 54.656562 
L 101.37 54.656562 
L 111.37 54.656562 
L 111.37 54.656562 
" style="fill: none; stroke: #808080; stroke-width: 1.5; stroke-linecap: square"/>
    </g>
    <g id="text_15">
     <!-- 2017 -->
     <g transform="translate(119.37 58.156562) scale(0.1 -0.1)">
      <defs>
       <path id="DejaVuSans-37" d="M 525 4666 
L 3525 4666 
L 3525 4397 
L 1831 0 
L 1172 0 
L 2766 4134 
L 525 4134 
L 525 4666 
z
" transform="scale(0.015625)"/>
      </defs>
      <use xlink:href="#DejaVuSans-32"/>
      <use xlink:href="#DejaVuSans-30" x="63.623047"/>
      <use xlink:href="#DejaVuSans-31" x="127.246094"/>
      <use xlink:href="#DejaVuSans-37" x="190.869141"/>
     </g>
    </g>
    <g id="line2d_33">
     <path d="M 91.37 69.334687 
L 101.37 69.334687 
L 101.37 69.334687 
L 111.37 69.334687 
L 111.37 69.334687 
" style="fill: none; stroke: #90ee90; stroke-width: 1.5; stroke-linecap: square"/>
    </g>
    <g id="text_16">
     <!-- 2018 -->
     <g transform="translate(119.37 72.834687) scale(0.1 -0.1)">
      <defs>
       <path id="DejaVuSans-38" d="M 2034 2216 
Q 1584 2216 1326 1975 
Q 1069 1734 1069 1313 
Q 1069 891 1326 650 
Q 1584 409 2034 409 
Q 2484 409 2743 651 
Q 3003 894 3003 1313 
Q 3003 1734 2745 1975 
Q 2488 2216 2034 2216 
z
M 1403 2484 
Q 997 2584 770 2862 
Q 544 3141 544 3541 
Q 544 4100 942 4425 
Q 1341 4750 2034 4750 
Q 2731 4750 3128 4425 
Q 3525 4100 3525 3541 
Q 3525 3141 3298 2862 
Q 3072 2584 2669 2484 
Q 3125 2378 3379 2068 
Q 3634 1759 3634 1313 
Q 3634 634 3220 271 
Q 2806 -91 2034 -91 
Q 1263 -91 848 271 
Q 434 634 434 1313 
Q 434 1759 690 2068 
Q 947 2378 1403 2484 
z
M 1172 3481 
Q 1172 3119 1398 2916 
Q 1625 2713 2034 2713 
Q 2441 2713 2670 2916 
Q 2900 3119 2900 3481 
Q 2900 3844 2670 4047 
Q 2441 4250 2034 4250 
Q 1625 4250 1398 4047 
Q 1172 3844 1172 3481 
z
" transform="scale(0.015625)"/>
      </defs>
      <use xlink:href="#DejaVuSans-32"/>
      <use xlink:href="#DejaVuSans-30" x="63.623047"/>
      <use xlink:href="#DejaVuSans-31" x="127.246094"/>
      <use xlink:href="#DejaVuSans-38" x="190.869141"/>
     </g>
    </g>
    <g id="line2d_34">
     <path d="M 91.37 84.012812 
L 101.37 84.012812 
L 101.37 84.012812 
L 111.37 84.012812 
L 111.37 84.012812 
" style="fill: none; stroke: #add8e6; stroke-width: 1.5; stroke-linecap: square"/>
    </g>
    <g id="text_17">
     <!-- 2019 -->
     <g transform="translate(119.37 87.512812) scale(0.1 -0.1)">
      <defs>
       <path id="DejaVuSans-39" d="M 703 97 
L 703 672 
Q 941 559 1184 500 
Q 1428 441 1663 441 
Q 2288 441 2617 861 
Q 2947 1281 2994 2138 
Q 2813 1869 2534 1725 
Q 2256 1581 1919 1581 
Q 1219 1581 811 2004 
Q 403 2428 403 3163 
Q 403 3881 828 4315 
Q 1253 4750 1959 4750 
Q 2769 4750 3195 4129 
Q 3622 3509 3622 2328 
Q 3622 1225 3098 567 
Q 2575 -91 1691 -91 
Q 1453 -91 1209 -44 
Q 966 3 703 97 
z
M 1959 2075 
Q 2384 2075 2632 2365 
Q 2881 2656 2881 3163 
Q 2881 3666 2632 3958 
Q 2384 4250 1959 4250 
Q 1534 4250 1286 3958 
Q 1038 3666 1038 3163 
Q 1038 2656 1286 2365 
Q 1534 2075 1959 2075 
z
" transform="scale(0.015625)"/>
      </defs>
      <use xlink:href="#DejaVuSans-32"/>
      <use xlink:href="#DejaVuSans-30" x="63.623047"/>
      <use xlink:href="#DejaVuSans-31" x="127.246094"/>
      <use xlink:href="#DejaVuSans-39" x="190.869141"/>
     </g>
    </g>
    <g id="line2d_35">
     <path d="M 91.37 98.690937 
L 101.37 98.690937 
L 101.37 98.690937 
L 111.37 98.690937 
L 111.37 98.690937 
" style="fill: none; stroke: #ffc0cb; stroke-width: 1.5; stroke-linecap: square"/>
    </g>
    <g id="text_18">
     <!-- 2020 -->
     <g transform="translate(119.37 102.190937) scale(0.1 -0.1)">
      <use xlink:href="#DejaVuSans-32"/>
      <use xlink:href="#DejaVuSans-30" x="63.623047"/>
      <use xlink:href="#DejaVuSans-32" x="127.246094"/>
      <use xlink:href="#DejaVuSans-30" x="190.869141"/>
     </g>
    </g>
    <g id="line2d_36">
     <path d="M 91.37 113.369062 
L 101.37 113.369062 
L 101.37 113.369062 
L 111.37 113.369062 
L 111.37 113.369062 
" style="fill: none; stroke: #800080; stroke-width: 1.5; stroke-linecap: square"/>
    </g>
    <g id="text_19">
     <!-- 2021 -->
     <g transform="translate(119.37 116.869062) scale(0.1 -0.1)">
      <use xlink:href="#DejaVuSans-32"/>
      <use xlink:href="#DejaVuSans-30" x="63.623047"/>
      <use xlink:href="#DejaVuSans-32" x="127.246094"/>
      <use xlink:href="#DejaVuSans-31" x="190.869141"/>
     </g>
    </g>
    <g id="line2d_37">
     <path d="M 91.37 128.047187 
L 101.37 128.047187 
L 101.37 128.047187 
L 111.37 128.047187 
L 111.37 128.047187 
" style="fill: none; stroke: #ffa500; stroke-width: 1.5; stroke-linecap: square"/>
    </g>
    <g id="text_20">
     <!-- 2022 -->
     <g transform="translate(119.37 131.547187) scale(0.1 -0.1)">
      <use xlink:href="#DejaVuSans-32"/>
      <use xlink:href="#DejaVuSans-30" x="63.623047"/>
      <use xlink:href="#DejaVuSans-32" x="127.246094"/>
      <use xlink:href="#DejaVuSans-32" x="190.869141"/>
     </g>
    </g>
    <g id="line2d_38">
     <path d="M 91.37 142.725312 
L 101.37 142.725312 
L 101.37 142.725312 
L 111.37 142.725312 
L 111.37 142.725312 
" style="fill: none; stroke: #0000ff; stroke-width: 1.5; stroke-linecap: square"/>
    </g>
    <g id="text_21">
     <!-- 2023 -->
     <g transform="translate(119.37 146.225312) scale(0.1 -0.1)">
      <defs>
       <path id="DejaVuSans-33" d="M 2597 2516 
Q 3050 2419 3304 2112 
Q 3559 1806 3559 1356 
Q 3559 666 3084 287 
Q 2609 -91 1734 -91 
Q 1441 -91 1130 -33 
Q 819 25 488 141 
L 488 750 
Q 750 597 1062 519 
Q 1375 441 1716 441 
Q 2309 441 2620 675 
Q 2931 909 2931 1356 
Q 2931 1769 2642 2001 
Q 2353 2234 1838 2234 
L 1294 2234 
L 1294 2753 
L 1863 2753 
Q 2328 2753 2575 2939 
Q 2822 3125 2822 3475 
Q 2822 3834 2567 4026 
Q 2313 4219 1838 4219 
Q 1578 4219 1281 4162 
Q 984 4106 628 3988 
L 628 4550 
Q 988 4650 1302 4700 
Q 1616 4750 1894 4750 
Q 2613 4750 3031 4423 
Q 3450 4097 3450 3541 
Q 3450 3153 3228 2886 
Q 3006 2619 2597 2516 
z
" transform="scale(0.015625)"/>
      </defs>
      <use xlink:href="#DejaVuSans-32"/>
      <use xlink:href="#DejaVuSans-30" x="63.623047"/>
      <use xlink:href="#DejaVuSans-32" x="127.246094"/>
      <use xlink:href="#DejaVuSans-33" x="190.869141"/>
     </g>
    </g>
    <g id="line2d_39">
     <path d="M 91.37 157.403437 
L 101.37 157.403437 
L 101.37 157.403437 
L 111.37 157.403437 
L 111.37 157.403437 
" style="fill: none; stroke: #008000; stroke-width: 1.5; stroke-linecap: square"/>
    </g>
    <g id="text_22">
     <!-- 2024 -->
     <g transform="translate(119.37 160.903437) scale(0.1 -0.1)">
      <defs>
       <path id="DejaVuSans-34" d="M 2419 4116 
L 825 1625 
L 2419 1625 
L 2419 4116 
z
M 2253 4666 
L 3047 4666 
L 3047 1625 
L 3713 1625 
L 3713 1100 
L 3047 1100 
L 3047 0 
L 2419 0 
L 2419 1100 
L 313 1100 
L 313 1709 
L 2253 4666 
z
" transform="scale(0.015625)"/>
      </defs>
      <use xlink:href="#DejaVuSans-32"/>
      <use xlink:href="#DejaVuSans-30" x="63.623047"/>
      <use xlink:href="#DejaVuSans-32" x="127.246094"/>
      <use xlink:href="#DejaVuSans-34" x="190.869141"/>
     </g>
    </g>
    <g id="line2d_40">
     <path d="M 91.37 172.081562 
L 101.37 172.081562 
L 101.37 172.081562 
L 111.37 172.081562 
L 111.37 172.081562 
" style="fill: none; stroke: #ff0000; stroke-width: 1.5; stroke-linecap: square"/>
    </g>
    <g id="text_23">
     <!-- 2025 -->
     <g transform="translate(119.37 175.581562) scale(0.1 -0.1)">
      <use xlink:href="#DejaVuSans-32"/>
      <use xlink:href="#DejaVuSans-30" x="63.623047"/>
      <use xlink:href="#DejaVuSans-32" x="127.246094"/>
      <use xlink:href="#DejaVuSans-35" x="190.869141"/>
     </g>
    </g>
   </g>
  </g>
 </g>
 <defs>
  <clipPath id="p53ef7e064d">
   <rect x="82.37" y="26.88" width="626.83" height="449.24"/>
  </clipPath>
 </defs>
</svg>
