<?xml version="1.0" encoding="utf-8" standalone="no"?>
<!DOCTYPE svg PUBLIC "-//W3C//DTD SVG 1.1//EN"
  "http://www.w3.org/Graphics/SVG/1.1/DTD/svg11.dtd">
<svg xmlns:xlink="http://www.w3.org/1999/xlink" width="720pt" height="504pt" viewBox="0 0 720 504" xmlns="http://www.w3.org/2000/svg" version="1.1">
 <metadata>
  <rdf:RDF xmlns:dc="http://purl.org/dc/elements/1.1/" xmlns:cc="http://creativecommons.org/ns#" xmlns:rdf="http://www.w3.org/1999/02/22-rdf-syntax-ns#">
   <cc:Work>
    <dc:type rdf:resource="http://purl.org/dc/dcmitype/StillImage"/>
    <dc:date>2025-10-26T11:22:00.194537</dc:date>
    <dc:format>image/svg+xml</dc:format>
    <dc:creator>
     <cc:Agent>
      <dc:title>Matplotlib v3.8.2, https://matplotlib.org/</dc:title>
     </cc:Agent>
    </dc:creator>
   </cc:Work>
  </rdf:RDF>
 </metadata>
 <defs>
  <style type="text/css">*{stroke-linejoin: round; stroke-linecap: butt}</style>
 </defs>
 <g id="figure_1">
  <g id="patch_1">
   <path d="M 0 504 
L 720 504 
L 720 0 
L 0 0 
z
" style="fill: #ffffff"/>
  </g>
  <g id="axes_1">
   <g id="patch_2">
    <path d="M 82.37 476.12 
L 709.2 476.12 
L 709.2 26.88 
L 82.37 26.88 
z
" style="fill: #ffffff"/>
   </g>
   <g id="matplotlib.axis_1">
    <g id="xtick_1">
     <g id="line2d_1">
      <path d="M 106.728679 476.12 
L 106.728679 26.88 
" clip-path="url(#pc7d3eead95)" style="fill: none; stroke: #b0b0b0; stroke-width: 0.8; stroke-linecap: square"/>
     </g>
     <g id="line2d_2">
      <defs>
       <path id="maff14099fe" d="M 0 0 
L 0 3.5 
" style="stroke: #000000; stroke-width: 0.8"/>
      </defs>
      <g>
       <use xlink:href="#maff14099fe" x="106.728679" y="476.12" style="stroke: #000000; stroke-width: 0.8"/>
      </g>
     </g>
     <g id="text_1">
      <!-- Jan 1 -->
      <g transform="translate(94.250554 490.718437) scale(0.1 -0.1)">
       <defs>
        <path id="DejaVuSans-4a" d="M 628 4666 
L 1259 4666 
L 1259 325 
Q 1259 -519 939 -900 
Q 619 -1281 -91 -1281 
L -331 -1281 
L -331 -750 
L -134 -750 
Q 284 -750 456 -515 
Q 628 -281 628 325 
L 628 4666 
z
" transform="scale(0.015625)"/>
        <path id="DejaVuSans-61" d="M 2194 1759 
Q 1497 1759 1228 1600 
Q 959 1441 959 1056 
Q 959 750 1161 570 
Q 1363 391 1709 391 
Q 2188 391 2477 730 
Q 2766 1069 2766 1631 
L 2766 1759 
L 2194 1759 
z
M 3341 1997 
L 3341 0 
L 2766 0 
L 2766 531 
Q 2569 213 2275 61 
Q 1981 -91 1556 -91 
Q 1019 -91 701 211 
Q 384 513 384 1019 
Q 384 1609 779 1909 
Q 1175 2209 1959 2209 
L 2766 2209 
L 2766 2266 
Q 2766 2663 2505 2880 
Q 2244 3097 1772 3097 
Q 1472 3097 1187 3025 
Q 903 2953 641 2809 
L 641 3341 
Q 956 3463 1253 3523 
Q 1550 3584 1831 3584 
Q 2591 3584 2966 3190 
Q 3341 2797 3341 1997 
z
" transform="scale(0.015625)"/>
        <path id="DejaVuSans-6e" d="M 3513 2113 
L 3513 0 
L 2938 0 
L 2938 2094 
Q 2938 2591 2744 2837 
Q 2550 3084 2163 3084 
Q 1697 3084 1428 2787 
Q 1159 2491 1159 1978 
L 1159 0 
L 581 0 
L 581 3500 
L 1159 3500 
L 1159 2956 
Q 1366 3272 1645 3428 
Q 1925 3584 2291 3584 
Q 2894 3584 3203 3211 
Q 3513 2838 3513 2113 
z
" transform="scale(0.015625)"/>
        <path id="DejaVuSans-20" transform="scale(0.015625)"/>
        <path id="DejaVuSans-31" d="M 794 531 
L 1825 531 
L 1825 4091 
L 703 3866 
L 703 4441 
L 1819 4666 
L 2450 4666 
L 2450 531 
L 3481 531 
L 3481 0 
L 794 0 
L 794 531 
z
" transform="scale(0.015625)"/>
       </defs>
       <use xlink:href="#DejaVuSans-4a"/>
       <use xlink:href="#DejaVuSans-61" x="29.492188"/>
       <use xlink:href="#DejaVuSans-6e" x="90.771484"/>
       <use xlink:href="#DejaVuSans-20" x="154.150391"/>
       <use xlink:href="#DejaVuSans-31" x="185.9375"/>
      </g>
     </g>
    </g>
    <g id="xtick_2">
     <g id="line2d_3">
      <path d="M 204.163394 476.12 
L 204.163394 26.88 
" clip-path="url(#pc7d3eead95)" style="fill: none; stroke: #b0b0b0; stroke-width: 0.8; stroke-linecap: square"/>
     </g>
     <g id="line2d_4">
      <g>
       <use xlink:href="#maff14099fe" x="204.163394" y="476.12" style="stroke: #000000; stroke-width: 0.8"/>
      </g>
     </g>
     <g id="text_2">
      <!-- Mar 1 -->
      <g transform="translate(189.959488 490.718437) scale(0.1 -0.1)">
       <defs>
        <path id="DejaVuSans-4d" d="M 628 4666 
L 1569 4666 
L 2759 1491 
L 3956 4666 
L 4897 4666 
L 4897 0 
L 4281 0 
L 4281 4097 
L 3078 897 
L 2444 897 
L 1241 4097 
L 1241 0 
L 628 0 
L 628 4666 
z
" transform="scale(0.015625)"/>
        <path id="DejaVuSans-72" d="M 2631 2963 
Q 2534 3019 2420 3045 
Q 2306 3072 2169 3072 
Q 1681 3072 1420 2755 
Q 1159 2438 1159 1844 
L 1159 0 
L 581 0 
L 581 3500 
L 1159 3500 
L 1159 2956 
Q 1341 3275 1631 3429 
Q 1922 3584 2338 3584 
Q 2397 3584 2469 3576 
Q 2541 3569 2628 3553 
L 2631 2963 
z
" transform="scale(0.015625)"/>
       </defs>
       <use xlink:href="#DejaVuSans-4d"/>
       <use xlink:href="#DejaVuSans-61" x="86.279297"/>
       <use xlink:href="#DejaVuSans-72" x="147.558594"/>
       <use xlink:href="#DejaVuSans-20" x="188.671875"/>
       <use xlink:href="#DejaVuSans-31" x="220.458984"/>
      </g>
     </g>
    </g>
    <g id="xtick_3">
     <g id="line2d_5">
      <path d="M 303.222021 476.12 
L 303.222021 26.88 
" clip-path="url(#pc7d3eead95)" style="fill: none; stroke: #b0b0b0; stroke-width: 0.8; stroke-linecap: square"/>
     </g>
     <g id="line2d_6">
      <g>
       <use xlink:href="#maff14099fe" x="303.222021" y="476.12" style="stroke: #000000; stroke-width: 0.8"/>
      </g>
     </g>
     <g id="text_3">
      <!-- May 1 -->
      <g transform="translate(288.114208 490.718437) scale(0.1 -0.1)">
       <defs>
        <path id="DejaVuSans-79" d="M 2059 -325 
Q 1816 -950 1584 -1140 
Q 1353 -1331 966 -1331 
L 506 -1331 
L 506 -850 
L 844 -850 
Q 1081 -850 1212 -737 
Q 1344 -625 1503 -206 
L 1606 56 
L 191 3500 
L 800 3500 
L 1894 763 
L 2988 3500 
L 3597 3500 
L 2059 -325 
z
" transform="scale(0.015625)"/>
       </defs>
       <use xlink:href="#DejaVuSans-4d"/>
       <use xlink:href="#DejaVuSans-61" x="86.279297"/>
       <use xlink:href="#DejaVuSans-79" x="147.558594"/>
       <use xlink:href="#DejaVuSans-20" x="206.738281"/>
       <use xlink:href="#DejaVuSans-31" x="238.525391"/>
      </g>
     </g>
    </g>
    <g id="xtick_4">
     <g id="line2d_7">
      <path d="M 402.280648 476.12 
L 402.280648 26.88 
" clip-path="url(#pc7d3eead95)" style="fill: none; stroke: #b0b0b0; stroke-width: 0.8; stroke-linecap: square"/>
     </g>
     <g id="line2d_8">
      <g>
       <use xlink:href="#maff14099fe" x="402.280648" y="476.12" style="stroke: #000000; stroke-width: 0.8"/>
      </g>
     </g>
     <g id="text_4">
      <!-- Jul 1 -->
      <g transform="translate(391.477523 490.718437) scale(0.1 -0.1)">
       <defs>
        <path id="DejaVuSans-75" d="M 544 1381 
L 544 3500 
L 1119 3500 
L 1119 1403 
Q 1119 906 1312 657 
Q 1506 409 1894 409 
Q 2359 409 2629 706 
Q 2900 1003 2900 1516 
L 2900 3500 
L 3475 3500 
L 3475 0 
L 2900 0 
L 2900 538 
Q 2691 219 2414 64 
Q 2138 -91 1772 -91 
Q 1169 -91 856 284 
Q 544 659 544 1381 
z
M 1991 3584 
L 1991 3584 
z
" transform="scale(0.015625)"/>
        <path id="DejaVuSans-6c" d="M 603 4863 
L 1178 4863 
L 1178 0 
L 603 0 
L 603 4863 
z
" transform="scale(0.015625)"/>
       </defs>
       <use xlink:href="#DejaVuSans-4a"/>
       <use xlink:href="#DejaVuSans-75" x="29.492188"/>
       <use xlink:href="#DejaVuSans-6c" x="92.871094"/>
       <use xlink:href="#DejaVuSans-20" x="120.654297"/>
       <use xlink:href="#DejaVuSans-31" x="152.441406"/>
      </g>
     </g>
    </g>
    <g id="xtick_5">
     <g id="line2d_9">
      <path d="M 502.963187 476.12 
L 502.963187 26.88 
" clip-path="url(#pc7d3eead95)" style="fill: none; stroke: #b0b0b0; stroke-width: 0.8; stroke-linecap: square"/>
     </g>
     <g id="line2d_10">
      <g>
       <use xlink:href="#maff14099fe" x="502.963187" y="476.12" style="stroke: #000000; stroke-width: 0.8"/>
      </g>
     </g>
     <g id="text_5">
      <!-- Sep 1 -->
      <g transform="translate(488.767874 490.718437) scale(0.1 -0.1)">
       <defs>
        <path id="DejaVuSans-53" d="M 3425 4513 
L 3425 3897 
Q 3066 4069 2747 4153 
Q 2428 4238 2131 4238 
Q 1616 4238 1336 4038 
Q 1056 3838 1056 3469 
Q 1056 3159 1242 3001 
Q 1428 2844 1947 2747 
L 2328 2669 
Q 3034 2534 3370 2195 
Q 3706 1856 3706 1288 
Q 3706 609 3251 259 
Q 2797 -91 1919 -91 
Q 1588 -91 1214 -16 
Q 841 59 441 206 
L 441 856 
Q 825 641 1194 531 
Q 1563 422 1919 422 
Q 2459 422 2753 634 
Q 3047 847 3047 1241 
Q 3047 1584 2836 1778 
Q 2625 1972 2144 2069 
L 1759 2144 
Q 1053 2284 737 2584 
Q 422 2884 422 3419 
Q 422 4038 858 4394 
Q 1294 4750 2059 4750 
Q 2388 4750 2728 4690 
Q 3069 4631 3425 4513 
z
" transform="scale(0.015625)"/>
        <path id="DejaVuSans-65" d="M 3597 1894 
L 3597 1613 
L 953 1613 
Q 991 1019 1311 708 
Q 1631 397 2203 397 
Q 2534 397 2845 478 
Q 3156 559 3463 722 
L 3463 178 
Q 3153 47 2828 -22 
Q 2503 -91 2169 -91 
Q 1331 -91 842 396 
Q 353 884 353 1716 
Q 353 2575 817 3079 
Q 1281 3584 2069 3584 
Q 2775 3584 3186 3129 
Q 3597 2675 3597 1894 
z
M 3022 2063 
Q 3016 2534 2758 2815 
Q 2500 3097 2075 3097 
Q 1594 3097 1305 2825 
Q 1016 2553 972 2059 
L 3022 2063 
z
" transform="scale(0.015625)"/>
        <path id="DejaVuSans-70" d="M 1159 525 
L 1159 -1331 
L 581 -1331 
L 581 3500 
L 1159 3500 
L 1159 2969 
Q 1341 3281 1617 3432 
Q 1894 3584 2278 3584 
Q 2916 3584 3314 3078 
Q 3713 2572 3713 1747 
Q 3713 922 3314 415 
Q 2916 -91 2278 -91 
Q 1894 -91 1617 61 
Q 1341 213 1159 525 
z
M 3116 1747 
Q 3116 2381 2855 2742 
Q 2594 3103 2138 3103 
Q 1681 3103 1420 2742 
Q 1159 2381 1159 1747 
Q 1159 1113 1420 752 
Q 1681 391 2138 391 
Q 2594 391 2855 752 
Q 3116 1113 3116 1747 
z
" transform="scale(0.015625)"/>
       </defs>
       <use xlink:href="#DejaVuSans-53"/>
       <use xlink:href="#DejaVuSans-65" x="63.476562"/>
       <use xlink:href="#DejaVuSans-70" x="125"/>
       <use xlink:href="#DejaVuSans-20" x="188.476562"/>
       <use xlink:href="#DejaVuSans-31" x="220.263672"/>
      </g>
     </g>
    </g>
    <g id="xtick_6">
     <g id="line2d_11">
      <path d="M 602.021813 476.12 
L 602.021813 26.88 
" clip-path="url(#pc7d3eead95)" style="fill: none; stroke: #b0b0b0; stroke-width: 0.8; stroke-linecap: square"/>
     </g>
     <g id="line2d_12">
      <g>
       <use xlink:href="#maff14099fe" x="602.021813" y="476.12" style="stroke: #000000; stroke-width: 0.8"/>
      </g>
     </g>
     <g id="text_6">
      <!-- Nov 1 -->
      <g transform="translate(587.492126 490.718437) scale(0.1 -0.1)">
       <defs>
        <path id="DejaVuSans-4e" d="M 628 4666 
L 1478 4666 
L 3547 763 
L 3547 4666 
L 4159 4666 
L 4159 0 
L 3309 0 
L 1241 3903 
L 1241 0 
L 628 0 
L 628 4666 
z
" transform="scale(0.015625)"/>
        <path id="DejaVuSans-6f" d="M 1959 3097 
Q 1497 3097 1228 2736 
Q 959 2375 959 1747 
Q 959 1119 1226 758 
Q 1494 397 1959 397 
Q 2419 397 2687 759 
Q 2956 1122 2956 1747 
Q 2956 2369 2687 2733 
Q 2419 3097 1959 3097 
z
M 1959 3584 
Q 2709 3584 3137 3096 
Q 3566 2609 3566 1747 
Q 3566 888 3137 398 
Q 2709 -91 1959 -91 
Q 1206 -91 779 398 
Q 353 888 353 1747 
Q 353 2609 779 3096 
Q 1206 3584 1959 3584 
z
" transform="scale(0.015625)"/>
        <path id="DejaVuSans-76" d="M 191 3500 
L 800 3500 
L 1894 563 
L 2988 3500 
L 3597 3500 
L 2284 0 
L 1503 0 
L 191 3500 
z
" transform="scale(0.015625)"/>
       </defs>
       <use xlink:href="#DejaVuSans-4e"/>
       <use xlink:href="#DejaVuSans-6f" x="74.804688"/>
       <use xlink:href="#DejaVuSans-76" x="135.986328"/>
       <use xlink:href="#DejaVuSans-20" x="195.166016"/>
       <use xlink:href="#DejaVuSans-31" x="226.953125"/>
      </g>
     </g>
    </g>
   </g>
   <g id="matplotlib.axis_2">
    <g id="ytick_1">
     <g id="line2d_13">
      <path d="M 82.37 455.7 
L 709.2 455.7 
" clip-path="url(#pc7d3eead95)" style="fill: none; stroke: #b0b0b0; stroke-width: 0.8; stroke-linecap: square"/>
     </g>
     <g id="line2d_14">
      <defs>
       <path id="m068b591d8e" d="M 0 0 
L -3.5 0 
" style="stroke: #000000; stroke-width: 0.8"/>
      </defs>
      <g>
       <use xlink:href="#m068b591d8e" x="82.37" y="455.7" style="stroke: #000000; stroke-width: 0.8"/>
      </g>
     </g>
     <g id="text_7">
      <!-- 0 -->
      <g transform="translate(69.0075 459.499219) scale(0.1 -0.1)">
       <defs>
        <path id="DejaVuSans-30" d="M 2034 4250 
Q 1547 4250 1301 3770 
Q 1056 3291 1056 2328 
Q 1056 1369 1301 889 
Q 1547 409 2034 409 
Q 2525 409 2770 889 
Q 3016 1369 3016 2328 
Q 3016 3291 2770 3770 
Q 2525 4250 2034 4250 
z
M 2034 4750 
Q 2819 4750 3233 4129 
Q 3647 3509 3647 2328 
Q 3647 1150 3233 529 
Q 2819 -91 2034 -91 
Q 1250 -91 836 529 
Q 422 1150 422 2328 
Q 422 3509 836 4129 
Q 1250 4750 2034 4750 
z
" transform="scale(0.015625)"/>
       </defs>
       <use xlink:href="#DejaVuSans-30"/>
      </g>
     </g>
    </g>
    <g id="ytick_2">
     <g id="line2d_15">
      <path d="M 82.37 397.826415 
L 709.2 397.826415 
" clip-path="url(#pc7d3eead95)" style="fill: none; stroke: #b0b0b0; stroke-width: 0.8; stroke-linecap: square"/>
     </g>
     <g id="line2d_16">
      <g>
       <use xlink:href="#m068b591d8e" x="82.37" y="397.826415" style="stroke: #000000; stroke-width: 0.8"/>
      </g>
     </g>
     <g id="text_8">
      <!-- 250,000 -->
      <g transform="translate(34.016875 401.625634) scale(0.1 -0.1)">
       <defs>
        <path id="DejaVuSans-32" d="M 1228 531 
L 3431 531 
L 3431 0 
L 469 0 
L 469 531 
Q 828 903 1448 1529 
Q 2069 2156 2228 2338 
Q 2531 2678 2651 2914 
Q 2772 3150 2772 3378 
Q 2772 3750 2511 3984 
Q 2250 4219 1831 4219 
Q 1534 4219 1204 4116 
Q 875 4013 500 3803 
L 500 4441 
Q 881 4594 1212 4672 
Q 1544 4750 1819 4750 
Q 2544 4750 2975 4387 
Q 3406 4025 3406 3419 
Q 3406 3131 3298 2873 
Q 3191 2616 2906 2266 
Q 2828 2175 2409 1742 
Q 1991 1309 1228 531 
z
" transform="scale(0.015625)"/>
        <path id="DejaVuSans-35" d="M 691 4666 
L 3169 4666 
L 3169 4134 
L 1269 4134 
L 1269 2991 
Q 1406 3038 1543 3061 
Q 1681 3084 1819 3084 
Q 2600 3084 3056 2656 
Q 3513 2228 3513 1497 
Q 3513 744 3044 326 
Q 2575 -91 1722 -91 
Q 1428 -91 1123 -41 
Q 819 9 494 109 
L 494 744 
Q 775 591 1075 516 
Q 1375 441 1709 441 
Q 2250 441 2565 725 
Q 2881 1009 2881 1497 
Q 2881 1984 2565 2268 
Q 2250 2553 1709 2553 
Q 1456 2553 1204 2497 
Q 953 2441 691 2322 
L 691 4666 
z
" transform="scale(0.015625)"/>
        <path id="DejaVuSans-2c" d="M 750 794 
L 1409 794 
L 1409 256 
L 897 -744 
L 494 -744 
L 750 256 
L 750 794 
z
" transform="scale(0.015625)"/>
       </defs>
       <use xlink:href="#DejaVuSans-32"/>
       <use xlink:href="#DejaVuSans-35" x="63.623047"/>
       <use xlink:href="#DejaVuSans-30" x="127.246094"/>
       <use xlink:href="#DejaVuSans-2c" x="190.869141"/>
       <use xlink:href="#DejaVuSans-30" x="222.65625"/>
       <use xlink:href="#DejaVuSans-30" x="286.279297"/>
       <use xlink:href="#DejaVuSans-30" x="349.902344"/>
      </g>
     </g>
    </g>
    <g id="ytick_3">
     <g id="line2d_17">
      <path d="M 82.37 339.95283 
L 709.2 339.95283 
" clip-path="url(#pc7d3eead95)" style="fill: none; stroke: #b0b0b0; stroke-width: 0.8; stroke-linecap: square"/>
     </g>
     <g id="line2d_18">
      <g>
       <use xlink:href="#m068b591d8e" x="82.37" y="339.95283" style="stroke: #000000; stroke-width: 0.8"/>
      </g>
     </g>
     <g id="text_9">
      <!-- 500,000 -->
      <g transform="translate(34.016875 343.752049) scale(0.1 -0.1)">
       <use xlink:href="#DejaVuSans-35"/>
       <use xlink:href="#DejaVuSans-30" x="63.623047"/>
       <use xlink:href="#DejaVuSans-30" x="127.246094"/>
       <use xlink:href="#DejaVuSans-2c" x="190.869141"/>
       <use xlink:href="#DejaVuSans-30" x="222.65625"/>
       <use xlink:href="#DejaVuSans-30" x="286.279297"/>
       <use xlink:href="#DejaVuSans-30" x="349.902344"/>
      </g>
     </g>
    </g>
    <g id="ytick_4">
     <g id="line2d_19">
      <path d="M 82.37 282.079245 
L 709.2 282.079245 
" clip-path="url(#pc7d3eead95)" style="fill: none; stroke: #b0b0b0; stroke-width: 0.8; stroke-linecap: square"/>
     </g>
     <g id="line2d_20">
      <g>
       <use xlink:href="#m068b591d8e" x="82.37" y="282.079245" style="stroke: #000000; stroke-width: 0.8"/>
      </g>
     </g>
     <g id="text_10">
      <!-- 750,000 -->
      <g transform="translate(34.016875 285.878464) scale(0.1 -0.1)">
       <defs>
        <path id="DejaVuSans-37" d="M 525 4666 
L 3525 4666 
L 3525 4397 
L 1831 0 
L 1172 0 
L 2766 4134 
L 525 4134 
L 525 4666 
z
" transform="scale(0.015625)"/>
       </defs>
       <use xlink:href="#DejaVuSans-37"/>
       <use xlink:href="#DejaVuSans-35" x="63.623047"/>
       <use xlink:href="#DejaVuSans-30" x="127.246094"/>
       <use xlink:href="#DejaVuSans-2c" x="190.869141"/>
       <use xlink:href="#DejaVuSans-30" x="222.65625"/>
       <use xlink:href="#DejaVuSans-30" x="286.279297"/>
       <use xlink:href="#DejaVuSans-30" x="349.902344"/>
      </g>
     </g>
    </g>
    <g id="ytick_5">
     <g id="line2d_21">
      <path d="M 82.37 224.20566 
L 709.2 224.20566 
" clip-path="url(#pc7d3eead95)" style="fill: none; stroke: #b0b0b0; stroke-width: 0.8; stroke-linecap: square"/>
     </g>
     <g id="line2d_22">
      <g>
       <use xlink:href="#m068b591d8e" x="82.37" y="224.20566" style="stroke: #000000; stroke-width: 0.8"/>
      </g>
     </g>
     <g id="text_11">
      <!-- 1,000,000 -->
      <g transform="translate(24.47625 228.004879) scale(0.1 -0.1)">
       <use xlink:href="#DejaVuSans-31"/>
       <use xlink:href="#DejaVuSans-2c" x="63.623047"/>
       <use xlink:href="#DejaVuSans-30" x="95.410156"/>
       <use xlink:href="#DejaVuSans-30" x="159.033203"/>
       <use xlink:href="#DejaVuSans-30" x="222.65625"/>
       <use xlink:href="#DejaVuSans-2c" x="286.279297"/>
       <use xlink:href="#DejaVuSans-30" x="318.066406"/>
       <use xlink:href="#DejaVuSans-30" x="381.689453"/>
       <use xlink:href="#DejaVuSans-30" x="445.3125"/>
      </g>
     </g>
    </g>
    <g id="ytick_6">
     <g id="line2d_23">
      <path d="M 82.37 166.332075 
L 709.2 166.332075 
" clip-path="url(#pc7d3eead95)" style="fill: none; stroke: #b0b0b0; stroke-width: 0.8; stroke-linecap: square"/>
     </g>
     <g id="line2d_24">
      <g>
       <use xlink:href="#m068b591d8e" x="82.37" y="166.332075" style="stroke: #000000; stroke-width: 0.8"/>
      </g>
     </g>
     <g id="text_12">
      <!-- 1,250,000 -->
      <g transform="translate(24.47625 170.131294) scale(0.1 -0.1)">
       <use xlink:href="#DejaVuSans-31"/>
       <use xlink:href="#DejaVuSans-2c" x="63.623047"/>
       <use xlink:href="#DejaVuSans-32" x="95.410156"/>
       <use xlink:href="#DejaVuSans-35" x="159.033203"/>
       <use xlink:href="#DejaVuSans-30" x="222.65625"/>
       <use xlink:href="#DejaVuSans-2c" x="286.279297"/>
       <use xlink:href="#DejaVuSans-30" x="318.066406"/>
       <use xlink:href="#DejaVuSans-30" x="381.689453"/>
       <use xlink:href="#DejaVuSans-30" x="445.3125"/>
      </g>
     </g>
    </g>
    <g id="ytick_7">
     <g id="line2d_25">
      <path d="M 82.37 108.45849 
L 709.2 108.45849 
" clip-path="url(#pc7d3eead95)" style="fill: none; stroke: #b0b0b0; stroke-width: 0.8; stroke-linecap: square"/>
     </g>
     <g id="line2d_26">
      <g>
       <use xlink:href="#m068b591d8e" x="82.37" y="108.45849" style="stroke: #000000; stroke-width: 0.8"/>
      </g>
     </g>
     <g id="text_13">
      <!-- 1,500,000 -->
      <g transform="translate(24.47625 112.257708) scale(0.1 -0.1)">
       <use xlink:href="#DejaVuSans-31"/>
       <use xlink:href="#DejaVuSans-2c" x="63.623047"/>
       <use xlink:href="#DejaVuSans-35" x="95.410156"/>
       <use xlink:href="#DejaVuSans-30" x="159.033203"/>
       <use xlink:href="#DejaVuSans-30" x="222.65625"/>
       <use xlink:href="#DejaVuSans-2c" x="286.279297"/>
       <use xlink:href="#DejaVuSans-30" x="318.066406"/>
       <use xlink:href="#DejaVuSans-30" x="381.689453"/>
       <use xlink:href="#DejaVuSans-30" x="445.3125"/>
      </g>
     </g>
    </g>
    <g id="ytick_8">
     <g id="line2d_27">
      <path d="M 82.37 50.584905 
L 709.2 50.584905 
" clip-path="url(#pc7d3eead95)" style="fill: none; stroke: #b0b0b0; stroke-width: 0.8; stroke-linecap: square"/>
     </g>
     <g id="line2d_28">
      <g>
       <use xlink:href="#m068b591d8e" x="82.37" y="50.584905" style="stroke: #000000; stroke-width: 0.8"/>
      </g>
     </g>
     <g id="text_14">
      <!-- 1,750,000 -->
      <g transform="translate(24.47625 54.384123) scale(0.1 -0.1)">
       <use xlink:href="#DejaVuSans-31"/>
       <use xlink:href="#DejaVuSans-2c" x="63.623047"/>
       <use xlink:href="#DejaVuSans-37" x="95.410156"/>
       <use xlink:href="#DejaVuSans-35" x="159.033203"/>
       <use xlink:href="#DejaVuSans-30" x="222.65625"/>
       <use xlink:href="#DejaVuSans-2c" x="286.279297"/>
       <use xlink:href="#DejaVuSans-30" x="318.066406"/>
       <use xlink:href="#DejaVuSans-30" x="381.689453"/>
       <use xlink:href="#DejaVuSans-30" x="445.3125"/>
      </g>
     </g>
    </g>
    <g id="text_15">
     <!-- Cumulative Payload Mass (kg) -->
     <g transform="translate(18.396562 326.863281) rotate(-90) scale(0.1 -0.1)">
      <defs>
       <path id="DejaVuSans-43" d="M 4122 4306 
L 4122 3641 
Q 3803 3938 3442 4084 
Q 3081 4231 2675 4231 
Q 1875 4231 1450 3742 
Q 1025 3253 1025 2328 
Q 1025 1406 1450 917 
Q 1875 428 2675 428 
Q 3081 428 3442 575 
Q 3803 722 4122 1019 
L 4122 359 
Q 3791 134 3420 21 
Q 3050 -91 2638 -91 
Q 1578 -91 968 557 
Q 359 1206 359 2328 
Q 359 3453 968 4101 
Q 1578 4750 2638 4750 
Q 3056 4750 3426 4639 
Q 3797 4528 4122 4306 
z
" transform="scale(0.015625)"/>
       <path id="DejaVuSans-6d" d="M 3328 2828 
Q 3544 3216 3844 3400 
Q 4144 3584 4550 3584 
Q 5097 3584 5394 3201 
Q 5691 2819 5691 2113 
L 5691 0 
L 5113 0 
L 5113 2094 
Q 5113 2597 4934 2840 
Q 4756 3084 4391 3084 
Q 3944 3084 3684 2787 
Q 3425 2491 3425 1978 
L 3425 0 
L 2847 0 
L 2847 2094 
Q 2847 2600 2669 2842 
Q 2491 3084 2119 3084 
Q 1678 3084 1418 2786 
Q 1159 2488 1159 1978 
L 1159 0 
L 581 0 
L 581 3500 
L 1159 3500 
L 1159 2956 
Q 1356 3278 1631 3431 
Q 1906 3584 2284 3584 
Q 2666 3584 2933 3390 
Q 3200 3197 3328 2828 
z
" transform="scale(0.015625)"/>
       <path id="DejaVuSans-74" d="M 1172 4494 
L 1172 3500 
L 2356 3500 
L 2356 3053 
L 1172 3053 
L 1172 1153 
Q 1172 725 1289 603 
Q 1406 481 1766 481 
L 2356 481 
L 2356 0 
L 1766 0 
Q 1100 0 847 248 
Q 594 497 594 1153 
L 594 3053 
L 172 3053 
L 172 3500 
L 594 3500 
L 594 4494 
L 1172 4494 
z
" transform="scale(0.015625)"/>
       <path id="DejaVuSans-69" d="M 603 3500 
L 1178 3500 
L 1178 0 
L 603 0 
L 603 3500 
z
M 603 4863 
L 1178 4863 
L 1178 4134 
L 603 4134 
L 603 4863 
z
" transform="scale(0.015625)"/>
       <path id="DejaVuSans-50" d="M 1259 4147 
L 1259 2394 
L 2053 2394 
Q 2494 2394 2734 2622 
Q 2975 2850 2975 3272 
Q 2975 3691 2734 3919 
Q 2494 4147 2053 4147 
L 1259 4147 
z
M 628 4666 
L 2053 4666 
Q 2838 4666 3239 4311 
Q 3641 3956 3641 3272 
Q 3641 2581 3239 2228 
Q 2838 1875 2053 1875 
L 1259 1875 
L 1259 0 
L 628 0 
L 628 4666 
z
" transform="scale(0.015625)"/>
       <path id="DejaVuSans-64" d="M 2906 2969 
L 2906 4863 
L 3481 4863 
L 3481 0 
L 2906 0 
L 2906 525 
Q 2725 213 2448 61 
Q 2172 -91 1784 -91 
Q 1150 -91 751 415 
Q 353 922 353 1747 
Q 353 2572 751 3078 
Q 1150 3584 1784 3584 
Q 2172 3584 2448 3432 
Q 2725 3281 2906 2969 
z
M 947 1747 
Q 947 1113 1208 752 
Q 1469 391 1925 391 
Q 2381 391 2643 752 
Q 2906 1113 2906 1747 
Q 2906 2381 2643 2742 
Q 2381 3103 1925 3103 
Q 1469 3103 1208 2742 
Q 947 2381 947 1747 
z
" transform="scale(0.015625)"/>
       <path id="DejaVuSans-73" d="M 2834 3397 
L 2834 2853 
Q 2591 2978 2328 3040 
Q 2066 3103 1784 3103 
Q 1356 3103 1142 2972 
Q 928 2841 928 2578 
Q 928 2378 1081 2264 
Q 1234 2150 1697 2047 
L 1894 2003 
Q 2506 1872 2764 1633 
Q 3022 1394 3022 966 
Q 3022 478 2636 193 
Q 2250 -91 1575 -91 
Q 1294 -91 989 -36 
Q 684 19 347 128 
L 347 722 
Q 666 556 975 473 
Q 1284 391 1588 391 
Q 1994 391 2212 530 
Q 2431 669 2431 922 
Q 2431 1156 2273 1281 
Q 2116 1406 1581 1522 
L 1381 1569 
Q 847 1681 609 1914 
Q 372 2147 372 2553 
Q 372 3047 722 3315 
Q 1072 3584 1716 3584 
Q 2034 3584 2315 3537 
Q 2597 3491 2834 3397 
z
" transform="scale(0.015625)"/>
       <path id="DejaVuSans-28" d="M 1984 4856 
Q 1566 4138 1362 3434 
Q 1159 2731 1159 2009 
Q 1159 1288 1364 580 
Q 1569 -128 1984 -844 
L 1484 -844 
Q 1016 -109 783 600 
Q 550 1309 550 2009 
Q 550 2706 781 3412 
Q 1013 4119 1484 4856 
L 1984 4856 
z
" transform="scale(0.015625)"/>
       <path id="DejaVuSans-6b" d="M 581 4863 
L 1159 4863 
L 1159 1991 
L 2875 3500 
L 3609 3500 
L 1753 1863 
L 3688 0 
L 2938 0 
L 1159 1709 
L 1159 0 
L 581 0 
L 581 4863 
z
" transform="scale(0.015625)"/>
       <path id="DejaVuSans-67" d="M 2906 1791 
Q 2906 2416 2648 2759 
Q 2391 3103 1925 3103 
Q 1463 3103 1205 2759 
Q 947 2416 947 1791 
Q 947 1169 1205 825 
Q 1463 481 1925 481 
Q 2391 481 2648 825 
Q 2906 1169 2906 1791 
z
M 3481 434 
Q 3481 -459 3084 -895 
Q 2688 -1331 1869 -1331 
Q 1566 -1331 1297 -1286 
Q 1028 -1241 775 -1147 
L 775 -588 
Q 1028 -725 1275 -790 
Q 1522 -856 1778 -856 
Q 2344 -856 2625 -561 
Q 2906 -266 2906 331 
L 2906 616 
Q 2728 306 2450 153 
Q 2172 0 1784 0 
Q 1141 0 747 490 
Q 353 981 353 1791 
Q 353 2603 747 3093 
Q 1141 3584 1784 3584 
Q 2172 3584 2450 3431 
Q 2728 3278 2906 2969 
L 2906 3500 
L 3481 3500 
L 3481 434 
z
" transform="scale(0.015625)"/>
       <path id="DejaVuSans-29" d="M 513 4856 
L 1013 4856 
Q 1481 4119 1714 3412 
Q 1947 2706 1947 2009 
Q 1947 1309 1714 600 
Q 1481 -109 1013 -844 
L 513 -844 
Q 928 -128 1133 580 
Q 1338 1288 1338 2009 
Q 1338 2731 1133 3434 
Q 928 4138 513 4856 
z
" transform="scale(0.015625)"/>
      </defs>
      <use xlink:href="#DejaVuSans-43"/>
      <use xlink:href="#DejaVuSans-75" x="69.824219"/>
      <use xlink:href="#DejaVuSans-6d" x="133.203125"/>
      <use xlink:href="#DejaVuSans-75" x="230.615234"/>
      <use xlink:href="#DejaVuSans-6c" x="293.994141"/>
      <use xlink:href="#DejaVuSans-61" x="321.777344"/>
      <use xlink:href="#DejaVuSans-74" x="383.056641"/>
      <use xlink:href="#DejaVuSans-69" x="422.265625"/>
      <use xlink:href="#DejaVuSans-76" x="450.048828"/>
      <use xlink:href="#DejaVuSans-65" x="509.228516"/>
      <use xlink:href="#DejaVuSans-20" x="570.751953"/>
      <use xlink:href="#DejaVuSans-50" x="602.539062"/>
      <use xlink:href="#DejaVuSans-61" x="658.341797"/>
      <use xlink:href="#DejaVuSans-79" x="719.621094"/>
      <use xlink:href="#DejaVuSans-6c" x="778.800781"/>
      <use xlink:href="#DejaVuSans-6f" x="806.583984"/>
      <use xlink:href="#DejaVuSans-61" x="867.765625"/>
      <use xlink:href="#DejaVuSans-64" x="929.044922"/>
      <use xlink:href="#DejaVuSans-20" x="992.521484"/>
      <use xlink:href="#DejaVuSans-4d" x="1024.308594"/>
      <use xlink:href="#DejaVuSans-61" x="1110.587891"/>
      <use xlink:href="#DejaVuSans-73" x="1171.867188"/>
      <use xlink:href="#DejaVuSans-73" x="1223.966797"/>
      <use xlink:href="#DejaVuSans-20" x="1276.066406"/>
      <use xlink:href="#DejaVuSans-28" x="1307.853516"/>
      <use xlink:href="#DejaVuSans-6b" x="1346.867188"/>
      <use xlink:href="#DejaVuSans-67" x="1404.777344"/>
      <use xlink:href="#DejaVuSans-29" x="1468.253906"/>
     </g>
    </g>
   </g>
   <g id="line2d_29">
    <path d="M 106.728679 455.7 
L 127.839534 455.7 
L 127.839534 453.477654 
L 186.300363 453.477654 
L 186.300363 452.901233 
L 226.898161 452.901233 
L 226.898161 451.604865 
L 249.632927 451.604865 
L 249.632927 450.377945 
L 301.598109 450.377945 
L 301.598109 450.377945 
L 324.332876 450.377945 
L 324.332876 448.972774 
L 355.187202 448.972774 
L 355.187202 448.345888 
L 387.66544 448.345888 
L 387.66544 447.496535 
L 390.913264 447.496535 
L 390.913264 445.274189 
L 407.152383 445.274189 
L 407.152383 443.709056 
L 472.10886 443.709056 
L 472.10886 442.94281 
L 488.347979 442.94281 
L 488.347979 442.83285 
L 511.082746 442.83285 
L 511.082746 441.677693 
L 563.047927 441.677693 
L 563.047927 439.455348 
L 566.295751 439.455348 
L 566.295751 438.205278 
L 597.150078 438.205278 
L 597.150078 437.395048 
L 671.850026 437.395048 
L 671.850026 436.884603 
L 684.841321 436.884603 
L 684.841321 434.662257 
L 697.832617 434.662257 
L 697.832617 434.662257 
" clip-path="url(#pc7d3eead95)" style="fill: none; stroke: #808080; stroke-width: 1.5; stroke-linecap: square"/>
   </g>
   <g id="line2d_30">
    <path d="M 106.728679 455.7 
L 118.096062 455.7 
L 118.096062 455.7 
L 155.446036 455.7 
L 155.446036 454.720779 
L 165.189508 454.720779 
L 165.189508 454.431411 
L 191.172098 454.431411 
L 191.172098 453.933698 
L 210.659041 453.933698 
L 210.659041 452.523435 
L 249.632927 452.523435 
L 249.632927 450.301089 
L 254.504663 450.301089 
L 254.504663 449.688323 
L 280.487254 449.688323 
L 280.487254 449.604523 
L 317.837228 449.604523 
L 317.837228 448.771143 
L 335.700259 448.771143 
L 335.700259 447.275689 
L 356.811114 447.275689 
L 356.811114 446.029324 
L 397.408912 446.029324 
L 397.408912 445.404984 
L 434.758886 445.404984 
L 434.758886 443.767161 
L 439.630622 443.767161 
L 439.630622 441.544816 
L 460.741477 441.544816 
L 460.741477 440.202148 
L 515.954482 440.202148 
L 515.954482 438.567798 
L 561.424016 438.567798 
L 561.424016 437.873315 
L 623.132668 437.873315 
L 623.132668 436.646395 
L 652.363083 436.646395 
L 652.363083 435.720418 
L 655.610907 435.720418 
L 655.610907 435.141682 
L 684.841321 435.141682 
L 684.841321 434.123107 
L 697.832617 434.123107 
L 697.832617 434.123107 
" clip-path="url(#pc7d3eead95)" style="fill: none; stroke: #90ee90; stroke-width: 1.5; stroke-linecap: square"/>
   </g>
   <g id="line2d_31">
    <path d="M 106.728679 455.7 
L 122.967798 455.7 
L 122.967798 453.477654 
L 191.172098 453.477654 
L 191.172098 452.354907 
L 204.163394 452.354907 
L 204.163394 449.564243 
L 269.11987 449.564243 
L 269.11987 448.067632 
L 306.469845 448.067632 
L 306.469845 447.490053 
L 338.948083 447.490053 
L 338.948083 444.3371 
L 369.802409 444.3371 
L 369.802409 443.364824 
L 390.913264 443.364824 
L 390.913264 442.508295 
L 439.630622 442.508295 
L 439.630622 441.983266 
L 459.117565 441.983266 
L 459.117565 440.478553 
L 616.637021 440.478553 
L 616.637021 436.867241 
L 655.610907 436.867241 
L 655.610907 436.26142 
L 675.09785 436.26142 
L 675.09785 434.651146 
L 697.832617 434.651146 
L 697.832617 434.651146 
" clip-path="url(#pc7d3eead95)" style="fill: none; stroke: #add8e6; stroke-width: 1.5; stroke-linecap: square"/>
   </g>
   <g id="line2d_32">
    <path d="M 106.728679 455.7 
L 116.47215 455.7 
L 116.47215 452.088688 
L 135.959093 452.088688 
L 135.959093 449.299181 
L 152.198212 449.299181 
L 152.198212 445.68787 
L 183.052539 445.68787 
L 183.052539 442.076558 
L 213.906865 442.076558 
L 213.906865 441.618894 
L 231.769896 441.618894 
L 231.769896 438.007582 
L 288.606813 438.007582 
L 288.606813 434.39627 
L 350.315466 434.39627 
L 350.315466 431.495646 
L 358.435026 431.495646 
L 358.435026 427.884335 
L 373.050233 427.884335 
L 373.050233 424.317007 
L 400.656736 424.317007 
L 400.656736 423.319035 
L 433.134974 423.319035 
L 433.134974 422.045816 
L 462.365389 422.045816 
L 462.365389 418.589142 
L 480.22842 418.589142 
L 480.22842 415.01487 
L 499.715363 415.01487 
L 499.715363 414.290292 
L 506.21101 414.290292 
L 506.21101 410.678981 
L 559.800104 410.678981 
L 559.800104 407.067669 
L 579.287047 407.067669 
L 579.287047 403.456357 
L 589.030518 403.456357 
L 589.030518 399.845046 
L 608.517461 399.845046 
L 608.517461 398.847074 
L 626.380492 398.847074 
L 626.380492 395.953394 
L 634.500052 395.953394 
L 634.500052 395.677453 
L 640.995699 395.677453 
L 640.995699 392.066141 
L 658.858731 392.066141 
L 658.858731 391.37814 
L 670.226114 391.37814 
L 670.226114 389.75768 
L 679.969585 389.75768 
L 679.969585 389.75768 
L 699.456528 389.75768 
L 699.456528 389.75768 
" clip-path="url(#pc7d3eead95)" style="fill: none; stroke: #ffc0cb; stroke-width: 1.5; stroke-linecap: square"/>
   </g>
   <g id="line2d_33">
    <path d="M 106.728679 455.7 
L 118.096062 455.7 
L 118.096062 454.88977 
L 137.583005 454.88977 
L 137.583005 451.278458 
L 144.078653 451.278458 
L 144.078653 450.120986 
L 161.941684 450.120986 
L 161.941684 446.509675 
L 181.428627 446.509675 
L 181.428627 442.898363 
L 207.411218 442.898363 
L 207.411218 439.287051 
L 218.778601 439.287051 
L 218.778601 435.67574 
L 223.650337 435.67574 
L 223.650337 432.064428 
L 239.889456 432.064428 
L 239.889456 428.453116 
L 262.624223 428.453116 
L 262.624223 424.841804 
L 288.606813 424.841804 
L 288.606813 421.832378 
L 298.350285 421.832378 
L 298.350285 418.221066 
L 306.469845 418.221066 
L 306.469845 414.609755 
L 314.589404 414.609755 
L 314.589404 410.998443 
L 324.332876 410.998443 
L 324.332876 407.42417 
L 342.195907 407.42417 
L 342.195907 403.812859 
L 355.187202 403.812859 
L 355.187202 403.042445 
L 360.058938 403.042445 
L 360.058938 401.421985 
L 377.921969 401.421985 
L 377.921969 400.419383 
L 399.032824 400.419383 
L 399.032824 400.419383 
L 496.467539 400.419383 
L 496.467539 399.910096 
L 522.45013 399.910096 
L 522.45013 396.840481 
L 525.697953 396.840481 
L 525.697953 393.942403 
L 616.637021 393.942403 
L 616.637021 390.932976 
L 619.884845 390.932976 
L 619.884845 387.313562 
L 637.747876 387.313562 
L 637.747876 387.16911 
L 650.739171 387.16911 
L 650.739171 383.812442 
L 662.106554 383.812442 
L 662.106554 383.737206 
L 676.721762 383.737206 
L 676.721762 380.125895 
L 678.345674 380.125895 
L 678.345674 379.08417 
L 681.593497 379.08417 
L 681.593497 378.392234 
L 697.832617 378.392234 
L 697.832617 378.392234 
" clip-path="url(#pc7d3eead95)" style="fill: none; stroke: #800080; stroke-width: 1.5; stroke-linecap: square"/>
   </g>
   <g id="line2d_34">
    <path d="M 106.728679 455.7 
L 114.848238 455.7 
L 114.848238 452.343332 
L 126.215622 452.343332 
L 126.215622 452.343332 
L 135.959093 452.343332 
L 135.959093 448.986664 
L 155.446036 448.986664 
L 155.446036 448.476219 
L 158.69386 448.476219 
L 158.69386 448.476219 
L 160.317772 448.476219 
L 160.317772 445.119551 
L 189.548187 445.119551 
L 189.548187 441.971228 
L 196.043834 441.971228 
L 196.043834 438.556687 
L 205.787306 438.556687 
L 205.787306 435.338915 
L 215.530777 435.338915 
L 215.530777 432.060955 
L 231.769896 432.060955 
L 231.769896 428.299172 
L 252.880751 428.299172 
L 252.880751 428.299172 
L 264.248135 428.299172 
L 264.248135 425.289746 
L 278.863342 425.289746 
L 278.863342 425.289746 
L 285.35899 425.289746 
L 285.35899 421.527963 
L 295.102461 421.527963 
L 295.102461 418.518537 
L 298.350285 418.518537 
L 298.350285 414.756754 
L 309.717668 414.756754 
L 309.717668 410.99497 
L 321.085052 410.99497 
L 321.085052 407.233187 
L 322.708964 407.233187 
L 322.708964 403.471404 
L 329.204611 403.471404 
L 329.204611 399.709621 
L 340.571995 399.709621 
L 340.571995 399.709621 
L 363.306762 399.709621 
L 363.306762 398.760495 
L 377.921969 398.760495 
L 377.921969 394.998712 
L 379.545881 394.998712 
L 379.545881 394.072734 
L 381.169793 394.072734 
L 381.169793 393.910688 
L 397.408912 393.910688 
L 397.408912 393.100458 
L 410.400207 393.100458 
L 410.400207 389.338675 
L 416.895855 389.338675 
L 416.895855 386.074605 
L 423.391503 386.074605 
L 423.391503 385.456978 
L 426.639326 385.456978 
L 426.639326 381.695195 
L 434.758886 381.695195 
L 434.758886 378.431125 
L 438.00671 378.431125 
L 438.00671 374.669342 
L 455.869741 374.669342 
L 455.869741 374.512157 
L 465.613212 374.512157 
L 465.613212 370.808248 
L 468.861036 370.808248 
L 468.861036 367.544177 
L 480.22842 367.544177 
L 480.22842 363.782394 
L 494.843627 363.782394 
L 494.843627 359.916439 
L 499.715363 359.916439 
L 499.715363 356.629219 
L 507.834922 356.629219 
L 507.834922 352.92531 
L 517.578394 352.92531 
L 517.578394 350.16173 
L 530.569689 350.16173 
L 530.569689 346.295775 
L 538.689249 346.295775 
L 538.689249 342.568716 
L 556.55228 342.568716 
L 556.55228 339.55929 
L 556.55228 339.55929 
L 556.55228 335.832231 
L 561.424016 335.832231 
L 561.424016 334.130747 
L 572.791399 334.130747 
L 572.791399 333.089023 
L 580.910959 333.089023 
L 580.910959 329.223067 
L 593.902254 329.223067 
L 593.902254 325.42656 
L 600.397902 325.42656 
L 600.397902 324.558456 
L 603.645725 324.558456 
L 603.645725 323.516732 
L 618.260933 323.516732 
L 618.260933 321.988869 
L 636.123964 321.988869 
L 636.123964 320.71565 
L 640.995699 320.71565 
L 640.995699 319.898938 
L 660.482642 319.898938 
L 660.482642 318.509972 
L 665.354378 318.509972 
L 665.354378 318.278478 
L 673.473938 318.278478 
L 673.473938 317.76919 
L 673.473938 317.76919 
L 673.473938 316.820063 
L 675.09785 316.820063 
L 675.09785 312.954108 
L 692.960881 312.954108 
L 692.960881 309.088153 
L 696.208705 309.088153 
L 696.208705 308.995555 
L 697.832617 308.995555 
L 697.832617 308.995555 
" clip-path="url(#pc7d3eead95)" style="fill: none; stroke: #ffa500; stroke-width: 1.5; stroke-linecap: square"/>
   </g>
   <g id="line2d_35">
    <path d="M 106.728679 455.7 
L 121.343886 455.7 
L 121.343886 454.311034 
L 129.463446 454.311034 
L 129.463446 453.44293 
L 134.335181 453.44293 
L 134.335181 452.435467 
L 135.959093 452.435467 
L 135.959093 448.963052 
L 147.326477 448.963052 
L 147.326477 444.93505 
L 155.446036 444.93505 
L 155.446036 441.416336 
L 158.69386 441.416336 
L 158.69386 437.59668 
L 166.81342 437.59668 
L 166.81342 436.636904 
L 174.932979 436.636904 
L 174.932979 432.678351 
L 183.052539 432.678351 
L 183.052539 428.997591 
L 184.676451 428.997591 
L 184.676451 427.731317 
L 199.291658 427.731317 
L 199.291658 424.189453 
L 204.163394 424.189453 
L 204.163394 421.180027 
L 205.787306 421.180027 
L 205.787306 417.499267 
L 215.530777 417.499267 
L 215.530777 416.110301 
L 225.274249 416.110301 
L 225.274249 415.450079 
L 228.522073 415.450079 
L 228.522073 410.07941 
L 239.889456 410.07941 
L 239.889456 406.051409 
L 248.009016 406.051409 
L 248.009016 402.023407 
L 262.624223 402.023407 
L 262.624223 400.729817 
L 282.111166 400.729817 
L 282.111166 397.187954 
L 295.102461 397.187954 
L 295.102461 393.923883 
L 296.726373 393.923883 
L 296.726373 392.974757 
L 301.598109 392.974757 
L 301.598109 391.493193 
L 306.469845 391.493193 
L 306.469845 387.465191 
L 316.213316 387.465191 
L 316.213316 383.784431 
L 322.708964 383.784431 
L 322.708964 379.75643 
L 330.828523 379.75643 
L 330.828523 376.029371 
L 332.452435 376.029371 
L 332.452435 374.501508 
L 334.076347 374.501508 
L 334.076347 371.492082 
L 343.819819 371.492082 
L 343.819819 370.450357 
L 350.315466 370.450357 
L 350.315466 366.65385 
L 356.811114 366.65385 
L 356.811114 362.926791 
L 358.435026 362.926791 
L 358.435026 362.161934 
L 369.802409 362.161934 
L 369.802409 358.365427 
L 369.802409 358.365427 
L 379.545881 358.365427 
L 379.545881 357.305183 
L 386.041528 357.305183 
L 386.041528 353.948515 
L 387.66544 353.948515 
L 387.66544 349.920513 
L 400.656736 349.920513 
L 400.656736 349.420485 
L 410.400207 349.420485 
L 410.400207 345.97122 
L 415.271943 345.97122 
L 415.271943 342.244161 
L 425.015415 342.244161 
L 425.015415 338.378205 
L 431.511062 338.378205 
L 431.511062 335.600273 
L 438.00671 335.600273 
L 438.00671 331.873214 
L 444.502358 331.873214 
L 444.502358 328.146156 
L 446.126269 328.146156 
L 446.126269 326.016408 
L 454.245829 326.016408 
L 454.245829 324.844352 
L 460.741477 324.844352 
L 460.741477 321.117293 
L 462.365389 321.117293 
L 462.365389 318.339361 
L 467.237124 318.339361 
L 467.237124 314.612302 
L 476.980596 314.612302 
L 476.980596 310.885243 
L 485.100155 310.885243 
L 485.100155 307.34338 
L 491.595803 307.34338 
L 491.595803 304.333953 
L 493.219715 304.333953 
L 493.219715 300.606894 
L 501.339275 300.606894 
L 501.339275 296.879836 
L 506.21101 296.879836 
L 506.21101 293.337972 
L 514.33057 293.337972 
L 514.33057 289.610913 
L 519.202306 289.610913 
L 519.202306 286.06905 
L 525.697953 286.06905 
L 525.697953 282.341991 
L 532.193601 282.341991 
L 532.193601 278.614932 
L 538.689249 278.614932 
L 538.689249 274.887873 
L 540.313161 274.887873 
L 540.313161 271.34601 
L 548.43272 271.34601 
L 548.43272 267.618951 
L 556.55228 267.618951 
L 556.55228 263.891892 
L 563.047927 263.891892 
L 563.047927 260.350029 
L 569.543575 260.350029 
L 569.543575 256.019233 
L 577.663135 256.019233 
L 577.663135 252.292174 
L 582.53487 252.292174 
L 582.53487 248.75031 
L 584.158782 248.75031 
L 584.158782 244.861205 
L 595.526166 244.861205 
L 595.526166 241.134146 
L 597.150078 241.134146 
L 597.150078 237.245042 
L 605.269637 237.245042 
L 605.269637 233.355937 
L 611.765285 233.355937 
L 611.765285 229.466832 
L 615.013109 229.466832 
L 615.013109 227.261848 
L 618.260933 227.261848 
L 618.260933 226.312721 
L 628.004404 226.312721 
L 628.004404 222.423616 
L 628.004404 222.423616 
L 631.252228 222.423616 
L 631.252228 218.696558 
L 634.500052 218.696558 
L 634.500052 214.807453 
L 644.243523 214.807453 
L 644.243523 210.918348 
L 649.115259 210.918348 
L 649.115259 210.733152 
L 652.363083 210.733152 
L 652.363083 206.844047 
L 658.858731 206.844047 
L 658.858731 202.954942 
L 660.482642 202.954942 
L 660.482642 199.227884 
L 678.345674 199.227884 
L 678.345674 195.338779 
L 684.841321 195.338779 
L 684.841321 191.449674 
L 686.465233 191.449674 
L 686.465233 190.616294 
L 694.584793 190.616294 
L 694.584793 185.2572 
L 697.832617 185.2572 
L 697.832617 185.2572 
" clip-path="url(#pc7d3eead95)" style="fill: none; stroke: #0000ff; stroke-width: 1.5; stroke-linecap: square"/>
   </g>
   <g id="line2d_36">
    <path d="M 106.728679 455.7 
L 109.976503 455.7 
L 109.976503 451.394205 
L 116.47215 451.394205 
L 116.47215 447.435652 
L 127.839534 447.435652 
L 127.839534 443.569697 
L 129.463446 443.569697 
L 129.463446 439.611143 
L 134.335181 439.611143 
L 134.335181 436.601717 
L 144.078653 436.601717 
L 144.078653 432.735761 
L 152.198212 432.735761 
L 152.198212 424.911253 
L 153.822124 424.911253 
L 153.822124 424.048705 
L 168.437332 424.048705 
L 168.437332 423.656553 
L 171.685155 423.656553 
L 171.685155 419.790598 
L 179.804715 419.790598 
L 179.804715 415.477627 
L 187.924275 415.477627 
L 187.924275 414.55165 
L 192.79601 414.55165 
L 192.79601 410.685694 
L 196.043834 410.685694 
L 196.043834 406.634543 
L 202.539482 406.634543 
L 202.539482 402.67599 
L 209.03513 402.67599 
L 209.03513 395.70801 
L 218.778601 395.70801 
L 218.778601 391.749457 
L 220.402513 391.749457 
L 220.402513 387.790904 
L 228.522073 387.790904 
L 228.522073 383.832351 
L 233.393808 383.832351 
L 233.393808 380.058993 
L 236.641632 380.058993 
L 236.641632 379.429097 
L 241.513368 379.429097 
L 241.513368 375.470544 
L 243.13728 375.470544 
L 243.13728 371.51199 
L 251.256839 371.51199 
L 251.256839 370.354519 
L 252.880751 370.354519 
L 252.880751 366.395965 
L 256.128575 366.395965 
L 256.128575 362.53001 
L 261.000311 362.53001 
L 261.000311 358.571457 
L 264.248135 358.571457 
L 264.248135 354.682352 
L 264.248135 354.682352 
L 269.11987 354.682352 
L 269.11987 350.723799 
L 270.743782 350.723799 
L 270.743782 350.446005 
L 273.991606 350.446005 
L 273.991606 346.487452 
L 280.487254 346.487452 
L 280.487254 342.528899 
L 282.111166 342.528899 
L 282.111166 338.570346 
L 290.230725 338.570346 
L 290.230725 334.611792 
L 298.350285 334.611792 
L 298.350285 330.282848 
L 304.845933 330.282848 
L 304.845933 329.935607 
L 306.469845 329.935607 
L 306.469845 325.977054 
L 311.34158 325.977054 
L 311.34158 322.0185 
L 314.589404 322.0185 
L 314.589404 318.059947 
L 317.837228 318.059947 
L 317.837228 314.286589 
L 322.708964 314.286589 
L 322.708964 310.328036 
L 324.332876 310.328036 
L 324.332876 306.554678 
L 330.828523 306.554678 
L 330.828523 302.596125 
L 338.948083 302.596125 
L 338.948083 298.637572 
L 340.571995 298.637572 
L 340.571995 294.679019 
L 347.067642 294.679019 
L 347.067642 290.176454 
L 353.56329 290.176454 
L 353.56329 286.217901 
L 360.058938 286.217901 
L 360.058938 282.444543 
L 364.930674 282.444543 
L 364.930674 274.80523 
L 382.793705 274.80523 
L 382.793705 271.031872 
L 384.417617 271.031872 
L 384.417617 269.8744 
L 389.289352 269.8744 
L 389.289352 266.008445 
L 390.913264 266.008445 
L 390.913264 262.235087 
L 392.537176 262.235087 
L 392.537176 261.077615 
L 395.785 261.077615 
L 395.785 257.119062 
L 405.528472 257.119062 
L 405.528472 253.345704 
L 413.648031 253.345704 
L 413.648031 252.361853 
L 444.502358 252.361853 
L 444.502358 248.4033 
L 446.126269 248.4033 
L 446.126269 240.62509 
L 454.245829 240.62509 
L 454.245829 236.666537 
L 457.493653 236.666537 
L 457.493653 231.81511 
L 467.237124 231.81511 
L 467.237124 227.995454 
L 470.484948 227.995454 
L 470.484948 222.363196 
L 475.356684 222.363196 
L 475.356684 222.015955 
L 483.476244 222.015955 
L 483.476244 218.149999 
L 496.467539 218.149999 
L 496.467539 214.284044 
L 501.339275 214.284044 
L 501.339275 206.552133 
L 509.458834 206.552133 
L 509.458834 202.686177 
L 517.578394 202.686177 
L 517.578394 199.676751 
L 520.826218 199.676751 
L 520.826218 197.940543 
L 522.45013 197.940543 
L 522.45013 194.074588 
L 528.945777 194.074588 
L 528.945777 193.704197 
L 533.817513 193.704197 
L 533.817513 189.930839 
L 541.937073 189.930839 
L 541.937073 186.157482 
L 546.808808 186.157482 
L 546.808808 183.148055 
L 561.424016 183.148055 
L 561.424016 182.891559 
L 572.791399 182.891559 
L 572.791399 181.487546 
L 574.415311 181.487546 
L 574.415311 173.755635 
L 579.287047 173.755635 
L 579.287047 169.982278 
L 582.53487 169.982278 
L 582.53487 169.298443 
L 587.406606 169.298443 
L 587.406606 165.33989 
L 592.278342 165.33989 
L 592.278342 161.473935 
L 598.77399 161.473935 
L 598.77399 153.742024 
L 608.517461 153.742024 
L 608.517461 153.102636 
L 611.765285 153.102636 
L 611.765285 149.144083 
L 615.013109 149.144083 
L 615.013109 145.370725 
L 618.260933 145.370725 
L 618.260933 140.416746 
L 623.132668 140.416746 
L 623.132668 132.592238 
L 628.004404 132.592238 
L 628.004404 131.66626 
L 629.628316 131.66626 
L 629.628316 126.804879 
L 634.500052 126.804879 
L 634.500052 122.753728 
L 639.371788 122.753728 
L 639.371788 118.98037 
L 640.995699 118.98037 
L 640.995699 115.021817 
L 644.243523 115.021817 
L 644.243523 110.970666 
L 649.115259 110.970666 
L 649.115259 103.192456 
L 655.610907 103.192456 
L 655.610907 99.141306 
L 657.234819 99.141306 
L 657.234819 93.747487 
L 662.106554 93.747487 
L 662.106554 89.788934 
L 670.226114 89.788934 
L 670.226114 85.922979 
L 676.721762 85.922979 
L 676.721762 84.128898 
L 683.217409 84.128898 
L 683.217409 83.943702 
L 686.465233 83.943702 
L 686.465233 80.124045 
L 696.208705 80.124045 
L 696.208705 75.887699 
L 699.456528 75.887699 
L 699.456528 75.887699 
L 699.456528 72.068042 
L 699.456528 72.068042 
" clip-path="url(#pc7d3eead95)" style="fill: none; stroke: #008000; stroke-width: 1.5; stroke-linecap: square"/>
   </g>
   <g id="line2d_37">
    <path d="M 106.728679 455.7 
L 111.600415 455.7 
L 111.600415 454.542528 
L 114.848238 454.542528 
L 114.848238 450.491377 
L 118.096062 450.491377 
L 118.096062 446.671721 
L 121.343886 446.671721 
L 121.343886 446.671721 
L 121.343886 442.852064 
L 126.215622 442.852064 
L 126.215622 439.032408 
L 127.839534 439.032408 
L 127.839534 438.569419 
L 129.463446 438.569419 
L 129.463446 437.986748 
L 139.206917 437.986748 
L 139.206917 430.856722 
L 144.078653 430.856722 
L 144.078653 426.898169 
L 148.950389 426.898169 
L 148.950389 423.078512 
L 153.822124 423.078512 
L 153.822124 421.666397 
L 157.069948 421.666397 
L 157.069948 417.800441 
L 161.941684 417.800441 
L 161.941684 413.633543 
L 168.437332 413.633543 
L 168.437332 409.813886 
L 173.309067 409.813886 
L 173.309067 402.035677 
L 179.804715 402.035677 
L 179.804715 398.21602 
L 184.676451 398.21602 
L 184.676451 394.257467 
L 189.548187 394.257467 
L 189.548187 390.298913 
L 192.79601 390.298913 
L 192.79601 386.409809 
L 199.291658 386.409809 
L 199.291658 386.409809 
L 199.291658 382.590152 
L 205.787306 382.590152 
L 205.787306 378.770495 
L 220.402513 378.770495 
L 220.402513 378.595023 
L 222.026425 378.595023 
L 222.026425 374.775366 
L 223.650337 374.775366 
L 223.650337 371.76594 
L 225.274249 371.76594 
L 225.274249 371.76594 
L 225.274249 367.807386 
L 230.145984 367.807386 
L 230.145984 363.848833 
L 243.13728 363.848833 
L 243.13728 360.260671 
L 251.256839 360.260671 
L 251.256839 356.533612 
L 252.880751 356.533612 
L 252.880751 353.524186 
L 257.752487 353.524186 
L 257.752487 349.936023 
L 261.000311 349.936023 
L 261.000311 346.208964 
L 262.624223 346.208964 
L 262.624223 342.620802 
L 272.367694 342.620802 
L 272.367694 338.801146 
L 273.991606 338.801146 
L 273.991606 335.212983 
L 285.35899 335.212983 
L 285.35899 334.513639 
L 291.854637 334.513639 
L 291.854637 330.78658 
L 296.726373 330.78658 
L 296.726373 323.239865 
L 298.350285 323.239865 
L 298.350285 319.281311 
L 303.222021 319.281311 
L 303.222021 315.554252 
L 306.469845 315.554252 
L 306.469845 311.694084 
L 311.34158 311.694084 
L 311.34158 307.967025 
L 316.213316 307.967025 
L 316.213316 300.779126 
L 321.085052 300.779126 
L 321.085052 293.591227 
L 322.708964 293.591227 
L 322.708964 289.864168 
L 325.956788 289.864168 
L 325.956788 286.403328 
L 334.076347 286.403328 
L 334.076347 282.444774 
L 337.324171 282.444774 
L 337.324171 278.856612 
L 338.948083 278.856612 
L 338.948083 274.898059 
L 343.819819 274.898059 
L 343.819819 270.846908 
L 343.819819 270.846908 
L 345.443731 270.846908 
L 345.443731 267.258746 
L 348.691554 267.258746 
L 348.691554 266.251745 
L 350.315466 266.251745 
L 350.315466 262.663583 
L 355.187202 262.663583 
L 355.187202 258.70503 
L 356.811114 258.70503 
L 356.811114 255.116868 
L 361.68285 255.116868 
L 361.68285 253.635304 
L 363.306762 253.635304 
L 363.306762 250.174463 
L 366.554585 250.174463 
L 366.554585 246.21591 
L 371.426321 246.21591 
L 371.426321 238.796517 
L 377.921969 238.796517 
L 377.921969 235.335676 
L 379.545881 235.335676 
L 379.545881 231.608617 
L 387.66544 231.608617 
L 387.66544 228.020455 
L 387.66544 228.020455 
L 390.913264 228.020455 
L 390.913264 221.422866 
L 395.785 221.422866 
L 395.785 214.373864 
L 400.656736 214.373864 
L 400.656736 213.494185 
L 402.280648 213.494185 
L 402.280648 209.906023 
L 412.024119 209.906023 
L 412.024119 206.178964 
L 420.143679 206.178964 
L 420.143679 205.252987 
L 425.015415 205.252987 
L 425.015415 198.369734 
L 429.88715 198.369734 
L 429.88715 194.318583 
L 434.758886 194.318583 
L 434.758886 193.531502 
L 436.382798 193.531502 
L 436.382798 193.318527 
L 441.254534 193.318527 
L 441.254534 189.591469 
L 442.878446 189.591469 
L 442.878446 185.540318 
L 447.750181 185.540318 
L 447.750181 181.813259 
L 449.374093 181.813259 
L 449.374093 178.558448 
L 450.998005 178.558448 
L 450.998005 175.549022 
L 455.869741 175.549022 
L 455.869741 171.821963 
L 467.237124 171.821963 
L 467.237124 168.399551 
L 472.10886 168.399551 
L 472.10886 160.621341 
L 478.604508 160.621341 
L 478.604508 156.57019 
L 485.100155 156.57019 
L 485.100155 151.363882 
L 488.347979 151.363882 
L 488.347979 150.831445 
L 491.595803 150.831445 
L 491.595803 146.810389 
L 493.219715 146.810389 
L 493.219715 143.08333 
L 494.843627 143.08333 
L 494.843627 139.356271 
L 498.091451 139.356271 
L 498.091451 135.30512 
L 499.715363 135.30512 
L 499.715363 131.578061 
L 504.587098 131.578061 
L 504.587098 123.799851 
L 507.834922 123.799851 
L 507.834922 120.072792 
L 509.458834 120.072792 
L 509.458834 116.021641 
L 519.202306 116.021641 
L 519.202306 114.215985 
L 520.826218 114.215985 
L 520.826218 110.164835 
L 522.45013 110.164835 
L 522.45013 109.007363 
L 528.945777 109.007363 
L 528.945777 105.280304 
L 530.569689 105.280304 
L 530.569689 101.229153 
L 533.817513 101.229153 
L 533.817513 97.502094 
L 538.689249 97.502094 
L 538.689249 97.160177 
L 540.313161 97.160177 
L 540.313161 93.433118 
L 541.937073 93.433118 
L 541.937073 89.381967 
L 546.808808 89.381967 
L 546.808808 85.654908 
L 553.304456 85.654908 
L 553.304456 81.927849 
L 559.800104 81.927849 
L 559.800104 78.200791 
L 561.424016 78.200791 
L 561.424016 74.473732 
L 569.543575 74.473732 
L 569.543575 70.769822 
L 571.167487 70.769822 
L 571.167487 67.34741 
L 574.415311 67.34741 
L 574.415311 63.620351 
L 579.287047 63.620351 
L 579.287047 56.166233 
L 584.158782 56.166233 
L 584.158782 52.439174 
L 587.406606 52.439174 
L 587.406606 51.027059 
L 589.030518 51.027059 
L 589.030518 47.3 
L 590.65443 47.3 
L 590.65443 47.3 
" clip-path="url(#pc7d3eead95)" style="fill: none; stroke: #ff0000; stroke-width: 1.5; stroke-linecap: square"/>
   </g>
   <g id="patch_3">
    <path d="M 82.37 476.12 
L 82.37 26.88 
" style="fill: none; stroke: #000000; stroke-width: 0.8; stroke-linejoin: miter; stroke-linecap: square"/>
   </g>
   <g id="patch_4">
    <path d="M 709.2 476.12 
L 709.2 26.88 
" style="fill: none; stroke: #000000; stroke-width: 0.8; stroke-linejoin: miter; stroke-linecap: square"/>
   </g>
   <g id="patch_5">
    <path d="M 82.37 476.12 
L 709.2 476.12 
" style="fill: none; stroke: #000000; stroke-width: 0.8; stroke-linejoin: miter; stroke-linecap: square"/>
   </g>
   <g id="patch_6">
    <path d="M 82.37 26.88 
L 709.2 26.88 
" style="fill: none; stroke: #000000; stroke-width: 0.8; stroke-linejoin: miter; stroke-linecap: square"/>
   </g>
   <g id="text_16">
    <!-- Cumulative Payload Mass to Orbit By Year -->
    <g transform="translate(270.179688 20.88) scale(0.12 -0.12)">
     <defs>
      <path id="DejaVuSans-4f" d="M 2522 4238 
Q 1834 4238 1429 3725 
Q 1025 3213 1025 2328 
Q 1025 1447 1429 934 
Q 1834 422 2522 422 
Q 3209 422 3611 934 
Q 4013 1447 4013 2328 
Q 4013 3213 3611 3725 
Q 3209 4238 2522 4238 
z
M 2522 4750 
Q 3503 4750 4090 4092 
Q 4678 3434 4678 2328 
Q 4678 1225 4090 567 
Q 3503 -91 2522 -91 
Q 1538 -91 948 565 
Q 359 1222 359 2328 
Q 359 3434 948 4092 
Q 1538 4750 2522 4750 
z
" transform="scale(0.015625)"/>
      <path id="DejaVuSans-62" d="M 3116 1747 
Q 3116 2381 2855 2742 
Q 2594 3103 2138 3103 
Q 1681 3103 1420 2742 
Q 1159 2381 1159 1747 
Q 1159 1113 1420 752 
Q 1681 391 2138 391 
Q 2594 391 2855 752 
Q 3116 1113 3116 1747 
z
M 1159 2969 
Q 1341 3281 1617 3432 
Q 1894 3584 2278 3584 
Q 2916 3584 3314 3078 
Q 3713 2572 3713 1747 
Q 3713 922 3314 415 
Q 2916 -91 2278 -91 
Q 1894 -91 1617 61 
Q 1341 213 1159 525 
L 1159 0 
L 581 0 
L 581 4863 
L 1159 4863 
L 1159 2969 
z
" transform="scale(0.015625)"/>
      <path id="DejaVuSans-42" d="M 1259 2228 
L 1259 519 
L 2272 519 
Q 2781 519 3026 730 
Q 3272 941 3272 1375 
Q 3272 1813 3026 2020 
Q 2781 2228 2272 2228 
L 1259 2228 
z
M 1259 4147 
L 1259 2741 
L 2194 2741 
Q 2656 2741 2882 2914 
Q 3109 3088 3109 3444 
Q 3109 3797 2882 3972 
Q 2656 4147 2194 4147 
L 1259 4147 
z
M 628 4666 
L 2241 4666 
Q 2963 4666 3353 4366 
Q 3744 4066 3744 3513 
Q 3744 3084 3544 2831 
Q 3344 2578 2956 2516 
Q 3422 2416 3680 2098 
Q 3938 1781 3938 1306 
Q 3938 681 3513 340 
Q 3088 0 2303 0 
L 628 0 
L 628 4666 
z
" transform="scale(0.015625)"/>
      <path id="DejaVuSans-59" d="M -13 4666 
L 666 4666 
L 1959 2747 
L 3244 4666 
L 3922 4666 
L 2272 2222 
L 2272 0 
L 1638 0 
L 1638 2222 
L -13 4666 
z
" transform="scale(0.015625)"/>
     </defs>
     <use xlink:href="#DejaVuSans-43"/>
     <use xlink:href="#DejaVuSans-75" x="69.824219"/>
     <use xlink:href="#DejaVuSans-6d" x="133.203125"/>
     <use xlink:href="#DejaVuSans-75" x="230.615234"/>
     <use xlink:href="#DejaVuSans-6c" x="293.994141"/>
     <use xlink:href="#DejaVuSans-61" x="321.777344"/>
     <use xlink:href="#DejaVuSans-74" x="383.056641"/>
     <use xlink:href="#DejaVuSans-69" x="422.265625"/>
     <use xlink:href="#DejaVuSans-76" x="450.048828"/>
     <use xlink:href="#DejaVuSans-65" x="509.228516"/>
     <use xlink:href="#DejaVuSans-20" x="570.751953"/>
     <use xlink:href="#DejaVuSans-50" x="602.539062"/>
     <use xlink:href="#DejaVuSans-61" x="658.341797"/>
     <use xlink:href="#DejaVuSans-79" x="719.621094"/>
     <use xlink:href="#DejaVuSans-6c" x="778.800781"/>
     <use xlink:href="#DejaVuSans-6f" x="806.583984"/>
     <use xlink:href="#DejaVuSans-61" x="867.765625"/>
     <use xlink:href="#DejaVuSans-64" x="929.044922"/>
     <use xlink:href="#DejaVuSans-20" x="992.521484"/>
     <use xlink:href="#DejaVuSans-4d" x="1024.308594"/>
     <use xlink:href="#DejaVuSans-61" x="1110.587891"/>
     <use xlink:href="#DejaVuSans-73" x="1171.867188"/>
     <use xlink:href="#DejaVuSans-73" x="1223.966797"/>
     <use xlink:href="#DejaVuSans-20" x="1276.066406"/>
     <use xlink:href="#DejaVuSans-74" x="1307.853516"/>
     <use xlink:href="#DejaVuSans-6f" x="1347.0625"/>
     <use xlink:href="#DejaVuSans-20" x="1408.244141"/>
     <use xlink:href="#DejaVuSans-4f" x="1440.03125"/>
     <use xlink:href="#DejaVuSans-72" x="1518.742188"/>
     <use xlink:href="#DejaVuSans-62" x="1559.855469"/>
     <use xlink:href="#DejaVuSans-69" x="1623.332031"/>
     <use xlink:href="#DejaVuSans-74" x="1651.115234"/>
     <use xlink:href="#DejaVuSans-20" x="1690.324219"/>
     <use xlink:href="#DejaVuSans-42" x="1722.111328"/>
     <use xlink:href="#DejaVuSans-79" x="1790.714844"/>
     <use xlink:href="#DejaVuSans-20" x="1849.894531"/>
     <use xlink:href="#DejaVuSans-59" x="1881.681641"/>
     <use xlink:href="#DejaVuSans-65" x="1929.515625"/>
     <use xlink:href="#DejaVuSans-61" x="1991.039062"/>
     <use xlink:href="#DejaVuSans-72" x="2052.318359"/>
    </g>
   </g>
   <g id="legend_1">
    <g id="patch_7">
     <path d="M 89.37 181.66125 
L 146.82 181.66125 
Q 148.82 181.66125 148.82 179.66125 
L 148.82 33.88 
Q 148.82 31.88 146.82 31.88 
L 89.37 31.88 
Q 87.37 31.88 87.37 33.88 
L 87.37 179.66125 
Q 87.37 181.66125 89.37 181.66125 
z
" style="fill: #ffffff; opacity: 0.8; stroke: #cccccc; stroke-linejoin: miter"/>
    </g>
    <g id="text_17">
     <!-- Year -->
     <g transform="translate(107.5075 43.478437) scale(0.1 -0.1)">
      <use xlink:href="#DejaVuSans-59"/>
      <use xlink:href="#DejaVuSans-65" x="47.833984"/>
      <use xlink:href="#DejaVuSans-61" x="109.357422"/>
      <use xlink:href="#DejaVuSans-72" x="170.636719"/>
     </g>
    </g>
    <g id="line2d_38">
     <path d="M 91.37 54.656562 
L 101.37 54.656562 
L 101.37 54.656562 
L 111.37 54.656562 
L 111.37 54.656562 
" style="fill: none; stroke: #808080; stroke-width: 1.5; stroke-linecap: square"/>
    </g>
    <g id="text_18">
     <!-- 2017 -->
     <g transform="translate(119.37 58.156562) scale(0.1 -0.1)">
      <use xlink:href="#DejaVuSans-32"/>
      <use xlink:href="#DejaVuSans-30" x="63.623047"/>
      <use xlink:href="#DejaVuSans-31" x="127.246094"/>
      <use xlink:href="#DejaVuSans-37" x="190.869141"/>
     </g>
    </g>
    <g id="line2d_39">
     <path d="M 91.37 69.334687 
L 101.37 69.334687 
L 101.37 69.334687 
L 111.37 69.334687 
L 111.37 69.334687 
" style="fill: none; stroke: #90ee90; stroke-width: 1.5; stroke-linecap: square"/>
    </g>
    <g id="text_19">
     <!-- 2018 -->
     <g transform="translate(119.37 72.834687) scale(0.1 -0.1)">
      <defs>
       <path id="DejaVuSans-38" d="M 2034 2216 
Q 1584 2216 1326 1975 
Q 1069 1734 1069 1313 
Q 1069 891 1326 650 
Q 1584 409 2034 409 
Q 2484 409 2743 651 
Q 3003 894 3003 1313 
Q 3003 1734 2745 1975 
Q 2488 2216 2034 2216 
z
M 1403 2484 
Q 997 2584 770 2862 
Q 544 3141 544 3541 
Q 544 4100 942 4425 
Q 1341 4750 2034 4750 
Q 2731 4750 3128 4425 
Q 3525 4100 3525 3541 
Q 3525 3141 3298 2862 
Q 3072 2584 2669 2484 
Q 3125 2378 3379 2068 
Q 3634 1759 3634 1313 
Q 3634 634 3220 271 
Q 2806 -91 2034 -91 
Q 1263 -91 848 271 
Q 434 634 434 1313 
Q 434 1759 690 2068 
Q 947 2378 1403 2484 
z
M 1172 3481 
Q 1172 3119 1398 2916 
Q 1625 2713 2034 2713 
Q 2441 2713 2670 2916 
Q 2900 3119 2900 3481 
Q 2900 3844 2670 4047 
Q 2441 4250 2034 4250 
Q 1625 4250 1398 4047 
Q 1172 3844 1172 3481 
z
" transform="scale(0.015625)"/>
      </defs>
      <use xlink:href="#DejaVuSans-32"/>
      <use xlink:href="#DejaVuSans-30" x="63.623047"/>
      <use xlink:href="#DejaVuSans-31" x="127.246094"/>
      <use xlink:href="#DejaVuSans-38" x="190.869141"/>
     </g>
    </g>
    <g id="line2d_40">
     <path d="M 91.37 84.012812 
L 101.37 84.012812 
L 101.37 84.012812 
L 111.37 84.012812 
L 111.37 84.012812 
" style="fill: none; stroke: #add8e6; stroke-width: 1.5; stroke-linecap: square"/>
    </g>
    <g id="text_20">
     <!-- 2019 -->
     <g transform="translate(119.37 87.512812) scale(0.1 -0.1)">
      <defs>
       <path id="DejaVuSans-39" d="M 703 97 
L 703 672 
Q 941 559 1184 500 
Q 1428 441 1663 441 
Q 2288 441 2617 861 
Q 2947 1281 2994 2138 
Q 2813 1869 2534 1725 
Q 2256 1581 1919 1581 
Q 1219 1581 811 2004 
Q 403 2428 403 3163 
Q 403 3881 828 4315 
Q 1253 4750 1959 4750 
Q 2769 4750 3195 4129 
Q 3622 3509 3622 2328 
Q 3622 1225 3098 567 
Q 2575 -91 1691 -91 
Q 1453 -91 1209 -44 
Q 966 3 703 97 
z
M 1959 2075 
Q 2384 2075 2632 2365 
Q 2881 2656 2881 3163 
Q 2881 3666 2632 3958 
Q 2384 4250 1959 4250 
Q 1534 4250 1286 3958 
Q 1038 3666 1038 3163 
Q 1038 2656 1286 2365 
Q 1534 2075 1959 2075 
z
" transform="scale(0.015625)"/>
      </defs>
      <use xlink:href="#DejaVuSans-32"/>
      <use xlink:href="#DejaVuSans-30" x="63.623047"/>
      <use xlink:href="#DejaVuSans-31" x="127.246094"/>
      <use xlink:href="#DejaVuSans-39" x="190.869141"/>
     </g>
    </g>
    <g id="line2d_41">
     <path d="M 91.37 98.690937 
L 101.37 98.690937 
L 101.37 98.690937 
L 111.37 98.690937 
L 111.37 98.690937 
" style="fill: none; stroke: #ffc0cb; stroke-width: 1.5; stroke-linecap: square"/>
    </g>
    <g id="text_21">
     <!-- 2020 -->
     <g transform="translate(119.37 102.190937) scale(0.1 -0.1)">
      <use xlink:href="#DejaVuSans-32"/>
      <use xlink:href="#DejaVuSans-30" x="63.623047"/>
      <use xlink:href="#DejaVuSans-32" x="127.246094"/>
      <use xlink:href="#DejaVuSans-30" x="190.869141"/>
     </g>
    </g>
    <g id="line2d_42">
     <path d="M 91.37 113.369062 
L 101.37 113.369062 
L 101.37 113.369062 
L 111.37 113.369062 
L 111.37 113.369062 
" style="fill: none; stroke: #800080; stroke-width: 1.5; stroke-linecap: square"/>
    </g>
    <g id="text_22">
     <!-- 2021 -->
     <g transform="translate(119.37 116.869062) scale(0.1 -0.1)">
      <use xlink:href="#DejaVuSans-32"/>
      <use xlink:href="#DejaVuSans-30" x="63.623047"/>
      <use xlink:href="#DejaVuSans-32" x="127.246094"/>
      <use xlink:href="#DejaVuSans-31" x="190.869141"/>
     </g>
    </g>
    <g id="line2d_43">
     <path d="M 91.37 128.047187 
L 101.37 128.047187 
L 101.37 128.047187 
L 111.37 128.047187 
L 111.37 128.047187 
" style="fill: none; stroke: #ffa500; stroke-width: 1.5; stroke-linecap: square"/>
    </g>
    <g id="text_23">
     <!-- 2022 -->
     <g transform="translate(119.37 131.547187) scale(0.1 -0.1)">
      <use xlink:href="#DejaVuSans-32"/>
      <use xlink:href="#DejaVuSans-30" x="63.623047"/>
      <use xlink:href="#DejaVuSans-32" x="127.246094"/>
      <use xlink:href="#DejaVuSans-32" x="190.869141"/>
     </g>
    </g>
    <g id="line2d_44">
     <path d="M 91.37 142.725312 
L 101.37 142.725312 
L 101.37 142.725312 
L 111.37 142.725312 
L 111.37 142.725312 
" style="fill: none; stroke: #0000ff; stroke-width: 1.5; stroke-linecap: square"/>
    </g>
    <g id="text_24">
     <!-- 2023 -->
     <g transform="translate(119.37 146.225312) scale(0.1 -0.1)">
      <defs>
       <path id="DejaVuSans-33" d="M 2597 2516 
Q 3050 2419 3304 2112 
Q 3559 1806 3559 1356 
Q 3559 666 3084 287 
Q 2609 -91 1734 -91 
Q 1441 -91 1130 -33 
Q 819 25 488 141 
L 488 750 
Q 750 597 1062 519 
Q 1375 441 1716 441 
Q 2309 441 2620 675 
Q 2931 909 2931 1356 
Q 2931 1769 2642 2001 
Q 2353 2234 1838 2234 
L 1294 2234 
L 1294 2753 
L 1863 2753 
Q 2328 2753 2575 2939 
Q 2822 3125 2822 3475 
Q 2822 3834 2567 4026 
Q 2313 4219 1838 4219 
Q 1578 4219 1281 4162 
Q 984 4106 628 3988 
L 628 4550 
Q 988 4650 1302 4700 
Q 1616 4750 1894 4750 
Q 2613 4750 3031 4423 
Q 3450 4097 3450 3541 
Q 3450 3153 3228 2886 
Q 3006 2619 2597 2516 
z
" transform="scale(0.015625)"/>
      </defs>
      <use xlink:href="#DejaVuSans-32"/>
      <use xlink:href="#DejaVuSans-30" x="63.623047"/>
      <use xlink:href="#DejaVuSans-32" x="127.246094"/>
      <use xlink:href="#DejaVuSans-33" x="190.869141"/>
     </g>
    </g>
    <g id="line2d_45">
     <path d="M 91.37 157.403437 
L 101.37 157.403437 
L 101.37 157.403437 
L 111.37 157.403437 
L 111.37 157.403437 
" style="fill: none; stroke: #008000; stroke-width: 1.5; stroke-linecap: square"/>
    </g>
    <g id="text_25">
     <!-- 2024 -->
     <g transform="translate(119.37 160.903437) scale(0.1 -0.1)">
      <defs>
       <path id="DejaVuSans-34" d="M 2419 4116 
L 825 1625 
L 2419 1625 
L 2419 4116 
z
M 2253 4666 
L 3047 4666 
L 3047 1625 
L 3713 1625 
L 3713 1100 
L 3047 1100 
L 3047 0 
L 2419 0 
L 2419 1100 
L 313 1100 
L 313 1709 
L 2253 4666 
z
" transform="scale(0.015625)"/>
      </defs>
      <use xlink:href="#DejaVuSans-32"/>
      <use xlink:href="#DejaVuSans-30" x="63.623047"/>
      <use xlink:href="#DejaVuSans-32" x="127.246094"/>
      <use xlink:href="#DejaVuSans-34" x="190.869141"/>
     </g>
    </g>
    <g id="line2d_46">
     <path d="M 91.37 172.081562 
L 101.37 172.081562 
L 101.37 172.081562 
L 111.37 172.081562 
L 111.37 172.081562 
" style="fill: none; stroke: #ff0000; stroke-width: 1.5; stroke-linecap: square"/>
    </g>
    <g id="text_26">
     <!-- 2025 -->
     <g transform="translate(119.37 175.581562) scale(0.1 -0.1)">
      <use xlink:href="#DejaVuSans-32"/>
      <use xlink:href="#DejaVuSans-30" x="63.623047"/>
      <use xlink:href="#DejaVuSans-32" x="127.246094"/>
      <use xlink:href="#DejaVuSans-35" x="190.869141"/>
     </g>
    </g>
   </g>
  </g>
 </g>
 <defs>
  <clipPath id="pc7d3eead95">
   <rect x="82.37" y="26.88" width="626.83" height="449.24"/>
  </clipPath>
 </defs>
</svg>
