<?xml version="1.0" encoding="utf-8" standalone="no"?>
<!DOCTYPE svg PUBLIC "-//W3C//DTD SVG 1.1//EN"
  "http://www.w3.org/Graphics/SVG/1.1/DTD/svg11.dtd">
<svg xmlns:xlink="http://www.w3.org/1999/xlink" width="720pt" height="504pt" viewBox="0 0 720 504" xmlns="http://www.w3.org/2000/svg" version="1.1">
 <metadata>
  <rdf:RDF xmlns:dc="http://purl.org/dc/elements/1.1/" xmlns:cc="http://creativecommons.org/ns#" xmlns:rdf="http://www.w3.org/1999/02/22-rdf-syntax-ns#">
   <cc:Work>
    <dc:type rdf:resource="http://purl.org/dc/dcmitype/StillImage"/>
    <dc:date>2025-10-19T23:36:16.796548</dc:date>
    <dc:format>image/svg+xml</dc:format>
    <dc:creator>
     <cc:Agent>
      <dc:title>Matplotlib v3.8.2, https://matplotlib.org/</dc:title>
     </cc:Agent>
    </dc:creator>
   </cc:Work>
  </rdf:RDF>
 </metadata>
 <defs>
  <style type="text/css">*{stroke-linejoin: round; stroke-linecap: butt}</style>
 </defs>
 <g id="figure_1">
  <g id="patch_1">
   <path d="M 0 504 
L 720 504 
L 720 0 
L 0 0 
z
" style="fill: #ffffff"/>
  </g>
  <g id="axes_1">
   <g id="patch_2">
    <path d="M 82.37 476.12 
L 709.2 476.12 
L 709.2 26.88 
L 82.37 26.88 
z
" style="fill: #ffffff"/>
   </g>
   <g id="matplotlib.axis_1">
    <g id="xtick_1">
     <g id="line2d_1">
      <path d="M 106.728679 476.12 
L 106.728679 26.88 
" clip-path="url(#pc5e36e1dc0)" style="fill: none; stroke: #b0b0b0; stroke-width: 0.8; stroke-linecap: square"/>
     </g>
     <g id="line2d_2">
      <defs>
       <path id="m510c952e4c" d="M 0 0 
L 0 3.5 
" style="stroke: #000000; stroke-width: 0.8"/>
      </defs>
      <g>
       <use xlink:href="#m510c952e4c" x="106.728679" y="476.12" style="stroke: #000000; stroke-width: 0.8"/>
      </g>
     </g>
     <g id="text_1">
      <!-- Jan 1 -->
      <g transform="translate(94.250554 490.718437) scale(0.1 -0.1)">
       <defs>
        <path id="DejaVuSans-4a" d="M 628 4666 
L 1259 4666 
L 1259 325 
Q 1259 -519 939 -900 
Q 619 -1281 -91 -1281 
L -331 -1281 
L -331 -750 
L -134 -750 
Q 284 -750 456 -515 
Q 628 -281 628 325 
L 628 4666 
z
" transform="scale(0.015625)"/>
        <path id="DejaVuSans-61" d="M 2194 1759 
Q 1497 1759 1228 1600 
Q 959 1441 959 1056 
Q 959 750 1161 570 
Q 1363 391 1709 391 
Q 2188 391 2477 730 
Q 2766 1069 2766 1631 
L 2766 1759 
L 2194 1759 
z
M 3341 1997 
L 3341 0 
L 2766 0 
L 2766 531 
Q 2569 213 2275 61 
Q 1981 -91 1556 -91 
Q 1019 -91 701 211 
Q 384 513 384 1019 
Q 384 1609 779 1909 
Q 1175 2209 1959 2209 
L 2766 2209 
L 2766 2266 
Q 2766 2663 2505 2880 
Q 2244 3097 1772 3097 
Q 1472 3097 1187 3025 
Q 903 2953 641 2809 
L 641 3341 
Q 956 3463 1253 3523 
Q 1550 3584 1831 3584 
Q 2591 3584 2966 3190 
Q 3341 2797 3341 1997 
z
" transform="scale(0.015625)"/>
        <path id="DejaVuSans-6e" d="M 3513 2113 
L 3513 0 
L 2938 0 
L 2938 2094 
Q 2938 2591 2744 2837 
Q 2550 3084 2163 3084 
Q 1697 3084 1428 2787 
Q 1159 2491 1159 1978 
L 1159 0 
L 581 0 
L 581 3500 
L 1159 3500 
L 1159 2956 
Q 1366 3272 1645 3428 
Q 1925 3584 2291 3584 
Q 2894 3584 3203 3211 
Q 3513 2838 3513 2113 
z
" transform="scale(0.015625)"/>
        <path id="DejaVuSans-20" transform="scale(0.015625)"/>
        <path id="DejaVuSans-31" d="M 794 531 
L 1825 531 
L 1825 4091 
L 703 3866 
L 703 4441 
L 1819 4666 
L 2450 4666 
L 2450 531 
L 3481 531 
L 3481 0 
L 794 0 
L 794 531 
z
" transform="scale(0.015625)"/>
       </defs>
       <use xlink:href="#DejaVuSans-4a"/>
       <use xlink:href="#DejaVuSans-61" x="29.492188"/>
       <use xlink:href="#DejaVuSans-6e" x="90.771484"/>
       <use xlink:href="#DejaVuSans-20" x="154.150391"/>
       <use xlink:href="#DejaVuSans-31" x="185.9375"/>
      </g>
     </g>
    </g>
    <g id="xtick_2">
     <g id="line2d_3">
      <path d="M 204.163394 476.12 
L 204.163394 26.88 
" clip-path="url(#pc5e36e1dc0)" style="fill: none; stroke: #b0b0b0; stroke-width: 0.8; stroke-linecap: square"/>
     </g>
     <g id="line2d_4">
      <g>
       <use xlink:href="#m510c952e4c" x="204.163394" y="476.12" style="stroke: #000000; stroke-width: 0.8"/>
      </g>
     </g>
     <g id="text_2">
      <!-- Mar 1 -->
      <g transform="translate(189.959488 490.718437) scale(0.1 -0.1)">
       <defs>
        <path id="DejaVuSans-4d" d="M 628 4666 
L 1569 4666 
L 2759 1491 
L 3956 4666 
L 4897 4666 
L 4897 0 
L 4281 0 
L 4281 4097 
L 3078 897 
L 2444 897 
L 1241 4097 
L 1241 0 
L 628 0 
L 628 4666 
z
" transform="scale(0.015625)"/>
        <path id="DejaVuSans-72" d="M 2631 2963 
Q 2534 3019 2420 3045 
Q 2306 3072 2169 3072 
Q 1681 3072 1420 2755 
Q 1159 2438 1159 1844 
L 1159 0 
L 581 0 
L 581 3500 
L 1159 3500 
L 1159 2956 
Q 1341 3275 1631 3429 
Q 1922 3584 2338 3584 
Q 2397 3584 2469 3576 
Q 2541 3569 2628 3553 
L 2631 2963 
z
" transform="scale(0.015625)"/>
       </defs>
       <use xlink:href="#DejaVuSans-4d"/>
       <use xlink:href="#DejaVuSans-61" x="86.279297"/>
       <use xlink:href="#DejaVuSans-72" x="147.558594"/>
       <use xlink:href="#DejaVuSans-20" x="188.671875"/>
       <use xlink:href="#DejaVuSans-31" x="220.458984"/>
      </g>
     </g>
    </g>
    <g id="xtick_3">
     <g id="line2d_5">
      <path d="M 303.222021 476.12 
L 303.222021 26.88 
" clip-path="url(#pc5e36e1dc0)" style="fill: none; stroke: #b0b0b0; stroke-width: 0.8; stroke-linecap: square"/>
     </g>
     <g id="line2d_6">
      <g>
       <use xlink:href="#m510c952e4c" x="303.222021" y="476.12" style="stroke: #000000; stroke-width: 0.8"/>
      </g>
     </g>
     <g id="text_3">
      <!-- May 1 -->
      <g transform="translate(288.114208 490.718437) scale(0.1 -0.1)">
       <defs>
        <path id="DejaVuSans-79" d="M 2059 -325 
Q 1816 -950 1584 -1140 
Q 1353 -1331 966 -1331 
L 506 -1331 
L 506 -850 
L 844 -850 
Q 1081 -850 1212 -737 
Q 1344 -625 1503 -206 
L 1606 56 
L 191 3500 
L 800 3500 
L 1894 763 
L 2988 3500 
L 3597 3500 
L 2059 -325 
z
" transform="scale(0.015625)"/>
       </defs>
       <use xlink:href="#DejaVuSans-4d"/>
       <use xlink:href="#DejaVuSans-61" x="86.279297"/>
       <use xlink:href="#DejaVuSans-79" x="147.558594"/>
       <use xlink:href="#DejaVuSans-20" x="206.738281"/>
       <use xlink:href="#DejaVuSans-31" x="238.525391"/>
      </g>
     </g>
    </g>
    <g id="xtick_4">
     <g id="line2d_7">
      <path d="M 402.280648 476.12 
L 402.280648 26.88 
" clip-path="url(#pc5e36e1dc0)" style="fill: none; stroke: #b0b0b0; stroke-width: 0.8; stroke-linecap: square"/>
     </g>
     <g id="line2d_8">
      <g>
       <use xlink:href="#m510c952e4c" x="402.280648" y="476.12" style="stroke: #000000; stroke-width: 0.8"/>
      </g>
     </g>
     <g id="text_4">
      <!-- Jul 1 -->
      <g transform="translate(391.477523 490.718437) scale(0.1 -0.1)">
       <defs>
        <path id="DejaVuSans-75" d="M 544 1381 
L 544 3500 
L 1119 3500 
L 1119 1403 
Q 1119 906 1312 657 
Q 1506 409 1894 409 
Q 2359 409 2629 706 
Q 2900 1003 2900 1516 
L 2900 3500 
L 3475 3500 
L 3475 0 
L 2900 0 
L 2900 538 
Q 2691 219 2414 64 
Q 2138 -91 1772 -91 
Q 1169 -91 856 284 
Q 544 659 544 1381 
z
M 1991 3584 
L 1991 3584 
z
" transform="scale(0.015625)"/>
        <path id="DejaVuSans-6c" d="M 603 4863 
L 1178 4863 
L 1178 0 
L 603 0 
L 603 4863 
z
" transform="scale(0.015625)"/>
       </defs>
       <use xlink:href="#DejaVuSans-4a"/>
       <use xlink:href="#DejaVuSans-75" x="29.492188"/>
       <use xlink:href="#DejaVuSans-6c" x="92.871094"/>
       <use xlink:href="#DejaVuSans-20" x="120.654297"/>
       <use xlink:href="#DejaVuSans-31" x="152.441406"/>
      </g>
     </g>
    </g>
    <g id="xtick_5">
     <g id="line2d_9">
      <path d="M 502.963187 476.12 
L 502.963187 26.88 
" clip-path="url(#pc5e36e1dc0)" style="fill: none; stroke: #b0b0b0; stroke-width: 0.8; stroke-linecap: square"/>
     </g>
     <g id="line2d_10">
      <g>
       <use xlink:href="#m510c952e4c" x="502.963187" y="476.12" style="stroke: #000000; stroke-width: 0.8"/>
      </g>
     </g>
     <g id="text_5">
      <!-- Sep 1 -->
      <g transform="translate(488.767874 490.718437) scale(0.1 -0.1)">
       <defs>
        <path id="DejaVuSans-53" d="M 3425 4513 
L 3425 3897 
Q 3066 4069 2747 4153 
Q 2428 4238 2131 4238 
Q 1616 4238 1336 4038 
Q 1056 3838 1056 3469 
Q 1056 3159 1242 3001 
Q 1428 2844 1947 2747 
L 2328 2669 
Q 3034 2534 3370 2195 
Q 3706 1856 3706 1288 
Q 3706 609 3251 259 
Q 2797 -91 1919 -91 
Q 1588 -91 1214 -16 
Q 841 59 441 206 
L 441 856 
Q 825 641 1194 531 
Q 1563 422 1919 422 
Q 2459 422 2753 634 
Q 3047 847 3047 1241 
Q 3047 1584 2836 1778 
Q 2625 1972 2144 2069 
L 1759 2144 
Q 1053 2284 737 2584 
Q 422 2884 422 3419 
Q 422 4038 858 4394 
Q 1294 4750 2059 4750 
Q 2388 4750 2728 4690 
Q 3069 4631 3425 4513 
z
" transform="scale(0.015625)"/>
        <path id="DejaVuSans-65" d="M 3597 1894 
L 3597 1613 
L 953 1613 
Q 991 1019 1311 708 
Q 1631 397 2203 397 
Q 2534 397 2845 478 
Q 3156 559 3463 722 
L 3463 178 
Q 3153 47 2828 -22 
Q 2503 -91 2169 -91 
Q 1331 -91 842 396 
Q 353 884 353 1716 
Q 353 2575 817 3079 
Q 1281 3584 2069 3584 
Q 2775 3584 3186 3129 
Q 3597 2675 3597 1894 
z
M 3022 2063 
Q 3016 2534 2758 2815 
Q 2500 3097 2075 3097 
Q 1594 3097 1305 2825 
Q 1016 2553 972 2059 
L 3022 2063 
z
" transform="scale(0.015625)"/>
        <path id="DejaVuSans-70" d="M 1159 525 
L 1159 -1331 
L 581 -1331 
L 581 3500 
L 1159 3500 
L 1159 2969 
Q 1341 3281 1617 3432 
Q 1894 3584 2278 3584 
Q 2916 3584 3314 3078 
Q 3713 2572 3713 1747 
Q 3713 922 3314 415 
Q 2916 -91 2278 -91 
Q 1894 -91 1617 61 
Q 1341 213 1159 525 
z
M 3116 1747 
Q 3116 2381 2855 2742 
Q 2594 3103 2138 3103 
Q 1681 3103 1420 2742 
Q 1159 2381 1159 1747 
Q 1159 1113 1420 752 
Q 1681 391 2138 391 
Q 2594 391 2855 752 
Q 3116 1113 3116 1747 
z
" transform="scale(0.015625)"/>
       </defs>
       <use xlink:href="#DejaVuSans-53"/>
       <use xlink:href="#DejaVuSans-65" x="63.476562"/>
       <use xlink:href="#DejaVuSans-70" x="125"/>
       <use xlink:href="#DejaVuSans-20" x="188.476562"/>
       <use xlink:href="#DejaVuSans-31" x="220.263672"/>
      </g>
     </g>
    </g>
    <g id="xtick_6">
     <g id="line2d_11">
      <path d="M 602.021813 476.12 
L 602.021813 26.88 
" clip-path="url(#pc5e36e1dc0)" style="fill: none; stroke: #b0b0b0; stroke-width: 0.8; stroke-linecap: square"/>
     </g>
     <g id="line2d_12">
      <g>
       <use xlink:href="#m510c952e4c" x="602.021813" y="476.12" style="stroke: #000000; stroke-width: 0.8"/>
      </g>
     </g>
     <g id="text_6">
      <!-- Nov 1 -->
      <g transform="translate(587.492126 490.718437) scale(0.1 -0.1)">
       <defs>
        <path id="DejaVuSans-4e" d="M 628 4666 
L 1478 4666 
L 3547 763 
L 3547 4666 
L 4159 4666 
L 4159 0 
L 3309 0 
L 1241 3903 
L 1241 0 
L 628 0 
L 628 4666 
z
" transform="scale(0.015625)"/>
        <path id="DejaVuSans-6f" d="M 1959 3097 
Q 1497 3097 1228 2736 
Q 959 2375 959 1747 
Q 959 1119 1226 758 
Q 1494 397 1959 397 
Q 2419 397 2687 759 
Q 2956 1122 2956 1747 
Q 2956 2369 2687 2733 
Q 2419 3097 1959 3097 
z
M 1959 3584 
Q 2709 3584 3137 3096 
Q 3566 2609 3566 1747 
Q 3566 888 3137 398 
Q 2709 -91 1959 -91 
Q 1206 -91 779 398 
Q 353 888 353 1747 
Q 353 2609 779 3096 
Q 1206 3584 1959 3584 
z
" transform="scale(0.015625)"/>
        <path id="DejaVuSans-76" d="M 191 3500 
L 800 3500 
L 1894 563 
L 2988 3500 
L 3597 3500 
L 2284 0 
L 1503 0 
L 191 3500 
z
" transform="scale(0.015625)"/>
       </defs>
       <use xlink:href="#DejaVuSans-4e"/>
       <use xlink:href="#DejaVuSans-6f" x="74.804688"/>
       <use xlink:href="#DejaVuSans-76" x="135.986328"/>
       <use xlink:href="#DejaVuSans-20" x="195.166016"/>
       <use xlink:href="#DejaVuSans-31" x="226.953125"/>
      </g>
     </g>
    </g>
   </g>
   <g id="matplotlib.axis_2">
    <g id="ytick_1">
     <g id="line2d_13">
      <path d="M 82.37 455.7 
L 709.2 455.7 
" clip-path="url(#pc5e36e1dc0)" style="fill: none; stroke: #b0b0b0; stroke-width: 0.8; stroke-linecap: square"/>
     </g>
     <g id="line2d_14">
      <defs>
       <path id="me42aee952f" d="M 0 0 
L -3.5 0 
" style="stroke: #000000; stroke-width: 0.8"/>
      </defs>
      <g>
       <use xlink:href="#me42aee952f" x="82.37" y="455.7" style="stroke: #000000; stroke-width: 0.8"/>
      </g>
     </g>
     <g id="text_7">
      <!-- 0 -->
      <g transform="translate(69.0075 459.499219) scale(0.1 -0.1)">
       <defs>
        <path id="DejaVuSans-30" d="M 2034 4250 
Q 1547 4250 1301 3770 
Q 1056 3291 1056 2328 
Q 1056 1369 1301 889 
Q 1547 409 2034 409 
Q 2525 409 2770 889 
Q 3016 1369 3016 2328 
Q 3016 3291 2770 3770 
Q 2525 4250 2034 4250 
z
M 2034 4750 
Q 2819 4750 3233 4129 
Q 3647 3509 3647 2328 
Q 3647 1150 3233 529 
Q 2819 -91 2034 -91 
Q 1250 -91 836 529 
Q 422 1150 422 2328 
Q 422 3509 836 4129 
Q 1250 4750 2034 4750 
z
" transform="scale(0.015625)"/>
       </defs>
       <use xlink:href="#DejaVuSans-30"/>
      </g>
     </g>
    </g>
    <g id="ytick_2">
     <g id="line2d_15">
      <path d="M 82.37 396.542116 
L 709.2 396.542116 
" clip-path="url(#pc5e36e1dc0)" style="fill: none; stroke: #b0b0b0; stroke-width: 0.8; stroke-linecap: square"/>
     </g>
     <g id="line2d_16">
      <g>
       <use xlink:href="#me42aee952f" x="82.37" y="396.542116" style="stroke: #000000; stroke-width: 0.8"/>
      </g>
     </g>
     <g id="text_8">
      <!-- 250,000 -->
      <g transform="translate(34.016875 400.341335) scale(0.1 -0.1)">
       <defs>
        <path id="DejaVuSans-32" d="M 1228 531 
L 3431 531 
L 3431 0 
L 469 0 
L 469 531 
Q 828 903 1448 1529 
Q 2069 2156 2228 2338 
Q 2531 2678 2651 2914 
Q 2772 3150 2772 3378 
Q 2772 3750 2511 3984 
Q 2250 4219 1831 4219 
Q 1534 4219 1204 4116 
Q 875 4013 500 3803 
L 500 4441 
Q 881 4594 1212 4672 
Q 1544 4750 1819 4750 
Q 2544 4750 2975 4387 
Q 3406 4025 3406 3419 
Q 3406 3131 3298 2873 
Q 3191 2616 2906 2266 
Q 2828 2175 2409 1742 
Q 1991 1309 1228 531 
z
" transform="scale(0.015625)"/>
        <path id="DejaVuSans-35" d="M 691 4666 
L 3169 4666 
L 3169 4134 
L 1269 4134 
L 1269 2991 
Q 1406 3038 1543 3061 
Q 1681 3084 1819 3084 
Q 2600 3084 3056 2656 
Q 3513 2228 3513 1497 
Q 3513 744 3044 326 
Q 2575 -91 1722 -91 
Q 1428 -91 1123 -41 
Q 819 9 494 109 
L 494 744 
Q 775 591 1075 516 
Q 1375 441 1709 441 
Q 2250 441 2565 725 
Q 2881 1009 2881 1497 
Q 2881 1984 2565 2268 
Q 2250 2553 1709 2553 
Q 1456 2553 1204 2497 
Q 953 2441 691 2322 
L 691 4666 
z
" transform="scale(0.015625)"/>
        <path id="DejaVuSans-2c" d="M 750 794 
L 1409 794 
L 1409 256 
L 897 -744 
L 494 -744 
L 750 256 
L 750 794 
z
" transform="scale(0.015625)"/>
       </defs>
       <use xlink:href="#DejaVuSans-32"/>
       <use xlink:href="#DejaVuSans-35" x="63.623047"/>
       <use xlink:href="#DejaVuSans-30" x="127.246094"/>
       <use xlink:href="#DejaVuSans-2c" x="190.869141"/>
       <use xlink:href="#DejaVuSans-30" x="222.65625"/>
       <use xlink:href="#DejaVuSans-30" x="286.279297"/>
       <use xlink:href="#DejaVuSans-30" x="349.902344"/>
      </g>
     </g>
    </g>
    <g id="ytick_3">
     <g id="line2d_17">
      <path d="M 82.37 337.384232 
L 709.2 337.384232 
" clip-path="url(#pc5e36e1dc0)" style="fill: none; stroke: #b0b0b0; stroke-width: 0.8; stroke-linecap: square"/>
     </g>
     <g id="line2d_18">
      <g>
       <use xlink:href="#me42aee952f" x="82.37" y="337.384232" style="stroke: #000000; stroke-width: 0.8"/>
      </g>
     </g>
     <g id="text_9">
      <!-- 500,000 -->
      <g transform="translate(34.016875 341.183451) scale(0.1 -0.1)">
       <use xlink:href="#DejaVuSans-35"/>
       <use xlink:href="#DejaVuSans-30" x="63.623047"/>
       <use xlink:href="#DejaVuSans-30" x="127.246094"/>
       <use xlink:href="#DejaVuSans-2c" x="190.869141"/>
       <use xlink:href="#DejaVuSans-30" x="222.65625"/>
       <use xlink:href="#DejaVuSans-30" x="286.279297"/>
       <use xlink:href="#DejaVuSans-30" x="349.902344"/>
      </g>
     </g>
    </g>
    <g id="ytick_4">
     <g id="line2d_19">
      <path d="M 82.37 278.226349 
L 709.2 278.226349 
" clip-path="url(#pc5e36e1dc0)" style="fill: none; stroke: #b0b0b0; stroke-width: 0.8; stroke-linecap: square"/>
     </g>
     <g id="line2d_20">
      <g>
       <use xlink:href="#me42aee952f" x="82.37" y="278.226349" style="stroke: #000000; stroke-width: 0.8"/>
      </g>
     </g>
     <g id="text_10">
      <!-- 750,000 -->
      <g transform="translate(34.016875 282.025567) scale(0.1 -0.1)">
       <defs>
        <path id="DejaVuSans-37" d="M 525 4666 
L 3525 4666 
L 3525 4397 
L 1831 0 
L 1172 0 
L 2766 4134 
L 525 4134 
L 525 4666 
z
" transform="scale(0.015625)"/>
       </defs>
       <use xlink:href="#DejaVuSans-37"/>
       <use xlink:href="#DejaVuSans-35" x="63.623047"/>
       <use xlink:href="#DejaVuSans-30" x="127.246094"/>
       <use xlink:href="#DejaVuSans-2c" x="190.869141"/>
       <use xlink:href="#DejaVuSans-30" x="222.65625"/>
       <use xlink:href="#DejaVuSans-30" x="286.279297"/>
       <use xlink:href="#DejaVuSans-30" x="349.902344"/>
      </g>
     </g>
    </g>
    <g id="ytick_5">
     <g id="line2d_21">
      <path d="M 82.37 219.068465 
L 709.2 219.068465 
" clip-path="url(#pc5e36e1dc0)" style="fill: none; stroke: #b0b0b0; stroke-width: 0.8; stroke-linecap: square"/>
     </g>
     <g id="line2d_22">
      <g>
       <use xlink:href="#me42aee952f" x="82.37" y="219.068465" style="stroke: #000000; stroke-width: 0.8"/>
      </g>
     </g>
     <g id="text_11">
      <!-- 1,000,000 -->
      <g transform="translate(24.47625 222.867684) scale(0.1 -0.1)">
       <use xlink:href="#DejaVuSans-31"/>
       <use xlink:href="#DejaVuSans-2c" x="63.623047"/>
       <use xlink:href="#DejaVuSans-30" x="95.410156"/>
       <use xlink:href="#DejaVuSans-30" x="159.033203"/>
       <use xlink:href="#DejaVuSans-30" x="222.65625"/>
       <use xlink:href="#DejaVuSans-2c" x="286.279297"/>
       <use xlink:href="#DejaVuSans-30" x="318.066406"/>
       <use xlink:href="#DejaVuSans-30" x="381.689453"/>
       <use xlink:href="#DejaVuSans-30" x="445.3125"/>
      </g>
     </g>
    </g>
    <g id="ytick_6">
     <g id="line2d_23">
      <path d="M 82.37 159.910581 
L 709.2 159.910581 
" clip-path="url(#pc5e36e1dc0)" style="fill: none; stroke: #b0b0b0; stroke-width: 0.8; stroke-linecap: square"/>
     </g>
     <g id="line2d_24">
      <g>
       <use xlink:href="#me42aee952f" x="82.37" y="159.910581" style="stroke: #000000; stroke-width: 0.8"/>
      </g>
     </g>
     <g id="text_12">
      <!-- 1,250,000 -->
      <g transform="translate(24.47625 163.7098) scale(0.1 -0.1)">
       <use xlink:href="#DejaVuSans-31"/>
       <use xlink:href="#DejaVuSans-2c" x="63.623047"/>
       <use xlink:href="#DejaVuSans-32" x="95.410156"/>
       <use xlink:href="#DejaVuSans-35" x="159.033203"/>
       <use xlink:href="#DejaVuSans-30" x="222.65625"/>
       <use xlink:href="#DejaVuSans-2c" x="286.279297"/>
       <use xlink:href="#DejaVuSans-30" x="318.066406"/>
       <use xlink:href="#DejaVuSans-30" x="381.689453"/>
       <use xlink:href="#DejaVuSans-30" x="445.3125"/>
      </g>
     </g>
    </g>
    <g id="ytick_7">
     <g id="line2d_25">
      <path d="M 82.37 100.752697 
L 709.2 100.752697 
" clip-path="url(#pc5e36e1dc0)" style="fill: none; stroke: #b0b0b0; stroke-width: 0.8; stroke-linecap: square"/>
     </g>
     <g id="line2d_26">
      <g>
       <use xlink:href="#me42aee952f" x="82.37" y="100.752697" style="stroke: #000000; stroke-width: 0.8"/>
      </g>
     </g>
     <g id="text_13">
      <!-- 1,500,000 -->
      <g transform="translate(24.47625 104.551916) scale(0.1 -0.1)">
       <use xlink:href="#DejaVuSans-31"/>
       <use xlink:href="#DejaVuSans-2c" x="63.623047"/>
       <use xlink:href="#DejaVuSans-35" x="95.410156"/>
       <use xlink:href="#DejaVuSans-30" x="159.033203"/>
       <use xlink:href="#DejaVuSans-30" x="222.65625"/>
       <use xlink:href="#DejaVuSans-2c" x="286.279297"/>
       <use xlink:href="#DejaVuSans-30" x="318.066406"/>
       <use xlink:href="#DejaVuSans-30" x="381.689453"/>
       <use xlink:href="#DejaVuSans-30" x="445.3125"/>
      </g>
     </g>
    </g>
    <g id="ytick_8">
     <g id="line2d_27">
      <path d="M 82.37 41.594814 
L 709.2 41.594814 
" clip-path="url(#pc5e36e1dc0)" style="fill: none; stroke: #b0b0b0; stroke-width: 0.8; stroke-linecap: square"/>
     </g>
     <g id="line2d_28">
      <g>
       <use xlink:href="#me42aee952f" x="82.37" y="41.594814" style="stroke: #000000; stroke-width: 0.8"/>
      </g>
     </g>
     <g id="text_14">
      <!-- 1,750,000 -->
      <g transform="translate(24.47625 45.394032) scale(0.1 -0.1)">
       <use xlink:href="#DejaVuSans-31"/>
       <use xlink:href="#DejaVuSans-2c" x="63.623047"/>
       <use xlink:href="#DejaVuSans-37" x="95.410156"/>
       <use xlink:href="#DejaVuSans-35" x="159.033203"/>
       <use xlink:href="#DejaVuSans-30" x="222.65625"/>
       <use xlink:href="#DejaVuSans-2c" x="286.279297"/>
       <use xlink:href="#DejaVuSans-30" x="318.066406"/>
       <use xlink:href="#DejaVuSans-30" x="381.689453"/>
       <use xlink:href="#DejaVuSans-30" x="445.3125"/>
      </g>
     </g>
    </g>
    <g id="text_15">
     <!-- Cumulative Payload Mass (kg) -->
     <g transform="translate(18.396562 326.863281) rotate(-90) scale(0.1 -0.1)">
      <defs>
       <path id="DejaVuSans-43" d="M 4122 4306 
L 4122 3641 
Q 3803 3938 3442 4084 
Q 3081 4231 2675 4231 
Q 1875 4231 1450 3742 
Q 1025 3253 1025 2328 
Q 1025 1406 1450 917 
Q 1875 428 2675 428 
Q 3081 428 3442 575 
Q 3803 722 4122 1019 
L 4122 359 
Q 3791 134 3420 21 
Q 3050 -91 2638 -91 
Q 1578 -91 968 557 
Q 359 1206 359 2328 
Q 359 3453 968 4101 
Q 1578 4750 2638 4750 
Q 3056 4750 3426 4639 
Q 3797 4528 4122 4306 
z
" transform="scale(0.015625)"/>
       <path id="DejaVuSans-6d" d="M 3328 2828 
Q 3544 3216 3844 3400 
Q 4144 3584 4550 3584 
Q 5097 3584 5394 3201 
Q 5691 2819 5691 2113 
L 5691 0 
L 5113 0 
L 5113 2094 
Q 5113 2597 4934 2840 
Q 4756 3084 4391 3084 
Q 3944 3084 3684 2787 
Q 3425 2491 3425 1978 
L 3425 0 
L 2847 0 
L 2847 2094 
Q 2847 2600 2669 2842 
Q 2491 3084 2119 3084 
Q 1678 3084 1418 2786 
Q 1159 2488 1159 1978 
L 1159 0 
L 581 0 
L 581 3500 
L 1159 3500 
L 1159 2956 
Q 1356 3278 1631 3431 
Q 1906 3584 2284 3584 
Q 2666 3584 2933 3390 
Q 3200 3197 3328 2828 
z
" transform="scale(0.015625)"/>
       <path id="DejaVuSans-74" d="M 1172 4494 
L 1172 3500 
L 2356 3500 
L 2356 3053 
L 1172 3053 
L 1172 1153 
Q 1172 725 1289 603 
Q 1406 481 1766 481 
L 2356 481 
L 2356 0 
L 1766 0 
Q 1100 0 847 248 
Q 594 497 594 1153 
L 594 3053 
L 172 3053 
L 172 3500 
L 594 3500 
L 594 4494 
L 1172 4494 
z
" transform="scale(0.015625)"/>
       <path id="DejaVuSans-69" d="M 603 3500 
L 1178 3500 
L 1178 0 
L 603 0 
L 603 3500 
z
M 603 4863 
L 1178 4863 
L 1178 4134 
L 603 4134 
L 603 4863 
z
" transform="scale(0.015625)"/>
       <path id="DejaVuSans-50" d="M 1259 4147 
L 1259 2394 
L 2053 2394 
Q 2494 2394 2734 2622 
Q 2975 2850 2975 3272 
Q 2975 3691 2734 3919 
Q 2494 4147 2053 4147 
L 1259 4147 
z
M 628 4666 
L 2053 4666 
Q 2838 4666 3239 4311 
Q 3641 3956 3641 3272 
Q 3641 2581 3239 2228 
Q 2838 1875 2053 1875 
L 1259 1875 
L 1259 0 
L 628 0 
L 628 4666 
z
" transform="scale(0.015625)"/>
       <path id="DejaVuSans-64" d="M 2906 2969 
L 2906 4863 
L 3481 4863 
L 3481 0 
L 2906 0 
L 2906 525 
Q 2725 213 2448 61 
Q 2172 -91 1784 -91 
Q 1150 -91 751 415 
Q 353 922 353 1747 
Q 353 2572 751 3078 
Q 1150 3584 1784 3584 
Q 2172 3584 2448 3432 
Q 2725 3281 2906 2969 
z
M 947 1747 
Q 947 1113 1208 752 
Q 1469 391 1925 391 
Q 2381 391 2643 752 
Q 2906 1113 2906 1747 
Q 2906 2381 2643 2742 
Q 2381 3103 1925 3103 
Q 1469 3103 1208 2742 
Q 947 2381 947 1747 
z
" transform="scale(0.015625)"/>
       <path id="DejaVuSans-73" d="M 2834 3397 
L 2834 2853 
Q 2591 2978 2328 3040 
Q 2066 3103 1784 3103 
Q 1356 3103 1142 2972 
Q 928 2841 928 2578 
Q 928 2378 1081 2264 
Q 1234 2150 1697 2047 
L 1894 2003 
Q 2506 1872 2764 1633 
Q 3022 1394 3022 966 
Q 3022 478 2636 193 
Q 2250 -91 1575 -91 
Q 1294 -91 989 -36 
Q 684 19 347 128 
L 347 722 
Q 666 556 975 473 
Q 1284 391 1588 391 
Q 1994 391 2212 530 
Q 2431 669 2431 922 
Q 2431 1156 2273 1281 
Q 2116 1406 1581 1522 
L 1381 1569 
Q 847 1681 609 1914 
Q 372 2147 372 2553 
Q 372 3047 722 3315 
Q 1072 3584 1716 3584 
Q 2034 3584 2315 3537 
Q 2597 3491 2834 3397 
z
" transform="scale(0.015625)"/>
       <path id="DejaVuSans-28" d="M 1984 4856 
Q 1566 4138 1362 3434 
Q 1159 2731 1159 2009 
Q 1159 1288 1364 580 
Q 1569 -128 1984 -844 
L 1484 -844 
Q 1016 -109 783 600 
Q 550 1309 550 2009 
Q 550 2706 781 3412 
Q 1013 4119 1484 4856 
L 1984 4856 
z
" transform="scale(0.015625)"/>
       <path id="DejaVuSans-6b" d="M 581 4863 
L 1159 4863 
L 1159 1991 
L 2875 3500 
L 3609 3500 
L 1753 1863 
L 3688 0 
L 2938 0 
L 1159 1709 
L 1159 0 
L 581 0 
L 581 4863 
z
" transform="scale(0.015625)"/>
       <path id="DejaVuSans-67" d="M 2906 1791 
Q 2906 2416 2648 2759 
Q 2391 3103 1925 3103 
Q 1463 3103 1205 2759 
Q 947 2416 947 1791 
Q 947 1169 1205 825 
Q 1463 481 1925 481 
Q 2391 481 2648 825 
Q 2906 1169 2906 1791 
z
M 3481 434 
Q 3481 -459 3084 -895 
Q 2688 -1331 1869 -1331 
Q 1566 -1331 1297 -1286 
Q 1028 -1241 775 -1147 
L 775 -588 
Q 1028 -725 1275 -790 
Q 1522 -856 1778 -856 
Q 2344 -856 2625 -561 
Q 2906 -266 2906 331 
L 2906 616 
Q 2728 306 2450 153 
Q 2172 0 1784 0 
Q 1141 0 747 490 
Q 353 981 353 1791 
Q 353 2603 747 3093 
Q 1141 3584 1784 3584 
Q 2172 3584 2450 3431 
Q 2728 3278 2906 2969 
L 2906 3500 
L 3481 3500 
L 3481 434 
z
" transform="scale(0.015625)"/>
       <path id="DejaVuSans-29" d="M 513 4856 
L 1013 4856 
Q 1481 4119 1714 3412 
Q 1947 2706 1947 2009 
Q 1947 1309 1714 600 
Q 1481 -109 1013 -844 
L 513 -844 
Q 928 -128 1133 580 
Q 1338 1288 1338 2009 
Q 1338 2731 1133 3434 
Q 928 4138 513 4856 
z
" transform="scale(0.015625)"/>
      </defs>
      <use xlink:href="#DejaVuSans-43"/>
      <use xlink:href="#DejaVuSans-75" x="69.824219"/>
      <use xlink:href="#DejaVuSans-6d" x="133.203125"/>
      <use xlink:href="#DejaVuSans-75" x="230.615234"/>
      <use xlink:href="#DejaVuSans-6c" x="293.994141"/>
      <use xlink:href="#DejaVuSans-61" x="321.777344"/>
      <use xlink:href="#DejaVuSans-74" x="383.056641"/>
      <use xlink:href="#DejaVuSans-69" x="422.265625"/>
      <use xlink:href="#DejaVuSans-76" x="450.048828"/>
      <use xlink:href="#DejaVuSans-65" x="509.228516"/>
      <use xlink:href="#DejaVuSans-20" x="570.751953"/>
      <use xlink:href="#DejaVuSans-50" x="602.539062"/>
      <use xlink:href="#DejaVuSans-61" x="658.341797"/>
      <use xlink:href="#DejaVuSans-79" x="719.621094"/>
      <use xlink:href="#DejaVuSans-6c" x="778.800781"/>
      <use xlink:href="#DejaVuSans-6f" x="806.583984"/>
      <use xlink:href="#DejaVuSans-61" x="867.765625"/>
      <use xlink:href="#DejaVuSans-64" x="929.044922"/>
      <use xlink:href="#DejaVuSans-20" x="992.521484"/>
      <use xlink:href="#DejaVuSans-4d" x="1024.308594"/>
      <use xlink:href="#DejaVuSans-61" x="1110.587891"/>
      <use xlink:href="#DejaVuSans-73" x="1171.867188"/>
      <use xlink:href="#DejaVuSans-73" x="1223.966797"/>
      <use xlink:href="#DejaVuSans-20" x="1276.066406"/>
      <use xlink:href="#DejaVuSans-28" x="1307.853516"/>
      <use xlink:href="#DejaVuSans-6b" x="1346.867188"/>
      <use xlink:href="#DejaVuSans-67" x="1404.777344"/>
      <use xlink:href="#DejaVuSans-29" x="1468.253906"/>
     </g>
    </g>
   </g>
   <g id="line2d_29">
    <path d="M 106.728679 455.7 
L 127.839534 455.7 
L 127.839534 453.428337 
L 186.300363 453.428337 
L 186.300363 452.839125 
L 226.898161 452.839125 
L 226.898161 451.513988 
L 249.632927 451.513988 
L 249.632927 450.259841 
L 301.598109 450.259841 
L 301.598109 450.259841 
L 324.332876 450.259841 
L 324.332876 448.823488 
L 355.187202 448.823488 
L 355.187202 448.182689 
L 387.66544 448.182689 
L 387.66544 447.314488 
L 390.913264 447.314488 
L 390.913264 445.042826 
L 407.152383 445.042826 
L 407.152383 443.44296 
L 472.10886 443.44296 
L 472.10886 442.659709 
L 488.347979 442.659709 
L 488.347979 442.547309 
L 511.082746 442.547309 
L 511.082746 441.366518 
L 563.047927 441.366518 
L 563.047927 439.094855 
L 566.295751 439.094855 
L 566.295751 437.817045 
L 597.150078 437.817045 
L 597.150078 436.988835 
L 671.850026 436.988835 
L 671.850026 436.467062 
L 684.841321 436.467062 
L 684.841321 434.195399 
L 697.832617 434.195399 
L 697.832617 434.195399 
" clip-path="url(#pc5e36e1dc0)" style="fill: none; stroke: #808080; stroke-width: 1.5; stroke-linecap: square"/>
   </g>
   <g id="line2d_30">
    <path d="M 106.728679 455.7 
L 118.096062 455.7 
L 118.096062 455.7 
L 155.446036 455.7 
L 155.446036 454.699049 
L 165.189508 454.699049 
L 165.189508 454.403259 
L 191.172098 454.403259 
L 191.172098 453.894501 
L 210.659041 453.894501 
L 210.659041 452.452942 
L 249.632927 452.452942 
L 249.632927 450.181279 
L 254.504663 450.181279 
L 254.504663 449.554916 
L 280.487254 449.554916 
L 280.487254 449.469255 
L 317.837228 449.469255 
L 317.837228 448.617382 
L 335.700259 448.617382 
L 335.700259 447.088742 
L 356.811114 447.088742 
L 356.811114 445.814718 
L 397.408912 445.814718 
L 397.408912 445.176522 
L 434.758886 445.176522 
L 434.758886 443.502354 
L 439.630622 443.502354 
L 439.630622 441.230692 
L 460.741477 441.230692 
L 460.741477 439.858229 
L 515.954482 439.858229 
L 515.954482 438.18761 
L 561.424016 438.18761 
L 561.424016 437.477715 
L 623.132668 437.477715 
L 623.132668 436.223568 
L 652.363083 436.223568 
L 652.363083 435.277042 
L 655.610907 435.277042 
L 655.610907 434.685463 
L 684.841321 434.685463 
L 684.841321 433.644285 
L 697.832617 433.644285 
L 697.832617 433.644285 
" clip-path="url(#pc5e36e1dc0)" style="fill: none; stroke: #90ee90; stroke-width: 1.5; stroke-linecap: square"/>
   </g>
   <g id="line2d_31">
    <path d="M 106.728679 455.7 
L 122.967798 455.7 
L 122.967798 453.428337 
L 191.172098 453.428337 
L 191.172098 452.280674 
L 204.163394 452.280674 
L 204.163394 449.428081 
L 269.11987 449.428081 
L 269.11987 447.898258 
L 306.469845 447.898258 
L 306.469845 447.307863 
L 338.948083 447.307863 
L 338.948083 444.084941 
L 369.802409 444.084941 
L 369.802409 443.091089 
L 390.913264 443.091089 
L 390.913264 442.215552 
L 439.630622 442.215552 
L 439.630622 441.678872 
L 459.117565 441.678872 
L 459.117565 440.140767 
L 616.637021 440.140767 
L 616.637021 436.449315 
L 655.610907 436.449315 
L 655.610907 435.83005 
L 675.09785 435.83005 
L 675.09785 434.184041 
L 697.832617 434.184041 
L 697.832617 434.184041 
" clip-path="url(#pc5e36e1dc0)" style="fill: none; stroke: #add8e6; stroke-width: 1.5; stroke-linecap: square"/>
   </g>
   <g id="line2d_32">
    <path d="M 106.728679 455.7 
L 116.47215 455.7 
L 116.47215 452.008548 
L 135.959093 452.008548 
L 135.959093 449.157138 
L 152.198212 449.157138 
L 152.198212 445.465686 
L 183.052539 445.465686 
L 183.052539 441.774234 
L 213.906865 441.774234 
L 213.906865 441.306414 
L 231.769896 441.306414 
L 231.769896 437.614962 
L 288.606813 437.614962 
L 288.606813 433.92351 
L 350.315466 433.92351 
L 350.315466 430.958517 
L 358.435026 430.958517 
L 358.435026 427.267065 
L 373.050233 427.267065 
L 373.050233 423.620573 
L 400.656736 423.620573 
L 400.656736 422.600454 
L 433.134974 422.600454 
L 433.134974 421.298981 
L 462.365389 421.298981 
L 462.365389 417.765599 
L 480.22842 417.765599 
L 480.22842 414.112008 
L 499.715363 414.112008 
L 499.715363 413.371351 
L 506.21101 413.371351 
L 506.21101 409.679899 
L 559.800104 409.679899 
L 559.800104 405.988447 
L 579.287047 405.988447 
L 579.287047 402.296995 
L 589.030518 402.296995 
L 589.030518 398.605543 
L 608.517461 398.605543 
L 608.517461 397.585425 
L 626.380492 397.585425 
L 626.380492 394.62753 
L 634.500052 394.62753 
L 634.500052 394.345466 
L 640.995699 394.345466 
L 640.995699 390.654014 
L 658.858731 390.654014 
L 658.858731 389.950745 
L 670.226114 389.950745 
L 670.226114 388.294324 
L 679.969585 388.294324 
L 679.969585 388.294324 
L 699.456528 388.294324 
L 699.456528 388.294324 
" clip-path="url(#pc5e36e1dc0)" style="fill: none; stroke: #ffc0cb; stroke-width: 1.5; stroke-linecap: square"/>
   </g>
   <g id="line2d_33">
    <path d="M 106.728679 455.7 
L 118.096062 455.7 
L 118.096062 454.87179 
L 137.583005 454.87179 
L 137.583005 451.180338 
L 144.078653 451.180338 
L 144.078653 449.99718 
L 161.941684 449.99718 
L 161.941684 446.305728 
L 181.428627 446.305728 
L 181.428627 442.614276 
L 207.411218 442.614276 
L 207.411218 438.922824 
L 218.778601 438.922824 
L 218.778601 435.231372 
L 223.650337 435.231372 
L 223.650337 431.53992 
L 239.889456 431.53992 
L 239.889456 427.848468 
L 262.624223 427.848468 
L 262.624223 424.157016 
L 288.606813 424.157016 
L 288.606813 421.080806 
L 298.350285 421.080806 
L 298.350285 417.389354 
L 306.469845 417.389354 
L 306.469845 413.697903 
L 314.589404 413.697903 
L 314.589404 410.006451 
L 324.332876 410.006451 
L 324.332876 406.35286 
L 342.195907 406.35286 
L 342.195907 402.661408 
L 355.187202 402.661408 
L 355.187202 401.873898 
L 360.058938 401.873898 
L 360.058938 400.217477 
L 377.921969 400.217477 
L 377.921969 399.192626 
L 399.032824 399.192626 
L 399.032824 399.192626 
L 496.467539 399.192626 
L 496.467539 398.672037 
L 522.45013 398.672037 
L 522.45013 395.534303 
L 525.697953 395.534303 
L 525.697953 392.571912 
L 616.637021 392.571912 
L 616.637021 389.495702 
L 619.884845 389.495702 
L 619.884845 385.795968 
L 637.747876 385.795968 
L 637.747876 385.64831 
L 650.739171 385.64831 
L 650.739171 382.217153 
L 662.106554 382.217153 
L 662.106554 382.140248 
L 676.721762 382.140248 
L 676.721762 378.448796 
L 678.345674 378.448796 
L 678.345674 377.383954 
L 681.593497 377.383954 
L 681.593497 376.676662 
L 697.832617 376.676662 
L 697.832617 376.676662 
" clip-path="url(#pc5e36e1dc0)" style="fill: none; stroke: #800080; stroke-width: 1.5; stroke-linecap: square"/>
   </g>
   <g id="line2d_34">
    <path d="M 106.728679 455.7 
L 114.848238 455.7 
L 114.848238 452.268843 
L 126.215622 452.268843 
L 126.215622 452.268843 
L 135.959093 452.268843 
L 135.959093 448.837685 
L 155.446036 448.837685 
L 155.446036 448.315913 
L 158.69386 448.315913 
L 158.69386 448.315913 
L 160.317772 448.315913 
L 160.317772 444.884756 
L 189.548187 444.884756 
L 189.548187 441.666567 
L 196.043834 441.666567 
L 196.043834 438.176252 
L 205.787306 438.176252 
L 205.787306 434.887073 
L 215.530777 434.887073 
L 215.530777 431.536371 
L 231.769896 431.536371 
L 231.769896 427.691108 
L 252.880751 427.691108 
L 252.880751 427.691108 
L 264.248135 427.691108 
L 264.248135 424.614898 
L 278.863342 424.614898 
L 278.863342 424.614898 
L 285.35899 424.614898 
L 285.35899 420.769636 
L 295.102461 420.769636 
L 295.102461 417.693426 
L 298.350285 417.693426 
L 298.350285 413.848164 
L 309.717668 413.848164 
L 309.717668 410.002901 
L 321.085052 410.002901 
L 321.085052 406.157639 
L 322.708964 406.157639 
L 322.708964 402.312376 
L 329.204611 402.312376 
L 329.204611 398.467114 
L 340.571995 398.467114 
L 340.571995 398.467114 
L 363.306762 398.467114 
L 363.306762 397.496924 
L 377.921969 397.496924 
L 377.921969 393.651662 
L 379.545881 393.651662 
L 379.545881 392.705136 
L 381.169793 392.705136 
L 381.169793 392.539494 
L 397.408912 392.539494 
L 397.408912 391.711283 
L 410.400207 391.711283 
L 410.400207 387.866021 
L 416.895855 387.866021 
L 416.895855 384.529516 
L 423.391503 384.529516 
L 423.391503 383.898183 
L 426.639326 383.898183 
L 426.639326 380.052921 
L 434.758886 380.052921 
L 434.758886 376.716416 
L 438.00671 376.716416 
L 438.00671 372.871154 
L 455.869741 372.871154 
L 455.869741 372.710481 
L 465.613212 372.710481 
L 465.613212 368.924377 
L 468.861036 368.924377 
L 468.861036 365.587872 
L 480.22842 365.587872 
L 480.22842 361.742609 
L 494.843627 361.742609 
L 494.843627 357.790863 
L 499.715363 357.790863 
L 499.715363 354.430695 
L 507.834922 354.430695 
L 507.834922 350.64459 
L 517.578394 350.64459 
L 517.578394 347.819683 
L 530.569689 347.819683 
L 530.569689 343.867937 
L 538.689249 343.867937 
L 538.689249 340.058169 
L 556.55228 340.058169 
L 556.55228 336.981959 
L 556.55228 336.981959 
L 556.55228 333.172191 
L 561.424016 333.172191 
L 561.424016 331.432949 
L 572.791399 331.432949 
L 572.791399 330.368107 
L 580.910959 330.368107 
L 580.910959 326.416361 
L 593.902254 326.416361 
L 593.902254 322.535604 
L 600.397902 322.535604 
L 600.397902 321.648235 
L 603.645725 321.648235 
L 603.645725 320.583393 
L 618.260933 320.583393 
L 618.260933 319.021625 
L 636.123964 319.021625 
L 636.123964 317.720152 
L 640.995699 317.720152 
L 640.995699 316.885316 
L 660.482642 316.885316 
L 660.482642 315.465527 
L 665.354378 315.465527 
L 665.354378 315.228895 
L 673.473938 315.228895 
L 673.473938 314.708306 
L 673.473938 314.708306 
L 673.473938 313.738116 
L 675.09785 313.738116 
L 675.09785 309.78637 
L 692.960881 309.78637 
L 692.960881 305.834623 
L 696.208705 305.834623 
L 696.208705 305.739971 
L 697.832617 305.739971 
L 697.832617 305.739971 
" clip-path="url(#pc5e36e1dc0)" style="fill: none; stroke: #ffa500; stroke-width: 1.5; stroke-linecap: square"/>
   </g>
   <g id="line2d_35">
    <path d="M 106.728679 455.7 
L 121.343886 455.7 
L 121.343886 454.280211 
L 129.463446 454.280211 
L 129.463446 453.392843 
L 134.335181 453.392843 
L 134.335181 452.363022 
L 135.959093 452.363022 
L 135.959093 448.813549 
L 147.326477 448.813549 
L 147.326477 444.69616 
L 155.446036 444.69616 
L 155.446036 441.099361 
L 158.69386 441.099361 
L 158.69386 437.194941 
L 166.81342 437.194941 
L 166.81342 436.213866 
L 174.932979 436.213866 
L 174.932979 432.167467 
L 183.052539 432.167467 
L 183.052539 428.405026 
L 184.676451 428.405026 
L 184.676451 427.110651 
L 199.291658 427.110651 
L 199.291658 423.490189 
L 204.163394 423.490189 
L 204.163394 420.413979 
L 205.787306 420.413979 
L 205.787306 416.651537 
L 215.530777 416.651537 
L 215.530777 415.231748 
L 225.274249 415.231748 
L 225.274249 414.556875 
L 228.522073 414.556875 
L 228.522073 409.067023 
L 239.889456 409.067023 
L 239.889456 404.949635 
L 248.009016 404.949635 
L 248.009016 400.832246 
L 262.624223 400.832246 
L 262.624223 399.509949 
L 282.111166 399.509949 
L 282.111166 395.889486 
L 295.102461 395.889486 
L 295.102461 392.552982 
L 296.726373 392.552982 
L 296.726373 391.582793 
L 301.598109 391.582793 
L 301.598109 390.068351 
L 306.469845 390.068351 
L 306.469845 385.950962 
L 316.213316 385.950962 
L 316.213316 382.188521 
L 322.708964 382.188521 
L 322.708964 378.071132 
L 330.828523 378.071132 
L 330.828523 374.261364 
L 332.452435 374.261364 
L 332.452435 372.699596 
L 334.076347 372.699596 
L 334.076347 369.623386 
L 343.819819 369.623386 
L 343.819819 368.558544 
L 350.315466 368.558544 
L 350.315466 364.677787 
L 356.811114 364.677787 
L 356.811114 360.868019 
L 358.435026 360.868019 
L 358.435026 360.086189 
L 369.802409 360.086189 
L 369.802409 356.205432 
L 369.802409 356.205432 
L 379.545881 356.205432 
L 379.545881 355.121659 
L 386.041528 355.121659 
L 386.041528 351.690502 
L 387.66544 351.690502 
L 387.66544 347.573113 
L 400.656736 347.573113 
L 400.656736 347.061989 
L 410.400207 347.061989 
L 410.400207 343.536179 
L 415.271943 343.536179 
L 415.271943 339.726411 
L 425.015415 339.726411 
L 425.015415 335.774665 
L 431.511062 335.774665 
L 431.511062 332.935086 
L 438.00671 332.935086 
L 438.00671 329.125319 
L 444.502358 329.125319 
L 444.502358 325.315551 
L 446.126269 325.315551 
L 446.126269 323.138541 
L 454.245829 323.138541 
L 454.245829 321.940475 
L 460.741477 321.940475 
L 460.741477 318.130708 
L 462.365389 318.130708 
L 462.365389 315.291129 
L 467.237124 315.291129 
L 467.237124 311.481362 
L 476.980596 311.481362 
L 476.980596 307.671594 
L 485.100155 307.671594 
L 485.100155 304.051131 
L 491.595803 304.051131 
L 491.595803 300.974921 
L 493.219715 300.974921 
L 493.219715 297.165154 
L 501.339275 297.165154 
L 501.339275 293.355386 
L 506.21101 293.355386 
L 506.21101 289.734923 
L 514.33057 289.734923 
L 514.33057 285.925156 
L 519.202306 285.925156 
L 519.202306 282.304693 
L 525.697953 282.304693 
L 525.697953 278.494926 
L 532.193601 278.494926 
L 532.193601 274.685158 
L 538.689249 274.685158 
L 538.689249 270.87539 
L 540.313161 270.87539 
L 540.313161 267.254928 
L 548.43272 267.254928 
L 548.43272 263.44516 
L 556.55228 263.44516 
L 556.55228 259.635392 
L 563.047927 259.635392 
L 563.047927 256.01493 
L 569.543575 256.01493 
L 569.543575 251.588027 
L 577.663135 251.588027 
L 577.663135 247.778259 
L 582.53487 247.778259 
L 582.53487 244.157797 
L 584.158782 244.157797 
L 584.158782 240.182387 
L 595.526166 240.182387 
L 595.526166 236.372619 
L 597.150078 236.372619 
L 597.150078 232.397209 
L 605.269637 232.397209 
L 605.269637 228.4218 
L 611.765285 228.4218 
L 611.765285 224.44639 
L 615.013109 224.44639 
L 615.013109 222.192474 
L 618.260933 222.192474 
L 618.260933 221.222285 
L 628.004404 221.222285 
L 628.004404 217.246875 
L 628.004404 217.246875 
L 631.252228 217.246875 
L 631.252228 213.437108 
L 634.500052 213.437108 
L 634.500052 209.461698 
L 644.243523 209.461698 
L 644.243523 205.486288 
L 649.115259 205.486288 
L 649.115259 205.296983 
L 652.363083 205.296983 
L 652.363083 201.321573 
L 658.858731 201.321573 
L 658.858731 197.346163 
L 660.482642 197.346163 
L 660.482642 193.536396 
L 678.345674 193.536396 
L 678.345674 189.560986 
L 684.841321 189.560986 
L 684.841321 185.585576 
L 686.465233 185.585576 
L 686.465233 184.733702 
L 694.584793 184.733702 
L 694.584793 179.255682 
L 697.832617 179.255682 
L 697.832617 179.255682 
" clip-path="url(#pc5e36e1dc0)" style="fill: none; stroke: #0000ff; stroke-width: 1.5; stroke-linecap: square"/>
   </g>
   <g id="line2d_36">
    <path d="M 106.728679 455.7 
L 109.976503 455.7 
L 109.976503 451.298653 
L 116.47215 451.298653 
L 116.47215 447.252254 
L 127.839534 447.252254 
L 127.839534 443.300508 
L 129.463446 443.300508 
L 129.463446 439.254108 
L 134.335181 439.254108 
L 134.335181 436.177898 
L 144.078653 436.177898 
L 144.078653 432.226152 
L 152.198212 432.226152 
L 152.198212 424.228006 
L 153.822124 424.228006 
L 153.822124 423.346317 
L 168.437332 423.346317 
L 168.437332 422.945463 
L 171.685155 422.945463 
L 171.685155 418.993716 
L 179.804715 418.993716 
L 179.804715 414.585034 
L 187.924275 414.585034 
L 187.924275 413.638508 
L 192.79601 413.638508 
L 192.79601 409.686761 
L 196.043834 409.686761 
L 196.043834 405.54571 
L 202.539482 405.54571 
L 202.539482 401.49931 
L 209.03513 401.49931 
L 209.03513 394.376701 
L 218.778601 394.376701 
L 218.778601 390.330302 
L 220.402513 390.330302 
L 220.402513 386.283903 
L 228.522073 386.283903 
L 228.522073 382.237503 
L 233.393808 382.237503 
L 233.393808 378.380409 
L 236.641632 378.380409 
L 236.641632 377.736535 
L 241.513368 377.736535 
L 241.513368 373.690136 
L 243.13728 373.690136 
L 243.13728 369.643736 
L 251.256839 369.643736 
L 251.256839 368.460579 
L 252.880751 368.460579 
L 252.880751 364.414179 
L 256.128575 364.414179 
L 256.128575 360.462433 
L 261.000311 360.462433 
L 261.000311 356.416034 
L 264.248135 356.416034 
L 264.248135 352.440624 
L 264.248135 352.440624 
L 269.11987 352.440624 
L 269.11987 348.394225 
L 270.743782 348.394225 
L 270.743782 348.110267 
L 273.991606 348.110267 
L 273.991606 344.063867 
L 280.487254 344.063867 
L 280.487254 340.017468 
L 282.111166 340.017468 
L 282.111166 335.971069 
L 290.230725 335.971069 
L 290.230725 331.92467 
L 298.350285 331.92467 
L 298.350285 327.49966 
L 304.845933 327.49966 
L 304.845933 327.144713 
L 306.469845 327.144713 
L 306.469845 323.098313 
L 311.34158 323.098313 
L 311.34158 319.051914 
L 314.589404 319.051914 
L 314.589404 315.005515 
L 317.837228 315.005515 
L 317.837228 311.148421 
L 322.708964 311.148421 
L 322.708964 307.102022 
L 324.332876 307.102022 
L 324.332876 303.244928 
L 330.828523 303.244928 
L 330.828523 299.198528 
L 338.948083 299.198528 
L 338.948083 295.152129 
L 340.571995 295.152129 
L 340.571995 291.10573 
L 347.067642 291.10573 
L 347.067642 286.503247 
L 353.56329 286.503247 
L 353.56329 282.456847 
L 360.058938 282.456847 
L 360.058938 278.599753 
L 364.930674 278.599753 
L 364.930674 270.790913 
L 382.793705 270.790913 
L 382.793705 266.933819 
L 384.417617 266.933819 
L 384.417617 265.750661 
L 389.289352 265.750661 
L 389.289352 261.798914 
L 390.913264 261.798914 
L 390.913264 257.94182 
L 392.537176 257.94182 
L 392.537176 256.758663 
L 395.785 256.758663 
L 395.785 252.712263 
L 405.528472 252.712263 
L 405.528472 248.855169 
L 413.648031 248.855169 
L 413.648031 247.849485 
L 444.502358 247.849485 
L 444.502358 243.803086 
L 446.126269 243.803086 
L 446.126269 235.852266 
L 454.245829 235.852266 
L 454.245829 231.805867 
L 457.493653 231.805867 
L 457.493653 226.84678 
L 467.237124 226.84678 
L 467.237124 222.94236 
L 470.484948 222.94236 
L 470.484948 217.185115 
L 475.356684 217.185115 
L 475.356684 216.830167 
L 483.476244 216.830167 
L 483.476244 212.878421 
L 496.467539 212.878421 
L 496.467539 208.926674 
L 501.339275 208.926674 
L 501.339275 201.023181 
L 509.458834 201.023181 
L 509.458834 197.071434 
L 517.578394 197.071434 
L 517.578394 193.995224 
L 520.826218 193.995224 
L 520.826218 192.220488 
L 522.45013 192.220488 
L 522.45013 188.268741 
L 528.945777 188.268741 
L 528.945777 187.890131 
L 533.817513 187.890131 
L 533.817513 184.033037 
L 541.937073 184.033037 
L 541.937073 180.175942 
L 546.808808 180.175942 
L 546.808808 177.099733 
L 561.424016 177.099733 
L 561.424016 176.837545 
L 572.791399 176.837545 
L 572.791399 175.402375 
L 574.415311 175.402375 
L 574.415311 167.498881 
L 579.287047 167.498881 
L 579.287047 163.641787 
L 582.53487 163.641787 
L 582.53487 162.942778 
L 587.406606 162.942778 
L 587.406606 158.896378 
L 592.278342 158.896378 
L 592.278342 154.944632 
L 598.77399 154.944632 
L 598.77399 147.041139 
L 608.517461 147.041139 
L 608.517461 146.387562 
L 611.765285 146.387562 
L 611.765285 142.341163 
L 615.013109 142.341163 
L 615.013109 138.484069 
L 618.260933 138.484069 
L 618.260933 133.420154 
L 623.132668 133.420154 
L 623.132668 125.422008 
L 628.004404 125.422008 
L 628.004404 124.475482 
L 629.628316 124.475482 
L 629.628316 119.50622 
L 634.500052 119.50622 
L 634.500052 115.365168 
L 639.371788 115.365168 
L 639.371788 111.508074 
L 640.995699 111.508074 
L 640.995699 107.461675 
L 644.243523 107.461675 
L 644.243523 103.320623 
L 649.115259 103.320623 
L 649.115259 95.369803 
L 655.610907 95.369803 
L 655.610907 91.228751 
L 657.234819 91.228751 
L 657.234819 85.715237 
L 662.106554 85.715237 
L 662.106554 81.668837 
L 670.226114 81.668837 
L 670.226114 77.717091 
L 676.721762 77.717091 
L 676.721762 75.883196 
L 683.217409 75.883196 
L 683.217409 75.693891 
L 686.465233 75.693891 
L 686.465233 71.789471 
L 696.208705 71.789471 
L 696.208705 67.459114 
L 699.456528 67.459114 
L 699.456528 67.459114 
L 699.456528 63.554693 
L 699.456528 63.554693 
" clip-path="url(#pc5e36e1dc0)" style="fill: none; stroke: #008000; stroke-width: 1.5; stroke-linecap: square"/>
   </g>
   <g id="line2d_37">
    <path d="M 106.728679 455.7 
L 111.600415 455.7 
L 111.600415 454.516842 
L 114.848238 454.516842 
L 114.848238 450.37579 
L 118.096062 450.37579 
L 118.096062 446.47137 
L 121.343886 446.47137 
L 121.343886 446.47137 
L 121.343886 442.56695 
L 126.215622 442.56695 
L 126.215622 438.662529 
L 127.839534 438.662529 
L 127.839534 438.189266 
L 129.463446 438.189266 
L 129.463446 437.593665 
L 139.206917 437.593665 
L 139.206917 430.305414 
L 144.078653 430.305414 
L 144.078653 426.259014 
L 148.950389 426.259014 
L 148.950389 422.354594 
L 153.822124 422.354594 
L 153.822124 420.911142 
L 157.069948 420.911142 
L 157.069948 416.959395 
L 161.941684 416.959395 
L 161.941684 412.700027 
L 168.437332 412.700027 
L 168.437332 408.795607 
L 173.309067 408.795607 
L 173.309067 400.844787 
L 179.804715 400.844787 
L 179.804715 396.940367 
L 184.676451 396.940367 
L 184.676451 392.893968 
L 189.548187 392.893968 
L 189.548187 388.847569 
L 192.79601 388.847569 
L 192.79601 384.872159 
L 199.291658 384.872159 
L 199.291658 384.872159 
L 199.291658 380.967739 
L 205.787306 380.967739 
L 205.787306 377.063318 
L 220.402513 377.063318 
L 220.402513 376.883951 
L 222.026425 376.883951 
L 222.026425 372.979531 
L 223.650337 372.979531 
L 223.650337 369.903321 
L 225.274249 369.903321 
L 225.274249 369.903321 
L 225.274249 365.856922 
L 230.145984 365.856922 
L 230.145984 361.810523 
L 243.13728 361.810523 
L 243.13728 358.142734 
L 251.256839 358.142734 
L 251.256839 354.332966 
L 252.880751 354.332966 
L 252.880751 351.256756 
L 257.752487 351.256756 
L 257.752487 347.588967 
L 261.000311 347.588967 
L 261.000311 343.7792 
L 262.624223 343.7792 
L 262.624223 340.111411 
L 272.367694 340.111411 
L 272.367694 336.206991 
L 273.991606 336.206991 
L 273.991606 332.539202 
L 285.35899 332.539202 
L 285.35899 331.824338 
L 291.854637 331.824338 
L 291.854637 328.01457 
L 296.726373 328.01457 
L 296.726373 320.300382 
L 298.350285 320.300382 
L 298.350285 316.253983 
L 303.222021 316.253983 
L 303.222021 312.444215 
L 306.469845 312.444215 
L 306.469845 308.498384 
L 311.34158 308.498384 
L 311.34158 304.688617 
L 316.213316 304.688617 
L 316.213316 297.341207 
L 321.085052 297.341207 
L 321.085052 289.993798 
L 322.708964 289.993798 
L 322.708964 286.184031 
L 325.956788 286.184031 
L 325.956788 282.646389 
L 334.076347 282.646389 
L 334.076347 278.59999 
L 337.324171 278.59999 
L 337.324171 274.932201 
L 338.948083 274.932201 
L 338.948083 270.885802 
L 343.819819 270.885802 
L 343.819819 266.74475 
L 343.819819 266.74475 
L 345.443731 266.74475 
L 345.443731 263.076961 
L 348.691554 263.076961 
L 348.691554 262.047614 
L 350.315466 262.047614 
L 350.315466 258.379825 
L 355.187202 258.379825 
L 355.187202 254.333426 
L 356.811114 254.333426 
L 356.811114 250.665637 
L 361.68285 250.665637 
L 361.68285 249.151195 
L 363.306762 249.151195 
L 363.306762 245.613554 
L 366.554585 245.613554 
L 366.554585 241.567155 
L 371.426321 241.567155 
L 371.426321 233.983114 
L 377.921969 233.983114 
L 377.921969 230.445473 
L 379.545881 230.445473 
L 379.545881 226.635705 
L 387.66544 226.635705 
L 387.66544 222.967916 
L 387.66544 222.967916 
L 390.913264 222.967916 
L 390.913264 216.223917 
L 395.785 216.223917 
L 395.785 209.018487 
L 400.656736 209.018487 
L 400.656736 208.119287 
L 402.280648 208.119287 
L 402.280648 204.451498 
L 412.024119 204.451498 
L 412.024119 200.641731 
L 420.143679 200.641731 
L 420.143679 199.695205 
L 425.015415 199.695205 
L 425.015415 192.659202 
L 429.88715 192.659202 
L 429.88715 188.518151 
L 434.758886 188.518151 
L 434.758886 187.713603 
L 436.382798 187.713603 
L 436.382798 187.495902 
L 441.254534 187.495902 
L 441.254534 183.686135 
L 442.878446 183.686135 
L 442.878446 179.545083 
L 447.750181 179.545083 
L 447.750181 175.735315 
L 449.374093 175.735315 
L 449.374093 172.408276 
L 450.998005 172.408276 
L 450.998005 169.332066 
L 455.869741 169.332066 
L 455.869741 165.522298 
L 467.237124 165.522298 
L 467.237124 162.023937 
L 472.10886 162.023937 
L 472.10886 154.073118 
L 478.604508 154.073118 
L 478.604508 149.932066 
L 485.100155 149.932066 
L 485.100155 144.610223 
L 488.347979 144.610223 
L 488.347979 144.06597 
L 491.595803 144.06597 
L 491.595803 139.95568 
L 493.219715 139.95568 
L 493.219715 136.145913 
L 494.843627 136.145913 
L 494.843627 132.336145 
L 498.091451 132.336145 
L 498.091451 128.195093 
L 499.715363 128.195093 
L 499.715363 124.385325 
L 504.587098 124.385325 
L 504.587098 116.434506 
L 507.834922 116.434506 
L 507.834922 112.624738 
L 509.458834 112.624738 
L 509.458834 108.483686 
L 519.202306 108.483686 
L 519.202306 106.63796 
L 520.826218 106.63796 
L 520.826218 102.496908 
L 522.45013 102.496908 
L 522.45013 101.313751 
L 528.945777 101.313751 
L 528.945777 97.503983 
L 530.569689 97.503983 
L 530.569689 93.362931 
L 533.817513 93.362931 
L 533.817513 89.553164 
L 538.689249 89.553164 
L 538.689249 89.203659 
L 540.313161 89.203659 
L 540.313161 85.393891 
L 541.937073 85.393891 
L 541.937073 81.252839 
L 546.808808 81.252839 
L 546.808808 77.443071 
L 553.304456 77.443071 
L 553.304456 73.633304 
L 559.800104 73.633304 
L 559.800104 69.823536 
L 561.424016 69.823536 
L 561.424016 66.013768 
L 569.543575 66.013768 
L 569.543575 62.227664 
L 571.167487 62.227664 
L 571.167487 58.729303 
L 574.415311 58.729303 
L 574.415311 54.919535 
L 579.287047 54.919535 
L 579.287047 54.919535 
L 579.287047 47.3 
L 579.287047 47.3 
" clip-path="url(#pc5e36e1dc0)" style="fill: none; stroke: #ff0000; stroke-width: 1.5; stroke-linecap: square"/>
   </g>
   <g id="patch_3">
    <path d="M 82.37 476.12 
L 82.37 26.88 
" style="fill: none; stroke: #000000; stroke-width: 0.8; stroke-linejoin: miter; stroke-linecap: square"/>
   </g>
   <g id="patch_4">
    <path d="M 709.2 476.12 
L 709.2 26.88 
" style="fill: none; stroke: #000000; stroke-width: 0.8; stroke-linejoin: miter; stroke-linecap: square"/>
   </g>
   <g id="patch_5">
    <path d="M 82.37 476.12 
L 709.2 476.12 
" style="fill: none; stroke: #000000; stroke-width: 0.8; stroke-linejoin: miter; stroke-linecap: square"/>
   </g>
   <g id="patch_6">
    <path d="M 82.37 26.88 
L 709.2 26.88 
" style="fill: none; stroke: #000000; stroke-width: 0.8; stroke-linejoin: miter; stroke-linecap: square"/>
   </g>
   <g id="text_16">
    <!-- Cumulative Payload Mass to Orbit By Year -->
    <g transform="translate(270.179688 20.88) scale(0.12 -0.12)">
     <defs>
      <path id="DejaVuSans-4f" d="M 2522 4238 
Q 1834 4238 1429 3725 
Q 1025 3213 1025 2328 
Q 1025 1447 1429 934 
Q 1834 422 2522 422 
Q 3209 422 3611 934 
Q 4013 1447 4013 2328 
Q 4013 3213 3611 3725 
Q 3209 4238 2522 4238 
z
M 2522 4750 
Q 3503 4750 4090 4092 
Q 4678 3434 4678 2328 
Q 4678 1225 4090 567 
Q 3503 -91 2522 -91 
Q 1538 -91 948 565 
Q 359 1222 359 2328 
Q 359 3434 948 4092 
Q 1538 4750 2522 4750 
z
" transform="scale(0.015625)"/>
      <path id="DejaVuSans-62" d="M 3116 1747 
Q 3116 2381 2855 2742 
Q 2594 3103 2138 3103 
Q 1681 3103 1420 2742 
Q 1159 2381 1159 1747 
Q 1159 1113 1420 752 
Q 1681 391 2138 391 
Q 2594 391 2855 752 
Q 3116 1113 3116 1747 
z
M 1159 2969 
Q 1341 3281 1617 3432 
Q 1894 3584 2278 3584 
Q 2916 3584 3314 3078 
Q 3713 2572 3713 1747 
Q 3713 922 3314 415 
Q 2916 -91 2278 -91 
Q 1894 -91 1617 61 
Q 1341 213 1159 525 
L 1159 0 
L 581 0 
L 581 4863 
L 1159 4863 
L 1159 2969 
z
" transform="scale(0.015625)"/>
      <path id="DejaVuSans-42" d="M 1259 2228 
L 1259 519 
L 2272 519 
Q 2781 519 3026 730 
Q 3272 941 3272 1375 
Q 3272 1813 3026 2020 
Q 2781 2228 2272 2228 
L 1259 2228 
z
M 1259 4147 
L 1259 2741 
L 2194 2741 
Q 2656 2741 2882 2914 
Q 3109 3088 3109 3444 
Q 3109 3797 2882 3972 
Q 2656 4147 2194 4147 
L 1259 4147 
z
M 628 4666 
L 2241 4666 
Q 2963 4666 3353 4366 
Q 3744 4066 3744 3513 
Q 3744 3084 3544 2831 
Q 3344 2578 2956 2516 
Q 3422 2416 3680 2098 
Q 3938 1781 3938 1306 
Q 3938 681 3513 340 
Q 3088 0 2303 0 
L 628 0 
L 628 4666 
z
" transform="scale(0.015625)"/>
      <path id="DejaVuSans-59" d="M -13 4666 
L 666 4666 
L 1959 2747 
L 3244 4666 
L 3922 4666 
L 2272 2222 
L 2272 0 
L 1638 0 
L 1638 2222 
L -13 4666 
z
" transform="scale(0.015625)"/>
     </defs>
     <use xlink:href="#DejaVuSans-43"/>
     <use xlink:href="#DejaVuSans-75" x="69.824219"/>
     <use xlink:href="#DejaVuSans-6d" x="133.203125"/>
     <use xlink:href="#DejaVuSans-75" x="230.615234"/>
     <use xlink:href="#DejaVuSans-6c" x="293.994141"/>
     <use xlink:href="#DejaVuSans-61" x="321.777344"/>
     <use xlink:href="#DejaVuSans-74" x="383.056641"/>
     <use xlink:href="#DejaVuSans-69" x="422.265625"/>
     <use xlink:href="#DejaVuSans-76" x="450.048828"/>
     <use xlink:href="#DejaVuSans-65" x="509.228516"/>
     <use xlink:href="#DejaVuSans-20" x="570.751953"/>
     <use xlink:href="#DejaVuSans-50" x="602.539062"/>
     <use xlink:href="#DejaVuSans-61" x="658.341797"/>
     <use xlink:href="#DejaVuSans-79" x="719.621094"/>
     <use xlink:href="#DejaVuSans-6c" x="778.800781"/>
     <use xlink:href="#DejaVuSans-6f" x="806.583984"/>
     <use xlink:href="#DejaVuSans-61" x="867.765625"/>
     <use xlink:href="#DejaVuSans-64" x="929.044922"/>
     <use xlink:href="#DejaVuSans-20" x="992.521484"/>
     <use xlink:href="#DejaVuSans-4d" x="1024.308594"/>
     <use xlink:href="#DejaVuSans-61" x="1110.587891"/>
     <use xlink:href="#DejaVuSans-73" x="1171.867188"/>
     <use xlink:href="#DejaVuSans-73" x="1223.966797"/>
     <use xlink:href="#DejaVuSans-20" x="1276.066406"/>
     <use xlink:href="#DejaVuSans-74" x="1307.853516"/>
     <use xlink:href="#DejaVuSans-6f" x="1347.0625"/>
     <use xlink:href="#DejaVuSans-20" x="1408.244141"/>
     <use xlink:href="#DejaVuSans-4f" x="1440.03125"/>
     <use xlink:href="#DejaVuSans-72" x="1518.742188"/>
     <use xlink:href="#DejaVuSans-62" x="1559.855469"/>
     <use xlink:href="#DejaVuSans-69" x="1623.332031"/>
     <use xlink:href="#DejaVuSans-74" x="1651.115234"/>
     <use xlink:href="#DejaVuSans-20" x="1690.324219"/>
     <use xlink:href="#DejaVuSans-42" x="1722.111328"/>
     <use xlink:href="#DejaVuSans-79" x="1790.714844"/>
     <use xlink:href="#DejaVuSans-20" x="1849.894531"/>
     <use xlink:href="#DejaVuSans-59" x="1881.681641"/>
     <use xlink:href="#DejaVuSans-65" x="1929.515625"/>
     <use xlink:href="#DejaVuSans-61" x="1991.039062"/>
     <use xlink:href="#DejaVuSans-72" x="2052.318359"/>
    </g>
   </g>
   <g id="legend_1">
    <g id="patch_7">
     <path d="M 89.37 181.66125 
L 146.82 181.66125 
Q 148.82 181.66125 148.82 179.66125 
L 148.82 33.88 
Q 148.82 31.88 146.82 31.88 
L 89.37 31.88 
Q 87.37 31.88 87.37 33.88 
L 87.37 179.66125 
Q 87.37 181.66125 89.37 181.66125 
z
" style="fill: #ffffff; opacity: 0.8; stroke: #cccccc; stroke-linejoin: miter"/>
    </g>
    <g id="text_17">
     <!-- Year -->
     <g transform="translate(107.5075 43.478437) scale(0.1 -0.1)">
      <use xlink:href="#DejaVuSans-59"/>
      <use xlink:href="#DejaVuSans-65" x="47.833984"/>
      <use xlink:href="#DejaVuSans-61" x="109.357422"/>
      <use xlink:href="#DejaVuSans-72" x="170.636719"/>
     </g>
    </g>
    <g id="line2d_38">
     <path d="M 91.37 54.656562 
L 101.37 54.656562 
L 101.37 54.656562 
L 111.37 54.656562 
L 111.37 54.656562 
" style="fill: none; stroke: #808080; stroke-width: 1.5; stroke-linecap: square"/>
    </g>
    <g id="text_18">
     <!-- 2017 -->
     <g transform="translate(119.37 58.156562) scale(0.1 -0.1)">
      <use xlink:href="#DejaVuSans-32"/>
      <use xlink:href="#DejaVuSans-30" x="63.623047"/>
      <use xlink:href="#DejaVuSans-31" x="127.246094"/>
      <use xlink:href="#DejaVuSans-37" x="190.869141"/>
     </g>
    </g>
    <g id="line2d_39">
     <path d="M 91.37 69.334687 
L 101.37 69.334687 
L 101.37 69.334687 
L 111.37 69.334687 
L 111.37 69.334687 
" style="fill: none; stroke: #90ee90; stroke-width: 1.5; stroke-linecap: square"/>
    </g>
    <g id="text_19">
     <!-- 2018 -->
     <g transform="translate(119.37 72.834687) scale(0.1 -0.1)">
      <defs>
       <path id="DejaVuSans-38" d="M 2034 2216 
Q 1584 2216 1326 1975 
Q 1069 1734 1069 1313 
Q 1069 891 1326 650 
Q 1584 409 2034 409 
Q 2484 409 2743 651 
Q 3003 894 3003 1313 
Q 3003 1734 2745 1975 
Q 2488 2216 2034 2216 
z
M 1403 2484 
Q 997 2584 770 2862 
Q 544 3141 544 3541 
Q 544 4100 942 4425 
Q 1341 4750 2034 4750 
Q 2731 4750 3128 4425 
Q 3525 4100 3525 3541 
Q 3525 3141 3298 2862 
Q 3072 2584 2669 2484 
Q 3125 2378 3379 2068 
Q 3634 1759 3634 1313 
Q 3634 634 3220 271 
Q 2806 -91 2034 -91 
Q 1263 -91 848 271 
Q 434 634 434 1313 
Q 434 1759 690 2068 
Q 947 2378 1403 2484 
z
M 1172 3481 
Q 1172 3119 1398 2916 
Q 1625 2713 2034 2713 
Q 2441 2713 2670 2916 
Q 2900 3119 2900 3481 
Q 2900 3844 2670 4047 
Q 2441 4250 2034 4250 
Q 1625 4250 1398 4047 
Q 1172 3844 1172 3481 
z
" transform="scale(0.015625)"/>
      </defs>
      <use xlink:href="#DejaVuSans-32"/>
      <use xlink:href="#DejaVuSans-30" x="63.623047"/>
      <use xlink:href="#DejaVuSans-31" x="127.246094"/>
      <use xlink:href="#DejaVuSans-38" x="190.869141"/>
     </g>
    </g>
    <g id="line2d_40">
     <path d="M 91.37 84.012812 
L 101.37 84.012812 
L 101.37 84.012812 
L 111.37 84.012812 
L 111.37 84.012812 
" style="fill: none; stroke: #add8e6; stroke-width: 1.5; stroke-linecap: square"/>
    </g>
    <g id="text_20">
     <!-- 2019 -->
     <g transform="translate(119.37 87.512812) scale(0.1 -0.1)">
      <defs>
       <path id="DejaVuSans-39" d="M 703 97 
L 703 672 
Q 941 559 1184 500 
Q 1428 441 1663 441 
Q 2288 441 2617 861 
Q 2947 1281 2994 2138 
Q 2813 1869 2534 1725 
Q 2256 1581 1919 1581 
Q 1219 1581 811 2004 
Q 403 2428 403 3163 
Q 403 3881 828 4315 
Q 1253 4750 1959 4750 
Q 2769 4750 3195 4129 
Q 3622 3509 3622 2328 
Q 3622 1225 3098 567 
Q 2575 -91 1691 -91 
Q 1453 -91 1209 -44 
Q 966 3 703 97 
z
M 1959 2075 
Q 2384 2075 2632 2365 
Q 2881 2656 2881 3163 
Q 2881 3666 2632 3958 
Q 2384 4250 1959 4250 
Q 1534 4250 1286 3958 
Q 1038 3666 1038 3163 
Q 1038 2656 1286 2365 
Q 1534 2075 1959 2075 
z
" transform="scale(0.015625)"/>
      </defs>
      <use xlink:href="#DejaVuSans-32"/>
      <use xlink:href="#DejaVuSans-30" x="63.623047"/>
      <use xlink:href="#DejaVuSans-31" x="127.246094"/>
      <use xlink:href="#DejaVuSans-39" x="190.869141"/>
     </g>
    </g>
    <g id="line2d_41">
     <path d="M 91.37 98.690937 
L 101.37 98.690937 
L 101.37 98.690937 
L 111.37 98.690937 
L 111.37 98.690937 
" style="fill: none; stroke: #ffc0cb; stroke-width: 1.5; stroke-linecap: square"/>
    </g>
    <g id="text_21">
     <!-- 2020 -->
     <g transform="translate(119.37 102.190937) scale(0.1 -0.1)">
      <use xlink:href="#DejaVuSans-32"/>
      <use xlink:href="#DejaVuSans-30" x="63.623047"/>
      <use xlink:href="#DejaVuSans-32" x="127.246094"/>
      <use xlink:href="#DejaVuSans-30" x="190.869141"/>
     </g>
    </g>
    <g id="line2d_42">
     <path d="M 91.37 113.369062 
L 101.37 113.369062 
L 101.37 113.369062 
L 111.37 113.369062 
L 111.37 113.369062 
" style="fill: none; stroke: #800080; stroke-width: 1.5; stroke-linecap: square"/>
    </g>
    <g id="text_22">
     <!-- 2021 -->
     <g transform="translate(119.37 116.869062) scale(0.1 -0.1)">
      <use xlink:href="#DejaVuSans-32"/>
      <use xlink:href="#DejaVuSans-30" x="63.623047"/>
      <use xlink:href="#DejaVuSans-32" x="127.246094"/>
      <use xlink:href="#DejaVuSans-31" x="190.869141"/>
     </g>
    </g>
    <g id="line2d_43">
     <path d="M 91.37 128.047187 
L 101.37 128.047187 
L 101.37 128.047187 
L 111.37 128.047187 
L 111.37 128.047187 
" style="fill: none; stroke: #ffa500; stroke-width: 1.5; stroke-linecap: square"/>
    </g>
    <g id="text_23">
     <!-- 2022 -->
     <g transform="translate(119.37 131.547187) scale(0.1 -0.1)">
      <use xlink:href="#DejaVuSans-32"/>
      <use xlink:href="#DejaVuSans-30" x="63.623047"/>
      <use xlink:href="#DejaVuSans-32" x="127.246094"/>
      <use xlink:href="#DejaVuSans-32" x="190.869141"/>
     </g>
    </g>
    <g id="line2d_44">
     <path d="M 91.37 142.725312 
L 101.37 142.725312 
L 101.37 142.725312 
L 111.37 142.725312 
L 111.37 142.725312 
" style="fill: none; stroke: #0000ff; stroke-width: 1.5; stroke-linecap: square"/>
    </g>
    <g id="text_24">
     <!-- 2023 -->
     <g transform="translate(119.37 146.225312) scale(0.1 -0.1)">
      <defs>
       <path id="DejaVuSans-33" d="M 2597 2516 
Q 3050 2419 3304 2112 
Q 3559 1806 3559 1356 
Q 3559 666 3084 287 
Q 2609 -91 1734 -91 
Q 1441 -91 1130 -33 
Q 819 25 488 141 
L 488 750 
Q 750 597 1062 519 
Q 1375 441 1716 441 
Q 2309 441 2620 675 
Q 2931 909 2931 1356 
Q 2931 1769 2642 2001 
Q 2353 2234 1838 2234 
L 1294 2234 
L 1294 2753 
L 1863 2753 
Q 2328 2753 2575 2939 
Q 2822 3125 2822 3475 
Q 2822 3834 2567 4026 
Q 2313 4219 1838 4219 
Q 1578 4219 1281 4162 
Q 984 4106 628 3988 
L 628 4550 
Q 988 4650 1302 4700 
Q 1616 4750 1894 4750 
Q 2613 4750 3031 4423 
Q 3450 4097 3450 3541 
Q 3450 3153 3228 2886 
Q 3006 2619 2597 2516 
z
" transform="scale(0.015625)"/>
      </defs>
      <use xlink:href="#DejaVuSans-32"/>
      <use xlink:href="#DejaVuSans-30" x="63.623047"/>
      <use xlink:href="#DejaVuSans-32" x="127.246094"/>
      <use xlink:href="#DejaVuSans-33" x="190.869141"/>
     </g>
    </g>
    <g id="line2d_45">
     <path d="M 91.37 157.403437 
L 101.37 157.403437 
L 101.37 157.403437 
L 111.37 157.403437 
L 111.37 157.403437 
" style="fill: none; stroke: #008000; stroke-width: 1.5; stroke-linecap: square"/>
    </g>
    <g id="text_25">
     <!-- 2024 -->
     <g transform="translate(119.37 160.903437) scale(0.1 -0.1)">
      <defs>
       <path id="DejaVuSans-34" d="M 2419 4116 
L 825 1625 
L 2419 1625 
L 2419 4116 
z
M 2253 4666 
L 3047 4666 
L 3047 1625 
L 3713 1625 
L 3713 1100 
L 3047 1100 
L 3047 0 
L 2419 0 
L 2419 1100 
L 313 1100 
L 313 1709 
L 2253 4666 
z
" transform="scale(0.015625)"/>
      </defs>
      <use xlink:href="#DejaVuSans-32"/>
      <use xlink:href="#DejaVuSans-30" x="63.623047"/>
      <use xlink:href="#DejaVuSans-32" x="127.246094"/>
      <use xlink:href="#DejaVuSans-34" x="190.869141"/>
     </g>
    </g>
    <g id="line2d_46">
     <path d="M 91.37 172.081562 
L 101.37 172.081562 
L 101.37 172.081562 
L 111.37 172.081562 
L 111.37 172.081562 
" style="fill: none; stroke: #ff0000; stroke-width: 1.5; stroke-linecap: square"/>
    </g>
    <g id="text_26">
     <!-- 2025 -->
     <g transform="translate(119.37 175.581562) scale(0.1 -0.1)">
      <use xlink:href="#DejaVuSans-32"/>
      <use xlink:href="#DejaVuSans-30" x="63.623047"/>
      <use xlink:href="#DejaVuSans-32" x="127.246094"/>
      <use xlink:href="#DejaVuSans-35" x="190.869141"/>
     </g>
    </g>
   </g>
  </g>
 </g>
 <defs>
  <clipPath id="pc5e36e1dc0">
   <rect x="82.37" y="26.88" width="626.83" height="449.24"/>
  </clipPath>
 </defs>
</svg>
