<?xml version="1.0" encoding="utf-8" standalone="no"?>
<!DOCTYPE svg PUBLIC "-//W3C//DTD SVG 1.1//EN"
  "http://www.w3.org/Graphics/SVG/1.1/DTD/svg11.dtd">
<svg xmlns:xlink="http://www.w3.org/1999/xlink" width="720pt" height="504pt" viewBox="0 0 720 504" xmlns="http://www.w3.org/2000/svg" version="1.1">
 <metadata>
  <rdf:RDF xmlns:dc="http://purl.org/dc/elements/1.1/" xmlns:cc="http://creativecommons.org/ns#" xmlns:rdf="http://www.w3.org/1999/02/22-rdf-syntax-ns#">
   <cc:Work>
    <dc:type rdf:resource="http://purl.org/dc/dcmitype/StillImage"/>
    <dc:date>2024-10-20T11:22:50.369821</dc:date>
    <dc:format>image/svg+xml</dc:format>
    <dc:creator>
     <cc:Agent>
      <dc:title>Matplotlib v3.8.2, https://matplotlib.org/</dc:title>
     </cc:Agent>
    </dc:creator>
   </cc:Work>
  </rdf:RDF>
 </metadata>
 <defs>
  <style type="text/css">*{stroke-linejoin: round; stroke-linecap: butt}</style>
 </defs>
 <g id="figure_1">
  <g id="patch_1">
   <path d="M 0 504 
L 720 504 
L 720 0 
L 0 0 
z
" style="fill: #ffffff"/>
  </g>
  <g id="axes_1">
   <g id="patch_2">
    <path d="M 82.37 476.12 
L 709.2 476.12 
L 709.2 26.88 
L 82.37 26.88 
z
" style="fill: #ffffff"/>
   </g>
   <g id="matplotlib.axis_1">
    <g id="xtick_1">
     <g id="line2d_1">
      <path d="M 106.665736 476.12 
L 106.665736 26.88 
" clip-path="url(#p88333173da)" style="fill: none; stroke: #b0b0b0; stroke-width: 0.8; stroke-linecap: square"/>
     </g>
     <g id="line2d_2">
      <defs>
       <path id="mdd699dd23a" d="M 0 0 
L 0 3.5 
" style="stroke: #000000; stroke-width: 0.8"/>
      </defs>
      <g>
       <use xlink:href="#mdd699dd23a" x="106.665736" y="476.12" style="stroke: #000000; stroke-width: 0.8"/>
      </g>
     </g>
     <g id="text_1">
      <!-- Jan 1 -->
      <g transform="translate(94.187611 490.718437) scale(0.1 -0.1)">
       <defs>
        <path id="DejaVuSans-4a" d="M 628 4666 
L 1259 4666 
L 1259 325 
Q 1259 -519 939 -900 
Q 619 -1281 -91 -1281 
L -331 -1281 
L -331 -750 
L -134 -750 
Q 284 -750 456 -515 
Q 628 -281 628 325 
L 628 4666 
z
" transform="scale(0.015625)"/>
        <path id="DejaVuSans-61" d="M 2194 1759 
Q 1497 1759 1228 1600 
Q 959 1441 959 1056 
Q 959 750 1161 570 
Q 1363 391 1709 391 
Q 2188 391 2477 730 
Q 2766 1069 2766 1631 
L 2766 1759 
L 2194 1759 
z
M 3341 1997 
L 3341 0 
L 2766 0 
L 2766 531 
Q 2569 213 2275 61 
Q 1981 -91 1556 -91 
Q 1019 -91 701 211 
Q 384 513 384 1019 
Q 384 1609 779 1909 
Q 1175 2209 1959 2209 
L 2766 2209 
L 2766 2266 
Q 2766 2663 2505 2880 
Q 2244 3097 1772 3097 
Q 1472 3097 1187 3025 
Q 903 2953 641 2809 
L 641 3341 
Q 956 3463 1253 3523 
Q 1550 3584 1831 3584 
Q 2591 3584 2966 3190 
Q 3341 2797 3341 1997 
z
" transform="scale(0.015625)"/>
        <path id="DejaVuSans-6e" d="M 3513 2113 
L 3513 0 
L 2938 0 
L 2938 2094 
Q 2938 2591 2744 2837 
Q 2550 3084 2163 3084 
Q 1697 3084 1428 2787 
Q 1159 2491 1159 1978 
L 1159 0 
L 581 0 
L 581 3500 
L 1159 3500 
L 1159 2956 
Q 1366 3272 1645 3428 
Q 1925 3584 2291 3584 
Q 2894 3584 3203 3211 
Q 3513 2838 3513 2113 
z
" transform="scale(0.015625)"/>
        <path id="DejaVuSans-20" transform="scale(0.015625)"/>
        <path id="DejaVuSans-31" d="M 794 531 
L 1825 531 
L 1825 4091 
L 703 3866 
L 703 4441 
L 1819 4666 
L 2450 4666 
L 2450 531 
L 3481 531 
L 3481 0 
L 794 0 
L 794 531 
z
" transform="scale(0.015625)"/>
       </defs>
       <use xlink:href="#DejaVuSans-4a"/>
       <use xlink:href="#DejaVuSans-61" x="29.492188"/>
       <use xlink:href="#DejaVuSans-6e" x="90.771484"/>
       <use xlink:href="#DejaVuSans-20" x="154.150391"/>
       <use xlink:href="#DejaVuSans-31" x="185.9375"/>
      </g>
     </g>
    </g>
    <g id="xtick_2">
     <g id="line2d_3">
      <path d="M 203.848682 476.12 
L 203.848682 26.88 
" clip-path="url(#p88333173da)" style="fill: none; stroke: #b0b0b0; stroke-width: 0.8; stroke-linecap: square"/>
     </g>
     <g id="line2d_4">
      <g>
       <use xlink:href="#mdd699dd23a" x="203.848682" y="476.12" style="stroke: #000000; stroke-width: 0.8"/>
      </g>
     </g>
     <g id="text_2">
      <!-- Mar 1 -->
      <g transform="translate(189.644776 490.718437) scale(0.1 -0.1)">
       <defs>
        <path id="DejaVuSans-4d" d="M 628 4666 
L 1569 4666 
L 2759 1491 
L 3956 4666 
L 4897 4666 
L 4897 0 
L 4281 0 
L 4281 4097 
L 3078 897 
L 2444 897 
L 1241 4097 
L 1241 0 
L 628 0 
L 628 4666 
z
" transform="scale(0.015625)"/>
        <path id="DejaVuSans-72" d="M 2631 2963 
Q 2534 3019 2420 3045 
Q 2306 3072 2169 3072 
Q 1681 3072 1420 2755 
Q 1159 2438 1159 1844 
L 1159 0 
L 581 0 
L 581 3500 
L 1159 3500 
L 1159 2956 
Q 1341 3275 1631 3429 
Q 1922 3584 2338 3584 
Q 2397 3584 2469 3576 
Q 2541 3569 2628 3553 
L 2631 2963 
z
" transform="scale(0.015625)"/>
       </defs>
       <use xlink:href="#DejaVuSans-4d"/>
       <use xlink:href="#DejaVuSans-61" x="86.279297"/>
       <use xlink:href="#DejaVuSans-72" x="147.558594"/>
       <use xlink:href="#DejaVuSans-20" x="188.671875"/>
       <use xlink:href="#DejaVuSans-31" x="220.458984"/>
      </g>
     </g>
    </g>
    <g id="xtick_3">
     <g id="line2d_5">
      <path d="M 302.651344 476.12 
L 302.651344 26.88 
" clip-path="url(#p88333173da)" style="fill: none; stroke: #b0b0b0; stroke-width: 0.8; stroke-linecap: square"/>
     </g>
     <g id="line2d_6">
      <g>
       <use xlink:href="#mdd699dd23a" x="302.651344" y="476.12" style="stroke: #000000; stroke-width: 0.8"/>
      </g>
     </g>
     <g id="text_3">
      <!-- May 1 -->
      <g transform="translate(287.543531 490.718437) scale(0.1 -0.1)">
       <defs>
        <path id="DejaVuSans-79" d="M 2059 -325 
Q 1816 -950 1584 -1140 
Q 1353 -1331 966 -1331 
L 506 -1331 
L 506 -850 
L 844 -850 
Q 1081 -850 1212 -737 
Q 1344 -625 1503 -206 
L 1606 56 
L 191 3500 
L 800 3500 
L 1894 763 
L 2988 3500 
L 3597 3500 
L 2059 -325 
z
" transform="scale(0.015625)"/>
       </defs>
       <use xlink:href="#DejaVuSans-4d"/>
       <use xlink:href="#DejaVuSans-61" x="86.279297"/>
       <use xlink:href="#DejaVuSans-79" x="147.558594"/>
       <use xlink:href="#DejaVuSans-20" x="206.738281"/>
       <use xlink:href="#DejaVuSans-31" x="238.525391"/>
      </g>
     </g>
    </g>
    <g id="xtick_4">
     <g id="line2d_7">
      <path d="M 401.454005 476.12 
L 401.454005 26.88 
" clip-path="url(#p88333173da)" style="fill: none; stroke: #b0b0b0; stroke-width: 0.8; stroke-linecap: square"/>
     </g>
     <g id="line2d_8">
      <g>
       <use xlink:href="#mdd699dd23a" x="401.454005" y="476.12" style="stroke: #000000; stroke-width: 0.8"/>
      </g>
     </g>
     <g id="text_4">
      <!-- Jul 1 -->
      <g transform="translate(390.65088 490.718437) scale(0.1 -0.1)">
       <defs>
        <path id="DejaVuSans-75" d="M 544 1381 
L 544 3500 
L 1119 3500 
L 1119 1403 
Q 1119 906 1312 657 
Q 1506 409 1894 409 
Q 2359 409 2629 706 
Q 2900 1003 2900 1516 
L 2900 3500 
L 3475 3500 
L 3475 0 
L 2900 0 
L 2900 538 
Q 2691 219 2414 64 
Q 2138 -91 1772 -91 
Q 1169 -91 856 284 
Q 544 659 544 1381 
z
M 1991 3584 
L 1991 3584 
z
" transform="scale(0.015625)"/>
        <path id="DejaVuSans-6c" d="M 603 4863 
L 1178 4863 
L 1178 0 
L 603 0 
L 603 4863 
z
" transform="scale(0.015625)"/>
       </defs>
       <use xlink:href="#DejaVuSans-4a"/>
       <use xlink:href="#DejaVuSans-75" x="29.492188"/>
       <use xlink:href="#DejaVuSans-6c" x="92.871094"/>
       <use xlink:href="#DejaVuSans-20" x="120.654297"/>
       <use xlink:href="#DejaVuSans-31" x="152.441406"/>
      </g>
     </g>
    </g>
    <g id="xtick_5">
     <g id="line2d_9">
      <path d="M 501.876382 476.12 
L 501.876382 26.88 
" clip-path="url(#p88333173da)" style="fill: none; stroke: #b0b0b0; stroke-width: 0.8; stroke-linecap: square"/>
     </g>
     <g id="line2d_10">
      <g>
       <use xlink:href="#mdd699dd23a" x="501.876382" y="476.12" style="stroke: #000000; stroke-width: 0.8"/>
      </g>
     </g>
     <g id="text_5">
      <!-- Sep 1 -->
      <g transform="translate(487.68107 490.718437) scale(0.1 -0.1)">
       <defs>
        <path id="DejaVuSans-53" d="M 3425 4513 
L 3425 3897 
Q 3066 4069 2747 4153 
Q 2428 4238 2131 4238 
Q 1616 4238 1336 4038 
Q 1056 3838 1056 3469 
Q 1056 3159 1242 3001 
Q 1428 2844 1947 2747 
L 2328 2669 
Q 3034 2534 3370 2195 
Q 3706 1856 3706 1288 
Q 3706 609 3251 259 
Q 2797 -91 1919 -91 
Q 1588 -91 1214 -16 
Q 841 59 441 206 
L 441 856 
Q 825 641 1194 531 
Q 1563 422 1919 422 
Q 2459 422 2753 634 
Q 3047 847 3047 1241 
Q 3047 1584 2836 1778 
Q 2625 1972 2144 2069 
L 1759 2144 
Q 1053 2284 737 2584 
Q 422 2884 422 3419 
Q 422 4038 858 4394 
Q 1294 4750 2059 4750 
Q 2388 4750 2728 4690 
Q 3069 4631 3425 4513 
z
" transform="scale(0.015625)"/>
        <path id="DejaVuSans-65" d="M 3597 1894 
L 3597 1613 
L 953 1613 
Q 991 1019 1311 708 
Q 1631 397 2203 397 
Q 2534 397 2845 478 
Q 3156 559 3463 722 
L 3463 178 
Q 3153 47 2828 -22 
Q 2503 -91 2169 -91 
Q 1331 -91 842 396 
Q 353 884 353 1716 
Q 353 2575 817 3079 
Q 1281 3584 2069 3584 
Q 2775 3584 3186 3129 
Q 3597 2675 3597 1894 
z
M 3022 2063 
Q 3016 2534 2758 2815 
Q 2500 3097 2075 3097 
Q 1594 3097 1305 2825 
Q 1016 2553 972 2059 
L 3022 2063 
z
" transform="scale(0.015625)"/>
        <path id="DejaVuSans-70" d="M 1159 525 
L 1159 -1331 
L 581 -1331 
L 581 3500 
L 1159 3500 
L 1159 2969 
Q 1341 3281 1617 3432 
Q 1894 3584 2278 3584 
Q 2916 3584 3314 3078 
Q 3713 2572 3713 1747 
Q 3713 922 3314 415 
Q 2916 -91 2278 -91 
Q 1894 -91 1617 61 
Q 1341 213 1159 525 
z
M 3116 1747 
Q 3116 2381 2855 2742 
Q 2594 3103 2138 3103 
Q 1681 3103 1420 2742 
Q 1159 2381 1159 1747 
Q 1159 1113 1420 752 
Q 1681 391 2138 391 
Q 2594 391 2855 752 
Q 3116 1113 3116 1747 
z
" transform="scale(0.015625)"/>
       </defs>
       <use xlink:href="#DejaVuSans-53"/>
       <use xlink:href="#DejaVuSans-65" x="63.476562"/>
       <use xlink:href="#DejaVuSans-70" x="125"/>
       <use xlink:href="#DejaVuSans-20" x="188.476562"/>
       <use xlink:href="#DejaVuSans-31" x="220.263672"/>
      </g>
     </g>
    </g>
    <g id="xtick_6">
     <g id="line2d_11">
      <path d="M 600.679044 476.12 
L 600.679044 26.88 
" clip-path="url(#p88333173da)" style="fill: none; stroke: #b0b0b0; stroke-width: 0.8; stroke-linecap: square"/>
     </g>
     <g id="line2d_12">
      <g>
       <use xlink:href="#mdd699dd23a" x="600.679044" y="476.12" style="stroke: #000000; stroke-width: 0.8"/>
      </g>
     </g>
     <g id="text_6">
      <!-- Nov 1 -->
      <g transform="translate(586.149356 490.718437) scale(0.1 -0.1)">
       <defs>
        <path id="DejaVuSans-4e" d="M 628 4666 
L 1478 4666 
L 3547 763 
L 3547 4666 
L 4159 4666 
L 4159 0 
L 3309 0 
L 1241 3903 
L 1241 0 
L 628 0 
L 628 4666 
z
" transform="scale(0.015625)"/>
        <path id="DejaVuSans-6f" d="M 1959 3097 
Q 1497 3097 1228 2736 
Q 959 2375 959 1747 
Q 959 1119 1226 758 
Q 1494 397 1959 397 
Q 2419 397 2687 759 
Q 2956 1122 2956 1747 
Q 2956 2369 2687 2733 
Q 2419 3097 1959 3097 
z
M 1959 3584 
Q 2709 3584 3137 3096 
Q 3566 2609 3566 1747 
Q 3566 888 3137 398 
Q 2709 -91 1959 -91 
Q 1206 -91 779 398 
Q 353 888 353 1747 
Q 353 2609 779 3096 
Q 1206 3584 1959 3584 
z
" transform="scale(0.015625)"/>
        <path id="DejaVuSans-76" d="M 191 3500 
L 800 3500 
L 1894 563 
L 2988 3500 
L 3597 3500 
L 2284 0 
L 1503 0 
L 191 3500 
z
" transform="scale(0.015625)"/>
       </defs>
       <use xlink:href="#DejaVuSans-4e"/>
       <use xlink:href="#DejaVuSans-6f" x="74.804688"/>
       <use xlink:href="#DejaVuSans-76" x="135.986328"/>
       <use xlink:href="#DejaVuSans-20" x="195.166016"/>
       <use xlink:href="#DejaVuSans-31" x="226.953125"/>
      </g>
     </g>
    </g>
   </g>
   <g id="matplotlib.axis_2">
    <g id="ytick_1">
     <g id="line2d_13">
      <path d="M 82.37 455.7 
L 709.2 455.7 
" clip-path="url(#p88333173da)" style="fill: none; stroke: #b0b0b0; stroke-width: 0.8; stroke-linecap: square"/>
     </g>
     <g id="line2d_14">
      <defs>
       <path id="mefc6743093" d="M 0 0 
L -3.5 0 
" style="stroke: #000000; stroke-width: 0.8"/>
      </defs>
      <g>
       <use xlink:href="#mefc6743093" x="82.37" y="455.7" style="stroke: #000000; stroke-width: 0.8"/>
      </g>
     </g>
     <g id="text_7">
      <!-- 0 -->
      <g transform="translate(69.0075 459.499219) scale(0.1 -0.1)">
       <defs>
        <path id="DejaVuSans-30" d="M 2034 4250 
Q 1547 4250 1301 3770 
Q 1056 3291 1056 2328 
Q 1056 1369 1301 889 
Q 1547 409 2034 409 
Q 2525 409 2770 889 
Q 3016 1369 3016 2328 
Q 3016 3291 2770 3770 
Q 2525 4250 2034 4250 
z
M 2034 4750 
Q 2819 4750 3233 4129 
Q 3647 3509 3647 2328 
Q 3647 1150 3233 529 
Q 2819 -91 2034 -91 
Q 1250 -91 836 529 
Q 422 1150 422 2328 
Q 422 3509 836 4129 
Q 1250 4750 2034 4750 
z
" transform="scale(0.015625)"/>
       </defs>
       <use xlink:href="#DejaVuSans-30"/>
      </g>
     </g>
    </g>
    <g id="ytick_2">
     <g id="line2d_15">
      <path d="M 82.37 390.527326 
L 709.2 390.527326 
" clip-path="url(#p88333173da)" style="fill: none; stroke: #b0b0b0; stroke-width: 0.8; stroke-linecap: square"/>
     </g>
     <g id="line2d_16">
      <g>
       <use xlink:href="#mefc6743093" x="82.37" y="390.527326" style="stroke: #000000; stroke-width: 0.8"/>
      </g>
     </g>
     <g id="text_8">
      <!-- 200,000 -->
      <g transform="translate(34.016875 394.326545) scale(0.1 -0.1)">
       <defs>
        <path id="DejaVuSans-32" d="M 1228 531 
L 3431 531 
L 3431 0 
L 469 0 
L 469 531 
Q 828 903 1448 1529 
Q 2069 2156 2228 2338 
Q 2531 2678 2651 2914 
Q 2772 3150 2772 3378 
Q 2772 3750 2511 3984 
Q 2250 4219 1831 4219 
Q 1534 4219 1204 4116 
Q 875 4013 500 3803 
L 500 4441 
Q 881 4594 1212 4672 
Q 1544 4750 1819 4750 
Q 2544 4750 2975 4387 
Q 3406 4025 3406 3419 
Q 3406 3131 3298 2873 
Q 3191 2616 2906 2266 
Q 2828 2175 2409 1742 
Q 1991 1309 1228 531 
z
" transform="scale(0.015625)"/>
        <path id="DejaVuSans-2c" d="M 750 794 
L 1409 794 
L 1409 256 
L 897 -744 
L 494 -744 
L 750 256 
L 750 794 
z
" transform="scale(0.015625)"/>
       </defs>
       <use xlink:href="#DejaVuSans-32"/>
       <use xlink:href="#DejaVuSans-30" x="63.623047"/>
       <use xlink:href="#DejaVuSans-30" x="127.246094"/>
       <use xlink:href="#DejaVuSans-2c" x="190.869141"/>
       <use xlink:href="#DejaVuSans-30" x="222.65625"/>
       <use xlink:href="#DejaVuSans-30" x="286.279297"/>
       <use xlink:href="#DejaVuSans-30" x="349.902344"/>
      </g>
     </g>
    </g>
    <g id="ytick_3">
     <g id="line2d_17">
      <path d="M 82.37 325.354652 
L 709.2 325.354652 
" clip-path="url(#p88333173da)" style="fill: none; stroke: #b0b0b0; stroke-width: 0.8; stroke-linecap: square"/>
     </g>
     <g id="line2d_18">
      <g>
       <use xlink:href="#mefc6743093" x="82.37" y="325.354652" style="stroke: #000000; stroke-width: 0.8"/>
      </g>
     </g>
     <g id="text_9">
      <!-- 400,000 -->
      <g transform="translate(34.016875 329.153871) scale(0.1 -0.1)">
       <defs>
        <path id="DejaVuSans-34" d="M 2419 4116 
L 825 1625 
L 2419 1625 
L 2419 4116 
z
M 2253 4666 
L 3047 4666 
L 3047 1625 
L 3713 1625 
L 3713 1100 
L 3047 1100 
L 3047 0 
L 2419 0 
L 2419 1100 
L 313 1100 
L 313 1709 
L 2253 4666 
z
" transform="scale(0.015625)"/>
       </defs>
       <use xlink:href="#DejaVuSans-34"/>
       <use xlink:href="#DejaVuSans-30" x="63.623047"/>
       <use xlink:href="#DejaVuSans-30" x="127.246094"/>
       <use xlink:href="#DejaVuSans-2c" x="190.869141"/>
       <use xlink:href="#DejaVuSans-30" x="222.65625"/>
       <use xlink:href="#DejaVuSans-30" x="286.279297"/>
       <use xlink:href="#DejaVuSans-30" x="349.902344"/>
      </g>
     </g>
    </g>
    <g id="ytick_4">
     <g id="line2d_19">
      <path d="M 82.37 260.181978 
L 709.2 260.181978 
" clip-path="url(#p88333173da)" style="fill: none; stroke: #b0b0b0; stroke-width: 0.8; stroke-linecap: square"/>
     </g>
     <g id="line2d_20">
      <g>
       <use xlink:href="#mefc6743093" x="82.37" y="260.181978" style="stroke: #000000; stroke-width: 0.8"/>
      </g>
     </g>
     <g id="text_10">
      <!-- 600,000 -->
      <g transform="translate(34.016875 263.981197) scale(0.1 -0.1)">
       <defs>
        <path id="DejaVuSans-36" d="M 2113 2584 
Q 1688 2584 1439 2293 
Q 1191 2003 1191 1497 
Q 1191 994 1439 701 
Q 1688 409 2113 409 
Q 2538 409 2786 701 
Q 3034 994 3034 1497 
Q 3034 2003 2786 2293 
Q 2538 2584 2113 2584 
z
M 3366 4563 
L 3366 3988 
Q 3128 4100 2886 4159 
Q 2644 4219 2406 4219 
Q 1781 4219 1451 3797 
Q 1122 3375 1075 2522 
Q 1259 2794 1537 2939 
Q 1816 3084 2150 3084 
Q 2853 3084 3261 2657 
Q 3669 2231 3669 1497 
Q 3669 778 3244 343 
Q 2819 -91 2113 -91 
Q 1303 -91 875 529 
Q 447 1150 447 2328 
Q 447 3434 972 4092 
Q 1497 4750 2381 4750 
Q 2619 4750 2861 4703 
Q 3103 4656 3366 4563 
z
" transform="scale(0.015625)"/>
       </defs>
       <use xlink:href="#DejaVuSans-36"/>
       <use xlink:href="#DejaVuSans-30" x="63.623047"/>
       <use xlink:href="#DejaVuSans-30" x="127.246094"/>
       <use xlink:href="#DejaVuSans-2c" x="190.869141"/>
       <use xlink:href="#DejaVuSans-30" x="222.65625"/>
       <use xlink:href="#DejaVuSans-30" x="286.279297"/>
       <use xlink:href="#DejaVuSans-30" x="349.902344"/>
      </g>
     </g>
    </g>
    <g id="ytick_5">
     <g id="line2d_21">
      <path d="M 82.37 195.009304 
L 709.2 195.009304 
" clip-path="url(#p88333173da)" style="fill: none; stroke: #b0b0b0; stroke-width: 0.8; stroke-linecap: square"/>
     </g>
     <g id="line2d_22">
      <g>
       <use xlink:href="#mefc6743093" x="82.37" y="195.009304" style="stroke: #000000; stroke-width: 0.8"/>
      </g>
     </g>
     <g id="text_11">
      <!-- 800,000 -->
      <g transform="translate(34.016875 198.808522) scale(0.1 -0.1)">
       <defs>
        <path id="DejaVuSans-38" d="M 2034 2216 
Q 1584 2216 1326 1975 
Q 1069 1734 1069 1313 
Q 1069 891 1326 650 
Q 1584 409 2034 409 
Q 2484 409 2743 651 
Q 3003 894 3003 1313 
Q 3003 1734 2745 1975 
Q 2488 2216 2034 2216 
z
M 1403 2484 
Q 997 2584 770 2862 
Q 544 3141 544 3541 
Q 544 4100 942 4425 
Q 1341 4750 2034 4750 
Q 2731 4750 3128 4425 
Q 3525 4100 3525 3541 
Q 3525 3141 3298 2862 
Q 3072 2584 2669 2484 
Q 3125 2378 3379 2068 
Q 3634 1759 3634 1313 
Q 3634 634 3220 271 
Q 2806 -91 2034 -91 
Q 1263 -91 848 271 
Q 434 634 434 1313 
Q 434 1759 690 2068 
Q 947 2378 1403 2484 
z
M 1172 3481 
Q 1172 3119 1398 2916 
Q 1625 2713 2034 2713 
Q 2441 2713 2670 2916 
Q 2900 3119 2900 3481 
Q 2900 3844 2670 4047 
Q 2441 4250 2034 4250 
Q 1625 4250 1398 4047 
Q 1172 3844 1172 3481 
z
" transform="scale(0.015625)"/>
       </defs>
       <use xlink:href="#DejaVuSans-38"/>
       <use xlink:href="#DejaVuSans-30" x="63.623047"/>
       <use xlink:href="#DejaVuSans-30" x="127.246094"/>
       <use xlink:href="#DejaVuSans-2c" x="190.869141"/>
       <use xlink:href="#DejaVuSans-30" x="222.65625"/>
       <use xlink:href="#DejaVuSans-30" x="286.279297"/>
       <use xlink:href="#DejaVuSans-30" x="349.902344"/>
      </g>
     </g>
    </g>
    <g id="ytick_6">
     <g id="line2d_23">
      <path d="M 82.37 129.83663 
L 709.2 129.83663 
" clip-path="url(#p88333173da)" style="fill: none; stroke: #b0b0b0; stroke-width: 0.8; stroke-linecap: square"/>
     </g>
     <g id="line2d_24">
      <g>
       <use xlink:href="#mefc6743093" x="82.37" y="129.83663" style="stroke: #000000; stroke-width: 0.8"/>
      </g>
     </g>
     <g id="text_12">
      <!-- 1,000,000 -->
      <g transform="translate(24.47625 133.635848) scale(0.1 -0.1)">
       <use xlink:href="#DejaVuSans-31"/>
       <use xlink:href="#DejaVuSans-2c" x="63.623047"/>
       <use xlink:href="#DejaVuSans-30" x="95.410156"/>
       <use xlink:href="#DejaVuSans-30" x="159.033203"/>
       <use xlink:href="#DejaVuSans-30" x="222.65625"/>
       <use xlink:href="#DejaVuSans-2c" x="286.279297"/>
       <use xlink:href="#DejaVuSans-30" x="318.066406"/>
       <use xlink:href="#DejaVuSans-30" x="381.689453"/>
       <use xlink:href="#DejaVuSans-30" x="445.3125"/>
      </g>
     </g>
    </g>
    <g id="ytick_7">
     <g id="line2d_25">
      <path d="M 82.37 64.663956 
L 709.2 64.663956 
" clip-path="url(#p88333173da)" style="fill: none; stroke: #b0b0b0; stroke-width: 0.8; stroke-linecap: square"/>
     </g>
     <g id="line2d_26">
      <g>
       <use xlink:href="#mefc6743093" x="82.37" y="64.663956" style="stroke: #000000; stroke-width: 0.8"/>
      </g>
     </g>
     <g id="text_13">
      <!-- 1,200,000 -->
      <g transform="translate(24.47625 68.463174) scale(0.1 -0.1)">
       <use xlink:href="#DejaVuSans-31"/>
       <use xlink:href="#DejaVuSans-2c" x="63.623047"/>
       <use xlink:href="#DejaVuSans-32" x="95.410156"/>
       <use xlink:href="#DejaVuSans-30" x="159.033203"/>
       <use xlink:href="#DejaVuSans-30" x="222.65625"/>
       <use xlink:href="#DejaVuSans-2c" x="286.279297"/>
       <use xlink:href="#DejaVuSans-30" x="318.066406"/>
       <use xlink:href="#DejaVuSans-30" x="381.689453"/>
       <use xlink:href="#DejaVuSans-30" x="445.3125"/>
      </g>
     </g>
    </g>
    <g id="text_14">
     <!-- Cumulative Payload Mass (kg) -->
     <g transform="translate(18.396562 326.863281) rotate(-90) scale(0.1 -0.1)">
      <defs>
       <path id="DejaVuSans-43" d="M 4122 4306 
L 4122 3641 
Q 3803 3938 3442 4084 
Q 3081 4231 2675 4231 
Q 1875 4231 1450 3742 
Q 1025 3253 1025 2328 
Q 1025 1406 1450 917 
Q 1875 428 2675 428 
Q 3081 428 3442 575 
Q 3803 722 4122 1019 
L 4122 359 
Q 3791 134 3420 21 
Q 3050 -91 2638 -91 
Q 1578 -91 968 557 
Q 359 1206 359 2328 
Q 359 3453 968 4101 
Q 1578 4750 2638 4750 
Q 3056 4750 3426 4639 
Q 3797 4528 4122 4306 
z
" transform="scale(0.015625)"/>
       <path id="DejaVuSans-6d" d="M 3328 2828 
Q 3544 3216 3844 3400 
Q 4144 3584 4550 3584 
Q 5097 3584 5394 3201 
Q 5691 2819 5691 2113 
L 5691 0 
L 5113 0 
L 5113 2094 
Q 5113 2597 4934 2840 
Q 4756 3084 4391 3084 
Q 3944 3084 3684 2787 
Q 3425 2491 3425 1978 
L 3425 0 
L 2847 0 
L 2847 2094 
Q 2847 2600 2669 2842 
Q 2491 3084 2119 3084 
Q 1678 3084 1418 2786 
Q 1159 2488 1159 1978 
L 1159 0 
L 581 0 
L 581 3500 
L 1159 3500 
L 1159 2956 
Q 1356 3278 1631 3431 
Q 1906 3584 2284 3584 
Q 2666 3584 2933 3390 
Q 3200 3197 3328 2828 
z
" transform="scale(0.015625)"/>
       <path id="DejaVuSans-74" d="M 1172 4494 
L 1172 3500 
L 2356 3500 
L 2356 3053 
L 1172 3053 
L 1172 1153 
Q 1172 725 1289 603 
Q 1406 481 1766 481 
L 2356 481 
L 2356 0 
L 1766 0 
Q 1100 0 847 248 
Q 594 497 594 1153 
L 594 3053 
L 172 3053 
L 172 3500 
L 594 3500 
L 594 4494 
L 1172 4494 
z
" transform="scale(0.015625)"/>
       <path id="DejaVuSans-69" d="M 603 3500 
L 1178 3500 
L 1178 0 
L 603 0 
L 603 3500 
z
M 603 4863 
L 1178 4863 
L 1178 4134 
L 603 4134 
L 603 4863 
z
" transform="scale(0.015625)"/>
       <path id="DejaVuSans-50" d="M 1259 4147 
L 1259 2394 
L 2053 2394 
Q 2494 2394 2734 2622 
Q 2975 2850 2975 3272 
Q 2975 3691 2734 3919 
Q 2494 4147 2053 4147 
L 1259 4147 
z
M 628 4666 
L 2053 4666 
Q 2838 4666 3239 4311 
Q 3641 3956 3641 3272 
Q 3641 2581 3239 2228 
Q 2838 1875 2053 1875 
L 1259 1875 
L 1259 0 
L 628 0 
L 628 4666 
z
" transform="scale(0.015625)"/>
       <path id="DejaVuSans-64" d="M 2906 2969 
L 2906 4863 
L 3481 4863 
L 3481 0 
L 2906 0 
L 2906 525 
Q 2725 213 2448 61 
Q 2172 -91 1784 -91 
Q 1150 -91 751 415 
Q 353 922 353 1747 
Q 353 2572 751 3078 
Q 1150 3584 1784 3584 
Q 2172 3584 2448 3432 
Q 2725 3281 2906 2969 
z
M 947 1747 
Q 947 1113 1208 752 
Q 1469 391 1925 391 
Q 2381 391 2643 752 
Q 2906 1113 2906 1747 
Q 2906 2381 2643 2742 
Q 2381 3103 1925 3103 
Q 1469 3103 1208 2742 
Q 947 2381 947 1747 
z
" transform="scale(0.015625)"/>
       <path id="DejaVuSans-73" d="M 2834 3397 
L 2834 2853 
Q 2591 2978 2328 3040 
Q 2066 3103 1784 3103 
Q 1356 3103 1142 2972 
Q 928 2841 928 2578 
Q 928 2378 1081 2264 
Q 1234 2150 1697 2047 
L 1894 2003 
Q 2506 1872 2764 1633 
Q 3022 1394 3022 966 
Q 3022 478 2636 193 
Q 2250 -91 1575 -91 
Q 1294 -91 989 -36 
Q 684 19 347 128 
L 347 722 
Q 666 556 975 473 
Q 1284 391 1588 391 
Q 1994 391 2212 530 
Q 2431 669 2431 922 
Q 2431 1156 2273 1281 
Q 2116 1406 1581 1522 
L 1381 1569 
Q 847 1681 609 1914 
Q 372 2147 372 2553 
Q 372 3047 722 3315 
Q 1072 3584 1716 3584 
Q 2034 3584 2315 3537 
Q 2597 3491 2834 3397 
z
" transform="scale(0.015625)"/>
       <path id="DejaVuSans-28" d="M 1984 4856 
Q 1566 4138 1362 3434 
Q 1159 2731 1159 2009 
Q 1159 1288 1364 580 
Q 1569 -128 1984 -844 
L 1484 -844 
Q 1016 -109 783 600 
Q 550 1309 550 2009 
Q 550 2706 781 3412 
Q 1013 4119 1484 4856 
L 1984 4856 
z
" transform="scale(0.015625)"/>
       <path id="DejaVuSans-6b" d="M 581 4863 
L 1159 4863 
L 1159 1991 
L 2875 3500 
L 3609 3500 
L 1753 1863 
L 3688 0 
L 2938 0 
L 1159 1709 
L 1159 0 
L 581 0 
L 581 4863 
z
" transform="scale(0.015625)"/>
       <path id="DejaVuSans-67" d="M 2906 1791 
Q 2906 2416 2648 2759 
Q 2391 3103 1925 3103 
Q 1463 3103 1205 2759 
Q 947 2416 947 1791 
Q 947 1169 1205 825 
Q 1463 481 1925 481 
Q 2391 481 2648 825 
Q 2906 1169 2906 1791 
z
M 3481 434 
Q 3481 -459 3084 -895 
Q 2688 -1331 1869 -1331 
Q 1566 -1331 1297 -1286 
Q 1028 -1241 775 -1147 
L 775 -588 
Q 1028 -725 1275 -790 
Q 1522 -856 1778 -856 
Q 2344 -856 2625 -561 
Q 2906 -266 2906 331 
L 2906 616 
Q 2728 306 2450 153 
Q 2172 0 1784 0 
Q 1141 0 747 490 
Q 353 981 353 1791 
Q 353 2603 747 3093 
Q 1141 3584 1784 3584 
Q 2172 3584 2450 3431 
Q 2728 3278 2906 2969 
L 2906 3500 
L 3481 3500 
L 3481 434 
z
" transform="scale(0.015625)"/>
       <path id="DejaVuSans-29" d="M 513 4856 
L 1013 4856 
Q 1481 4119 1714 3412 
Q 1947 2706 1947 2009 
Q 1947 1309 1714 600 
Q 1481 -109 1013 -844 
L 513 -844 
Q 928 -128 1133 580 
Q 1338 1288 1338 2009 
Q 1338 2731 1133 3434 
Q 928 4138 513 4856 
z
" transform="scale(0.015625)"/>
      </defs>
      <use xlink:href="#DejaVuSans-43"/>
      <use xlink:href="#DejaVuSans-75" x="69.824219"/>
      <use xlink:href="#DejaVuSans-6d" x="133.203125"/>
      <use xlink:href="#DejaVuSans-75" x="230.615234"/>
      <use xlink:href="#DejaVuSans-6c" x="293.994141"/>
      <use xlink:href="#DejaVuSans-61" x="321.777344"/>
      <use xlink:href="#DejaVuSans-74" x="383.056641"/>
      <use xlink:href="#DejaVuSans-69" x="422.265625"/>
      <use xlink:href="#DejaVuSans-76" x="450.048828"/>
      <use xlink:href="#DejaVuSans-65" x="509.228516"/>
      <use xlink:href="#DejaVuSans-20" x="570.751953"/>
      <use xlink:href="#DejaVuSans-50" x="602.539062"/>
      <use xlink:href="#DejaVuSans-61" x="658.341797"/>
      <use xlink:href="#DejaVuSans-79" x="719.621094"/>
      <use xlink:href="#DejaVuSans-6c" x="778.800781"/>
      <use xlink:href="#DejaVuSans-6f" x="806.583984"/>
      <use xlink:href="#DejaVuSans-61" x="867.765625"/>
      <use xlink:href="#DejaVuSans-64" x="929.044922"/>
      <use xlink:href="#DejaVuSans-20" x="992.521484"/>
      <use xlink:href="#DejaVuSans-4d" x="1024.308594"/>
      <use xlink:href="#DejaVuSans-61" x="1110.587891"/>
      <use xlink:href="#DejaVuSans-73" x="1171.867188"/>
      <use xlink:href="#DejaVuSans-73" x="1223.966797"/>
      <use xlink:href="#DejaVuSans-20" x="1276.066406"/>
      <use xlink:href="#DejaVuSans-28" x="1307.853516"/>
      <use xlink:href="#DejaVuSans-6b" x="1346.867188"/>
      <use xlink:href="#DejaVuSans-67" x="1404.777344"/>
      <use xlink:href="#DejaVuSans-29" x="1468.253906"/>
     </g>
    </g>
   </g>
   <g id="line2d_27">
    <path d="M 106.665736 455.7 
L 127.722041 455.7 
L 127.722041 452.571712 
L 186.031809 452.571712 
L 186.031809 451.760312 
L 226.524703 451.760312 
L 226.524703 449.935477 
L 249.200724 449.935477 
L 249.200724 448.208401 
L 301.031628 448.208401 
L 301.031628 448.208401 
L 323.707649 448.208401 
L 323.707649 446.23041 
L 354.482248 446.23041 
L 354.482248 445.347972 
L 386.876563 445.347972 
L 386.876563 444.15238 
L 390.115995 444.15238 
L 390.115995 441.024091 
L 406.313152 441.024091 
L 406.313152 438.820929 
L 471.101783 438.820929 
L 471.101783 437.742321 
L 487.298941 437.742321 
L 487.298941 437.587536 
L 509.974961 437.587536 
L 509.974961 435.961478 
L 561.805866 435.961478 
L 561.805866 432.83319 
L 565.045297 432.83319 
L 565.045297 431.073528 
L 595.819897 431.073528 
L 595.819897 429.933006 
L 670.326822 429.933006 
L 670.326822 429.214477 
L 683.284548 429.214477 
L 683.284548 426.086189 
L 696.242274 426.086189 
L 696.242274 426.086189 
" clip-path="url(#p88333173da)" style="fill: none; stroke: #90ee90; stroke-width: 1.5; stroke-linecap: square"/>
   </g>
   <g id="line2d_28">
    <path d="M 106.665736 455.7 
L 118.003747 455.7 
L 118.003747 455.7 
L 155.257209 455.7 
L 155.257209 454.321598 
L 164.975504 454.321598 
L 164.975504 453.914269 
L 190.890956 453.914269 
L 190.890956 453.213662 
L 210.327545 453.213662 
L 210.327545 451.228503 
L 249.200724 451.228503 
L 249.200724 448.100214 
L 254.059871 448.100214 
L 254.059871 447.237654 
L 279.975323 447.237654 
L 279.975323 447.119692 
L 317.228786 447.119692 
L 317.228786 445.946583 
L 335.045659 445.946583 
L 335.045659 443.841506 
L 356.101964 443.841506 
L 356.101964 442.087058 
L 396.594858 442.087058 
L 396.594858 441.208204 
L 433.84832 441.208204 
L 433.84832 438.902721 
L 438.707468 438.902721 
L 438.707468 435.774432 
L 459.763773 435.774432 
L 459.763773 433.884425 
L 514.834109 433.884425 
L 514.834109 431.58383 
L 560.18615 431.58383 
L 560.18615 430.606239 
L 621.735349 430.606239 
L 621.735349 428.879164 
L 650.890233 428.879164 
L 650.890233 427.57571 
L 654.129664 427.57571 
L 654.129664 426.761052 
L 683.284548 426.761052 
L 683.284548 425.327253 
L 696.242274 425.327253 
L 696.242274 425.327253 
" clip-path="url(#p88333173da)" style="fill: none; stroke: #add8e6; stroke-width: 1.5; stroke-linecap: square"/>
   </g>
   <g id="line2d_29">
    <path d="M 106.665736 455.7 
L 122.862894 455.7 
L 122.862894 452.571712 
L 190.890956 452.571712 
L 190.890956 450.991274 
L 203.848682 450.991274 
L 203.848682 447.062991 
L 268.637313 447.062991 
L 268.637313 444.956285 
L 305.890775 444.956285 
L 305.890775 444.143256 
L 338.28509 444.143256 
L 338.28509 439.704996 
L 369.05969 439.704996 
L 369.05969 438.33637 
L 390.115995 438.33637 
L 390.115995 437.130676 
L 438.707468 437.130676 
L 438.707468 436.391618 
L 458.144057 436.391618 
L 458.144057 434.273506 
L 615.256486 434.273506 
L 615.256486 429.190037 
L 654.129664 429.190037 
L 654.129664 428.337253 
L 673.566253 428.337253 
L 673.566253 426.070547 
L 696.242274 426.070547 
L 696.242274 426.070547 
" clip-path="url(#p88333173da)" style="fill: none; stroke: #ffc0cb; stroke-width: 1.5; stroke-linecap: square"/>
   </g>
   <g id="line2d_30">
    <path d="M 106.665736 455.7 
L 116.384031 455.7 
L 116.384031 450.616531 
L 135.82062 450.616531 
L 135.82062 446.689878 
L 152.017778 446.689878 
L 152.017778 441.606409 
L 182.792377 441.606409 
L 182.792377 436.522941 
L 213.566977 436.522941 
L 213.566977 435.878709 
L 231.38385 435.878709 
L 231.38385 430.79524 
L 288.073902 430.79524 
L 288.073902 425.711772 
L 349.623101 425.711772 
L 349.623101 421.628704 
L 357.72168 421.628704 
L 357.72168 416.545235 
L 372.299121 416.545235 
L 372.299121 411.52368 
L 399.834289 411.52368 
L 399.834289 410.118883 
L 432.228605 410.118883 
L 432.228605 408.326635 
L 461.383488 408.326635 
L 461.383488 403.460843 
L 479.200362 403.460843 
L 479.200362 398.429513 
L 498.636951 398.429513 
L 498.636951 397.40956 
L 505.115814 397.40956 
L 505.115814 392.326092 
L 558.566434 392.326092 
L 558.566434 387.242623 
L 578.003023 387.242623 
L 578.003023 382.159155 
L 587.721318 382.159155 
L 587.721318 377.075686 
L 607.157907 377.075686 
L 607.157907 375.670889 
L 624.97478 375.670889 
L 624.97478 371.597597 
L 633.073359 371.597597 
L 633.073359 371.209168 
L 639.552222 371.209168 
L 639.552222 366.125699 
L 657.369096 366.125699 
L 657.369096 365.157233 
L 668.707106 365.157233 
L 668.707106 362.87619 
L 678.425401 362.87619 
L 678.425401 362.87619 
L 697.86199 362.87619 
L 697.86199 362.87619 
" clip-path="url(#p88333173da)" style="fill: none; stroke: #800080; stroke-width: 1.5; stroke-linecap: square"/>
   </g>
   <g id="line2d_31">
    <path d="M 106.665736 455.7 
L 118.003747 455.7 
L 118.003747 454.559478 
L 137.440336 454.559478 
L 137.440336 449.47601 
L 143.919199 449.47601 
L 143.919199 447.846693 
L 161.736072 447.846693 
L 161.736072 442.763224 
L 181.172661 442.763224 
L 181.172661 437.679756 
L 207.088114 437.679756 
L 207.088114 432.596287 
L 218.426124 432.596287 
L 218.426124 427.512818 
L 223.285271 427.512818 
L 223.285271 422.42935 
L 239.482429 422.42935 
L 239.482429 417.345881 
L 262.15845 417.345881 
L 262.15845 412.262413 
L 288.073902 412.262413 
L 288.073902 408.026189 
L 297.792196 408.026189 
L 297.792196 402.94272 
L 305.890775 402.94272 
L 305.890775 397.859252 
L 313.989354 397.859252 
L 313.989354 392.775783 
L 323.707649 392.775783 
L 323.707649 387.744453 
L 341.524522 387.744453 
L 341.524522 382.660984 
L 354.482248 382.660984 
L 354.482248 381.576511 
L 359.341395 381.576511 
L 359.341395 379.295467 
L 377.158269 379.295467 
L 377.158269 377.884153 
L 398.214574 377.884153 
L 398.214574 377.884153 
L 495.397519 377.884153 
L 495.397519 377.167254 
L 521.312972 377.167254 
L 521.312972 372.846305 
L 524.552403 372.846305 
L 524.552403 368.766822 
L 615.256486 368.766822 
L 615.256486 364.530598 
L 618.495917 364.530598 
L 618.495917 359.435724 
L 636.312791 359.435724 
L 636.312791 359.232385 
L 649.270517 359.232385 
L 649.270517 354.507367 
L 660.608527 354.507367 
L 660.608527 354.401461 
L 675.185969 354.401461 
L 675.185969 349.317992 
L 676.805685 349.317992 
L 676.805685 347.851607 
L 680.045116 347.851607 
L 680.045116 346.877602 
L 696.242274 346.877602 
L 696.242274 346.877602 
" clip-path="url(#p88333173da)" style="fill: none; stroke: #ffa500; stroke-width: 1.5; stroke-linecap: square"/>
   </g>
   <g id="line2d_32">
    <path d="M 106.665736 455.7 
L 114.764315 455.7 
L 114.764315 450.974981 
L 126.102326 450.974981 
L 126.102326 450.974981 
L 135.82062 450.974981 
L 135.82062 446.249962 
L 155.257209 446.249962 
L 155.257209 445.531434 
L 158.496641 445.531434 
L 158.496641 445.531434 
L 160.116357 445.531434 
L 160.116357 440.806415 
L 189.27124 440.806415 
L 189.27124 436.374673 
L 195.750103 436.374673 
L 195.750103 431.568188 
L 205.468398 431.568188 
L 205.468398 427.038687 
L 215.186693 427.038687 
L 215.186693 422.424462 
L 231.38385 422.424462 
L 231.38385 417.129182 
L 252.440155 417.129182 
L 252.440155 417.129182 
L 263.778165 417.129182 
L 263.778165 412.892958 
L 278.355607 412.892958 
L 278.355607 412.892958 
L 284.83447 412.892958 
L 284.83447 407.597679 
L 294.552765 407.597679 
L 294.552765 403.361455 
L 297.792196 403.361455 
L 297.792196 398.066175 
L 309.130207 398.066175 
L 309.130207 392.770895 
L 320.468217 392.770895 
L 320.468217 387.475615 
L 322.087933 387.475615 
L 322.087933 382.180336 
L 328.566796 382.180336 
L 328.566796 376.885056 
L 339.904806 376.885056 
L 339.904806 376.885056 
L 362.580827 376.885056 
L 362.580827 375.549016 
L 377.158269 375.549016 
L 377.158269 370.253736 
L 378.777984 370.253736 
L 378.777984 368.950283 
L 380.3977 368.950283 
L 380.3977 368.722178 
L 396.594858 368.722178 
L 396.594858 367.581657 
L 409.552584 367.581657 
L 409.552584 362.286377 
L 416.031447 362.286377 
L 416.031447 357.691703 
L 422.51031 357.691703 
L 422.51031 356.8223 
L 425.749742 356.8223 
L 425.749742 351.52702 
L 433.84832 351.52702 
L 433.84832 346.932347 
L 437.087752 346.932347 
L 437.087752 341.637067 
L 454.904625 341.637067 
L 454.904625 341.415806 
L 464.62292 341.415806 
L 464.62292 336.201992 
L 467.862351 336.201992 
L 467.862351 331.607318 
L 479.200362 331.607318 
L 479.200362 326.312038 
L 493.777804 326.312038 
L 493.777804 320.87012 
L 498.636951 320.87012 
L 498.636951 316.24286 
L 506.73553 316.24286 
L 506.73553 311.029046 
L 516.453824 311.029046 
L 516.453824 307.138889 
L 529.41155 307.138889 
L 529.41155 301.696971 
L 537.510129 301.696971 
L 537.510129 296.450571 
L 555.327003 296.450571 
L 555.327003 292.214347 
L 555.327003 292.214347 
L 555.327003 286.967947 
L 560.18615 286.967947 
L 560.18615 284.572851 
L 571.52416 284.572851 
L 571.52416 283.106466 
L 579.622739 283.106466 
L 579.622739 277.664548 
L 592.580465 277.664548 
L 592.580465 272.320388 
L 599.059328 272.320388 
L 599.059328 271.098401 
L 602.29876 271.098401 
L 602.29876 269.632016 
L 616.876202 269.632016 
L 616.876202 267.481317 
L 634.693075 267.481317 
L 634.693075 265.689069 
L 639.552222 265.689069 
L 639.552222 264.539423 
L 658.988811 264.539423 
L 658.988811 262.584243 
L 663.847959 262.584243 
L 663.847959 262.258379 
L 671.946537 262.258379 
L 671.946537 261.54148 
L 671.946537 261.54148 
L 671.946537 260.20544 
L 673.566253 260.20544 
L 673.566253 254.763522 
L 691.383127 254.763522 
L 691.383127 249.321603 
L 694.622558 249.321603 
L 694.622558 249.191258 
L 696.242274 249.191258 
L 696.242274 249.191258 
" clip-path="url(#p88333173da)" style="fill: none; stroke: #0000ff; stroke-width: 1.5; stroke-linecap: square"/>
   </g>
   <g id="line2d_33">
    <path d="M 106.665736 455.7 
L 121.243178 455.7 
L 121.243178 453.74482 
L 129.341757 453.74482 
L 129.341757 452.522832 
L 134.200904 452.522832 
L 134.200904 451.104675 
L 135.82062 451.104675 
L 135.82062 446.216724 
L 147.15863 446.216724 
L 147.15863 440.546702 
L 155.257209 440.546702 
L 155.257209 435.593578 
L 158.496641 435.593578 
L 158.496641 430.216833 
L 166.59522 430.216833 
L 166.59522 428.865803 
L 174.693798 428.865803 
L 174.693798 423.29354 
L 182.792377 423.29354 
L 182.792377 418.112312 
L 184.412093 418.112312 
L 184.412093 416.329839 
L 198.989535 416.329839 
L 198.989535 411.34413 
L 203.848682 411.34413 
L 203.848682 407.107906 
L 205.468398 407.107906 
L 205.468398 401.926678 
L 215.186693 401.926678 
L 215.186693 399.971498 
L 224.904987 399.971498 
L 224.904987 399.042136 
L 228.144419 399.042136 
L 228.144419 391.482106 
L 239.482429 391.482106 
L 239.482429 385.812083 
L 247.581008 385.812083 
L 247.581008 380.14206 
L 262.15845 380.14206 
L 262.15845 378.321136 
L 281.595039 378.321136 
L 281.595039 373.335426 
L 294.552765 373.335426 
L 294.552765 368.740753 
L 296.172481 368.740753 
L 296.172481 367.404713 
L 301.031628 367.404713 
L 301.031628 365.319187 
L 305.890775 365.319187 
L 305.890775 359.649165 
L 315.60907 359.649165 
L 315.60907 354.467937 
L 322.087933 354.467937 
L 322.087933 348.797914 
L 330.186512 348.797914 
L 330.186512 343.551514 
L 331.806227 343.551514 
L 331.806227 341.400816 
L 333.425943 341.400816 
L 333.425943 337.164592 
L 343.144238 337.164592 
L 343.144238 335.698207 
L 349.623101 335.698207 
L 349.623101 330.354048 
L 356.101964 330.354048 
L 356.101964 325.107647 
L 357.72168 325.107647 
L 357.72168 322.003799 
L 369.05969 322.003799 
L 369.05969 316.65964 
L 369.05969 316.65964 
L 378.777984 316.65964 
L 378.777984 315.167185 
L 385.256848 315.167185 
L 385.256848 310.442166 
L 386.876563 310.442166 
L 386.876563 304.772144 
L 399.834289 304.772144 
L 399.834289 304.068279 
L 409.552584 304.068279 
L 409.552584 299.212915 
L 414.411731 299.212915 
L 414.411731 293.966514 
L 424.130026 293.966514 
L 424.130026 288.524596 
L 430.608889 288.524596 
L 430.608889 284.614236 
L 437.087752 284.614236 
L 437.087752 279.367835 
L 443.566615 279.367835 
L 443.566615 274.121435 
L 445.186331 274.121435 
L 445.186331 271.123492 
L 453.28491 271.123492 
L 453.28491 269.473646 
L 459.763773 269.473646 
L 459.763773 264.227246 
L 461.383488 264.227246 
L 461.383488 260.316885 
L 466.242636 260.316885 
L 466.242636 255.070485 
L 475.96093 255.070485 
L 475.96093 249.824085 
L 484.059509 249.824085 
L 484.059509 244.838375 
L 490.538372 244.838375 
L 490.538372 240.602151 
L 492.158088 240.602151 
L 492.158088 235.355751 
L 500.256667 235.355751 
L 500.256667 230.109351 
L 505.115814 230.109351 
L 505.115814 225.123641 
L 513.214393 225.123641 
L 513.214393 219.877241 
L 518.07354 219.877241 
L 518.07354 214.891531 
L 524.552403 214.891531 
L 524.552403 209.645131 
L 531.031266 209.645131 
L 531.031266 204.398731 
L 537.510129 204.398731 
L 537.510129 199.152331 
L 539.129845 199.152331 
L 539.129845 194.166621 
L 547.228424 194.166621 
L 547.228424 188.920221 
L 555.327003 188.920221 
L 555.327003 183.673821 
L 561.805866 183.673821 
L 561.805866 178.688111 
L 568.284729 178.688111 
L 568.284729 172.591859 
L 576.383307 172.591859 
L 576.383307 167.345459 
L 581.242455 167.345459 
L 581.242455 162.359749 
L 582.862171 162.359749 
L 582.862171 156.885245 
L 594.200181 156.885245 
L 594.200181 151.638844 
L 595.819897 151.638844 
L 595.819897 146.16434 
L 603.918475 146.16434 
L 603.918475 140.689835 
L 610.397339 140.689835 
L 610.397339 135.21533 
L 613.63677 135.21533 
L 613.63677 132.111482 
L 616.876202 132.111482 
L 616.876202 130.775442 
L 626.594496 130.775442 
L 626.594496 125.300937 
L 629.833928 125.300937 
L 629.833928 120.054537 
L 633.073359 120.054537 
L 633.073359 114.580032 
L 642.791654 114.580032 
L 642.791654 109.105528 
L 647.650801 109.105528 
L 647.650801 108.844837 
L 650.890233 108.844837 
L 650.890233 103.370333 
L 657.369096 103.370333 
L 657.369096 97.895828 
L 658.988811 97.895828 
L 658.988811 92.649428 
L 676.805685 92.649428 
L 676.805685 87.174923 
L 683.284548 87.174923 
L 683.284548 81.700418 
L 684.904264 81.700418 
L 684.904264 80.52731 
L 693.002842 80.52731 
L 693.002842 72.983573 
L 696.242274 72.983573 
L 696.242274 72.983573 
" clip-path="url(#p88333173da)" style="fill: none; stroke: #008000; stroke-width: 1.5; stroke-linecap: square"/>
   </g>
   <g id="line2d_34">
    <path d="M 106.665736 455.7 
L 109.905168 455.7 
L 109.905168 449.638941 
L 116.384031 449.638941 
L 116.384031 444.066678 
L 127.722041 444.066678 
L 127.722041 438.624759 
L 129.341757 438.624759 
L 129.341757 433.052496 
L 134.200904 433.052496 
L 134.200904 428.816272 
L 143.919199 428.816272 
L 143.919199 423.374354 
L 152.017778 423.374354 
L 152.017778 412.360172 
L 153.637494 412.360172 
L 153.637494 411.146005 
L 168.214935 411.146005 
L 168.214935 410.593992 
L 171.454367 410.593992 
L 171.454367 405.152074 
L 179.552946 405.152074 
L 179.552946 399.080914 
L 187.651525 399.080914 
L 187.651525 397.77746 
L 192.510672 397.77746 
L 192.510672 392.335542 
L 195.750103 392.335542 
L 195.750103 386.632933 
L 202.228966 386.632933 
L 202.228966 381.060669 
L 208.707829 381.060669 
L 208.707829 371.252182 
L 218.426124 371.252182 
L 218.426124 365.679918 
L 220.04584 365.679918 
L 220.04584 360.107654 
L 228.144419 360.107654 
L 228.144419 354.535391 
L 233.003566 354.535391 
L 233.003566 349.288991 
L 236.242997 349.288991 
L 236.242997 348.402316 
L 241.102145 348.402316 
L 241.102145 342.830053 
L 242.72186 342.830053 
L 242.72186 337.257789 
L 250.820439 337.257789 
L 250.820439 335.628472 
L 252.440155 335.628472 
L 252.440155 330.056209 
L 255.679587 330.056209 
L 255.679587 324.61429 
L 260.538734 324.61429 
L 260.538734 319.042027 
L 263.778165 319.042027 
L 263.778165 313.567522 
L 263.778165 313.567522 
L 268.637313 313.567522 
L 268.637313 307.995258 
L 270.257028 307.995258 
L 270.257028 307.604222 
L 273.49646 307.604222 
L 273.49646 302.031959 
L 279.975323 302.031959 
L 279.975323 296.459695 
L 281.595039 296.459695 
L 281.595039 290.887431 
L 289.693618 290.887431 
L 289.693618 285.315168 
L 297.792196 285.315168 
L 297.792196 279.221523 
L 304.271059 279.221523 
L 304.271059 278.732728 
L 305.890775 278.732728 
L 305.890775 273.160464 
L 310.749922 273.160464 
L 310.749922 267.5882 
L 313.989354 267.5882 
L 313.989354 262.015937 
L 317.228786 262.015937 
L 317.228786 256.704364 
L 322.087933 256.704364 
L 322.087933 251.1321 
L 323.707649 251.1321 
L 323.707649 245.820527 
L 330.186512 245.820527 
L 330.186512 240.248264 
L 338.28509 240.248264 
L 338.28509 234.676 
L 339.904806 234.676 
L 339.904806 229.103736 
L 346.383669 229.103736 
L 346.383669 222.765694 
L 352.862532 222.765694 
L 352.862532 217.19343 
L 359.341395 217.19343 
L 359.341395 211.881857 
L 364.200543 211.881857 
L 364.200543 201.128366 
L 382.017416 201.128366 
L 382.017416 195.816793 
L 383.637132 195.816793 
L 383.637132 194.187476 
L 388.496279 194.187476 
L 388.496279 188.745558 
L 390.115995 188.745558 
L 390.115995 183.433985 
L 391.735711 183.433985 
L 391.735711 181.804668 
L 394.975142 181.804668 
L 394.975142 176.232405 
L 404.693437 176.232405 
L 404.693437 170.920832 
L 412.792016 170.920832 
L 412.792016 169.535912 
L 419.270879 169.535912 
L 419.270879 164.224339 
L 443.566615 164.224339 
L 443.566615 158.652076 
L 445.186331 158.652076 
L 445.186331 147.703066 
L 453.28491 147.703066 
L 453.28491 142.130803 
L 456.524341 142.130803 
L 456.524341 135.301684 
L 466.242636 135.301684 
L 466.242636 129.924939 
L 469.482067 129.924939 
L 469.482067 121.996683 
L 474.341214 121.996683 
L 474.341214 121.507888 
L 482.439793 121.507888 
L 482.439793 116.065969 
L 495.397519 116.065969 
L 495.397519 110.624051 
L 500.256667 110.624051 
L 500.256667 99.740215 
L 508.355245 99.740215 
L 508.355245 94.298296 
L 516.453824 94.298296 
L 516.453824 90.062073 
L 519.693256 90.062073 
L 519.693256 87.618097 
L 521.312972 87.618097 
L 521.312972 82.176179 
L 527.791835 82.176179 
L 527.791835 81.654798 
L 532.650982 81.654798 
L 532.650982 76.343225 
L 540.749561 76.343225 
L 540.749561 71.031652 
L 545.608708 71.031652 
L 545.608708 66.795428 
L 560.18615 66.795428 
L 560.18615 66.434371 
L 571.52416 66.434371 
L 571.52416 64.45801 
L 573.143876 64.45801 
L 573.143876 53.574173 
L 578.003023 53.574173 
L 578.003023 48.2626 
L 581.242455 48.2626 
L 581.242455 48.2626 
L 581.242455 47.3 
L 581.242455 47.3 
" clip-path="url(#p88333173da)" style="fill: none; stroke: #ff0000; stroke-width: 1.5; stroke-linecap: square"/>
   </g>
   <g id="patch_3">
    <path d="M 82.37 476.12 
L 82.37 26.88 
" style="fill: none; stroke: #000000; stroke-width: 0.8; stroke-linejoin: miter; stroke-linecap: square"/>
   </g>
   <g id="patch_4">
    <path d="M 709.2 476.12 
L 709.2 26.88 
" style="fill: none; stroke: #000000; stroke-width: 0.8; stroke-linejoin: miter; stroke-linecap: square"/>
   </g>
   <g id="patch_5">
    <path d="M 82.37 476.12 
L 709.2 476.12 
" style="fill: none; stroke: #000000; stroke-width: 0.8; stroke-linejoin: miter; stroke-linecap: square"/>
   </g>
   <g id="patch_6">
    <path d="M 82.37 26.88 
L 709.2 26.88 
" style="fill: none; stroke: #000000; stroke-width: 0.8; stroke-linejoin: miter; stroke-linecap: square"/>
   </g>
   <g id="text_15">
    <!-- Cumulative Payload Mass to Orbit By Year -->
    <g transform="translate(270.179688 20.88) scale(0.12 -0.12)">
     <defs>
      <path id="DejaVuSans-4f" d="M 2522 4238 
Q 1834 4238 1429 3725 
Q 1025 3213 1025 2328 
Q 1025 1447 1429 934 
Q 1834 422 2522 422 
Q 3209 422 3611 934 
Q 4013 1447 4013 2328 
Q 4013 3213 3611 3725 
Q 3209 4238 2522 4238 
z
M 2522 4750 
Q 3503 4750 4090 4092 
Q 4678 3434 4678 2328 
Q 4678 1225 4090 567 
Q 3503 -91 2522 -91 
Q 1538 -91 948 565 
Q 359 1222 359 2328 
Q 359 3434 948 4092 
Q 1538 4750 2522 4750 
z
" transform="scale(0.015625)"/>
      <path id="DejaVuSans-62" d="M 3116 1747 
Q 3116 2381 2855 2742 
Q 2594 3103 2138 3103 
Q 1681 3103 1420 2742 
Q 1159 2381 1159 1747 
Q 1159 1113 1420 752 
Q 1681 391 2138 391 
Q 2594 391 2855 752 
Q 3116 1113 3116 1747 
z
M 1159 2969 
Q 1341 3281 1617 3432 
Q 1894 3584 2278 3584 
Q 2916 3584 3314 3078 
Q 3713 2572 3713 1747 
Q 3713 922 3314 415 
Q 2916 -91 2278 -91 
Q 1894 -91 1617 61 
Q 1341 213 1159 525 
L 1159 0 
L 581 0 
L 581 4863 
L 1159 4863 
L 1159 2969 
z
" transform="scale(0.015625)"/>
      <path id="DejaVuSans-42" d="M 1259 2228 
L 1259 519 
L 2272 519 
Q 2781 519 3026 730 
Q 3272 941 3272 1375 
Q 3272 1813 3026 2020 
Q 2781 2228 2272 2228 
L 1259 2228 
z
M 1259 4147 
L 1259 2741 
L 2194 2741 
Q 2656 2741 2882 2914 
Q 3109 3088 3109 3444 
Q 3109 3797 2882 3972 
Q 2656 4147 2194 4147 
L 1259 4147 
z
M 628 4666 
L 2241 4666 
Q 2963 4666 3353 4366 
Q 3744 4066 3744 3513 
Q 3744 3084 3544 2831 
Q 3344 2578 2956 2516 
Q 3422 2416 3680 2098 
Q 3938 1781 3938 1306 
Q 3938 681 3513 340 
Q 3088 0 2303 0 
L 628 0 
L 628 4666 
z
" transform="scale(0.015625)"/>
      <path id="DejaVuSans-59" d="M -13 4666 
L 666 4666 
L 1959 2747 
L 3244 4666 
L 3922 4666 
L 2272 2222 
L 2272 0 
L 1638 0 
L 1638 2222 
L -13 4666 
z
" transform="scale(0.015625)"/>
     </defs>
     <use xlink:href="#DejaVuSans-43"/>
     <use xlink:href="#DejaVuSans-75" x="69.824219"/>
     <use xlink:href="#DejaVuSans-6d" x="133.203125"/>
     <use xlink:href="#DejaVuSans-75" x="230.615234"/>
     <use xlink:href="#DejaVuSans-6c" x="293.994141"/>
     <use xlink:href="#DejaVuSans-61" x="321.777344"/>
     <use xlink:href="#DejaVuSans-74" x="383.056641"/>
     <use xlink:href="#DejaVuSans-69" x="422.265625"/>
     <use xlink:href="#DejaVuSans-76" x="450.048828"/>
     <use xlink:href="#DejaVuSans-65" x="509.228516"/>
     <use xlink:href="#DejaVuSans-20" x="570.751953"/>
     <use xlink:href="#DejaVuSans-50" x="602.539062"/>
     <use xlink:href="#DejaVuSans-61" x="658.341797"/>
     <use xlink:href="#DejaVuSans-79" x="719.621094"/>
     <use xlink:href="#DejaVuSans-6c" x="778.800781"/>
     <use xlink:href="#DejaVuSans-6f" x="806.583984"/>
     <use xlink:href="#DejaVuSans-61" x="867.765625"/>
     <use xlink:href="#DejaVuSans-64" x="929.044922"/>
     <use xlink:href="#DejaVuSans-20" x="992.521484"/>
     <use xlink:href="#DejaVuSans-4d" x="1024.308594"/>
     <use xlink:href="#DejaVuSans-61" x="1110.587891"/>
     <use xlink:href="#DejaVuSans-73" x="1171.867188"/>
     <use xlink:href="#DejaVuSans-73" x="1223.966797"/>
     <use xlink:href="#DejaVuSans-20" x="1276.066406"/>
     <use xlink:href="#DejaVuSans-74" x="1307.853516"/>
     <use xlink:href="#DejaVuSans-6f" x="1347.0625"/>
     <use xlink:href="#DejaVuSans-20" x="1408.244141"/>
     <use xlink:href="#DejaVuSans-4f" x="1440.03125"/>
     <use xlink:href="#DejaVuSans-72" x="1518.742188"/>
     <use xlink:href="#DejaVuSans-62" x="1559.855469"/>
     <use xlink:href="#DejaVuSans-69" x="1623.332031"/>
     <use xlink:href="#DejaVuSans-74" x="1651.115234"/>
     <use xlink:href="#DejaVuSans-20" x="1690.324219"/>
     <use xlink:href="#DejaVuSans-42" x="1722.111328"/>
     <use xlink:href="#DejaVuSans-79" x="1790.714844"/>
     <use xlink:href="#DejaVuSans-20" x="1849.894531"/>
     <use xlink:href="#DejaVuSans-59" x="1881.681641"/>
     <use xlink:href="#DejaVuSans-65" x="1929.515625"/>
     <use xlink:href="#DejaVuSans-61" x="1991.039062"/>
     <use xlink:href="#DejaVuSans-72" x="2052.318359"/>
    </g>
   </g>
   <g id="legend_1">
    <g id="patch_7">
     <path d="M 89.37 166.983125 
L 146.82 166.983125 
Q 148.82 166.983125 148.82 164.983125 
L 148.82 33.88 
Q 148.82 31.88 146.82 31.88 
L 89.37 31.88 
Q 87.37 31.88 87.37 33.88 
L 87.37 164.983125 
Q 87.37 166.983125 89.37 166.983125 
z
" style="fill: #ffffff; opacity: 0.8; stroke: #cccccc; stroke-linejoin: miter"/>
    </g>
    <g id="text_16">
     <!-- Year -->
     <g transform="translate(107.5075 43.478437) scale(0.1 -0.1)">
      <use xlink:href="#DejaVuSans-59"/>
      <use xlink:href="#DejaVuSans-65" x="47.833984"/>
      <use xlink:href="#DejaVuSans-61" x="109.357422"/>
      <use xlink:href="#DejaVuSans-72" x="170.636719"/>
     </g>
    </g>
    <g id="line2d_35">
     <path d="M 91.37 54.656562 
L 101.37 54.656562 
L 101.37 54.656562 
L 111.37 54.656562 
L 111.37 54.656562 
" style="fill: none; stroke: #90ee90; stroke-width: 1.5; stroke-linecap: square"/>
    </g>
    <g id="text_17">
     <!-- 2017 -->
     <g transform="translate(119.37 58.156562) scale(0.1 -0.1)">
      <defs>
       <path id="DejaVuSans-37" d="M 525 4666 
L 3525 4666 
L 3525 4397 
L 1831 0 
L 1172 0 
L 2766 4134 
L 525 4134 
L 525 4666 
z
" transform="scale(0.015625)"/>
      </defs>
      <use xlink:href="#DejaVuSans-32"/>
      <use xlink:href="#DejaVuSans-30" x="63.623047"/>
      <use xlink:href="#DejaVuSans-31" x="127.246094"/>
      <use xlink:href="#DejaVuSans-37" x="190.869141"/>
     </g>
    </g>
    <g id="line2d_36">
     <path d="M 91.37 69.334687 
L 101.37 69.334687 
L 101.37 69.334687 
L 111.37 69.334687 
L 111.37 69.334687 
" style="fill: none; stroke: #add8e6; stroke-width: 1.5; stroke-linecap: square"/>
    </g>
    <g id="text_18">
     <!-- 2018 -->
     <g transform="translate(119.37 72.834687) scale(0.1 -0.1)">
      <use xlink:href="#DejaVuSans-32"/>
      <use xlink:href="#DejaVuSans-30" x="63.623047"/>
      <use xlink:href="#DejaVuSans-31" x="127.246094"/>
      <use xlink:href="#DejaVuSans-38" x="190.869141"/>
     </g>
    </g>
    <g id="line2d_37">
     <path d="M 91.37 84.012812 
L 101.37 84.012812 
L 101.37 84.012812 
L 111.37 84.012812 
L 111.37 84.012812 
" style="fill: none; stroke: #ffc0cb; stroke-width: 1.5; stroke-linecap: square"/>
    </g>
    <g id="text_19">
     <!-- 2019 -->
     <g transform="translate(119.37 87.512812) scale(0.1 -0.1)">
      <defs>
       <path id="DejaVuSans-39" d="M 703 97 
L 703 672 
Q 941 559 1184 500 
Q 1428 441 1663 441 
Q 2288 441 2617 861 
Q 2947 1281 2994 2138 
Q 2813 1869 2534 1725 
Q 2256 1581 1919 1581 
Q 1219 1581 811 2004 
Q 403 2428 403 3163 
Q 403 3881 828 4315 
Q 1253 4750 1959 4750 
Q 2769 4750 3195 4129 
Q 3622 3509 3622 2328 
Q 3622 1225 3098 567 
Q 2575 -91 1691 -91 
Q 1453 -91 1209 -44 
Q 966 3 703 97 
z
M 1959 2075 
Q 2384 2075 2632 2365 
Q 2881 2656 2881 3163 
Q 2881 3666 2632 3958 
Q 2384 4250 1959 4250 
Q 1534 4250 1286 3958 
Q 1038 3666 1038 3163 
Q 1038 2656 1286 2365 
Q 1534 2075 1959 2075 
z
" transform="scale(0.015625)"/>
      </defs>
      <use xlink:href="#DejaVuSans-32"/>
      <use xlink:href="#DejaVuSans-30" x="63.623047"/>
      <use xlink:href="#DejaVuSans-31" x="127.246094"/>
      <use xlink:href="#DejaVuSans-39" x="190.869141"/>
     </g>
    </g>
    <g id="line2d_38">
     <path d="M 91.37 98.690937 
L 101.37 98.690937 
L 101.37 98.690937 
L 111.37 98.690937 
L 111.37 98.690937 
" style="fill: none; stroke: #800080; stroke-width: 1.5; stroke-linecap: square"/>
    </g>
    <g id="text_20">
     <!-- 2020 -->
     <g transform="translate(119.37 102.190937) scale(0.1 -0.1)">
      <use xlink:href="#DejaVuSans-32"/>
      <use xlink:href="#DejaVuSans-30" x="63.623047"/>
      <use xlink:href="#DejaVuSans-32" x="127.246094"/>
      <use xlink:href="#DejaVuSans-30" x="190.869141"/>
     </g>
    </g>
    <g id="line2d_39">
     <path d="M 91.37 113.369062 
L 101.37 113.369062 
L 101.37 113.369062 
L 111.37 113.369062 
L 111.37 113.369062 
" style="fill: none; stroke: #ffa500; stroke-width: 1.5; stroke-linecap: square"/>
    </g>
    <g id="text_21">
     <!-- 2021 -->
     <g transform="translate(119.37 116.869062) scale(0.1 -0.1)">
      <use xlink:href="#DejaVuSans-32"/>
      <use xlink:href="#DejaVuSans-30" x="63.623047"/>
      <use xlink:href="#DejaVuSans-32" x="127.246094"/>
      <use xlink:href="#DejaVuSans-31" x="190.869141"/>
     </g>
    </g>
    <g id="line2d_40">
     <path d="M 91.37 128.047187 
L 101.37 128.047187 
L 101.37 128.047187 
L 111.37 128.047187 
L 111.37 128.047187 
" style="fill: none; stroke: #0000ff; stroke-width: 1.5; stroke-linecap: square"/>
    </g>
    <g id="text_22">
     <!-- 2022 -->
     <g transform="translate(119.37 131.547187) scale(0.1 -0.1)">
      <use xlink:href="#DejaVuSans-32"/>
      <use xlink:href="#DejaVuSans-30" x="63.623047"/>
      <use xlink:href="#DejaVuSans-32" x="127.246094"/>
      <use xlink:href="#DejaVuSans-32" x="190.869141"/>
     </g>
    </g>
    <g id="line2d_41">
     <path d="M 91.37 142.725312 
L 101.37 142.725312 
L 101.37 142.725312 
L 111.37 142.725312 
L 111.37 142.725312 
" style="fill: none; stroke: #008000; stroke-width: 1.5; stroke-linecap: square"/>
    </g>
    <g id="text_23">
     <!-- 2023 -->
     <g transform="translate(119.37 146.225312) scale(0.1 -0.1)">
      <defs>
       <path id="DejaVuSans-33" d="M 2597 2516 
Q 3050 2419 3304 2112 
Q 3559 1806 3559 1356 
Q 3559 666 3084 287 
Q 2609 -91 1734 -91 
Q 1441 -91 1130 -33 
Q 819 25 488 141 
L 488 750 
Q 750 597 1062 519 
Q 1375 441 1716 441 
Q 2309 441 2620 675 
Q 2931 909 2931 1356 
Q 2931 1769 2642 2001 
Q 2353 2234 1838 2234 
L 1294 2234 
L 1294 2753 
L 1863 2753 
Q 2328 2753 2575 2939 
Q 2822 3125 2822 3475 
Q 2822 3834 2567 4026 
Q 2313 4219 1838 4219 
Q 1578 4219 1281 4162 
Q 984 4106 628 3988 
L 628 4550 
Q 988 4650 1302 4700 
Q 1616 4750 1894 4750 
Q 2613 4750 3031 4423 
Q 3450 4097 3450 3541 
Q 3450 3153 3228 2886 
Q 3006 2619 2597 2516 
z
" transform="scale(0.015625)"/>
      </defs>
      <use xlink:href="#DejaVuSans-32"/>
      <use xlink:href="#DejaVuSans-30" x="63.623047"/>
      <use xlink:href="#DejaVuSans-32" x="127.246094"/>
      <use xlink:href="#DejaVuSans-33" x="190.869141"/>
     </g>
    </g>
    <g id="line2d_42">
     <path d="M 91.37 157.403437 
L 101.37 157.403437 
L 101.37 157.403437 
L 111.37 157.403437 
L 111.37 157.403437 
" style="fill: none; stroke: #ff0000; stroke-width: 1.5; stroke-linecap: square"/>
    </g>
    <g id="text_24">
     <!-- 2024 -->
     <g transform="translate(119.37 160.903437) scale(0.1 -0.1)">
      <use xlink:href="#DejaVuSans-32"/>
      <use xlink:href="#DejaVuSans-30" x="63.623047"/>
      <use xlink:href="#DejaVuSans-32" x="127.246094"/>
      <use xlink:href="#DejaVuSans-34" x="190.869141"/>
     </g>
    </g>
   </g>
  </g>
 </g>
 <defs>
  <clipPath id="p88333173da">
   <rect x="82.37" y="26.88" width="626.83" height="449.24"/>
  </clipPath>
 </defs>
</svg>
