<?xml version="1.0" encoding="utf-8" standalone="no"?>
<!DOCTYPE svg PUBLIC "-//W3C//DTD SVG 1.1//EN"
  "http://www.w3.org/Graphics/SVG/1.1/DTD/svg11.dtd">
<svg xmlns:xlink="http://www.w3.org/1999/xlink" width="720pt" height="504pt" viewBox="0 0 720 504" xmlns="http://www.w3.org/2000/svg" version="1.1">
 <metadata>
  <rdf:RDF xmlns:dc="http://purl.org/dc/elements/1.1/" xmlns:cc="http://creativecommons.org/ns#" xmlns:rdf="http://www.w3.org/1999/02/22-rdf-syntax-ns#">
   <cc:Work>
    <dc:type rdf:resource="http://purl.org/dc/dcmitype/StillImage"/>
    <dc:date>2025-11-12T11:26:04.531628</dc:date>
    <dc:format>image/svg+xml</dc:format>
    <dc:creator>
     <cc:Agent>
      <dc:title>Matplotlib v3.8.2, https://matplotlib.org/</dc:title>
     </cc:Agent>
    </dc:creator>
   </cc:Work>
  </rdf:RDF>
 </metadata>
 <defs>
  <style type="text/css">*{stroke-linejoin: round; stroke-linecap: butt}</style>
 </defs>
 <g id="figure_1">
  <g id="patch_1">
   <path d="M 0 504 
L 720 504 
L 720 0 
L 0 0 
z
" style="fill: #ffffff"/>
  </g>
  <g id="axes_1">
   <g id="patch_2">
    <path d="M 82.37 476.12 
L 709.2 476.12 
L 709.2 26.88 
L 82.37 26.88 
z
" style="fill: #ffffff"/>
   </g>
   <g id="matplotlib.axis_1">
    <g id="xtick_1">
     <g id="line2d_1">
      <path d="M 106.728679 476.12 
L 106.728679 26.88 
" clip-path="url(#p74c6a6df3d)" style="fill: none; stroke: #b0b0b0; stroke-width: 0.8; stroke-linecap: square"/>
     </g>
     <g id="line2d_2">
      <defs>
       <path id="m1d878d1904" d="M 0 0 
L 0 3.5 
" style="stroke: #000000; stroke-width: 0.8"/>
      </defs>
      <g>
       <use xlink:href="#m1d878d1904" x="106.728679" y="476.12" style="stroke: #000000; stroke-width: 0.8"/>
      </g>
     </g>
     <g id="text_1">
      <!-- Jan 1 -->
      <g transform="translate(94.250554 490.718437) scale(0.1 -0.1)">
       <defs>
        <path id="DejaVuSans-4a" d="M 628 4666 
L 1259 4666 
L 1259 325 
Q 1259 -519 939 -900 
Q 619 -1281 -91 -1281 
L -331 -1281 
L -331 -750 
L -134 -750 
Q 284 -750 456 -515 
Q 628 -281 628 325 
L 628 4666 
z
" transform="scale(0.015625)"/>
        <path id="DejaVuSans-61" d="M 2194 1759 
Q 1497 1759 1228 1600 
Q 959 1441 959 1056 
Q 959 750 1161 570 
Q 1363 391 1709 391 
Q 2188 391 2477 730 
Q 2766 1069 2766 1631 
L 2766 1759 
L 2194 1759 
z
M 3341 1997 
L 3341 0 
L 2766 0 
L 2766 531 
Q 2569 213 2275 61 
Q 1981 -91 1556 -91 
Q 1019 -91 701 211 
Q 384 513 384 1019 
Q 384 1609 779 1909 
Q 1175 2209 1959 2209 
L 2766 2209 
L 2766 2266 
Q 2766 2663 2505 2880 
Q 2244 3097 1772 3097 
Q 1472 3097 1187 3025 
Q 903 2953 641 2809 
L 641 3341 
Q 956 3463 1253 3523 
Q 1550 3584 1831 3584 
Q 2591 3584 2966 3190 
Q 3341 2797 3341 1997 
z
" transform="scale(0.015625)"/>
        <path id="DejaVuSans-6e" d="M 3513 2113 
L 3513 0 
L 2938 0 
L 2938 2094 
Q 2938 2591 2744 2837 
Q 2550 3084 2163 3084 
Q 1697 3084 1428 2787 
Q 1159 2491 1159 1978 
L 1159 0 
L 581 0 
L 581 3500 
L 1159 3500 
L 1159 2956 
Q 1366 3272 1645 3428 
Q 1925 3584 2291 3584 
Q 2894 3584 3203 3211 
Q 3513 2838 3513 2113 
z
" transform="scale(0.015625)"/>
        <path id="DejaVuSans-20" transform="scale(0.015625)"/>
        <path id="DejaVuSans-31" d="M 794 531 
L 1825 531 
L 1825 4091 
L 703 3866 
L 703 4441 
L 1819 4666 
L 2450 4666 
L 2450 531 
L 3481 531 
L 3481 0 
L 794 0 
L 794 531 
z
" transform="scale(0.015625)"/>
       </defs>
       <use xlink:href="#DejaVuSans-4a"/>
       <use xlink:href="#DejaVuSans-61" x="29.492188"/>
       <use xlink:href="#DejaVuSans-6e" x="90.771484"/>
       <use xlink:href="#DejaVuSans-20" x="154.150391"/>
       <use xlink:href="#DejaVuSans-31" x="185.9375"/>
      </g>
     </g>
    </g>
    <g id="xtick_2">
     <g id="line2d_3">
      <path d="M 204.163394 476.12 
L 204.163394 26.88 
" clip-path="url(#p74c6a6df3d)" style="fill: none; stroke: #b0b0b0; stroke-width: 0.8; stroke-linecap: square"/>
     </g>
     <g id="line2d_4">
      <g>
       <use xlink:href="#m1d878d1904" x="204.163394" y="476.12" style="stroke: #000000; stroke-width: 0.8"/>
      </g>
     </g>
     <g id="text_2">
      <!-- Mar 1 -->
      <g transform="translate(189.959488 490.718437) scale(0.1 -0.1)">
       <defs>
        <path id="DejaVuSans-4d" d="M 628 4666 
L 1569 4666 
L 2759 1491 
L 3956 4666 
L 4897 4666 
L 4897 0 
L 4281 0 
L 4281 4097 
L 3078 897 
L 2444 897 
L 1241 4097 
L 1241 0 
L 628 0 
L 628 4666 
z
" transform="scale(0.015625)"/>
        <path id="DejaVuSans-72" d="M 2631 2963 
Q 2534 3019 2420 3045 
Q 2306 3072 2169 3072 
Q 1681 3072 1420 2755 
Q 1159 2438 1159 1844 
L 1159 0 
L 581 0 
L 581 3500 
L 1159 3500 
L 1159 2956 
Q 1341 3275 1631 3429 
Q 1922 3584 2338 3584 
Q 2397 3584 2469 3576 
Q 2541 3569 2628 3553 
L 2631 2963 
z
" transform="scale(0.015625)"/>
       </defs>
       <use xlink:href="#DejaVuSans-4d"/>
       <use xlink:href="#DejaVuSans-61" x="86.279297"/>
       <use xlink:href="#DejaVuSans-72" x="147.558594"/>
       <use xlink:href="#DejaVuSans-20" x="188.671875"/>
       <use xlink:href="#DejaVuSans-31" x="220.458984"/>
      </g>
     </g>
    </g>
    <g id="xtick_3">
     <g id="line2d_5">
      <path d="M 303.222021 476.12 
L 303.222021 26.88 
" clip-path="url(#p74c6a6df3d)" style="fill: none; stroke: #b0b0b0; stroke-width: 0.8; stroke-linecap: square"/>
     </g>
     <g id="line2d_6">
      <g>
       <use xlink:href="#m1d878d1904" x="303.222021" y="476.12" style="stroke: #000000; stroke-width: 0.8"/>
      </g>
     </g>
     <g id="text_3">
      <!-- May 1 -->
      <g transform="translate(288.114208 490.718437) scale(0.1 -0.1)">
       <defs>
        <path id="DejaVuSans-79" d="M 2059 -325 
Q 1816 -950 1584 -1140 
Q 1353 -1331 966 -1331 
L 506 -1331 
L 506 -850 
L 844 -850 
Q 1081 -850 1212 -737 
Q 1344 -625 1503 -206 
L 1606 56 
L 191 3500 
L 800 3500 
L 1894 763 
L 2988 3500 
L 3597 3500 
L 2059 -325 
z
" transform="scale(0.015625)"/>
       </defs>
       <use xlink:href="#DejaVuSans-4d"/>
       <use xlink:href="#DejaVuSans-61" x="86.279297"/>
       <use xlink:href="#DejaVuSans-79" x="147.558594"/>
       <use xlink:href="#DejaVuSans-20" x="206.738281"/>
       <use xlink:href="#DejaVuSans-31" x="238.525391"/>
      </g>
     </g>
    </g>
    <g id="xtick_4">
     <g id="line2d_7">
      <path d="M 402.280648 476.12 
L 402.280648 26.88 
" clip-path="url(#p74c6a6df3d)" style="fill: none; stroke: #b0b0b0; stroke-width: 0.8; stroke-linecap: square"/>
     </g>
     <g id="line2d_8">
      <g>
       <use xlink:href="#m1d878d1904" x="402.280648" y="476.12" style="stroke: #000000; stroke-width: 0.8"/>
      </g>
     </g>
     <g id="text_4">
      <!-- Jul 1 -->
      <g transform="translate(391.477523 490.718437) scale(0.1 -0.1)">
       <defs>
        <path id="DejaVuSans-75" d="M 544 1381 
L 544 3500 
L 1119 3500 
L 1119 1403 
Q 1119 906 1312 657 
Q 1506 409 1894 409 
Q 2359 409 2629 706 
Q 2900 1003 2900 1516 
L 2900 3500 
L 3475 3500 
L 3475 0 
L 2900 0 
L 2900 538 
Q 2691 219 2414 64 
Q 2138 -91 1772 -91 
Q 1169 -91 856 284 
Q 544 659 544 1381 
z
M 1991 3584 
L 1991 3584 
z
" transform="scale(0.015625)"/>
        <path id="DejaVuSans-6c" d="M 603 4863 
L 1178 4863 
L 1178 0 
L 603 0 
L 603 4863 
z
" transform="scale(0.015625)"/>
       </defs>
       <use xlink:href="#DejaVuSans-4a"/>
       <use xlink:href="#DejaVuSans-75" x="29.492188"/>
       <use xlink:href="#DejaVuSans-6c" x="92.871094"/>
       <use xlink:href="#DejaVuSans-20" x="120.654297"/>
       <use xlink:href="#DejaVuSans-31" x="152.441406"/>
      </g>
     </g>
    </g>
    <g id="xtick_5">
     <g id="line2d_9">
      <path d="M 502.963187 476.12 
L 502.963187 26.88 
" clip-path="url(#p74c6a6df3d)" style="fill: none; stroke: #b0b0b0; stroke-width: 0.8; stroke-linecap: square"/>
     </g>
     <g id="line2d_10">
      <g>
       <use xlink:href="#m1d878d1904" x="502.963187" y="476.12" style="stroke: #000000; stroke-width: 0.8"/>
      </g>
     </g>
     <g id="text_5">
      <!-- Sep 1 -->
      <g transform="translate(488.767874 490.718437) scale(0.1 -0.1)">
       <defs>
        <path id="DejaVuSans-53" d="M 3425 4513 
L 3425 3897 
Q 3066 4069 2747 4153 
Q 2428 4238 2131 4238 
Q 1616 4238 1336 4038 
Q 1056 3838 1056 3469 
Q 1056 3159 1242 3001 
Q 1428 2844 1947 2747 
L 2328 2669 
Q 3034 2534 3370 2195 
Q 3706 1856 3706 1288 
Q 3706 609 3251 259 
Q 2797 -91 1919 -91 
Q 1588 -91 1214 -16 
Q 841 59 441 206 
L 441 856 
Q 825 641 1194 531 
Q 1563 422 1919 422 
Q 2459 422 2753 634 
Q 3047 847 3047 1241 
Q 3047 1584 2836 1778 
Q 2625 1972 2144 2069 
L 1759 2144 
Q 1053 2284 737 2584 
Q 422 2884 422 3419 
Q 422 4038 858 4394 
Q 1294 4750 2059 4750 
Q 2388 4750 2728 4690 
Q 3069 4631 3425 4513 
z
" transform="scale(0.015625)"/>
        <path id="DejaVuSans-65" d="M 3597 1894 
L 3597 1613 
L 953 1613 
Q 991 1019 1311 708 
Q 1631 397 2203 397 
Q 2534 397 2845 478 
Q 3156 559 3463 722 
L 3463 178 
Q 3153 47 2828 -22 
Q 2503 -91 2169 -91 
Q 1331 -91 842 396 
Q 353 884 353 1716 
Q 353 2575 817 3079 
Q 1281 3584 2069 3584 
Q 2775 3584 3186 3129 
Q 3597 2675 3597 1894 
z
M 3022 2063 
Q 3016 2534 2758 2815 
Q 2500 3097 2075 3097 
Q 1594 3097 1305 2825 
Q 1016 2553 972 2059 
L 3022 2063 
z
" transform="scale(0.015625)"/>
        <path id="DejaVuSans-70" d="M 1159 525 
L 1159 -1331 
L 581 -1331 
L 581 3500 
L 1159 3500 
L 1159 2969 
Q 1341 3281 1617 3432 
Q 1894 3584 2278 3584 
Q 2916 3584 3314 3078 
Q 3713 2572 3713 1747 
Q 3713 922 3314 415 
Q 2916 -91 2278 -91 
Q 1894 -91 1617 61 
Q 1341 213 1159 525 
z
M 3116 1747 
Q 3116 2381 2855 2742 
Q 2594 3103 2138 3103 
Q 1681 3103 1420 2742 
Q 1159 2381 1159 1747 
Q 1159 1113 1420 752 
Q 1681 391 2138 391 
Q 2594 391 2855 752 
Q 3116 1113 3116 1747 
z
" transform="scale(0.015625)"/>
       </defs>
       <use xlink:href="#DejaVuSans-53"/>
       <use xlink:href="#DejaVuSans-65" x="63.476562"/>
       <use xlink:href="#DejaVuSans-70" x="125"/>
       <use xlink:href="#DejaVuSans-20" x="188.476562"/>
       <use xlink:href="#DejaVuSans-31" x="220.263672"/>
      </g>
     </g>
    </g>
    <g id="xtick_6">
     <g id="line2d_11">
      <path d="M 602.021813 476.12 
L 602.021813 26.88 
" clip-path="url(#p74c6a6df3d)" style="fill: none; stroke: #b0b0b0; stroke-width: 0.8; stroke-linecap: square"/>
     </g>
     <g id="line2d_12">
      <g>
       <use xlink:href="#m1d878d1904" x="602.021813" y="476.12" style="stroke: #000000; stroke-width: 0.8"/>
      </g>
     </g>
     <g id="text_6">
      <!-- Nov 1 -->
      <g transform="translate(587.492126 490.718437) scale(0.1 -0.1)">
       <defs>
        <path id="DejaVuSans-4e" d="M 628 4666 
L 1478 4666 
L 3547 763 
L 3547 4666 
L 4159 4666 
L 4159 0 
L 3309 0 
L 1241 3903 
L 1241 0 
L 628 0 
L 628 4666 
z
" transform="scale(0.015625)"/>
        <path id="DejaVuSans-6f" d="M 1959 3097 
Q 1497 3097 1228 2736 
Q 959 2375 959 1747 
Q 959 1119 1226 758 
Q 1494 397 1959 397 
Q 2419 397 2687 759 
Q 2956 1122 2956 1747 
Q 2956 2369 2687 2733 
Q 2419 3097 1959 3097 
z
M 1959 3584 
Q 2709 3584 3137 3096 
Q 3566 2609 3566 1747 
Q 3566 888 3137 398 
Q 2709 -91 1959 -91 
Q 1206 -91 779 398 
Q 353 888 353 1747 
Q 353 2609 779 3096 
Q 1206 3584 1959 3584 
z
" transform="scale(0.015625)"/>
        <path id="DejaVuSans-76" d="M 191 3500 
L 800 3500 
L 1894 563 
L 2988 3500 
L 3597 3500 
L 2284 0 
L 1503 0 
L 191 3500 
z
" transform="scale(0.015625)"/>
       </defs>
       <use xlink:href="#DejaVuSans-4e"/>
       <use xlink:href="#DejaVuSans-6f" x="74.804688"/>
       <use xlink:href="#DejaVuSans-76" x="135.986328"/>
       <use xlink:href="#DejaVuSans-20" x="195.166016"/>
       <use xlink:href="#DejaVuSans-31" x="226.953125"/>
      </g>
     </g>
    </g>
   </g>
   <g id="matplotlib.axis_2">
    <g id="ytick_1">
     <g id="line2d_13">
      <path d="M 82.37 455.7 
L 709.2 455.7 
" clip-path="url(#p74c6a6df3d)" style="fill: none; stroke: #b0b0b0; stroke-width: 0.8; stroke-linecap: square"/>
     </g>
     <g id="line2d_14">
      <defs>
       <path id="m8d09bd03ae" d="M 0 0 
L -3.5 0 
" style="stroke: #000000; stroke-width: 0.8"/>
      </defs>
      <g>
       <use xlink:href="#m8d09bd03ae" x="82.37" y="455.7" style="stroke: #000000; stroke-width: 0.8"/>
      </g>
     </g>
     <g id="text_7">
      <!-- 0 -->
      <g transform="translate(69.0075 459.499219) scale(0.1 -0.1)">
       <defs>
        <path id="DejaVuSans-30" d="M 2034 4250 
Q 1547 4250 1301 3770 
Q 1056 3291 1056 2328 
Q 1056 1369 1301 889 
Q 1547 409 2034 409 
Q 2525 409 2770 889 
Q 3016 1369 3016 2328 
Q 3016 3291 2770 3770 
Q 2525 4250 2034 4250 
z
M 2034 4750 
Q 2819 4750 3233 4129 
Q 3647 3509 3647 2328 
Q 3647 1150 3233 529 
Q 2819 -91 2034 -91 
Q 1250 -91 836 529 
Q 422 1150 422 2328 
Q 422 3509 836 4129 
Q 1250 4750 2034 4750 
z
" transform="scale(0.015625)"/>
       </defs>
       <use xlink:href="#DejaVuSans-30"/>
      </g>
     </g>
    </g>
    <g id="ytick_2">
     <g id="line2d_15">
      <path d="M 82.37 401.829616 
L 709.2 401.829616 
" clip-path="url(#p74c6a6df3d)" style="fill: none; stroke: #b0b0b0; stroke-width: 0.8; stroke-linecap: square"/>
     </g>
     <g id="line2d_16">
      <g>
       <use xlink:href="#m8d09bd03ae" x="82.37" y="401.829616" style="stroke: #000000; stroke-width: 0.8"/>
      </g>
     </g>
     <g id="text_8">
      <!-- 250,000 -->
      <g transform="translate(34.016875 405.628835) scale(0.1 -0.1)">
       <defs>
        <path id="DejaVuSans-32" d="M 1228 531 
L 3431 531 
L 3431 0 
L 469 0 
L 469 531 
Q 828 903 1448 1529 
Q 2069 2156 2228 2338 
Q 2531 2678 2651 2914 
Q 2772 3150 2772 3378 
Q 2772 3750 2511 3984 
Q 2250 4219 1831 4219 
Q 1534 4219 1204 4116 
Q 875 4013 500 3803 
L 500 4441 
Q 881 4594 1212 4672 
Q 1544 4750 1819 4750 
Q 2544 4750 2975 4387 
Q 3406 4025 3406 3419 
Q 3406 3131 3298 2873 
Q 3191 2616 2906 2266 
Q 2828 2175 2409 1742 
Q 1991 1309 1228 531 
z
" transform="scale(0.015625)"/>
        <path id="DejaVuSans-35" d="M 691 4666 
L 3169 4666 
L 3169 4134 
L 1269 4134 
L 1269 2991 
Q 1406 3038 1543 3061 
Q 1681 3084 1819 3084 
Q 2600 3084 3056 2656 
Q 3513 2228 3513 1497 
Q 3513 744 3044 326 
Q 2575 -91 1722 -91 
Q 1428 -91 1123 -41 
Q 819 9 494 109 
L 494 744 
Q 775 591 1075 516 
Q 1375 441 1709 441 
Q 2250 441 2565 725 
Q 2881 1009 2881 1497 
Q 2881 1984 2565 2268 
Q 2250 2553 1709 2553 
Q 1456 2553 1204 2497 
Q 953 2441 691 2322 
L 691 4666 
z
" transform="scale(0.015625)"/>
        <path id="DejaVuSans-2c" d="M 750 794 
L 1409 794 
L 1409 256 
L 897 -744 
L 494 -744 
L 750 256 
L 750 794 
z
" transform="scale(0.015625)"/>
       </defs>
       <use xlink:href="#DejaVuSans-32"/>
       <use xlink:href="#DejaVuSans-35" x="63.623047"/>
       <use xlink:href="#DejaVuSans-30" x="127.246094"/>
       <use xlink:href="#DejaVuSans-2c" x="190.869141"/>
       <use xlink:href="#DejaVuSans-30" x="222.65625"/>
       <use xlink:href="#DejaVuSans-30" x="286.279297"/>
       <use xlink:href="#DejaVuSans-30" x="349.902344"/>
      </g>
     </g>
    </g>
    <g id="ytick_3">
     <g id="line2d_17">
      <path d="M 82.37 347.959232 
L 709.2 347.959232 
" clip-path="url(#p74c6a6df3d)" style="fill: none; stroke: #b0b0b0; stroke-width: 0.8; stroke-linecap: square"/>
     </g>
     <g id="line2d_18">
      <g>
       <use xlink:href="#m8d09bd03ae" x="82.37" y="347.959232" style="stroke: #000000; stroke-width: 0.8"/>
      </g>
     </g>
     <g id="text_9">
      <!-- 500,000 -->
      <g transform="translate(34.016875 351.758451) scale(0.1 -0.1)">
       <use xlink:href="#DejaVuSans-35"/>
       <use xlink:href="#DejaVuSans-30" x="63.623047"/>
       <use xlink:href="#DejaVuSans-30" x="127.246094"/>
       <use xlink:href="#DejaVuSans-2c" x="190.869141"/>
       <use xlink:href="#DejaVuSans-30" x="222.65625"/>
       <use xlink:href="#DejaVuSans-30" x="286.279297"/>
       <use xlink:href="#DejaVuSans-30" x="349.902344"/>
      </g>
     </g>
    </g>
    <g id="ytick_4">
     <g id="line2d_19">
      <path d="M 82.37 294.088848 
L 709.2 294.088848 
" clip-path="url(#p74c6a6df3d)" style="fill: none; stroke: #b0b0b0; stroke-width: 0.8; stroke-linecap: square"/>
     </g>
     <g id="line2d_20">
      <g>
       <use xlink:href="#m8d09bd03ae" x="82.37" y="294.088848" style="stroke: #000000; stroke-width: 0.8"/>
      </g>
     </g>
     <g id="text_10">
      <!-- 750,000 -->
      <g transform="translate(34.016875 297.888067) scale(0.1 -0.1)">
       <defs>
        <path id="DejaVuSans-37" d="M 525 4666 
L 3525 4666 
L 3525 4397 
L 1831 0 
L 1172 0 
L 2766 4134 
L 525 4134 
L 525 4666 
z
" transform="scale(0.015625)"/>
       </defs>
       <use xlink:href="#DejaVuSans-37"/>
       <use xlink:href="#DejaVuSans-35" x="63.623047"/>
       <use xlink:href="#DejaVuSans-30" x="127.246094"/>
       <use xlink:href="#DejaVuSans-2c" x="190.869141"/>
       <use xlink:href="#DejaVuSans-30" x="222.65625"/>
       <use xlink:href="#DejaVuSans-30" x="286.279297"/>
       <use xlink:href="#DejaVuSans-30" x="349.902344"/>
      </g>
     </g>
    </g>
    <g id="ytick_5">
     <g id="line2d_21">
      <path d="M 82.37 240.218464 
L 709.2 240.218464 
" clip-path="url(#p74c6a6df3d)" style="fill: none; stroke: #b0b0b0; stroke-width: 0.8; stroke-linecap: square"/>
     </g>
     <g id="line2d_22">
      <g>
       <use xlink:href="#m8d09bd03ae" x="82.37" y="240.218464" style="stroke: #000000; stroke-width: 0.8"/>
      </g>
     </g>
     <g id="text_11">
      <!-- 1,000,000 -->
      <g transform="translate(24.47625 244.017683) scale(0.1 -0.1)">
       <use xlink:href="#DejaVuSans-31"/>
       <use xlink:href="#DejaVuSans-2c" x="63.623047"/>
       <use xlink:href="#DejaVuSans-30" x="95.410156"/>
       <use xlink:href="#DejaVuSans-30" x="159.033203"/>
       <use xlink:href="#DejaVuSans-30" x="222.65625"/>
       <use xlink:href="#DejaVuSans-2c" x="286.279297"/>
       <use xlink:href="#DejaVuSans-30" x="318.066406"/>
       <use xlink:href="#DejaVuSans-30" x="381.689453"/>
       <use xlink:href="#DejaVuSans-30" x="445.3125"/>
      </g>
     </g>
    </g>
    <g id="ytick_6">
     <g id="line2d_23">
      <path d="M 82.37 186.34808 
L 709.2 186.34808 
" clip-path="url(#p74c6a6df3d)" style="fill: none; stroke: #b0b0b0; stroke-width: 0.8; stroke-linecap: square"/>
     </g>
     <g id="line2d_24">
      <g>
       <use xlink:href="#m8d09bd03ae" x="82.37" y="186.34808" style="stroke: #000000; stroke-width: 0.8"/>
      </g>
     </g>
     <g id="text_12">
      <!-- 1,250,000 -->
      <g transform="translate(24.47625 190.147299) scale(0.1 -0.1)">
       <use xlink:href="#DejaVuSans-31"/>
       <use xlink:href="#DejaVuSans-2c" x="63.623047"/>
       <use xlink:href="#DejaVuSans-32" x="95.410156"/>
       <use xlink:href="#DejaVuSans-35" x="159.033203"/>
       <use xlink:href="#DejaVuSans-30" x="222.65625"/>
       <use xlink:href="#DejaVuSans-2c" x="286.279297"/>
       <use xlink:href="#DejaVuSans-30" x="318.066406"/>
       <use xlink:href="#DejaVuSans-30" x="381.689453"/>
       <use xlink:href="#DejaVuSans-30" x="445.3125"/>
      </g>
     </g>
    </g>
    <g id="ytick_7">
     <g id="line2d_25">
      <path d="M 82.37 132.477696 
L 709.2 132.477696 
" clip-path="url(#p74c6a6df3d)" style="fill: none; stroke: #b0b0b0; stroke-width: 0.8; stroke-linecap: square"/>
     </g>
     <g id="line2d_26">
      <g>
       <use xlink:href="#m8d09bd03ae" x="82.37" y="132.477696" style="stroke: #000000; stroke-width: 0.8"/>
      </g>
     </g>
     <g id="text_13">
      <!-- 1,500,000 -->
      <g transform="translate(24.47625 136.276915) scale(0.1 -0.1)">
       <use xlink:href="#DejaVuSans-31"/>
       <use xlink:href="#DejaVuSans-2c" x="63.623047"/>
       <use xlink:href="#DejaVuSans-35" x="95.410156"/>
       <use xlink:href="#DejaVuSans-30" x="159.033203"/>
       <use xlink:href="#DejaVuSans-30" x="222.65625"/>
       <use xlink:href="#DejaVuSans-2c" x="286.279297"/>
       <use xlink:href="#DejaVuSans-30" x="318.066406"/>
       <use xlink:href="#DejaVuSans-30" x="381.689453"/>
       <use xlink:href="#DejaVuSans-30" x="445.3125"/>
      </g>
     </g>
    </g>
    <g id="ytick_8">
     <g id="line2d_27">
      <path d="M 82.37 78.607312 
L 709.2 78.607312 
" clip-path="url(#p74c6a6df3d)" style="fill: none; stroke: #b0b0b0; stroke-width: 0.8; stroke-linecap: square"/>
     </g>
     <g id="line2d_28">
      <g>
       <use xlink:href="#m8d09bd03ae" x="82.37" y="78.607312" style="stroke: #000000; stroke-width: 0.8"/>
      </g>
     </g>
     <g id="text_14">
      <!-- 1,750,000 -->
      <g transform="translate(24.47625 82.406531) scale(0.1 -0.1)">
       <use xlink:href="#DejaVuSans-31"/>
       <use xlink:href="#DejaVuSans-2c" x="63.623047"/>
       <use xlink:href="#DejaVuSans-37" x="95.410156"/>
       <use xlink:href="#DejaVuSans-35" x="159.033203"/>
       <use xlink:href="#DejaVuSans-30" x="222.65625"/>
       <use xlink:href="#DejaVuSans-2c" x="286.279297"/>
       <use xlink:href="#DejaVuSans-30" x="318.066406"/>
       <use xlink:href="#DejaVuSans-30" x="381.689453"/>
       <use xlink:href="#DejaVuSans-30" x="445.3125"/>
      </g>
     </g>
    </g>
    <g id="text_15">
     <!-- Cumulative Payload Mass (kg) -->
     <g transform="translate(18.396562 326.863281) rotate(-90) scale(0.1 -0.1)">
      <defs>
       <path id="DejaVuSans-43" d="M 4122 4306 
L 4122 3641 
Q 3803 3938 3442 4084 
Q 3081 4231 2675 4231 
Q 1875 4231 1450 3742 
Q 1025 3253 1025 2328 
Q 1025 1406 1450 917 
Q 1875 428 2675 428 
Q 3081 428 3442 575 
Q 3803 722 4122 1019 
L 4122 359 
Q 3791 134 3420 21 
Q 3050 -91 2638 -91 
Q 1578 -91 968 557 
Q 359 1206 359 2328 
Q 359 3453 968 4101 
Q 1578 4750 2638 4750 
Q 3056 4750 3426 4639 
Q 3797 4528 4122 4306 
z
" transform="scale(0.015625)"/>
       <path id="DejaVuSans-6d" d="M 3328 2828 
Q 3544 3216 3844 3400 
Q 4144 3584 4550 3584 
Q 5097 3584 5394 3201 
Q 5691 2819 5691 2113 
L 5691 0 
L 5113 0 
L 5113 2094 
Q 5113 2597 4934 2840 
Q 4756 3084 4391 3084 
Q 3944 3084 3684 2787 
Q 3425 2491 3425 1978 
L 3425 0 
L 2847 0 
L 2847 2094 
Q 2847 2600 2669 2842 
Q 2491 3084 2119 3084 
Q 1678 3084 1418 2786 
Q 1159 2488 1159 1978 
L 1159 0 
L 581 0 
L 581 3500 
L 1159 3500 
L 1159 2956 
Q 1356 3278 1631 3431 
Q 1906 3584 2284 3584 
Q 2666 3584 2933 3390 
Q 3200 3197 3328 2828 
z
" transform="scale(0.015625)"/>
       <path id="DejaVuSans-74" d="M 1172 4494 
L 1172 3500 
L 2356 3500 
L 2356 3053 
L 1172 3053 
L 1172 1153 
Q 1172 725 1289 603 
Q 1406 481 1766 481 
L 2356 481 
L 2356 0 
L 1766 0 
Q 1100 0 847 248 
Q 594 497 594 1153 
L 594 3053 
L 172 3053 
L 172 3500 
L 594 3500 
L 594 4494 
L 1172 4494 
z
" transform="scale(0.015625)"/>
       <path id="DejaVuSans-69" d="M 603 3500 
L 1178 3500 
L 1178 0 
L 603 0 
L 603 3500 
z
M 603 4863 
L 1178 4863 
L 1178 4134 
L 603 4134 
L 603 4863 
z
" transform="scale(0.015625)"/>
       <path id="DejaVuSans-50" d="M 1259 4147 
L 1259 2394 
L 2053 2394 
Q 2494 2394 2734 2622 
Q 2975 2850 2975 3272 
Q 2975 3691 2734 3919 
Q 2494 4147 2053 4147 
L 1259 4147 
z
M 628 4666 
L 2053 4666 
Q 2838 4666 3239 4311 
Q 3641 3956 3641 3272 
Q 3641 2581 3239 2228 
Q 2838 1875 2053 1875 
L 1259 1875 
L 1259 0 
L 628 0 
L 628 4666 
z
" transform="scale(0.015625)"/>
       <path id="DejaVuSans-64" d="M 2906 2969 
L 2906 4863 
L 3481 4863 
L 3481 0 
L 2906 0 
L 2906 525 
Q 2725 213 2448 61 
Q 2172 -91 1784 -91 
Q 1150 -91 751 415 
Q 353 922 353 1747 
Q 353 2572 751 3078 
Q 1150 3584 1784 3584 
Q 2172 3584 2448 3432 
Q 2725 3281 2906 2969 
z
M 947 1747 
Q 947 1113 1208 752 
Q 1469 391 1925 391 
Q 2381 391 2643 752 
Q 2906 1113 2906 1747 
Q 2906 2381 2643 2742 
Q 2381 3103 1925 3103 
Q 1469 3103 1208 2742 
Q 947 2381 947 1747 
z
" transform="scale(0.015625)"/>
       <path id="DejaVuSans-73" d="M 2834 3397 
L 2834 2853 
Q 2591 2978 2328 3040 
Q 2066 3103 1784 3103 
Q 1356 3103 1142 2972 
Q 928 2841 928 2578 
Q 928 2378 1081 2264 
Q 1234 2150 1697 2047 
L 1894 2003 
Q 2506 1872 2764 1633 
Q 3022 1394 3022 966 
Q 3022 478 2636 193 
Q 2250 -91 1575 -91 
Q 1294 -91 989 -36 
Q 684 19 347 128 
L 347 722 
Q 666 556 975 473 
Q 1284 391 1588 391 
Q 1994 391 2212 530 
Q 2431 669 2431 922 
Q 2431 1156 2273 1281 
Q 2116 1406 1581 1522 
L 1381 1569 
Q 847 1681 609 1914 
Q 372 2147 372 2553 
Q 372 3047 722 3315 
Q 1072 3584 1716 3584 
Q 2034 3584 2315 3537 
Q 2597 3491 2834 3397 
z
" transform="scale(0.015625)"/>
       <path id="DejaVuSans-28" d="M 1984 4856 
Q 1566 4138 1362 3434 
Q 1159 2731 1159 2009 
Q 1159 1288 1364 580 
Q 1569 -128 1984 -844 
L 1484 -844 
Q 1016 -109 783 600 
Q 550 1309 550 2009 
Q 550 2706 781 3412 
Q 1013 4119 1484 4856 
L 1984 4856 
z
" transform="scale(0.015625)"/>
       <path id="DejaVuSans-6b" d="M 581 4863 
L 1159 4863 
L 1159 1991 
L 2875 3500 
L 3609 3500 
L 1753 1863 
L 3688 0 
L 2938 0 
L 1159 1709 
L 1159 0 
L 581 0 
L 581 4863 
z
" transform="scale(0.015625)"/>
       <path id="DejaVuSans-67" d="M 2906 1791 
Q 2906 2416 2648 2759 
Q 2391 3103 1925 3103 
Q 1463 3103 1205 2759 
Q 947 2416 947 1791 
Q 947 1169 1205 825 
Q 1463 481 1925 481 
Q 2391 481 2648 825 
Q 2906 1169 2906 1791 
z
M 3481 434 
Q 3481 -459 3084 -895 
Q 2688 -1331 1869 -1331 
Q 1566 -1331 1297 -1286 
Q 1028 -1241 775 -1147 
L 775 -588 
Q 1028 -725 1275 -790 
Q 1522 -856 1778 -856 
Q 2344 -856 2625 -561 
Q 2906 -266 2906 331 
L 2906 616 
Q 2728 306 2450 153 
Q 2172 0 1784 0 
Q 1141 0 747 490 
Q 353 981 353 1791 
Q 353 2603 747 3093 
Q 1141 3584 1784 3584 
Q 2172 3584 2450 3431 
Q 2728 3278 2906 2969 
L 2906 3500 
L 3481 3500 
L 3481 434 
z
" transform="scale(0.015625)"/>
       <path id="DejaVuSans-29" d="M 513 4856 
L 1013 4856 
Q 1481 4119 1714 3412 
Q 1947 2706 1947 2009 
Q 1947 1309 1714 600 
Q 1481 -109 1013 -844 
L 513 -844 
Q 928 -128 1133 580 
Q 1338 1288 1338 2009 
Q 1338 2731 1133 3434 
Q 928 4138 513 4856 
z
" transform="scale(0.015625)"/>
      </defs>
      <use xlink:href="#DejaVuSans-43"/>
      <use xlink:href="#DejaVuSans-75" x="69.824219"/>
      <use xlink:href="#DejaVuSans-6d" x="133.203125"/>
      <use xlink:href="#DejaVuSans-75" x="230.615234"/>
      <use xlink:href="#DejaVuSans-6c" x="293.994141"/>
      <use xlink:href="#DejaVuSans-61" x="321.777344"/>
      <use xlink:href="#DejaVuSans-74" x="383.056641"/>
      <use xlink:href="#DejaVuSans-69" x="422.265625"/>
      <use xlink:href="#DejaVuSans-76" x="450.048828"/>
      <use xlink:href="#DejaVuSans-65" x="509.228516"/>
      <use xlink:href="#DejaVuSans-20" x="570.751953"/>
      <use xlink:href="#DejaVuSans-50" x="602.539062"/>
      <use xlink:href="#DejaVuSans-61" x="658.341797"/>
      <use xlink:href="#DejaVuSans-79" x="719.621094"/>
      <use xlink:href="#DejaVuSans-6c" x="778.800781"/>
      <use xlink:href="#DejaVuSans-6f" x="806.583984"/>
      <use xlink:href="#DejaVuSans-61" x="867.765625"/>
      <use xlink:href="#DejaVuSans-64" x="929.044922"/>
      <use xlink:href="#DejaVuSans-20" x="992.521484"/>
      <use xlink:href="#DejaVuSans-4d" x="1024.308594"/>
      <use xlink:href="#DejaVuSans-61" x="1110.587891"/>
      <use xlink:href="#DejaVuSans-73" x="1171.867188"/>
      <use xlink:href="#DejaVuSans-73" x="1223.966797"/>
      <use xlink:href="#DejaVuSans-20" x="1276.066406"/>
      <use xlink:href="#DejaVuSans-28" x="1307.853516"/>
      <use xlink:href="#DejaVuSans-6b" x="1346.867188"/>
      <use xlink:href="#DejaVuSans-67" x="1404.777344"/>
      <use xlink:href="#DejaVuSans-29" x="1468.253906"/>
     </g>
    </g>
   </g>
   <g id="line2d_29">
    <path d="M 106.728679 455.7 
L 127.839534 455.7 
L 127.839534 453.631377 
L 186.300363 453.631377 
L 186.300363 453.094828 
L 226.898161 453.094828 
L 226.898161 451.888132 
L 249.632927 451.888132 
L 249.632927 450.746079 
L 301.598109 450.746079 
L 301.598109 450.746079 
L 324.332876 450.746079 
L 324.332876 449.438107 
L 355.187202 449.438107 
L 355.187202 448.854583 
L 387.66544 448.854583 
L 387.66544 448.063981 
L 390.913264 448.063981 
L 390.913264 445.995358 
L 407.152383 445.995358 
L 407.152383 444.538487 
L 472.10886 444.538487 
L 472.10886 443.825244 
L 488.347979 443.825244 
L 488.347979 443.72289 
L 511.082746 443.72289 
L 511.082746 442.647637 
L 563.047927 442.647637 
L 563.047927 440.579014 
L 566.295751 440.579014 
L 566.295751 439.415414 
L 597.150078 439.415414 
L 597.150078 438.661229 
L 671.850026 438.661229 
L 671.850026 438.186092 
L 684.841321 438.186092 
L 684.841321 436.117469 
L 697.832617 436.117469 
L 697.832617 436.117469 
" clip-path="url(#p74c6a6df3d)" style="fill: none; stroke: #808080; stroke-width: 1.5; stroke-linecap: square"/>
   </g>
   <g id="line2d_30">
    <path d="M 106.728679 455.7 
L 118.096062 455.7 
L 118.096062 455.7 
L 155.446036 455.7 
L 155.446036 454.788513 
L 165.189508 454.788513 
L 165.189508 454.519161 
L 191.172098 454.519161 
L 191.172098 454.055876 
L 210.659041 454.055876 
L 210.659041 452.743162 
L 249.632927 452.743162 
L 249.632927 450.67454 
L 254.504663 450.67454 
L 254.504663 450.10416 
L 280.487254 450.10416 
L 280.487254 450.026156 
L 317.837228 450.026156 
L 317.837228 449.250422 
L 335.700259 449.250422 
L 335.700259 447.858411 
L 356.811114 447.858411 
L 356.811114 446.698259 
L 397.408912 446.698259 
L 397.408912 446.117105 
L 434.758886 446.117105 
L 434.758886 444.592573 
L 439.630622 444.592573 
L 439.630622 442.523951 
L 460.741477 442.523951 
L 460.741477 441.274158 
L 515.954482 441.274158 
L 515.954482 439.752858 
L 561.424016 439.752858 
L 561.424016 439.106413 
L 623.132668 439.106413 
L 623.132668 437.964361 
L 652.363083 437.964361 
L 652.363083 437.102435 
L 655.610907 437.102435 
L 655.610907 436.563731 
L 684.841321 436.563731 
L 684.841321 435.615612 
L 697.832617 435.615612 
L 697.832617 435.615612 
" clip-path="url(#p74c6a6df3d)" style="fill: none; stroke: #90ee90; stroke-width: 1.5; stroke-linecap: square"/>
   </g>
   <g id="line2d_31">
    <path d="M 106.728679 455.7 
L 122.967798 455.7 
L 122.967798 453.631377 
L 191.172098 453.631377 
L 191.172098 452.586292 
L 204.163394 452.586292 
L 204.163394 449.988662 
L 269.11987 449.988662 
L 269.11987 448.595574 
L 306.469845 448.595574 
L 306.469845 448.057947 
L 338.948083 448.057947 
L 338.948083 445.123089 
L 369.802409 445.123089 
L 369.802409 444.218066 
L 390.913264 444.218066 
L 390.913264 443.420785 
L 439.630622 443.420785 
L 439.630622 442.932073 
L 459.117565 442.932073 
L 459.117565 441.531443 
L 616.637021 441.531443 
L 616.637021 438.169931 
L 655.610907 438.169931 
L 655.610907 437.606015 
L 675.09785 437.606015 
L 675.09785 436.107126 
L 697.832617 436.107126 
L 697.832617 436.107126 
" clip-path="url(#p74c6a6df3d)" style="fill: none; stroke: #add8e6; stroke-width: 1.5; stroke-linecap: square"/>
   </g>
   <g id="line2d_32">
    <path d="M 106.728679 455.7 
L 116.47215 455.7 
L 116.47215 452.338488 
L 135.959093 452.338488 
L 135.959093 449.741936 
L 152.198212 449.741936 
L 152.198212 446.380424 
L 183.052539 446.380424 
L 183.052539 443.018912 
L 213.906865 443.018912 
L 213.906865 442.592905 
L 231.769896 442.592905 
L 231.769896 439.231393 
L 288.606813 439.231393 
L 288.606813 435.869881 
L 350.315466 435.869881 
L 350.315466 433.169897 
L 358.435026 433.169897 
L 358.435026 429.808385 
L 373.050233 429.808385 
L 373.050233 426.487815 
L 400.656736 426.487815 
L 400.656736 425.558874 
L 433.134974 425.558874 
L 433.134974 424.373725 
L 462.365389 424.373725 
L 462.365389 421.156155 
L 480.22842 421.156155 
L 480.22842 417.82912 
L 499.715363 417.82912 
L 499.715363 417.154663 
L 506.21101 417.154663 
L 506.21101 413.793151 
L 559.800104 413.793151 
L 559.800104 410.431639 
L 579.287047 410.431639 
L 579.287047 407.070127 
L 589.030518 407.070127 
L 589.030518 403.708615 
L 608.517461 403.708615 
L 608.517461 402.779674 
L 626.380492 402.779674 
L 626.380492 400.086155 
L 634.500052 400.086155 
L 634.500052 399.829301 
L 640.995699 399.829301 
L 640.995699 396.467789 
L 658.858731 396.467789 
L 658.858731 395.827378 
L 670.226114 395.827378 
L 670.226114 394.319007 
L 679.969585 394.319007 
L 679.969585 394.319007 
L 699.456528 394.319007 
L 699.456528 394.319007 
" clip-path="url(#p74c6a6df3d)" style="fill: none; stroke: #ffc0cb; stroke-width: 1.5; stroke-linecap: square"/>
   </g>
   <g id="line2d_33">
    <path d="M 106.728679 455.7 
L 118.096062 455.7 
L 118.096062 454.945815 
L 137.583005 454.945815 
L 137.583005 451.584303 
L 144.078653 451.584303 
L 144.078653 450.506895 
L 161.941684 450.506895 
L 161.941684 447.145383 
L 181.428627 447.145383 
L 181.428627 443.783871 
L 207.411218 443.783871 
L 207.411218 440.422359 
L 218.778601 440.422359 
L 218.778601 437.060847 
L 223.650337 437.060847 
L 223.650337 433.699335 
L 239.889456 433.699335 
L 239.889456 430.337823 
L 262.624223 430.337823 
L 262.624223 426.976311 
L 288.606813 426.976311 
L 288.606813 424.175051 
L 298.350285 424.175051 
L 298.350285 420.813539 
L 306.469845 420.813539 
L 306.469845 417.452027 
L 314.589404 417.452027 
L 314.589404 414.090515 
L 324.332876 414.090515 
L 324.332876 410.763481 
L 342.195907 410.763481 
L 342.195907 407.401969 
L 355.187202 407.401969 
L 355.187202 406.684846 
L 360.058938 406.684846 
L 360.058938 405.176475 
L 377.921969 405.176475 
L 377.921969 404.243225 
L 399.032824 404.243225 
L 399.032824 404.243225 
L 496.467539 404.243225 
L 496.467539 403.769165 
L 522.45013 403.769165 
L 522.45013 400.91188 
L 525.697953 400.91188 
L 525.697953 398.214267 
L 616.637021 398.214267 
L 616.637021 395.413007 
L 619.884845 395.413007 
L 619.884845 392.043953 
L 637.747876 392.043953 
L 637.747876 391.909493 
L 650.739171 391.909493 
L 650.739171 388.78501 
L 662.106554 388.78501 
L 662.106554 388.714979 
L 676.721762 388.714979 
L 676.721762 385.353467 
L 678.345674 385.353467 
L 678.345674 384.3838 
L 681.593497 384.3838 
L 681.593497 383.739726 
L 697.832617 383.739726 
L 697.832617 383.739726 
" clip-path="url(#p74c6a6df3d)" style="fill: none; stroke: #800080; stroke-width: 1.5; stroke-linecap: square"/>
   </g>
   <g id="line2d_34">
    <path d="M 106.728679 455.7 
L 114.848238 455.7 
L 114.848238 452.575518 
L 126.215622 452.575518 
L 126.215622 452.575518 
L 135.959093 452.575518 
L 135.959093 449.451035 
L 155.446036 449.451035 
L 155.446036 448.975899 
L 158.69386 448.975899 
L 158.69386 448.975899 
L 160.317772 448.975899 
L 160.317772 445.851416 
L 189.548187 445.851416 
L 189.548187 442.920868 
L 196.043834 442.920868 
L 196.043834 439.742515 
L 205.787306 439.742515 
L 205.787306 436.747322 
L 215.530777 436.747322 
L 215.530777 433.696103 
L 231.769896 433.696103 
L 231.769896 430.194528 
L 252.880751 430.194528 
L 252.880751 430.194528 
L 264.248135 430.194528 
L 264.248135 427.393268 
L 278.863342 427.393268 
L 278.863342 427.393268 
L 285.35899 427.393268 
L 285.35899 423.891693 
L 295.102461 423.891693 
L 295.102461 421.090433 
L 298.350285 421.090433 
L 298.350285 417.588858 
L 309.717668 417.588858 
L 309.717668 414.087283 
L 321.085052 414.087283 
L 321.085052 410.585708 
L 322.708964 410.585708 
L 322.708964 407.084133 
L 329.204611 407.084133 
L 329.204611 403.582558 
L 340.571995 403.582558 
L 340.571995 403.582558 
L 363.306762 403.582558 
L 363.306762 402.699084 
L 377.921969 402.699084 
L 377.921969 399.197509 
L 379.545881 399.197509 
L 379.545881 398.335583 
L 381.169793 398.335583 
L 381.169793 398.184746 
L 397.408912 398.184746 
L 397.408912 397.43056 
L 410.400207 397.43056 
L 410.400207 393.928986 
L 416.895855 393.928986 
L 416.895855 390.890696 
L 423.391503 390.890696 
L 423.391503 390.315791 
L 426.639326 390.315791 
L 426.639326 386.814216 
L 434.758886 386.814216 
L 434.758886 383.775927 
L 438.00671 383.775927 
L 438.00671 380.274352 
L 455.869741 380.274352 
L 455.869741 380.12804 
L 465.613212 380.12804 
L 465.613212 376.680335 
L 468.861036 376.680335 
L 468.861036 373.642045 
L 480.22842 373.642045 
L 480.22842 370.14047 
L 494.843627 370.14047 
L 494.843627 366.541929 
L 499.715363 366.541929 
L 499.715363 363.482091 
L 507.834922 363.482091 
L 507.834922 360.034386 
L 517.578394 360.034386 
L 517.578394 357.461968 
L 530.569689 357.461968 
L 530.569689 353.863426 
L 538.689249 353.863426 
L 538.689249 350.394173 
L 556.55228 350.394173 
L 556.55228 347.592913 
L 556.55228 347.592913 
L 556.55228 344.123661 
L 561.424016 344.123661 
L 561.424016 342.539871 
L 572.791399 342.539871 
L 572.791399 341.570205 
L 580.910959 341.570205 
L 580.910959 337.971663 
L 593.902254 337.971663 
L 593.902254 334.437766 
L 600.397902 334.437766 
L 600.397902 333.62971 
L 603.645725 333.62971 
L 603.645725 332.660043 
L 618.260933 332.660043 
L 618.260933 331.237865 
L 636.123964 331.237865 
L 636.123964 330.052716 
L 640.995699 330.052716 
L 640.995699 329.292498 
L 660.482642 329.292498 
L 660.482642 327.999608 
L 665.354378 327.999608 
L 665.354378 327.784127 
L 673.473938 327.784127 
L 673.473938 327.310067 
L 673.473938 327.310067 
L 673.473938 326.426593 
L 675.09785 326.426593 
L 675.09785 322.828052 
L 692.960881 322.828052 
L 692.960881 319.22951 
L 696.208705 319.22951 
L 696.208705 319.143317 
L 697.832617 319.143317 
L 697.832617 319.143317 
" clip-path="url(#p74c6a6df3d)" style="fill: none; stroke: #ffa500; stroke-width: 1.5; stroke-linecap: square"/>
   </g>
   <g id="line2d_35">
    <path d="M 106.728679 455.7 
L 121.343886 455.7 
L 121.343886 454.407111 
L 129.463446 454.407111 
L 129.463446 453.599055 
L 134.335181 453.599055 
L 134.335181 452.661279 
L 135.959093 452.661279 
L 135.959093 449.429056 
L 147.326477 449.429056 
L 147.326477 445.679678 
L 155.446036 445.679678 
L 155.446036 442.404358 
L 158.69386 442.404358 
L 158.69386 438.848913 
L 166.81342 438.848913 
L 166.81342 437.955526 
L 174.932979 437.955526 
L 174.932979 434.270792 
L 183.052539 434.270792 
L 183.052539 430.844636 
L 184.676451 430.844636 
L 184.676451 429.665952 
L 199.291658 429.665952 
L 199.291658 426.369084 
L 204.163394 426.369084 
L 204.163394 423.567824 
L 205.787306 423.567824 
L 205.787306 420.141668 
L 215.530777 420.141668 
L 215.530777 418.848779 
L 225.274249 418.848779 
L 225.274249 418.234225 
L 228.522073 418.234225 
L 228.522073 413.235054 
L 239.889456 413.235054 
L 239.889456 409.485675 
L 248.009016 409.485675 
L 248.009016 405.736296 
L 262.624223 405.736296 
L 262.624223 404.532185 
L 282.111166 404.532185 
L 282.111166 401.235318 
L 295.102461 401.235318 
L 295.102461 398.197028 
L 296.726373 398.197028 
L 296.726373 397.313554 
L 301.598109 397.313554 
L 301.598109 395.934472 
L 306.469845 395.934472 
L 306.469845 392.185093 
L 316.213316 392.185093 
L 316.213316 388.758937 
L 322.708964 388.758937 
L 322.708964 385.009558 
L 330.828523 385.009558 
L 330.828523 381.540306 
L 332.452435 381.540306 
L 332.452435 380.118127 
L 334.076347 380.118127 
L 334.076347 377.316867 
L 343.819819 377.316867 
L 343.819819 376.347201 
L 350.315466 376.347201 
L 350.315466 372.813303 
L 356.811114 372.813303 
L 356.811114 369.344051 
L 358.435026 369.344051 
L 358.435026 368.6321 
L 369.802409 368.6321 
L 369.802409 365.098202 
L 369.802409 365.098202 
L 379.545881 365.098202 
L 379.545881 364.111297 
L 386.041528 364.111297 
L 386.041528 360.986815 
L 387.66544 360.986815 
L 387.66544 357.237436 
L 400.656736 357.237436 
L 400.656736 356.771996 
L 410.400207 356.771996 
L 410.400207 353.561321 
L 415.271943 353.561321 
L 415.271943 350.092068 
L 425.015415 350.092068 
L 425.015415 346.493527 
L 431.511062 346.493527 
L 431.511062 343.907748 
L 438.00671 343.907748 
L 438.00671 340.438496 
L 444.502358 340.438496 
L 444.502358 336.969243 
L 446.126269 336.969243 
L 446.126269 334.986813 
L 454.245829 334.986813 
L 454.245829 333.89583 
L 460.741477 333.89583 
L 460.741477 330.426577 
L 462.365389 330.426577 
L 462.365389 327.840799 
L 467.237124 327.840799 
L 467.237124 324.371546 
L 476.980596 324.371546 
L 476.980596 320.902293 
L 485.100155 320.902293 
L 485.100155 317.605426 
L 491.595803 317.605426 
L 491.595803 314.804166 
L 493.219715 314.804166 
L 493.219715 311.334913 
L 501.339275 311.334913 
L 501.339275 307.86566 
L 506.21101 307.86566 
L 506.21101 304.568793 
L 514.33057 304.568793 
L 514.33057 301.09954 
L 519.202306 301.09954 
L 519.202306 297.802672 
L 525.697953 297.802672 
L 525.697953 294.33342 
L 532.193601 294.33342 
L 532.193601 290.864167 
L 538.689249 290.864167 
L 538.689249 287.394914 
L 540.313161 287.394914 
L 540.313161 284.098047 
L 548.43272 284.098047 
L 548.43272 280.628794 
L 556.55228 280.628794 
L 556.55228 277.159541 
L 563.047927 277.159541 
L 563.047927 273.862674 
L 569.543575 273.862674 
L 569.543575 269.831445 
L 577.663135 269.831445 
L 577.663135 266.362192 
L 582.53487 266.362192 
L 582.53487 263.065325 
L 584.158782 263.065325 
L 584.158782 259.445235 
L 595.526166 259.445235 
L 595.526166 255.975982 
L 597.150078 255.975982 
L 597.150078 252.355893 
L 605.269637 252.355893 
L 605.269637 248.735803 
L 611.765285 248.735803 
L 611.765285 245.115713 
L 615.013109 245.115713 
L 615.013109 243.063251 
L 618.260933 243.063251 
L 618.260933 242.179777 
L 628.004404 242.179777 
L 628.004404 238.559687 
L 628.004404 238.559687 
L 631.252228 238.559687 
L 631.252228 235.090435 
L 634.500052 235.090435 
L 634.500052 231.470345 
L 644.243523 231.470345 
L 644.243523 227.850255 
L 649.115259 227.850255 
L 649.115259 227.67787 
L 652.363083 227.67787 
L 652.363083 224.05778 
L 658.858731 224.05778 
L 658.858731 220.43769 
L 660.482642 220.43769 
L 660.482642 216.968437 
L 678.345674 216.968437 
L 678.345674 213.348348 
L 684.841321 213.348348 
L 684.841321 209.728258 
L 686.465233 209.728258 
L 686.465233 208.952524 
L 694.584793 208.952524 
L 694.584793 203.964127 
L 697.832617 203.964127 
L 697.832617 203.964127 
" clip-path="url(#p74c6a6df3d)" style="fill: none; stroke: #0000ff; stroke-width: 1.5; stroke-linecap: square"/>
   </g>
   <g id="line2d_36">
    <path d="M 106.728679 455.7 
L 109.976503 455.7 
L 109.976503 451.692043 
L 116.47215 451.692043 
L 116.47215 448.007309 
L 127.839534 448.007309 
L 127.839534 444.408768 
L 129.463446 444.408768 
L 129.463446 440.724033 
L 134.335181 440.724033 
L 134.335181 437.922773 
L 144.078653 437.922773 
L 144.078653 434.324232 
L 152.198212 434.324232 
L 152.198212 427.040956 
L 153.822124 427.040956 
L 153.822124 426.238072 
L 168.437332 426.238072 
L 168.437332 425.873046 
L 171.685155 425.873046 
L 171.685155 422.274504 
L 179.804715 422.274504 
L 179.804715 418.259868 
L 187.924275 418.259868 
L 187.924275 417.397942 
L 192.79601 417.397942 
L 192.79601 413.7994 
L 196.043834 413.7994 
L 196.043834 410.028473 
L 202.539482 410.028473 
L 202.539482 406.343739 
L 209.03513 406.343739 
L 209.03513 399.857745 
L 218.778601 399.857745 
L 218.778601 396.17301 
L 220.402513 396.17301 
L 220.402513 392.488276 
L 228.522073 392.488276 
L 228.522073 388.803542 
L 233.393808 388.803542 
L 233.393808 385.291193 
L 236.641632 385.291193 
L 236.641632 384.704867 
L 241.513368 384.704867 
L 241.513368 381.020133 
L 243.13728 381.020133 
L 243.13728 377.335399 
L 251.256839 377.335399 
L 251.256839 376.257991 
L 252.880751 376.257991 
L 252.880751 372.573257 
L 256.128575 372.573257 
L 256.128575 368.974715 
L 261.000311 368.974715 
L 261.000311 365.289981 
L 264.248135 365.289981 
L 264.248135 361.669891 
L 264.248135 361.669891 
L 269.11987 361.669891 
L 269.11987 357.985157 
L 270.743782 357.985157 
L 270.743782 357.726579 
L 273.991606 357.726579 
L 273.991606 354.041845 
L 280.487254 354.041845 
L 280.487254 350.357111 
L 282.111166 350.357111 
L 282.111166 346.672376 
L 290.230725 346.672376 
L 290.230725 342.987642 
L 298.350285 342.987642 
L 298.350285 338.958137 
L 304.845933 338.958137 
L 304.845933 338.634915 
L 306.469845 338.634915 
L 306.469845 334.950181 
L 311.34158 334.950181 
L 311.34158 331.265447 
L 314.589404 331.265447 
L 314.589404 327.580712 
L 317.837228 327.580712 
L 317.837228 324.068363 
L 322.708964 324.068363 
L 322.708964 320.383629 
L 324.332876 320.383629 
L 324.332876 316.87128 
L 330.828523 316.87128 
L 330.828523 313.186546 
L 338.948083 313.186546 
L 338.948083 309.501811 
L 340.571995 309.501811 
L 340.571995 305.817077 
L 347.067642 305.817077 
L 347.067642 301.625961 
L 353.56329 301.625961 
L 353.56329 297.941227 
L 360.058938 297.941227 
L 360.058938 294.428878 
L 364.930674 294.428878 
L 364.930674 287.317987 
L 382.793705 287.317987 
L 382.793705 283.805638 
L 384.417617 283.805638 
L 384.417617 282.728231 
L 389.289352 282.728231 
L 389.289352 279.129689 
L 390.913264 279.129689 
L 390.913264 275.61734 
L 392.537176 275.61734 
L 392.537176 274.539932 
L 395.785 274.539932 
L 395.785 270.855198 
L 405.528472 270.855198 
L 405.528472 267.342849 
L 413.648031 267.342849 
L 413.648031 266.427052 
L 444.502358 266.427052 
L 444.502358 262.742318 
L 446.126269 262.742318 
L 446.126269 255.502139 
L 454.245829 255.502139 
L 454.245829 251.817404 
L 457.493653 251.817404 
L 457.493653 247.301558 
L 467.237124 247.301558 
L 467.237124 243.746112 
L 470.484948 243.746112 
L 470.484948 238.503447 
L 475.356684 238.503447 
L 475.356684 238.180224 
L 483.476244 238.180224 
L 483.476244 234.581683 
L 496.467539 234.581683 
L 496.467539 230.983141 
L 501.339275 230.983141 
L 501.339275 223.786058 
L 509.458834 223.786058 
L 509.458834 220.187516 
L 517.578394 220.187516 
L 517.578394 217.386256 
L 520.826218 217.386256 
L 520.826218 215.770145 
L 522.45013 215.770145 
L 522.45013 212.171603 
L 528.945777 212.171603 
L 528.945777 211.826833 
L 533.817513 211.826833 
L 533.817513 208.314483 
L 541.937073 208.314483 
L 541.937073 204.802134 
L 546.808808 204.802134 
L 546.808808 202.000874 
L 561.424016 202.000874 
L 561.424016 201.762121 
L 572.791399 201.762121 
L 572.791399 200.455225 
L 574.415311 200.455225 
L 574.415311 193.258142 
L 579.287047 193.258142 
L 579.287047 189.745793 
L 582.53487 189.745793 
L 582.53487 189.109261 
L 587.406606 189.109261 
L 587.406606 185.424526 
L 592.278342 185.424526 
L 592.278342 181.825985 
L 598.77399 181.825985 
L 598.77399 174.628901 
L 608.517461 174.628901 
L 608.517461 174.033741 
L 611.765285 174.033741 
L 611.765285 170.349007 
L 615.013109 170.349007 
L 615.013109 166.836658 
L 618.260933 166.836658 
L 618.260933 162.311546 
L 623.132668 162.311546 
L 623.132668 155.02827 
L 628.004404 155.02827 
L 628.004404 154.166344 
L 629.628316 154.166344 
L 629.628316 149.641232 
L 634.500052 149.641232 
L 634.500052 145.870305 
L 639.371788 145.870305 
L 639.371788 142.357956 
L 640.995699 142.357956 
L 640.995699 138.673221 
L 644.243523 138.673221 
L 644.243523 134.902295 
L 649.115259 134.902295 
L 649.115259 127.662115 
L 655.610907 127.662115 
L 655.610907 123.891188 
L 657.234819 123.891188 
L 657.234819 118.870468 
L 662.106554 118.870468 
L 662.106554 115.185734 
L 670.226114 115.185734 
L 670.226114 111.587192 
L 676.721762 111.587192 
L 676.721762 109.91721 
L 683.217409 109.91721 
L 683.217409 109.744825 
L 686.465233 109.744825 
L 686.465233 106.18938 
L 696.208705 106.18938 
L 696.208705 102.246068 
L 699.456528 102.246068 
L 699.456528 102.246068 
L 699.456528 98.690622 
L 699.456528 98.690622 
" clip-path="url(#p74c6a6df3d)" style="fill: none; stroke: #008000; stroke-width: 1.5; stroke-linecap: square"/>
   </g>
   <g id="line2d_37">
    <path d="M 106.728679 455.7 
L 111.600415 455.7 
L 111.600415 454.622592 
L 114.848238 454.622592 
L 114.848238 450.851665 
L 118.096062 450.851665 
L 118.096062 447.29622 
L 121.343886 447.29622 
L 121.343886 447.29622 
L 121.343886 443.740775 
L 126.215622 443.740775 
L 126.215622 440.185329 
L 127.839534 440.185329 
L 127.839534 439.754366 
L 129.463446 439.754366 
L 129.463446 439.211999 
L 139.206917 439.211999 
L 139.206917 432.575168 
L 144.078653 432.575168 
L 144.078653 428.890434 
L 148.950389 428.890434 
L 148.950389 425.334988 
L 153.822124 425.334988 
L 153.822124 424.020551 
L 157.069948 424.020551 
L 157.069948 420.422009 
L 161.941684 420.422009 
L 161.941684 416.543342 
L 168.437332 416.543342 
L 168.437332 412.987896 
L 173.309067 412.987896 
L 173.309067 405.747717 
L 179.804715 405.747717 
L 179.804715 402.192271 
L 184.676451 402.192271 
L 184.676451 398.507537 
L 189.548187 398.507537 
L 189.548187 394.822803 
L 192.79601 394.822803 
L 192.79601 391.202713 
L 199.291658 391.202713 
L 199.291658 391.202713 
L 199.291658 387.647268 
L 205.787306 387.647268 
L 205.787306 384.091822 
L 220.402513 384.091822 
L 220.402513 383.928487 
L 222.026425 383.928487 
L 222.026425 380.373042 
L 223.650337 380.373042 
L 223.650337 377.571782 
L 225.274249 377.571782 
L 225.274249 377.571782 
L 225.274249 373.887048 
L 230.145984 373.887048 
L 230.145984 370.202314 
L 243.13728 370.202314 
L 243.13728 366.86235 
L 251.256839 366.86235 
L 251.256839 363.393097 
L 252.880751 363.393097 
L 252.880751 360.591837 
L 257.752487 360.591837 
L 257.752487 357.251873 
L 261.000311 357.251873 
L 261.000311 353.782621 
L 262.624223 353.782621 
L 262.624223 350.442657 
L 272.367694 350.442657 
L 272.367694 346.887211 
L 273.991606 346.887211 
L 273.991606 343.547248 
L 285.35899 343.547248 
L 285.35899 342.896278 
L 291.854637 342.896278 
L 291.854637 339.427025 
L 296.726373 339.427025 
L 296.726373 332.402327 
L 298.350285 332.402327 
L 298.350285 328.717593 
L 303.222021 328.717593 
L 303.222021 325.24834 
L 306.469845 325.24834 
L 306.469845 321.655186 
L 311.34158 321.655186 
L 311.34158 318.185933 
L 316.213316 318.185933 
L 316.213316 311.495231 
L 321.085052 311.495231 
L 321.085052 304.804529 
L 322.708964 304.804529 
L 322.708964 301.335277 
L 325.956788 301.335277 
L 325.956788 298.113828 
L 334.076347 298.113828 
L 334.076347 294.429093 
L 337.324171 294.429093 
L 337.324171 291.08913 
L 338.948083 291.08913 
L 338.948083 287.404395 
L 343.819819 287.404395 
L 343.819819 283.633469 
L 343.819819 283.633469 
L 345.443731 283.633469 
L 345.443731 280.293505 
L 348.691554 280.293505 
L 348.691554 279.35616 
L 350.315466 279.35616 
L 350.315466 276.016196 
L 355.187202 276.016196 
L 355.187202 272.331462 
L 356.811114 272.331462 
L 356.811114 268.991498 
L 361.68285 268.991498 
L 361.68285 267.612416 
L 363.306762 267.612416 
L 363.306762 264.390967 
L 366.554585 264.390967 
L 366.554585 260.706233 
L 371.426321 260.706233 
L 371.426321 253.80005 
L 377.921969 253.80005 
L 377.921969 250.578601 
L 379.545881 250.578601 
L 379.545881 247.109348 
L 387.66544 247.109348 
L 387.66544 243.769384 
L 387.66544 243.769384 
L 390.913264 243.769384 
L 390.913264 237.628161 
L 395.785 237.628161 
L 395.785 231.066748 
L 400.656736 231.066748 
L 400.656736 230.247918 
L 402.280648 230.247918 
L 402.280648 226.907954 
L 412.024119 226.907954 
L 412.024119 223.438702 
L 420.143679 223.438702 
L 420.143679 222.576775 
L 425.015415 222.576775 
L 425.015415 216.169647 
L 429.88715 216.169647 
L 429.88715 212.398721 
L 434.758886 212.398721 
L 434.758886 211.666083 
L 436.382798 211.666083 
L 436.382798 211.46784 
L 441.254534 211.46784 
L 441.254534 207.998588 
L 442.878446 207.998588 
L 442.878446 204.227661 
L 447.750181 204.227661 
L 447.750181 200.758408 
L 449.374093 200.758408 
L 449.374093 197.728738 
L 450.998005 197.728738 
L 450.998005 194.927478 
L 455.869741 194.927478 
L 455.869741 191.458225 
L 467.237124 191.458225 
L 467.237124 188.272546 
L 472.10886 188.272546 
L 472.10886 181.032366 
L 478.604508 181.032366 
L 478.604508 177.261439 
L 485.100155 177.261439 
L 485.100155 172.41526 
L 488.347979 172.41526 
L 488.347979 171.919652 
L 491.595803 171.919652 
L 491.595803 168.176738 
L 493.219715 168.176738 
L 493.219715 164.707485 
L 494.843627 164.707485 
L 494.843627 161.238232 
L 498.091451 161.238232 
L 498.091451 157.467305 
L 499.715363 157.467305 
L 499.715363 153.998053 
L 504.587098 153.998053 
L 504.587098 146.757873 
L 507.834922 146.757873 
L 507.834922 143.28862 
L 509.458834 143.28862 
L 509.458834 139.517694 
L 519.202306 139.517694 
L 519.202306 137.836938 
L 520.826218 137.836938 
L 520.826218 134.066011 
L 522.45013 134.066011 
L 522.45013 132.988603 
L 528.945777 132.988603 
L 528.945777 129.51935 
L 530.569689 129.51935 
L 530.569689 125.748423 
L 533.817513 125.748423 
L 533.817513 122.279171 
L 538.689249 122.279171 
L 538.689249 121.960904 
L 540.313161 121.960904 
L 540.313161 118.491652 
L 541.937073 118.491652 
L 541.937073 114.720725 
L 546.808808 114.720725 
L 546.808808 111.251472 
L 553.304456 111.251472 
L 553.304456 107.782219 
L 559.800104 107.782219 
L 559.800104 104.312967 
L 561.424016 104.312967 
L 561.424016 100.843714 
L 569.543575 100.843714 
L 569.543575 97.396009 
L 571.167487 97.396009 
L 571.167487 94.21033 
L 574.415311 94.21033 
L 574.415311 90.741078 
L 579.287047 90.741078 
L 579.287047 83.802572 
L 584.158782 83.802572 
L 584.158782 80.333319 
L 587.406606 80.333319 
L 587.406606 79.018882 
L 589.030518 79.018882 
L 589.030518 75.549629 
L 590.65443 75.549629 
L 590.65443 72.080377 
L 593.902254 72.080377 
L 593.902254 68.611124 
L 595.526166 68.611124 
L 595.526166 65.017969 
L 598.77399 65.017969 
L 598.77399 61.548717 
L 608.517461 61.548717 
L 608.517461 54.486309 
L 613.389197 54.486309 
L 613.389197 50.893155 
L 616.637021 50.893155 
L 616.637021 47.3 
L 618.260933 47.3 
L 618.260933 47.3 
" clip-path="url(#p74c6a6df3d)" style="fill: none; stroke: #ff0000; stroke-width: 1.5; stroke-linecap: square"/>
   </g>
   <g id="patch_3">
    <path d="M 82.37 476.12 
L 82.37 26.88 
" style="fill: none; stroke: #000000; stroke-width: 0.8; stroke-linejoin: miter; stroke-linecap: square"/>
   </g>
   <g id="patch_4">
    <path d="M 709.2 476.12 
L 709.2 26.88 
" style="fill: none; stroke: #000000; stroke-width: 0.8; stroke-linejoin: miter; stroke-linecap: square"/>
   </g>
   <g id="patch_5">
    <path d="M 82.37 476.12 
L 709.2 476.12 
" style="fill: none; stroke: #000000; stroke-width: 0.8; stroke-linejoin: miter; stroke-linecap: square"/>
   </g>
   <g id="patch_6">
    <path d="M 82.37 26.88 
L 709.2 26.88 
" style="fill: none; stroke: #000000; stroke-width: 0.8; stroke-linejoin: miter; stroke-linecap: square"/>
   </g>
   <g id="text_16">
    <!-- Cumulative Payload Mass to Orbit By Year -->
    <g transform="translate(270.179688 20.88) scale(0.12 -0.12)">
     <defs>
      <path id="DejaVuSans-4f" d="M 2522 4238 
Q 1834 4238 1429 3725 
Q 1025 3213 1025 2328 
Q 1025 1447 1429 934 
Q 1834 422 2522 422 
Q 3209 422 3611 934 
Q 4013 1447 4013 2328 
Q 4013 3213 3611 3725 
Q 3209 4238 2522 4238 
z
M 2522 4750 
Q 3503 4750 4090 4092 
Q 4678 3434 4678 2328 
Q 4678 1225 4090 567 
Q 3503 -91 2522 -91 
Q 1538 -91 948 565 
Q 359 1222 359 2328 
Q 359 3434 948 4092 
Q 1538 4750 2522 4750 
z
" transform="scale(0.015625)"/>
      <path id="DejaVuSans-62" d="M 3116 1747 
Q 3116 2381 2855 2742 
Q 2594 3103 2138 3103 
Q 1681 3103 1420 2742 
Q 1159 2381 1159 1747 
Q 1159 1113 1420 752 
Q 1681 391 2138 391 
Q 2594 391 2855 752 
Q 3116 1113 3116 1747 
z
M 1159 2969 
Q 1341 3281 1617 3432 
Q 1894 3584 2278 3584 
Q 2916 3584 3314 3078 
Q 3713 2572 3713 1747 
Q 3713 922 3314 415 
Q 2916 -91 2278 -91 
Q 1894 -91 1617 61 
Q 1341 213 1159 525 
L 1159 0 
L 581 0 
L 581 4863 
L 1159 4863 
L 1159 2969 
z
" transform="scale(0.015625)"/>
      <path id="DejaVuSans-42" d="M 1259 2228 
L 1259 519 
L 2272 519 
Q 2781 519 3026 730 
Q 3272 941 3272 1375 
Q 3272 1813 3026 2020 
Q 2781 2228 2272 2228 
L 1259 2228 
z
M 1259 4147 
L 1259 2741 
L 2194 2741 
Q 2656 2741 2882 2914 
Q 3109 3088 3109 3444 
Q 3109 3797 2882 3972 
Q 2656 4147 2194 4147 
L 1259 4147 
z
M 628 4666 
L 2241 4666 
Q 2963 4666 3353 4366 
Q 3744 4066 3744 3513 
Q 3744 3084 3544 2831 
Q 3344 2578 2956 2516 
Q 3422 2416 3680 2098 
Q 3938 1781 3938 1306 
Q 3938 681 3513 340 
Q 3088 0 2303 0 
L 628 0 
L 628 4666 
z
" transform="scale(0.015625)"/>
      <path id="DejaVuSans-59" d="M -13 4666 
L 666 4666 
L 1959 2747 
L 3244 4666 
L 3922 4666 
L 2272 2222 
L 2272 0 
L 1638 0 
L 1638 2222 
L -13 4666 
z
" transform="scale(0.015625)"/>
     </defs>
     <use xlink:href="#DejaVuSans-43"/>
     <use xlink:href="#DejaVuSans-75" x="69.824219"/>
     <use xlink:href="#DejaVuSans-6d" x="133.203125"/>
     <use xlink:href="#DejaVuSans-75" x="230.615234"/>
     <use xlink:href="#DejaVuSans-6c" x="293.994141"/>
     <use xlink:href="#DejaVuSans-61" x="321.777344"/>
     <use xlink:href="#DejaVuSans-74" x="383.056641"/>
     <use xlink:href="#DejaVuSans-69" x="422.265625"/>
     <use xlink:href="#DejaVuSans-76" x="450.048828"/>
     <use xlink:href="#DejaVuSans-65" x="509.228516"/>
     <use xlink:href="#DejaVuSans-20" x="570.751953"/>
     <use xlink:href="#DejaVuSans-50" x="602.539062"/>
     <use xlink:href="#DejaVuSans-61" x="658.341797"/>
     <use xlink:href="#DejaVuSans-79" x="719.621094"/>
     <use xlink:href="#DejaVuSans-6c" x="778.800781"/>
     <use xlink:href="#DejaVuSans-6f" x="806.583984"/>
     <use xlink:href="#DejaVuSans-61" x="867.765625"/>
     <use xlink:href="#DejaVuSans-64" x="929.044922"/>
     <use xlink:href="#DejaVuSans-20" x="992.521484"/>
     <use xlink:href="#DejaVuSans-4d" x="1024.308594"/>
     <use xlink:href="#DejaVuSans-61" x="1110.587891"/>
     <use xlink:href="#DejaVuSans-73" x="1171.867188"/>
     <use xlink:href="#DejaVuSans-73" x="1223.966797"/>
     <use xlink:href="#DejaVuSans-20" x="1276.066406"/>
     <use xlink:href="#DejaVuSans-74" x="1307.853516"/>
     <use xlink:href="#DejaVuSans-6f" x="1347.0625"/>
     <use xlink:href="#DejaVuSans-20" x="1408.244141"/>
     <use xlink:href="#DejaVuSans-4f" x="1440.03125"/>
     <use xlink:href="#DejaVuSans-72" x="1518.742188"/>
     <use xlink:href="#DejaVuSans-62" x="1559.855469"/>
     <use xlink:href="#DejaVuSans-69" x="1623.332031"/>
     <use xlink:href="#DejaVuSans-74" x="1651.115234"/>
     <use xlink:href="#DejaVuSans-20" x="1690.324219"/>
     <use xlink:href="#DejaVuSans-42" x="1722.111328"/>
     <use xlink:href="#DejaVuSans-79" x="1790.714844"/>
     <use xlink:href="#DejaVuSans-20" x="1849.894531"/>
     <use xlink:href="#DejaVuSans-59" x="1881.681641"/>
     <use xlink:href="#DejaVuSans-65" x="1929.515625"/>
     <use xlink:href="#DejaVuSans-61" x="1991.039062"/>
     <use xlink:href="#DejaVuSans-72" x="2052.318359"/>
    </g>
   </g>
   <g id="legend_1">
    <g id="patch_7">
     <path d="M 89.37 181.66125 
L 146.82 181.66125 
Q 148.82 181.66125 148.82 179.66125 
L 148.82 33.88 
Q 148.82 31.88 146.82 31.88 
L 89.37 31.88 
Q 87.37 31.88 87.37 33.88 
L 87.37 179.66125 
Q 87.37 181.66125 89.37 181.66125 
z
" style="fill: #ffffff; opacity: 0.8; stroke: #cccccc; stroke-linejoin: miter"/>
    </g>
    <g id="text_17">
     <!-- Year -->
     <g transform="translate(107.5075 43.478437) scale(0.1 -0.1)">
      <use xlink:href="#DejaVuSans-59"/>
      <use xlink:href="#DejaVuSans-65" x="47.833984"/>
      <use xlink:href="#DejaVuSans-61" x="109.357422"/>
      <use xlink:href="#DejaVuSans-72" x="170.636719"/>
     </g>
    </g>
    <g id="line2d_38">
     <path d="M 91.37 54.656562 
L 101.37 54.656562 
L 101.37 54.656562 
L 111.37 54.656562 
L 111.37 54.656562 
" style="fill: none; stroke: #808080; stroke-width: 1.5; stroke-linecap: square"/>
    </g>
    <g id="text_18">
     <!-- 2017 -->
     <g transform="translate(119.37 58.156562) scale(0.1 -0.1)">
      <use xlink:href="#DejaVuSans-32"/>
      <use xlink:href="#DejaVuSans-30" x="63.623047"/>
      <use xlink:href="#DejaVuSans-31" x="127.246094"/>
      <use xlink:href="#DejaVuSans-37" x="190.869141"/>
     </g>
    </g>
    <g id="line2d_39">
     <path d="M 91.37 69.334687 
L 101.37 69.334687 
L 101.37 69.334687 
L 111.37 69.334687 
L 111.37 69.334687 
" style="fill: none; stroke: #90ee90; stroke-width: 1.5; stroke-linecap: square"/>
    </g>
    <g id="text_19">
     <!-- 2018 -->
     <g transform="translate(119.37 72.834687) scale(0.1 -0.1)">
      <defs>
       <path id="DejaVuSans-38" d="M 2034 2216 
Q 1584 2216 1326 1975 
Q 1069 1734 1069 1313 
Q 1069 891 1326 650 
Q 1584 409 2034 409 
Q 2484 409 2743 651 
Q 3003 894 3003 1313 
Q 3003 1734 2745 1975 
Q 2488 2216 2034 2216 
z
M 1403 2484 
Q 997 2584 770 2862 
Q 544 3141 544 3541 
Q 544 4100 942 4425 
Q 1341 4750 2034 4750 
Q 2731 4750 3128 4425 
Q 3525 4100 3525 3541 
Q 3525 3141 3298 2862 
Q 3072 2584 2669 2484 
Q 3125 2378 3379 2068 
Q 3634 1759 3634 1313 
Q 3634 634 3220 271 
Q 2806 -91 2034 -91 
Q 1263 -91 848 271 
Q 434 634 434 1313 
Q 434 1759 690 2068 
Q 947 2378 1403 2484 
z
M 1172 3481 
Q 1172 3119 1398 2916 
Q 1625 2713 2034 2713 
Q 2441 2713 2670 2916 
Q 2900 3119 2900 3481 
Q 2900 3844 2670 4047 
Q 2441 4250 2034 4250 
Q 1625 4250 1398 4047 
Q 1172 3844 1172 3481 
z
" transform="scale(0.015625)"/>
      </defs>
      <use xlink:href="#DejaVuSans-32"/>
      <use xlink:href="#DejaVuSans-30" x="63.623047"/>
      <use xlink:href="#DejaVuSans-31" x="127.246094"/>
      <use xlink:href="#DejaVuSans-38" x="190.869141"/>
     </g>
    </g>
    <g id="line2d_40">
     <path d="M 91.37 84.012812 
L 101.37 84.012812 
L 101.37 84.012812 
L 111.37 84.012812 
L 111.37 84.012812 
" style="fill: none; stroke: #add8e6; stroke-width: 1.5; stroke-linecap: square"/>
    </g>
    <g id="text_20">
     <!-- 2019 -->
     <g transform="translate(119.37 87.512812) scale(0.1 -0.1)">
      <defs>
       <path id="DejaVuSans-39" d="M 703 97 
L 703 672 
Q 941 559 1184 500 
Q 1428 441 1663 441 
Q 2288 441 2617 861 
Q 2947 1281 2994 2138 
Q 2813 1869 2534 1725 
Q 2256 1581 1919 1581 
Q 1219 1581 811 2004 
Q 403 2428 403 3163 
Q 403 3881 828 4315 
Q 1253 4750 1959 4750 
Q 2769 4750 3195 4129 
Q 3622 3509 3622 2328 
Q 3622 1225 3098 567 
Q 2575 -91 1691 -91 
Q 1453 -91 1209 -44 
Q 966 3 703 97 
z
M 1959 2075 
Q 2384 2075 2632 2365 
Q 2881 2656 2881 3163 
Q 2881 3666 2632 3958 
Q 2384 4250 1959 4250 
Q 1534 4250 1286 3958 
Q 1038 3666 1038 3163 
Q 1038 2656 1286 2365 
Q 1534 2075 1959 2075 
z
" transform="scale(0.015625)"/>
      </defs>
      <use xlink:href="#DejaVuSans-32"/>
      <use xlink:href="#DejaVuSans-30" x="63.623047"/>
      <use xlink:href="#DejaVuSans-31" x="127.246094"/>
      <use xlink:href="#DejaVuSans-39" x="190.869141"/>
     </g>
    </g>
    <g id="line2d_41">
     <path d="M 91.37 98.690937 
L 101.37 98.690937 
L 101.37 98.690937 
L 111.37 98.690937 
L 111.37 98.690937 
" style="fill: none; stroke: #ffc0cb; stroke-width: 1.5; stroke-linecap: square"/>
    </g>
    <g id="text_21">
     <!-- 2020 -->
     <g transform="translate(119.37 102.190937) scale(0.1 -0.1)">
      <use xlink:href="#DejaVuSans-32"/>
      <use xlink:href="#DejaVuSans-30" x="63.623047"/>
      <use xlink:href="#DejaVuSans-32" x="127.246094"/>
      <use xlink:href="#DejaVuSans-30" x="190.869141"/>
     </g>
    </g>
    <g id="line2d_42">
     <path d="M 91.37 113.369062 
L 101.37 113.369062 
L 101.37 113.369062 
L 111.37 113.369062 
L 111.37 113.369062 
" style="fill: none; stroke: #800080; stroke-width: 1.5; stroke-linecap: square"/>
    </g>
    <g id="text_22">
     <!-- 2021 -->
     <g transform="translate(119.37 116.869062) scale(0.1 -0.1)">
      <use xlink:href="#DejaVuSans-32"/>
      <use xlink:href="#DejaVuSans-30" x="63.623047"/>
      <use xlink:href="#DejaVuSans-32" x="127.246094"/>
      <use xlink:href="#DejaVuSans-31" x="190.869141"/>
     </g>
    </g>
    <g id="line2d_43">
     <path d="M 91.37 128.047187 
L 101.37 128.047187 
L 101.37 128.047187 
L 111.37 128.047187 
L 111.37 128.047187 
" style="fill: none; stroke: #ffa500; stroke-width: 1.5; stroke-linecap: square"/>
    </g>
    <g id="text_23">
     <!-- 2022 -->
     <g transform="translate(119.37 131.547187) scale(0.1 -0.1)">
      <use xlink:href="#DejaVuSans-32"/>
      <use xlink:href="#DejaVuSans-30" x="63.623047"/>
      <use xlink:href="#DejaVuSans-32" x="127.246094"/>
      <use xlink:href="#DejaVuSans-32" x="190.869141"/>
     </g>
    </g>
    <g id="line2d_44">
     <path d="M 91.37 142.725312 
L 101.37 142.725312 
L 101.37 142.725312 
L 111.37 142.725312 
L 111.37 142.725312 
" style="fill: none; stroke: #0000ff; stroke-width: 1.5; stroke-linecap: square"/>
    </g>
    <g id="text_24">
     <!-- 2023 -->
     <g transform="translate(119.37 146.225312) scale(0.1 -0.1)">
      <defs>
       <path id="DejaVuSans-33" d="M 2597 2516 
Q 3050 2419 3304 2112 
Q 3559 1806 3559 1356 
Q 3559 666 3084 287 
Q 2609 -91 1734 -91 
Q 1441 -91 1130 -33 
Q 819 25 488 141 
L 488 750 
Q 750 597 1062 519 
Q 1375 441 1716 441 
Q 2309 441 2620 675 
Q 2931 909 2931 1356 
Q 2931 1769 2642 2001 
Q 2353 2234 1838 2234 
L 1294 2234 
L 1294 2753 
L 1863 2753 
Q 2328 2753 2575 2939 
Q 2822 3125 2822 3475 
Q 2822 3834 2567 4026 
Q 2313 4219 1838 4219 
Q 1578 4219 1281 4162 
Q 984 4106 628 3988 
L 628 4550 
Q 988 4650 1302 4700 
Q 1616 4750 1894 4750 
Q 2613 4750 3031 4423 
Q 3450 4097 3450 3541 
Q 3450 3153 3228 2886 
Q 3006 2619 2597 2516 
z
" transform="scale(0.015625)"/>
      </defs>
      <use xlink:href="#DejaVuSans-32"/>
      <use xlink:href="#DejaVuSans-30" x="63.623047"/>
      <use xlink:href="#DejaVuSans-32" x="127.246094"/>
      <use xlink:href="#DejaVuSans-33" x="190.869141"/>
     </g>
    </g>
    <g id="line2d_45">
     <path d="M 91.37 157.403437 
L 101.37 157.403437 
L 101.37 157.403437 
L 111.37 157.403437 
L 111.37 157.403437 
" style="fill: none; stroke: #008000; stroke-width: 1.5; stroke-linecap: square"/>
    </g>
    <g id="text_25">
     <!-- 2024 -->
     <g transform="translate(119.37 160.903437) scale(0.1 -0.1)">
      <defs>
       <path id="DejaVuSans-34" d="M 2419 4116 
L 825 1625 
L 2419 1625 
L 2419 4116 
z
M 2253 4666 
L 3047 4666 
L 3047 1625 
L 3713 1625 
L 3713 1100 
L 3047 1100 
L 3047 0 
L 2419 0 
L 2419 1100 
L 313 1100 
L 313 1709 
L 2253 4666 
z
" transform="scale(0.015625)"/>
      </defs>
      <use xlink:href="#DejaVuSans-32"/>
      <use xlink:href="#DejaVuSans-30" x="63.623047"/>
      <use xlink:href="#DejaVuSans-32" x="127.246094"/>
      <use xlink:href="#DejaVuSans-34" x="190.869141"/>
     </g>
    </g>
    <g id="line2d_46">
     <path d="M 91.37 172.081562 
L 101.37 172.081562 
L 101.37 172.081562 
L 111.37 172.081562 
L 111.37 172.081562 
" style="fill: none; stroke: #ff0000; stroke-width: 1.5; stroke-linecap: square"/>
    </g>
    <g id="text_26">
     <!-- 2025 -->
     <g transform="translate(119.37 175.581562) scale(0.1 -0.1)">
      <use xlink:href="#DejaVuSans-32"/>
      <use xlink:href="#DejaVuSans-30" x="63.623047"/>
      <use xlink:href="#DejaVuSans-32" x="127.246094"/>
      <use xlink:href="#DejaVuSans-35" x="190.869141"/>
     </g>
    </g>
   </g>
  </g>
 </g>
 <defs>
  <clipPath id="p74c6a6df3d">
   <rect x="82.37" y="26.88" width="626.83" height="449.24"/>
  </clipPath>
 </defs>
</svg>
