<?xml version="1.0" encoding="utf-8" standalone="no"?>
<!DOCTYPE svg PUBLIC "-//W3C//DTD SVG 1.1//EN"
  "http://www.w3.org/Graphics/SVG/1.1/DTD/svg11.dtd">
<svg xmlns:xlink="http://www.w3.org/1999/xlink" width="720pt" height="504pt" viewBox="0 0 720 504" xmlns="http://www.w3.org/2000/svg" version="1.1">
 <metadata>
  <rdf:RDF xmlns:dc="http://purl.org/dc/elements/1.1/" xmlns:cc="http://creativecommons.org/ns#" xmlns:rdf="http://www.w3.org/1999/02/22-rdf-syntax-ns#">
   <cc:Work>
    <dc:type rdf:resource="http://purl.org/dc/dcmitype/StillImage"/>
    <dc:date>2025-12-11T11:29:06.638318</dc:date>
    <dc:format>image/svg+xml</dc:format>
    <dc:creator>
     <cc:Agent>
      <dc:title>Matplotlib v3.8.2, https://matplotlib.org/</dc:title>
     </cc:Agent>
    </dc:creator>
   </cc:Work>
  </rdf:RDF>
 </metadata>
 <defs>
  <style type="text/css">*{stroke-linejoin: round; stroke-linecap: butt}</style>
 </defs>
 <g id="figure_1">
  <g id="patch_1">
   <path d="M 0 504 
L 720 504 
L 720 0 
L 0 0 
z
" style="fill: #ffffff"/>
  </g>
  <g id="axes_1">
   <g id="patch_2">
    <path d="M 82.37 476.12 
L 709.2 476.12 
L 709.2 26.88 
L 82.37 26.88 
z
" style="fill: #ffffff"/>
   </g>
   <g id="matplotlib.axis_1">
    <g id="xtick_1">
     <g id="line2d_1">
      <path d="M 106.728679 476.12 
L 106.728679 26.88 
" clip-path="url(#p2c643d0003)" style="fill: none; stroke: #b0b0b0; stroke-width: 0.8; stroke-linecap: square"/>
     </g>
     <g id="line2d_2">
      <defs>
       <path id="md0e83c27ae" d="M 0 0 
L 0 3.5 
" style="stroke: #000000; stroke-width: 0.8"/>
      </defs>
      <g>
       <use xlink:href="#md0e83c27ae" x="106.728679" y="476.12" style="stroke: #000000; stroke-width: 0.8"/>
      </g>
     </g>
     <g id="text_1">
      <!-- Jan 1 -->
      <g transform="translate(94.250554 490.718437) scale(0.1 -0.1)">
       <defs>
        <path id="DejaVuSans-4a" d="M 628 4666 
L 1259 4666 
L 1259 325 
Q 1259 -519 939 -900 
Q 619 -1281 -91 -1281 
L -331 -1281 
L -331 -750 
L -134 -750 
Q 284 -750 456 -515 
Q 628 -281 628 325 
L 628 4666 
z
" transform="scale(0.015625)"/>
        <path id="DejaVuSans-61" d="M 2194 1759 
Q 1497 1759 1228 1600 
Q 959 1441 959 1056 
Q 959 750 1161 570 
Q 1363 391 1709 391 
Q 2188 391 2477 730 
Q 2766 1069 2766 1631 
L 2766 1759 
L 2194 1759 
z
M 3341 1997 
L 3341 0 
L 2766 0 
L 2766 531 
Q 2569 213 2275 61 
Q 1981 -91 1556 -91 
Q 1019 -91 701 211 
Q 384 513 384 1019 
Q 384 1609 779 1909 
Q 1175 2209 1959 2209 
L 2766 2209 
L 2766 2266 
Q 2766 2663 2505 2880 
Q 2244 3097 1772 3097 
Q 1472 3097 1187 3025 
Q 903 2953 641 2809 
L 641 3341 
Q 956 3463 1253 3523 
Q 1550 3584 1831 3584 
Q 2591 3584 2966 3190 
Q 3341 2797 3341 1997 
z
" transform="scale(0.015625)"/>
        <path id="DejaVuSans-6e" d="M 3513 2113 
L 3513 0 
L 2938 0 
L 2938 2094 
Q 2938 2591 2744 2837 
Q 2550 3084 2163 3084 
Q 1697 3084 1428 2787 
Q 1159 2491 1159 1978 
L 1159 0 
L 581 0 
L 581 3500 
L 1159 3500 
L 1159 2956 
Q 1366 3272 1645 3428 
Q 1925 3584 2291 3584 
Q 2894 3584 3203 3211 
Q 3513 2838 3513 2113 
z
" transform="scale(0.015625)"/>
        <path id="DejaVuSans-20" transform="scale(0.015625)"/>
        <path id="DejaVuSans-31" d="M 794 531 
L 1825 531 
L 1825 4091 
L 703 3866 
L 703 4441 
L 1819 4666 
L 2450 4666 
L 2450 531 
L 3481 531 
L 3481 0 
L 794 0 
L 794 531 
z
" transform="scale(0.015625)"/>
       </defs>
       <use xlink:href="#DejaVuSans-4a"/>
       <use xlink:href="#DejaVuSans-61" x="29.492188"/>
       <use xlink:href="#DejaVuSans-6e" x="90.771484"/>
       <use xlink:href="#DejaVuSans-20" x="154.150391"/>
       <use xlink:href="#DejaVuSans-31" x="185.9375"/>
      </g>
     </g>
    </g>
    <g id="xtick_2">
     <g id="line2d_3">
      <path d="M 204.163394 476.12 
L 204.163394 26.88 
" clip-path="url(#p2c643d0003)" style="fill: none; stroke: #b0b0b0; stroke-width: 0.8; stroke-linecap: square"/>
     </g>
     <g id="line2d_4">
      <g>
       <use xlink:href="#md0e83c27ae" x="204.163394" y="476.12" style="stroke: #000000; stroke-width: 0.8"/>
      </g>
     </g>
     <g id="text_2">
      <!-- Mar 1 -->
      <g transform="translate(189.959488 490.718437) scale(0.1 -0.1)">
       <defs>
        <path id="DejaVuSans-4d" d="M 628 4666 
L 1569 4666 
L 2759 1491 
L 3956 4666 
L 4897 4666 
L 4897 0 
L 4281 0 
L 4281 4097 
L 3078 897 
L 2444 897 
L 1241 4097 
L 1241 0 
L 628 0 
L 628 4666 
z
" transform="scale(0.015625)"/>
        <path id="DejaVuSans-72" d="M 2631 2963 
Q 2534 3019 2420 3045 
Q 2306 3072 2169 3072 
Q 1681 3072 1420 2755 
Q 1159 2438 1159 1844 
L 1159 0 
L 581 0 
L 581 3500 
L 1159 3500 
L 1159 2956 
Q 1341 3275 1631 3429 
Q 1922 3584 2338 3584 
Q 2397 3584 2469 3576 
Q 2541 3569 2628 3553 
L 2631 2963 
z
" transform="scale(0.015625)"/>
       </defs>
       <use xlink:href="#DejaVuSans-4d"/>
       <use xlink:href="#DejaVuSans-61" x="86.279297"/>
       <use xlink:href="#DejaVuSans-72" x="147.558594"/>
       <use xlink:href="#DejaVuSans-20" x="188.671875"/>
       <use xlink:href="#DejaVuSans-31" x="220.458984"/>
      </g>
     </g>
    </g>
    <g id="xtick_3">
     <g id="line2d_5">
      <path d="M 303.222021 476.12 
L 303.222021 26.88 
" clip-path="url(#p2c643d0003)" style="fill: none; stroke: #b0b0b0; stroke-width: 0.8; stroke-linecap: square"/>
     </g>
     <g id="line2d_6">
      <g>
       <use xlink:href="#md0e83c27ae" x="303.222021" y="476.12" style="stroke: #000000; stroke-width: 0.8"/>
      </g>
     </g>
     <g id="text_3">
      <!-- May 1 -->
      <g transform="translate(288.114208 490.718437) scale(0.1 -0.1)">
       <defs>
        <path id="DejaVuSans-79" d="M 2059 -325 
Q 1816 -950 1584 -1140 
Q 1353 -1331 966 -1331 
L 506 -1331 
L 506 -850 
L 844 -850 
Q 1081 -850 1212 -737 
Q 1344 -625 1503 -206 
L 1606 56 
L 191 3500 
L 800 3500 
L 1894 763 
L 2988 3500 
L 3597 3500 
L 2059 -325 
z
" transform="scale(0.015625)"/>
       </defs>
       <use xlink:href="#DejaVuSans-4d"/>
       <use xlink:href="#DejaVuSans-61" x="86.279297"/>
       <use xlink:href="#DejaVuSans-79" x="147.558594"/>
       <use xlink:href="#DejaVuSans-20" x="206.738281"/>
       <use xlink:href="#DejaVuSans-31" x="238.525391"/>
      </g>
     </g>
    </g>
    <g id="xtick_4">
     <g id="line2d_7">
      <path d="M 402.280648 476.12 
L 402.280648 26.88 
" clip-path="url(#p2c643d0003)" style="fill: none; stroke: #b0b0b0; stroke-width: 0.8; stroke-linecap: square"/>
     </g>
     <g id="line2d_8">
      <g>
       <use xlink:href="#md0e83c27ae" x="402.280648" y="476.12" style="stroke: #000000; stroke-width: 0.8"/>
      </g>
     </g>
     <g id="text_4">
      <!-- Jul 1 -->
      <g transform="translate(391.477523 490.718437) scale(0.1 -0.1)">
       <defs>
        <path id="DejaVuSans-75" d="M 544 1381 
L 544 3500 
L 1119 3500 
L 1119 1403 
Q 1119 906 1312 657 
Q 1506 409 1894 409 
Q 2359 409 2629 706 
Q 2900 1003 2900 1516 
L 2900 3500 
L 3475 3500 
L 3475 0 
L 2900 0 
L 2900 538 
Q 2691 219 2414 64 
Q 2138 -91 1772 -91 
Q 1169 -91 856 284 
Q 544 659 544 1381 
z
M 1991 3584 
L 1991 3584 
z
" transform="scale(0.015625)"/>
        <path id="DejaVuSans-6c" d="M 603 4863 
L 1178 4863 
L 1178 0 
L 603 0 
L 603 4863 
z
" transform="scale(0.015625)"/>
       </defs>
       <use xlink:href="#DejaVuSans-4a"/>
       <use xlink:href="#DejaVuSans-75" x="29.492188"/>
       <use xlink:href="#DejaVuSans-6c" x="92.871094"/>
       <use xlink:href="#DejaVuSans-20" x="120.654297"/>
       <use xlink:href="#DejaVuSans-31" x="152.441406"/>
      </g>
     </g>
    </g>
    <g id="xtick_5">
     <g id="line2d_9">
      <path d="M 502.963187 476.12 
L 502.963187 26.88 
" clip-path="url(#p2c643d0003)" style="fill: none; stroke: #b0b0b0; stroke-width: 0.8; stroke-linecap: square"/>
     </g>
     <g id="line2d_10">
      <g>
       <use xlink:href="#md0e83c27ae" x="502.963187" y="476.12" style="stroke: #000000; stroke-width: 0.8"/>
      </g>
     </g>
     <g id="text_5">
      <!-- Sep 1 -->
      <g transform="translate(488.767874 490.718437) scale(0.1 -0.1)">
       <defs>
        <path id="DejaVuSans-53" d="M 3425 4513 
L 3425 3897 
Q 3066 4069 2747 4153 
Q 2428 4238 2131 4238 
Q 1616 4238 1336 4038 
Q 1056 3838 1056 3469 
Q 1056 3159 1242 3001 
Q 1428 2844 1947 2747 
L 2328 2669 
Q 3034 2534 3370 2195 
Q 3706 1856 3706 1288 
Q 3706 609 3251 259 
Q 2797 -91 1919 -91 
Q 1588 -91 1214 -16 
Q 841 59 441 206 
L 441 856 
Q 825 641 1194 531 
Q 1563 422 1919 422 
Q 2459 422 2753 634 
Q 3047 847 3047 1241 
Q 3047 1584 2836 1778 
Q 2625 1972 2144 2069 
L 1759 2144 
Q 1053 2284 737 2584 
Q 422 2884 422 3419 
Q 422 4038 858 4394 
Q 1294 4750 2059 4750 
Q 2388 4750 2728 4690 
Q 3069 4631 3425 4513 
z
" transform="scale(0.015625)"/>
        <path id="DejaVuSans-65" d="M 3597 1894 
L 3597 1613 
L 953 1613 
Q 991 1019 1311 708 
Q 1631 397 2203 397 
Q 2534 397 2845 478 
Q 3156 559 3463 722 
L 3463 178 
Q 3153 47 2828 -22 
Q 2503 -91 2169 -91 
Q 1331 -91 842 396 
Q 353 884 353 1716 
Q 353 2575 817 3079 
Q 1281 3584 2069 3584 
Q 2775 3584 3186 3129 
Q 3597 2675 3597 1894 
z
M 3022 2063 
Q 3016 2534 2758 2815 
Q 2500 3097 2075 3097 
Q 1594 3097 1305 2825 
Q 1016 2553 972 2059 
L 3022 2063 
z
" transform="scale(0.015625)"/>
        <path id="DejaVuSans-70" d="M 1159 525 
L 1159 -1331 
L 581 -1331 
L 581 3500 
L 1159 3500 
L 1159 2969 
Q 1341 3281 1617 3432 
Q 1894 3584 2278 3584 
Q 2916 3584 3314 3078 
Q 3713 2572 3713 1747 
Q 3713 922 3314 415 
Q 2916 -91 2278 -91 
Q 1894 -91 1617 61 
Q 1341 213 1159 525 
z
M 3116 1747 
Q 3116 2381 2855 2742 
Q 2594 3103 2138 3103 
Q 1681 3103 1420 2742 
Q 1159 2381 1159 1747 
Q 1159 1113 1420 752 
Q 1681 391 2138 391 
Q 2594 391 2855 752 
Q 3116 1113 3116 1747 
z
" transform="scale(0.015625)"/>
       </defs>
       <use xlink:href="#DejaVuSans-53"/>
       <use xlink:href="#DejaVuSans-65" x="63.476562"/>
       <use xlink:href="#DejaVuSans-70" x="125"/>
       <use xlink:href="#DejaVuSans-20" x="188.476562"/>
       <use xlink:href="#DejaVuSans-31" x="220.263672"/>
      </g>
     </g>
    </g>
    <g id="xtick_6">
     <g id="line2d_11">
      <path d="M 602.021813 476.12 
L 602.021813 26.88 
" clip-path="url(#p2c643d0003)" style="fill: none; stroke: #b0b0b0; stroke-width: 0.8; stroke-linecap: square"/>
     </g>
     <g id="line2d_12">
      <g>
       <use xlink:href="#md0e83c27ae" x="602.021813" y="476.12" style="stroke: #000000; stroke-width: 0.8"/>
      </g>
     </g>
     <g id="text_6">
      <!-- Nov 1 -->
      <g transform="translate(587.492126 490.718437) scale(0.1 -0.1)">
       <defs>
        <path id="DejaVuSans-4e" d="M 628 4666 
L 1478 4666 
L 3547 763 
L 3547 4666 
L 4159 4666 
L 4159 0 
L 3309 0 
L 1241 3903 
L 1241 0 
L 628 0 
L 628 4666 
z
" transform="scale(0.015625)"/>
        <path id="DejaVuSans-6f" d="M 1959 3097 
Q 1497 3097 1228 2736 
Q 959 2375 959 1747 
Q 959 1119 1226 758 
Q 1494 397 1959 397 
Q 2419 397 2687 759 
Q 2956 1122 2956 1747 
Q 2956 2369 2687 2733 
Q 2419 3097 1959 3097 
z
M 1959 3584 
Q 2709 3584 3137 3096 
Q 3566 2609 3566 1747 
Q 3566 888 3137 398 
Q 2709 -91 1959 -91 
Q 1206 -91 779 398 
Q 353 888 353 1747 
Q 353 2609 779 3096 
Q 1206 3584 1959 3584 
z
" transform="scale(0.015625)"/>
        <path id="DejaVuSans-76" d="M 191 3500 
L 800 3500 
L 1894 563 
L 2988 3500 
L 3597 3500 
L 2284 0 
L 1503 0 
L 191 3500 
z
" transform="scale(0.015625)"/>
       </defs>
       <use xlink:href="#DejaVuSans-4e"/>
       <use xlink:href="#DejaVuSans-6f" x="74.804688"/>
       <use xlink:href="#DejaVuSans-76" x="135.986328"/>
       <use xlink:href="#DejaVuSans-20" x="195.166016"/>
       <use xlink:href="#DejaVuSans-31" x="226.953125"/>
      </g>
     </g>
    </g>
   </g>
   <g id="matplotlib.axis_2">
    <g id="ytick_1">
     <g id="line2d_13">
      <path d="M 82.37 455.7 
L 709.2 455.7 
" clip-path="url(#p2c643d0003)" style="fill: none; stroke: #b0b0b0; stroke-width: 0.8; stroke-linecap: square"/>
     </g>
     <g id="line2d_14">
      <defs>
       <path id="m508b40ce26" d="M 0 0 
L -3.5 0 
" style="stroke: #000000; stroke-width: 0.8"/>
      </defs>
      <g>
       <use xlink:href="#m508b40ce26" x="82.37" y="455.7" style="stroke: #000000; stroke-width: 0.8"/>
      </g>
     </g>
     <g id="text_7">
      <!-- 0 -->
      <g transform="translate(69.0075 459.499219) scale(0.1 -0.1)">
       <defs>
        <path id="DejaVuSans-30" d="M 2034 4250 
Q 1547 4250 1301 3770 
Q 1056 3291 1056 2328 
Q 1056 1369 1301 889 
Q 1547 409 2034 409 
Q 2525 409 2770 889 
Q 3016 1369 3016 2328 
Q 3016 3291 2770 3770 
Q 2525 4250 2034 4250 
z
M 2034 4750 
Q 2819 4750 3233 4129 
Q 3647 3509 3647 2328 
Q 3647 1150 3233 529 
Q 2819 -91 2034 -91 
Q 1250 -91 836 529 
Q 422 1150 422 2328 
Q 422 3509 836 4129 
Q 1250 4750 2034 4750 
z
" transform="scale(0.015625)"/>
       </defs>
       <use xlink:href="#DejaVuSans-30"/>
      </g>
     </g>
    </g>
    <g id="ytick_2">
     <g id="line2d_15">
      <path d="M 82.37 358.898893 
L 709.2 358.898893 
" clip-path="url(#p2c643d0003)" style="fill: none; stroke: #b0b0b0; stroke-width: 0.8; stroke-linecap: square"/>
     </g>
     <g id="line2d_16">
      <g>
       <use xlink:href="#m508b40ce26" x="82.37" y="358.898893" style="stroke: #000000; stroke-width: 0.8"/>
      </g>
     </g>
     <g id="text_8">
      <!-- 500,000 -->
      <g transform="translate(34.016875 362.698111) scale(0.1 -0.1)">
       <defs>
        <path id="DejaVuSans-35" d="M 691 4666 
L 3169 4666 
L 3169 4134 
L 1269 4134 
L 1269 2991 
Q 1406 3038 1543 3061 
Q 1681 3084 1819 3084 
Q 2600 3084 3056 2656 
Q 3513 2228 3513 1497 
Q 3513 744 3044 326 
Q 2575 -91 1722 -91 
Q 1428 -91 1123 -41 
Q 819 9 494 109 
L 494 744 
Q 775 591 1075 516 
Q 1375 441 1709 441 
Q 2250 441 2565 725 
Q 2881 1009 2881 1497 
Q 2881 1984 2565 2268 
Q 2250 2553 1709 2553 
Q 1456 2553 1204 2497 
Q 953 2441 691 2322 
L 691 4666 
z
" transform="scale(0.015625)"/>
        <path id="DejaVuSans-2c" d="M 750 794 
L 1409 794 
L 1409 256 
L 897 -744 
L 494 -744 
L 750 256 
L 750 794 
z
" transform="scale(0.015625)"/>
       </defs>
       <use xlink:href="#DejaVuSans-35"/>
       <use xlink:href="#DejaVuSans-30" x="63.623047"/>
       <use xlink:href="#DejaVuSans-30" x="127.246094"/>
       <use xlink:href="#DejaVuSans-2c" x="190.869141"/>
       <use xlink:href="#DejaVuSans-30" x="222.65625"/>
       <use xlink:href="#DejaVuSans-30" x="286.279297"/>
       <use xlink:href="#DejaVuSans-30" x="349.902344"/>
      </g>
     </g>
    </g>
    <g id="ytick_3">
     <g id="line2d_17">
      <path d="M 82.37 262.097785 
L 709.2 262.097785 
" clip-path="url(#p2c643d0003)" style="fill: none; stroke: #b0b0b0; stroke-width: 0.8; stroke-linecap: square"/>
     </g>
     <g id="line2d_18">
      <g>
       <use xlink:href="#m508b40ce26" x="82.37" y="262.097785" style="stroke: #000000; stroke-width: 0.8"/>
      </g>
     </g>
     <g id="text_9">
      <!-- 1,000,000 -->
      <g transform="translate(24.47625 265.897004) scale(0.1 -0.1)">
       <use xlink:href="#DejaVuSans-31"/>
       <use xlink:href="#DejaVuSans-2c" x="63.623047"/>
       <use xlink:href="#DejaVuSans-30" x="95.410156"/>
       <use xlink:href="#DejaVuSans-30" x="159.033203"/>
       <use xlink:href="#DejaVuSans-30" x="222.65625"/>
       <use xlink:href="#DejaVuSans-2c" x="286.279297"/>
       <use xlink:href="#DejaVuSans-30" x="318.066406"/>
       <use xlink:href="#DejaVuSans-30" x="381.689453"/>
       <use xlink:href="#DejaVuSans-30" x="445.3125"/>
      </g>
     </g>
    </g>
    <g id="ytick_4">
     <g id="line2d_19">
      <path d="M 82.37 165.296678 
L 709.2 165.296678 
" clip-path="url(#p2c643d0003)" style="fill: none; stroke: #b0b0b0; stroke-width: 0.8; stroke-linecap: square"/>
     </g>
     <g id="line2d_20">
      <g>
       <use xlink:href="#m508b40ce26" x="82.37" y="165.296678" style="stroke: #000000; stroke-width: 0.8"/>
      </g>
     </g>
     <g id="text_10">
      <!-- 1,500,000 -->
      <g transform="translate(24.47625 169.095897) scale(0.1 -0.1)">
       <use xlink:href="#DejaVuSans-31"/>
       <use xlink:href="#DejaVuSans-2c" x="63.623047"/>
       <use xlink:href="#DejaVuSans-35" x="95.410156"/>
       <use xlink:href="#DejaVuSans-30" x="159.033203"/>
       <use xlink:href="#DejaVuSans-30" x="222.65625"/>
       <use xlink:href="#DejaVuSans-2c" x="286.279297"/>
       <use xlink:href="#DejaVuSans-30" x="318.066406"/>
       <use xlink:href="#DejaVuSans-30" x="381.689453"/>
       <use xlink:href="#DejaVuSans-30" x="445.3125"/>
      </g>
     </g>
    </g>
    <g id="ytick_5">
     <g id="line2d_21">
      <path d="M 82.37 68.49557 
L 709.2 68.49557 
" clip-path="url(#p2c643d0003)" style="fill: none; stroke: #b0b0b0; stroke-width: 0.8; stroke-linecap: square"/>
     </g>
     <g id="line2d_22">
      <g>
       <use xlink:href="#m508b40ce26" x="82.37" y="68.49557" style="stroke: #000000; stroke-width: 0.8"/>
      </g>
     </g>
     <g id="text_11">
      <!-- 2,000,000 -->
      <g transform="translate(24.47625 72.294789) scale(0.1 -0.1)">
       <defs>
        <path id="DejaVuSans-32" d="M 1228 531 
L 3431 531 
L 3431 0 
L 469 0 
L 469 531 
Q 828 903 1448 1529 
Q 2069 2156 2228 2338 
Q 2531 2678 2651 2914 
Q 2772 3150 2772 3378 
Q 2772 3750 2511 3984 
Q 2250 4219 1831 4219 
Q 1534 4219 1204 4116 
Q 875 4013 500 3803 
L 500 4441 
Q 881 4594 1212 4672 
Q 1544 4750 1819 4750 
Q 2544 4750 2975 4387 
Q 3406 4025 3406 3419 
Q 3406 3131 3298 2873 
Q 3191 2616 2906 2266 
Q 2828 2175 2409 1742 
Q 1991 1309 1228 531 
z
" transform="scale(0.015625)"/>
       </defs>
       <use xlink:href="#DejaVuSans-32"/>
       <use xlink:href="#DejaVuSans-2c" x="63.623047"/>
       <use xlink:href="#DejaVuSans-30" x="95.410156"/>
       <use xlink:href="#DejaVuSans-30" x="159.033203"/>
       <use xlink:href="#DejaVuSans-30" x="222.65625"/>
       <use xlink:href="#DejaVuSans-2c" x="286.279297"/>
       <use xlink:href="#DejaVuSans-30" x="318.066406"/>
       <use xlink:href="#DejaVuSans-30" x="381.689453"/>
       <use xlink:href="#DejaVuSans-30" x="445.3125"/>
      </g>
     </g>
    </g>
    <g id="text_12">
     <!-- Cumulative Payload Mass (kg) -->
     <g transform="translate(18.396562 326.863281) rotate(-90) scale(0.1 -0.1)">
      <defs>
       <path id="DejaVuSans-43" d="M 4122 4306 
L 4122 3641 
Q 3803 3938 3442 4084 
Q 3081 4231 2675 4231 
Q 1875 4231 1450 3742 
Q 1025 3253 1025 2328 
Q 1025 1406 1450 917 
Q 1875 428 2675 428 
Q 3081 428 3442 575 
Q 3803 722 4122 1019 
L 4122 359 
Q 3791 134 3420 21 
Q 3050 -91 2638 -91 
Q 1578 -91 968 557 
Q 359 1206 359 2328 
Q 359 3453 968 4101 
Q 1578 4750 2638 4750 
Q 3056 4750 3426 4639 
Q 3797 4528 4122 4306 
z
" transform="scale(0.015625)"/>
       <path id="DejaVuSans-6d" d="M 3328 2828 
Q 3544 3216 3844 3400 
Q 4144 3584 4550 3584 
Q 5097 3584 5394 3201 
Q 5691 2819 5691 2113 
L 5691 0 
L 5113 0 
L 5113 2094 
Q 5113 2597 4934 2840 
Q 4756 3084 4391 3084 
Q 3944 3084 3684 2787 
Q 3425 2491 3425 1978 
L 3425 0 
L 2847 0 
L 2847 2094 
Q 2847 2600 2669 2842 
Q 2491 3084 2119 3084 
Q 1678 3084 1418 2786 
Q 1159 2488 1159 1978 
L 1159 0 
L 581 0 
L 581 3500 
L 1159 3500 
L 1159 2956 
Q 1356 3278 1631 3431 
Q 1906 3584 2284 3584 
Q 2666 3584 2933 3390 
Q 3200 3197 3328 2828 
z
" transform="scale(0.015625)"/>
       <path id="DejaVuSans-74" d="M 1172 4494 
L 1172 3500 
L 2356 3500 
L 2356 3053 
L 1172 3053 
L 1172 1153 
Q 1172 725 1289 603 
Q 1406 481 1766 481 
L 2356 481 
L 2356 0 
L 1766 0 
Q 1100 0 847 248 
Q 594 497 594 1153 
L 594 3053 
L 172 3053 
L 172 3500 
L 594 3500 
L 594 4494 
L 1172 4494 
z
" transform="scale(0.015625)"/>
       <path id="DejaVuSans-69" d="M 603 3500 
L 1178 3500 
L 1178 0 
L 603 0 
L 603 3500 
z
M 603 4863 
L 1178 4863 
L 1178 4134 
L 603 4134 
L 603 4863 
z
" transform="scale(0.015625)"/>
       <path id="DejaVuSans-50" d="M 1259 4147 
L 1259 2394 
L 2053 2394 
Q 2494 2394 2734 2622 
Q 2975 2850 2975 3272 
Q 2975 3691 2734 3919 
Q 2494 4147 2053 4147 
L 1259 4147 
z
M 628 4666 
L 2053 4666 
Q 2838 4666 3239 4311 
Q 3641 3956 3641 3272 
Q 3641 2581 3239 2228 
Q 2838 1875 2053 1875 
L 1259 1875 
L 1259 0 
L 628 0 
L 628 4666 
z
" transform="scale(0.015625)"/>
       <path id="DejaVuSans-64" d="M 2906 2969 
L 2906 4863 
L 3481 4863 
L 3481 0 
L 2906 0 
L 2906 525 
Q 2725 213 2448 61 
Q 2172 -91 1784 -91 
Q 1150 -91 751 415 
Q 353 922 353 1747 
Q 353 2572 751 3078 
Q 1150 3584 1784 3584 
Q 2172 3584 2448 3432 
Q 2725 3281 2906 2969 
z
M 947 1747 
Q 947 1113 1208 752 
Q 1469 391 1925 391 
Q 2381 391 2643 752 
Q 2906 1113 2906 1747 
Q 2906 2381 2643 2742 
Q 2381 3103 1925 3103 
Q 1469 3103 1208 2742 
Q 947 2381 947 1747 
z
" transform="scale(0.015625)"/>
       <path id="DejaVuSans-73" d="M 2834 3397 
L 2834 2853 
Q 2591 2978 2328 3040 
Q 2066 3103 1784 3103 
Q 1356 3103 1142 2972 
Q 928 2841 928 2578 
Q 928 2378 1081 2264 
Q 1234 2150 1697 2047 
L 1894 2003 
Q 2506 1872 2764 1633 
Q 3022 1394 3022 966 
Q 3022 478 2636 193 
Q 2250 -91 1575 -91 
Q 1294 -91 989 -36 
Q 684 19 347 128 
L 347 722 
Q 666 556 975 473 
Q 1284 391 1588 391 
Q 1994 391 2212 530 
Q 2431 669 2431 922 
Q 2431 1156 2273 1281 
Q 2116 1406 1581 1522 
L 1381 1569 
Q 847 1681 609 1914 
Q 372 2147 372 2553 
Q 372 3047 722 3315 
Q 1072 3584 1716 3584 
Q 2034 3584 2315 3537 
Q 2597 3491 2834 3397 
z
" transform="scale(0.015625)"/>
       <path id="DejaVuSans-28" d="M 1984 4856 
Q 1566 4138 1362 3434 
Q 1159 2731 1159 2009 
Q 1159 1288 1364 580 
Q 1569 -128 1984 -844 
L 1484 -844 
Q 1016 -109 783 600 
Q 550 1309 550 2009 
Q 550 2706 781 3412 
Q 1013 4119 1484 4856 
L 1984 4856 
z
" transform="scale(0.015625)"/>
       <path id="DejaVuSans-6b" d="M 581 4863 
L 1159 4863 
L 1159 1991 
L 2875 3500 
L 3609 3500 
L 1753 1863 
L 3688 0 
L 2938 0 
L 1159 1709 
L 1159 0 
L 581 0 
L 581 4863 
z
" transform="scale(0.015625)"/>
       <path id="DejaVuSans-67" d="M 2906 1791 
Q 2906 2416 2648 2759 
Q 2391 3103 1925 3103 
Q 1463 3103 1205 2759 
Q 947 2416 947 1791 
Q 947 1169 1205 825 
Q 1463 481 1925 481 
Q 2391 481 2648 825 
Q 2906 1169 2906 1791 
z
M 3481 434 
Q 3481 -459 3084 -895 
Q 2688 -1331 1869 -1331 
Q 1566 -1331 1297 -1286 
Q 1028 -1241 775 -1147 
L 775 -588 
Q 1028 -725 1275 -790 
Q 1522 -856 1778 -856 
Q 2344 -856 2625 -561 
Q 2906 -266 2906 331 
L 2906 616 
Q 2728 306 2450 153 
Q 2172 0 1784 0 
Q 1141 0 747 490 
Q 353 981 353 1791 
Q 353 2603 747 3093 
Q 1141 3584 1784 3584 
Q 2172 3584 2450 3431 
Q 2728 3278 2906 2969 
L 2906 3500 
L 3481 3500 
L 3481 434 
z
" transform="scale(0.015625)"/>
       <path id="DejaVuSans-29" d="M 513 4856 
L 1013 4856 
Q 1481 4119 1714 3412 
Q 1947 2706 1947 2009 
Q 1947 1309 1714 600 
Q 1481 -109 1013 -844 
L 513 -844 
Q 928 -128 1133 580 
Q 1338 1288 1338 2009 
Q 1338 2731 1133 3434 
Q 928 4138 513 4856 
z
" transform="scale(0.015625)"/>
      </defs>
      <use xlink:href="#DejaVuSans-43"/>
      <use xlink:href="#DejaVuSans-75" x="69.824219"/>
      <use xlink:href="#DejaVuSans-6d" x="133.203125"/>
      <use xlink:href="#DejaVuSans-75" x="230.615234"/>
      <use xlink:href="#DejaVuSans-6c" x="293.994141"/>
      <use xlink:href="#DejaVuSans-61" x="321.777344"/>
      <use xlink:href="#DejaVuSans-74" x="383.056641"/>
      <use xlink:href="#DejaVuSans-69" x="422.265625"/>
      <use xlink:href="#DejaVuSans-76" x="450.048828"/>
      <use xlink:href="#DejaVuSans-65" x="509.228516"/>
      <use xlink:href="#DejaVuSans-20" x="570.751953"/>
      <use xlink:href="#DejaVuSans-50" x="602.539062"/>
      <use xlink:href="#DejaVuSans-61" x="658.341797"/>
      <use xlink:href="#DejaVuSans-79" x="719.621094"/>
      <use xlink:href="#DejaVuSans-6c" x="778.800781"/>
      <use xlink:href="#DejaVuSans-6f" x="806.583984"/>
      <use xlink:href="#DejaVuSans-61" x="867.765625"/>
      <use xlink:href="#DejaVuSans-64" x="929.044922"/>
      <use xlink:href="#DejaVuSans-20" x="992.521484"/>
      <use xlink:href="#DejaVuSans-4d" x="1024.308594"/>
      <use xlink:href="#DejaVuSans-61" x="1110.587891"/>
      <use xlink:href="#DejaVuSans-73" x="1171.867188"/>
      <use xlink:href="#DejaVuSans-73" x="1223.966797"/>
      <use xlink:href="#DejaVuSans-20" x="1276.066406"/>
      <use xlink:href="#DejaVuSans-28" x="1307.853516"/>
      <use xlink:href="#DejaVuSans-6b" x="1346.867188"/>
      <use xlink:href="#DejaVuSans-67" x="1404.777344"/>
      <use xlink:href="#DejaVuSans-29" x="1468.253906"/>
     </g>
    </g>
   </g>
   <g id="line2d_23">
    <path d="M 106.728679 455.7 
L 127.839534 455.7 
L 127.839534 453.841419 
L 186.300363 453.841419 
L 186.300363 453.359349 
L 226.898161 453.359349 
L 226.898161 452.275177 
L 249.632927 452.275177 
L 249.632927 451.249085 
L 301.598109 451.249085 
L 301.598109 451.249085 
L 324.332876 451.249085 
L 324.332876 450.07392 
L 355.187202 450.07392 
L 355.187202 449.549645 
L 387.66544 449.549645 
L 387.66544 448.839318 
L 390.913264 448.839318 
L 390.913264 446.980737 
L 407.152383 446.980737 
L 407.152383 445.671792 
L 472.10886 445.671792 
L 472.10886 445.030969 
L 488.347979 445.030969 
L 488.347979 444.939008 
L 511.082746 444.939008 
L 511.082746 443.972933 
L 563.047927 443.972933 
L 563.047927 442.114352 
L 566.295751 442.114352 
L 566.295751 441.0689 
L 597.150078 441.0689 
L 597.150078 440.391292 
L 671.850026 440.391292 
L 671.850026 439.964399 
L 684.841321 439.964399 
L 684.841321 438.105818 
L 697.832617 438.105818 
L 697.832617 438.105818 
" clip-path="url(#p2c643d0003)" style="fill: none; stroke: #808080; stroke-width: 1.5; stroke-linecap: square"/>
   </g>
   <g id="line2d_24">
    <path d="M 106.728679 455.7 
L 118.096062 455.7 
L 118.096062 455.7 
L 155.446036 455.7 
L 155.446036 454.881063 
L 165.189508 454.881063 
L 165.189508 454.63906 
L 191.172098 454.63906 
L 191.172098 454.222815 
L 210.659041 454.222815 
L 210.659041 453.04339 
L 249.632927 453.04339 
L 249.632927 451.184809 
L 254.504663 451.184809 
L 254.504663 450.672344 
L 280.487254 450.672344 
L 280.487254 450.60226 
L 317.837228 450.60226 
L 317.837228 449.905292 
L 335.700259 449.905292 
L 335.700259 448.654622 
L 356.811114 448.654622 
L 356.811114 447.612267 
L 397.408912 447.612267 
L 397.408912 447.090122 
L 434.758886 447.090122 
L 434.758886 445.720387 
L 439.630622 445.720387 
L 439.630622 443.861805 
L 460.741477 443.861805 
L 460.741477 442.738913 
L 515.954482 442.738913 
L 515.954482 441.372081 
L 561.424016 441.372081 
L 561.424016 440.791274 
L 623.132668 440.791274 
L 623.132668 439.765183 
L 652.363083 439.765183 
L 652.363083 438.990774 
L 655.610907 438.990774 
L 655.610907 438.506768 
L 684.841321 438.506768 
L 684.841321 437.654918 
L 697.832617 437.654918 
L 697.832617 437.654918 
" clip-path="url(#p2c643d0003)" style="fill: none; stroke: #90ee90; stroke-width: 1.5; stroke-linecap: square"/>
   </g>
   <g id="line2d_25">
    <path d="M 106.728679 455.7 
L 122.967798 455.7 
L 122.967798 453.841419 
L 191.172098 453.841419 
L 191.172098 452.902448 
L 204.163394 452.902448 
L 204.163394 450.568573 
L 269.11987 450.568573 
L 269.11987 449.316935 
L 306.469845 449.316935 
L 306.469845 448.833897 
L 338.948083 448.833897 
L 338.948083 446.197035 
L 369.802409 446.197035 
L 369.802409 445.383906 
L 390.913264 445.383906 
L 390.913264 444.667578 
L 439.630622 444.667578 
L 439.630622 444.228488 
L 459.117565 444.228488 
L 459.117565 442.970074 
L 616.637021 442.970074 
L 616.637021 439.949879 
L 655.610907 439.949879 
L 655.610907 439.443222 
L 675.09785 439.443222 
L 675.09785 438.096525 
L 697.832617 438.096525 
L 697.832617 438.096525 
" clip-path="url(#p2c643d0003)" style="fill: none; stroke: #add8e6; stroke-width: 1.5; stroke-linecap: square"/>
   </g>
   <g id="line2d_26">
    <path d="M 106.728679 455.7 
L 116.47215 455.7 
L 116.47215 452.679805 
L 135.959093 452.679805 
L 135.959093 450.346899 
L 152.198212 450.346899 
L 152.198212 447.326704 
L 183.052539 447.326704 
L 183.052539 444.30651 
L 213.906865 444.30651 
L 213.906865 443.923758 
L 231.769896 443.923758 
L 231.769896 440.903564 
L 288.606813 440.903564 
L 288.606813 437.883369 
L 350.315466 437.883369 
L 350.315466 435.457533 
L 358.435026 435.457533 
L 358.435026 432.437339 
L 373.050233 432.437339 
L 373.050233 429.453929 
L 400.656736 429.453929 
L 400.656736 428.619309 
L 433.134974 428.619309 
L 433.134974 427.554497 
L 462.365389 427.554497 
L 462.365389 424.663629 
L 480.22842 424.663629 
L 480.22842 421.674411 
L 499.715363 421.674411 
L 499.715363 421.068436 
L 506.21101 421.068436 
L 506.21101 418.048241 
L 559.800104 418.048241 
L 559.800104 415.028047 
L 579.287047 415.028047 
L 579.287047 412.007852 
L 589.030518 412.007852 
L 589.030518 408.987658 
L 608.517461 408.987658 
L 608.517461 408.153038 
L 626.380492 408.153038 
L 626.380492 405.733011 
L 634.500052 405.733011 
L 634.500052 405.502237 
L 640.995699 405.502237 
L 640.995699 402.482042 
L 658.858731 402.482042 
L 658.858731 401.906657 
L 670.226114 401.906657 
L 670.226114 400.551441 
L 679.969585 400.551441 
L 679.969585 400.551441 
L 699.456528 400.551441 
L 699.456528 400.551441 
" clip-path="url(#p2c643d0003)" style="fill: none; stroke: #ffc0cb; stroke-width: 1.5; stroke-linecap: square"/>
   </g>
   <g id="line2d_27">
    <path d="M 106.728679 455.7 
L 118.096062 455.7 
L 118.096062 455.022392 
L 137.583005 455.022392 
L 137.583005 452.002198 
L 144.078653 452.002198 
L 144.078653 451.034187 
L 161.941684 451.034187 
L 161.941684 448.013992 
L 181.428627 448.013992 
L 181.428627 444.993798 
L 207.411218 444.993798 
L 207.411218 441.973603 
L 218.778601 441.973603 
L 218.778601 438.953408 
L 223.650337 438.953408 
L 223.650337 435.933214 
L 239.889456 435.933214 
L 239.889456 432.913019 
L 262.624223 432.913019 
L 262.624223 429.892825 
L 288.606813 429.892825 
L 288.606813 427.375996 
L 298.350285 427.375996 
L 298.350285 424.355801 
L 306.469845 424.355801 
L 306.469845 421.335607 
L 314.589404 421.335607 
L 314.589404 418.315412 
L 324.332876 418.315412 
L 324.332876 415.326194 
L 342.195907 415.326194 
L 342.195907 412.306 
L 355.187202 412.306 
L 355.187202 411.661691 
L 360.058938 411.661691 
L 360.058938 410.306476 
L 377.921969 410.306476 
L 377.921969 409.467985 
L 399.032824 409.467985 
L 399.032824 409.467985 
L 496.467539 409.467985 
L 496.467539 409.04206 
L 522.45013 409.04206 
L 522.45013 406.474894 
L 525.697953 406.474894 
L 525.697953 404.051188 
L 616.637021 404.051188 
L 616.637021 401.53436 
L 619.884845 401.53436 
L 619.884845 398.507389 
L 637.747876 398.507389 
L 637.747876 398.386581 
L 650.739171 398.386581 
L 650.739171 395.579349 
L 662.106554 395.579349 
L 662.106554 395.516428 
L 676.721762 395.516428 
L 676.721762 392.496234 
L 678.345674 392.496234 
L 678.345674 391.625024 
L 681.593497 391.625024 
L 681.593497 391.046347 
L 697.832617 391.046347 
L 697.832617 391.046347 
" clip-path="url(#p2c643d0003)" style="fill: none; stroke: #800080; stroke-width: 1.5; stroke-linecap: square"/>
   </g>
   <g id="line2d_28">
    <path d="M 106.728679 455.7 
L 114.848238 455.7 
L 114.848238 452.892768 
L 126.215622 452.892768 
L 126.215622 452.892768 
L 135.959093 452.892768 
L 135.959093 450.085536 
L 155.446036 450.085536 
L 155.446036 449.658643 
L 158.69386 449.658643 
L 158.69386 449.658643 
L 160.317772 449.658643 
L 160.317772 446.851411 
L 189.548187 446.851411 
L 189.548187 444.218421 
L 196.043834 444.218421 
L 196.043834 441.362788 
L 205.787306 441.362788 
L 205.787306 438.671717 
L 215.530777 438.671717 
L 215.530777 435.93031 
L 231.769896 435.93031 
L 231.769896 432.784274 
L 252.880751 432.784274 
L 252.880751 432.784274 
L 264.248135 432.784274 
L 264.248135 430.267445 
L 278.863342 430.267445 
L 278.863342 430.267445 
L 285.35899 430.267445 
L 285.35899 427.121409 
L 295.102461 427.121409 
L 295.102461 424.60458 
L 298.350285 424.60458 
L 298.350285 421.458544 
L 309.717668 421.458544 
L 309.717668 418.312508 
L 321.085052 418.312508 
L 321.085052 415.166472 
L 322.708964 415.166472 
L 322.708964 412.020436 
L 329.204611 412.020436 
L 329.204611 408.8744 
L 340.571995 408.8744 
L 340.571995 408.8744 
L 363.306762 408.8744 
L 363.306762 408.080631 
L 377.921969 408.080631 
L 377.921969 404.934595 
L 379.545881 404.934595 
L 379.545881 404.160186 
L 381.169793 404.160186 
L 381.169793 404.024665 
L 397.408912 404.024665 
L 397.408912 403.347057 
L 410.400207 403.347057 
L 410.400207 400.201021 
L 416.895855 400.201021 
L 416.895855 397.47123 
L 423.391503 397.47123 
L 423.391503 396.954699 
L 426.639326 396.954699 
L 426.639326 393.808663 
L 434.758886 393.808663 
L 434.758886 391.078872 
L 438.00671 391.078872 
L 438.00671 387.932836 
L 455.869741 387.932836 
L 455.869741 387.80138 
L 465.613212 387.80138 
L 465.613212 384.703745 
L 468.861036 384.703745 
L 468.861036 381.973953 
L 480.22842 381.973953 
L 480.22842 378.827917 
L 494.843627 378.827917 
L 494.843627 375.59476 
L 499.715363 375.59476 
L 499.715363 372.845609 
L 507.834922 372.845609 
L 507.834922 369.747974 
L 517.578394 369.747974 
L 517.578394 367.43675 
L 530.569689 367.43675 
L 530.569689 364.203593 
L 538.689249 364.203593 
L 538.689249 361.086598 
L 556.55228 361.086598 
L 556.55228 358.569769 
L 556.55228 358.569769 
L 556.55228 355.452773 
L 561.424016 355.452773 
L 561.424016 354.029797 
L 572.791399 354.029797 
L 572.791399 353.158587 
L 580.910959 353.158587 
L 580.910959 349.92543 
L 593.902254 349.92543 
L 593.902254 346.750354 
L 600.397902 346.750354 
L 600.397902 346.024345 
L 603.645725 346.024345 
L 603.645725 345.153135 
L 618.260933 345.153135 
L 618.260933 343.875361 
L 636.123964 343.875361 
L 636.123964 342.810549 
L 640.995699 342.810549 
L 640.995699 342.12752 
L 660.482642 342.12752 
L 660.482642 340.965907 
L 665.354378 340.965907 
L 665.354378 340.772304 
L 673.473938 340.772304 
L 673.473938 340.34638 
L 673.473938 340.34638 
L 673.473938 339.552611 
L 675.09785 339.552611 
L 675.09785 336.319454 
L 692.960881 336.319454 
L 692.960881 333.086297 
L 696.208705 333.086297 
L 696.208705 333.008856 
L 697.832617 333.008856 
L 697.832617 333.008856 
" clip-path="url(#p2c643d0003)" style="fill: none; stroke: #ffa500; stroke-width: 1.5; stroke-linecap: square"/>
   </g>
   <g id="line2d_29">
    <path d="M 106.728679 455.7 
L 121.343886 455.7 
L 121.343886 454.538387 
L 129.463446 454.538387 
L 129.463446 453.812378 
L 134.335181 453.812378 
L 134.335181 452.969822 
L 135.959093 452.969822 
L 135.959093 450.065788 
L 147.326477 450.065788 
L 147.326477 446.69711 
L 155.446036 446.69711 
L 155.446036 443.754356 
L 158.69386 443.754356 
L 158.69386 440.55992 
L 166.81342 440.55992 
L 166.81342 439.757245 
L 174.932979 439.757245 
L 174.932979 436.446647 
L 183.052539 436.446647 
L 183.052539 433.368372 
L 184.676451 433.368372 
L 184.676451 432.309368 
L 199.291658 432.309368 
L 199.291658 429.347254 
L 204.163394 429.347254 
L 204.163394 426.830425 
L 205.787306 426.830425 
L 205.787306 423.75215 
L 215.530777 423.75215 
L 215.530777 422.590536 
L 225.274249 422.590536 
L 225.274249 422.038383 
L 228.522073 422.038383 
L 228.522073 417.546812 
L 239.889456 417.546812 
L 239.889456 414.178133 
L 248.009016 414.178133 
L 248.009016 410.809454 
L 262.624223 410.809454 
L 262.624223 409.727605 
L 282.111166 409.727605 
L 282.111166 406.765491 
L 295.102461 406.765491 
L 295.102461 404.0357 
L 296.726373 404.0357 
L 296.726373 403.241931 
L 301.598109 403.241931 
L 301.598109 402.002877 
L 306.469845 402.002877 
L 306.469845 398.634198 
L 316.213316 398.634198 
L 316.213316 395.555923 
L 322.708964 395.555923 
L 322.708964 392.187245 
L 330.828523 392.187245 
L 330.828523 389.070249 
L 332.452435 389.070249 
L 332.452435 387.792474 
L 334.076347 387.792474 
L 334.076347 385.275646 
L 343.819819 385.275646 
L 343.819819 384.404436 
L 350.315466 384.404436 
L 350.315466 381.229359 
L 356.811114 381.229359 
L 356.811114 378.112364 
L 358.435026 378.112364 
L 358.435026 377.472702 
L 369.802409 377.472702 
L 369.802409 374.297626 
L 369.802409 374.297626 
L 379.545881 374.297626 
L 379.545881 373.410927 
L 386.041528 373.410927 
L 386.041528 370.603695 
L 387.66544 370.603695 
L 387.66544 367.235017 
L 400.656736 367.235017 
L 400.656736 366.816836 
L 410.400207 366.816836 
L 410.400207 363.932163 
L 415.271943 363.932163 
L 415.271943 360.815167 
L 425.015415 360.815167 
L 425.015415 357.58201 
L 431.511062 357.58201 
L 431.511062 355.258784 
L 438.00671 355.258784 
L 438.00671 352.141788 
L 444.502358 352.141788 
L 444.502358 349.024792 
L 446.126269 349.024792 
L 446.126269 347.243652 
L 454.245829 347.243652 
L 454.245829 346.263444 
L 460.741477 346.263444 
L 460.741477 343.146448 
L 462.365389 343.146448 
L 462.365389 340.823222 
L 467.237124 340.823222 
L 467.237124 337.706226 
L 476.980596 337.706226 
L 476.980596 334.589231 
L 485.100155 334.589231 
L 485.100155 331.627117 
L 491.595803 331.627117 
L 491.595803 329.110288 
L 493.219715 329.110288 
L 493.219715 325.993292 
L 501.339275 325.993292 
L 501.339275 322.876297 
L 506.21101 322.876297 
L 506.21101 319.914183 
L 514.33057 319.914183 
L 514.33057 316.797187 
L 519.202306 316.797187 
L 519.202306 313.835073 
L 525.697953 313.835073 
L 525.697953 310.718077 
L 532.193601 310.718077 
L 532.193601 307.601082 
L 538.689249 307.601082 
L 538.689249 304.484086 
L 540.313161 304.484086 
L 540.313161 301.521972 
L 548.43272 301.521972 
L 548.43272 298.404977 
L 556.55228 298.404977 
L 556.55228 295.287981 
L 563.047927 295.287981 
L 563.047927 292.325867 
L 569.543575 292.325867 
L 569.543575 288.703957 
L 577.663135 288.703957 
L 577.663135 285.586961 
L 582.53487 285.586961 
L 582.53487 282.624847 
L 584.158782 282.624847 
L 584.158782 279.37233 
L 595.526166 279.37233 
L 595.526166 276.255334 
L 597.150078 276.255334 
L 597.150078 273.002817 
L 605.269637 273.002817 
L 605.269637 269.7503 
L 611.765285 269.7503 
L 611.765285 266.497783 
L 615.013109 266.497783 
L 615.013109 264.653722 
L 618.260933 264.653722 
L 618.260933 263.859953 
L 628.004404 263.859953 
L 628.004404 260.607435 
L 628.004404 260.607435 
L 631.252228 260.607435 
L 631.252228 257.49044 
L 634.500052 257.49044 
L 634.500052 254.237923 
L 644.243523 254.237923 
L 644.243523 250.985405 
L 649.115259 250.985405 
L 649.115259 250.830524 
L 652.363083 250.830524 
L 652.363083 247.578006 
L 658.858731 247.578006 
L 658.858731 244.325489 
L 660.482642 244.325489 
L 660.482642 241.208493 
L 678.345674 241.208493 
L 678.345674 237.955976 
L 684.841321 237.955976 
L 684.841321 234.703459 
L 686.465233 234.703459 
L 686.465233 234.006491 
L 694.584793 234.006491 
L 694.584793 229.5246 
L 697.832617 229.5246 
L 697.832617 229.5246 
" clip-path="url(#p2c643d0003)" style="fill: none; stroke: #0000ff; stroke-width: 1.5; stroke-linecap: square"/>
   </g>
   <g id="line2d_30">
    <path d="M 106.728679 455.7 
L 109.976503 455.7 
L 109.976503 452.098999 
L 116.47215 452.098999 
L 116.47215 448.788401 
L 127.839534 448.788401 
L 127.839534 445.555244 
L 129.463446 445.555244 
L 129.463446 442.244646 
L 134.335181 442.244646 
L 134.335181 439.727817 
L 144.078653 439.727817 
L 144.078653 436.49466 
L 152.198212 436.49466 
L 152.198212 429.950905 
L 153.822124 429.950905 
L 153.822124 429.229544 
L 168.437332 429.229544 
L 168.437332 428.901581 
L 171.685155 428.901581 
L 171.685155 425.668424 
L 179.804715 425.668424 
L 179.804715 422.061422 
L 187.924275 422.061422 
L 187.924275 421.287013 
L 192.79601 421.287013 
L 192.79601 418.053856 
L 196.043834 418.053856 
L 196.043834 414.665817 
L 202.539482 414.665817 
L 202.539482 411.355219 
L 209.03513 411.355219 
L 209.03513 405.527792 
L 218.778601 405.527792 
L 218.778601 402.217195 
L 220.402513 402.217195 
L 220.402513 398.906597 
L 228.522073 398.906597 
L 228.522073 395.595999 
L 233.393808 395.595999 
L 233.393808 392.440283 
L 236.641632 392.440283 
L 236.641632 391.913491 
L 241.513368 391.913491 
L 241.513368 388.602893 
L 243.13728 388.602893 
L 243.13728 385.292295 
L 251.256839 385.292295 
L 251.256839 384.324284 
L 252.880751 384.324284 
L 252.880751 381.013686 
L 256.128575 381.013686 
L 256.128575 377.780529 
L 261.000311 377.780529 
L 261.000311 374.469932 
L 264.248135 374.469932 
L 264.248135 371.217414 
L 264.248135 371.217414 
L 269.11987 371.217414 
L 269.11987 367.906816 
L 270.743782 367.906816 
L 270.743782 367.674494 
L 273.991606 367.674494 
L 273.991606 364.363896 
L 280.487254 364.363896 
L 280.487254 361.053298 
L 282.111166 361.053298 
L 282.111166 357.7427 
L 290.230725 357.7427 
L 290.230725 354.432102 
L 298.350285 354.432102 
L 298.350285 350.811741 
L 304.845933 350.811741 
L 304.845933 350.521338 
L 306.469845 350.521338 
L 306.469845 347.21074 
L 311.34158 347.21074 
L 311.34158 343.900142 
L 314.589404 343.900142 
L 314.589404 340.589544 
L 317.837228 340.589544 
L 317.837228 337.433828 
L 322.708964 337.433828 
L 322.708964 334.12323 
L 324.332876 334.12323 
L 324.332876 330.967514 
L 330.828523 330.967514 
L 330.828523 327.656916 
L 338.948083 327.656916 
L 338.948083 324.346318 
L 340.571995 324.346318 
L 340.571995 321.03572 
L 347.067642 321.03572 
L 347.067642 317.270157 
L 353.56329 317.270157 
L 353.56329 313.959559 
L 360.058938 313.959559 
L 360.058938 310.803843 
L 364.930674 310.803843 
L 364.930674 304.41497 
L 382.793705 304.41497 
L 382.793705 301.259254 
L 384.417617 301.259254 
L 384.417617 300.291243 
L 389.289352 300.291243 
L 389.289352 297.058086 
L 390.913264 297.058086 
L 390.913264 293.90237 
L 392.537176 293.90237 
L 392.537176 292.934359 
L 395.785 292.934359 
L 395.785 289.623761 
L 405.528472 289.623761 
L 405.528472 286.468045 
L 413.648031 286.468045 
L 413.648031 285.645235 
L 444.502358 285.645235 
L 444.502358 282.334638 
L 446.126269 282.334638 
L 446.126269 275.829603 
L 454.245829 275.829603 
L 454.245829 272.519005 
L 457.493653 272.519005 
L 457.493653 268.461684 
L 467.237124 268.461684 
L 467.237124 265.267247 
L 470.484948 265.267247 
L 470.484948 260.556905 
L 475.356684 260.556905 
L 475.356684 260.266502 
L 483.476244 260.266502 
L 483.476244 257.033345 
L 496.467539 257.033345 
L 496.467539 253.800188 
L 501.339275 253.800188 
L 501.339275 247.333874 
L 509.458834 247.333874 
L 509.458834 244.100717 
L 517.578394 244.100717 
L 517.578394 241.583888 
L 520.826218 241.583888 
L 520.826218 240.131872 
L 522.45013 240.131872 
L 522.45013 236.898715 
L 528.945777 236.898715 
L 528.945777 236.588951 
L 533.817513 236.588951 
L 533.817513 233.433235 
L 541.937073 233.433235 
L 541.937073 230.277519 
L 546.808808 230.277519 
L 546.808808 227.76069 
L 561.424016 227.76069 
L 561.424016 227.546179 
L 572.791399 227.546179 
L 572.791399 226.371981 
L 574.415311 226.371981 
L 574.415311 219.905667 
L 579.287047 219.905667 
L 579.287047 216.749951 
L 582.53487 216.749951 
L 582.53487 216.17805 
L 587.406606 216.17805 
L 587.406606 212.867452 
L 592.278342 212.867452 
L 592.278342 209.634295 
L 598.77399 209.634295 
L 598.77399 203.167981 
L 608.517461 203.167981 
L 608.517461 202.633252 
L 611.765285 202.633252 
L 611.765285 199.322654 
L 615.013109 199.322654 
L 615.013109 196.166938 
L 618.260933 196.166938 
L 618.260933 192.101292 
L 623.132668 192.101292 
L 623.132668 185.557537 
L 628.004404 185.557537 
L 628.004404 184.783128 
L 629.628316 184.783128 
L 629.628316 180.717481 
L 634.500052 180.717481 
L 634.500052 177.329443 
L 639.371788 177.329443 
L 639.371788 174.173727 
L 640.995699 174.173727 
L 640.995699 170.863129 
L 644.243523 170.863129 
L 644.243523 167.47509 
L 649.115259 167.47509 
L 649.115259 160.970056 
L 655.610907 160.970056 
L 655.610907 157.582017 
L 657.234819 157.582017 
L 657.234819 153.071085 
L 662.106554 153.071085 
L 662.106554 149.760487 
L 670.226114 149.760487 
L 670.226114 146.52733 
L 676.721762 146.52733 
L 676.721762 145.026913 
L 683.217409 145.026913 
L 683.217409 144.872031 
L 686.465233 144.872031 
L 686.465233 141.677595 
L 696.208705 141.677595 
L 696.208705 138.134674 
L 699.456528 138.134674 
L 699.456528 138.134674 
L 699.456528 134.940238 
L 699.456528 134.940238 
" clip-path="url(#p2c643d0003)" style="fill: none; stroke: #008000; stroke-width: 1.5; stroke-linecap: square"/>
   </g>
   <g id="line2d_31">
    <path d="M 106.728679 455.7 
L 111.600415 455.7 
L 111.600415 454.731989 
L 114.848238 454.731989 
L 114.848238 451.34395 
L 118.096062 451.34395 
L 118.096062 448.149514 
L 121.343886 448.149514 
L 121.343886 448.149514 
L 121.343886 444.955077 
L 126.215622 444.955077 
L 126.215622 441.760641 
L 127.839534 441.760641 
L 127.839534 441.373436 
L 129.463446 441.373436 
L 129.463446 440.886139 
L 139.206917 440.886139 
L 139.206917 434.923191 
L 144.078653 434.923191 
L 144.078653 431.612593 
L 148.950389 431.612593 
L 148.950389 428.418157 
L 153.822124 428.418157 
L 153.822124 427.237183 
L 157.069948 427.237183 
L 157.069948 424.004026 
L 161.941684 424.004026 
L 161.941684 420.519186 
L 168.437332 420.519186 
L 168.437332 417.32475 
L 173.309067 417.32475 
L 173.309067 410.819715 
L 179.804715 410.819715 
L 179.804715 407.625279 
L 184.676451 407.625279 
L 184.676451 404.314681 
L 189.548187 404.314681 
L 189.548187 401.004083 
L 192.79601 401.004083 
L 192.79601 397.751566 
L 199.291658 397.751566 
L 199.291658 397.751566 
L 199.291658 394.557129 
L 205.787306 394.557129 
L 205.787306 391.362693 
L 220.402513 391.362693 
L 220.402513 391.215942 
L 222.026425 391.215942 
L 222.026425 388.021506 
L 223.650337 388.021506 
L 223.650337 385.504677 
L 225.274249 385.504677 
L 225.274249 385.504677 
L 225.274249 382.194079 
L 230.145984 382.194079 
L 230.145984 378.883481 
L 243.13728 378.883481 
L 243.13728 375.882647 
L 251.256839 375.882647 
L 251.256839 372.765651 
L 252.880751 372.765651 
L 252.880751 370.248822 
L 257.752487 370.248822 
L 257.752487 367.247988 
L 261.000311 367.247988 
L 261.000311 364.130992 
L 262.624223 364.130992 
L 262.624223 361.130158 
L 272.367694 361.130158 
L 272.367694 357.935722 
L 273.991606 357.935722 
L 273.991606 354.934887 
L 285.35899 354.934887 
L 285.35899 354.350015 
L 291.854637 354.350015 
L 291.854637 351.233019 
L 296.726373 351.233019 
L 296.726373 344.921587 
L 298.350285 344.921587 
L 298.350285 341.610989 
L 303.222021 341.610989 
L 303.222021 338.493994 
L 306.469845 338.493994 
L 306.469845 335.265677 
L 311.34158 335.265677 
L 311.34158 332.148681 
L 316.213316 332.148681 
L 316.213316 326.137332 
L 321.085052 326.137332 
L 321.085052 320.125983 
L 322.708964 320.125983 
L 322.708964 317.008988 
L 325.956788 317.008988 
L 325.956788 314.114635 
L 334.076347 314.114635 
L 334.076347 310.804037 
L 337.324171 310.804037 
L 337.324171 307.803202 
L 338.948083 307.803202 
L 338.948083 304.492605 
L 343.819819 304.492605 
L 343.819819 301.104566 
L 343.819819 301.104566 
L 345.443731 301.104566 
L 345.443731 298.103732 
L 348.691554 298.103732 
L 348.691554 297.261562 
L 350.315466 297.261562 
L 350.315466 294.260728 
L 355.187202 294.260728 
L 355.187202 290.95013 
L 356.811114 290.95013 
L 356.811114 287.949295 
L 361.68285 287.949295 
L 361.68285 286.710241 
L 363.306762 286.710241 
L 363.306762 283.815888 
L 366.554585 283.815888 
L 366.554585 280.50529 
L 371.426321 280.50529 
L 371.426321 274.300339 
L 377.921969 274.300339 
L 377.921969 271.405986 
L 379.545881 271.405986 
L 379.545881 268.28899 
L 387.66544 268.28899 
L 387.66544 265.288156 
L 387.66544 265.288156 
L 390.913264 265.288156 
L 390.913264 259.770493 
L 395.785 259.770493 
L 395.785 253.875306 
L 400.656736 253.875306 
L 400.656736 253.139617 
L 402.280648 253.139617 
L 402.280648 250.138783 
L 412.024119 250.138783 
L 412.024119 247.021787 
L 420.143679 247.021787 
L 420.143679 246.247378 
L 425.015415 246.247378 
L 425.015415 240.49081 
L 429.88715 240.49081 
L 429.88715 237.102771 
L 434.758886 237.102771 
L 434.758886 236.444524 
L 436.382798 236.444524 
L 436.382798 236.26641 
L 441.254534 236.26641 
L 441.254534 233.149414 
L 442.878446 233.149414 
L 442.878446 229.761375 
L 447.750181 229.761375 
L 447.750181 226.64438 
L 449.374093 226.64438 
L 449.374093 223.922333 
L 450.998005 223.922333 
L 450.998005 221.405504 
L 455.869741 221.405504 
L 455.869741 218.288508 
L 467.237124 218.288508 
L 467.237124 215.426293 
L 472.10886 215.426293 
L 472.10886 208.921259 
L 478.604508 208.921259 
L 478.604508 205.53322 
L 485.100155 205.53322 
L 485.100155 201.179106 
L 488.347979 201.179106 
L 488.347979 200.733821 
L 491.595803 200.733821 
L 491.595803 197.37095 
L 493.219715 197.37095 
L 493.219715 194.253955 
L 494.843627 194.253955 
L 494.843627 191.136959 
L 498.091451 191.136959 
L 498.091451 187.74892 
L 499.715363 187.74892 
L 499.715363 184.631925 
L 504.587098 184.631925 
L 504.587098 178.12689 
L 507.834922 178.12689 
L 507.834922 175.009895 
L 509.458834 175.009895 
L 509.458834 171.621856 
L 519.202306 171.621856 
L 519.202306 170.111759 
L 520.826218 170.111759 
L 520.826218 166.72372 
L 522.45013 166.72372 
L 522.45013 165.755709 
L 528.945777 165.755709 
L 528.945777 162.638713 
L 530.569689 162.638713 
L 530.569689 159.250674 
L 533.817513 159.250674 
L 533.817513 156.133679 
L 538.689249 156.133679 
L 538.689249 155.847728 
L 540.313161 155.847728 
L 540.313161 152.730733 
L 541.937073 152.730733 
L 541.937073 149.342694 
L 546.808808 149.342694 
L 546.808808 146.225698 
L 553.304456 146.225698 
L 553.304456 143.108702 
L 559.800104 143.108702 
L 559.800104 139.991707 
L 561.424016 139.991707 
L 561.424016 136.874711 
L 569.543575 136.874711 
L 569.543575 133.777076 
L 571.167487 133.777076 
L 571.167487 130.914861 
L 574.415311 130.914861 
L 574.415311 127.797865 
L 579.287047 127.797865 
L 579.287047 121.563874 
L 584.158782 121.563874 
L 584.158782 118.446878 
L 587.406606 118.446878 
L 587.406606 117.265904 
L 589.030518 117.265904 
L 589.030518 114.148909 
L 590.65443 114.148909 
L 590.65443 111.031913 
L 593.902254 111.031913 
L 593.902254 107.914917 
L 595.526166 107.914917 
L 595.526166 104.6866 
L 598.77399 104.6866 
L 598.77399 101.569605 
L 608.517461 101.569605 
L 608.517461 95.224292 
L 613.389197 95.224292 
L 613.389197 91.995975 
L 616.637021 91.995975 
L 616.637021 88.767658 
L 623.132668 88.767658 
L 623.132668 82.311025 
L 626.380492 82.311025 
L 626.380492 82.032237 
L 629.628316 82.032237 
L 629.628316 78.80392 
L 632.87614 78.80392 
L 632.87614 75.575603 
L 634.500052 75.575603 
L 634.500052 72.347287 
L 636.123964 72.347287 
L 636.123964 69.230291 
L 649.115259 69.230291 
L 649.115259 66.001974 
L 650.739171 66.001974 
L 650.739171 59.767983 
L 653.986995 59.767983 
L 653.986995 56.650987 
L 658.858731 56.650987 
L 658.858731 53.533991 
L 660.482642 53.533991 
L 660.482642 50.305674 
L 663.730466 50.305674 
L 663.730466 47.3 
L 665.354378 47.3 
L 665.354378 47.3 
" clip-path="url(#p2c643d0003)" style="fill: none; stroke: #ff0000; stroke-width: 1.5; stroke-linecap: square"/>
   </g>
   <g id="patch_3">
    <path d="M 82.37 476.12 
L 82.37 26.88 
" style="fill: none; stroke: #000000; stroke-width: 0.8; stroke-linejoin: miter; stroke-linecap: square"/>
   </g>
   <g id="patch_4">
    <path d="M 709.2 476.12 
L 709.2 26.88 
" style="fill: none; stroke: #000000; stroke-width: 0.8; stroke-linejoin: miter; stroke-linecap: square"/>
   </g>
   <g id="patch_5">
    <path d="M 82.37 476.12 
L 709.2 476.12 
" style="fill: none; stroke: #000000; stroke-width: 0.8; stroke-linejoin: miter; stroke-linecap: square"/>
   </g>
   <g id="patch_6">
    <path d="M 82.37 26.88 
L 709.2 26.88 
" style="fill: none; stroke: #000000; stroke-width: 0.8; stroke-linejoin: miter; stroke-linecap: square"/>
   </g>
   <g id="text_13">
    <!-- Cumulative Payload Mass to Orbit By Year -->
    <g transform="translate(270.179688 20.88) scale(0.12 -0.12)">
     <defs>
      <path id="DejaVuSans-4f" d="M 2522 4238 
Q 1834 4238 1429 3725 
Q 1025 3213 1025 2328 
Q 1025 1447 1429 934 
Q 1834 422 2522 422 
Q 3209 422 3611 934 
Q 4013 1447 4013 2328 
Q 4013 3213 3611 3725 
Q 3209 4238 2522 4238 
z
M 2522 4750 
Q 3503 4750 4090 4092 
Q 4678 3434 4678 2328 
Q 4678 1225 4090 567 
Q 3503 -91 2522 -91 
Q 1538 -91 948 565 
Q 359 1222 359 2328 
Q 359 3434 948 4092 
Q 1538 4750 2522 4750 
z
" transform="scale(0.015625)"/>
      <path id="DejaVuSans-62" d="M 3116 1747 
Q 3116 2381 2855 2742 
Q 2594 3103 2138 3103 
Q 1681 3103 1420 2742 
Q 1159 2381 1159 1747 
Q 1159 1113 1420 752 
Q 1681 391 2138 391 
Q 2594 391 2855 752 
Q 3116 1113 3116 1747 
z
M 1159 2969 
Q 1341 3281 1617 3432 
Q 1894 3584 2278 3584 
Q 2916 3584 3314 3078 
Q 3713 2572 3713 1747 
Q 3713 922 3314 415 
Q 2916 -91 2278 -91 
Q 1894 -91 1617 61 
Q 1341 213 1159 525 
L 1159 0 
L 581 0 
L 581 4863 
L 1159 4863 
L 1159 2969 
z
" transform="scale(0.015625)"/>
      <path id="DejaVuSans-42" d="M 1259 2228 
L 1259 519 
L 2272 519 
Q 2781 519 3026 730 
Q 3272 941 3272 1375 
Q 3272 1813 3026 2020 
Q 2781 2228 2272 2228 
L 1259 2228 
z
M 1259 4147 
L 1259 2741 
L 2194 2741 
Q 2656 2741 2882 2914 
Q 3109 3088 3109 3444 
Q 3109 3797 2882 3972 
Q 2656 4147 2194 4147 
L 1259 4147 
z
M 628 4666 
L 2241 4666 
Q 2963 4666 3353 4366 
Q 3744 4066 3744 3513 
Q 3744 3084 3544 2831 
Q 3344 2578 2956 2516 
Q 3422 2416 3680 2098 
Q 3938 1781 3938 1306 
Q 3938 681 3513 340 
Q 3088 0 2303 0 
L 628 0 
L 628 4666 
z
" transform="scale(0.015625)"/>
      <path id="DejaVuSans-59" d="M -13 4666 
L 666 4666 
L 1959 2747 
L 3244 4666 
L 3922 4666 
L 2272 2222 
L 2272 0 
L 1638 0 
L 1638 2222 
L -13 4666 
z
" transform="scale(0.015625)"/>
     </defs>
     <use xlink:href="#DejaVuSans-43"/>
     <use xlink:href="#DejaVuSans-75" x="69.824219"/>
     <use xlink:href="#DejaVuSans-6d" x="133.203125"/>
     <use xlink:href="#DejaVuSans-75" x="230.615234"/>
     <use xlink:href="#DejaVuSans-6c" x="293.994141"/>
     <use xlink:href="#DejaVuSans-61" x="321.777344"/>
     <use xlink:href="#DejaVuSans-74" x="383.056641"/>
     <use xlink:href="#DejaVuSans-69" x="422.265625"/>
     <use xlink:href="#DejaVuSans-76" x="450.048828"/>
     <use xlink:href="#DejaVuSans-65" x="509.228516"/>
     <use xlink:href="#DejaVuSans-20" x="570.751953"/>
     <use xlink:href="#DejaVuSans-50" x="602.539062"/>
     <use xlink:href="#DejaVuSans-61" x="658.341797"/>
     <use xlink:href="#DejaVuSans-79" x="719.621094"/>
     <use xlink:href="#DejaVuSans-6c" x="778.800781"/>
     <use xlink:href="#DejaVuSans-6f" x="806.583984"/>
     <use xlink:href="#DejaVuSans-61" x="867.765625"/>
     <use xlink:href="#DejaVuSans-64" x="929.044922"/>
     <use xlink:href="#DejaVuSans-20" x="992.521484"/>
     <use xlink:href="#DejaVuSans-4d" x="1024.308594"/>
     <use xlink:href="#DejaVuSans-61" x="1110.587891"/>
     <use xlink:href="#DejaVuSans-73" x="1171.867188"/>
     <use xlink:href="#DejaVuSans-73" x="1223.966797"/>
     <use xlink:href="#DejaVuSans-20" x="1276.066406"/>
     <use xlink:href="#DejaVuSans-74" x="1307.853516"/>
     <use xlink:href="#DejaVuSans-6f" x="1347.0625"/>
     <use xlink:href="#DejaVuSans-20" x="1408.244141"/>
     <use xlink:href="#DejaVuSans-4f" x="1440.03125"/>
     <use xlink:href="#DejaVuSans-72" x="1518.742188"/>
     <use xlink:href="#DejaVuSans-62" x="1559.855469"/>
     <use xlink:href="#DejaVuSans-69" x="1623.332031"/>
     <use xlink:href="#DejaVuSans-74" x="1651.115234"/>
     <use xlink:href="#DejaVuSans-20" x="1690.324219"/>
     <use xlink:href="#DejaVuSans-42" x="1722.111328"/>
     <use xlink:href="#DejaVuSans-79" x="1790.714844"/>
     <use xlink:href="#DejaVuSans-20" x="1849.894531"/>
     <use xlink:href="#DejaVuSans-59" x="1881.681641"/>
     <use xlink:href="#DejaVuSans-65" x="1929.515625"/>
     <use xlink:href="#DejaVuSans-61" x="1991.039062"/>
     <use xlink:href="#DejaVuSans-72" x="2052.318359"/>
    </g>
   </g>
   <g id="legend_1">
    <g id="patch_7">
     <path d="M 89.37 181.66125 
L 146.82 181.66125 
Q 148.82 181.66125 148.82 179.66125 
L 148.82 33.88 
Q 148.82 31.88 146.82 31.88 
L 89.37 31.88 
Q 87.37 31.88 87.37 33.88 
L 87.37 179.66125 
Q 87.37 181.66125 89.37 181.66125 
z
" style="fill: #ffffff; opacity: 0.8; stroke: #cccccc; stroke-linejoin: miter"/>
    </g>
    <g id="text_14">
     <!-- Year -->
     <g transform="translate(107.5075 43.478437) scale(0.1 -0.1)">
      <use xlink:href="#DejaVuSans-59"/>
      <use xlink:href="#DejaVuSans-65" x="47.833984"/>
      <use xlink:href="#DejaVuSans-61" x="109.357422"/>
      <use xlink:href="#DejaVuSans-72" x="170.636719"/>
     </g>
    </g>
    <g id="line2d_32">
     <path d="M 91.37 54.656562 
L 101.37 54.656562 
L 101.37 54.656562 
L 111.37 54.656562 
L 111.37 54.656562 
" style="fill: none; stroke: #808080; stroke-width: 1.5; stroke-linecap: square"/>
    </g>
    <g id="text_15">
     <!-- 2017 -->
     <g transform="translate(119.37 58.156562) scale(0.1 -0.1)">
      <defs>
       <path id="DejaVuSans-37" d="M 525 4666 
L 3525 4666 
L 3525 4397 
L 1831 0 
L 1172 0 
L 2766 4134 
L 525 4134 
L 525 4666 
z
" transform="scale(0.015625)"/>
      </defs>
      <use xlink:href="#DejaVuSans-32"/>
      <use xlink:href="#DejaVuSans-30" x="63.623047"/>
      <use xlink:href="#DejaVuSans-31" x="127.246094"/>
      <use xlink:href="#DejaVuSans-37" x="190.869141"/>
     </g>
    </g>
    <g id="line2d_33">
     <path d="M 91.37 69.334687 
L 101.37 69.334687 
L 101.37 69.334687 
L 111.37 69.334687 
L 111.37 69.334687 
" style="fill: none; stroke: #90ee90; stroke-width: 1.5; stroke-linecap: square"/>
    </g>
    <g id="text_16">
     <!-- 2018 -->
     <g transform="translate(119.37 72.834687) scale(0.1 -0.1)">
      <defs>
       <path id="DejaVuSans-38" d="M 2034 2216 
Q 1584 2216 1326 1975 
Q 1069 1734 1069 1313 
Q 1069 891 1326 650 
Q 1584 409 2034 409 
Q 2484 409 2743 651 
Q 3003 894 3003 1313 
Q 3003 1734 2745 1975 
Q 2488 2216 2034 2216 
z
M 1403 2484 
Q 997 2584 770 2862 
Q 544 3141 544 3541 
Q 544 4100 942 4425 
Q 1341 4750 2034 4750 
Q 2731 4750 3128 4425 
Q 3525 4100 3525 3541 
Q 3525 3141 3298 2862 
Q 3072 2584 2669 2484 
Q 3125 2378 3379 2068 
Q 3634 1759 3634 1313 
Q 3634 634 3220 271 
Q 2806 -91 2034 -91 
Q 1263 -91 848 271 
Q 434 634 434 1313 
Q 434 1759 690 2068 
Q 947 2378 1403 2484 
z
M 1172 3481 
Q 1172 3119 1398 2916 
Q 1625 2713 2034 2713 
Q 2441 2713 2670 2916 
Q 2900 3119 2900 3481 
Q 2900 3844 2670 4047 
Q 2441 4250 2034 4250 
Q 1625 4250 1398 4047 
Q 1172 3844 1172 3481 
z
" transform="scale(0.015625)"/>
      </defs>
      <use xlink:href="#DejaVuSans-32"/>
      <use xlink:href="#DejaVuSans-30" x="63.623047"/>
      <use xlink:href="#DejaVuSans-31" x="127.246094"/>
      <use xlink:href="#DejaVuSans-38" x="190.869141"/>
     </g>
    </g>
    <g id="line2d_34">
     <path d="M 91.37 84.012812 
L 101.37 84.012812 
L 101.37 84.012812 
L 111.37 84.012812 
L 111.37 84.012812 
" style="fill: none; stroke: #add8e6; stroke-width: 1.5; stroke-linecap: square"/>
    </g>
    <g id="text_17">
     <!-- 2019 -->
     <g transform="translate(119.37 87.512812) scale(0.1 -0.1)">
      <defs>
       <path id="DejaVuSans-39" d="M 703 97 
L 703 672 
Q 941 559 1184 500 
Q 1428 441 1663 441 
Q 2288 441 2617 861 
Q 2947 1281 2994 2138 
Q 2813 1869 2534 1725 
Q 2256 1581 1919 1581 
Q 1219 1581 811 2004 
Q 403 2428 403 3163 
Q 403 3881 828 4315 
Q 1253 4750 1959 4750 
Q 2769 4750 3195 4129 
Q 3622 3509 3622 2328 
Q 3622 1225 3098 567 
Q 2575 -91 1691 -91 
Q 1453 -91 1209 -44 
Q 966 3 703 97 
z
M 1959 2075 
Q 2384 2075 2632 2365 
Q 2881 2656 2881 3163 
Q 2881 3666 2632 3958 
Q 2384 4250 1959 4250 
Q 1534 4250 1286 3958 
Q 1038 3666 1038 3163 
Q 1038 2656 1286 2365 
Q 1534 2075 1959 2075 
z
" transform="scale(0.015625)"/>
      </defs>
      <use xlink:href="#DejaVuSans-32"/>
      <use xlink:href="#DejaVuSans-30" x="63.623047"/>
      <use xlink:href="#DejaVuSans-31" x="127.246094"/>
      <use xlink:href="#DejaVuSans-39" x="190.869141"/>
     </g>
    </g>
    <g id="line2d_35">
     <path d="M 91.37 98.690937 
L 101.37 98.690937 
L 101.37 98.690937 
L 111.37 98.690937 
L 111.37 98.690937 
" style="fill: none; stroke: #ffc0cb; stroke-width: 1.5; stroke-linecap: square"/>
    </g>
    <g id="text_18">
     <!-- 2020 -->
     <g transform="translate(119.37 102.190937) scale(0.1 -0.1)">
      <use xlink:href="#DejaVuSans-32"/>
      <use xlink:href="#DejaVuSans-30" x="63.623047"/>
      <use xlink:href="#DejaVuSans-32" x="127.246094"/>
      <use xlink:href="#DejaVuSans-30" x="190.869141"/>
     </g>
    </g>
    <g id="line2d_36">
     <path d="M 91.37 113.369062 
L 101.37 113.369062 
L 101.37 113.369062 
L 111.37 113.369062 
L 111.37 113.369062 
" style="fill: none; stroke: #800080; stroke-width: 1.5; stroke-linecap: square"/>
    </g>
    <g id="text_19">
     <!-- 2021 -->
     <g transform="translate(119.37 116.869062) scale(0.1 -0.1)">
      <use xlink:href="#DejaVuSans-32"/>
      <use xlink:href="#DejaVuSans-30" x="63.623047"/>
      <use xlink:href="#DejaVuSans-32" x="127.246094"/>
      <use xlink:href="#DejaVuSans-31" x="190.869141"/>
     </g>
    </g>
    <g id="line2d_37">
     <path d="M 91.37 128.047187 
L 101.37 128.047187 
L 101.37 128.047187 
L 111.37 128.047187 
L 111.37 128.047187 
" style="fill: none; stroke: #ffa500; stroke-width: 1.5; stroke-linecap: square"/>
    </g>
    <g id="text_20">
     <!-- 2022 -->
     <g transform="translate(119.37 131.547187) scale(0.1 -0.1)">
      <use xlink:href="#DejaVuSans-32"/>
      <use xlink:href="#DejaVuSans-30" x="63.623047"/>
      <use xlink:href="#DejaVuSans-32" x="127.246094"/>
      <use xlink:href="#DejaVuSans-32" x="190.869141"/>
     </g>
    </g>
    <g id="line2d_38">
     <path d="M 91.37 142.725312 
L 101.37 142.725312 
L 101.37 142.725312 
L 111.37 142.725312 
L 111.37 142.725312 
" style="fill: none; stroke: #0000ff; stroke-width: 1.5; stroke-linecap: square"/>
    </g>
    <g id="text_21">
     <!-- 2023 -->
     <g transform="translate(119.37 146.225312) scale(0.1 -0.1)">
      <defs>
       <path id="DejaVuSans-33" d="M 2597 2516 
Q 3050 2419 3304 2112 
Q 3559 1806 3559 1356 
Q 3559 666 3084 287 
Q 2609 -91 1734 -91 
Q 1441 -91 1130 -33 
Q 819 25 488 141 
L 488 750 
Q 750 597 1062 519 
Q 1375 441 1716 441 
Q 2309 441 2620 675 
Q 2931 909 2931 1356 
Q 2931 1769 2642 2001 
Q 2353 2234 1838 2234 
L 1294 2234 
L 1294 2753 
L 1863 2753 
Q 2328 2753 2575 2939 
Q 2822 3125 2822 3475 
Q 2822 3834 2567 4026 
Q 2313 4219 1838 4219 
Q 1578 4219 1281 4162 
Q 984 4106 628 3988 
L 628 4550 
Q 988 4650 1302 4700 
Q 1616 4750 1894 4750 
Q 2613 4750 3031 4423 
Q 3450 4097 3450 3541 
Q 3450 3153 3228 2886 
Q 3006 2619 2597 2516 
z
" transform="scale(0.015625)"/>
      </defs>
      <use xlink:href="#DejaVuSans-32"/>
      <use xlink:href="#DejaVuSans-30" x="63.623047"/>
      <use xlink:href="#DejaVuSans-32" x="127.246094"/>
      <use xlink:href="#DejaVuSans-33" x="190.869141"/>
     </g>
    </g>
    <g id="line2d_39">
     <path d="M 91.37 157.403437 
L 101.37 157.403437 
L 101.37 157.403437 
L 111.37 157.403437 
L 111.37 157.403437 
" style="fill: none; stroke: #008000; stroke-width: 1.5; stroke-linecap: square"/>
    </g>
    <g id="text_22">
     <!-- 2024 -->
     <g transform="translate(119.37 160.903437) scale(0.1 -0.1)">
      <defs>
       <path id="DejaVuSans-34" d="M 2419 4116 
L 825 1625 
L 2419 1625 
L 2419 4116 
z
M 2253 4666 
L 3047 4666 
L 3047 1625 
L 3713 1625 
L 3713 1100 
L 3047 1100 
L 3047 0 
L 2419 0 
L 2419 1100 
L 313 1100 
L 313 1709 
L 2253 4666 
z
" transform="scale(0.015625)"/>
      </defs>
      <use xlink:href="#DejaVuSans-32"/>
      <use xlink:href="#DejaVuSans-30" x="63.623047"/>
      <use xlink:href="#DejaVuSans-32" x="127.246094"/>
      <use xlink:href="#DejaVuSans-34" x="190.869141"/>
     </g>
    </g>
    <g id="line2d_40">
     <path d="M 91.37 172.081562 
L 101.37 172.081562 
L 101.37 172.081562 
L 111.37 172.081562 
L 111.37 172.081562 
" style="fill: none; stroke: #ff0000; stroke-width: 1.5; stroke-linecap: square"/>
    </g>
    <g id="text_23">
     <!-- 2025 -->
     <g transform="translate(119.37 175.581562) scale(0.1 -0.1)">
      <use xlink:href="#DejaVuSans-32"/>
      <use xlink:href="#DejaVuSans-30" x="63.623047"/>
      <use xlink:href="#DejaVuSans-32" x="127.246094"/>
      <use xlink:href="#DejaVuSans-35" x="190.869141"/>
     </g>
    </g>
   </g>
  </g>
 </g>
 <defs>
  <clipPath id="p2c643d0003">
   <rect x="82.37" y="26.88" width="626.83" height="449.24"/>
  </clipPath>
 </defs>
</svg>
