<?xml version="1.0" encoding="utf-8" standalone="no"?>
<!DOCTYPE svg PUBLIC "-//W3C//DTD SVG 1.1//EN"
  "http://www.w3.org/Graphics/SVG/1.1/DTD/svg11.dtd">
<svg xmlns:xlink="http://www.w3.org/1999/xlink" width="720pt" height="504pt" viewBox="0 0 720 504" xmlns="http://www.w3.org/2000/svg" version="1.1">
 <metadata>
  <rdf:RDF xmlns:dc="http://purl.org/dc/elements/1.1/" xmlns:cc="http://creativecommons.org/ns#" xmlns:rdf="http://www.w3.org/1999/02/22-rdf-syntax-ns#">
   <cc:Work>
    <dc:type rdf:resource="http://purl.org/dc/dcmitype/StillImage"/>
    <dc:date>2026-07-10T08:36:28.133008</dc:date>
    <dc:format>image/svg+xml</dc:format>
    <dc:creator>
     <cc:Agent>
      <dc:title>Matplotlib v3.8.2, https://matplotlib.org/</dc:title>
     </cc:Agent>
    </dc:creator>
   </cc:Work>
  </rdf:RDF>
 </metadata>
 <defs>
  <style type="text/css">*{stroke-linejoin: round; stroke-linecap: butt}</style>
 </defs>
 <g id="figure_1">
  <g id="patch_1">
   <path d="M 0 504 
L 720 504 
L 720 0 
L 0 0 
z
" style="fill: #ffffff"/>
  </g>
  <g id="axes_1">
   <g id="patch_2">
    <path d="M 82.955 476.12 
L 709.2 476.12 
L 709.2 26.16 
L 82.955 26.16 
z
" style="fill: #ffffff"/>
   </g>
   <g id="matplotlib.axis_1">
    <g id="xtick_1">
     <g id="line2d_1">
      <path d="M 107.290946 476.12 
L 107.290946 26.16 
" clip-path="url(#p4ab6057fa7)" style="fill: none; stroke: #b0b0b0; stroke-width: 0.8; stroke-linecap: square"/>
     </g>
     <g id="line2d_2">
      <defs>
       <path id="mec1e7fcdc9" d="M 0 0 
L 0 3.5 
" style="stroke: #000000; stroke-width: 0.8"/>
      </defs>
      <g>
       <use xlink:href="#mec1e7fcdc9" x="107.290946" y="476.12" style="stroke: #000000; stroke-width: 0.8"/>
      </g>
     </g>
     <g id="text_1">
      <!-- Jan 1 -->
      <g transform="translate(94.812821 490.718437) scale(0.1 -0.1)">
       <defs>
        <path id="DejaVuSans-4a" d="M 628 4666 
L 1259 4666 
L 1259 325 
Q 1259 -519 939 -900 
Q 619 -1281 -91 -1281 
L -331 -1281 
L -331 -750 
L -134 -750 
Q 284 -750 456 -515 
Q 628 -281 628 325 
L 628 4666 
z
" transform="scale(0.015625)"/>
        <path id="DejaVuSans-61" d="M 2194 1759 
Q 1497 1759 1228 1600 
Q 959 1441 959 1056 
Q 959 750 1161 570 
Q 1363 391 1709 391 
Q 2188 391 2477 730 
Q 2766 1069 2766 1631 
L 2766 1759 
L 2194 1759 
z
M 3341 1997 
L 3341 0 
L 2766 0 
L 2766 531 
Q 2569 213 2275 61 
Q 1981 -91 1556 -91 
Q 1019 -91 701 211 
Q 384 513 384 1019 
Q 384 1609 779 1909 
Q 1175 2209 1959 2209 
L 2766 2209 
L 2766 2266 
Q 2766 2663 2505 2880 
Q 2244 3097 1772 3097 
Q 1472 3097 1187 3025 
Q 903 2953 641 2809 
L 641 3341 
Q 956 3463 1253 3523 
Q 1550 3584 1831 3584 
Q 2591 3584 2966 3190 
Q 3341 2797 3341 1997 
z
" transform="scale(0.015625)"/>
        <path id="DejaVuSans-6e" d="M 3513 2113 
L 3513 0 
L 2938 0 
L 2938 2094 
Q 2938 2591 2744 2837 
Q 2550 3084 2163 3084 
Q 1697 3084 1428 2787 
Q 1159 2491 1159 1978 
L 1159 0 
L 581 0 
L 581 3500 
L 1159 3500 
L 1159 2956 
Q 1366 3272 1645 3428 
Q 1925 3584 2291 3584 
Q 2894 3584 3203 3211 
Q 3513 2838 3513 2113 
z
" transform="scale(0.015625)"/>
        <path id="DejaVuSans-20" transform="scale(0.015625)"/>
        <path id="DejaVuSans-31" d="M 794 531 
L 1825 531 
L 1825 4091 
L 703 3866 
L 703 4441 
L 1819 4666 
L 2450 4666 
L 2450 531 
L 3481 531 
L 3481 0 
L 794 0 
L 794 531 
z
" transform="scale(0.015625)"/>
       </defs>
       <use xlink:href="#DejaVuSans-4a"/>
       <use xlink:href="#DejaVuSans-61" x="29.492188"/>
       <use xlink:href="#DejaVuSans-6e" x="90.771484"/>
       <use xlink:href="#DejaVuSans-20" x="154.150391"/>
       <use xlink:href="#DejaVuSans-31" x="185.9375"/>
      </g>
     </g>
    </g>
    <g id="xtick_2">
     <g id="line2d_3">
      <path d="M 204.634728 476.12 
L 204.634728 26.16 
" clip-path="url(#p4ab6057fa7)" style="fill: none; stroke: #b0b0b0; stroke-width: 0.8; stroke-linecap: square"/>
     </g>
     <g id="line2d_4">
      <g>
       <use xlink:href="#mec1e7fcdc9" x="204.634728" y="476.12" style="stroke: #000000; stroke-width: 0.8"/>
      </g>
     </g>
     <g id="text_2">
      <!-- Mar 1 -->
      <g transform="translate(190.430822 490.718437) scale(0.1 -0.1)">
       <defs>
        <path id="DejaVuSans-4d" d="M 628 4666 
L 1569 4666 
L 2759 1491 
L 3956 4666 
L 4897 4666 
L 4897 0 
L 4281 0 
L 4281 4097 
L 3078 897 
L 2444 897 
L 1241 4097 
L 1241 0 
L 628 0 
L 628 4666 
z
" transform="scale(0.015625)"/>
        <path id="DejaVuSans-72" d="M 2631 2963 
Q 2534 3019 2420 3045 
Q 2306 3072 2169 3072 
Q 1681 3072 1420 2755 
Q 1159 2438 1159 1844 
L 1159 0 
L 581 0 
L 581 3500 
L 1159 3500 
L 1159 2956 
Q 1341 3275 1631 3429 
Q 1922 3584 2338 3584 
Q 2397 3584 2469 3576 
Q 2541 3569 2628 3553 
L 2631 2963 
z
" transform="scale(0.015625)"/>
       </defs>
       <use xlink:href="#DejaVuSans-4d"/>
       <use xlink:href="#DejaVuSans-61" x="86.279297"/>
       <use xlink:href="#DejaVuSans-72" x="147.558594"/>
       <use xlink:href="#DejaVuSans-20" x="188.671875"/>
       <use xlink:href="#DejaVuSans-31" x="220.458984"/>
      </g>
     </g>
    </g>
    <g id="xtick_3">
     <g id="line2d_5">
      <path d="M 303.600907 476.12 
L 303.600907 26.16 
" clip-path="url(#p4ab6057fa7)" style="fill: none; stroke: #b0b0b0; stroke-width: 0.8; stroke-linecap: square"/>
     </g>
     <g id="line2d_6">
      <g>
       <use xlink:href="#mec1e7fcdc9" x="303.600907" y="476.12" style="stroke: #000000; stroke-width: 0.8"/>
      </g>
     </g>
     <g id="text_3">
      <!-- May 1 -->
      <g transform="translate(288.493094 490.718437) scale(0.1 -0.1)">
       <defs>
        <path id="DejaVuSans-79" d="M 2059 -325 
Q 1816 -950 1584 -1140 
Q 1353 -1331 966 -1331 
L 506 -1331 
L 506 -850 
L 844 -850 
Q 1081 -850 1212 -737 
Q 1344 -625 1503 -206 
L 1606 56 
L 191 3500 
L 800 3500 
L 1894 763 
L 2988 3500 
L 3597 3500 
L 2059 -325 
z
" transform="scale(0.015625)"/>
       </defs>
       <use xlink:href="#DejaVuSans-4d"/>
       <use xlink:href="#DejaVuSans-61" x="86.279297"/>
       <use xlink:href="#DejaVuSans-79" x="147.558594"/>
       <use xlink:href="#DejaVuSans-20" x="206.738281"/>
       <use xlink:href="#DejaVuSans-31" x="238.525391"/>
      </g>
     </g>
    </g>
    <g id="xtick_4">
     <g id="line2d_7">
      <path d="M 402.567085 476.12 
L 402.567085 26.16 
" clip-path="url(#p4ab6057fa7)" style="fill: none; stroke: #b0b0b0; stroke-width: 0.8; stroke-linecap: square"/>
     </g>
     <g id="line2d_8">
      <g>
       <use xlink:href="#mec1e7fcdc9" x="402.567085" y="476.12" style="stroke: #000000; stroke-width: 0.8"/>
      </g>
     </g>
     <g id="text_4">
      <!-- Jul 1 -->
      <g transform="translate(391.76396 490.718437) scale(0.1 -0.1)">
       <defs>
        <path id="DejaVuSans-75" d="M 544 1381 
L 544 3500 
L 1119 3500 
L 1119 1403 
Q 1119 906 1312 657 
Q 1506 409 1894 409 
Q 2359 409 2629 706 
Q 2900 1003 2900 1516 
L 2900 3500 
L 3475 3500 
L 3475 0 
L 2900 0 
L 2900 538 
Q 2691 219 2414 64 
Q 2138 -91 1772 -91 
Q 1169 -91 856 284 
Q 544 659 544 1381 
z
M 1991 3584 
L 1991 3584 
z
" transform="scale(0.015625)"/>
        <path id="DejaVuSans-6c" d="M 603 4863 
L 1178 4863 
L 1178 0 
L 603 0 
L 603 4863 
z
" transform="scale(0.015625)"/>
       </defs>
       <use xlink:href="#DejaVuSans-4a"/>
       <use xlink:href="#DejaVuSans-75" x="29.492188"/>
       <use xlink:href="#DejaVuSans-6c" x="92.871094"/>
       <use xlink:href="#DejaVuSans-20" x="120.654297"/>
       <use xlink:href="#DejaVuSans-31" x="152.441406"/>
      </g>
     </g>
    </g>
    <g id="xtick_5">
     <g id="line2d_9">
      <path d="M 503.155661 476.12 
L 503.155661 26.16 
" clip-path="url(#p4ab6057fa7)" style="fill: none; stroke: #b0b0b0; stroke-width: 0.8; stroke-linecap: square"/>
     </g>
     <g id="line2d_10">
      <g>
       <use xlink:href="#mec1e7fcdc9" x="503.155661" y="476.12" style="stroke: #000000; stroke-width: 0.8"/>
      </g>
     </g>
     <g id="text_5">
      <!-- Sep 1 -->
      <g transform="translate(488.960348 490.718437) scale(0.1 -0.1)">
       <defs>
        <path id="DejaVuSans-53" d="M 3425 4513 
L 3425 3897 
Q 3066 4069 2747 4153 
Q 2428 4238 2131 4238 
Q 1616 4238 1336 4038 
Q 1056 3838 1056 3469 
Q 1056 3159 1242 3001 
Q 1428 2844 1947 2747 
L 2328 2669 
Q 3034 2534 3370 2195 
Q 3706 1856 3706 1288 
Q 3706 609 3251 259 
Q 2797 -91 1919 -91 
Q 1588 -91 1214 -16 
Q 841 59 441 206 
L 441 856 
Q 825 641 1194 531 
Q 1563 422 1919 422 
Q 2459 422 2753 634 
Q 3047 847 3047 1241 
Q 3047 1584 2836 1778 
Q 2625 1972 2144 2069 
L 1759 2144 
Q 1053 2284 737 2584 
Q 422 2884 422 3419 
Q 422 4038 858 4394 
Q 1294 4750 2059 4750 
Q 2388 4750 2728 4690 
Q 3069 4631 3425 4513 
z
" transform="scale(0.015625)"/>
        <path id="DejaVuSans-65" d="M 3597 1894 
L 3597 1613 
L 953 1613 
Q 991 1019 1311 708 
Q 1631 397 2203 397 
Q 2534 397 2845 478 
Q 3156 559 3463 722 
L 3463 178 
Q 3153 47 2828 -22 
Q 2503 -91 2169 -91 
Q 1331 -91 842 396 
Q 353 884 353 1716 
Q 353 2575 817 3079 
Q 1281 3584 2069 3584 
Q 2775 3584 3186 3129 
Q 3597 2675 3597 1894 
z
M 3022 2063 
Q 3016 2534 2758 2815 
Q 2500 3097 2075 3097 
Q 1594 3097 1305 2825 
Q 1016 2553 972 2059 
L 3022 2063 
z
" transform="scale(0.015625)"/>
        <path id="DejaVuSans-70" d="M 1159 525 
L 1159 -1331 
L 581 -1331 
L 581 3500 
L 1159 3500 
L 1159 2969 
Q 1341 3281 1617 3432 
Q 1894 3584 2278 3584 
Q 2916 3584 3314 3078 
Q 3713 2572 3713 1747 
Q 3713 922 3314 415 
Q 2916 -91 2278 -91 
Q 1894 -91 1617 61 
Q 1341 213 1159 525 
z
M 3116 1747 
Q 3116 2381 2855 2742 
Q 2594 3103 2138 3103 
Q 1681 3103 1420 2742 
Q 1159 2381 1159 1747 
Q 1159 1113 1420 752 
Q 1681 391 2138 391 
Q 2594 391 2855 752 
Q 3116 1113 3116 1747 
z
" transform="scale(0.015625)"/>
       </defs>
       <use xlink:href="#DejaVuSans-53"/>
       <use xlink:href="#DejaVuSans-65" x="63.476562"/>
       <use xlink:href="#DejaVuSans-70" x="125"/>
       <use xlink:href="#DejaVuSans-20" x="188.476562"/>
       <use xlink:href="#DejaVuSans-31" x="220.263672"/>
      </g>
     </g>
    </g>
    <g id="xtick_6">
     <g id="line2d_11">
      <path d="M 602.121839 476.12 
L 602.121839 26.16 
" clip-path="url(#p4ab6057fa7)" style="fill: none; stroke: #b0b0b0; stroke-width: 0.8; stroke-linecap: square"/>
     </g>
     <g id="line2d_12">
      <g>
       <use xlink:href="#mec1e7fcdc9" x="602.121839" y="476.12" style="stroke: #000000; stroke-width: 0.8"/>
      </g>
     </g>
     <g id="text_6">
      <!-- Nov 1 -->
      <g transform="translate(587.592152 490.718437) scale(0.1 -0.1)">
       <defs>
        <path id="DejaVuSans-4e" d="M 628 4666 
L 1478 4666 
L 3547 763 
L 3547 4666 
L 4159 4666 
L 4159 0 
L 3309 0 
L 1241 3903 
L 1241 0 
L 628 0 
L 628 4666 
z
" transform="scale(0.015625)"/>
        <path id="DejaVuSans-6f" d="M 1959 3097 
Q 1497 3097 1228 2736 
Q 959 2375 959 1747 
Q 959 1119 1226 758 
Q 1494 397 1959 397 
Q 2419 397 2687 759 
Q 2956 1122 2956 1747 
Q 2956 2369 2687 2733 
Q 2419 3097 1959 3097 
z
M 1959 3584 
Q 2709 3584 3137 3096 
Q 3566 2609 3566 1747 
Q 3566 888 3137 398 
Q 2709 -91 1959 -91 
Q 1206 -91 779 398 
Q 353 888 353 1747 
Q 353 2609 779 3096 
Q 1206 3584 1959 3584 
z
" transform="scale(0.015625)"/>
        <path id="DejaVuSans-76" d="M 191 3500 
L 800 3500 
L 1894 563 
L 2988 3500 
L 3597 3500 
L 2284 0 
L 1503 0 
L 191 3500 
z
" transform="scale(0.015625)"/>
       </defs>
       <use xlink:href="#DejaVuSans-4e"/>
       <use xlink:href="#DejaVuSans-6f" x="74.804688"/>
       <use xlink:href="#DejaVuSans-76" x="135.986328"/>
       <use xlink:href="#DejaVuSans-20" x="195.166016"/>
       <use xlink:href="#DejaVuSans-31" x="226.953125"/>
      </g>
     </g>
    </g>
   </g>
   <g id="matplotlib.axis_2">
    <g id="ytick_1">
     <g id="line2d_13">
      <path d="M 82.955 455.667273 
L 709.2 455.667273 
" clip-path="url(#p4ab6057fa7)" style="fill: none; stroke: #b0b0b0; stroke-width: 0.8; stroke-linecap: square"/>
     </g>
     <g id="line2d_14">
      <defs>
       <path id="m30f164ac32" d="M 0 0 
L -3.5 0 
" style="stroke: #000000; stroke-width: 0.8"/>
      </defs>
      <g>
       <use xlink:href="#m30f164ac32" x="82.955" y="455.667273" style="stroke: #000000; stroke-width: 0.8"/>
      </g>
     </g>
     <g id="text_7">
      <!-- 0 -->
      <g transform="translate(69.5925 459.466491) scale(0.1 -0.1)">
       <defs>
        <path id="DejaVuSans-30" d="M 2034 4250 
Q 1547 4250 1301 3770 
Q 1056 3291 1056 2328 
Q 1056 1369 1301 889 
Q 1547 409 2034 409 
Q 2525 409 2770 889 
Q 3016 1369 3016 2328 
Q 3016 3291 2770 3770 
Q 2525 4250 2034 4250 
z
M 2034 4750 
Q 2819 4750 3233 4129 
Q 3647 3509 3647 2328 
Q 3647 1150 3233 529 
Q 2819 -91 2034 -91 
Q 1250 -91 836 529 
Q 422 1150 422 2328 
Q 422 3509 836 4129 
Q 1250 4750 2034 4750 
z
" transform="scale(0.015625)"/>
       </defs>
       <use xlink:href="#DejaVuSans-30"/>
      </g>
     </g>
    </g>
    <g id="ytick_2">
     <g id="line2d_15">
      <path d="M 82.955 362.299486 
L 709.2 362.299486 
" clip-path="url(#p4ab6057fa7)" style="fill: none; stroke: #b0b0b0; stroke-width: 0.8; stroke-linecap: square"/>
     </g>
     <g id="line2d_16">
      <g>
       <use xlink:href="#m30f164ac32" x="82.955" y="362.299486" style="stroke: #000000; stroke-width: 0.8"/>
      </g>
     </g>
     <g id="text_8">
      <!-- 500,000 -->
      <g transform="translate(34.601875 366.098704) scale(0.1 -0.1)">
       <defs>
        <path id="DejaVuSans-35" d="M 691 4666 
L 3169 4666 
L 3169 4134 
L 1269 4134 
L 1269 2991 
Q 1406 3038 1543 3061 
Q 1681 3084 1819 3084 
Q 2600 3084 3056 2656 
Q 3513 2228 3513 1497 
Q 3513 744 3044 326 
Q 2575 -91 1722 -91 
Q 1428 -91 1123 -41 
Q 819 9 494 109 
L 494 744 
Q 775 591 1075 516 
Q 1375 441 1709 441 
Q 2250 441 2565 725 
Q 2881 1009 2881 1497 
Q 2881 1984 2565 2268 
Q 2250 2553 1709 2553 
Q 1456 2553 1204 2497 
Q 953 2441 691 2322 
L 691 4666 
z
" transform="scale(0.015625)"/>
        <path id="DejaVuSans-2c" d="M 750 794 
L 1409 794 
L 1409 256 
L 897 -744 
L 494 -744 
L 750 256 
L 750 794 
z
" transform="scale(0.015625)"/>
       </defs>
       <use xlink:href="#DejaVuSans-35"/>
       <use xlink:href="#DejaVuSans-30" x="63.623047"/>
       <use xlink:href="#DejaVuSans-30" x="127.246094"/>
       <use xlink:href="#DejaVuSans-2c" x="190.869141"/>
       <use xlink:href="#DejaVuSans-30" x="222.65625"/>
       <use xlink:href="#DejaVuSans-30" x="286.279297"/>
       <use xlink:href="#DejaVuSans-30" x="349.902344"/>
      </g>
     </g>
    </g>
    <g id="ytick_3">
     <g id="line2d_17">
      <path d="M 82.955 268.931699 
L 709.2 268.931699 
" clip-path="url(#p4ab6057fa7)" style="fill: none; stroke: #b0b0b0; stroke-width: 0.8; stroke-linecap: square"/>
     </g>
     <g id="line2d_18">
      <g>
       <use xlink:href="#m30f164ac32" x="82.955" y="268.931699" style="stroke: #000000; stroke-width: 0.8"/>
      </g>
     </g>
     <g id="text_9">
      <!-- 1,000,000 -->
      <g transform="translate(25.06125 272.730917) scale(0.1 -0.1)">
       <use xlink:href="#DejaVuSans-31"/>
       <use xlink:href="#DejaVuSans-2c" x="63.623047"/>
       <use xlink:href="#DejaVuSans-30" x="95.410156"/>
       <use xlink:href="#DejaVuSans-30" x="159.033203"/>
       <use xlink:href="#DejaVuSans-30" x="222.65625"/>
       <use xlink:href="#DejaVuSans-2c" x="286.279297"/>
       <use xlink:href="#DejaVuSans-30" x="318.066406"/>
       <use xlink:href="#DejaVuSans-30" x="381.689453"/>
       <use xlink:href="#DejaVuSans-30" x="445.3125"/>
      </g>
     </g>
    </g>
    <g id="ytick_4">
     <g id="line2d_19">
      <path d="M 82.955 175.563912 
L 709.2 175.563912 
" clip-path="url(#p4ab6057fa7)" style="fill: none; stroke: #b0b0b0; stroke-width: 0.8; stroke-linecap: square"/>
     </g>
     <g id="line2d_20">
      <g>
       <use xlink:href="#m30f164ac32" x="82.955" y="175.563912" style="stroke: #000000; stroke-width: 0.8"/>
      </g>
     </g>
     <g id="text_10">
      <!-- 1,500,000 -->
      <g transform="translate(25.06125 179.36313) scale(0.1 -0.1)">
       <use xlink:href="#DejaVuSans-31"/>
       <use xlink:href="#DejaVuSans-2c" x="63.623047"/>
       <use xlink:href="#DejaVuSans-35" x="95.410156"/>
       <use xlink:href="#DejaVuSans-30" x="159.033203"/>
       <use xlink:href="#DejaVuSans-30" x="222.65625"/>
       <use xlink:href="#DejaVuSans-2c" x="286.279297"/>
       <use xlink:href="#DejaVuSans-30" x="318.066406"/>
       <use xlink:href="#DejaVuSans-30" x="381.689453"/>
       <use xlink:href="#DejaVuSans-30" x="445.3125"/>
      </g>
     </g>
    </g>
    <g id="ytick_5">
     <g id="line2d_21">
      <path d="M 82.955 82.196125 
L 709.2 82.196125 
" clip-path="url(#p4ab6057fa7)" style="fill: none; stroke: #b0b0b0; stroke-width: 0.8; stroke-linecap: square"/>
     </g>
     <g id="line2d_22">
      <g>
       <use xlink:href="#m30f164ac32" x="82.955" y="82.196125" style="stroke: #000000; stroke-width: 0.8"/>
      </g>
     </g>
     <g id="text_11">
      <!-- 2,000,000 -->
      <g transform="translate(25.06125 85.995343) scale(0.1 -0.1)">
       <defs>
        <path id="DejaVuSans-32" d="M 1228 531 
L 3431 531 
L 3431 0 
L 469 0 
L 469 531 
Q 828 903 1448 1529 
Q 2069 2156 2228 2338 
Q 2531 2678 2651 2914 
Q 2772 3150 2772 3378 
Q 2772 3750 2511 3984 
Q 2250 4219 1831 4219 
Q 1534 4219 1204 4116 
Q 875 4013 500 3803 
L 500 4441 
Q 881 4594 1212 4672 
Q 1544 4750 1819 4750 
Q 2544 4750 2975 4387 
Q 3406 4025 3406 3419 
Q 3406 3131 3298 2873 
Q 3191 2616 2906 2266 
Q 2828 2175 2409 1742 
Q 1991 1309 1228 531 
z
" transform="scale(0.015625)"/>
       </defs>
       <use xlink:href="#DejaVuSans-32"/>
       <use xlink:href="#DejaVuSans-2c" x="63.623047"/>
       <use xlink:href="#DejaVuSans-30" x="95.410156"/>
       <use xlink:href="#DejaVuSans-30" x="159.033203"/>
       <use xlink:href="#DejaVuSans-30" x="222.65625"/>
       <use xlink:href="#DejaVuSans-2c" x="286.279297"/>
       <use xlink:href="#DejaVuSans-30" x="318.066406"/>
       <use xlink:href="#DejaVuSans-30" x="381.689453"/>
       <use xlink:href="#DejaVuSans-30" x="445.3125"/>
      </g>
     </g>
    </g>
    <g id="text_12">
     <!-- Cumulative Payload Mass (kg) -->
     <g transform="translate(18.981563 326.503281) rotate(-90) scale(0.1 -0.1)">
      <defs>
       <path id="DejaVuSans-43" d="M 4122 4306 
L 4122 3641 
Q 3803 3938 3442 4084 
Q 3081 4231 2675 4231 
Q 1875 4231 1450 3742 
Q 1025 3253 1025 2328 
Q 1025 1406 1450 917 
Q 1875 428 2675 428 
Q 3081 428 3442 575 
Q 3803 722 4122 1019 
L 4122 359 
Q 3791 134 3420 21 
Q 3050 -91 2638 -91 
Q 1578 -91 968 557 
Q 359 1206 359 2328 
Q 359 3453 968 4101 
Q 1578 4750 2638 4750 
Q 3056 4750 3426 4639 
Q 3797 4528 4122 4306 
z
" transform="scale(0.015625)"/>
       <path id="DejaVuSans-6d" d="M 3328 2828 
Q 3544 3216 3844 3400 
Q 4144 3584 4550 3584 
Q 5097 3584 5394 3201 
Q 5691 2819 5691 2113 
L 5691 0 
L 5113 0 
L 5113 2094 
Q 5113 2597 4934 2840 
Q 4756 3084 4391 3084 
Q 3944 3084 3684 2787 
Q 3425 2491 3425 1978 
L 3425 0 
L 2847 0 
L 2847 2094 
Q 2847 2600 2669 2842 
Q 2491 3084 2119 3084 
Q 1678 3084 1418 2786 
Q 1159 2488 1159 1978 
L 1159 0 
L 581 0 
L 581 3500 
L 1159 3500 
L 1159 2956 
Q 1356 3278 1631 3431 
Q 1906 3584 2284 3584 
Q 2666 3584 2933 3390 
Q 3200 3197 3328 2828 
z
" transform="scale(0.015625)"/>
       <path id="DejaVuSans-74" d="M 1172 4494 
L 1172 3500 
L 2356 3500 
L 2356 3053 
L 1172 3053 
L 1172 1153 
Q 1172 725 1289 603 
Q 1406 481 1766 481 
L 2356 481 
L 2356 0 
L 1766 0 
Q 1100 0 847 248 
Q 594 497 594 1153 
L 594 3053 
L 172 3053 
L 172 3500 
L 594 3500 
L 594 4494 
L 1172 4494 
z
" transform="scale(0.015625)"/>
       <path id="DejaVuSans-69" d="M 603 3500 
L 1178 3500 
L 1178 0 
L 603 0 
L 603 3500 
z
M 603 4863 
L 1178 4863 
L 1178 4134 
L 603 4134 
L 603 4863 
z
" transform="scale(0.015625)"/>
       <path id="DejaVuSans-50" d="M 1259 4147 
L 1259 2394 
L 2053 2394 
Q 2494 2394 2734 2622 
Q 2975 2850 2975 3272 
Q 2975 3691 2734 3919 
Q 2494 4147 2053 4147 
L 1259 4147 
z
M 628 4666 
L 2053 4666 
Q 2838 4666 3239 4311 
Q 3641 3956 3641 3272 
Q 3641 2581 3239 2228 
Q 2838 1875 2053 1875 
L 1259 1875 
L 1259 0 
L 628 0 
L 628 4666 
z
" transform="scale(0.015625)"/>
       <path id="DejaVuSans-64" d="M 2906 2969 
L 2906 4863 
L 3481 4863 
L 3481 0 
L 2906 0 
L 2906 525 
Q 2725 213 2448 61 
Q 2172 -91 1784 -91 
Q 1150 -91 751 415 
Q 353 922 353 1747 
Q 353 2572 751 3078 
Q 1150 3584 1784 3584 
Q 2172 3584 2448 3432 
Q 2725 3281 2906 2969 
z
M 947 1747 
Q 947 1113 1208 752 
Q 1469 391 1925 391 
Q 2381 391 2643 752 
Q 2906 1113 2906 1747 
Q 2906 2381 2643 2742 
Q 2381 3103 1925 3103 
Q 1469 3103 1208 2742 
Q 947 2381 947 1747 
z
" transform="scale(0.015625)"/>
       <path id="DejaVuSans-73" d="M 2834 3397 
L 2834 2853 
Q 2591 2978 2328 3040 
Q 2066 3103 1784 3103 
Q 1356 3103 1142 2972 
Q 928 2841 928 2578 
Q 928 2378 1081 2264 
Q 1234 2150 1697 2047 
L 1894 2003 
Q 2506 1872 2764 1633 
Q 3022 1394 3022 966 
Q 3022 478 2636 193 
Q 2250 -91 1575 -91 
Q 1294 -91 989 -36 
Q 684 19 347 128 
L 347 722 
Q 666 556 975 473 
Q 1284 391 1588 391 
Q 1994 391 2212 530 
Q 2431 669 2431 922 
Q 2431 1156 2273 1281 
Q 2116 1406 1581 1522 
L 1381 1569 
Q 847 1681 609 1914 
Q 372 2147 372 2553 
Q 372 3047 722 3315 
Q 1072 3584 1716 3584 
Q 2034 3584 2315 3537 
Q 2597 3491 2834 3397 
z
" transform="scale(0.015625)"/>
       <path id="DejaVuSans-28" d="M 1984 4856 
Q 1566 4138 1362 3434 
Q 1159 2731 1159 2009 
Q 1159 1288 1364 580 
Q 1569 -128 1984 -844 
L 1484 -844 
Q 1016 -109 783 600 
Q 550 1309 550 2009 
Q 550 2706 781 3412 
Q 1013 4119 1484 4856 
L 1984 4856 
z
" transform="scale(0.015625)"/>
       <path id="DejaVuSans-6b" d="M 581 4863 
L 1159 4863 
L 1159 1991 
L 2875 3500 
L 3609 3500 
L 1753 1863 
L 3688 0 
L 2938 0 
L 1159 1709 
L 1159 0 
L 581 0 
L 581 4863 
z
" transform="scale(0.015625)"/>
       <path id="DejaVuSans-67" d="M 2906 1791 
Q 2906 2416 2648 2759 
Q 2391 3103 1925 3103 
Q 1463 3103 1205 2759 
Q 947 2416 947 1791 
Q 947 1169 1205 825 
Q 1463 481 1925 481 
Q 2391 481 2648 825 
Q 2906 1169 2906 1791 
z
M 3481 434 
Q 3481 -459 3084 -895 
Q 2688 -1331 1869 -1331 
Q 1566 -1331 1297 -1286 
Q 1028 -1241 775 -1147 
L 775 -588 
Q 1028 -725 1275 -790 
Q 1522 -856 1778 -856 
Q 2344 -856 2625 -561 
Q 2906 -266 2906 331 
L 2906 616 
Q 2728 306 2450 153 
Q 2172 0 1784 0 
Q 1141 0 747 490 
Q 353 981 353 1791 
Q 353 2603 747 3093 
Q 1141 3584 1784 3584 
Q 2172 3584 2450 3431 
Q 2728 3278 2906 2969 
L 2906 3500 
L 3481 3500 
L 3481 434 
z
" transform="scale(0.015625)"/>
       <path id="DejaVuSans-29" d="M 513 4856 
L 1013 4856 
Q 1481 4119 1714 3412 
Q 1947 2706 1947 2009 
Q 1947 1309 1714 600 
Q 1481 -109 1013 -844 
L 513 -844 
Q 928 -128 1133 580 
Q 1338 1288 1338 2009 
Q 1338 2731 1133 3434 
Q 928 4138 513 4856 
z
" transform="scale(0.015625)"/>
      </defs>
      <use xlink:href="#DejaVuSans-43"/>
      <use xlink:href="#DejaVuSans-75" x="69.824219"/>
      <use xlink:href="#DejaVuSans-6d" x="133.203125"/>
      <use xlink:href="#DejaVuSans-75" x="230.615234"/>
      <use xlink:href="#DejaVuSans-6c" x="293.994141"/>
      <use xlink:href="#DejaVuSans-61" x="321.777344"/>
      <use xlink:href="#DejaVuSans-74" x="383.056641"/>
      <use xlink:href="#DejaVuSans-69" x="422.265625"/>
      <use xlink:href="#DejaVuSans-76" x="450.048828"/>
      <use xlink:href="#DejaVuSans-65" x="509.228516"/>
      <use xlink:href="#DejaVuSans-20" x="570.751953"/>
      <use xlink:href="#DejaVuSans-50" x="602.539062"/>
      <use xlink:href="#DejaVuSans-61" x="658.341797"/>
      <use xlink:href="#DejaVuSans-79" x="719.621094"/>
      <use xlink:href="#DejaVuSans-6c" x="778.800781"/>
      <use xlink:href="#DejaVuSans-6f" x="806.583984"/>
      <use xlink:href="#DejaVuSans-61" x="867.765625"/>
      <use xlink:href="#DejaVuSans-64" x="929.044922"/>
      <use xlink:href="#DejaVuSans-20" x="992.521484"/>
      <use xlink:href="#DejaVuSans-4d" x="1024.308594"/>
      <use xlink:href="#DejaVuSans-61" x="1110.587891"/>
      <use xlink:href="#DejaVuSans-73" x="1171.867188"/>
      <use xlink:href="#DejaVuSans-73" x="1223.966797"/>
      <use xlink:href="#DejaVuSans-20" x="1276.066406"/>
      <use xlink:href="#DejaVuSans-28" x="1307.853516"/>
      <use xlink:href="#DejaVuSans-6b" x="1346.867188"/>
      <use xlink:href="#DejaVuSans-67" x="1404.777344"/>
      <use xlink:href="#DejaVuSans-29" x="1468.253906"/>
     </g>
    </g>
   </g>
   <g id="line2d_23">
    <path d="M 107.290946 455.667273 
L 128.382098 455.667273 
L 128.382098 453.874611 
L 186.788368 453.874611 
L 186.788368 453.40964 
L 227.348277 453.40964 
L 227.348277 452.36392 
L 250.061826 452.36392 
L 250.061826 451.374222 
L 301.97851 451.374222 
L 301.97851 451.374222 
L 324.69206 451.374222 
L 324.69206 450.240737 
L 355.517591 450.240737 
L 355.517591 449.735057 
L 387.965518 449.735057 
L 387.965518 449.049924 
L 391.210311 449.049924 
L 391.210311 447.257263 
L 407.434275 447.257263 
L 407.434275 445.994743 
L 472.33013 445.994743 
L 472.33013 445.376649 
L 488.554093 445.376649 
L 488.554093 445.287949 
L 511.267642 445.287949 
L 511.267642 444.356139 
L 563.184326 444.356139 
L 563.184326 442.563477 
L 566.429119 442.563477 
L 566.429119 441.555105 
L 597.25465 441.555105 
L 597.25465 440.901531 
L 671.884883 440.901531 
L 671.884883 440.489779 
L 684.864054 440.489779 
L 684.864054 438.697117 
L 697.843225 438.697117 
L 697.843225 438.697117 
" clip-path="url(#p4ab6057fa7)" style="fill: none; stroke: #808080; stroke-width: 1.5; stroke-linecap: square"/>
   </g>
   <g id="line2d_24">
    <path d="M 107.290946 455.667273 
L 118.64772 455.667273 
L 118.64772 455.667273 
L 155.962837 455.667273 
L 155.962837 454.877381 
L 165.697215 454.877381 
L 165.697215 454.643962 
L 191.655557 454.643962 
L 191.655557 454.24248 
L 211.124313 454.24248 
L 211.124313 453.104887 
L 250.061826 453.104887 
L 250.061826 451.312226 
L 254.929016 451.312226 
L 254.929016 450.817937 
L 280.887358 450.817937 
L 280.887358 450.750338 
L 318.202474 450.750338 
L 318.202474 450.07809 
L 336.048834 450.07809 
L 336.048834 448.871778 
L 357.139987 448.871778 
L 357.139987 447.866394 
L 397.699896 447.866394 
L 397.699896 447.362768 
L 435.015013 447.362768 
L 435.015013 446.041614 
L 439.882202 446.041614 
L 439.882202 444.248953 
L 460.973355 444.248953 
L 460.973355 443.165886 
L 516.134832 443.165886 
L 516.134832 441.847533 
L 561.56193 441.847533 
L 561.56193 441.287326 
L 623.212992 441.287326 
L 623.212992 440.297628 
L 652.416127 440.297628 
L 652.416127 439.550686 
L 655.66092 439.550686 
L 655.66092 439.083847 
L 684.864054 439.083847 
L 684.864054 438.26221 
L 697.843225 438.26221 
L 697.843225 438.26221 
" clip-path="url(#p4ab6057fa7)" style="fill: none; stroke: #808080; stroke-width: 1.5; stroke-linecap: square"/>
   </g>
   <g id="line2d_25">
    <path d="M 107.290946 455.667273 
L 123.514909 455.667273 
L 123.514909 453.874611 
L 191.655557 453.874611 
L 191.655557 452.968944 
L 204.634728 452.968944 
L 204.634728 450.717846 
L 269.530583 450.717846 
L 269.530583 449.510601 
L 306.845699 449.510601 
L 306.845699 449.044696 
L 339.293627 449.044696 
L 339.293627 446.501357 
L 370.119158 446.501357 
L 370.119158 445.717068 
L 391.210311 445.717068 
L 391.210311 445.026146 
L 439.882202 445.026146 
L 439.882202 444.60263 
L 459.350959 444.60263 
L 459.350959 443.388849 
L 616.723407 443.388849 
L 616.723407 440.475774 
L 655.66092 440.475774 
L 655.66092 439.987087 
L 675.129676 439.987087 
L 675.129676 438.688154 
L 697.843225 438.688154 
L 697.843225 438.688154 
" clip-path="url(#p4ab6057fa7)" style="fill: none; stroke: #90ee90; stroke-width: 1.5; stroke-linecap: square"/>
   </g>
   <g id="line2d_26">
    <path d="M 107.290946 455.667273 
L 117.025324 455.667273 
L 117.025324 452.754198 
L 136.49408 452.754198 
L 136.49408 450.504034 
L 152.718044 450.504034 
L 152.718044 447.590959 
L 183.543575 447.590959 
L 183.543575 444.677884 
L 214.369106 444.677884 
L 214.369106 444.308708 
L 232.215466 444.308708 
L 232.215466 441.395633 
L 288.999339 441.395633 
L 288.999339 438.482558 
L 350.650402 438.482558 
L 350.650402 436.142761 
L 358.762383 436.142761 
L 358.762383 433.229686 
L 373.363951 433.229686 
L 373.363951 430.352091 
L 400.944689 430.352091 
L 400.944689 429.547074 
L 433.392617 429.547074 
L 433.392617 428.520028 
L 462.595751 428.520028 
L 462.595751 425.731693 
L 480.442111 425.731693 
L 480.442111 422.848496 
L 499.910868 422.848496 
L 499.910868 422.264013 
L 506.400453 422.264013 
L 506.400453 419.350938 
L 559.939534 419.350938 
L 559.939534 416.437863 
L 579.40829 416.437863 
L 579.40829 413.524788 
L 589.142668 413.524788 
L 589.142668 410.611713 
L 608.611425 410.611713 
L 608.611425 409.806696 
L 626.457785 409.806696 
L 626.457785 407.472502 
L 634.569767 407.472502 
L 634.569767 407.249913 
L 641.059352 407.249913 
L 641.059352 404.336838 
L 658.905712 404.336838 
L 658.905712 403.78186 
L 670.262487 403.78186 
L 670.262487 402.474711 
L 679.996865 402.474711 
L 679.996865 402.474711 
L 699.465622 402.474711 
L 699.465622 402.474711 
" clip-path="url(#p4ab6057fa7)" style="fill: none; stroke: #add8e6; stroke-width: 1.5; stroke-linecap: square"/>
   </g>
   <g id="line2d_27">
    <path d="M 107.290946 455.667273 
L 118.64772 455.667273 
L 118.64772 455.013698 
L 138.116477 455.013698 
L 138.116477 452.100623 
L 144.606062 452.100623 
L 144.606062 451.166945 
L 162.452422 451.166945 
L 162.452422 448.25387 
L 181.921179 448.25387 
L 181.921179 445.340795 
L 207.879521 445.340795 
L 207.879521 442.427721 
L 219.236295 442.427721 
L 219.236295 439.514646 
L 224.103484 439.514646 
L 224.103484 436.601571 
L 240.327448 436.601571 
L 240.327448 433.688496 
L 263.040997 433.688496 
L 263.040997 430.775421 
L 288.999339 430.775421 
L 288.999339 428.347858 
L 298.733718 428.347858 
L 298.733718 425.434783 
L 306.845699 425.434783 
L 306.845699 422.521708 
L 314.957681 422.521708 
L 314.957681 419.608633 
L 324.69206 419.608633 
L 324.69206 416.725436 
L 342.53842 416.725436 
L 342.53842 413.812361 
L 355.517591 413.812361 
L 355.517591 413.190905 
L 360.38478 413.190905 
L 360.38478 411.883756 
L 378.23114 411.883756 
L 378.23114 411.075004 
L 399.322293 411.075004 
L 399.322293 411.075004 
L 496.666075 411.075004 
L 496.666075 410.664186 
L 522.624417 410.664186 
L 522.624417 408.188072 
L 525.86921 408.188072 
L 525.86921 405.85033 
L 616.723407 405.85033 
L 616.723407 403.422767 
L 619.968199 403.422767 
L 619.968199 400.503157 
L 637.81456 400.503157 
L 637.81456 400.386634 
L 650.793731 400.386634 
L 650.793731 397.678968 
L 662.150505 397.678968 
L 662.150505 397.618279 
L 676.752073 397.618279 
L 676.752073 394.705204 
L 678.374469 394.705204 
L 678.374469 393.864894 
L 681.619262 393.864894 
L 681.619262 393.306741 
L 697.843225 393.306741 
L 697.843225 393.306741 
" clip-path="url(#p4ab6057fa7)" style="fill: none; stroke: #ffc0cb; stroke-width: 1.5; stroke-linecap: square"/>
   </g>
   <g id="line2d_28">
    <path d="M 107.290946 455.667273 
L 115.402927 455.667273 
L 115.402927 452.959607 
L 126.759702 452.959607 
L 126.759702 452.959607 
L 136.49408 452.959607 
L 136.49408 450.251941 
L 155.962837 450.251941 
L 155.962837 449.840189 
L 159.20763 449.840189 
L 159.20763 449.840189 
L 160.830026 449.840189 
L 160.830026 447.132523 
L 190.033161 447.132523 
L 190.033161 444.59292 
L 196.522746 444.59292 
L 196.522746 441.83857 
L 206.257124 441.83857 
L 206.257124 439.242945 
L 215.991503 439.242945 
L 215.991503 436.59877 
L 232.215466 436.59877 
L 232.215466 433.564317 
L 253.306619 433.564317 
L 253.306619 433.564317 
L 264.663394 433.564317 
L 264.663394 431.136754 
L 279.264961 431.136754 
L 279.264961 431.136754 
L 285.754547 431.136754 
L 285.754547 428.102301 
L 295.488925 428.102301 
L 295.488925 425.674738 
L 298.733718 425.674738 
L 298.733718 422.640285 
L 310.090492 422.640285 
L 310.090492 419.605832 
L 321.447267 419.605832 
L 321.447267 416.571379 
L 323.069663 416.571379 
L 323.069663 413.536926 
L 329.559249 413.536926 
L 329.559249 410.502473 
L 340.916023 410.502473 
L 340.916023 410.502473 
L 363.629573 410.502473 
L 363.629573 409.736857 
L 378.23114 409.736857 
L 378.23114 406.702404 
L 379.853536 406.702404 
L 379.853536 405.955462 
L 381.475933 405.955462 
L 381.475933 405.824747 
L 397.699896 405.824747 
L 397.699896 405.171172 
L 410.679067 405.171172 
L 410.679067 402.136719 
L 417.168653 402.136719 
L 417.168653 399.503748 
L 423.658238 399.503748 
L 423.658238 399.005537 
L 426.903031 399.005537 
L 426.903031 395.971084 
L 435.015013 395.971084 
L 435.015013 393.338113 
L 438.259806 393.338113 
L 438.259806 390.30366 
L 456.106166 390.30366 
L 456.106166 390.176866 
L 465.840544 390.176866 
L 465.840544 387.189097 
L 469.085337 387.189097 
L 469.085337 384.556125 
L 480.442111 384.556125 
L 480.442111 381.521672 
L 495.043679 381.521672 
L 495.043679 378.403188 
L 499.910868 378.403188 
L 499.910868 375.751543 
L 508.02285 375.751543 
L 508.02285 372.763774 
L 517.757228 372.763774 
L 517.757228 370.534525 
L 530.736399 370.534525 
L 530.736399 367.41604 
L 538.848381 367.41604 
L 538.848381 364.409598 
L 556.694741 364.409598 
L 556.694741 361.982035 
L 556.694741 361.982035 
L 556.694741 358.975592 
L 561.56193 358.975592 
L 561.56193 357.603086 
L 572.918705 357.603086 
L 572.918705 356.762776 
L 581.030687 356.762776 
L 581.030687 353.644292 
L 594.009858 353.644292 
L 594.009858 350.581828 
L 600.499443 350.581828 
L 600.499443 349.88157 
L 603.744236 349.88157 
L 603.744236 349.04126 
L 618.345803 349.04126 
L 618.345803 347.808805 
L 636.192163 347.808805 
L 636.192163 346.781759 
L 641.059352 346.781759 
L 641.059352 346.122956 
L 660.528109 346.122956 
L 660.528109 345.002543 
L 665.395298 345.002543 
L 665.395298 344.815807 
L 673.50728 344.815807 
L 673.50728 344.404989 
L 673.50728 344.404989 
L 673.50728 343.639373 
L 675.129676 343.639373 
L 675.129676 340.520889 
L 692.976036 340.520889 
L 692.976036 337.402405 
L 696.220829 337.402405 
L 696.220829 337.327711 
L 697.843225 337.327711 
L 697.843225 337.327711 
" clip-path="url(#p4ab6057fa7)" style="fill: none; stroke: #800080; stroke-width: 1.5; stroke-linecap: square"/>
   </g>
   <g id="line2d_29">
    <path d="M 107.290946 455.667273 
L 121.892513 455.667273 
L 121.892513 454.546859 
L 130.004495 454.546859 
L 130.004495 453.846601 
L 134.871684 453.846601 
L 134.871684 453.033928 
L 136.49408 453.033928 
L 136.49408 450.232894 
L 147.850855 450.232894 
L 147.850855 446.983695 
L 155.962837 446.983695 
L 155.962837 444.145314 
L 159.20763 444.145314 
L 159.20763 441.064177 
L 167.319611 441.064177 
L 167.319611 440.289972 
L 175.431593 440.289972 
L 175.431593 437.096793 
L 183.543575 437.096793 
L 183.543575 434.127698 
L 185.165972 434.127698 
L 185.165972 433.106254 
L 199.767539 433.106254 
L 199.767539 430.2492 
L 204.634728 430.2492 
L 204.634728 427.821637 
L 206.257124 427.821637 
L 206.257124 424.852542 
L 215.991503 424.852542 
L 215.991503 423.732128 
L 225.725881 423.732128 
L 225.725881 423.199558 
L 228.970674 423.199558 
L 228.970674 418.867293 
L 240.327448 418.867293 
L 240.327448 415.618094 
L 248.43943 415.618094 
L 248.43943 412.368895 
L 263.040997 412.368895 
L 263.040997 411.325417 
L 282.509754 411.325417 
L 282.509754 408.468362 
L 295.488925 408.468362 
L 295.488925 405.835391 
L 297.111321 405.835391 
L 297.111321 405.069775 
L 301.97851 405.069775 
L 301.97851 403.874667 
L 306.845699 403.874667 
L 306.845699 400.625468 
L 316.580078 400.625468 
L 316.580078 397.656373 
L 323.069663 397.656373 
L 323.069663 394.407174 
L 331.181645 394.407174 
L 331.181645 391.400731 
L 332.804041 391.400731 
L 332.804041 390.168276 
L 334.426438 390.168276 
L 334.426438 387.740714 
L 344.160816 387.740714 
L 344.160816 386.900404 
L 350.650402 386.900404 
L 350.650402 383.83794 
L 357.139987 383.83794 
L 357.139987 380.831498 
L 358.762383 380.831498 
L 358.762383 380.214523 
L 370.119158 380.214523 
L 370.119158 377.15206 
L 370.119158 377.15206 
L 379.853536 377.15206 
L 379.853536 376.296811 
L 386.343122 376.296811 
L 386.343122 373.589145 
L 387.965518 373.589145 
L 387.965518 370.339946 
L 400.944689 370.339946 
L 400.944689 369.936597 
L 410.679067 369.936597 
L 410.679067 367.154237 
L 415.546256 367.154237 
L 415.546256 364.147794 
L 425.280635 364.147794 
L 425.280635 361.02931 
L 431.77022 361.02931 
L 431.77022 358.788483 
L 438.259806 358.788483 
L 438.259806 355.782041 
L 444.749391 355.782041 
L 444.749391 352.775598 
L 446.371788 352.775598 
L 446.371788 351.057631 
L 454.483769 351.057631 
L 454.483769 350.112188 
L 460.973355 350.112188 
L 460.973355 347.105746 
L 462.595751 347.105746 
L 462.595751 344.864919 
L 467.46294 344.864919 
L 467.46294 341.858476 
L 477.197319 341.858476 
L 477.197319 338.852033 
L 485.309301 338.852033 
L 485.309301 335.994979 
L 491.798886 335.994979 
L 491.798886 333.567417 
L 493.421282 333.567417 
L 493.421282 330.560974 
L 501.533264 330.560974 
L 501.533264 327.554531 
L 506.400453 327.554531 
L 506.400453 324.697477 
L 514.512435 324.697477 
L 514.512435 321.691034 
L 519.379624 321.691034 
L 519.379624 318.83398 
L 525.86921 318.83398 
L 525.86921 315.827537 
L 532.358795 315.827537 
L 532.358795 312.821094 
L 538.848381 312.821094 
L 538.848381 309.814652 
L 540.470777 309.814652 
L 540.470777 306.957597 
L 548.582759 306.957597 
L 548.582759 303.951155 
L 556.694741 303.951155 
L 556.694741 300.944712 
L 563.184326 300.944712 
L 563.184326 298.087658 
L 569.673912 298.087658 
L 569.673912 294.594208 
L 577.785894 294.594208 
L 577.785894 291.587766 
L 582.653083 291.587766 
L 582.653083 288.730711 
L 584.275479 288.730711 
L 584.275479 285.593554 
L 595.632254 285.593554 
L 595.632254 282.587111 
L 597.25465 282.587111 
L 597.25465 279.449953 
L 605.366632 279.449953 
L 605.366632 276.312796 
L 611.856218 276.312796 
L 611.856218 273.175638 
L 615.10101 273.175638 
L 615.10101 271.396982 
L 618.345803 271.396982 
L 618.345803 270.631366 
L 628.080181 270.631366 
L 628.080181 267.494208 
L 628.080181 267.494208 
L 631.324974 267.494208 
L 631.324974 264.487765 
L 634.569767 264.487765 
L 634.569767 261.350608 
L 644.304145 261.350608 
L 644.304145 258.21345 
L 649.171334 258.21345 
L 649.171334 258.064062 
L 652.416127 258.064062 
L 652.416127 254.926904 
L 658.905712 254.926904 
L 658.905712 251.789746 
L 660.528109 251.789746 
L 660.528109 248.783304 
L 678.374469 248.783304 
L 678.374469 245.646146 
L 684.864054 245.646146 
L 684.864054 242.508988 
L 686.486451 242.508988 
L 686.486451 241.83674 
L 694.598433 241.83674 
L 694.598433 237.513812 
L 697.843225 237.513812 
L 697.843225 237.513812 
" clip-path="url(#p4ab6057fa7)" style="fill: none; stroke: #ffa500; stroke-width: 1.5; stroke-linecap: square"/>
   </g>
   <g id="line2d_30">
    <path d="M 107.290946 455.667273 
L 110.535738 455.667273 
L 110.535738 452.193991 
L 117.025324 452.193991 
L 117.025324 449.000813 
L 128.382098 449.000813 
L 128.382098 445.882329 
L 130.004495 445.882329 
L 130.004495 442.68915 
L 134.871684 442.68915 
L 134.871684 440.261588 
L 144.606062 440.261588 
L 144.606062 437.143104 
L 152.718044 437.143104 
L 152.718044 430.831441 
L 154.34044 430.831441 
L 154.34044 430.135665 
L 168.942008 430.135665 
L 168.942008 429.819335 
L 172.186801 429.819335 
L 172.186801 426.70085 
L 180.298782 426.70085 
L 180.298782 423.22178 
L 188.410764 423.22178 
L 188.410764 422.474838 
L 193.277953 422.474838 
L 193.277953 419.356354 
L 196.522746 419.356354 
L 196.522746 416.088481 
L 203.012332 416.088481 
L 203.012332 412.895303 
L 209.501917 412.895303 
L 209.501917 407.274562 
L 219.236295 407.274562 
L 219.236295 404.081384 
L 220.858692 404.081384 
L 220.858692 400.888205 
L 228.970674 400.888205 
L 228.970674 397.695027 
L 233.837863 397.695027 
L 233.837863 394.651237 
L 237.082655 394.651237 
L 237.082655 394.14313 
L 241.949845 394.14313 
L 241.949845 390.949951 
L 243.572241 390.949951 
L 243.572241 387.756773 
L 251.684223 387.756773 
L 251.684223 386.823095 
L 253.306619 386.823095 
L 253.306619 383.629917 
L 256.551412 383.629917 
L 256.551412 380.511433 
L 261.418601 380.511433 
L 261.418601 377.318254 
L 264.663394 377.318254 
L 264.663394 374.181097 
L 264.663394 374.181097 
L 269.530583 374.181097 
L 269.530583 370.987918 
L 271.152979 370.987918 
L 271.152979 370.763836 
L 274.397772 370.763836 
L 274.397772 367.570657 
L 280.887358 367.570657 
L 280.887358 364.377479 
L 282.509754 364.377479 
L 282.509754 361.184301 
L 290.621736 361.184301 
L 290.621736 357.991123 
L 298.733718 357.991123 
L 298.733718 354.499167 
L 305.223303 354.499167 
L 305.223303 354.219064 
L 306.845699 354.219064 
L 306.845699 351.025886 
L 311.712889 351.025886 
L 311.712889 347.832707 
L 314.957681 347.832707 
L 314.957681 344.639529 
L 318.202474 344.639529 
L 318.202474 341.595739 
L 323.069663 341.595739 
L 323.069663 338.402561 
L 324.69206 338.402561 
L 324.69206 335.358771 
L 331.181645 335.358771 
L 331.181645 332.165593 
L 339.293627 332.165593 
L 339.293627 328.972414 
L 340.916023 328.972414 
L 340.916023 325.779236 
L 347.405609 325.779236 
L 347.405609 322.147229 
L 353.895194 322.147229 
L 353.895194 318.954051 
L 360.38478 318.954051 
L 360.38478 315.910261 
L 365.251969 315.910261 
L 365.251969 309.747987 
L 383.098329 309.747987 
L 383.098329 306.704197 
L 384.720725 306.704197 
L 384.720725 305.770519 
L 389.587915 305.770519 
L 389.587915 302.652035 
L 391.210311 302.652035 
L 391.210311 299.608245 
L 392.832707 299.608245 
L 392.832707 298.674567 
L 396.0775 298.674567 
L 396.0775 295.481389 
L 405.811878 295.481389 
L 405.811878 292.437599 
L 413.92386 292.437599 
L 413.92386 291.643973 
L 444.749391 291.643973 
L 444.749391 288.450795 
L 446.371788 288.450795 
L 446.371788 282.176479 
L 454.483769 282.176479 
L 454.483769 278.983301 
L 457.728562 278.983301 
L 457.728562 275.069884 
L 467.46294 275.069884 
L 467.46294 271.988747 
L 470.707733 271.988747 
L 470.707733 267.44547 
L 475.574922 267.44547 
L 475.574922 267.165367 
L 483.686904 267.165367 
L 483.686904 264.046883 
L 496.666075 264.046883 
L 496.666075 260.928399 
L 501.533264 260.928399 
L 501.533264 254.691431 
L 509.645246 254.691431 
L 509.645246 251.572946 
L 517.757228 251.572946 
L 517.757228 249.145384 
L 521.002021 249.145384 
L 521.002021 247.744867 
L 522.624417 247.744867 
L 522.624417 244.626383 
L 529.114003 244.626383 
L 529.114003 244.327606 
L 533.981192 244.327606 
L 533.981192 241.283816 
L 542.093174 241.283816 
L 542.093174 238.240026 
L 546.960363 238.240026 
L 546.960363 235.812464 
L 561.56193 235.812464 
L 561.56193 235.605561 
L 572.918705 235.605561 
L 572.918705 234.47301 
L 574.541101 234.47301 
L 574.541101 228.236042 
L 579.40829 228.236042 
L 579.40829 225.192252 
L 582.653083 225.192252 
L 582.653083 224.640635 
L 587.520272 224.640635 
L 587.520272 221.447456 
L 592.387461 221.447456 
L 592.387461 218.328972 
L 598.877047 218.328972 
L 598.877047 212.092004 
L 608.611425 212.092004 
L 608.611425 211.576241 
L 611.856218 211.576241 
L 611.856218 208.383062 
L 615.10101 208.383062 
L 615.10101 205.339272 
L 618.345803 205.339272 
L 618.345803 201.417825 
L 623.212992 201.417825 
L 623.212992 195.106163 
L 628.080181 195.106163 
L 628.080181 194.359221 
L 629.702578 194.359221 
L 629.702578 190.437774 
L 634.569767 190.437774 
L 634.569767 187.169901 
L 639.436956 187.169901 
L 639.436956 184.126111 
L 641.059352 184.126111 
L 641.059352 180.932933 
L 644.304145 180.932933 
L 644.304145 177.66506 
L 649.171334 177.66506 
L 649.171334 171.390745 
L 655.66092 171.390745 
L 655.66092 168.122872 
L 657.283316 168.122872 
L 657.283316 163.771934 
L 662.150505 163.771934 
L 662.150505 160.578755 
L 670.262487 160.578755 
L 670.262487 157.460271 
L 676.752073 157.460271 
L 676.752073 156.01307 
L 683.241658 156.01307 
L 683.241658 155.863682 
L 686.486451 155.863682 
L 686.486451 152.782545 
L 696.220829 152.782545 
L 696.220829 149.365284 
L 699.465622 149.365284 
L 699.465622 149.365284 
L 699.465622 146.284147 
L 699.465622 146.284147 
" clip-path="url(#p4ab6057fa7)" style="fill: none; stroke: #0000ff; stroke-width: 1.5; stroke-linecap: square"/>
   </g>
   <g id="line2d_31">
    <path d="M 107.290946 455.667273 
L 112.158135 455.667273 
L 112.158135 454.733595 
L 115.402927 454.733595 
L 115.402927 451.465722 
L 118.64772 451.465722 
L 118.64772 448.384585 
L 121.892513 448.384585 
L 121.892513 448.384585 
L 121.892513 445.303448 
L 126.759702 445.303448 
L 126.759702 442.222311 
L 128.382098 442.222311 
L 128.382098 441.84884 
L 130.004495 441.84884 
L 130.004495 441.378827 
L 139.738873 441.378827 
L 139.738873 435.627371 
L 144.606062 435.627371 
L 144.606062 432.434193 
L 149.473251 432.434193 
L 149.473251 429.353056 
L 154.34044 429.353056 
L 154.34044 428.213969 
L 157.585233 428.213969 
L 157.585233 425.095485 
L 162.452422 425.095485 
L 162.452422 421.734244 
L 168.942008 421.734244 
L 168.942008 418.653107 
L 173.809197 418.653107 
L 173.809197 412.378792 
L 180.298782 412.378792 
L 180.298782 409.297655 
L 185.165972 409.297655 
L 185.165972 406.104477 
L 190.033161 406.104477 
L 190.033161 402.911299 
L 193.277953 402.911299 
L 193.277953 399.774141 
L 199.767539 399.774141 
L 199.767539 399.774141 
L 199.767539 396.693004 
L 206.257124 396.693004 
L 206.257124 393.611867 
L 220.858692 393.611867 
L 220.858692 393.470321 
L 222.481088 393.470321 
L 222.481088 390.389184 
L 224.103484 390.389184 
L 224.103484 387.961622 
L 225.725881 387.961622 
L 225.725881 387.961622 
L 225.725881 384.768444 
L 230.59307 384.768444 
L 230.59307 381.575265 
L 243.572241 381.575265 
L 243.572241 378.680864 
L 251.684223 378.680864 
L 251.684223 375.674421 
L 253.306619 375.674421 
L 253.306619 373.246859 
L 258.173808 373.246859 
L 258.173808 370.352457 
L 261.418601 370.352457 
L 261.418601 367.346015 
L 263.040997 367.346015 
L 263.040997 364.451613 
L 272.775376 364.451613 
L 272.775376 361.370476 
L 274.397772 361.370476 
L 274.397772 358.476075 
L 285.754547 358.476075 
L 285.754547 357.911947 
L 292.244132 357.911947 
L 292.244132 354.905504 
L 297.111321 354.905504 
L 297.111321 348.817924 
L 298.733718 348.817924 
L 298.733718 345.624746 
L 303.600907 345.624746 
L 303.600907 342.618303 
L 306.845699 342.618303 
L 306.845699 339.504487 
L 311.712889 339.504487 
L 311.712889 336.498045 
L 316.580078 336.498045 
L 316.580078 330.699905 
L 321.447267 330.699905 
L 321.447267 324.901766 
L 323.069663 324.901766 
L 323.069663 321.895323 
L 326.314456 321.895323 
L 326.314456 319.103626 
L 334.426438 319.103626 
L 334.426438 315.910448 
L 337.671231 315.910448 
L 337.671231 313.016046 
L 339.293627 313.016046 
L 339.293627 309.822868 
L 344.160816 309.822868 
L 344.160816 306.554995 
L 344.160816 306.554995 
L 345.783212 306.554995 
L 345.783212 303.660594 
L 349.028005 303.660594 
L 349.028005 302.848294 
L 350.650402 302.848294 
L 350.650402 299.953893 
L 355.517591 299.953893 
L 355.517591 296.760715 
L 357.139987 296.760715 
L 357.139987 293.866313 
L 362.007176 293.866313 
L 362.007176 292.671205 
L 363.629573 292.671205 
L 363.629573 289.879509 
L 366.874365 289.879509 
L 366.874365 286.68633 
L 371.741554 286.68633 
L 371.741554 280.701455 
L 378.23114 280.701455 
L 378.23114 277.909758 
L 379.853536 277.909758 
L 379.853536 274.903316 
L 387.965518 274.903316 
L 387.965518 272.008914 
L 387.965518 272.008914 
L 391.210311 272.008914 
L 391.210311 266.68695 
L 396.0775 266.68695 
L 396.0775 261.000852 
L 400.944689 261.000852 
L 400.944689 260.291257 
L 402.567085 260.291257 
L 402.567085 257.396856 
L 412.301464 257.396856 
L 412.301464 254.390413 
L 420.413446 254.390413 
L 420.413446 253.64347 
L 425.280635 253.64347 
L 425.280635 248.091075 
L 430.147824 248.091075 
L 430.147824 244.823202 
L 435.015013 244.823202 
L 435.015013 244.188301 
L 436.637409 244.188301 
L 436.637409 244.016505 
L 441.504598 244.016505 
L 441.504598 241.010062 
L 443.126995 241.010062 
L 443.126995 237.742189 
L 447.994184 237.742189 
L 447.994184 234.735747 
L 449.61658 234.735747 
L 449.61658 232.110244 
L 451.238977 232.110244 
L 451.238977 229.682682 
L 456.106166 229.682682 
L 456.106166 226.676239 
L 467.46294 226.676239 
L 467.46294 223.915541 
L 472.33013 223.915541 
L 472.33013 217.641225 
L 478.819715 217.641225 
L 478.819715 214.373353 
L 485.309301 214.373353 
L 485.309301 210.17367 
L 488.554093 210.17367 
L 488.554093 209.744178 
L 491.798886 209.744178 
L 491.798886 206.500581 
L 493.421282 206.500581 
L 493.421282 203.494138 
L 495.043679 203.494138 
L 495.043679 200.487695 
L 498.288472 200.487695 
L 498.288472 197.219823 
L 499.910868 197.219823 
L 499.910868 194.21338 
L 504.778057 194.21338 
L 504.778057 187.939065 
L 508.02285 187.939065 
L 508.02285 184.932622 
L 509.645246 184.932622 
L 509.645246 181.66475 
L 519.379624 181.66475 
L 519.379624 180.208212 
L 521.002021 180.208212 
L 521.002021 176.94034 
L 522.624417 176.94034 
L 522.624417 176.006662 
L 529.114003 176.006662 
L 529.114003 173.000219 
L 530.736399 173.000219 
L 530.736399 169.732346 
L 533.981192 169.732346 
L 533.981192 166.725904 
L 538.848381 166.725904 
L 538.848381 166.450095 
L 540.470777 166.450095 
L 540.470777 163.443652 
L 542.093174 163.443652 
L 542.093174 160.17578 
L 546.960363 160.17578 
L 546.960363 157.169337 
L 553.449948 157.169337 
L 553.449948 154.162894 
L 559.939534 154.162894 
L 559.939534 151.156452 
L 561.56193 151.156452 
L 561.56193 148.150009 
L 569.673912 148.150009 
L 569.673912 145.16224 
L 571.296308 145.16224 
L 571.296308 142.401541 
L 574.541101 142.401541 
L 574.541101 139.395098 
L 579.40829 139.395098 
L 579.40829 133.382213 
L 584.275479 133.382213 
L 584.275479 130.37577 
L 587.520272 130.37577 
L 587.520272 129.236683 
L 589.142668 129.236683 
L 589.142668 126.23024 
L 590.765065 126.23024 
L 590.765065 123.223798 
L 594.009858 123.223798 
L 594.009858 120.217355 
L 595.632254 120.217355 
L 595.632254 117.103539 
L 598.877047 117.103539 
L 598.877047 114.097096 
L 608.611425 114.097096 
L 608.611425 107.976838 
L 613.478614 107.976838 
L 613.478614 104.863022 
L 616.723407 104.863022 
L 616.723407 101.749207 
L 623.212992 101.749207 
L 623.212992 95.521575 
L 626.457785 95.521575 
L 626.457785 95.252676 
L 629.702578 95.252676 
L 629.702578 92.13886 
L 632.94737 92.13886 
L 632.94737 89.025045 
L 634.569767 89.025045 
L 634.569767 85.911229 
L 636.192163 85.911229 
L 636.192163 82.904786 
L 649.171334 82.904786 
L 649.171334 79.79097 
L 650.793731 79.79097 
L 650.793731 73.778085 
L 654.038523 73.778085 
L 654.038523 70.771642 
L 658.905712 70.771642 
L 658.905712 67.765199 
L 660.528109 67.765199 
L 660.528109 64.651384 
L 663.772902 64.651384 
L 663.772902 61.752314 
L 665.395298 61.752314 
L 665.395298 58.638498 
L 670.262487 58.638498 
L 670.262487 55.739428 
L 671.884883 55.739428 
L 671.884883 52.625613 
L 675.129676 52.625613 
L 675.129676 46.612727 
L 697.843225 46.612727 
L 697.843225 46.612727 
" clip-path="url(#p4ab6057fa7)" style="fill: none; stroke: #008000; stroke-width: 1.5; stroke-linecap: square"/>
   </g>
   <g id="line2d_32">
    <path d="M 107.290946 455.667273 
L 110.535738 455.667273 
L 110.535738 455.250852 
L 112.158135 455.250852 
L 112.158135 452.137037 
L 120.270117 452.137037 
L 120.270117 449.023221 
L 125.137306 448.962532 
L 125.137306 445.848716 
L 128.382098 445.848716 
L 128.382098 442.734901 
L 134.871684 442.734901 
L 134.871684 439.621085 
L 141.361269 439.621085 
L 141.361269 436.936761 
L 146.228459 436.936761 
L 146.228459 434.252437 
L 151.095648 434.252437 
L 151.095648 433.440137 
L 152.718044 433.440137 
L 152.718044 430.755813 
L 154.34044 430.755813 
L 154.34044 427.641998 
L 159.20763 427.641998 
L 159.20763 424.957674 
L 167.319611 424.957674 
L 167.319611 422.27335 
L 173.809197 422.27335 
L 173.809197 419.696399 
L 177.05399 419.696399 
L 177.05399 417.268837 
L 180.298782 417.268837 
L 180.298782 414.691886 
L 181.921179 414.691886 
L 181.921179 411.57807 
L 188.410764 411.57807 
L 188.410764 408.464254 
L 190.033161 408.464254 
L 190.033161 405.77993 
L 191.655557 405.77993 
L 191.655557 402.773488 
L 194.90035 402.773488 
L 194.90035 399.659672 
L 196.522746 399.659672 
L 196.522746 396.975348 
L 199.767539 396.975348 
L 199.767539 393.861532 
L 203.012332 393.861532 
L 203.012332 391.177209 
L 204.634728 391.177209 
L 204.634728 388.063393 
L 207.879521 388.063393 
L 207.879521 384.949577 
L 214.369106 384.949577 
L 214.369106 382.265253 
L 217.613899 382.265253 
L 217.613899 380.995451 
L 222.481088 380.995451 
L 222.481088 378.311127 
L 224.103484 378.311127 
L 224.103484 375.197312 
L 228.970674 375.197312 
L 228.970674 369.399172 
L 232.215466 369.399172 
L 232.215466 366.285357 
L 233.837863 366.285357 
L 233.837863 363.601033 
L 237.082655 363.601033 
L 237.082655 360.487217 
L 243.572241 360.487217 
L 243.572241 357.802893 
L 250.061826 357.802893 
L 250.061826 357.802893 
L 250.061826 354.689077 
L 254.929016 354.689077 
L 254.929016 351.575262 
L 263.040997 351.575262 
L 263.040997 348.890938 
L 269.530583 348.890938 
L 269.530583 345.272936 
L 274.397772 345.272936 
L 274.397772 342.15912 
L 276.020168 342.15912 
L 276.020168 339.474796 
L 282.509754 339.474796 
L 282.509754 336.790473 
L 285.754547 336.790473 
L 285.754547 335.978173 
L 288.999339 335.978173 
L 288.999339 333.401222 
L 293.866528 333.401222 
L 293.866528 330.716898 
L 298.733718 330.716898 
L 298.733718 329.52179 
L 300.356114 329.52179 
L 300.356114 326.944839 
L 301.97851 326.944839 
L 301.97851 323.831024 
L 310.090492 323.784153 
L 310.090492 321.207202 
L 324.69206 321.207202 
L 324.69206 320.656706 
L 332.804041 320.656706 
L 332.804041 318.079755 
L 334.426438 318.079755 
L 334.426438 314.965939 
L 336.048834 314.965939 
L 336.048834 306.749574 
L 340.916023 306.749574 
L 340.916023 303.635758 
L 342.53842 303.635758 
L 342.53842 301.058807 
L 347.405609 301.058807 
L 347.405609 297.944992 
L 349.028005 297.944992 
L 349.028005 295.368041 
L 355.517591 295.368041 
L 355.517591 292.79109 
L 357.139987 292.79109 
L 357.139987 289.677274 
L 362.007176 289.677274 
L 362.007176 287.422442 
L 363.629573 287.422442 
L 363.629573 284.308626 
L 368.496762 284.308626 
L 368.496762 281.731675 
L 370.119158 281.731675 
L 370.119158 278.61786 
L 374.986347 278.61786 
L 374.986347 276.040909 
L 378.23114 276.040909 
L 378.23114 273.519978 
L 384.720725 273.519978 
L 384.720725 270.943028 
L 391.210311 270.943028 
L 391.210311 268.366077 
L 396.0775 268.366077 
L 396.0775 265.789126 
L 397.699896 265.789126 
L 397.699896 264.481977 
L 402.567085 264.481977 
L 402.567085 261.905026 
L 407.434275 261.905026 
L 407.434275 258.79121 
L 413.92386 258.79121 
L 413.92386 255.677394 
L 415.546256 255.677394 
L 415.546256 255.677394 
" clip-path="url(#p4ab6057fa7)" style="fill: none; stroke: #ff0000; stroke-width: 1.5; stroke-linecap: square"/>
   </g>
   <g id="patch_3">
    <path d="M 82.955 476.12 
L 82.955 26.16 
" style="fill: none; stroke: #000000; stroke-width: 0.8; stroke-linejoin: miter; stroke-linecap: square"/>
   </g>
   <g id="patch_4">
    <path d="M 709.2 476.12 
L 709.2 26.16 
" style="fill: none; stroke: #000000; stroke-width: 0.8; stroke-linejoin: miter; stroke-linecap: square"/>
   </g>
   <g id="patch_5">
    <path d="M 82.955 476.12 
L 709.2 476.12 
" style="fill: none; stroke: #000000; stroke-width: 0.8; stroke-linejoin: miter; stroke-linecap: square"/>
   </g>
   <g id="patch_6">
    <path d="M 82.955 26.16 
L 709.2 26.16 
" style="fill: none; stroke: #000000; stroke-width: 0.8; stroke-linejoin: miter; stroke-linecap: square"/>
   </g>
   <g id="text_13">
    <!-- Cumulative Payload Mass to Orbit By Year -->
    <g transform="translate(270.472188 20.16) scale(0.12 -0.12)">
     <defs>
      <path id="DejaVuSans-4f" d="M 2522 4238 
Q 1834 4238 1429 3725 
Q 1025 3213 1025 2328 
Q 1025 1447 1429 934 
Q 1834 422 2522 422 
Q 3209 422 3611 934 
Q 4013 1447 4013 2328 
Q 4013 3213 3611 3725 
Q 3209 4238 2522 4238 
z
M 2522 4750 
Q 3503 4750 4090 4092 
Q 4678 3434 4678 2328 
Q 4678 1225 4090 567 
Q 3503 -91 2522 -91 
Q 1538 -91 948 565 
Q 359 1222 359 2328 
Q 359 3434 948 4092 
Q 1538 4750 2522 4750 
z
" transform="scale(0.015625)"/>
      <path id="DejaVuSans-62" d="M 3116 1747 
Q 3116 2381 2855 2742 
Q 2594 3103 2138 3103 
Q 1681 3103 1420 2742 
Q 1159 2381 1159 1747 
Q 1159 1113 1420 752 
Q 1681 391 2138 391 
Q 2594 391 2855 752 
Q 3116 1113 3116 1747 
z
M 1159 2969 
Q 1341 3281 1617 3432 
Q 1894 3584 2278 3584 
Q 2916 3584 3314 3078 
Q 3713 2572 3713 1747 
Q 3713 922 3314 415 
Q 2916 -91 2278 -91 
Q 1894 -91 1617 61 
Q 1341 213 1159 525 
L 1159 0 
L 581 0 
L 581 4863 
L 1159 4863 
L 1159 2969 
z
" transform="scale(0.015625)"/>
      <path id="DejaVuSans-42" d="M 1259 2228 
L 1259 519 
L 2272 519 
Q 2781 519 3026 730 
Q 3272 941 3272 1375 
Q 3272 1813 3026 2020 
Q 2781 2228 2272 2228 
L 1259 2228 
z
M 1259 4147 
L 1259 2741 
L 2194 2741 
Q 2656 2741 2882 2914 
Q 3109 3088 3109 3444 
Q 3109 3797 2882 3972 
Q 2656 4147 2194 4147 
L 1259 4147 
z
M 628 4666 
L 2241 4666 
Q 2963 4666 3353 4366 
Q 3744 4066 3744 3513 
Q 3744 3084 3544 2831 
Q 3344 2578 2956 2516 
Q 3422 2416 3680 2098 
Q 3938 1781 3938 1306 
Q 3938 681 3513 340 
Q 3088 0 2303 0 
L 628 0 
L 628 4666 
z
" transform="scale(0.015625)"/>
      <path id="DejaVuSans-59" d="M -13 4666 
L 666 4666 
L 1959 2747 
L 3244 4666 
L 3922 4666 
L 2272 2222 
L 2272 0 
L 1638 0 
L 1638 2222 
L -13 4666 
z
" transform="scale(0.015625)"/>
     </defs>
     <use xlink:href="#DejaVuSans-43"/>
     <use xlink:href="#DejaVuSans-75" x="69.824219"/>
     <use xlink:href="#DejaVuSans-6d" x="133.203125"/>
     <use xlink:href="#DejaVuSans-75" x="230.615234"/>
     <use xlink:href="#DejaVuSans-6c" x="293.994141"/>
     <use xlink:href="#DejaVuSans-61" x="321.777344"/>
     <use xlink:href="#DejaVuSans-74" x="383.056641"/>
     <use xlink:href="#DejaVuSans-69" x="422.265625"/>
     <use xlink:href="#DejaVuSans-76" x="450.048828"/>
     <use xlink:href="#DejaVuSans-65" x="509.228516"/>
     <use xlink:href="#DejaVuSans-20" x="570.751953"/>
     <use xlink:href="#DejaVuSans-50" x="602.539062"/>
     <use xlink:href="#DejaVuSans-61" x="658.341797"/>
     <use xlink:href="#DejaVuSans-79" x="719.621094"/>
     <use xlink:href="#DejaVuSans-6c" x="778.800781"/>
     <use xlink:href="#DejaVuSans-6f" x="806.583984"/>
     <use xlink:href="#DejaVuSans-61" x="867.765625"/>
     <use xlink:href="#DejaVuSans-64" x="929.044922"/>
     <use xlink:href="#DejaVuSans-20" x="992.521484"/>
     <use xlink:href="#DejaVuSans-4d" x="1024.308594"/>
     <use xlink:href="#DejaVuSans-61" x="1110.587891"/>
     <use xlink:href="#DejaVuSans-73" x="1171.867188"/>
     <use xlink:href="#DejaVuSans-73" x="1223.966797"/>
     <use xlink:href="#DejaVuSans-20" x="1276.066406"/>
     <use xlink:href="#DejaVuSans-74" x="1307.853516"/>
     <use xlink:href="#DejaVuSans-6f" x="1347.0625"/>
     <use xlink:href="#DejaVuSans-20" x="1408.244141"/>
     <use xlink:href="#DejaVuSans-4f" x="1440.03125"/>
     <use xlink:href="#DejaVuSans-72" x="1518.742188"/>
     <use xlink:href="#DejaVuSans-62" x="1559.855469"/>
     <use xlink:href="#DejaVuSans-69" x="1623.332031"/>
     <use xlink:href="#DejaVuSans-74" x="1651.115234"/>
     <use xlink:href="#DejaVuSans-20" x="1690.324219"/>
     <use xlink:href="#DejaVuSans-42" x="1722.111328"/>
     <use xlink:href="#DejaVuSans-79" x="1790.714844"/>
     <use xlink:href="#DejaVuSans-20" x="1849.894531"/>
     <use xlink:href="#DejaVuSans-59" x="1881.681641"/>
     <use xlink:href="#DejaVuSans-65" x="1929.515625"/>
     <use xlink:href="#DejaVuSans-61" x="1991.039062"/>
     <use xlink:href="#DejaVuSans-72" x="2052.318359"/>
    </g>
   </g>
   <g id="legend_1">
    <g id="patch_7">
     <path d="M 89.955 195.619375 
L 147.405 195.619375 
Q 149.405 195.619375 149.405 193.619375 
L 149.405 33.16 
Q 149.405 31.16 147.405 31.16 
L 89.955 31.16 
Q 87.955 31.16 87.955 33.16 
L 87.955 193.619375 
Q 87.955 195.619375 89.955 195.619375 
z
" style="fill: #ffffff; opacity: 0.8; stroke: #cccccc; stroke-linejoin: miter"/>
    </g>
    <g id="text_14">
     <!-- Year -->
     <g transform="translate(108.0925 42.758437) scale(0.1 -0.1)">
      <use xlink:href="#DejaVuSans-59"/>
      <use xlink:href="#DejaVuSans-65" x="47.833984"/>
      <use xlink:href="#DejaVuSans-61" x="109.357422"/>
      <use xlink:href="#DejaVuSans-72" x="170.636719"/>
     </g>
    </g>
    <g id="line2d_33">
     <path d="M 91.955 53.936562 
L 101.955 53.936562 
L 101.955 53.936562 
L 111.955 53.936562 
L 111.955 53.936562 
" style="fill: none; stroke: #808080; stroke-width: 1.5; stroke-linecap: square"/>
    </g>
    <g id="text_15">
     <!-- 2017 -->
     <g transform="translate(119.955 57.436562) scale(0.1 -0.1)">
      <defs>
       <path id="DejaVuSans-37" d="M 525 4666 
L 3525 4666 
L 3525 4397 
L 1831 0 
L 1172 0 
L 2766 4134 
L 525 4134 
L 525 4666 
z
" transform="scale(0.015625)"/>
      </defs>
      <use xlink:href="#DejaVuSans-32"/>
      <use xlink:href="#DejaVuSans-30" x="63.623047"/>
      <use xlink:href="#DejaVuSans-31" x="127.246094"/>
      <use xlink:href="#DejaVuSans-37" x="190.869141"/>
     </g>
    </g>
    <g id="line2d_34">
     <path d="M 91.955 68.614687 
L 101.955 68.614687 
L 101.955 68.614687 
L 111.955 68.614687 
L 111.955 68.614687 
" style="fill: none; stroke: #808080; stroke-width: 1.5; stroke-linecap: square"/>
    </g>
    <g id="text_16">
     <!-- 2018 -->
     <g transform="translate(119.955 72.114687) scale(0.1 -0.1)">
      <defs>
       <path id="DejaVuSans-38" d="M 2034 2216 
Q 1584 2216 1326 1975 
Q 1069 1734 1069 1313 
Q 1069 891 1326 650 
Q 1584 409 2034 409 
Q 2484 409 2743 651 
Q 3003 894 3003 1313 
Q 3003 1734 2745 1975 
Q 2488 2216 2034 2216 
z
M 1403 2484 
Q 997 2584 770 2862 
Q 544 3141 544 3541 
Q 544 4100 942 4425 
Q 1341 4750 2034 4750 
Q 2731 4750 3128 4425 
Q 3525 4100 3525 3541 
Q 3525 3141 3298 2862 
Q 3072 2584 2669 2484 
Q 3125 2378 3379 2068 
Q 3634 1759 3634 1313 
Q 3634 634 3220 271 
Q 2806 -91 2034 -91 
Q 1263 -91 848 271 
Q 434 634 434 1313 
Q 434 1759 690 2068 
Q 947 2378 1403 2484 
z
M 1172 3481 
Q 1172 3119 1398 2916 
Q 1625 2713 2034 2713 
Q 2441 2713 2670 2916 
Q 2900 3119 2900 3481 
Q 2900 3844 2670 4047 
Q 2441 4250 2034 4250 
Q 1625 4250 1398 4047 
Q 1172 3844 1172 3481 
z
" transform="scale(0.015625)"/>
      </defs>
      <use xlink:href="#DejaVuSans-32"/>
      <use xlink:href="#DejaVuSans-30" x="63.623047"/>
      <use xlink:href="#DejaVuSans-31" x="127.246094"/>
      <use xlink:href="#DejaVuSans-38" x="190.869141"/>
     </g>
    </g>
    <g id="line2d_35">
     <path d="M 91.955 83.292812 
L 101.955 83.292812 
L 101.955 83.292812 
L 111.955 83.292812 
L 111.955 83.292812 
" style="fill: none; stroke: #90ee90; stroke-width: 1.5; stroke-linecap: square"/>
    </g>
    <g id="text_17">
     <!-- 2019 -->
     <g transform="translate(119.955 86.792812) scale(0.1 -0.1)">
      <defs>
       <path id="DejaVuSans-39" d="M 703 97 
L 703 672 
Q 941 559 1184 500 
Q 1428 441 1663 441 
Q 2288 441 2617 861 
Q 2947 1281 2994 2138 
Q 2813 1869 2534 1725 
Q 2256 1581 1919 1581 
Q 1219 1581 811 2004 
Q 403 2428 403 3163 
Q 403 3881 828 4315 
Q 1253 4750 1959 4750 
Q 2769 4750 3195 4129 
Q 3622 3509 3622 2328 
Q 3622 1225 3098 567 
Q 2575 -91 1691 -91 
Q 1453 -91 1209 -44 
Q 966 3 703 97 
z
M 1959 2075 
Q 2384 2075 2632 2365 
Q 2881 2656 2881 3163 
Q 2881 3666 2632 3958 
Q 2384 4250 1959 4250 
Q 1534 4250 1286 3958 
Q 1038 3666 1038 3163 
Q 1038 2656 1286 2365 
Q 1534 2075 1959 2075 
z
" transform="scale(0.015625)"/>
      </defs>
      <use xlink:href="#DejaVuSans-32"/>
      <use xlink:href="#DejaVuSans-30" x="63.623047"/>
      <use xlink:href="#DejaVuSans-31" x="127.246094"/>
      <use xlink:href="#DejaVuSans-39" x="190.869141"/>
     </g>
    </g>
    <g id="line2d_36">
     <path d="M 91.955 97.970937 
L 101.955 97.970937 
L 101.955 97.970937 
L 111.955 97.970937 
L 111.955 97.970937 
" style="fill: none; stroke: #add8e6; stroke-width: 1.5; stroke-linecap: square"/>
    </g>
    <g id="text_18">
     <!-- 2020 -->
     <g transform="translate(119.955 101.470937) scale(0.1 -0.1)">
      <use xlink:href="#DejaVuSans-32"/>
      <use xlink:href="#DejaVuSans-30" x="63.623047"/>
      <use xlink:href="#DejaVuSans-32" x="127.246094"/>
      <use xlink:href="#DejaVuSans-30" x="190.869141"/>
     </g>
    </g>
    <g id="line2d_37">
     <path d="M 91.955 112.649062 
L 101.955 112.649062 
L 101.955 112.649062 
L 111.955 112.649062 
L 111.955 112.649062 
" style="fill: none; stroke: #ffc0cb; stroke-width: 1.5; stroke-linecap: square"/>
    </g>
    <g id="text_19">
     <!-- 2021 -->
     <g transform="translate(119.955 116.149062) scale(0.1 -0.1)">
      <use xlink:href="#DejaVuSans-32"/>
      <use xlink:href="#DejaVuSans-30" x="63.623047"/>
      <use xlink:href="#DejaVuSans-32" x="127.246094"/>
      <use xlink:href="#DejaVuSans-31" x="190.869141"/>
     </g>
    </g>
    <g id="line2d_38">
     <path d="M 91.955 127.327187 
L 101.955 127.327187 
L 101.955 127.327187 
L 111.955 127.327187 
L 111.955 127.327187 
" style="fill: none; stroke: #800080; stroke-width: 1.5; stroke-linecap: square"/>
    </g>
    <g id="text_20">
     <!-- 2022 -->
     <g transform="translate(119.955 130.827187) scale(0.1 -0.1)">
      <use xlink:href="#DejaVuSans-32"/>
      <use xlink:href="#DejaVuSans-30" x="63.623047"/>
      <use xlink:href="#DejaVuSans-32" x="127.246094"/>
      <use xlink:href="#DejaVuSans-32" x="190.869141"/>
     </g>
    </g>
    <g id="line2d_39">
     <path d="M 91.955 142.005312 
L 101.955 142.005312 
L 101.955 142.005312 
L 111.955 142.005312 
L 111.955 142.005312 
" style="fill: none; stroke: #ffa500; stroke-width: 1.5; stroke-linecap: square"/>
    </g>
    <g id="text_21">
     <!-- 2023 -->
     <g transform="translate(119.955 145.505312) scale(0.1 -0.1)">
      <defs>
       <path id="DejaVuSans-33" d="M 2597 2516 
Q 3050 2419 3304 2112 
Q 3559 1806 3559 1356 
Q 3559 666 3084 287 
Q 2609 -91 1734 -91 
Q 1441 -91 1130 -33 
Q 819 25 488 141 
L 488 750 
Q 750 597 1062 519 
Q 1375 441 1716 441 
Q 2309 441 2620 675 
Q 2931 909 2931 1356 
Q 2931 1769 2642 2001 
Q 2353 2234 1838 2234 
L 1294 2234 
L 1294 2753 
L 1863 2753 
Q 2328 2753 2575 2939 
Q 2822 3125 2822 3475 
Q 2822 3834 2567 4026 
Q 2313 4219 1838 4219 
Q 1578 4219 1281 4162 
Q 984 4106 628 3988 
L 628 4550 
Q 988 4650 1302 4700 
Q 1616 4750 1894 4750 
Q 2613 4750 3031 4423 
Q 3450 4097 3450 3541 
Q 3450 3153 3228 2886 
Q 3006 2619 2597 2516 
z
" transform="scale(0.015625)"/>
      </defs>
      <use xlink:href="#DejaVuSans-32"/>
      <use xlink:href="#DejaVuSans-30" x="63.623047"/>
      <use xlink:href="#DejaVuSans-32" x="127.246094"/>
      <use xlink:href="#DejaVuSans-33" x="190.869141"/>
     </g>
    </g>
    <g id="line2d_40">
     <path d="M 91.955 156.683437 
L 101.955 156.683437 
L 101.955 156.683437 
L 111.955 156.683437 
L 111.955 156.683437 
" style="fill: none; stroke: #0000ff; stroke-width: 1.5; stroke-linecap: square"/>
    </g>
    <g id="text_22">
     <!-- 2024 -->
     <g transform="translate(119.955 160.183437) scale(0.1 -0.1)">
      <defs>
       <path id="DejaVuSans-34" d="M 2419 4116 
L 825 1625 
L 2419 1625 
L 2419 4116 
z
M 2253 4666 
L 3047 4666 
L 3047 1625 
L 3713 1625 
L 3713 1100 
L 3047 1100 
L 3047 0 
L 2419 0 
L 2419 1100 
L 313 1100 
L 313 1709 
L 2253 4666 
z
" transform="scale(0.015625)"/>
      </defs>
      <use xlink:href="#DejaVuSans-32"/>
      <use xlink:href="#DejaVuSans-30" x="63.623047"/>
      <use xlink:href="#DejaVuSans-32" x="127.246094"/>
      <use xlink:href="#DejaVuSans-34" x="190.869141"/>
     </g>
    </g>
    <g id="line2d_41">
     <path d="M 91.955 171.361562 
L 101.955 171.361562 
L 101.955 171.361562 
L 111.955 171.361562 
L 111.955 171.361562 
" style="fill: none; stroke: #008000; stroke-width: 1.5; stroke-linecap: square"/>
    </g>
    <g id="text_23">
     <!-- 2025 -->
     <g transform="translate(119.955 174.861562) scale(0.1 -0.1)">
      <use xlink:href="#DejaVuSans-32"/>
      <use xlink:href="#DejaVuSans-30" x="63.623047"/>
      <use xlink:href="#DejaVuSans-32" x="127.246094"/>
      <use xlink:href="#DejaVuSans-35" x="190.869141"/>
     </g>
    </g>
    <g id="line2d_42">
     <path d="M 91.955 186.039687 
L 101.955 186.039687 
L 101.955 186.039687 
L 111.955 186.039687 
L 111.955 186.039687 
" style="fill: none; stroke: #ff0000; stroke-width: 1.5; stroke-linecap: square"/>
    </g>
    <g id="text_24">
     <!-- 2026 -->
     <g transform="translate(119.955 189.539687) scale(0.1 -0.1)">
      <defs>
       <path id="DejaVuSans-36" d="M 2113 2584 
Q 1688 2584 1439 2293 
Q 1191 2003 1191 1497 
Q 1191 994 1439 701 
Q 1688 409 2113 409 
Q 2538 409 2786 701 
Q 3034 994 3034 1497 
Q 3034 2003 2786 2293 
Q 2538 2584 2113 2584 
z
M 3366 4563 
L 3366 3988 
Q 3128 4100 2886 4159 
Q 2644 4219 2406 4219 
Q 1781 4219 1451 3797 
Q 1122 3375 1075 2522 
Q 1259 2794 1537 2939 
Q 1816 3084 2150 3084 
Q 2853 3084 3261 2657 
Q 3669 2231 3669 1497 
Q 3669 778 3244 343 
Q 2819 -91 2113 -91 
Q 1303 -91 875 529 
Q 447 1150 447 2328 
Q 447 3434 972 4092 
Q 1497 4750 2381 4750 
Q 2619 4750 2861 4703 
Q 3103 4656 3366 4563 
z
" transform="scale(0.015625)"/>
      </defs>
      <use xlink:href="#DejaVuSans-32"/>
      <use xlink:href="#DejaVuSans-30" x="63.623047"/>
      <use xlink:href="#DejaVuSans-32" x="127.246094"/>
      <use xlink:href="#DejaVuSans-36" x="190.869141"/>
     </g>
    </g>
   </g>
  </g>
 </g>
 <defs>
  <clipPath id="p4ab6057fa7">
   <rect x="82.955" y="26.16" width="626.245" height="449.96"/>
  </clipPath>
 </defs>
</svg>
