<?xml version="1.0" encoding="utf-8" standalone="no"?>
<!DOCTYPE svg PUBLIC "-//W3C//DTD SVG 1.1//EN"
  "http://www.w3.org/Graphics/SVG/1.1/DTD/svg11.dtd">
<svg xmlns:xlink="http://www.w3.org/1999/xlink" width="720pt" height="504pt" viewBox="0 0 720 504" xmlns="http://www.w3.org/2000/svg" version="1.1">
 <metadata>
  <rdf:RDF xmlns:dc="http://purl.org/dc/elements/1.1/" xmlns:cc="http://creativecommons.org/ns#" xmlns:rdf="http://www.w3.org/1999/02/22-rdf-syntax-ns#">
   <cc:Work>
    <dc:type rdf:resource="http://purl.org/dc/dcmitype/StillImage"/>
    <dc:date>2025-10-18T18:26:47.616417</dc:date>
    <dc:format>image/svg+xml</dc:format>
    <dc:creator>
     <cc:Agent>
      <dc:title>Matplotlib v3.8.2, https://matplotlib.org/</dc:title>
     </cc:Agent>
    </dc:creator>
   </cc:Work>
  </rdf:RDF>
 </metadata>
 <defs>
  <style type="text/css">*{stroke-linejoin: round; stroke-linecap: butt}</style>
 </defs>
 <g id="figure_1">
  <g id="patch_1">
   <path d="M 0 504 
L 720 504 
L 720 0 
L 0 0 
z
" style="fill: #ffffff"/>
  </g>
  <g id="axes_1">
   <g id="patch_2">
    <path d="M 82.37 476.12 
L 709.2 476.12 
L 709.2 26.88 
L 82.37 26.88 
z
" style="fill: #ffffff"/>
   </g>
   <g id="matplotlib.axis_1">
    <g id="xtick_1">
     <g id="line2d_1">
      <path d="M 106.728679 476.12 
L 106.728679 26.88 
" clip-path="url(#p5be39f2124)" style="fill: none; stroke: #b0b0b0; stroke-width: 0.8; stroke-linecap: square"/>
     </g>
     <g id="line2d_2">
      <defs>
       <path id="mee0ad112a9" d="M 0 0 
L 0 3.5 
" style="stroke: #000000; stroke-width: 0.8"/>
      </defs>
      <g>
       <use xlink:href="#mee0ad112a9" x="106.728679" y="476.12" style="stroke: #000000; stroke-width: 0.8"/>
      </g>
     </g>
     <g id="text_1">
      <!-- Jan 1 -->
      <g transform="translate(94.250554 490.718437) scale(0.1 -0.1)">
       <defs>
        <path id="DejaVuSans-4a" d="M 628 4666 
L 1259 4666 
L 1259 325 
Q 1259 -519 939 -900 
Q 619 -1281 -91 -1281 
L -331 -1281 
L -331 -750 
L -134 -750 
Q 284 -750 456 -515 
Q 628 -281 628 325 
L 628 4666 
z
" transform="scale(0.015625)"/>
        <path id="DejaVuSans-61" d="M 2194 1759 
Q 1497 1759 1228 1600 
Q 959 1441 959 1056 
Q 959 750 1161 570 
Q 1363 391 1709 391 
Q 2188 391 2477 730 
Q 2766 1069 2766 1631 
L 2766 1759 
L 2194 1759 
z
M 3341 1997 
L 3341 0 
L 2766 0 
L 2766 531 
Q 2569 213 2275 61 
Q 1981 -91 1556 -91 
Q 1019 -91 701 211 
Q 384 513 384 1019 
Q 384 1609 779 1909 
Q 1175 2209 1959 2209 
L 2766 2209 
L 2766 2266 
Q 2766 2663 2505 2880 
Q 2244 3097 1772 3097 
Q 1472 3097 1187 3025 
Q 903 2953 641 2809 
L 641 3341 
Q 956 3463 1253 3523 
Q 1550 3584 1831 3584 
Q 2591 3584 2966 3190 
Q 3341 2797 3341 1997 
z
" transform="scale(0.015625)"/>
        <path id="DejaVuSans-6e" d="M 3513 2113 
L 3513 0 
L 2938 0 
L 2938 2094 
Q 2938 2591 2744 2837 
Q 2550 3084 2163 3084 
Q 1697 3084 1428 2787 
Q 1159 2491 1159 1978 
L 1159 0 
L 581 0 
L 581 3500 
L 1159 3500 
L 1159 2956 
Q 1366 3272 1645 3428 
Q 1925 3584 2291 3584 
Q 2894 3584 3203 3211 
Q 3513 2838 3513 2113 
z
" transform="scale(0.015625)"/>
        <path id="DejaVuSans-20" transform="scale(0.015625)"/>
        <path id="DejaVuSans-31" d="M 794 531 
L 1825 531 
L 1825 4091 
L 703 3866 
L 703 4441 
L 1819 4666 
L 2450 4666 
L 2450 531 
L 3481 531 
L 3481 0 
L 794 0 
L 794 531 
z
" transform="scale(0.015625)"/>
       </defs>
       <use xlink:href="#DejaVuSans-4a"/>
       <use xlink:href="#DejaVuSans-61" x="29.492188"/>
       <use xlink:href="#DejaVuSans-6e" x="90.771484"/>
       <use xlink:href="#DejaVuSans-20" x="154.150391"/>
       <use xlink:href="#DejaVuSans-31" x="185.9375"/>
      </g>
     </g>
    </g>
    <g id="xtick_2">
     <g id="line2d_3">
      <path d="M 204.163394 476.12 
L 204.163394 26.88 
" clip-path="url(#p5be39f2124)" style="fill: none; stroke: #b0b0b0; stroke-width: 0.8; stroke-linecap: square"/>
     </g>
     <g id="line2d_4">
      <g>
       <use xlink:href="#mee0ad112a9" x="204.163394" y="476.12" style="stroke: #000000; stroke-width: 0.8"/>
      </g>
     </g>
     <g id="text_2">
      <!-- Mar 1 -->
      <g transform="translate(189.959488 490.718437) scale(0.1 -0.1)">
       <defs>
        <path id="DejaVuSans-4d" d="M 628 4666 
L 1569 4666 
L 2759 1491 
L 3956 4666 
L 4897 4666 
L 4897 0 
L 4281 0 
L 4281 4097 
L 3078 897 
L 2444 897 
L 1241 4097 
L 1241 0 
L 628 0 
L 628 4666 
z
" transform="scale(0.015625)"/>
        <path id="DejaVuSans-72" d="M 2631 2963 
Q 2534 3019 2420 3045 
Q 2306 3072 2169 3072 
Q 1681 3072 1420 2755 
Q 1159 2438 1159 1844 
L 1159 0 
L 581 0 
L 581 3500 
L 1159 3500 
L 1159 2956 
Q 1341 3275 1631 3429 
Q 1922 3584 2338 3584 
Q 2397 3584 2469 3576 
Q 2541 3569 2628 3553 
L 2631 2963 
z
" transform="scale(0.015625)"/>
       </defs>
       <use xlink:href="#DejaVuSans-4d"/>
       <use xlink:href="#DejaVuSans-61" x="86.279297"/>
       <use xlink:href="#DejaVuSans-72" x="147.558594"/>
       <use xlink:href="#DejaVuSans-20" x="188.671875"/>
       <use xlink:href="#DejaVuSans-31" x="220.458984"/>
      </g>
     </g>
    </g>
    <g id="xtick_3">
     <g id="line2d_5">
      <path d="M 303.222021 476.12 
L 303.222021 26.88 
" clip-path="url(#p5be39f2124)" style="fill: none; stroke: #b0b0b0; stroke-width: 0.8; stroke-linecap: square"/>
     </g>
     <g id="line2d_6">
      <g>
       <use xlink:href="#mee0ad112a9" x="303.222021" y="476.12" style="stroke: #000000; stroke-width: 0.8"/>
      </g>
     </g>
     <g id="text_3">
      <!-- May 1 -->
      <g transform="translate(288.114208 490.718437) scale(0.1 -0.1)">
       <defs>
        <path id="DejaVuSans-79" d="M 2059 -325 
Q 1816 -950 1584 -1140 
Q 1353 -1331 966 -1331 
L 506 -1331 
L 506 -850 
L 844 -850 
Q 1081 -850 1212 -737 
Q 1344 -625 1503 -206 
L 1606 56 
L 191 3500 
L 800 3500 
L 1894 763 
L 2988 3500 
L 3597 3500 
L 2059 -325 
z
" transform="scale(0.015625)"/>
       </defs>
       <use xlink:href="#DejaVuSans-4d"/>
       <use xlink:href="#DejaVuSans-61" x="86.279297"/>
       <use xlink:href="#DejaVuSans-79" x="147.558594"/>
       <use xlink:href="#DejaVuSans-20" x="206.738281"/>
       <use xlink:href="#DejaVuSans-31" x="238.525391"/>
      </g>
     </g>
    </g>
    <g id="xtick_4">
     <g id="line2d_7">
      <path d="M 402.280648 476.12 
L 402.280648 26.88 
" clip-path="url(#p5be39f2124)" style="fill: none; stroke: #b0b0b0; stroke-width: 0.8; stroke-linecap: square"/>
     </g>
     <g id="line2d_8">
      <g>
       <use xlink:href="#mee0ad112a9" x="402.280648" y="476.12" style="stroke: #000000; stroke-width: 0.8"/>
      </g>
     </g>
     <g id="text_4">
      <!-- Jul 1 -->
      <g transform="translate(391.477523 490.718437) scale(0.1 -0.1)">
       <defs>
        <path id="DejaVuSans-75" d="M 544 1381 
L 544 3500 
L 1119 3500 
L 1119 1403 
Q 1119 906 1312 657 
Q 1506 409 1894 409 
Q 2359 409 2629 706 
Q 2900 1003 2900 1516 
L 2900 3500 
L 3475 3500 
L 3475 0 
L 2900 0 
L 2900 538 
Q 2691 219 2414 64 
Q 2138 -91 1772 -91 
Q 1169 -91 856 284 
Q 544 659 544 1381 
z
M 1991 3584 
L 1991 3584 
z
" transform="scale(0.015625)"/>
        <path id="DejaVuSans-6c" d="M 603 4863 
L 1178 4863 
L 1178 0 
L 603 0 
L 603 4863 
z
" transform="scale(0.015625)"/>
       </defs>
       <use xlink:href="#DejaVuSans-4a"/>
       <use xlink:href="#DejaVuSans-75" x="29.492188"/>
       <use xlink:href="#DejaVuSans-6c" x="92.871094"/>
       <use xlink:href="#DejaVuSans-20" x="120.654297"/>
       <use xlink:href="#DejaVuSans-31" x="152.441406"/>
      </g>
     </g>
    </g>
    <g id="xtick_5">
     <g id="line2d_9">
      <path d="M 502.963187 476.12 
L 502.963187 26.88 
" clip-path="url(#p5be39f2124)" style="fill: none; stroke: #b0b0b0; stroke-width: 0.8; stroke-linecap: square"/>
     </g>
     <g id="line2d_10">
      <g>
       <use xlink:href="#mee0ad112a9" x="502.963187" y="476.12" style="stroke: #000000; stroke-width: 0.8"/>
      </g>
     </g>
     <g id="text_5">
      <!-- Sep 1 -->
      <g transform="translate(488.767874 490.718437) scale(0.1 -0.1)">
       <defs>
        <path id="DejaVuSans-53" d="M 3425 4513 
L 3425 3897 
Q 3066 4069 2747 4153 
Q 2428 4238 2131 4238 
Q 1616 4238 1336 4038 
Q 1056 3838 1056 3469 
Q 1056 3159 1242 3001 
Q 1428 2844 1947 2747 
L 2328 2669 
Q 3034 2534 3370 2195 
Q 3706 1856 3706 1288 
Q 3706 609 3251 259 
Q 2797 -91 1919 -91 
Q 1588 -91 1214 -16 
Q 841 59 441 206 
L 441 856 
Q 825 641 1194 531 
Q 1563 422 1919 422 
Q 2459 422 2753 634 
Q 3047 847 3047 1241 
Q 3047 1584 2836 1778 
Q 2625 1972 2144 2069 
L 1759 2144 
Q 1053 2284 737 2584 
Q 422 2884 422 3419 
Q 422 4038 858 4394 
Q 1294 4750 2059 4750 
Q 2388 4750 2728 4690 
Q 3069 4631 3425 4513 
z
" transform="scale(0.015625)"/>
        <path id="DejaVuSans-65" d="M 3597 1894 
L 3597 1613 
L 953 1613 
Q 991 1019 1311 708 
Q 1631 397 2203 397 
Q 2534 397 2845 478 
Q 3156 559 3463 722 
L 3463 178 
Q 3153 47 2828 -22 
Q 2503 -91 2169 -91 
Q 1331 -91 842 396 
Q 353 884 353 1716 
Q 353 2575 817 3079 
Q 1281 3584 2069 3584 
Q 2775 3584 3186 3129 
Q 3597 2675 3597 1894 
z
M 3022 2063 
Q 3016 2534 2758 2815 
Q 2500 3097 2075 3097 
Q 1594 3097 1305 2825 
Q 1016 2553 972 2059 
L 3022 2063 
z
" transform="scale(0.015625)"/>
        <path id="DejaVuSans-70" d="M 1159 525 
L 1159 -1331 
L 581 -1331 
L 581 3500 
L 1159 3500 
L 1159 2969 
Q 1341 3281 1617 3432 
Q 1894 3584 2278 3584 
Q 2916 3584 3314 3078 
Q 3713 2572 3713 1747 
Q 3713 922 3314 415 
Q 2916 -91 2278 -91 
Q 1894 -91 1617 61 
Q 1341 213 1159 525 
z
M 3116 1747 
Q 3116 2381 2855 2742 
Q 2594 3103 2138 3103 
Q 1681 3103 1420 2742 
Q 1159 2381 1159 1747 
Q 1159 1113 1420 752 
Q 1681 391 2138 391 
Q 2594 391 2855 752 
Q 3116 1113 3116 1747 
z
" transform="scale(0.015625)"/>
       </defs>
       <use xlink:href="#DejaVuSans-53"/>
       <use xlink:href="#DejaVuSans-65" x="63.476562"/>
       <use xlink:href="#DejaVuSans-70" x="125"/>
       <use xlink:href="#DejaVuSans-20" x="188.476562"/>
       <use xlink:href="#DejaVuSans-31" x="220.263672"/>
      </g>
     </g>
    </g>
    <g id="xtick_6">
     <g id="line2d_11">
      <path d="M 602.021813 476.12 
L 602.021813 26.88 
" clip-path="url(#p5be39f2124)" style="fill: none; stroke: #b0b0b0; stroke-width: 0.8; stroke-linecap: square"/>
     </g>
     <g id="line2d_12">
      <g>
       <use xlink:href="#mee0ad112a9" x="602.021813" y="476.12" style="stroke: #000000; stroke-width: 0.8"/>
      </g>
     </g>
     <g id="text_6">
      <!-- Nov 1 -->
      <g transform="translate(587.492126 490.718437) scale(0.1 -0.1)">
       <defs>
        <path id="DejaVuSans-4e" d="M 628 4666 
L 1478 4666 
L 3547 763 
L 3547 4666 
L 4159 4666 
L 4159 0 
L 3309 0 
L 1241 3903 
L 1241 0 
L 628 0 
L 628 4666 
z
" transform="scale(0.015625)"/>
        <path id="DejaVuSans-6f" d="M 1959 3097 
Q 1497 3097 1228 2736 
Q 959 2375 959 1747 
Q 959 1119 1226 758 
Q 1494 397 1959 397 
Q 2419 397 2687 759 
Q 2956 1122 2956 1747 
Q 2956 2369 2687 2733 
Q 2419 3097 1959 3097 
z
M 1959 3584 
Q 2709 3584 3137 3096 
Q 3566 2609 3566 1747 
Q 3566 888 3137 398 
Q 2709 -91 1959 -91 
Q 1206 -91 779 398 
Q 353 888 353 1747 
Q 353 2609 779 3096 
Q 1206 3584 1959 3584 
z
" transform="scale(0.015625)"/>
        <path id="DejaVuSans-76" d="M 191 3500 
L 800 3500 
L 1894 563 
L 2988 3500 
L 3597 3500 
L 2284 0 
L 1503 0 
L 191 3500 
z
" transform="scale(0.015625)"/>
       </defs>
       <use xlink:href="#DejaVuSans-4e"/>
       <use xlink:href="#DejaVuSans-6f" x="74.804688"/>
       <use xlink:href="#DejaVuSans-76" x="135.986328"/>
       <use xlink:href="#DejaVuSans-20" x="195.166016"/>
       <use xlink:href="#DejaVuSans-31" x="226.953125"/>
      </g>
     </g>
    </g>
   </g>
   <g id="matplotlib.axis_2">
    <g id="ytick_1">
     <g id="line2d_13">
      <path d="M 82.37 455.7 
L 709.2 455.7 
" clip-path="url(#p5be39f2124)" style="fill: none; stroke: #b0b0b0; stroke-width: 0.8; stroke-linecap: square"/>
     </g>
     <g id="line2d_14">
      <defs>
       <path id="m9852a8f455" d="M 0 0 
L -3.5 0 
" style="stroke: #000000; stroke-width: 0.8"/>
      </defs>
      <g>
       <use xlink:href="#m9852a8f455" x="82.37" y="455.7" style="stroke: #000000; stroke-width: 0.8"/>
      </g>
     </g>
     <g id="text_7">
      <!-- 0 -->
      <g transform="translate(69.0075 459.499219) scale(0.1 -0.1)">
       <defs>
        <path id="DejaVuSans-30" d="M 2034 4250 
Q 1547 4250 1301 3770 
Q 1056 3291 1056 2328 
Q 1056 1369 1301 889 
Q 1547 409 2034 409 
Q 2525 409 2770 889 
Q 3016 1369 3016 2328 
Q 3016 3291 2770 3770 
Q 2525 4250 2034 4250 
z
M 2034 4750 
Q 2819 4750 3233 4129 
Q 3647 3509 3647 2328 
Q 3647 1150 3233 529 
Q 2819 -91 2034 -91 
Q 1250 -91 836 529 
Q 422 1150 422 2328 
Q 422 3509 836 4129 
Q 1250 4750 2034 4750 
z
" transform="scale(0.015625)"/>
       </defs>
       <use xlink:href="#DejaVuSans-30"/>
      </g>
     </g>
    </g>
    <g id="ytick_2">
     <g id="line2d_15">
      <path d="M 82.37 395.417422 
L 709.2 395.417422 
" clip-path="url(#p5be39f2124)" style="fill: none; stroke: #b0b0b0; stroke-width: 0.8; stroke-linecap: square"/>
     </g>
     <g id="line2d_16">
      <g>
       <use xlink:href="#m9852a8f455" x="82.37" y="395.417422" style="stroke: #000000; stroke-width: 0.8"/>
      </g>
     </g>
     <g id="text_8">
      <!-- 250,000 -->
      <g transform="translate(34.016875 399.21664) scale(0.1 -0.1)">
       <defs>
        <path id="DejaVuSans-32" d="M 1228 531 
L 3431 531 
L 3431 0 
L 469 0 
L 469 531 
Q 828 903 1448 1529 
Q 2069 2156 2228 2338 
Q 2531 2678 2651 2914 
Q 2772 3150 2772 3378 
Q 2772 3750 2511 3984 
Q 2250 4219 1831 4219 
Q 1534 4219 1204 4116 
Q 875 4013 500 3803 
L 500 4441 
Q 881 4594 1212 4672 
Q 1544 4750 1819 4750 
Q 2544 4750 2975 4387 
Q 3406 4025 3406 3419 
Q 3406 3131 3298 2873 
Q 3191 2616 2906 2266 
Q 2828 2175 2409 1742 
Q 1991 1309 1228 531 
z
" transform="scale(0.015625)"/>
        <path id="DejaVuSans-35" d="M 691 4666 
L 3169 4666 
L 3169 4134 
L 1269 4134 
L 1269 2991 
Q 1406 3038 1543 3061 
Q 1681 3084 1819 3084 
Q 2600 3084 3056 2656 
Q 3513 2228 3513 1497 
Q 3513 744 3044 326 
Q 2575 -91 1722 -91 
Q 1428 -91 1123 -41 
Q 819 9 494 109 
L 494 744 
Q 775 591 1075 516 
Q 1375 441 1709 441 
Q 2250 441 2565 725 
Q 2881 1009 2881 1497 
Q 2881 1984 2565 2268 
Q 2250 2553 1709 2553 
Q 1456 2553 1204 2497 
Q 953 2441 691 2322 
L 691 4666 
z
" transform="scale(0.015625)"/>
        <path id="DejaVuSans-2c" d="M 750 794 
L 1409 794 
L 1409 256 
L 897 -744 
L 494 -744 
L 750 256 
L 750 794 
z
" transform="scale(0.015625)"/>
       </defs>
       <use xlink:href="#DejaVuSans-32"/>
       <use xlink:href="#DejaVuSans-35" x="63.623047"/>
       <use xlink:href="#DejaVuSans-30" x="127.246094"/>
       <use xlink:href="#DejaVuSans-2c" x="190.869141"/>
       <use xlink:href="#DejaVuSans-30" x="222.65625"/>
       <use xlink:href="#DejaVuSans-30" x="286.279297"/>
       <use xlink:href="#DejaVuSans-30" x="349.902344"/>
      </g>
     </g>
    </g>
    <g id="ytick_3">
     <g id="line2d_17">
      <path d="M 82.37 335.134843 
L 709.2 335.134843 
" clip-path="url(#p5be39f2124)" style="fill: none; stroke: #b0b0b0; stroke-width: 0.8; stroke-linecap: square"/>
     </g>
     <g id="line2d_18">
      <g>
       <use xlink:href="#m9852a8f455" x="82.37" y="335.134843" style="stroke: #000000; stroke-width: 0.8"/>
      </g>
     </g>
     <g id="text_9">
      <!-- 500,000 -->
      <g transform="translate(34.016875 338.934062) scale(0.1 -0.1)">
       <use xlink:href="#DejaVuSans-35"/>
       <use xlink:href="#DejaVuSans-30" x="63.623047"/>
       <use xlink:href="#DejaVuSans-30" x="127.246094"/>
       <use xlink:href="#DejaVuSans-2c" x="190.869141"/>
       <use xlink:href="#DejaVuSans-30" x="222.65625"/>
       <use xlink:href="#DejaVuSans-30" x="286.279297"/>
       <use xlink:href="#DejaVuSans-30" x="349.902344"/>
      </g>
     </g>
    </g>
    <g id="ytick_4">
     <g id="line2d_19">
      <path d="M 82.37 274.852265 
L 709.2 274.852265 
" clip-path="url(#p5be39f2124)" style="fill: none; stroke: #b0b0b0; stroke-width: 0.8; stroke-linecap: square"/>
     </g>
     <g id="line2d_20">
      <g>
       <use xlink:href="#m9852a8f455" x="82.37" y="274.852265" style="stroke: #000000; stroke-width: 0.8"/>
      </g>
     </g>
     <g id="text_10">
      <!-- 750,000 -->
      <g transform="translate(34.016875 278.651484) scale(0.1 -0.1)">
       <defs>
        <path id="DejaVuSans-37" d="M 525 4666 
L 3525 4666 
L 3525 4397 
L 1831 0 
L 1172 0 
L 2766 4134 
L 525 4134 
L 525 4666 
z
" transform="scale(0.015625)"/>
       </defs>
       <use xlink:href="#DejaVuSans-37"/>
       <use xlink:href="#DejaVuSans-35" x="63.623047"/>
       <use xlink:href="#DejaVuSans-30" x="127.246094"/>
       <use xlink:href="#DejaVuSans-2c" x="190.869141"/>
       <use xlink:href="#DejaVuSans-30" x="222.65625"/>
       <use xlink:href="#DejaVuSans-30" x="286.279297"/>
       <use xlink:href="#DejaVuSans-30" x="349.902344"/>
      </g>
     </g>
    </g>
    <g id="ytick_5">
     <g id="line2d_21">
      <path d="M 82.37 214.569687 
L 709.2 214.569687 
" clip-path="url(#p5be39f2124)" style="fill: none; stroke: #b0b0b0; stroke-width: 0.8; stroke-linecap: square"/>
     </g>
     <g id="line2d_22">
      <g>
       <use xlink:href="#m9852a8f455" x="82.37" y="214.569687" style="stroke: #000000; stroke-width: 0.8"/>
      </g>
     </g>
     <g id="text_11">
      <!-- 1,000,000 -->
      <g transform="translate(24.47625 218.368906) scale(0.1 -0.1)">
       <use xlink:href="#DejaVuSans-31"/>
       <use xlink:href="#DejaVuSans-2c" x="63.623047"/>
       <use xlink:href="#DejaVuSans-30" x="95.410156"/>
       <use xlink:href="#DejaVuSans-30" x="159.033203"/>
       <use xlink:href="#DejaVuSans-30" x="222.65625"/>
       <use xlink:href="#DejaVuSans-2c" x="286.279297"/>
       <use xlink:href="#DejaVuSans-30" x="318.066406"/>
       <use xlink:href="#DejaVuSans-30" x="381.689453"/>
       <use xlink:href="#DejaVuSans-30" x="445.3125"/>
      </g>
     </g>
    </g>
    <g id="ytick_6">
     <g id="line2d_23">
      <path d="M 82.37 154.287109 
L 709.2 154.287109 
" clip-path="url(#p5be39f2124)" style="fill: none; stroke: #b0b0b0; stroke-width: 0.8; stroke-linecap: square"/>
     </g>
     <g id="line2d_24">
      <g>
       <use xlink:href="#m9852a8f455" x="82.37" y="154.287109" style="stroke: #000000; stroke-width: 0.8"/>
      </g>
     </g>
     <g id="text_12">
      <!-- 1,250,000 -->
      <g transform="translate(24.47625 158.086327) scale(0.1 -0.1)">
       <use xlink:href="#DejaVuSans-31"/>
       <use xlink:href="#DejaVuSans-2c" x="63.623047"/>
       <use xlink:href="#DejaVuSans-32" x="95.410156"/>
       <use xlink:href="#DejaVuSans-35" x="159.033203"/>
       <use xlink:href="#DejaVuSans-30" x="222.65625"/>
       <use xlink:href="#DejaVuSans-2c" x="286.279297"/>
       <use xlink:href="#DejaVuSans-30" x="318.066406"/>
       <use xlink:href="#DejaVuSans-30" x="381.689453"/>
       <use xlink:href="#DejaVuSans-30" x="445.3125"/>
      </g>
     </g>
    </g>
    <g id="ytick_7">
     <g id="line2d_25">
      <path d="M 82.37 94.00453 
L 709.2 94.00453 
" clip-path="url(#p5be39f2124)" style="fill: none; stroke: #b0b0b0; stroke-width: 0.8; stroke-linecap: square"/>
     </g>
     <g id="line2d_26">
      <g>
       <use xlink:href="#m9852a8f455" x="82.37" y="94.00453" style="stroke: #000000; stroke-width: 0.8"/>
      </g>
     </g>
     <g id="text_13">
      <!-- 1,500,000 -->
      <g transform="translate(24.47625 97.803749) scale(0.1 -0.1)">
       <use xlink:href="#DejaVuSans-31"/>
       <use xlink:href="#DejaVuSans-2c" x="63.623047"/>
       <use xlink:href="#DejaVuSans-35" x="95.410156"/>
       <use xlink:href="#DejaVuSans-30" x="159.033203"/>
       <use xlink:href="#DejaVuSans-30" x="222.65625"/>
       <use xlink:href="#DejaVuSans-2c" x="286.279297"/>
       <use xlink:href="#DejaVuSans-30" x="318.066406"/>
       <use xlink:href="#DejaVuSans-30" x="381.689453"/>
       <use xlink:href="#DejaVuSans-30" x="445.3125"/>
      </g>
     </g>
    </g>
    <g id="ytick_8">
     <g id="line2d_27">
      <path d="M 82.37 33.721952 
L 709.2 33.721952 
" clip-path="url(#p5be39f2124)" style="fill: none; stroke: #b0b0b0; stroke-width: 0.8; stroke-linecap: square"/>
     </g>
     <g id="line2d_28">
      <g>
       <use xlink:href="#m9852a8f455" x="82.37" y="33.721952" style="stroke: #000000; stroke-width: 0.8"/>
      </g>
     </g>
     <g id="text_14">
      <!-- 1,750,000 -->
      <g transform="translate(24.47625 37.521171) scale(0.1 -0.1)">
       <use xlink:href="#DejaVuSans-31"/>
       <use xlink:href="#DejaVuSans-2c" x="63.623047"/>
       <use xlink:href="#DejaVuSans-37" x="95.410156"/>
       <use xlink:href="#DejaVuSans-35" x="159.033203"/>
       <use xlink:href="#DejaVuSans-30" x="222.65625"/>
       <use xlink:href="#DejaVuSans-2c" x="286.279297"/>
       <use xlink:href="#DejaVuSans-30" x="318.066406"/>
       <use xlink:href="#DejaVuSans-30" x="381.689453"/>
       <use xlink:href="#DejaVuSans-30" x="445.3125"/>
      </g>
     </g>
    </g>
    <g id="text_15">
     <!-- Cumulative Payload Mass (kg) -->
     <g transform="translate(18.396562 326.863281) rotate(-90) scale(0.1 -0.1)">
      <defs>
       <path id="DejaVuSans-43" d="M 4122 4306 
L 4122 3641 
Q 3803 3938 3442 4084 
Q 3081 4231 2675 4231 
Q 1875 4231 1450 3742 
Q 1025 3253 1025 2328 
Q 1025 1406 1450 917 
Q 1875 428 2675 428 
Q 3081 428 3442 575 
Q 3803 722 4122 1019 
L 4122 359 
Q 3791 134 3420 21 
Q 3050 -91 2638 -91 
Q 1578 -91 968 557 
Q 359 1206 359 2328 
Q 359 3453 968 4101 
Q 1578 4750 2638 4750 
Q 3056 4750 3426 4639 
Q 3797 4528 4122 4306 
z
" transform="scale(0.015625)"/>
       <path id="DejaVuSans-6d" d="M 3328 2828 
Q 3544 3216 3844 3400 
Q 4144 3584 4550 3584 
Q 5097 3584 5394 3201 
Q 5691 2819 5691 2113 
L 5691 0 
L 5113 0 
L 5113 2094 
Q 5113 2597 4934 2840 
Q 4756 3084 4391 3084 
Q 3944 3084 3684 2787 
Q 3425 2491 3425 1978 
L 3425 0 
L 2847 0 
L 2847 2094 
Q 2847 2600 2669 2842 
Q 2491 3084 2119 3084 
Q 1678 3084 1418 2786 
Q 1159 2488 1159 1978 
L 1159 0 
L 581 0 
L 581 3500 
L 1159 3500 
L 1159 2956 
Q 1356 3278 1631 3431 
Q 1906 3584 2284 3584 
Q 2666 3584 2933 3390 
Q 3200 3197 3328 2828 
z
" transform="scale(0.015625)"/>
       <path id="DejaVuSans-74" d="M 1172 4494 
L 1172 3500 
L 2356 3500 
L 2356 3053 
L 1172 3053 
L 1172 1153 
Q 1172 725 1289 603 
Q 1406 481 1766 481 
L 2356 481 
L 2356 0 
L 1766 0 
Q 1100 0 847 248 
Q 594 497 594 1153 
L 594 3053 
L 172 3053 
L 172 3500 
L 594 3500 
L 594 4494 
L 1172 4494 
z
" transform="scale(0.015625)"/>
       <path id="DejaVuSans-69" d="M 603 3500 
L 1178 3500 
L 1178 0 
L 603 0 
L 603 3500 
z
M 603 4863 
L 1178 4863 
L 1178 4134 
L 603 4134 
L 603 4863 
z
" transform="scale(0.015625)"/>
       <path id="DejaVuSans-50" d="M 1259 4147 
L 1259 2394 
L 2053 2394 
Q 2494 2394 2734 2622 
Q 2975 2850 2975 3272 
Q 2975 3691 2734 3919 
Q 2494 4147 2053 4147 
L 1259 4147 
z
M 628 4666 
L 2053 4666 
Q 2838 4666 3239 4311 
Q 3641 3956 3641 3272 
Q 3641 2581 3239 2228 
Q 2838 1875 2053 1875 
L 1259 1875 
L 1259 0 
L 628 0 
L 628 4666 
z
" transform="scale(0.015625)"/>
       <path id="DejaVuSans-64" d="M 2906 2969 
L 2906 4863 
L 3481 4863 
L 3481 0 
L 2906 0 
L 2906 525 
Q 2725 213 2448 61 
Q 2172 -91 1784 -91 
Q 1150 -91 751 415 
Q 353 922 353 1747 
Q 353 2572 751 3078 
Q 1150 3584 1784 3584 
Q 2172 3584 2448 3432 
Q 2725 3281 2906 2969 
z
M 947 1747 
Q 947 1113 1208 752 
Q 1469 391 1925 391 
Q 2381 391 2643 752 
Q 2906 1113 2906 1747 
Q 2906 2381 2643 2742 
Q 2381 3103 1925 3103 
Q 1469 3103 1208 2742 
Q 947 2381 947 1747 
z
" transform="scale(0.015625)"/>
       <path id="DejaVuSans-73" d="M 2834 3397 
L 2834 2853 
Q 2591 2978 2328 3040 
Q 2066 3103 1784 3103 
Q 1356 3103 1142 2972 
Q 928 2841 928 2578 
Q 928 2378 1081 2264 
Q 1234 2150 1697 2047 
L 1894 2003 
Q 2506 1872 2764 1633 
Q 3022 1394 3022 966 
Q 3022 478 2636 193 
Q 2250 -91 1575 -91 
Q 1294 -91 989 -36 
Q 684 19 347 128 
L 347 722 
Q 666 556 975 473 
Q 1284 391 1588 391 
Q 1994 391 2212 530 
Q 2431 669 2431 922 
Q 2431 1156 2273 1281 
Q 2116 1406 1581 1522 
L 1381 1569 
Q 847 1681 609 1914 
Q 372 2147 372 2553 
Q 372 3047 722 3315 
Q 1072 3584 1716 3584 
Q 2034 3584 2315 3537 
Q 2597 3491 2834 3397 
z
" transform="scale(0.015625)"/>
       <path id="DejaVuSans-28" d="M 1984 4856 
Q 1566 4138 1362 3434 
Q 1159 2731 1159 2009 
Q 1159 1288 1364 580 
Q 1569 -128 1984 -844 
L 1484 -844 
Q 1016 -109 783 600 
Q 550 1309 550 2009 
Q 550 2706 781 3412 
Q 1013 4119 1484 4856 
L 1984 4856 
z
" transform="scale(0.015625)"/>
       <path id="DejaVuSans-6b" d="M 581 4863 
L 1159 4863 
L 1159 1991 
L 2875 3500 
L 3609 3500 
L 1753 1863 
L 3688 0 
L 2938 0 
L 1159 1709 
L 1159 0 
L 581 0 
L 581 4863 
z
" transform="scale(0.015625)"/>
       <path id="DejaVuSans-67" d="M 2906 1791 
Q 2906 2416 2648 2759 
Q 2391 3103 1925 3103 
Q 1463 3103 1205 2759 
Q 947 2416 947 1791 
Q 947 1169 1205 825 
Q 1463 481 1925 481 
Q 2391 481 2648 825 
Q 2906 1169 2906 1791 
z
M 3481 434 
Q 3481 -459 3084 -895 
Q 2688 -1331 1869 -1331 
Q 1566 -1331 1297 -1286 
Q 1028 -1241 775 -1147 
L 775 -588 
Q 1028 -725 1275 -790 
Q 1522 -856 1778 -856 
Q 2344 -856 2625 -561 
Q 2906 -266 2906 331 
L 2906 616 
Q 2728 306 2450 153 
Q 2172 0 1784 0 
Q 1141 0 747 490 
Q 353 981 353 1791 
Q 353 2603 747 3093 
Q 1141 3584 1784 3584 
Q 2172 3584 2450 3431 
Q 2728 3278 2906 2969 
L 2906 3500 
L 3481 3500 
L 3481 434 
z
" transform="scale(0.015625)"/>
       <path id="DejaVuSans-29" d="M 513 4856 
L 1013 4856 
Q 1481 4119 1714 3412 
Q 1947 2706 1947 2009 
Q 1947 1309 1714 600 
Q 1481 -109 1013 -844 
L 513 -844 
Q 928 -128 1133 580 
Q 1338 1288 1338 2009 
Q 1338 2731 1133 3434 
Q 928 4138 513 4856 
z
" transform="scale(0.015625)"/>
      </defs>
      <use xlink:href="#DejaVuSans-43"/>
      <use xlink:href="#DejaVuSans-75" x="69.824219"/>
      <use xlink:href="#DejaVuSans-6d" x="133.203125"/>
      <use xlink:href="#DejaVuSans-75" x="230.615234"/>
      <use xlink:href="#DejaVuSans-6c" x="293.994141"/>
      <use xlink:href="#DejaVuSans-61" x="321.777344"/>
      <use xlink:href="#DejaVuSans-74" x="383.056641"/>
      <use xlink:href="#DejaVuSans-69" x="422.265625"/>
      <use xlink:href="#DejaVuSans-76" x="450.048828"/>
      <use xlink:href="#DejaVuSans-65" x="509.228516"/>
      <use xlink:href="#DejaVuSans-20" x="570.751953"/>
      <use xlink:href="#DejaVuSans-50" x="602.539062"/>
      <use xlink:href="#DejaVuSans-61" x="658.341797"/>
      <use xlink:href="#DejaVuSans-79" x="719.621094"/>
      <use xlink:href="#DejaVuSans-6c" x="778.800781"/>
      <use xlink:href="#DejaVuSans-6f" x="806.583984"/>
      <use xlink:href="#DejaVuSans-61" x="867.765625"/>
      <use xlink:href="#DejaVuSans-64" x="929.044922"/>
      <use xlink:href="#DejaVuSans-20" x="992.521484"/>
      <use xlink:href="#DejaVuSans-4d" x="1024.308594"/>
      <use xlink:href="#DejaVuSans-61" x="1110.587891"/>
      <use xlink:href="#DejaVuSans-73" x="1171.867188"/>
      <use xlink:href="#DejaVuSans-73" x="1223.966797"/>
      <use xlink:href="#DejaVuSans-20" x="1276.066406"/>
      <use xlink:href="#DejaVuSans-28" x="1307.853516"/>
      <use xlink:href="#DejaVuSans-6b" x="1346.867188"/>
      <use xlink:href="#DejaVuSans-67" x="1404.777344"/>
      <use xlink:href="#DejaVuSans-29" x="1468.253906"/>
     </g>
    </g>
   </g>
   <g id="line2d_29">
    <path d="M 106.728679 455.7 
L 127.839534 455.7 
L 127.839534 453.385149 
L 186.300363 453.385149 
L 186.300363 452.784735 
L 226.898161 452.784735 
L 226.898161 451.434405 
L 249.632927 451.434405 
L 249.632927 450.156414 
L 301.598109 450.156414 
L 301.598109 450.156414 
L 324.332876 450.156414 
L 324.332876 448.692753 
L 355.187202 448.692753 
L 355.187202 448.039772 
L 387.66544 448.039772 
L 387.66544 447.155065 
L 390.913264 447.155065 
L 390.913264 444.840214 
L 407.152383 444.840214 
L 407.152383 443.209932 
L 472.10886 443.209932 
L 472.10886 442.411791 
L 488.347979 442.411791 
L 488.347979 442.297254 
L 511.082746 442.297254 
L 511.082746 441.094014 
L 563.047927 441.094014 
L 563.047927 438.779163 
L 566.295751 438.779163 
L 566.295751 437.477059 
L 597.150078 437.477059 
L 597.150078 436.633103 
L 671.850026 436.633103 
L 671.850026 436.10141 
L 684.841321 436.10141 
L 684.841321 433.786559 
L 697.832617 433.786559 
L 697.832617 433.786559 
" clip-path="url(#p5be39f2124)" style="fill: none; stroke: #808080; stroke-width: 1.5; stroke-linecap: square"/>
   </g>
   <g id="line2d_30">
    <path d="M 106.728679 455.7 
L 118.096062 455.7 
L 118.096062 455.7 
L 155.446036 455.7 
L 155.446036 454.680019 
L 165.189508 454.680019 
L 165.189508 454.378606 
L 191.172098 454.378606 
L 191.172098 453.860176 
L 210.659041 453.860176 
L 210.659041 452.39121 
L 249.632927 452.39121 
L 249.632927 450.076359 
L 254.504663 450.076359 
L 254.504663 449.438087 
L 280.487254 449.438087 
L 280.487254 449.350798 
L 317.837228 449.350798 
L 317.837228 448.482729 
L 335.700259 448.482729 
L 335.700259 446.925027 
L 356.811114 446.925027 
L 356.811114 445.626781 
L 397.408912 445.626781 
L 397.408912 444.976453 
L 434.758886 444.976453 
L 434.758886 443.270456 
L 439.630622 443.270456 
L 439.630622 440.955605 
L 460.741477 440.955605 
L 460.741477 439.557049 
L 515.954482 439.557049 
L 515.954482 437.854669 
L 561.424016 437.854669 
L 561.424016 437.131278 
L 623.132668 437.131278 
L 623.132668 435.853287 
L 652.363083 435.853287 
L 652.363083 434.888766 
L 655.610907 434.888766 
L 655.610907 434.28594 
L 684.841321 434.28594 
L 684.841321 433.224967 
L 697.832617 433.224967 
L 697.832617 433.224967 
" clip-path="url(#p5be39f2124)" style="fill: none; stroke: #90ee90; stroke-width: 1.5; stroke-linecap: square"/>
   </g>
   <g id="line2d_31">
    <path d="M 106.728679 455.7 
L 122.967798 455.7 
L 122.967798 453.385149 
L 191.172098 453.385149 
L 191.172098 452.215667 
L 204.163394 452.215667 
L 204.163394 449.308841 
L 269.11987 449.308841 
L 269.11987 447.749934 
L 306.469845 447.749934 
L 306.469845 447.148313 
L 338.948083 447.148313 
L 338.948083 443.864119 
L 369.802409 443.864119 
L 369.802409 442.851371 
L 390.913264 442.851371 
L 390.913264 441.959189 
L 439.630622 441.959189 
L 439.630622 441.412306 
L 459.117565 441.412306 
L 459.117565 439.844959 
L 616.637021 439.844959 
L 616.637021 436.083326 
L 655.610907 436.083326 
L 655.610907 435.452288 
L 675.09785 435.452288 
L 675.09785 433.774985 
L 697.832617 433.774985 
L 697.832617 433.774985 
" clip-path="url(#p5be39f2124)" style="fill: none; stroke: #add8e6; stroke-width: 1.5; stroke-linecap: square"/>
   </g>
   <g id="line2d_32">
    <path d="M 106.728679 455.7 
L 116.47215 455.7 
L 116.47215 451.938367 
L 135.959093 451.938367 
L 135.959093 449.032747 
L 152.198212 449.032747 
L 152.198212 445.271114 
L 183.052539 445.271114 
L 183.052539 441.509481 
L 213.906865 441.509481 
L 213.906865 441.032766 
L 231.769896 441.032766 
L 231.769896 437.271134 
L 288.606813 437.271134 
L 288.606813 433.509501 
L 350.315466 433.509501 
L 350.315466 430.488138 
L 358.435026 430.488138 
L 358.435026 426.726505 
L 373.050233 426.726505 
L 373.050233 423.010687 
L 400.656736 423.010687 
L 400.656736 421.971174 
L 433.134974 421.971174 
L 433.134974 420.644957 
L 462.365389 420.644957 
L 462.365389 417.0444 
L 480.22842 417.0444 
L 480.22842 413.321347 
L 499.715363 413.321347 
L 499.715363 412.56661 
L 506.21101 412.56661 
L 506.21101 408.804977 
L 559.800104 408.804977 
L 559.800104 405.043344 
L 579.287047 405.043344 
L 579.287047 401.281711 
L 589.030518 401.281711 
L 589.030518 397.520078 
L 608.517461 397.520078 
L 608.517461 396.480565 
L 626.380492 396.480565 
L 626.380492 393.466436 
L 634.500052 393.466436 
L 634.500052 393.179009 
L 640.995699 393.179009 
L 640.995699 389.417376 
L 658.858731 389.417376 
L 658.858731 388.700737 
L 670.226114 388.700737 
L 670.226114 387.012825 
L 679.969585 387.012825 
L 679.969585 387.012825 
L 699.456528 387.012825 
L 699.456528 387.012825 
" clip-path="url(#p5be39f2124)" style="fill: none; stroke: #ffc0cb; stroke-width: 1.5; stroke-linecap: square"/>
   </g>
   <g id="line2d_33">
    <path d="M 106.728679 455.7 
L 118.096062 455.7 
L 118.096062 454.856044 
L 137.583005 454.856044 
L 137.583005 451.094411 
L 144.078653 451.094411 
L 144.078653 449.888759 
L 161.941684 449.888759 
L 161.941684 446.127127 
L 181.428627 446.127127 
L 181.428627 442.365494 
L 207.411218 442.365494 
L 207.411218 438.603861 
L 218.778601 438.603861 
L 218.778601 434.842228 
L 223.650337 434.842228 
L 223.650337 431.080595 
L 239.889456 431.080595 
L 239.889456 427.318962 
L 262.624223 427.318962 
L 262.624223 423.557329 
L 288.606813 423.557329 
L 288.606813 420.422635 
L 298.350285 420.422635 
L 298.350285 416.661002 
L 306.469845 416.661002 
L 306.469845 412.899369 
L 314.589404 412.899369 
L 314.589404 409.137737 
L 324.332876 409.137737 
L 324.332876 405.414685 
L 342.195907 405.414685 
L 342.195907 401.653052 
L 355.187202 401.653052 
L 355.187202 400.85057 
L 360.058938 400.85057 
L 360.058938 399.162658 
L 377.921969 399.162658 
L 377.921969 398.118322 
L 399.032824 398.118322 
L 399.032824 398.118322 
L 496.467539 398.118322 
L 496.467539 397.587836 
L 522.45013 397.587836 
L 522.45013 394.390448 
L 525.697953 394.390448 
L 525.697953 391.371737 
L 616.637021 391.371737 
L 616.637021 388.237043 
L 619.884845 388.237043 
L 619.884845 384.466971 
L 637.747876 384.466971 
L 637.747876 384.316505 
L 650.739171 384.316505 
L 650.739171 380.820116 
L 662.106554 380.820116 
L 662.106554 380.741749 
L 676.721762 380.741749 
L 676.721762 376.980116 
L 678.345674 376.980116 
L 678.345674 375.895029 
L 681.593497 375.895029 
L 681.593497 375.174291 
L 697.832617 375.174291 
L 697.832617 375.174291 
" clip-path="url(#p5be39f2124)" style="fill: none; stroke: #800080; stroke-width: 1.5; stroke-linecap: square"/>
   </g>
   <g id="line2d_34">
    <path d="M 106.728679 455.7 
L 114.848238 455.7 
L 114.848238 452.20361 
L 126.215622 452.20361 
L 126.215622 452.20361 
L 135.959093 452.20361 
L 135.959093 448.707221 
L 155.446036 448.707221 
L 155.446036 448.175529 
L 158.69386 448.175529 
L 158.69386 448.175529 
L 160.317772 448.175529 
L 160.317772 444.679139 
L 189.548187 444.679139 
L 189.548187 441.399767 
L 196.043834 441.399767 
L 196.043834 437.843095 
L 205.787306 437.843095 
L 205.787306 434.491383 
L 215.530777 434.491383 
L 215.530777 431.076978 
L 231.769896 431.076978 
L 231.769896 427.15861 
L 252.880751 427.15861 
L 252.880751 427.15861 
L 264.248135 427.15861 
L 264.248135 424.023916 
L 278.863342 424.023916 
L 278.863342 424.023916 
L 285.35899 424.023916 
L 285.35899 420.105549 
L 295.102461 420.105549 
L 295.102461 416.970855 
L 298.350285 416.970855 
L 298.350285 413.052487 
L 309.717668 413.052487 
L 309.717668 409.13412 
L 321.085052 409.13412 
L 321.085052 405.215752 
L 322.708964 405.215752 
L 322.708964 401.297384 
L 329.204611 401.297384 
L 329.204611 397.379017 
L 340.571995 397.379017 
L 340.571995 397.379017 
L 363.306762 397.379017 
L 363.306762 396.390383 
L 377.921969 396.390383 
L 377.921969 392.472015 
L 379.545881 392.472015 
L 379.545881 391.507494 
L 381.169793 391.507494 
L 381.169793 391.338702 
L 397.408912 391.338702 
L 397.408912 390.494746 
L 410.400207 390.494746 
L 410.400207 386.576379 
L 416.895855 386.576379 
L 416.895855 383.176441 
L 423.391503 383.176441 
L 423.391503 382.533106 
L 426.639326 382.533106 
L 426.639326 378.614738 
L 434.758886 378.614738 
L 434.758886 375.214801 
L 438.00671 375.214801 
L 438.00671 371.296433 
L 455.869741 371.296433 
L 455.869741 371.132706 
L 465.613212 371.132706 
L 465.613212 367.274621 
L 468.861036 367.274621 
L 468.861036 363.874683 
L 480.22842 363.874683 
L 480.22842 359.956316 
L 494.843627 359.956316 
L 494.843627 355.929439 
L 499.715363 355.929439 
L 499.715363 352.505389 
L 507.834922 352.505389 
L 507.834922 348.647304 
L 517.578394 348.647304 
L 517.578394 345.76869 
L 530.569689 345.76869 
L 530.569689 341.741814 
L 538.689249 341.741814 
L 538.689249 337.859616 
L 556.55228 337.859616 
L 556.55228 334.724922 
L 556.55228 334.724922 
L 556.55228 330.842724 
L 561.424016 330.842724 
L 561.424016 329.070416 
L 572.791399 329.070416 
L 572.791399 327.98533 
L 580.910959 327.98533 
L 580.910959 323.958453 
L 593.902254 323.958453 
L 593.902254 320.003916 
L 600.397902 320.003916 
L 600.397902 319.099678 
L 603.645725 319.099678 
L 603.645725 318.014591 
L 618.260933 318.014591 
L 618.260933 316.423131 
L 636.123964 316.423131 
L 636.123964 315.096914 
L 640.995699 315.096914 
L 640.995699 314.246207 
L 660.482642 314.246207 
L 660.482642 312.799425 
L 665.354378 312.799425 
L 665.354378 312.558294 
L 673.473938 312.558294 
L 673.473938 312.027808 
L 673.473938 312.027808 
L 673.473938 311.039174 
L 675.09785 311.039174 
L 675.09785 307.012297 
L 692.960881 307.012297 
L 692.960881 302.985421 
L 696.208705 302.985421 
L 696.208705 302.888969 
L 697.832617 302.888969 
L 697.832617 302.888969 
" clip-path="url(#p5be39f2124)" style="fill: none; stroke: #ffa500; stroke-width: 1.5; stroke-linecap: square"/>
   </g>
   <g id="line2d_35">
    <path d="M 106.728679 455.7 
L 121.343886 455.7 
L 121.343886 454.253218 
L 129.463446 454.253218 
L 129.463446 453.348979 
L 134.335181 453.348979 
L 134.335181 452.29958 
L 135.959093 452.29958 
L 135.959093 448.682626 
L 147.326477 448.682626 
L 147.326477 444.486958 
L 155.446036 444.486958 
L 155.446036 440.821777 
L 158.69386 440.821777 
L 158.69386 436.843127 
L 166.81342 436.843127 
L 166.81342 435.843401 
L 174.932979 435.843401 
L 174.932979 431.720073 
L 183.052539 431.720073 
L 183.052539 427.886101 
L 184.676451 427.886101 
L 184.676451 426.567118 
L 199.291658 426.567118 
L 199.291658 422.877824 
L 204.163394 422.877824 
L 204.163394 419.74313 
L 205.787306 419.74313 
L 205.787306 415.909158 
L 215.530777 415.909158 
L 215.530777 414.462376 
L 225.274249 414.462376 
L 225.274249 413.774672 
L 228.522073 413.774672 
L 228.522073 408.180449 
L 239.889456 408.180449 
L 239.889456 403.984782 
L 248.009016 403.984782 
L 248.009016 399.789114 
L 262.624223 399.789114 
L 262.624223 398.441678 
L 282.111166 398.441678 
L 282.111166 394.752384 
L 295.102461 394.752384 
L 295.102461 391.352447 
L 296.726373 391.352447 
L 296.726373 390.363813 
L 301.598109 390.363813 
L 301.598109 388.820579 
L 306.469845 388.820579 
L 306.469845 384.624911 
L 316.213316 384.624911 
L 316.213316 380.790939 
L 322.708964 380.790939 
L 322.708964 376.595272 
L 330.828523 376.595272 
L 330.828523 372.713074 
L 332.452435 372.713074 
L 332.452435 371.121614 
L 334.076347 371.121614 
L 334.076347 367.98692 
L 343.819819 367.98692 
L 343.819819 366.901833 
L 350.315466 366.901833 
L 350.315466 362.947296 
L 356.811114 362.947296 
L 356.811114 359.065098 
L 358.435026 359.065098 
L 358.435026 358.268403 
L 369.802409 358.268403 
L 369.802409 354.313866 
L 369.802409 354.313866 
L 379.545881 354.313866 
L 379.545881 353.209489 
L 386.041528 353.209489 
L 386.041528 349.7131 
L 387.66544 349.7131 
L 387.66544 345.517432 
L 400.656736 345.517432 
L 400.656736 344.996591 
L 410.400207 344.996591 
L 410.400207 341.403749 
L 415.271943 341.403749 
L 415.271943 337.521551 
L 425.015415 337.521551 
L 425.015415 333.494675 
L 431.511062 333.494675 
L 431.511062 330.601111 
L 438.00671 330.601111 
L 438.00671 326.718913 
L 444.502358 326.718913 
L 444.502358 322.836715 
L 446.126269 322.836715 
L 446.126269 320.618316 
L 454.245829 320.618316 
L 454.245829 319.397474 
L 460.741477 319.397474 
L 460.741477 315.515276 
L 462.365389 315.515276 
L 462.365389 312.621712 
L 467.237124 312.621712 
L 467.237124 308.739514 
L 476.980596 308.739514 
L 476.980596 304.857316 
L 485.100155 304.857316 
L 485.100155 301.168022 
L 491.595803 301.168022 
L 491.595803 298.033328 
L 493.219715 298.033328 
L 493.219715 294.15113 
L 501.339275 294.15113 
L 501.339275 290.268932 
L 506.21101 290.268932 
L 506.21101 286.579638 
L 514.33057 286.579638 
L 514.33057 282.69744 
L 519.202306 282.69744 
L 519.202306 279.008146 
L 525.697953 279.008146 
L 525.697953 275.125948 
L 532.193601 275.125948 
L 532.193601 271.24375 
L 538.689249 271.24375 
L 538.689249 267.361552 
L 540.313161 267.361552 
L 540.313161 263.672258 
L 548.43272 263.672258 
L 548.43272 259.79006 
L 556.55228 259.79006 
L 556.55228 255.907862 
L 563.047927 255.907862 
L 563.047927 252.218568 
L 569.543575 252.218568 
L 569.543575 247.707502 
L 577.663135 247.707502 
L 577.663135 243.825304 
L 582.53487 243.825304 
L 582.53487 240.136011 
L 584.158782 240.136011 
L 584.158782 236.085021 
L 595.526166 236.085021 
L 595.526166 232.202823 
L 597.150078 232.202823 
L 597.150078 228.151834 
L 605.269637 228.151834 
L 605.269637 224.100845 
L 611.765285 224.100845 
L 611.765285 220.049856 
L 615.013109 220.049856 
L 615.013109 217.753089 
L 618.260933 217.753089 
L 618.260933 216.764455 
L 628.004404 216.764455 
L 628.004404 212.713466 
L 628.004404 212.713466 
L 631.252228 212.713466 
L 631.252228 208.831268 
L 634.500052 208.831268 
L 634.500052 204.780278 
L 644.243523 204.780278 
L 644.243523 200.729289 
L 649.115259 200.729289 
L 649.115259 200.536385 
L 652.363083 200.536385 
L 652.363083 196.485396 
L 658.858731 196.485396 
L 658.858731 192.434406 
L 660.482642 192.434406 
L 660.482642 188.552208 
L 678.345674 188.552208 
L 678.345674 184.501219 
L 684.841321 184.501219 
L 684.841321 180.45023 
L 686.465233 180.45023 
L 686.465233 179.582161 
L 694.584793 179.582161 
L 694.584793 173.999994 
L 697.832617 173.999994 
L 697.832617 173.999994 
" clip-path="url(#p5be39f2124)" style="fill: none; stroke: #0000ff; stroke-width: 1.5; stroke-linecap: square"/>
   </g>
   <g id="line2d_36">
    <path d="M 106.728679 455.7 
L 109.976503 455.7 
L 109.976503 451.214976 
L 116.47215 451.214976 
L 116.47215 447.091648 
L 127.839534 447.091648 
L 127.839534 443.064772 
L 129.463446 443.064772 
L 129.463446 438.941443 
L 134.335181 438.941443 
L 134.335181 435.806749 
L 144.078653 435.806749 
L 144.078653 431.779873 
L 152.198212 431.779873 
L 152.198212 423.629668 
L 153.822124 423.629668 
L 153.822124 422.731217 
L 168.437332 422.731217 
L 168.437332 422.322742 
L 171.685155 422.322742 
L 171.685155 418.295866 
L 179.804715 418.295866 
L 179.804715 413.803367 
L 187.924275 413.803367 
L 187.924275 412.838846 
L 192.79601 412.838846 
L 192.79601 408.811969 
L 196.043834 408.811969 
L 196.043834 404.592189 
L 202.539482 404.592189 
L 202.539482 400.468861 
L 209.03513 400.468861 
L 209.03513 393.210838 
L 218.778601 393.210838 
L 218.778601 389.08751 
L 220.402513 389.08751 
L 220.402513 384.964182 
L 228.522073 384.964182 
L 228.522073 380.840853 
L 233.393808 380.840853 
L 233.393808 376.910429 
L 236.641632 376.910429 
L 236.641632 376.254313 
L 241.513368 376.254313 
L 241.513368 372.130985 
L 243.13728 372.130985 
L 243.13728 368.007657 
L 251.256839 368.007657 
L 251.256839 366.802005 
L 252.880751 366.802005 
L 252.880751 362.678677 
L 256.128575 362.678677 
L 256.128575 358.651801 
L 261.000311 358.651801 
L 261.000311 354.528472 
L 264.248135 354.528472 
L 264.248135 350.477483 
L 264.248135 350.477483 
L 269.11987 350.477483 
L 269.11987 346.354155 
L 270.743782 346.354155 
L 270.743782 346.064798 
L 273.991606 346.064798 
L 273.991606 341.94147 
L 280.487254 341.94147 
L 280.487254 337.818142 
L 282.111166 337.818142 
L 282.111166 333.694813 
L 290.230725 333.694813 
L 290.230725 329.571485 
L 298.350285 329.571485 
L 298.350285 325.062348 
L 304.845933 325.062348 
L 304.845933 324.700653 
L 306.469845 324.700653 
L 306.469845 320.577324 
L 311.34158 320.577324 
L 311.34158 316.453996 
L 314.589404 316.453996 
L 314.589404 312.330667 
L 317.837228 312.330667 
L 317.837228 308.400243 
L 322.708964 308.400243 
L 322.708964 304.276915 
L 324.332876 304.276915 
L 324.332876 300.346491 
L 330.828523 300.346491 
L 330.828523 296.223163 
L 338.948083 296.223163 
L 338.948083 292.099834 
L 340.571995 292.099834 
L 340.571995 287.976506 
L 347.067642 287.976506 
L 347.067642 283.286521 
L 353.56329 283.286521 
L 353.56329 279.163193 
L 360.058938 279.163193 
L 360.058938 275.232769 
L 364.930674 275.232769 
L 364.930674 267.275468 
L 382.793705 267.275468 
L 382.793705 263.345044 
L 384.417617 263.345044 
L 384.417617 262.139393 
L 389.289352 262.139393 
L 389.289352 258.112517 
L 390.913264 258.112517 
L 390.913264 254.182092 
L 392.537176 254.182092 
L 392.537176 252.976441 
L 395.785 252.976441 
L 395.785 248.853113 
L 405.528472 248.853113 
L 405.528472 244.922688 
L 413.648031 244.922688 
L 413.648031 243.897885 
L 444.502358 243.897885 
L 444.502358 239.774556 
L 446.126269 239.774556 
L 446.126269 231.672578 
L 454.245829 231.672578 
L 454.245829 227.549249 
L 457.493653 227.549249 
L 457.493653 222.495881 
L 467.237124 222.495881 
L 467.237124 218.517231 
L 470.484948 218.517231 
L 470.484948 212.650531 
L 475.356684 212.650531 
L 475.356684 212.288835 
L 483.476244 212.288835 
L 483.476244 208.261959 
L 496.467539 208.261959 
L 496.467539 204.235083 
L 501.339275 204.235083 
L 501.339275 196.18133 
L 509.458834 196.18133 
L 509.458834 192.154454 
L 517.578394 192.154454 
L 517.578394 189.01976 
L 520.826218 189.01976 
L 520.826218 187.211283 
L 522.45013 187.211283 
L 522.45013 183.184406 
L 528.945777 183.184406 
L 528.945777 182.798598 
L 533.817513 182.798598 
L 533.817513 178.868174 
L 541.937073 178.868174 
L 541.937073 174.93775 
L 546.808808 174.93775 
L 546.808808 171.803056 
L 561.424016 171.803056 
L 561.424016 171.535883 
L 572.791399 171.535883 
L 572.791399 170.073428 
L 574.415311 170.073428 
L 574.415311 162.019676 
L 579.287047 162.019676 
L 579.287047 158.089251 
L 582.53487 158.089251 
L 582.53487 157.376952 
L 587.406606 157.376952 
L 587.406606 153.253624 
L 592.278342 153.253624 
L 592.278342 149.226748 
L 598.77399 149.226748 
L 598.77399 141.172995 
L 608.517461 141.172995 
L 608.517461 140.506993 
L 611.765285 140.506993 
L 611.765285 136.383665 
L 615.013109 136.383665 
L 615.013109 132.453241 
L 618.260933 132.453241 
L 618.260933 127.293052 
L 623.132668 127.293052 
L 623.132668 119.142848 
L 628.004404 119.142848 
L 628.004404 118.178326 
L 629.628316 118.178326 
L 629.628316 113.11459 
L 634.500052 113.11459 
L 634.500052 108.894809 
L 639.371788 108.894809 
L 639.371788 104.964385 
L 640.995699 104.964385 
L 640.995699 100.841057 
L 644.243523 100.841057 
L 644.243523 96.621277 
L 649.115259 96.621277 
L 649.115259 88.519298 
L 655.610907 88.519298 
L 655.610907 84.299518 
L 657.234819 84.299518 
L 657.234819 78.681181 
L 662.106554 78.681181 
L 662.106554 74.557853 
L 670.226114 74.557853 
L 670.226114 70.530977 
L 676.721762 70.530977 
L 676.721762 68.662217 
L 683.217409 68.662217 
L 683.217409 68.469312 
L 686.465233 68.469312 
L 686.465233 64.490662 
L 696.208705 64.490662 
L 696.208705 60.077978 
L 699.456528 60.077978 
L 699.456528 60.077978 
L 699.456528 56.099327 
L 699.456528 56.099327 
" clip-path="url(#p5be39f2124)" style="fill: none; stroke: #008000; stroke-width: 1.5; stroke-linecap: square"/>
   </g>
   <g id="line2d_37">
    <path d="M 106.728679 455.7 
L 111.600415 455.7 
L 111.600415 454.494348 
L 114.848238 454.494348 
L 114.848238 450.274568 
L 118.096062 450.274568 
L 118.096062 446.295918 
L 121.343886 446.295918 
L 121.343886 446.295918 
L 121.343886 442.317268 
L 126.215622 442.317268 
L 126.215622 438.338617 
L 127.839534 438.338617 
L 127.839534 437.856357 
L 129.463446 437.856357 
L 129.463446 437.249432 
L 139.206917 437.249432 
L 139.206917 429.822618 
L 144.078653 429.822618 
L 144.078653 425.69929 
L 148.950389 425.69929 
L 148.950389 421.72064 
L 153.822124 421.72064 
L 153.822124 420.249745 
L 157.069948 420.249745 
L 157.069948 416.222869 
L 161.941684 416.222869 
L 161.941684 411.882523 
L 168.437332 411.882523 
L 168.437332 407.903873 
L 173.309067 407.903873 
L 173.309067 399.801894 
L 179.804715 399.801894 
L 179.804715 395.823244 
L 184.676451 395.823244 
L 184.676451 391.699916 
L 189.548187 391.699916 
L 189.548187 387.576587 
L 192.79601 387.576587 
L 192.79601 383.525598 
L 199.291658 383.525598 
L 199.291658 383.525598 
L 199.291658 379.546948 
L 205.787306 379.546948 
L 205.787306 375.568298 
L 220.402513 375.568298 
L 220.402513 375.385521 
L 222.026425 375.385521 
L 222.026425 371.406871 
L 223.650337 371.406871 
L 223.650337 368.272177 
L 225.274249 368.272177 
L 225.274249 368.272177 
L 225.274249 364.148848 
L 230.145984 364.148848 
L 230.145984 360.02552 
L 243.13728 360.02552 
L 243.13728 356.288 
L 251.256839 356.288 
L 251.256839 352.405802 
L 252.880751 352.405802 
L 252.880751 349.271108 
L 257.752487 349.271108 
L 257.752487 345.533588 
L 261.000311 345.533588 
L 261.000311 341.65139 
L 262.624223 341.65139 
L 262.624223 337.91387 
L 272.367694 337.91387 
L 272.367694 333.93522 
L 273.991606 333.93522 
L 273.991606 330.1977 
L 285.35899 330.1977 
L 285.35899 329.469246 
L 291.854637 329.469246 
L 291.854637 325.587048 
L 296.726373 325.587048 
L 296.726373 317.726199 
L 298.350285 317.726199 
L 298.350285 313.602871 
L 303.222021 313.602871 
L 303.222021 309.720673 
L 306.469845 309.720673 
L 306.469845 305.699825 
L 311.34158 305.699825 
L 311.34158 301.817627 
L 316.213316 301.817627 
L 316.213316 294.330531 
L 321.085052 294.330531 
L 321.085052 286.843435 
L 322.708964 286.843435 
L 322.708964 282.961236 
L 325.956788 282.961236 
L 325.956788 279.356338 
L 334.076347 279.356338 
L 334.076347 275.23301 
L 337.324171 275.23301 
L 337.324171 271.49549 
L 338.948083 271.49549 
L 338.948083 267.372162 
L 343.819819 267.372162 
L 343.819819 263.152381 
L 343.819819 263.152381 
L 345.443731 263.152381 
L 345.443731 259.414861 
L 348.691554 259.414861 
L 348.691554 258.365945 
L 350.315466 258.365945 
L 350.315466 254.628425 
L 355.187202 254.628425 
L 355.187202 250.505096 
L 356.811114 250.505096 
L 356.811114 246.767576 
L 361.68285 246.767576 
L 361.68285 245.224342 
L 363.306762 245.224342 
L 363.306762 241.619444 
L 366.554585 241.619444 
L 366.554585 237.496116 
L 371.426321 237.496116 
L 371.426321 229.767889 
L 377.921969 229.767889 
L 377.921969 226.162991 
L 379.545881 226.162991 
L 379.545881 222.280793 
L 387.66544 222.280793 
L 387.66544 218.543273 
L 387.66544 218.543273 
L 390.913264 218.543273 
L 390.913264 211.671059 
L 395.785 211.671059 
L 395.785 204.328641 
L 400.656736 204.328641 
L 400.656736 203.412346 
L 402.280648 203.412346 
L 402.280648 199.674826 
L 412.024119 199.674826 
L 412.024119 195.792628 
L 420.143679 195.792628 
L 420.143679 194.828107 
L 425.015415 194.828107 
L 425.015415 187.658338 
L 429.88715 187.658338 
L 429.88715 183.438558 
L 434.758886 183.438558 
L 434.758886 182.618715 
L 436.382798 182.618715 
L 436.382798 182.396875 
L 441.254534 182.396875 
L 441.254534 178.514677 
L 442.878446 178.514677 
L 442.878446 174.294896 
L 447.750181 174.294896 
L 447.750181 170.412698 
L 449.374093 170.412698 
L 449.374093 167.022406 
L 450.998005 167.022406 
L 450.998005 163.887712 
L 455.869741 163.887712 
L 455.869741 160.005514 
L 467.237124 160.005514 
L 467.237124 156.440643 
L 472.10886 156.440643 
L 472.10886 148.338665 
L 478.604508 148.338665 
L 478.604508 144.118884 
L 485.100155 144.118884 
L 485.100155 138.695864 
L 488.347979 138.695864 
L 488.347979 138.141264 
L 491.595803 138.141264 
L 491.595803 133.95283 
L 493.219715 133.95283 
L 493.219715 130.070632 
L 494.843627 130.070632 
L 494.843627 126.188434 
L 498.091451 126.188434 
L 498.091451 121.968654 
L 499.715363 121.968654 
L 499.715363 118.086456 
L 504.587098 118.086456 
L 504.587098 109.984477 
L 507.834922 109.984477 
L 507.834922 106.102279 
L 509.458834 106.102279 
L 509.458834 101.882499 
L 519.202306 101.882499 
L 519.202306 100.001682 
L 520.826218 100.001682 
L 520.826218 95.781902 
L 522.45013 95.781902 
L 522.45013 94.57625 
L 528.945777 94.57625 
L 528.945777 90.694052 
L 530.569689 90.694052 
L 530.569689 86.474272 
L 533.817513 86.474272 
L 533.817513 82.592074 
L 538.689249 82.592074 
L 538.689249 82.235924 
L 540.313161 82.235924 
L 540.313161 78.353726 
L 541.937073 78.353726 
L 541.937073 74.133946 
L 546.808808 74.133946 
L 546.808808 70.251748 
L 553.304456 70.251748 
L 553.304456 66.36955 
L 559.800104 66.36955 
L 559.800104 62.487352 
L 561.424016 62.487352 
L 561.424016 58.605154 
L 569.543575 58.605154 
L 569.543575 54.747069 
L 571.167487 54.747069 
L 571.167487 51.182198 
L 574.415311 51.182198 
L 574.415311 47.3 
L 577.663135 47.3 
L 577.663135 47.3 
" clip-path="url(#p5be39f2124)" style="fill: none; stroke: #ff0000; stroke-width: 1.5; stroke-linecap: square"/>
   </g>
   <g id="patch_3">
    <path d="M 82.37 476.12 
L 82.37 26.88 
" style="fill: none; stroke: #000000; stroke-width: 0.8; stroke-linejoin: miter; stroke-linecap: square"/>
   </g>
   <g id="patch_4">
    <path d="M 709.2 476.12 
L 709.2 26.88 
" style="fill: none; stroke: #000000; stroke-width: 0.8; stroke-linejoin: miter; stroke-linecap: square"/>
   </g>
   <g id="patch_5">
    <path d="M 82.37 476.12 
L 709.2 476.12 
" style="fill: none; stroke: #000000; stroke-width: 0.8; stroke-linejoin: miter; stroke-linecap: square"/>
   </g>
   <g id="patch_6">
    <path d="M 82.37 26.88 
L 709.2 26.88 
" style="fill: none; stroke: #000000; stroke-width: 0.8; stroke-linejoin: miter; stroke-linecap: square"/>
   </g>
   <g id="text_16">
    <!-- Cumulative Payload Mass to Orbit By Year -->
    <g transform="translate(270.179688 20.88) scale(0.12 -0.12)">
     <defs>
      <path id="DejaVuSans-4f" d="M 2522 4238 
Q 1834 4238 1429 3725 
Q 1025 3213 1025 2328 
Q 1025 1447 1429 934 
Q 1834 422 2522 422 
Q 3209 422 3611 934 
Q 4013 1447 4013 2328 
Q 4013 3213 3611 3725 
Q 3209 4238 2522 4238 
z
M 2522 4750 
Q 3503 4750 4090 4092 
Q 4678 3434 4678 2328 
Q 4678 1225 4090 567 
Q 3503 -91 2522 -91 
Q 1538 -91 948 565 
Q 359 1222 359 2328 
Q 359 3434 948 4092 
Q 1538 4750 2522 4750 
z
" transform="scale(0.015625)"/>
      <path id="DejaVuSans-62" d="M 3116 1747 
Q 3116 2381 2855 2742 
Q 2594 3103 2138 3103 
Q 1681 3103 1420 2742 
Q 1159 2381 1159 1747 
Q 1159 1113 1420 752 
Q 1681 391 2138 391 
Q 2594 391 2855 752 
Q 3116 1113 3116 1747 
z
M 1159 2969 
Q 1341 3281 1617 3432 
Q 1894 3584 2278 3584 
Q 2916 3584 3314 3078 
Q 3713 2572 3713 1747 
Q 3713 922 3314 415 
Q 2916 -91 2278 -91 
Q 1894 -91 1617 61 
Q 1341 213 1159 525 
L 1159 0 
L 581 0 
L 581 4863 
L 1159 4863 
L 1159 2969 
z
" transform="scale(0.015625)"/>
      <path id="DejaVuSans-42" d="M 1259 2228 
L 1259 519 
L 2272 519 
Q 2781 519 3026 730 
Q 3272 941 3272 1375 
Q 3272 1813 3026 2020 
Q 2781 2228 2272 2228 
L 1259 2228 
z
M 1259 4147 
L 1259 2741 
L 2194 2741 
Q 2656 2741 2882 2914 
Q 3109 3088 3109 3444 
Q 3109 3797 2882 3972 
Q 2656 4147 2194 4147 
L 1259 4147 
z
M 628 4666 
L 2241 4666 
Q 2963 4666 3353 4366 
Q 3744 4066 3744 3513 
Q 3744 3084 3544 2831 
Q 3344 2578 2956 2516 
Q 3422 2416 3680 2098 
Q 3938 1781 3938 1306 
Q 3938 681 3513 340 
Q 3088 0 2303 0 
L 628 0 
L 628 4666 
z
" transform="scale(0.015625)"/>
      <path id="DejaVuSans-59" d="M -13 4666 
L 666 4666 
L 1959 2747 
L 3244 4666 
L 3922 4666 
L 2272 2222 
L 2272 0 
L 1638 0 
L 1638 2222 
L -13 4666 
z
" transform="scale(0.015625)"/>
     </defs>
     <use xlink:href="#DejaVuSans-43"/>
     <use xlink:href="#DejaVuSans-75" x="69.824219"/>
     <use xlink:href="#DejaVuSans-6d" x="133.203125"/>
     <use xlink:href="#DejaVuSans-75" x="230.615234"/>
     <use xlink:href="#DejaVuSans-6c" x="293.994141"/>
     <use xlink:href="#DejaVuSans-61" x="321.777344"/>
     <use xlink:href="#DejaVuSans-74" x="383.056641"/>
     <use xlink:href="#DejaVuSans-69" x="422.265625"/>
     <use xlink:href="#DejaVuSans-76" x="450.048828"/>
     <use xlink:href="#DejaVuSans-65" x="509.228516"/>
     <use xlink:href="#DejaVuSans-20" x="570.751953"/>
     <use xlink:href="#DejaVuSans-50" x="602.539062"/>
     <use xlink:href="#DejaVuSans-61" x="658.341797"/>
     <use xlink:href="#DejaVuSans-79" x="719.621094"/>
     <use xlink:href="#DejaVuSans-6c" x="778.800781"/>
     <use xlink:href="#DejaVuSans-6f" x="806.583984"/>
     <use xlink:href="#DejaVuSans-61" x="867.765625"/>
     <use xlink:href="#DejaVuSans-64" x="929.044922"/>
     <use xlink:href="#DejaVuSans-20" x="992.521484"/>
     <use xlink:href="#DejaVuSans-4d" x="1024.308594"/>
     <use xlink:href="#DejaVuSans-61" x="1110.587891"/>
     <use xlink:href="#DejaVuSans-73" x="1171.867188"/>
     <use xlink:href="#DejaVuSans-73" x="1223.966797"/>
     <use xlink:href="#DejaVuSans-20" x="1276.066406"/>
     <use xlink:href="#DejaVuSans-74" x="1307.853516"/>
     <use xlink:href="#DejaVuSans-6f" x="1347.0625"/>
     <use xlink:href="#DejaVuSans-20" x="1408.244141"/>
     <use xlink:href="#DejaVuSans-4f" x="1440.03125"/>
     <use xlink:href="#DejaVuSans-72" x="1518.742188"/>
     <use xlink:href="#DejaVuSans-62" x="1559.855469"/>
     <use xlink:href="#DejaVuSans-69" x="1623.332031"/>
     <use xlink:href="#DejaVuSans-74" x="1651.115234"/>
     <use xlink:href="#DejaVuSans-20" x="1690.324219"/>
     <use xlink:href="#DejaVuSans-42" x="1722.111328"/>
     <use xlink:href="#DejaVuSans-79" x="1790.714844"/>
     <use xlink:href="#DejaVuSans-20" x="1849.894531"/>
     <use xlink:href="#DejaVuSans-59" x="1881.681641"/>
     <use xlink:href="#DejaVuSans-65" x="1929.515625"/>
     <use xlink:href="#DejaVuSans-61" x="1991.039062"/>
     <use xlink:href="#DejaVuSans-72" x="2052.318359"/>
    </g>
   </g>
   <g id="legend_1">
    <g id="patch_7">
     <path d="M 89.37 181.66125 
L 146.82 181.66125 
Q 148.82 181.66125 148.82 179.66125 
L 148.82 33.88 
Q 148.82 31.88 146.82 31.88 
L 89.37 31.88 
Q 87.37 31.88 87.37 33.88 
L 87.37 179.66125 
Q 87.37 181.66125 89.37 181.66125 
z
" style="fill: #ffffff; opacity: 0.8; stroke: #cccccc; stroke-linejoin: miter"/>
    </g>
    <g id="text_17">
     <!-- Year -->
     <g transform="translate(107.5075 43.478437) scale(0.1 -0.1)">
      <use xlink:href="#DejaVuSans-59"/>
      <use xlink:href="#DejaVuSans-65" x="47.833984"/>
      <use xlink:href="#DejaVuSans-61" x="109.357422"/>
      <use xlink:href="#DejaVuSans-72" x="170.636719"/>
     </g>
    </g>
    <g id="line2d_38">
     <path d="M 91.37 54.656562 
L 101.37 54.656562 
L 101.37 54.656562 
L 111.37 54.656562 
L 111.37 54.656562 
" style="fill: none; stroke: #808080; stroke-width: 1.5; stroke-linecap: square"/>
    </g>
    <g id="text_18">
     <!-- 2017 -->
     <g transform="translate(119.37 58.156562) scale(0.1 -0.1)">
      <use xlink:href="#DejaVuSans-32"/>
      <use xlink:href="#DejaVuSans-30" x="63.623047"/>
      <use xlink:href="#DejaVuSans-31" x="127.246094"/>
      <use xlink:href="#DejaVuSans-37" x="190.869141"/>
     </g>
    </g>
    <g id="line2d_39">
     <path d="M 91.37 69.334687 
L 101.37 69.334687 
L 101.37 69.334687 
L 111.37 69.334687 
L 111.37 69.334687 
" style="fill: none; stroke: #90ee90; stroke-width: 1.5; stroke-linecap: square"/>
    </g>
    <g id="text_19">
     <!-- 2018 -->
     <g transform="translate(119.37 72.834687) scale(0.1 -0.1)">
      <defs>
       <path id="DejaVuSans-38" d="M 2034 2216 
Q 1584 2216 1326 1975 
Q 1069 1734 1069 1313 
Q 1069 891 1326 650 
Q 1584 409 2034 409 
Q 2484 409 2743 651 
Q 3003 894 3003 1313 
Q 3003 1734 2745 1975 
Q 2488 2216 2034 2216 
z
M 1403 2484 
Q 997 2584 770 2862 
Q 544 3141 544 3541 
Q 544 4100 942 4425 
Q 1341 4750 2034 4750 
Q 2731 4750 3128 4425 
Q 3525 4100 3525 3541 
Q 3525 3141 3298 2862 
Q 3072 2584 2669 2484 
Q 3125 2378 3379 2068 
Q 3634 1759 3634 1313 
Q 3634 634 3220 271 
Q 2806 -91 2034 -91 
Q 1263 -91 848 271 
Q 434 634 434 1313 
Q 434 1759 690 2068 
Q 947 2378 1403 2484 
z
M 1172 3481 
Q 1172 3119 1398 2916 
Q 1625 2713 2034 2713 
Q 2441 2713 2670 2916 
Q 2900 3119 2900 3481 
Q 2900 3844 2670 4047 
Q 2441 4250 2034 4250 
Q 1625 4250 1398 4047 
Q 1172 3844 1172 3481 
z
" transform="scale(0.015625)"/>
      </defs>
      <use xlink:href="#DejaVuSans-32"/>
      <use xlink:href="#DejaVuSans-30" x="63.623047"/>
      <use xlink:href="#DejaVuSans-31" x="127.246094"/>
      <use xlink:href="#DejaVuSans-38" x="190.869141"/>
     </g>
    </g>
    <g id="line2d_40">
     <path d="M 91.37 84.012812 
L 101.37 84.012812 
L 101.37 84.012812 
L 111.37 84.012812 
L 111.37 84.012812 
" style="fill: none; stroke: #add8e6; stroke-width: 1.5; stroke-linecap: square"/>
    </g>
    <g id="text_20">
     <!-- 2019 -->
     <g transform="translate(119.37 87.512812) scale(0.1 -0.1)">
      <defs>
       <path id="DejaVuSans-39" d="M 703 97 
L 703 672 
Q 941 559 1184 500 
Q 1428 441 1663 441 
Q 2288 441 2617 861 
Q 2947 1281 2994 2138 
Q 2813 1869 2534 1725 
Q 2256 1581 1919 1581 
Q 1219 1581 811 2004 
Q 403 2428 403 3163 
Q 403 3881 828 4315 
Q 1253 4750 1959 4750 
Q 2769 4750 3195 4129 
Q 3622 3509 3622 2328 
Q 3622 1225 3098 567 
Q 2575 -91 1691 -91 
Q 1453 -91 1209 -44 
Q 966 3 703 97 
z
M 1959 2075 
Q 2384 2075 2632 2365 
Q 2881 2656 2881 3163 
Q 2881 3666 2632 3958 
Q 2384 4250 1959 4250 
Q 1534 4250 1286 3958 
Q 1038 3666 1038 3163 
Q 1038 2656 1286 2365 
Q 1534 2075 1959 2075 
z
" transform="scale(0.015625)"/>
      </defs>
      <use xlink:href="#DejaVuSans-32"/>
      <use xlink:href="#DejaVuSans-30" x="63.623047"/>
      <use xlink:href="#DejaVuSans-31" x="127.246094"/>
      <use xlink:href="#DejaVuSans-39" x="190.869141"/>
     </g>
    </g>
    <g id="line2d_41">
     <path d="M 91.37 98.690937 
L 101.37 98.690937 
L 101.37 98.690937 
L 111.37 98.690937 
L 111.37 98.690937 
" style="fill: none; stroke: #ffc0cb; stroke-width: 1.5; stroke-linecap: square"/>
    </g>
    <g id="text_21">
     <!-- 2020 -->
     <g transform="translate(119.37 102.190937) scale(0.1 -0.1)">
      <use xlink:href="#DejaVuSans-32"/>
      <use xlink:href="#DejaVuSans-30" x="63.623047"/>
      <use xlink:href="#DejaVuSans-32" x="127.246094"/>
      <use xlink:href="#DejaVuSans-30" x="190.869141"/>
     </g>
    </g>
    <g id="line2d_42">
     <path d="M 91.37 113.369062 
L 101.37 113.369062 
L 101.37 113.369062 
L 111.37 113.369062 
L 111.37 113.369062 
" style="fill: none; stroke: #800080; stroke-width: 1.5; stroke-linecap: square"/>
    </g>
    <g id="text_22">
     <!-- 2021 -->
     <g transform="translate(119.37 116.869062) scale(0.1 -0.1)">
      <use xlink:href="#DejaVuSans-32"/>
      <use xlink:href="#DejaVuSans-30" x="63.623047"/>
      <use xlink:href="#DejaVuSans-32" x="127.246094"/>
      <use xlink:href="#DejaVuSans-31" x="190.869141"/>
     </g>
    </g>
    <g id="line2d_43">
     <path d="M 91.37 128.047187 
L 101.37 128.047187 
L 101.37 128.047187 
L 111.37 128.047187 
L 111.37 128.047187 
" style="fill: none; stroke: #ffa500; stroke-width: 1.5; stroke-linecap: square"/>
    </g>
    <g id="text_23">
     <!-- 2022 -->
     <g transform="translate(119.37 131.547187) scale(0.1 -0.1)">
      <use xlink:href="#DejaVuSans-32"/>
      <use xlink:href="#DejaVuSans-30" x="63.623047"/>
      <use xlink:href="#DejaVuSans-32" x="127.246094"/>
      <use xlink:href="#DejaVuSans-32" x="190.869141"/>
     </g>
    </g>
    <g id="line2d_44">
     <path d="M 91.37 142.725312 
L 101.37 142.725312 
L 101.37 142.725312 
L 111.37 142.725312 
L 111.37 142.725312 
" style="fill: none; stroke: #0000ff; stroke-width: 1.5; stroke-linecap: square"/>
    </g>
    <g id="text_24">
     <!-- 2023 -->
     <g transform="translate(119.37 146.225312) scale(0.1 -0.1)">
      <defs>
       <path id="DejaVuSans-33" d="M 2597 2516 
Q 3050 2419 3304 2112 
Q 3559 1806 3559 1356 
Q 3559 666 3084 287 
Q 2609 -91 1734 -91 
Q 1441 -91 1130 -33 
Q 819 25 488 141 
L 488 750 
Q 750 597 1062 519 
Q 1375 441 1716 441 
Q 2309 441 2620 675 
Q 2931 909 2931 1356 
Q 2931 1769 2642 2001 
Q 2353 2234 1838 2234 
L 1294 2234 
L 1294 2753 
L 1863 2753 
Q 2328 2753 2575 2939 
Q 2822 3125 2822 3475 
Q 2822 3834 2567 4026 
Q 2313 4219 1838 4219 
Q 1578 4219 1281 4162 
Q 984 4106 628 3988 
L 628 4550 
Q 988 4650 1302 4700 
Q 1616 4750 1894 4750 
Q 2613 4750 3031 4423 
Q 3450 4097 3450 3541 
Q 3450 3153 3228 2886 
Q 3006 2619 2597 2516 
z
" transform="scale(0.015625)"/>
      </defs>
      <use xlink:href="#DejaVuSans-32"/>
      <use xlink:href="#DejaVuSans-30" x="63.623047"/>
      <use xlink:href="#DejaVuSans-32" x="127.246094"/>
      <use xlink:href="#DejaVuSans-33" x="190.869141"/>
     </g>
    </g>
    <g id="line2d_45">
     <path d="M 91.37 157.403437 
L 101.37 157.403437 
L 101.37 157.403437 
L 111.37 157.403437 
L 111.37 157.403437 
" style="fill: none; stroke: #008000; stroke-width: 1.5; stroke-linecap: square"/>
    </g>
    <g id="text_25">
     <!-- 2024 -->
     <g transform="translate(119.37 160.903437) scale(0.1 -0.1)">
      <defs>
       <path id="DejaVuSans-34" d="M 2419 4116 
L 825 1625 
L 2419 1625 
L 2419 4116 
z
M 2253 4666 
L 3047 4666 
L 3047 1625 
L 3713 1625 
L 3713 1100 
L 3047 1100 
L 3047 0 
L 2419 0 
L 2419 1100 
L 313 1100 
L 313 1709 
L 2253 4666 
z
" transform="scale(0.015625)"/>
      </defs>
      <use xlink:href="#DejaVuSans-32"/>
      <use xlink:href="#DejaVuSans-30" x="63.623047"/>
      <use xlink:href="#DejaVuSans-32" x="127.246094"/>
      <use xlink:href="#DejaVuSans-34" x="190.869141"/>
     </g>
    </g>
    <g id="line2d_46">
     <path d="M 91.37 172.081562 
L 101.37 172.081562 
L 101.37 172.081562 
L 111.37 172.081562 
L 111.37 172.081562 
" style="fill: none; stroke: #ff0000; stroke-width: 1.5; stroke-linecap: square"/>
    </g>
    <g id="text_26">
     <!-- 2025 -->
     <g transform="translate(119.37 175.581562) scale(0.1 -0.1)">
      <use xlink:href="#DejaVuSans-32"/>
      <use xlink:href="#DejaVuSans-30" x="63.623047"/>
      <use xlink:href="#DejaVuSans-32" x="127.246094"/>
      <use xlink:href="#DejaVuSans-35" x="190.869141"/>
     </g>
    </g>
   </g>
  </g>
 </g>
 <defs>
  <clipPath id="p5be39f2124">
   <rect x="82.37" y="26.88" width="626.83" height="449.24"/>
  </clipPath>
 </defs>
</svg>
