<?xml version="1.0" encoding="utf-8" standalone="no"?>
<!DOCTYPE svg PUBLIC "-//W3C//DTD SVG 1.1//EN"
  "http://www.w3.org/Graphics/SVG/1.1/DTD/svg11.dtd">
<svg xmlns:xlink="http://www.w3.org/1999/xlink" width="720pt" height="504pt" viewBox="0 0 720 504" xmlns="http://www.w3.org/2000/svg" version="1.1">
 <metadata>
  <rdf:RDF xmlns:dc="http://purl.org/dc/elements/1.1/" xmlns:cc="http://creativecommons.org/ns#" xmlns:rdf="http://www.w3.org/1999/02/22-rdf-syntax-ns#">
   <cc:Work>
    <dc:type rdf:resource="http://purl.org/dc/dcmitype/StillImage"/>
    <dc:date>2024-12-23T11:21:59.414506</dc:date>
    <dc:format>image/svg+xml</dc:format>
    <dc:creator>
     <cc:Agent>
      <dc:title>Matplotlib v3.8.2, https://matplotlib.org/</dc:title>
     </cc:Agent>
    </dc:creator>
   </cc:Work>
  </rdf:RDF>
 </metadata>
 <defs>
  <style type="text/css">*{stroke-linejoin: round; stroke-linecap: butt}</style>
 </defs>
 <g id="figure_1">
  <g id="patch_1">
   <path d="M 0 504 
L 720 504 
L 720 0 
L 0 0 
z
" style="fill: #ffffff"/>
  </g>
  <g id="axes_1">
   <g id="patch_2">
    <path d="M 82.46 476.12 
L 709.2 476.12 
L 709.2 26.88 
L 82.46 26.88 
z
" style="fill: #ffffff"/>
   </g>
   <g id="matplotlib.axis_1">
    <g id="xtick_1">
     <g id="line2d_1">
      <path d="M 106.752248 476.12 
L 106.752248 26.88 
" clip-path="url(#peb17577aa1)" style="fill: none; stroke: #b0b0b0; stroke-width: 0.8; stroke-linecap: square"/>
     </g>
     <g id="line2d_2">
      <defs>
       <path id="m87ea64780b" d="M 0 0 
L 0 3.5 
" style="stroke: #000000; stroke-width: 0.8"/>
      </defs>
      <g>
       <use xlink:href="#m87ea64780b" x="106.752248" y="476.12" style="stroke: #000000; stroke-width: 0.8"/>
      </g>
     </g>
     <g id="text_1">
      <!-- Jan 1 -->
      <g transform="translate(94.274123 490.718437) scale(0.1 -0.1)">
       <defs>
        <path id="DejaVuSans-4a" d="M 628 4666 
L 1259 4666 
L 1259 325 
Q 1259 -519 939 -900 
Q 619 -1281 -91 -1281 
L -331 -1281 
L -331 -750 
L -134 -750 
Q 284 -750 456 -515 
Q 628 -281 628 325 
L 628 4666 
z
" transform="scale(0.015625)"/>
        <path id="DejaVuSans-61" d="M 2194 1759 
Q 1497 1759 1228 1600 
Q 959 1441 959 1056 
Q 959 750 1161 570 
Q 1363 391 1709 391 
Q 2188 391 2477 730 
Q 2766 1069 2766 1631 
L 2766 1759 
L 2194 1759 
z
M 3341 1997 
L 3341 0 
L 2766 0 
L 2766 531 
Q 2569 213 2275 61 
Q 1981 -91 1556 -91 
Q 1019 -91 701 211 
Q 384 513 384 1019 
Q 384 1609 779 1909 
Q 1175 2209 1959 2209 
L 2766 2209 
L 2766 2266 
Q 2766 2663 2505 2880 
Q 2244 3097 1772 3097 
Q 1472 3097 1187 3025 
Q 903 2953 641 2809 
L 641 3341 
Q 956 3463 1253 3523 
Q 1550 3584 1831 3584 
Q 2591 3584 2966 3190 
Q 3341 2797 3341 1997 
z
" transform="scale(0.015625)"/>
        <path id="DejaVuSans-6e" d="M 3513 2113 
L 3513 0 
L 2938 0 
L 2938 2094 
Q 2938 2591 2744 2837 
Q 2550 3084 2163 3084 
Q 1697 3084 1428 2787 
Q 1159 2491 1159 1978 
L 1159 0 
L 581 0 
L 581 3500 
L 1159 3500 
L 1159 2956 
Q 1366 3272 1645 3428 
Q 1925 3584 2291 3584 
Q 2894 3584 3203 3211 
Q 3513 2838 3513 2113 
z
" transform="scale(0.015625)"/>
        <path id="DejaVuSans-20" transform="scale(0.015625)"/>
        <path id="DejaVuSans-31" d="M 794 531 
L 1825 531 
L 1825 4091 
L 703 3866 
L 703 4441 
L 1819 4666 
L 2450 4666 
L 2450 531 
L 3481 531 
L 3481 0 
L 794 0 
L 794 531 
z
" transform="scale(0.015625)"/>
       </defs>
       <use xlink:href="#DejaVuSans-4a"/>
       <use xlink:href="#DejaVuSans-61" x="29.492188"/>
       <use xlink:href="#DejaVuSans-6e" x="90.771484"/>
       <use xlink:href="#DejaVuSans-20" x="154.150391"/>
       <use xlink:href="#DejaVuSans-31" x="185.9375"/>
      </g>
     </g>
    </g>
    <g id="xtick_2">
     <g id="line2d_3">
      <path d="M 203.92124 476.12 
L 203.92124 26.88 
" clip-path="url(#peb17577aa1)" style="fill: none; stroke: #b0b0b0; stroke-width: 0.8; stroke-linecap: square"/>
     </g>
     <g id="line2d_4">
      <g>
       <use xlink:href="#m87ea64780b" x="203.92124" y="476.12" style="stroke: #000000; stroke-width: 0.8"/>
      </g>
     </g>
     <g id="text_2">
      <!-- Mar 1 -->
      <g transform="translate(189.717334 490.718437) scale(0.1 -0.1)">
       <defs>
        <path id="DejaVuSans-4d" d="M 628 4666 
L 1569 4666 
L 2759 1491 
L 3956 4666 
L 4897 4666 
L 4897 0 
L 4281 0 
L 4281 4097 
L 3078 897 
L 2444 897 
L 1241 4097 
L 1241 0 
L 628 0 
L 628 4666 
z
" transform="scale(0.015625)"/>
        <path id="DejaVuSans-72" d="M 2631 2963 
Q 2534 3019 2420 3045 
Q 2306 3072 2169 3072 
Q 1681 3072 1420 2755 
Q 1159 2438 1159 1844 
L 1159 0 
L 581 0 
L 581 3500 
L 1159 3500 
L 1159 2956 
Q 1341 3275 1631 3429 
Q 1922 3584 2338 3584 
Q 2397 3584 2469 3576 
Q 2541 3569 2628 3553 
L 2631 2963 
z
" transform="scale(0.015625)"/>
       </defs>
       <use xlink:href="#DejaVuSans-4d"/>
       <use xlink:href="#DejaVuSans-61" x="86.279297"/>
       <use xlink:href="#DejaVuSans-72" x="147.558594"/>
       <use xlink:href="#DejaVuSans-20" x="188.671875"/>
       <use xlink:href="#DejaVuSans-31" x="220.458984"/>
      </g>
     </g>
    </g>
    <g id="xtick_3">
     <g id="line2d_5">
      <path d="M 302.709716 476.12 
L 302.709716 26.88 
" clip-path="url(#peb17577aa1)" style="fill: none; stroke: #b0b0b0; stroke-width: 0.8; stroke-linecap: square"/>
     </g>
     <g id="line2d_6">
      <g>
       <use xlink:href="#m87ea64780b" x="302.709716" y="476.12" style="stroke: #000000; stroke-width: 0.8"/>
      </g>
     </g>
     <g id="text_3">
      <!-- May 1 -->
      <g transform="translate(287.601903 490.718437) scale(0.1 -0.1)">
       <defs>
        <path id="DejaVuSans-79" d="M 2059 -325 
Q 1816 -950 1584 -1140 
Q 1353 -1331 966 -1331 
L 506 -1331 
L 506 -850 
L 844 -850 
Q 1081 -850 1212 -737 
Q 1344 -625 1503 -206 
L 1606 56 
L 191 3500 
L 800 3500 
L 1894 763 
L 2988 3500 
L 3597 3500 
L 2059 -325 
z
" transform="scale(0.015625)"/>
       </defs>
       <use xlink:href="#DejaVuSans-4d"/>
       <use xlink:href="#DejaVuSans-61" x="86.279297"/>
       <use xlink:href="#DejaVuSans-79" x="147.558594"/>
       <use xlink:href="#DejaVuSans-20" x="206.738281"/>
       <use xlink:href="#DejaVuSans-31" x="238.525391"/>
      </g>
     </g>
    </g>
    <g id="xtick_4">
     <g id="line2d_7">
      <path d="M 401.498191 476.12 
L 401.498191 26.88 
" clip-path="url(#peb17577aa1)" style="fill: none; stroke: #b0b0b0; stroke-width: 0.8; stroke-linecap: square"/>
     </g>
     <g id="line2d_8">
      <g>
       <use xlink:href="#m87ea64780b" x="401.498191" y="476.12" style="stroke: #000000; stroke-width: 0.8"/>
      </g>
     </g>
     <g id="text_4">
      <!-- Jul 1 -->
      <g transform="translate(390.695066 490.718437) scale(0.1 -0.1)">
       <defs>
        <path id="DejaVuSans-75" d="M 544 1381 
L 544 3500 
L 1119 3500 
L 1119 1403 
Q 1119 906 1312 657 
Q 1506 409 1894 409 
Q 2359 409 2629 706 
Q 2900 1003 2900 1516 
L 2900 3500 
L 3475 3500 
L 3475 0 
L 2900 0 
L 2900 538 
Q 2691 219 2414 64 
Q 2138 -91 1772 -91 
Q 1169 -91 856 284 
Q 544 659 544 1381 
z
M 1991 3584 
L 1991 3584 
z
" transform="scale(0.015625)"/>
        <path id="DejaVuSans-6c" d="M 603 4863 
L 1178 4863 
L 1178 0 
L 603 0 
L 603 4863 
z
" transform="scale(0.015625)"/>
       </defs>
       <use xlink:href="#DejaVuSans-4a"/>
       <use xlink:href="#DejaVuSans-75" x="29.492188"/>
       <use xlink:href="#DejaVuSans-6c" x="92.871094"/>
       <use xlink:href="#DejaVuSans-20" x="120.654297"/>
       <use xlink:href="#DejaVuSans-31" x="152.441406"/>
      </g>
     </g>
    </g>
    <g id="xtick_5">
     <g id="line2d_9">
      <path d="M 501.90615 476.12 
L 501.90615 26.88 
" clip-path="url(#peb17577aa1)" style="fill: none; stroke: #b0b0b0; stroke-width: 0.8; stroke-linecap: square"/>
     </g>
     <g id="line2d_10">
      <g>
       <use xlink:href="#m87ea64780b" x="501.90615" y="476.12" style="stroke: #000000; stroke-width: 0.8"/>
      </g>
     </g>
     <g id="text_5">
      <!-- Sep 1 -->
      <g transform="translate(487.710837 490.718437) scale(0.1 -0.1)">
       <defs>
        <path id="DejaVuSans-53" d="M 3425 4513 
L 3425 3897 
Q 3066 4069 2747 4153 
Q 2428 4238 2131 4238 
Q 1616 4238 1336 4038 
Q 1056 3838 1056 3469 
Q 1056 3159 1242 3001 
Q 1428 2844 1947 2747 
L 2328 2669 
Q 3034 2534 3370 2195 
Q 3706 1856 3706 1288 
Q 3706 609 3251 259 
Q 2797 -91 1919 -91 
Q 1588 -91 1214 -16 
Q 841 59 441 206 
L 441 856 
Q 825 641 1194 531 
Q 1563 422 1919 422 
Q 2459 422 2753 634 
Q 3047 847 3047 1241 
Q 3047 1584 2836 1778 
Q 2625 1972 2144 2069 
L 1759 2144 
Q 1053 2284 737 2584 
Q 422 2884 422 3419 
Q 422 4038 858 4394 
Q 1294 4750 2059 4750 
Q 2388 4750 2728 4690 
Q 3069 4631 3425 4513 
z
" transform="scale(0.015625)"/>
        <path id="DejaVuSans-65" d="M 3597 1894 
L 3597 1613 
L 953 1613 
Q 991 1019 1311 708 
Q 1631 397 2203 397 
Q 2534 397 2845 478 
Q 3156 559 3463 722 
L 3463 178 
Q 3153 47 2828 -22 
Q 2503 -91 2169 -91 
Q 1331 -91 842 396 
Q 353 884 353 1716 
Q 353 2575 817 3079 
Q 1281 3584 2069 3584 
Q 2775 3584 3186 3129 
Q 3597 2675 3597 1894 
z
M 3022 2063 
Q 3016 2534 2758 2815 
Q 2500 3097 2075 3097 
Q 1594 3097 1305 2825 
Q 1016 2553 972 2059 
L 3022 2063 
z
" transform="scale(0.015625)"/>
        <path id="DejaVuSans-70" d="M 1159 525 
L 1159 -1331 
L 581 -1331 
L 581 3500 
L 1159 3500 
L 1159 2969 
Q 1341 3281 1617 3432 
Q 1894 3584 2278 3584 
Q 2916 3584 3314 3078 
Q 3713 2572 3713 1747 
Q 3713 922 3314 415 
Q 2916 -91 2278 -91 
Q 1894 -91 1617 61 
Q 1341 213 1159 525 
z
M 3116 1747 
Q 3116 2381 2855 2742 
Q 2594 3103 2138 3103 
Q 1681 3103 1420 2742 
Q 1159 2381 1159 1747 
Q 1159 1113 1420 752 
Q 1681 391 2138 391 
Q 2594 391 2855 752 
Q 3116 1113 3116 1747 
z
" transform="scale(0.015625)"/>
       </defs>
       <use xlink:href="#DejaVuSans-53"/>
       <use xlink:href="#DejaVuSans-65" x="63.476562"/>
       <use xlink:href="#DejaVuSans-70" x="125"/>
       <use xlink:href="#DejaVuSans-20" x="188.476562"/>
       <use xlink:href="#DejaVuSans-31" x="220.263672"/>
      </g>
     </g>
    </g>
    <g id="xtick_6">
     <g id="line2d_11">
      <path d="M 600.694625 476.12 
L 600.694625 26.88 
" clip-path="url(#peb17577aa1)" style="fill: none; stroke: #b0b0b0; stroke-width: 0.8; stroke-linecap: square"/>
     </g>
     <g id="line2d_12">
      <g>
       <use xlink:href="#m87ea64780b" x="600.694625" y="476.12" style="stroke: #000000; stroke-width: 0.8"/>
      </g>
     </g>
     <g id="text_6">
      <!-- Nov 1 -->
      <g transform="translate(586.164938 490.718437) scale(0.1 -0.1)">
       <defs>
        <path id="DejaVuSans-4e" d="M 628 4666 
L 1478 4666 
L 3547 763 
L 3547 4666 
L 4159 4666 
L 4159 0 
L 3309 0 
L 1241 3903 
L 1241 0 
L 628 0 
L 628 4666 
z
" transform="scale(0.015625)"/>
        <path id="DejaVuSans-6f" d="M 1959 3097 
Q 1497 3097 1228 2736 
Q 959 2375 959 1747 
Q 959 1119 1226 758 
Q 1494 397 1959 397 
Q 2419 397 2687 759 
Q 2956 1122 2956 1747 
Q 2956 2369 2687 2733 
Q 2419 3097 1959 3097 
z
M 1959 3584 
Q 2709 3584 3137 3096 
Q 3566 2609 3566 1747 
Q 3566 888 3137 398 
Q 2709 -91 1959 -91 
Q 1206 -91 779 398 
Q 353 888 353 1747 
Q 353 2609 779 3096 
Q 1206 3584 1959 3584 
z
" transform="scale(0.015625)"/>
        <path id="DejaVuSans-76" d="M 191 3500 
L 800 3500 
L 1894 563 
L 2988 3500 
L 3597 3500 
L 2284 0 
L 1503 0 
L 191 3500 
z
" transform="scale(0.015625)"/>
       </defs>
       <use xlink:href="#DejaVuSans-4e"/>
       <use xlink:href="#DejaVuSans-6f" x="74.804688"/>
       <use xlink:href="#DejaVuSans-76" x="135.986328"/>
       <use xlink:href="#DejaVuSans-20" x="195.166016"/>
       <use xlink:href="#DejaVuSans-31" x="226.953125"/>
      </g>
     </g>
    </g>
   </g>
   <g id="matplotlib.axis_2">
    <g id="ytick_1">
     <g id="line2d_13">
      <path d="M 82.46 455.7 
L 709.2 455.7 
" clip-path="url(#peb17577aa1)" style="fill: none; stroke: #b0b0b0; stroke-width: 0.8; stroke-linecap: square"/>
     </g>
     <g id="line2d_14">
      <defs>
       <path id="m49bcea1eb0" d="M 0 0 
L -3.5 0 
" style="stroke: #000000; stroke-width: 0.8"/>
      </defs>
      <g>
       <use xlink:href="#m49bcea1eb0" x="82.46" y="455.7" style="stroke: #000000; stroke-width: 0.8"/>
      </g>
     </g>
     <g id="text_7">
      <!-- 0 -->
      <g transform="translate(69.0975 459.499219) scale(0.1 -0.1)">
       <defs>
        <path id="DejaVuSans-30" d="M 2034 4250 
Q 1547 4250 1301 3770 
Q 1056 3291 1056 2328 
Q 1056 1369 1301 889 
Q 1547 409 2034 409 
Q 2525 409 2770 889 
Q 3016 1369 3016 2328 
Q 3016 3291 2770 3770 
Q 2525 4250 2034 4250 
z
M 2034 4750 
Q 2819 4750 3233 4129 
Q 3647 3509 3647 2328 
Q 3647 1150 3233 529 
Q 2819 -91 2034 -91 
Q 1250 -91 836 529 
Q 422 1150 422 2328 
Q 422 3509 836 4129 
Q 1250 4750 2034 4750 
z
" transform="scale(0.015625)"/>
       </defs>
       <use xlink:href="#DejaVuSans-30"/>
      </g>
     </g>
    </g>
    <g id="ytick_2">
     <g id="line2d_15">
      <path d="M 82.46 405.317505 
L 709.2 405.317505 
" clip-path="url(#peb17577aa1)" style="fill: none; stroke: #b0b0b0; stroke-width: 0.8; stroke-linecap: square"/>
     </g>
     <g id="line2d_16">
      <g>
       <use xlink:href="#m49bcea1eb0" x="82.46" y="405.317505" style="stroke: #000000; stroke-width: 0.8"/>
      </g>
     </g>
     <g id="text_8">
      <!-- 200,000 -->
      <g transform="translate(34.106875 409.116724) scale(0.1 -0.1)">
       <defs>
        <path id="DejaVuSans-32" d="M 1228 531 
L 3431 531 
L 3431 0 
L 469 0 
L 469 531 
Q 828 903 1448 1529 
Q 2069 2156 2228 2338 
Q 2531 2678 2651 2914 
Q 2772 3150 2772 3378 
Q 2772 3750 2511 3984 
Q 2250 4219 1831 4219 
Q 1534 4219 1204 4116 
Q 875 4013 500 3803 
L 500 4441 
Q 881 4594 1212 4672 
Q 1544 4750 1819 4750 
Q 2544 4750 2975 4387 
Q 3406 4025 3406 3419 
Q 3406 3131 3298 2873 
Q 3191 2616 2906 2266 
Q 2828 2175 2409 1742 
Q 1991 1309 1228 531 
z
" transform="scale(0.015625)"/>
        <path id="DejaVuSans-2c" d="M 750 794 
L 1409 794 
L 1409 256 
L 897 -744 
L 494 -744 
L 750 256 
L 750 794 
z
" transform="scale(0.015625)"/>
       </defs>
       <use xlink:href="#DejaVuSans-32"/>
       <use xlink:href="#DejaVuSans-30" x="63.623047"/>
       <use xlink:href="#DejaVuSans-30" x="127.246094"/>
       <use xlink:href="#DejaVuSans-2c" x="190.869141"/>
       <use xlink:href="#DejaVuSans-30" x="222.65625"/>
       <use xlink:href="#DejaVuSans-30" x="286.279297"/>
       <use xlink:href="#DejaVuSans-30" x="349.902344"/>
      </g>
     </g>
    </g>
    <g id="ytick_3">
     <g id="line2d_17">
      <path d="M 82.46 354.93501 
L 709.2 354.93501 
" clip-path="url(#peb17577aa1)" style="fill: none; stroke: #b0b0b0; stroke-width: 0.8; stroke-linecap: square"/>
     </g>
     <g id="line2d_18">
      <g>
       <use xlink:href="#m49bcea1eb0" x="82.46" y="354.93501" style="stroke: #000000; stroke-width: 0.8"/>
      </g>
     </g>
     <g id="text_9">
      <!-- 400,000 -->
      <g transform="translate(34.106875 358.734229) scale(0.1 -0.1)">
       <defs>
        <path id="DejaVuSans-34" d="M 2419 4116 
L 825 1625 
L 2419 1625 
L 2419 4116 
z
M 2253 4666 
L 3047 4666 
L 3047 1625 
L 3713 1625 
L 3713 1100 
L 3047 1100 
L 3047 0 
L 2419 0 
L 2419 1100 
L 313 1100 
L 313 1709 
L 2253 4666 
z
" transform="scale(0.015625)"/>
       </defs>
       <use xlink:href="#DejaVuSans-34"/>
       <use xlink:href="#DejaVuSans-30" x="63.623047"/>
       <use xlink:href="#DejaVuSans-30" x="127.246094"/>
       <use xlink:href="#DejaVuSans-2c" x="190.869141"/>
       <use xlink:href="#DejaVuSans-30" x="222.65625"/>
       <use xlink:href="#DejaVuSans-30" x="286.279297"/>
       <use xlink:href="#DejaVuSans-30" x="349.902344"/>
      </g>
     </g>
    </g>
    <g id="ytick_4">
     <g id="line2d_19">
      <path d="M 82.46 304.552515 
L 709.2 304.552515 
" clip-path="url(#peb17577aa1)" style="fill: none; stroke: #b0b0b0; stroke-width: 0.8; stroke-linecap: square"/>
     </g>
     <g id="line2d_20">
      <g>
       <use xlink:href="#m49bcea1eb0" x="82.46" y="304.552515" style="stroke: #000000; stroke-width: 0.8"/>
      </g>
     </g>
     <g id="text_10">
      <!-- 600,000 -->
      <g transform="translate(34.106875 308.351734) scale(0.1 -0.1)">
       <defs>
        <path id="DejaVuSans-36" d="M 2113 2584 
Q 1688 2584 1439 2293 
Q 1191 2003 1191 1497 
Q 1191 994 1439 701 
Q 1688 409 2113 409 
Q 2538 409 2786 701 
Q 3034 994 3034 1497 
Q 3034 2003 2786 2293 
Q 2538 2584 2113 2584 
z
M 3366 4563 
L 3366 3988 
Q 3128 4100 2886 4159 
Q 2644 4219 2406 4219 
Q 1781 4219 1451 3797 
Q 1122 3375 1075 2522 
Q 1259 2794 1537 2939 
Q 1816 3084 2150 3084 
Q 2853 3084 3261 2657 
Q 3669 2231 3669 1497 
Q 3669 778 3244 343 
Q 2819 -91 2113 -91 
Q 1303 -91 875 529 
Q 447 1150 447 2328 
Q 447 3434 972 4092 
Q 1497 4750 2381 4750 
Q 2619 4750 2861 4703 
Q 3103 4656 3366 4563 
z
" transform="scale(0.015625)"/>
       </defs>
       <use xlink:href="#DejaVuSans-36"/>
       <use xlink:href="#DejaVuSans-30" x="63.623047"/>
       <use xlink:href="#DejaVuSans-30" x="127.246094"/>
       <use xlink:href="#DejaVuSans-2c" x="190.869141"/>
       <use xlink:href="#DejaVuSans-30" x="222.65625"/>
       <use xlink:href="#DejaVuSans-30" x="286.279297"/>
       <use xlink:href="#DejaVuSans-30" x="349.902344"/>
      </g>
     </g>
    </g>
    <g id="ytick_5">
     <g id="line2d_21">
      <path d="M 82.46 254.17002 
L 709.2 254.17002 
" clip-path="url(#peb17577aa1)" style="fill: none; stroke: #b0b0b0; stroke-width: 0.8; stroke-linecap: square"/>
     </g>
     <g id="line2d_22">
      <g>
       <use xlink:href="#m49bcea1eb0" x="82.46" y="254.17002" style="stroke: #000000; stroke-width: 0.8"/>
      </g>
     </g>
     <g id="text_11">
      <!-- 800,000 -->
      <g transform="translate(34.106875 257.969239) scale(0.1 -0.1)">
       <defs>
        <path id="DejaVuSans-38" d="M 2034 2216 
Q 1584 2216 1326 1975 
Q 1069 1734 1069 1313 
Q 1069 891 1326 650 
Q 1584 409 2034 409 
Q 2484 409 2743 651 
Q 3003 894 3003 1313 
Q 3003 1734 2745 1975 
Q 2488 2216 2034 2216 
z
M 1403 2484 
Q 997 2584 770 2862 
Q 544 3141 544 3541 
Q 544 4100 942 4425 
Q 1341 4750 2034 4750 
Q 2731 4750 3128 4425 
Q 3525 4100 3525 3541 
Q 3525 3141 3298 2862 
Q 3072 2584 2669 2484 
Q 3125 2378 3379 2068 
Q 3634 1759 3634 1313 
Q 3634 634 3220 271 
Q 2806 -91 2034 -91 
Q 1263 -91 848 271 
Q 434 634 434 1313 
Q 434 1759 690 2068 
Q 947 2378 1403 2484 
z
M 1172 3481 
Q 1172 3119 1398 2916 
Q 1625 2713 2034 2713 
Q 2441 2713 2670 2916 
Q 2900 3119 2900 3481 
Q 2900 3844 2670 4047 
Q 2441 4250 2034 4250 
Q 1625 4250 1398 4047 
Q 1172 3844 1172 3481 
z
" transform="scale(0.015625)"/>
       </defs>
       <use xlink:href="#DejaVuSans-38"/>
       <use xlink:href="#DejaVuSans-30" x="63.623047"/>
       <use xlink:href="#DejaVuSans-30" x="127.246094"/>
       <use xlink:href="#DejaVuSans-2c" x="190.869141"/>
       <use xlink:href="#DejaVuSans-30" x="222.65625"/>
       <use xlink:href="#DejaVuSans-30" x="286.279297"/>
       <use xlink:href="#DejaVuSans-30" x="349.902344"/>
      </g>
     </g>
    </g>
    <g id="ytick_6">
     <g id="line2d_23">
      <path d="M 82.46 203.787525 
L 709.2 203.787525 
" clip-path="url(#peb17577aa1)" style="fill: none; stroke: #b0b0b0; stroke-width: 0.8; stroke-linecap: square"/>
     </g>
     <g id="line2d_24">
      <g>
       <use xlink:href="#m49bcea1eb0" x="82.46" y="203.787525" style="stroke: #000000; stroke-width: 0.8"/>
      </g>
     </g>
     <g id="text_12">
      <!-- 1,000,000 -->
      <g transform="translate(24.56625 207.586744) scale(0.1 -0.1)">
       <use xlink:href="#DejaVuSans-31"/>
       <use xlink:href="#DejaVuSans-2c" x="63.623047"/>
       <use xlink:href="#DejaVuSans-30" x="95.410156"/>
       <use xlink:href="#DejaVuSans-30" x="159.033203"/>
       <use xlink:href="#DejaVuSans-30" x="222.65625"/>
       <use xlink:href="#DejaVuSans-2c" x="286.279297"/>
       <use xlink:href="#DejaVuSans-30" x="318.066406"/>
       <use xlink:href="#DejaVuSans-30" x="381.689453"/>
       <use xlink:href="#DejaVuSans-30" x="445.3125"/>
      </g>
     </g>
    </g>
    <g id="ytick_7">
     <g id="line2d_25">
      <path d="M 82.46 153.40503 
L 709.2 153.40503 
" clip-path="url(#peb17577aa1)" style="fill: none; stroke: #b0b0b0; stroke-width: 0.8; stroke-linecap: square"/>
     </g>
     <g id="line2d_26">
      <g>
       <use xlink:href="#m49bcea1eb0" x="82.46" y="153.40503" style="stroke: #000000; stroke-width: 0.8"/>
      </g>
     </g>
     <g id="text_13">
      <!-- 1,200,000 -->
      <g transform="translate(24.56625 157.204249) scale(0.1 -0.1)">
       <use xlink:href="#DejaVuSans-31"/>
       <use xlink:href="#DejaVuSans-2c" x="63.623047"/>
       <use xlink:href="#DejaVuSans-32" x="95.410156"/>
       <use xlink:href="#DejaVuSans-30" x="159.033203"/>
       <use xlink:href="#DejaVuSans-30" x="222.65625"/>
       <use xlink:href="#DejaVuSans-2c" x="286.279297"/>
       <use xlink:href="#DejaVuSans-30" x="318.066406"/>
       <use xlink:href="#DejaVuSans-30" x="381.689453"/>
       <use xlink:href="#DejaVuSans-30" x="445.3125"/>
      </g>
     </g>
    </g>
    <g id="ytick_8">
     <g id="line2d_27">
      <path d="M 82.46 103.022536 
L 709.2 103.022536 
" clip-path="url(#peb17577aa1)" style="fill: none; stroke: #b0b0b0; stroke-width: 0.8; stroke-linecap: square"/>
     </g>
     <g id="line2d_28">
      <g>
       <use xlink:href="#m49bcea1eb0" x="82.46" y="103.022536" style="stroke: #000000; stroke-width: 0.8"/>
      </g>
     </g>
     <g id="text_14">
      <!-- 1,400,000 -->
      <g transform="translate(24.56625 106.821754) scale(0.1 -0.1)">
       <use xlink:href="#DejaVuSans-31"/>
       <use xlink:href="#DejaVuSans-2c" x="63.623047"/>
       <use xlink:href="#DejaVuSans-34" x="95.410156"/>
       <use xlink:href="#DejaVuSans-30" x="159.033203"/>
       <use xlink:href="#DejaVuSans-30" x="222.65625"/>
       <use xlink:href="#DejaVuSans-2c" x="286.279297"/>
       <use xlink:href="#DejaVuSans-30" x="318.066406"/>
       <use xlink:href="#DejaVuSans-30" x="381.689453"/>
       <use xlink:href="#DejaVuSans-30" x="445.3125"/>
      </g>
     </g>
    </g>
    <g id="ytick_9">
     <g id="line2d_29">
      <path d="M 82.46 52.640041 
L 709.2 52.640041 
" clip-path="url(#peb17577aa1)" style="fill: none; stroke: #b0b0b0; stroke-width: 0.8; stroke-linecap: square"/>
     </g>
     <g id="line2d_30">
      <g>
       <use xlink:href="#m49bcea1eb0" x="82.46" y="52.640041" style="stroke: #000000; stroke-width: 0.8"/>
      </g>
     </g>
     <g id="text_15">
      <!-- 1,600,000 -->
      <g transform="translate(24.56625 56.439259) scale(0.1 -0.1)">
       <use xlink:href="#DejaVuSans-31"/>
       <use xlink:href="#DejaVuSans-2c" x="63.623047"/>
       <use xlink:href="#DejaVuSans-36" x="95.410156"/>
       <use xlink:href="#DejaVuSans-30" x="159.033203"/>
       <use xlink:href="#DejaVuSans-30" x="222.65625"/>
       <use xlink:href="#DejaVuSans-2c" x="286.279297"/>
       <use xlink:href="#DejaVuSans-30" x="318.066406"/>
       <use xlink:href="#DejaVuSans-30" x="381.689453"/>
       <use xlink:href="#DejaVuSans-30" x="445.3125"/>
      </g>
     </g>
    </g>
    <g id="text_16">
     <!-- Cumulative Payload Mass (kg) -->
     <g transform="translate(18.486562 326.863281) rotate(-90) scale(0.1 -0.1)">
      <defs>
       <path id="DejaVuSans-43" d="M 4122 4306 
L 4122 3641 
Q 3803 3938 3442 4084 
Q 3081 4231 2675 4231 
Q 1875 4231 1450 3742 
Q 1025 3253 1025 2328 
Q 1025 1406 1450 917 
Q 1875 428 2675 428 
Q 3081 428 3442 575 
Q 3803 722 4122 1019 
L 4122 359 
Q 3791 134 3420 21 
Q 3050 -91 2638 -91 
Q 1578 -91 968 557 
Q 359 1206 359 2328 
Q 359 3453 968 4101 
Q 1578 4750 2638 4750 
Q 3056 4750 3426 4639 
Q 3797 4528 4122 4306 
z
" transform="scale(0.015625)"/>
       <path id="DejaVuSans-6d" d="M 3328 2828 
Q 3544 3216 3844 3400 
Q 4144 3584 4550 3584 
Q 5097 3584 5394 3201 
Q 5691 2819 5691 2113 
L 5691 0 
L 5113 0 
L 5113 2094 
Q 5113 2597 4934 2840 
Q 4756 3084 4391 3084 
Q 3944 3084 3684 2787 
Q 3425 2491 3425 1978 
L 3425 0 
L 2847 0 
L 2847 2094 
Q 2847 2600 2669 2842 
Q 2491 3084 2119 3084 
Q 1678 3084 1418 2786 
Q 1159 2488 1159 1978 
L 1159 0 
L 581 0 
L 581 3500 
L 1159 3500 
L 1159 2956 
Q 1356 3278 1631 3431 
Q 1906 3584 2284 3584 
Q 2666 3584 2933 3390 
Q 3200 3197 3328 2828 
z
" transform="scale(0.015625)"/>
       <path id="DejaVuSans-74" d="M 1172 4494 
L 1172 3500 
L 2356 3500 
L 2356 3053 
L 1172 3053 
L 1172 1153 
Q 1172 725 1289 603 
Q 1406 481 1766 481 
L 2356 481 
L 2356 0 
L 1766 0 
Q 1100 0 847 248 
Q 594 497 594 1153 
L 594 3053 
L 172 3053 
L 172 3500 
L 594 3500 
L 594 4494 
L 1172 4494 
z
" transform="scale(0.015625)"/>
       <path id="DejaVuSans-69" d="M 603 3500 
L 1178 3500 
L 1178 0 
L 603 0 
L 603 3500 
z
M 603 4863 
L 1178 4863 
L 1178 4134 
L 603 4134 
L 603 4863 
z
" transform="scale(0.015625)"/>
       <path id="DejaVuSans-50" d="M 1259 4147 
L 1259 2394 
L 2053 2394 
Q 2494 2394 2734 2622 
Q 2975 2850 2975 3272 
Q 2975 3691 2734 3919 
Q 2494 4147 2053 4147 
L 1259 4147 
z
M 628 4666 
L 2053 4666 
Q 2838 4666 3239 4311 
Q 3641 3956 3641 3272 
Q 3641 2581 3239 2228 
Q 2838 1875 2053 1875 
L 1259 1875 
L 1259 0 
L 628 0 
L 628 4666 
z
" transform="scale(0.015625)"/>
       <path id="DejaVuSans-64" d="M 2906 2969 
L 2906 4863 
L 3481 4863 
L 3481 0 
L 2906 0 
L 2906 525 
Q 2725 213 2448 61 
Q 2172 -91 1784 -91 
Q 1150 -91 751 415 
Q 353 922 353 1747 
Q 353 2572 751 3078 
Q 1150 3584 1784 3584 
Q 2172 3584 2448 3432 
Q 2725 3281 2906 2969 
z
M 947 1747 
Q 947 1113 1208 752 
Q 1469 391 1925 391 
Q 2381 391 2643 752 
Q 2906 1113 2906 1747 
Q 2906 2381 2643 2742 
Q 2381 3103 1925 3103 
Q 1469 3103 1208 2742 
Q 947 2381 947 1747 
z
" transform="scale(0.015625)"/>
       <path id="DejaVuSans-73" d="M 2834 3397 
L 2834 2853 
Q 2591 2978 2328 3040 
Q 2066 3103 1784 3103 
Q 1356 3103 1142 2972 
Q 928 2841 928 2578 
Q 928 2378 1081 2264 
Q 1234 2150 1697 2047 
L 1894 2003 
Q 2506 1872 2764 1633 
Q 3022 1394 3022 966 
Q 3022 478 2636 193 
Q 2250 -91 1575 -91 
Q 1294 -91 989 -36 
Q 684 19 347 128 
L 347 722 
Q 666 556 975 473 
Q 1284 391 1588 391 
Q 1994 391 2212 530 
Q 2431 669 2431 922 
Q 2431 1156 2273 1281 
Q 2116 1406 1581 1522 
L 1381 1569 
Q 847 1681 609 1914 
Q 372 2147 372 2553 
Q 372 3047 722 3315 
Q 1072 3584 1716 3584 
Q 2034 3584 2315 3537 
Q 2597 3491 2834 3397 
z
" transform="scale(0.015625)"/>
       <path id="DejaVuSans-28" d="M 1984 4856 
Q 1566 4138 1362 3434 
Q 1159 2731 1159 2009 
Q 1159 1288 1364 580 
Q 1569 -128 1984 -844 
L 1484 -844 
Q 1016 -109 783 600 
Q 550 1309 550 2009 
Q 550 2706 781 3412 
Q 1013 4119 1484 4856 
L 1984 4856 
z
" transform="scale(0.015625)"/>
       <path id="DejaVuSans-6b" d="M 581 4863 
L 1159 4863 
L 1159 1991 
L 2875 3500 
L 3609 3500 
L 1753 1863 
L 3688 0 
L 2938 0 
L 1159 1709 
L 1159 0 
L 581 0 
L 581 4863 
z
" transform="scale(0.015625)"/>
       <path id="DejaVuSans-67" d="M 2906 1791 
Q 2906 2416 2648 2759 
Q 2391 3103 1925 3103 
Q 1463 3103 1205 2759 
Q 947 2416 947 1791 
Q 947 1169 1205 825 
Q 1463 481 1925 481 
Q 2391 481 2648 825 
Q 2906 1169 2906 1791 
z
M 3481 434 
Q 3481 -459 3084 -895 
Q 2688 -1331 1869 -1331 
Q 1566 -1331 1297 -1286 
Q 1028 -1241 775 -1147 
L 775 -588 
Q 1028 -725 1275 -790 
Q 1522 -856 1778 -856 
Q 2344 -856 2625 -561 
Q 2906 -266 2906 331 
L 2906 616 
Q 2728 306 2450 153 
Q 2172 0 1784 0 
Q 1141 0 747 490 
Q 353 981 353 1791 
Q 353 2603 747 3093 
Q 1141 3584 1784 3584 
Q 2172 3584 2450 3431 
Q 2728 3278 2906 2969 
L 2906 3500 
L 3481 3500 
L 3481 434 
z
" transform="scale(0.015625)"/>
       <path id="DejaVuSans-29" d="M 513 4856 
L 1013 4856 
Q 1481 4119 1714 3412 
Q 1947 2706 1947 2009 
Q 1947 1309 1714 600 
Q 1481 -109 1013 -844 
L 513 -844 
Q 928 -128 1133 580 
Q 1338 1288 1338 2009 
Q 1338 2731 1133 3434 
Q 928 4138 513 4856 
z
" transform="scale(0.015625)"/>
      </defs>
      <use xlink:href="#DejaVuSans-43"/>
      <use xlink:href="#DejaVuSans-75" x="69.824219"/>
      <use xlink:href="#DejaVuSans-6d" x="133.203125"/>
      <use xlink:href="#DejaVuSans-75" x="230.615234"/>
      <use xlink:href="#DejaVuSans-6c" x="293.994141"/>
      <use xlink:href="#DejaVuSans-61" x="321.777344"/>
      <use xlink:href="#DejaVuSans-74" x="383.056641"/>
      <use xlink:href="#DejaVuSans-69" x="422.265625"/>
      <use xlink:href="#DejaVuSans-76" x="450.048828"/>
      <use xlink:href="#DejaVuSans-65" x="509.228516"/>
      <use xlink:href="#DejaVuSans-20" x="570.751953"/>
      <use xlink:href="#DejaVuSans-50" x="602.539062"/>
      <use xlink:href="#DejaVuSans-61" x="658.341797"/>
      <use xlink:href="#DejaVuSans-79" x="719.621094"/>
      <use xlink:href="#DejaVuSans-6c" x="778.800781"/>
      <use xlink:href="#DejaVuSans-6f" x="806.583984"/>
      <use xlink:href="#DejaVuSans-61" x="867.765625"/>
      <use xlink:href="#DejaVuSans-64" x="929.044922"/>
      <use xlink:href="#DejaVuSans-20" x="992.521484"/>
      <use xlink:href="#DejaVuSans-4d" x="1024.308594"/>
      <use xlink:href="#DejaVuSans-61" x="1110.587891"/>
      <use xlink:href="#DejaVuSans-73" x="1171.867188"/>
      <use xlink:href="#DejaVuSans-73" x="1223.966797"/>
      <use xlink:href="#DejaVuSans-20" x="1276.066406"/>
      <use xlink:href="#DejaVuSans-28" x="1307.853516"/>
      <use xlink:href="#DejaVuSans-6b" x="1346.867188"/>
      <use xlink:href="#DejaVuSans-67" x="1404.777344"/>
      <use xlink:href="#DejaVuSans-29" x="1468.253906"/>
     </g>
    </g>
   </g>
   <g id="line2d_31">
    <path d="M 106.752248 455.7 
L 127.80553 455.7 
L 127.80553 453.28164 
L 186.106925 453.28164 
L 186.106925 452.654378 
L 226.594005 452.654378 
L 226.594005 451.243668 
L 249.26677 451.243668 
L 249.26677 449.908532 
L 301.090233 449.908532 
L 301.090233 449.908532 
L 323.762997 449.908532 
L 323.762997 448.379423 
L 354.533178 448.379423 
L 354.533178 447.697245 
L 386.922842 447.697245 
L 386.922842 446.772978 
L 390.161809 446.772978 
L 390.161809 444.354618 
L 406.356641 444.354618 
L 406.356641 442.651438 
L 471.135969 442.651438 
L 471.135969 441.817607 
L 487.330801 441.817607 
L 487.330801 441.697949 
L 510.003566 441.697949 
L 510.003566 440.440906 
L 561.827028 440.440906 
L 561.827028 438.022546 
L 565.065995 438.022546 
L 565.065995 436.662219 
L 595.836176 436.662219 
L 595.836176 435.780525 
L 670.332403 435.780525 
L 670.332403 435.225058 
L 683.288269 435.225058 
L 683.288269 432.806698 
L 696.244134 432.806698 
L 696.244134 432.806698 
" clip-path="url(#peb17577aa1)" style="fill: none; stroke: #90ee90; stroke-width: 1.5; stroke-linecap: square"/>
   </g>
   <g id="line2d_32">
    <path d="M 106.752248 455.7 
L 118.08863 455.7 
L 118.08863 455.7 
L 155.336744 455.7 
L 155.336744 454.63441 
L 165.053643 454.63441 
L 165.053643 454.31952 
L 190.965375 454.31952 
L 190.965375 453.777908 
L 210.399173 453.777908 
L 210.399173 452.243257 
L 249.26677 452.243257 
L 249.26677 449.824897 
L 254.12522 449.824897 
L 254.12522 449.158085 
L 280.036951 449.158085 
L 280.036951 449.066893 
L 317.285065 449.066893 
L 317.285065 448.160008 
L 335.09938 448.160008 
L 335.09938 446.532653 
L 356.152661 446.532653 
L 356.152661 445.176356 
L 396.639742 445.176356 
L 396.639742 444.496948 
L 433.887855 444.496948 
L 433.887855 442.714668 
L 438.746305 442.714668 
L 438.746305 440.296308 
L 459.799587 440.296308 
L 459.799587 438.835216 
L 514.862016 438.835216 
L 514.862016 437.056713 
L 560.207545 437.056713 
L 560.207545 436.300976 
L 621.747907 436.300976 
L 621.747907 434.96584 
L 650.898605 434.96584 
L 650.898605 433.95819 
L 654.137571 433.95819 
L 654.137571 433.328409 
L 683.288269 433.328409 
L 683.288269 432.219994 
L 696.244134 432.219994 
L 696.244134 432.219994 
" clip-path="url(#peb17577aa1)" style="fill: none; stroke: #add8e6; stroke-width: 1.5; stroke-linecap: square"/>
   </g>
   <g id="line2d_33">
    <path d="M 106.752248 455.7 
L 122.94708 455.7 
L 122.94708 453.28164 
L 190.965375 453.28164 
L 190.965375 452.059865 
L 203.92124 452.059865 
L 203.92124 449.02306 
L 268.700568 449.02306 
L 268.700568 447.394446 
L 305.948682 447.394446 
L 305.948682 446.765924 
L 338.338346 446.765924 
L 338.338346 443.334876 
L 369.108527 443.334876 
L 369.108527 442.276844 
L 390.161809 442.276844 
L 390.161809 441.344768 
L 438.746305 441.344768 
L 438.746305 440.77343 
L 458.180103 440.77343 
L 458.180103 439.135999 
L 615.269974 439.135999 
L 615.269974 435.206164 
L 654.137571 435.206164 
L 654.137571 434.54691 
L 673.57137 434.54691 
L 673.57137 432.794606 
L 696.244134 432.794606 
L 696.244134 432.794606 
" clip-path="url(#peb17577aa1)" style="fill: none; stroke: #ffc0cb; stroke-width: 1.5; stroke-linecap: square"/>
   </g>
   <g id="line2d_34">
    <path d="M 106.752248 455.7 
L 116.469147 455.7 
L 116.469147 451.770165 
L 135.902946 451.770165 
L 135.902946 448.73462 
L 152.097778 448.73462 
L 152.097778 444.804785 
L 182.867959 444.804785 
L 182.867959 440.874951 
L 213.63814 440.874951 
L 213.63814 440.37692 
L 231.452455 440.37692 
L 231.452455 436.447085 
L 288.134367 436.447085 
L 288.134367 432.517251 
L 349.674729 432.517251 
L 349.674729 429.360787 
L 357.772145 429.360787 
L 357.772145 425.430953 
L 372.347494 425.430953 
L 372.347494 421.548982 
L 399.878708 421.548982 
L 399.878708 420.462987 
L 432.268372 420.462987 
L 432.268372 419.077468 
L 461.41907 419.077468 
L 461.41907 415.315911 
L 479.233385 415.315911 
L 479.233385 411.426383 
L 498.667183 411.426383 
L 498.667183 410.637897 
L 505.145116 410.637897 
L 505.145116 406.708062 
L 558.588062 406.708062 
L 558.588062 402.778227 
L 578.02186 402.778227 
L 578.02186 398.848393 
L 587.73876 398.848393 
L 587.73876 394.918558 
L 607.172558 394.918558 
L 607.172558 393.832563 
L 624.986873 393.832563 
L 624.986873 390.683658 
L 633.084289 390.683658 
L 633.084289 390.383378 
L 639.562222 390.383378 
L 639.562222 386.453543 
L 657.376537 386.453543 
L 657.376537 385.704859 
L 668.71292 385.704859 
L 668.71292 383.941472 
L 678.429819 383.941472 
L 678.429819 383.941472 
L 697.863618 383.941472 
L 697.863618 383.941472 
" clip-path="url(#peb17577aa1)" style="fill: none; stroke: #800080; stroke-width: 1.5; stroke-linecap: square"/>
   </g>
   <g id="line2d_35">
    <path d="M 106.752248 455.7 
L 118.08863 455.7 
L 118.08863 454.818306 
L 137.522429 454.818306 
L 137.522429 450.888472 
L 144.000362 450.888472 
L 144.000362 449.628909 
L 161.814677 449.628909 
L 161.814677 445.699075 
L 181.248475 445.699075 
L 181.248475 441.76924 
L 207.160207 441.76924 
L 207.160207 437.839406 
L 218.496589 437.839406 
L 218.496589 433.909571 
L 223.355039 433.909571 
L 223.355039 429.979736 
L 239.549871 429.979736 
L 239.549871 426.049902 
L 262.222636 426.049902 
L 262.222636 422.120067 
L 288.134367 422.120067 
L 288.134367 418.845205 
L 297.851266 418.845205 
L 297.851266 414.91537 
L 305.948682 414.91537 
L 305.948682 410.985536 
L 314.046098 410.985536 
L 314.046098 407.055701 
L 323.762997 407.055701 
L 323.762997 403.166173 
L 341.577313 403.166173 
L 341.577313 399.236338 
L 354.533178 399.236338 
L 354.533178 398.397973 
L 359.391628 398.397973 
L 359.391628 396.634586 
L 377.205943 396.634586 
L 377.205943 395.543553 
L 398.259225 395.543553 
L 398.259225 395.543553 
L 495.428217 395.543553 
L 495.428217 394.989346 
L 521.339948 394.989346 
L 521.339948 391.648986 
L 524.578915 391.648986 
L 524.578915 388.495294 
L 615.269974 388.495294 
L 615.269974 385.220432 
L 618.508941 385.220432 
L 618.508941 381.28178 
L 636.323256 381.28178 
L 636.323256 381.124587 
L 649.279121 381.124587 
L 649.279121 377.471856 
L 660.615504 377.471856 
L 660.615504 377.389984 
L 675.190853 377.389984 
L 675.190853 373.46015 
L 676.810336 373.46015 
L 676.810336 372.326544 
L 680.049302 372.326544 
L 680.049302 371.573577 
L 696.244134 371.573577 
L 696.244134 371.573577 
" clip-path="url(#peb17577aa1)" style="fill: none; stroke: #ffa500; stroke-width: 1.5; stroke-linecap: square"/>
   </g>
   <g id="line2d_36">
    <path d="M 106.752248 455.7 
L 114.849664 455.7 
L 114.849664 452.047269 
L 126.186047 452.047269 
L 126.186047 452.047269 
L 135.902946 452.047269 
L 135.902946 448.394538 
L 155.336744 448.394538 
L 155.336744 447.839071 
L 158.575711 447.839071 
L 158.575711 447.839071 
L 160.195194 447.839071 
L 160.195194 444.18634 
L 189.345891 444.18634 
L 189.345891 440.760331 
L 195.823824 440.760331 
L 195.823824 437.044622 
L 205.540724 437.044622 
L 205.540724 433.543038 
L 215.257623 433.543038 
L 215.257623 429.975958 
L 231.452455 429.975958 
L 231.452455 425.88238 
L 252.505736 425.88238 
L 252.505736 425.88238 
L 263.842119 425.88238 
L 263.842119 422.607518 
L 278.417468 422.607518 
L 278.417468 422.607518 
L 284.895401 422.607518 
L 284.895401 418.51394 
L 294.6123 418.51394 
L 294.6123 415.239078 
L 297.851266 415.239078 
L 297.851266 411.1455 
L 309.187649 411.1455 
L 309.187649 407.051922 
L 320.524031 407.051922 
L 320.524031 402.958345 
L 322.143514 402.958345 
L 322.143514 398.864767 
L 328.621447 398.864767 
L 328.621447 394.771189 
L 339.957829 394.771189 
L 339.957829 394.771189 
L 362.630594 394.771189 
L 362.630594 393.738348 
L 377.205943 393.738348 
L 377.205943 389.64477 
L 378.825426 389.64477 
L 378.825426 388.637121 
L 380.44491 388.637121 
L 380.44491 388.460782 
L 396.639742 388.460782 
L 396.639742 387.579088 
L 409.595607 387.579088 
L 409.595607 383.48551 
L 416.07354 383.48551 
L 416.07354 379.933545 
L 422.551473 379.933545 
L 422.551473 379.261442 
L 425.790439 379.261442 
L 425.790439 375.167864 
L 433.887855 375.167864 
L 433.887855 371.615898 
L 437.126822 371.615898 
L 437.126822 367.522321 
L 454.941137 367.522321 
L 454.941137 367.351272 
L 464.658036 367.351272 
L 464.658036 363.320673 
L 467.897003 363.320673 
L 467.897003 359.768707 
L 479.233385 359.768707 
L 479.233385 355.675129 
L 493.808734 355.675129 
L 493.808734 351.468191 
L 498.667183 351.468191 
L 498.667183 347.891034 
L 506.764599 347.891034 
L 506.764599 343.860434 
L 516.481499 343.860434 
L 516.481499 340.853103 
L 529.437364 340.853103 
L 529.437364 336.646165 
L 537.53478 336.646165 
L 537.53478 332.590374 
L 555.349096 332.590374 
L 555.349096 329.315511 
L 555.349096 329.315511 
L 555.349096 325.259721 
L 560.207545 325.259721 
L 560.207545 323.408164 
L 571.543928 323.408164 
L 571.543928 322.274558 
L 579.641344 322.274558 
L 579.641344 318.06762 
L 592.597209 318.06762 
L 592.597209 313.936255 
L 599.075142 313.936255 
L 599.075142 312.991583 
L 602.314109 312.991583 
L 602.314109 311.857977 
L 616.889457 311.857977 
L 616.889457 310.195355 
L 634.703773 310.195355 
L 634.703773 308.809836 
L 639.562222 308.809836 
L 639.562222 307.921089 
L 658.996021 307.921089 
L 658.996021 306.409614 
L 663.85447 306.409614 
L 663.85447 306.157702 
L 671.951886 306.157702 
L 671.951886 305.603494 
L 671.951886 305.603494 
L 671.951886 304.570653 
L 673.57137 304.570653 
L 673.57137 300.363715 
L 691.385685 300.363715 
L 691.385685 296.156776 
L 694.624651 296.156776 
L 694.624651 296.056011 
L 696.244134 296.056011 
L 696.244134 296.056011 
" clip-path="url(#peb17577aa1)" style="fill: none; stroke: #0000ff; stroke-width: 1.5; stroke-linecap: square"/>
   </g>
   <g id="line2d_37">
    <path d="M 106.752248 455.7 
L 121.327597 455.7 
L 121.327597 454.188525 
L 129.425013 454.188525 
L 129.425013 453.243853 
L 134.283463 453.243853 
L 134.283463 452.14753 
L 135.902946 452.14753 
L 135.902946 448.368843 
L 147.239328 448.368843 
L 147.239328 443.985566 
L 155.336744 443.985566 
L 155.336744 440.156496 
L 158.575711 440.156496 
L 158.575711 435.999941 
L 166.673127 435.999941 
L 166.673127 434.955512 
L 174.770543 434.955512 
L 174.770543 430.647808 
L 182.867959 430.647808 
L 182.867959 426.6424 
L 184.487442 426.6424 
L 184.487442 425.264439 
L 199.062791 425.264439 
L 199.062791 421.410178 
L 203.92124 421.410178 
L 203.92124 418.135316 
L 205.540724 418.135316 
L 205.540724 414.129907 
L 215.257623 414.129907 
L 215.257623 412.618432 
L 224.974522 412.618432 
L 224.974522 411.899978 
L 228.213488 411.899978 
L 228.213488 406.055609 
L 239.549871 406.055609 
L 239.549871 401.672332 
L 247.647287 401.672332 
L 247.647287 397.289055 
L 262.222636 397.289055 
L 262.222636 395.881368 
L 281.656434 395.881368 
L 281.656434 392.027107 
L 294.6123 392.027107 
L 294.6123 388.475141 
L 296.231783 388.475141 
L 296.231783 387.4423 
L 301.090233 387.4423 
L 301.090233 385.83006 
L 305.948682 385.83006 
L 305.948682 381.446783 
L 315.665581 381.446783 
L 315.665581 377.441374 
L 322.143514 377.441374 
L 322.143514 373.058097 
L 330.24093 373.058097 
L 330.24093 369.002307 
L 331.860413 369.002307 
L 331.860413 367.339684 
L 333.479897 367.339684 
L 333.479897 364.064822 
L 343.196796 364.064822 
L 343.196796 362.931216 
L 349.674729 362.931216 
L 349.674729 358.799851 
L 356.152661 358.799851 
L 356.152661 354.744061 
L 357.772145 354.744061 
L 357.772145 353.911742 
L 369.108527 353.911742 
L 369.108527 349.780377 
L 369.108527 349.780377 
L 378.825426 349.780377 
L 378.825426 348.626618 
L 385.303359 348.626618 
L 385.303359 344.973887 
L 386.922842 344.973887 
L 386.922842 340.59061 
L 399.878708 340.59061 
L 399.878708 340.046479 
L 409.595607 340.046479 
L 409.595607 336.292983 
L 414.454057 336.292983 
L 414.454057 332.237192 
L 424.170956 332.237192 
L 424.170956 328.030254 
L 430.648889 328.030254 
L 430.648889 325.007304 
L 437.126822 325.007304 
L 437.126822 320.951514 
L 443.604755 320.951514 
L 443.604755 316.895723 
L 445.224238 316.895723 
L 445.224238 314.578128 
L 453.321654 314.578128 
L 453.321654 313.302695 
L 459.799587 313.302695 
L 459.799587 309.246904 
L 461.41907 309.246904 
L 461.41907 306.223955 
L 466.277519 306.223955 
L 466.277519 302.168164 
L 475.994419 302.168164 
L 475.994419 298.112373 
L 484.091835 298.112373 
L 484.091835 294.258112 
L 490.569767 294.258112 
L 490.569767 290.98325 
L 492.189251 290.98325 
L 492.189251 286.927459 
L 500.286667 286.927459 
L 500.286667 282.871668 
L 505.145116 282.871668 
L 505.145116 279.017407 
L 513.242532 279.017407 
L 513.242532 274.961616 
L 518.100982 274.961616 
L 518.100982 271.107356 
L 524.578915 271.107356 
L 524.578915 267.051565 
L 531.056848 267.051565 
L 531.056848 262.995774 
L 537.53478 262.995774 
L 537.53478 258.939983 
L 539.154264 258.939983 
L 539.154264 255.085722 
L 547.25168 255.085722 
L 547.25168 251.029931 
L 555.349096 251.029931 
L 555.349096 246.97414 
L 561.827028 246.97414 
L 561.827028 243.11988 
L 568.304961 243.11988 
L 568.304961 238.407101 
L 576.402377 238.407101 
L 576.402377 234.35131 
L 581.260827 234.35131 
L 581.260827 230.497049 
L 582.88031 230.497049 
L 582.88031 226.26492 
L 594.216693 226.26492 
L 594.216693 222.209129 
L 595.836176 222.209129 
L 595.836176 217.976999 
L 603.933592 217.976999 
L 603.933592 213.74487 
L 610.411525 213.74487 
L 610.411525 209.51274 
L 613.650491 209.51274 
L 613.650491 207.113274 
L 616.889457 207.113274 
L 616.889457 206.080433 
L 626.606357 206.080433 
L 626.606357 201.848303 
L 629.845323 201.848303 
L 629.845323 197.792512 
L 633.084289 197.792512 
L 633.084289 193.560383 
L 642.801189 193.560383 
L 642.801189 189.328253 
L 647.659638 189.328253 
L 647.659638 189.126723 
L 650.898605 189.126723 
L 650.898605 184.894594 
L 657.376537 184.894594 
L 657.376537 180.662464 
L 658.996021 180.662464 
L 658.996021 176.606673 
L 676.810336 176.606673 
L 676.810336 172.374544 
L 683.288269 172.374544 
L 683.288269 168.142414 
L 684.907752 168.142414 
L 684.907752 167.235529 
L 693.005168 167.235529 
L 693.005168 161.403755 
L 696.244134 161.403755 
L 696.244134 161.403755 
" clip-path="url(#peb17577aa1)" style="fill: none; stroke: #008000; stroke-width: 1.5; stroke-linecap: square"/>
   </g>
   <g id="line2d_38">
    <path d="M 106.752248 455.7 
L 109.991214 455.7 
L 109.991214 451.014428 
L 116.469147 451.014428 
L 116.469147 446.706725 
L 127.80553 446.706725 
L 127.80553 442.499786 
L 129.425013 442.499786 
L 129.425013 438.192083 
L 134.283463 438.192083 
L 134.283463 434.917221 
L 144.000362 434.917221 
L 144.000362 430.710283 
L 152.097778 430.710283 
L 152.097778 422.195641 
L 153.717261 422.195641 
L 153.717261 421.257015 
L 168.29261 421.257015 
L 168.29261 420.830275 
L 171.531576 420.830275 
L 171.531576 416.623337 
L 179.628992 416.623337 
L 179.628992 411.929956 
L 187.726408 411.929956 
L 187.726408 410.922306 
L 192.584858 410.922306 
L 192.584858 406.715367 
L 195.823824 406.715367 
L 195.823824 402.306899 
L 202.301757 402.306899 
L 202.301757 397.999196 
L 208.77969 397.999196 
L 208.77969 390.41663 
L 218.496589 390.41663 
L 218.496589 386.108927 
L 220.116072 386.108927 
L 220.116072 381.801224 
L 228.213488 381.801224 
L 228.213488 377.49352 
L 233.071938 377.49352 
L 233.071938 373.43773 
L 236.310904 373.43773 
L 236.310904 372.752276 
L 241.169354 372.752276 
L 241.169354 368.444572 
L 242.788837 368.444572 
L 242.788837 364.136869 
L 250.886253 364.136869 
L 250.886253 362.877307 
L 252.505736 362.877307 
L 252.505736 358.569603 
L 255.744703 358.569603 
L 255.744703 354.362665 
L 260.603152 354.362665 
L 260.603152 350.054962 
L 263.842119 350.054962 
L 263.842119 345.822832 
L 263.842119 345.822832 
L 268.700568 345.822832 
L 268.700568 341.515129 
L 270.320052 341.515129 
L 270.320052 341.212834 
L 273.559018 341.212834 
L 273.559018 336.905131 
L 280.036951 336.905131 
L 280.036951 332.597427 
L 281.656434 332.597427 
L 281.656434 328.289724 
L 289.75385 328.289724 
L 289.75385 323.982021 
L 297.851266 323.982021 
L 297.851266 319.271257 
L 304.329199 319.271257 
L 304.329199 318.893389 
L 305.948682 318.893389 
L 305.948682 314.585685 
L 310.807132 314.585685 
L 310.807132 310.277982 
L 314.046098 310.277982 
L 314.046098 305.970279 
L 317.285065 305.970279 
L 317.285065 301.864105 
L 322.143514 301.864105 
L 322.143514 297.556402 
L 323.762997 297.556402 
L 323.762997 293.450229 
L 330.24093 293.450229 
L 330.24093 289.142525 
L 338.338346 289.142525 
L 338.338346 284.834822 
L 339.957829 284.834822 
L 339.957829 280.527119 
L 346.435762 280.527119 
L 346.435762 275.627421 
L 352.913695 275.627421 
L 352.913695 271.319718 
L 359.391628 271.319718 
L 359.391628 267.213544 
L 364.250078 267.213544 
L 364.250078 258.900433 
L 382.064393 258.900433 
L 382.064393 254.794259 
L 383.683876 254.794259 
L 383.683876 253.534697 
L 388.542326 253.534697 
L 388.542326 249.327759 
L 390.161809 249.327759 
L 390.161809 245.221585 
L 391.781292 245.221585 
L 391.781292 243.962023 
L 395.020258 243.962023 
L 395.020258 239.65432 
L 404.737158 239.65432 
L 404.737158 235.548146 
L 412.834574 235.548146 
L 412.834574 234.477518 
L 419.312506 234.477518 
L 419.312506 230.371345 
L 443.604755 230.371345 
L 443.604755 226.063642 
L 445.224238 226.063642 
L 445.224238 217.599383 
L 453.321654 217.599383 
L 453.321654 213.291679 
L 456.56062 213.291679 
L 456.56062 208.01235 
L 466.277519 208.01235 
L 466.277519 203.855794 
L 469.516486 203.855794 
L 469.516486 197.726763 
L 474.374935 197.726763 
L 474.374935 197.348894 
L 482.472351 197.348894 
L 482.472351 193.141956 
L 495.428217 193.141956 
L 495.428217 188.935018 
L 500.286667 188.935018 
L 500.286667 180.521141 
L 508.384083 180.521141 
L 508.384083 176.314203 
L 516.481499 176.314203 
L 516.481499 173.039341 
L 519.720465 173.039341 
L 519.720465 171.149997 
L 521.339948 171.149997 
L 521.339948 166.943059 
L 527.817881 166.943059 
L 527.817881 166.539999 
L 532.676331 166.539999 
L 532.676331 162.433825 
L 540.773747 162.433825 
L 540.773747 158.327652 
L 545.632196 158.327652 
L 545.632196 155.05279 
L 560.207545 155.05279 
L 560.207545 154.773671 
L 571.543928 154.773671 
L 571.543928 153.245822 
L 573.163411 153.245822 
L 573.163411 144.831945 
L 578.02186 144.831945 
L 578.02186 140.725772 
L 581.260827 140.725772 
L 581.260827 139.981622 
L 586.119276 139.981622 
L 586.119276 135.673919 
L 590.977726 135.673919 
L 590.977726 131.466981 
L 597.455659 131.466981 
L 597.455659 123.053104 
L 607.172558 123.053104 
L 607.172558 122.357322 
L 610.411525 122.357322 
L 610.411525 118.049618 
L 613.650491 118.049618 
L 613.650491 113.943445 
L 616.889457 113.943445 
L 616.889457 108.552518 
L 621.747907 108.552518 
L 621.747907 100.037877 
L 626.606357 100.037877 
L 626.606357 99.030227 
L 628.22584 99.030227 
L 628.22584 93.740065 
L 633.084289 93.740065 
L 633.084289 89.331596 
L 637.942739 89.331596 
L 637.942739 85.225423 
L 639.562222 85.225423 
L 639.562222 80.91772 
L 642.801189 80.91772 
L 642.801189 76.509251 
L 647.659638 76.509251 
L 647.659638 68.044992 
L 654.137571 68.044992 
L 654.137571 63.636524 
L 655.757054 63.636524 
L 655.757054 57.766963 
L 660.615504 57.766963 
L 660.615504 53.45926 
L 668.71292 53.45926 
L 668.71292 49.252322 
L 675.190853 49.252322 
L 675.190853 47.3 
L 684.907752 47.3 
L 684.907752 47.3 
" clip-path="url(#peb17577aa1)" style="fill: none; stroke: #ff0000; stroke-width: 1.5; stroke-linecap: square"/>
   </g>
   <g id="patch_3">
    <path d="M 82.46 476.12 
L 82.46 26.88 
" style="fill: none; stroke: #000000; stroke-width: 0.8; stroke-linejoin: miter; stroke-linecap: square"/>
   </g>
   <g id="patch_4">
    <path d="M 709.2 476.12 
L 709.2 26.88 
" style="fill: none; stroke: #000000; stroke-width: 0.8; stroke-linejoin: miter; stroke-linecap: square"/>
   </g>
   <g id="patch_5">
    <path d="M 82.46 476.12 
L 709.2 476.12 
" style="fill: none; stroke: #000000; stroke-width: 0.8; stroke-linejoin: miter; stroke-linecap: square"/>
   </g>
   <g id="patch_6">
    <path d="M 82.46 26.88 
L 709.2 26.88 
" style="fill: none; stroke: #000000; stroke-width: 0.8; stroke-linejoin: miter; stroke-linecap: square"/>
   </g>
   <g id="text_17">
    <!-- Cumulative Payload Mass to Orbit By Year -->
    <g transform="translate(270.224687 20.88) scale(0.12 -0.12)">
     <defs>
      <path id="DejaVuSans-4f" d="M 2522 4238 
Q 1834 4238 1429 3725 
Q 1025 3213 1025 2328 
Q 1025 1447 1429 934 
Q 1834 422 2522 422 
Q 3209 422 3611 934 
Q 4013 1447 4013 2328 
Q 4013 3213 3611 3725 
Q 3209 4238 2522 4238 
z
M 2522 4750 
Q 3503 4750 4090 4092 
Q 4678 3434 4678 2328 
Q 4678 1225 4090 567 
Q 3503 -91 2522 -91 
Q 1538 -91 948 565 
Q 359 1222 359 2328 
Q 359 3434 948 4092 
Q 1538 4750 2522 4750 
z
" transform="scale(0.015625)"/>
      <path id="DejaVuSans-62" d="M 3116 1747 
Q 3116 2381 2855 2742 
Q 2594 3103 2138 3103 
Q 1681 3103 1420 2742 
Q 1159 2381 1159 1747 
Q 1159 1113 1420 752 
Q 1681 391 2138 391 
Q 2594 391 2855 752 
Q 3116 1113 3116 1747 
z
M 1159 2969 
Q 1341 3281 1617 3432 
Q 1894 3584 2278 3584 
Q 2916 3584 3314 3078 
Q 3713 2572 3713 1747 
Q 3713 922 3314 415 
Q 2916 -91 2278 -91 
Q 1894 -91 1617 61 
Q 1341 213 1159 525 
L 1159 0 
L 581 0 
L 581 4863 
L 1159 4863 
L 1159 2969 
z
" transform="scale(0.015625)"/>
      <path id="DejaVuSans-42" d="M 1259 2228 
L 1259 519 
L 2272 519 
Q 2781 519 3026 730 
Q 3272 941 3272 1375 
Q 3272 1813 3026 2020 
Q 2781 2228 2272 2228 
L 1259 2228 
z
M 1259 4147 
L 1259 2741 
L 2194 2741 
Q 2656 2741 2882 2914 
Q 3109 3088 3109 3444 
Q 3109 3797 2882 3972 
Q 2656 4147 2194 4147 
L 1259 4147 
z
M 628 4666 
L 2241 4666 
Q 2963 4666 3353 4366 
Q 3744 4066 3744 3513 
Q 3744 3084 3544 2831 
Q 3344 2578 2956 2516 
Q 3422 2416 3680 2098 
Q 3938 1781 3938 1306 
Q 3938 681 3513 340 
Q 3088 0 2303 0 
L 628 0 
L 628 4666 
z
" transform="scale(0.015625)"/>
      <path id="DejaVuSans-59" d="M -13 4666 
L 666 4666 
L 1959 2747 
L 3244 4666 
L 3922 4666 
L 2272 2222 
L 2272 0 
L 1638 0 
L 1638 2222 
L -13 4666 
z
" transform="scale(0.015625)"/>
     </defs>
     <use xlink:href="#DejaVuSans-43"/>
     <use xlink:href="#DejaVuSans-75" x="69.824219"/>
     <use xlink:href="#DejaVuSans-6d" x="133.203125"/>
     <use xlink:href="#DejaVuSans-75" x="230.615234"/>
     <use xlink:href="#DejaVuSans-6c" x="293.994141"/>
     <use xlink:href="#DejaVuSans-61" x="321.777344"/>
     <use xlink:href="#DejaVuSans-74" x="383.056641"/>
     <use xlink:href="#DejaVuSans-69" x="422.265625"/>
     <use xlink:href="#DejaVuSans-76" x="450.048828"/>
     <use xlink:href="#DejaVuSans-65" x="509.228516"/>
     <use xlink:href="#DejaVuSans-20" x="570.751953"/>
     <use xlink:href="#DejaVuSans-50" x="602.539062"/>
     <use xlink:href="#DejaVuSans-61" x="658.341797"/>
     <use xlink:href="#DejaVuSans-79" x="719.621094"/>
     <use xlink:href="#DejaVuSans-6c" x="778.800781"/>
     <use xlink:href="#DejaVuSans-6f" x="806.583984"/>
     <use xlink:href="#DejaVuSans-61" x="867.765625"/>
     <use xlink:href="#DejaVuSans-64" x="929.044922"/>
     <use xlink:href="#DejaVuSans-20" x="992.521484"/>
     <use xlink:href="#DejaVuSans-4d" x="1024.308594"/>
     <use xlink:href="#DejaVuSans-61" x="1110.587891"/>
     <use xlink:href="#DejaVuSans-73" x="1171.867188"/>
     <use xlink:href="#DejaVuSans-73" x="1223.966797"/>
     <use xlink:href="#DejaVuSans-20" x="1276.066406"/>
     <use xlink:href="#DejaVuSans-74" x="1307.853516"/>
     <use xlink:href="#DejaVuSans-6f" x="1347.0625"/>
     <use xlink:href="#DejaVuSans-20" x="1408.244141"/>
     <use xlink:href="#DejaVuSans-4f" x="1440.03125"/>
     <use xlink:href="#DejaVuSans-72" x="1518.742188"/>
     <use xlink:href="#DejaVuSans-62" x="1559.855469"/>
     <use xlink:href="#DejaVuSans-69" x="1623.332031"/>
     <use xlink:href="#DejaVuSans-74" x="1651.115234"/>
     <use xlink:href="#DejaVuSans-20" x="1690.324219"/>
     <use xlink:href="#DejaVuSans-42" x="1722.111328"/>
     <use xlink:href="#DejaVuSans-79" x="1790.714844"/>
     <use xlink:href="#DejaVuSans-20" x="1849.894531"/>
     <use xlink:href="#DejaVuSans-59" x="1881.681641"/>
     <use xlink:href="#DejaVuSans-65" x="1929.515625"/>
     <use xlink:href="#DejaVuSans-61" x="1991.039062"/>
     <use xlink:href="#DejaVuSans-72" x="2052.318359"/>
    </g>
   </g>
   <g id="legend_1">
    <g id="patch_7">
     <path d="M 89.46 166.983125 
L 146.91 166.983125 
Q 148.91 166.983125 148.91 164.983125 
L 148.91 33.88 
Q 148.91 31.88 146.91 31.88 
L 89.46 31.88 
Q 87.46 31.88 87.46 33.88 
L 87.46 164.983125 
Q 87.46 166.983125 89.46 166.983125 
z
" style="fill: #ffffff; opacity: 0.8; stroke: #cccccc; stroke-linejoin: miter"/>
    </g>
    <g id="text_18">
     <!-- Year -->
     <g transform="translate(107.5975 43.478437) scale(0.1 -0.1)">
      <use xlink:href="#DejaVuSans-59"/>
      <use xlink:href="#DejaVuSans-65" x="47.833984"/>
      <use xlink:href="#DejaVuSans-61" x="109.357422"/>
      <use xlink:href="#DejaVuSans-72" x="170.636719"/>
     </g>
    </g>
    <g id="line2d_39">
     <path d="M 91.46 54.656562 
L 101.46 54.656562 
L 101.46 54.656562 
L 111.46 54.656562 
L 111.46 54.656562 
" style="fill: none; stroke: #90ee90; stroke-width: 1.5; stroke-linecap: square"/>
    </g>
    <g id="text_19">
     <!-- 2017 -->
     <g transform="translate(119.46 58.156562) scale(0.1 -0.1)">
      <defs>
       <path id="DejaVuSans-37" d="M 525 4666 
L 3525 4666 
L 3525 4397 
L 1831 0 
L 1172 0 
L 2766 4134 
L 525 4134 
L 525 4666 
z
" transform="scale(0.015625)"/>
      </defs>
      <use xlink:href="#DejaVuSans-32"/>
      <use xlink:href="#DejaVuSans-30" x="63.623047"/>
      <use xlink:href="#DejaVuSans-31" x="127.246094"/>
      <use xlink:href="#DejaVuSans-37" x="190.869141"/>
     </g>
    </g>
    <g id="line2d_40">
     <path d="M 91.46 69.334687 
L 101.46 69.334687 
L 101.46 69.334687 
L 111.46 69.334687 
L 111.46 69.334687 
" style="fill: none; stroke: #add8e6; stroke-width: 1.5; stroke-linecap: square"/>
    </g>
    <g id="text_20">
     <!-- 2018 -->
     <g transform="translate(119.46 72.834687) scale(0.1 -0.1)">
      <use xlink:href="#DejaVuSans-32"/>
      <use xlink:href="#DejaVuSans-30" x="63.623047"/>
      <use xlink:href="#DejaVuSans-31" x="127.246094"/>
      <use xlink:href="#DejaVuSans-38" x="190.869141"/>
     </g>
    </g>
    <g id="line2d_41">
     <path d="M 91.46 84.012812 
L 101.46 84.012812 
L 101.46 84.012812 
L 111.46 84.012812 
L 111.46 84.012812 
" style="fill: none; stroke: #ffc0cb; stroke-width: 1.5; stroke-linecap: square"/>
    </g>
    <g id="text_21">
     <!-- 2019 -->
     <g transform="translate(119.46 87.512812) scale(0.1 -0.1)">
      <defs>
       <path id="DejaVuSans-39" d="M 703 97 
L 703 672 
Q 941 559 1184 500 
Q 1428 441 1663 441 
Q 2288 441 2617 861 
Q 2947 1281 2994 2138 
Q 2813 1869 2534 1725 
Q 2256 1581 1919 1581 
Q 1219 1581 811 2004 
Q 403 2428 403 3163 
Q 403 3881 828 4315 
Q 1253 4750 1959 4750 
Q 2769 4750 3195 4129 
Q 3622 3509 3622 2328 
Q 3622 1225 3098 567 
Q 2575 -91 1691 -91 
Q 1453 -91 1209 -44 
Q 966 3 703 97 
z
M 1959 2075 
Q 2384 2075 2632 2365 
Q 2881 2656 2881 3163 
Q 2881 3666 2632 3958 
Q 2384 4250 1959 4250 
Q 1534 4250 1286 3958 
Q 1038 3666 1038 3163 
Q 1038 2656 1286 2365 
Q 1534 2075 1959 2075 
z
" transform="scale(0.015625)"/>
      </defs>
      <use xlink:href="#DejaVuSans-32"/>
      <use xlink:href="#DejaVuSans-30" x="63.623047"/>
      <use xlink:href="#DejaVuSans-31" x="127.246094"/>
      <use xlink:href="#DejaVuSans-39" x="190.869141"/>
     </g>
    </g>
    <g id="line2d_42">
     <path d="M 91.46 98.690937 
L 101.46 98.690937 
L 101.46 98.690937 
L 111.46 98.690937 
L 111.46 98.690937 
" style="fill: none; stroke: #800080; stroke-width: 1.5; stroke-linecap: square"/>
    </g>
    <g id="text_22">
     <!-- 2020 -->
     <g transform="translate(119.46 102.190937) scale(0.1 -0.1)">
      <use xlink:href="#DejaVuSans-32"/>
      <use xlink:href="#DejaVuSans-30" x="63.623047"/>
      <use xlink:href="#DejaVuSans-32" x="127.246094"/>
      <use xlink:href="#DejaVuSans-30" x="190.869141"/>
     </g>
    </g>
    <g id="line2d_43">
     <path d="M 91.46 113.369062 
L 101.46 113.369062 
L 101.46 113.369062 
L 111.46 113.369062 
L 111.46 113.369062 
" style="fill: none; stroke: #ffa500; stroke-width: 1.5; stroke-linecap: square"/>
    </g>
    <g id="text_23">
     <!-- 2021 -->
     <g transform="translate(119.46 116.869062) scale(0.1 -0.1)">
      <use xlink:href="#DejaVuSans-32"/>
      <use xlink:href="#DejaVuSans-30" x="63.623047"/>
      <use xlink:href="#DejaVuSans-32" x="127.246094"/>
      <use xlink:href="#DejaVuSans-31" x="190.869141"/>
     </g>
    </g>
    <g id="line2d_44">
     <path d="M 91.46 128.047187 
L 101.46 128.047187 
L 101.46 128.047187 
L 111.46 128.047187 
L 111.46 128.047187 
" style="fill: none; stroke: #0000ff; stroke-width: 1.5; stroke-linecap: square"/>
    </g>
    <g id="text_24">
     <!-- 2022 -->
     <g transform="translate(119.46 131.547187) scale(0.1 -0.1)">
      <use xlink:href="#DejaVuSans-32"/>
      <use xlink:href="#DejaVuSans-30" x="63.623047"/>
      <use xlink:href="#DejaVuSans-32" x="127.246094"/>
      <use xlink:href="#DejaVuSans-32" x="190.869141"/>
     </g>
    </g>
    <g id="line2d_45">
     <path d="M 91.46 142.725312 
L 101.46 142.725312 
L 101.46 142.725312 
L 111.46 142.725312 
L 111.46 142.725312 
" style="fill: none; stroke: #008000; stroke-width: 1.5; stroke-linecap: square"/>
    </g>
    <g id="text_25">
     <!-- 2023 -->
     <g transform="translate(119.46 146.225312) scale(0.1 -0.1)">
      <defs>
       <path id="DejaVuSans-33" d="M 2597 2516 
Q 3050 2419 3304 2112 
Q 3559 1806 3559 1356 
Q 3559 666 3084 287 
Q 2609 -91 1734 -91 
Q 1441 -91 1130 -33 
Q 819 25 488 141 
L 488 750 
Q 750 597 1062 519 
Q 1375 441 1716 441 
Q 2309 441 2620 675 
Q 2931 909 2931 1356 
Q 2931 1769 2642 2001 
Q 2353 2234 1838 2234 
L 1294 2234 
L 1294 2753 
L 1863 2753 
Q 2328 2753 2575 2939 
Q 2822 3125 2822 3475 
Q 2822 3834 2567 4026 
Q 2313 4219 1838 4219 
Q 1578 4219 1281 4162 
Q 984 4106 628 3988 
L 628 4550 
Q 988 4650 1302 4700 
Q 1616 4750 1894 4750 
Q 2613 4750 3031 4423 
Q 3450 4097 3450 3541 
Q 3450 3153 3228 2886 
Q 3006 2619 2597 2516 
z
" transform="scale(0.015625)"/>
      </defs>
      <use xlink:href="#DejaVuSans-32"/>
      <use xlink:href="#DejaVuSans-30" x="63.623047"/>
      <use xlink:href="#DejaVuSans-32" x="127.246094"/>
      <use xlink:href="#DejaVuSans-33" x="190.869141"/>
     </g>
    </g>
    <g id="line2d_46">
     <path d="M 91.46 157.403437 
L 101.46 157.403437 
L 101.46 157.403437 
L 111.46 157.403437 
L 111.46 157.403437 
" style="fill: none; stroke: #ff0000; stroke-width: 1.5; stroke-linecap: square"/>
    </g>
    <g id="text_26">
     <!-- 2024 -->
     <g transform="translate(119.46 160.903437) scale(0.1 -0.1)">
      <use xlink:href="#DejaVuSans-32"/>
      <use xlink:href="#DejaVuSans-30" x="63.623047"/>
      <use xlink:href="#DejaVuSans-32" x="127.246094"/>
      <use xlink:href="#DejaVuSans-34" x="190.869141"/>
     </g>
    </g>
   </g>
  </g>
 </g>
 <defs>
  <clipPath id="peb17577aa1">
   <rect x="82.46" y="26.88" width="626.74" height="449.24"/>
  </clipPath>
 </defs>
</svg>
