<?xml version="1.0" encoding="utf-8" standalone="no"?>
<!DOCTYPE svg PUBLIC "-//W3C//DTD SVG 1.1//EN"
  "http://www.w3.org/Graphics/SVG/1.1/DTD/svg11.dtd">
<svg xmlns:xlink="http://www.w3.org/1999/xlink" width="720pt" height="504pt" viewBox="0 0 720 504" xmlns="http://www.w3.org/2000/svg" version="1.1">
 <metadata>
  <rdf:RDF xmlns:dc="http://purl.org/dc/elements/1.1/" xmlns:cc="http://creativecommons.org/ns#" xmlns:rdf="http://www.w3.org/1999/02/22-rdf-syntax-ns#">
   <cc:Work>
    <dc:type rdf:resource="http://purl.org/dc/dcmitype/StillImage"/>
    <dc:date>2025-10-16T11:25:14.270946</dc:date>
    <dc:format>image/svg+xml</dc:format>
    <dc:creator>
     <cc:Agent>
      <dc:title>Matplotlib v3.8.2, https://matplotlib.org/</dc:title>
     </cc:Agent>
    </dc:creator>
   </cc:Work>
  </rdf:RDF>
 </metadata>
 <defs>
  <style type="text/css">*{stroke-linejoin: round; stroke-linecap: butt}</style>
 </defs>
 <g id="figure_1">
  <g id="patch_1">
   <path d="M 0 504 
L 720 504 
L 720 0 
L 0 0 
z
" style="fill: #ffffff"/>
  </g>
  <g id="axes_1">
   <g id="patch_2">
    <path d="M 82.37 476.12 
L 709.2 476.12 
L 709.2 26.88 
L 82.37 26.88 
z
" style="fill: #ffffff"/>
   </g>
   <g id="matplotlib.axis_1">
    <g id="xtick_1">
     <g id="line2d_1">
      <path d="M 106.728679 476.12 
L 106.728679 26.88 
" clip-path="url(#p34708a8ad4)" style="fill: none; stroke: #b0b0b0; stroke-width: 0.8; stroke-linecap: square"/>
     </g>
     <g id="line2d_2">
      <defs>
       <path id="m3424aafdf3" d="M 0 0 
L 0 3.5 
" style="stroke: #000000; stroke-width: 0.8"/>
      </defs>
      <g>
       <use xlink:href="#m3424aafdf3" x="106.728679" y="476.12" style="stroke: #000000; stroke-width: 0.8"/>
      </g>
     </g>
     <g id="text_1">
      <!-- Jan 1 -->
      <g transform="translate(94.250554 490.718437) scale(0.1 -0.1)">
       <defs>
        <path id="DejaVuSans-4a" d="M 628 4666 
L 1259 4666 
L 1259 325 
Q 1259 -519 939 -900 
Q 619 -1281 -91 -1281 
L -331 -1281 
L -331 -750 
L -134 -750 
Q 284 -750 456 -515 
Q 628 -281 628 325 
L 628 4666 
z
" transform="scale(0.015625)"/>
        <path id="DejaVuSans-61" d="M 2194 1759 
Q 1497 1759 1228 1600 
Q 959 1441 959 1056 
Q 959 750 1161 570 
Q 1363 391 1709 391 
Q 2188 391 2477 730 
Q 2766 1069 2766 1631 
L 2766 1759 
L 2194 1759 
z
M 3341 1997 
L 3341 0 
L 2766 0 
L 2766 531 
Q 2569 213 2275 61 
Q 1981 -91 1556 -91 
Q 1019 -91 701 211 
Q 384 513 384 1019 
Q 384 1609 779 1909 
Q 1175 2209 1959 2209 
L 2766 2209 
L 2766 2266 
Q 2766 2663 2505 2880 
Q 2244 3097 1772 3097 
Q 1472 3097 1187 3025 
Q 903 2953 641 2809 
L 641 3341 
Q 956 3463 1253 3523 
Q 1550 3584 1831 3584 
Q 2591 3584 2966 3190 
Q 3341 2797 3341 1997 
z
" transform="scale(0.015625)"/>
        <path id="DejaVuSans-6e" d="M 3513 2113 
L 3513 0 
L 2938 0 
L 2938 2094 
Q 2938 2591 2744 2837 
Q 2550 3084 2163 3084 
Q 1697 3084 1428 2787 
Q 1159 2491 1159 1978 
L 1159 0 
L 581 0 
L 581 3500 
L 1159 3500 
L 1159 2956 
Q 1366 3272 1645 3428 
Q 1925 3584 2291 3584 
Q 2894 3584 3203 3211 
Q 3513 2838 3513 2113 
z
" transform="scale(0.015625)"/>
        <path id="DejaVuSans-20" transform="scale(0.015625)"/>
        <path id="DejaVuSans-31" d="M 794 531 
L 1825 531 
L 1825 4091 
L 703 3866 
L 703 4441 
L 1819 4666 
L 2450 4666 
L 2450 531 
L 3481 531 
L 3481 0 
L 794 0 
L 794 531 
z
" transform="scale(0.015625)"/>
       </defs>
       <use xlink:href="#DejaVuSans-4a"/>
       <use xlink:href="#DejaVuSans-61" x="29.492188"/>
       <use xlink:href="#DejaVuSans-6e" x="90.771484"/>
       <use xlink:href="#DejaVuSans-20" x="154.150391"/>
       <use xlink:href="#DejaVuSans-31" x="185.9375"/>
      </g>
     </g>
    </g>
    <g id="xtick_2">
     <g id="line2d_3">
      <path d="M 204.163394 476.12 
L 204.163394 26.88 
" clip-path="url(#p34708a8ad4)" style="fill: none; stroke: #b0b0b0; stroke-width: 0.8; stroke-linecap: square"/>
     </g>
     <g id="line2d_4">
      <g>
       <use xlink:href="#m3424aafdf3" x="204.163394" y="476.12" style="stroke: #000000; stroke-width: 0.8"/>
      </g>
     </g>
     <g id="text_2">
      <!-- Mar 1 -->
      <g transform="translate(189.959488 490.718437) scale(0.1 -0.1)">
       <defs>
        <path id="DejaVuSans-4d" d="M 628 4666 
L 1569 4666 
L 2759 1491 
L 3956 4666 
L 4897 4666 
L 4897 0 
L 4281 0 
L 4281 4097 
L 3078 897 
L 2444 897 
L 1241 4097 
L 1241 0 
L 628 0 
L 628 4666 
z
" transform="scale(0.015625)"/>
        <path id="DejaVuSans-72" d="M 2631 2963 
Q 2534 3019 2420 3045 
Q 2306 3072 2169 3072 
Q 1681 3072 1420 2755 
Q 1159 2438 1159 1844 
L 1159 0 
L 581 0 
L 581 3500 
L 1159 3500 
L 1159 2956 
Q 1341 3275 1631 3429 
Q 1922 3584 2338 3584 
Q 2397 3584 2469 3576 
Q 2541 3569 2628 3553 
L 2631 2963 
z
" transform="scale(0.015625)"/>
       </defs>
       <use xlink:href="#DejaVuSans-4d"/>
       <use xlink:href="#DejaVuSans-61" x="86.279297"/>
       <use xlink:href="#DejaVuSans-72" x="147.558594"/>
       <use xlink:href="#DejaVuSans-20" x="188.671875"/>
       <use xlink:href="#DejaVuSans-31" x="220.458984"/>
      </g>
     </g>
    </g>
    <g id="xtick_3">
     <g id="line2d_5">
      <path d="M 303.222021 476.12 
L 303.222021 26.88 
" clip-path="url(#p34708a8ad4)" style="fill: none; stroke: #b0b0b0; stroke-width: 0.8; stroke-linecap: square"/>
     </g>
     <g id="line2d_6">
      <g>
       <use xlink:href="#m3424aafdf3" x="303.222021" y="476.12" style="stroke: #000000; stroke-width: 0.8"/>
      </g>
     </g>
     <g id="text_3">
      <!-- May 1 -->
      <g transform="translate(288.114208 490.718437) scale(0.1 -0.1)">
       <defs>
        <path id="DejaVuSans-79" d="M 2059 -325 
Q 1816 -950 1584 -1140 
Q 1353 -1331 966 -1331 
L 506 -1331 
L 506 -850 
L 844 -850 
Q 1081 -850 1212 -737 
Q 1344 -625 1503 -206 
L 1606 56 
L 191 3500 
L 800 3500 
L 1894 763 
L 2988 3500 
L 3597 3500 
L 2059 -325 
z
" transform="scale(0.015625)"/>
       </defs>
       <use xlink:href="#DejaVuSans-4d"/>
       <use xlink:href="#DejaVuSans-61" x="86.279297"/>
       <use xlink:href="#DejaVuSans-79" x="147.558594"/>
       <use xlink:href="#DejaVuSans-20" x="206.738281"/>
       <use xlink:href="#DejaVuSans-31" x="238.525391"/>
      </g>
     </g>
    </g>
    <g id="xtick_4">
     <g id="line2d_7">
      <path d="M 402.280648 476.12 
L 402.280648 26.88 
" clip-path="url(#p34708a8ad4)" style="fill: none; stroke: #b0b0b0; stroke-width: 0.8; stroke-linecap: square"/>
     </g>
     <g id="line2d_8">
      <g>
       <use xlink:href="#m3424aafdf3" x="402.280648" y="476.12" style="stroke: #000000; stroke-width: 0.8"/>
      </g>
     </g>
     <g id="text_4">
      <!-- Jul 1 -->
      <g transform="translate(391.477523 490.718437) scale(0.1 -0.1)">
       <defs>
        <path id="DejaVuSans-75" d="M 544 1381 
L 544 3500 
L 1119 3500 
L 1119 1403 
Q 1119 906 1312 657 
Q 1506 409 1894 409 
Q 2359 409 2629 706 
Q 2900 1003 2900 1516 
L 2900 3500 
L 3475 3500 
L 3475 0 
L 2900 0 
L 2900 538 
Q 2691 219 2414 64 
Q 2138 -91 1772 -91 
Q 1169 -91 856 284 
Q 544 659 544 1381 
z
M 1991 3584 
L 1991 3584 
z
" transform="scale(0.015625)"/>
        <path id="DejaVuSans-6c" d="M 603 4863 
L 1178 4863 
L 1178 0 
L 603 0 
L 603 4863 
z
" transform="scale(0.015625)"/>
       </defs>
       <use xlink:href="#DejaVuSans-4a"/>
       <use xlink:href="#DejaVuSans-75" x="29.492188"/>
       <use xlink:href="#DejaVuSans-6c" x="92.871094"/>
       <use xlink:href="#DejaVuSans-20" x="120.654297"/>
       <use xlink:href="#DejaVuSans-31" x="152.441406"/>
      </g>
     </g>
    </g>
    <g id="xtick_5">
     <g id="line2d_9">
      <path d="M 502.963187 476.12 
L 502.963187 26.88 
" clip-path="url(#p34708a8ad4)" style="fill: none; stroke: #b0b0b0; stroke-width: 0.8; stroke-linecap: square"/>
     </g>
     <g id="line2d_10">
      <g>
       <use xlink:href="#m3424aafdf3" x="502.963187" y="476.12" style="stroke: #000000; stroke-width: 0.8"/>
      </g>
     </g>
     <g id="text_5">
      <!-- Sep 1 -->
      <g transform="translate(488.767874 490.718437) scale(0.1 -0.1)">
       <defs>
        <path id="DejaVuSans-53" d="M 3425 4513 
L 3425 3897 
Q 3066 4069 2747 4153 
Q 2428 4238 2131 4238 
Q 1616 4238 1336 4038 
Q 1056 3838 1056 3469 
Q 1056 3159 1242 3001 
Q 1428 2844 1947 2747 
L 2328 2669 
Q 3034 2534 3370 2195 
Q 3706 1856 3706 1288 
Q 3706 609 3251 259 
Q 2797 -91 1919 -91 
Q 1588 -91 1214 -16 
Q 841 59 441 206 
L 441 856 
Q 825 641 1194 531 
Q 1563 422 1919 422 
Q 2459 422 2753 634 
Q 3047 847 3047 1241 
Q 3047 1584 2836 1778 
Q 2625 1972 2144 2069 
L 1759 2144 
Q 1053 2284 737 2584 
Q 422 2884 422 3419 
Q 422 4038 858 4394 
Q 1294 4750 2059 4750 
Q 2388 4750 2728 4690 
Q 3069 4631 3425 4513 
z
" transform="scale(0.015625)"/>
        <path id="DejaVuSans-65" d="M 3597 1894 
L 3597 1613 
L 953 1613 
Q 991 1019 1311 708 
Q 1631 397 2203 397 
Q 2534 397 2845 478 
Q 3156 559 3463 722 
L 3463 178 
Q 3153 47 2828 -22 
Q 2503 -91 2169 -91 
Q 1331 -91 842 396 
Q 353 884 353 1716 
Q 353 2575 817 3079 
Q 1281 3584 2069 3584 
Q 2775 3584 3186 3129 
Q 3597 2675 3597 1894 
z
M 3022 2063 
Q 3016 2534 2758 2815 
Q 2500 3097 2075 3097 
Q 1594 3097 1305 2825 
Q 1016 2553 972 2059 
L 3022 2063 
z
" transform="scale(0.015625)"/>
        <path id="DejaVuSans-70" d="M 1159 525 
L 1159 -1331 
L 581 -1331 
L 581 3500 
L 1159 3500 
L 1159 2969 
Q 1341 3281 1617 3432 
Q 1894 3584 2278 3584 
Q 2916 3584 3314 3078 
Q 3713 2572 3713 1747 
Q 3713 922 3314 415 
Q 2916 -91 2278 -91 
Q 1894 -91 1617 61 
Q 1341 213 1159 525 
z
M 3116 1747 
Q 3116 2381 2855 2742 
Q 2594 3103 2138 3103 
Q 1681 3103 1420 2742 
Q 1159 2381 1159 1747 
Q 1159 1113 1420 752 
Q 1681 391 2138 391 
Q 2594 391 2855 752 
Q 3116 1113 3116 1747 
z
" transform="scale(0.015625)"/>
       </defs>
       <use xlink:href="#DejaVuSans-53"/>
       <use xlink:href="#DejaVuSans-65" x="63.476562"/>
       <use xlink:href="#DejaVuSans-70" x="125"/>
       <use xlink:href="#DejaVuSans-20" x="188.476562"/>
       <use xlink:href="#DejaVuSans-31" x="220.263672"/>
      </g>
     </g>
    </g>
    <g id="xtick_6">
     <g id="line2d_11">
      <path d="M 602.021813 476.12 
L 602.021813 26.88 
" clip-path="url(#p34708a8ad4)" style="fill: none; stroke: #b0b0b0; stroke-width: 0.8; stroke-linecap: square"/>
     </g>
     <g id="line2d_12">
      <g>
       <use xlink:href="#m3424aafdf3" x="602.021813" y="476.12" style="stroke: #000000; stroke-width: 0.8"/>
      </g>
     </g>
     <g id="text_6">
      <!-- Nov 1 -->
      <g transform="translate(587.492126 490.718437) scale(0.1 -0.1)">
       <defs>
        <path id="DejaVuSans-4e" d="M 628 4666 
L 1478 4666 
L 3547 763 
L 3547 4666 
L 4159 4666 
L 4159 0 
L 3309 0 
L 1241 3903 
L 1241 0 
L 628 0 
L 628 4666 
z
" transform="scale(0.015625)"/>
        <path id="DejaVuSans-6f" d="M 1959 3097 
Q 1497 3097 1228 2736 
Q 959 2375 959 1747 
Q 959 1119 1226 758 
Q 1494 397 1959 397 
Q 2419 397 2687 759 
Q 2956 1122 2956 1747 
Q 2956 2369 2687 2733 
Q 2419 3097 1959 3097 
z
M 1959 3584 
Q 2709 3584 3137 3096 
Q 3566 2609 3566 1747 
Q 3566 888 3137 398 
Q 2709 -91 1959 -91 
Q 1206 -91 779 398 
Q 353 888 353 1747 
Q 353 2609 779 3096 
Q 1206 3584 1959 3584 
z
" transform="scale(0.015625)"/>
        <path id="DejaVuSans-76" d="M 191 3500 
L 800 3500 
L 1894 563 
L 2988 3500 
L 3597 3500 
L 2284 0 
L 1503 0 
L 191 3500 
z
" transform="scale(0.015625)"/>
       </defs>
       <use xlink:href="#DejaVuSans-4e"/>
       <use xlink:href="#DejaVuSans-6f" x="74.804688"/>
       <use xlink:href="#DejaVuSans-76" x="135.986328"/>
       <use xlink:href="#DejaVuSans-20" x="195.166016"/>
       <use xlink:href="#DejaVuSans-31" x="226.953125"/>
      </g>
     </g>
    </g>
   </g>
   <g id="matplotlib.axis_2">
    <g id="ytick_1">
     <g id="line2d_13">
      <path d="M 82.37 455.7 
L 709.2 455.7 
" clip-path="url(#p34708a8ad4)" style="fill: none; stroke: #b0b0b0; stroke-width: 0.8; stroke-linecap: square"/>
     </g>
     <g id="line2d_14">
      <defs>
       <path id="mc671ae3c64" d="M 0 0 
L -3.5 0 
" style="stroke: #000000; stroke-width: 0.8"/>
      </defs>
      <g>
       <use xlink:href="#mc671ae3c64" x="82.37" y="455.7" style="stroke: #000000; stroke-width: 0.8"/>
      </g>
     </g>
     <g id="text_7">
      <!-- 0 -->
      <g transform="translate(69.0075 459.499219) scale(0.1 -0.1)">
       <defs>
        <path id="DejaVuSans-30" d="M 2034 4250 
Q 1547 4250 1301 3770 
Q 1056 3291 1056 2328 
Q 1056 1369 1301 889 
Q 1547 409 2034 409 
Q 2525 409 2770 889 
Q 3016 1369 3016 2328 
Q 3016 3291 2770 3770 
Q 2525 4250 2034 4250 
z
M 2034 4750 
Q 2819 4750 3233 4129 
Q 3647 3509 3647 2328 
Q 3647 1150 3233 529 
Q 2819 -91 2034 -91 
Q 1250 -91 836 529 
Q 422 1150 422 2328 
Q 422 3509 836 4129 
Q 1250 4750 2034 4750 
z
" transform="scale(0.015625)"/>
       </defs>
       <use xlink:href="#DejaVuSans-30"/>
      </g>
     </g>
    </g>
    <g id="ytick_2">
     <g id="line2d_15">
      <path d="M 82.37 394.838884 
L 709.2 394.838884 
" clip-path="url(#p34708a8ad4)" style="fill: none; stroke: #b0b0b0; stroke-width: 0.8; stroke-linecap: square"/>
     </g>
     <g id="line2d_16">
      <g>
       <use xlink:href="#mc671ae3c64" x="82.37" y="394.838884" style="stroke: #000000; stroke-width: 0.8"/>
      </g>
     </g>
     <g id="text_8">
      <!-- 250,000 -->
      <g transform="translate(34.016875 398.638103) scale(0.1 -0.1)">
       <defs>
        <path id="DejaVuSans-32" d="M 1228 531 
L 3431 531 
L 3431 0 
L 469 0 
L 469 531 
Q 828 903 1448 1529 
Q 2069 2156 2228 2338 
Q 2531 2678 2651 2914 
Q 2772 3150 2772 3378 
Q 2772 3750 2511 3984 
Q 2250 4219 1831 4219 
Q 1534 4219 1204 4116 
Q 875 4013 500 3803 
L 500 4441 
Q 881 4594 1212 4672 
Q 1544 4750 1819 4750 
Q 2544 4750 2975 4387 
Q 3406 4025 3406 3419 
Q 3406 3131 3298 2873 
Q 3191 2616 2906 2266 
Q 2828 2175 2409 1742 
Q 1991 1309 1228 531 
z
" transform="scale(0.015625)"/>
        <path id="DejaVuSans-35" d="M 691 4666 
L 3169 4666 
L 3169 4134 
L 1269 4134 
L 1269 2991 
Q 1406 3038 1543 3061 
Q 1681 3084 1819 3084 
Q 2600 3084 3056 2656 
Q 3513 2228 3513 1497 
Q 3513 744 3044 326 
Q 2575 -91 1722 -91 
Q 1428 -91 1123 -41 
Q 819 9 494 109 
L 494 744 
Q 775 591 1075 516 
Q 1375 441 1709 441 
Q 2250 441 2565 725 
Q 2881 1009 2881 1497 
Q 2881 1984 2565 2268 
Q 2250 2553 1709 2553 
Q 1456 2553 1204 2497 
Q 953 2441 691 2322 
L 691 4666 
z
" transform="scale(0.015625)"/>
        <path id="DejaVuSans-2c" d="M 750 794 
L 1409 794 
L 1409 256 
L 897 -744 
L 494 -744 
L 750 256 
L 750 794 
z
" transform="scale(0.015625)"/>
       </defs>
       <use xlink:href="#DejaVuSans-32"/>
       <use xlink:href="#DejaVuSans-35" x="63.623047"/>
       <use xlink:href="#DejaVuSans-30" x="127.246094"/>
       <use xlink:href="#DejaVuSans-2c" x="190.869141"/>
       <use xlink:href="#DejaVuSans-30" x="222.65625"/>
       <use xlink:href="#DejaVuSans-30" x="286.279297"/>
       <use xlink:href="#DejaVuSans-30" x="349.902344"/>
      </g>
     </g>
    </g>
    <g id="ytick_3">
     <g id="line2d_17">
      <path d="M 82.37 333.977768 
L 709.2 333.977768 
" clip-path="url(#p34708a8ad4)" style="fill: none; stroke: #b0b0b0; stroke-width: 0.8; stroke-linecap: square"/>
     </g>
     <g id="line2d_18">
      <g>
       <use xlink:href="#mc671ae3c64" x="82.37" y="333.977768" style="stroke: #000000; stroke-width: 0.8"/>
      </g>
     </g>
     <g id="text_9">
      <!-- 500,000 -->
      <g transform="translate(34.016875 337.776986) scale(0.1 -0.1)">
       <use xlink:href="#DejaVuSans-35"/>
       <use xlink:href="#DejaVuSans-30" x="63.623047"/>
       <use xlink:href="#DejaVuSans-30" x="127.246094"/>
       <use xlink:href="#DejaVuSans-2c" x="190.869141"/>
       <use xlink:href="#DejaVuSans-30" x="222.65625"/>
       <use xlink:href="#DejaVuSans-30" x="286.279297"/>
       <use xlink:href="#DejaVuSans-30" x="349.902344"/>
      </g>
     </g>
    </g>
    <g id="ytick_4">
     <g id="line2d_19">
      <path d="M 82.37 273.116651 
L 709.2 273.116651 
" clip-path="url(#p34708a8ad4)" style="fill: none; stroke: #b0b0b0; stroke-width: 0.8; stroke-linecap: square"/>
     </g>
     <g id="line2d_20">
      <g>
       <use xlink:href="#mc671ae3c64" x="82.37" y="273.116651" style="stroke: #000000; stroke-width: 0.8"/>
      </g>
     </g>
     <g id="text_10">
      <!-- 750,000 -->
      <g transform="translate(34.016875 276.91587) scale(0.1 -0.1)">
       <defs>
        <path id="DejaVuSans-37" d="M 525 4666 
L 3525 4666 
L 3525 4397 
L 1831 0 
L 1172 0 
L 2766 4134 
L 525 4134 
L 525 4666 
z
" transform="scale(0.015625)"/>
       </defs>
       <use xlink:href="#DejaVuSans-37"/>
       <use xlink:href="#DejaVuSans-35" x="63.623047"/>
       <use xlink:href="#DejaVuSans-30" x="127.246094"/>
       <use xlink:href="#DejaVuSans-2c" x="190.869141"/>
       <use xlink:href="#DejaVuSans-30" x="222.65625"/>
       <use xlink:href="#DejaVuSans-30" x="286.279297"/>
       <use xlink:href="#DejaVuSans-30" x="349.902344"/>
      </g>
     </g>
    </g>
    <g id="ytick_5">
     <g id="line2d_21">
      <path d="M 82.37 212.255535 
L 709.2 212.255535 
" clip-path="url(#p34708a8ad4)" style="fill: none; stroke: #b0b0b0; stroke-width: 0.8; stroke-linecap: square"/>
     </g>
     <g id="line2d_22">
      <g>
       <use xlink:href="#mc671ae3c64" x="82.37" y="212.255535" style="stroke: #000000; stroke-width: 0.8"/>
      </g>
     </g>
     <g id="text_11">
      <!-- 1,000,000 -->
      <g transform="translate(24.47625 216.054754) scale(0.1 -0.1)">
       <use xlink:href="#DejaVuSans-31"/>
       <use xlink:href="#DejaVuSans-2c" x="63.623047"/>
       <use xlink:href="#DejaVuSans-30" x="95.410156"/>
       <use xlink:href="#DejaVuSans-30" x="159.033203"/>
       <use xlink:href="#DejaVuSans-30" x="222.65625"/>
       <use xlink:href="#DejaVuSans-2c" x="286.279297"/>
       <use xlink:href="#DejaVuSans-30" x="318.066406"/>
       <use xlink:href="#DejaVuSans-30" x="381.689453"/>
       <use xlink:href="#DejaVuSans-30" x="445.3125"/>
      </g>
     </g>
    </g>
    <g id="ytick_6">
     <g id="line2d_23">
      <path d="M 82.37 151.394419 
L 709.2 151.394419 
" clip-path="url(#p34708a8ad4)" style="fill: none; stroke: #b0b0b0; stroke-width: 0.8; stroke-linecap: square"/>
     </g>
     <g id="line2d_24">
      <g>
       <use xlink:href="#mc671ae3c64" x="82.37" y="151.394419" style="stroke: #000000; stroke-width: 0.8"/>
      </g>
     </g>
     <g id="text_12">
      <!-- 1,250,000 -->
      <g transform="translate(24.47625 155.193638) scale(0.1 -0.1)">
       <use xlink:href="#DejaVuSans-31"/>
       <use xlink:href="#DejaVuSans-2c" x="63.623047"/>
       <use xlink:href="#DejaVuSans-32" x="95.410156"/>
       <use xlink:href="#DejaVuSans-35" x="159.033203"/>
       <use xlink:href="#DejaVuSans-30" x="222.65625"/>
       <use xlink:href="#DejaVuSans-2c" x="286.279297"/>
       <use xlink:href="#DejaVuSans-30" x="318.066406"/>
       <use xlink:href="#DejaVuSans-30" x="381.689453"/>
       <use xlink:href="#DejaVuSans-30" x="445.3125"/>
      </g>
     </g>
    </g>
    <g id="ytick_7">
     <g id="line2d_25">
      <path d="M 82.37 90.533303 
L 709.2 90.533303 
" clip-path="url(#p34708a8ad4)" style="fill: none; stroke: #b0b0b0; stroke-width: 0.8; stroke-linecap: square"/>
     </g>
     <g id="line2d_26">
      <g>
       <use xlink:href="#mc671ae3c64" x="82.37" y="90.533303" style="stroke: #000000; stroke-width: 0.8"/>
      </g>
     </g>
     <g id="text_13">
      <!-- 1,500,000 -->
      <g transform="translate(24.47625 94.332521) scale(0.1 -0.1)">
       <use xlink:href="#DejaVuSans-31"/>
       <use xlink:href="#DejaVuSans-2c" x="63.623047"/>
       <use xlink:href="#DejaVuSans-35" x="95.410156"/>
       <use xlink:href="#DejaVuSans-30" x="159.033203"/>
       <use xlink:href="#DejaVuSans-30" x="222.65625"/>
       <use xlink:href="#DejaVuSans-2c" x="286.279297"/>
       <use xlink:href="#DejaVuSans-30" x="318.066406"/>
       <use xlink:href="#DejaVuSans-30" x="381.689453"/>
       <use xlink:href="#DejaVuSans-30" x="445.3125"/>
      </g>
     </g>
    </g>
    <g id="ytick_8">
     <g id="line2d_27">
      <path d="M 82.37 29.672186 
L 709.2 29.672186 
" clip-path="url(#p34708a8ad4)" style="fill: none; stroke: #b0b0b0; stroke-width: 0.8; stroke-linecap: square"/>
     </g>
     <g id="line2d_28">
      <g>
       <use xlink:href="#mc671ae3c64" x="82.37" y="29.672186" style="stroke: #000000; stroke-width: 0.8"/>
      </g>
     </g>
     <g id="text_14">
      <!-- 1,750,000 -->
      <g transform="translate(24.47625 33.471405) scale(0.1 -0.1)">
       <use xlink:href="#DejaVuSans-31"/>
       <use xlink:href="#DejaVuSans-2c" x="63.623047"/>
       <use xlink:href="#DejaVuSans-37" x="95.410156"/>
       <use xlink:href="#DejaVuSans-35" x="159.033203"/>
       <use xlink:href="#DejaVuSans-30" x="222.65625"/>
       <use xlink:href="#DejaVuSans-2c" x="286.279297"/>
       <use xlink:href="#DejaVuSans-30" x="318.066406"/>
       <use xlink:href="#DejaVuSans-30" x="381.689453"/>
       <use xlink:href="#DejaVuSans-30" x="445.3125"/>
      </g>
     </g>
    </g>
    <g id="text_15">
     <!-- Cumulative Payload Mass (kg) -->
     <g transform="translate(18.396562 326.863281) rotate(-90) scale(0.1 -0.1)">
      <defs>
       <path id="DejaVuSans-43" d="M 4122 4306 
L 4122 3641 
Q 3803 3938 3442 4084 
Q 3081 4231 2675 4231 
Q 1875 4231 1450 3742 
Q 1025 3253 1025 2328 
Q 1025 1406 1450 917 
Q 1875 428 2675 428 
Q 3081 428 3442 575 
Q 3803 722 4122 1019 
L 4122 359 
Q 3791 134 3420 21 
Q 3050 -91 2638 -91 
Q 1578 -91 968 557 
Q 359 1206 359 2328 
Q 359 3453 968 4101 
Q 1578 4750 2638 4750 
Q 3056 4750 3426 4639 
Q 3797 4528 4122 4306 
z
" transform="scale(0.015625)"/>
       <path id="DejaVuSans-6d" d="M 3328 2828 
Q 3544 3216 3844 3400 
Q 4144 3584 4550 3584 
Q 5097 3584 5394 3201 
Q 5691 2819 5691 2113 
L 5691 0 
L 5113 0 
L 5113 2094 
Q 5113 2597 4934 2840 
Q 4756 3084 4391 3084 
Q 3944 3084 3684 2787 
Q 3425 2491 3425 1978 
L 3425 0 
L 2847 0 
L 2847 2094 
Q 2847 2600 2669 2842 
Q 2491 3084 2119 3084 
Q 1678 3084 1418 2786 
Q 1159 2488 1159 1978 
L 1159 0 
L 581 0 
L 581 3500 
L 1159 3500 
L 1159 2956 
Q 1356 3278 1631 3431 
Q 1906 3584 2284 3584 
Q 2666 3584 2933 3390 
Q 3200 3197 3328 2828 
z
" transform="scale(0.015625)"/>
       <path id="DejaVuSans-74" d="M 1172 4494 
L 1172 3500 
L 2356 3500 
L 2356 3053 
L 1172 3053 
L 1172 1153 
Q 1172 725 1289 603 
Q 1406 481 1766 481 
L 2356 481 
L 2356 0 
L 1766 0 
Q 1100 0 847 248 
Q 594 497 594 1153 
L 594 3053 
L 172 3053 
L 172 3500 
L 594 3500 
L 594 4494 
L 1172 4494 
z
" transform="scale(0.015625)"/>
       <path id="DejaVuSans-69" d="M 603 3500 
L 1178 3500 
L 1178 0 
L 603 0 
L 603 3500 
z
M 603 4863 
L 1178 4863 
L 1178 4134 
L 603 4134 
L 603 4863 
z
" transform="scale(0.015625)"/>
       <path id="DejaVuSans-50" d="M 1259 4147 
L 1259 2394 
L 2053 2394 
Q 2494 2394 2734 2622 
Q 2975 2850 2975 3272 
Q 2975 3691 2734 3919 
Q 2494 4147 2053 4147 
L 1259 4147 
z
M 628 4666 
L 2053 4666 
Q 2838 4666 3239 4311 
Q 3641 3956 3641 3272 
Q 3641 2581 3239 2228 
Q 2838 1875 2053 1875 
L 1259 1875 
L 1259 0 
L 628 0 
L 628 4666 
z
" transform="scale(0.015625)"/>
       <path id="DejaVuSans-64" d="M 2906 2969 
L 2906 4863 
L 3481 4863 
L 3481 0 
L 2906 0 
L 2906 525 
Q 2725 213 2448 61 
Q 2172 -91 1784 -91 
Q 1150 -91 751 415 
Q 353 922 353 1747 
Q 353 2572 751 3078 
Q 1150 3584 1784 3584 
Q 2172 3584 2448 3432 
Q 2725 3281 2906 2969 
z
M 947 1747 
Q 947 1113 1208 752 
Q 1469 391 1925 391 
Q 2381 391 2643 752 
Q 2906 1113 2906 1747 
Q 2906 2381 2643 2742 
Q 2381 3103 1925 3103 
Q 1469 3103 1208 2742 
Q 947 2381 947 1747 
z
" transform="scale(0.015625)"/>
       <path id="DejaVuSans-73" d="M 2834 3397 
L 2834 2853 
Q 2591 2978 2328 3040 
Q 2066 3103 1784 3103 
Q 1356 3103 1142 2972 
Q 928 2841 928 2578 
Q 928 2378 1081 2264 
Q 1234 2150 1697 2047 
L 1894 2003 
Q 2506 1872 2764 1633 
Q 3022 1394 3022 966 
Q 3022 478 2636 193 
Q 2250 -91 1575 -91 
Q 1294 -91 989 -36 
Q 684 19 347 128 
L 347 722 
Q 666 556 975 473 
Q 1284 391 1588 391 
Q 1994 391 2212 530 
Q 2431 669 2431 922 
Q 2431 1156 2273 1281 
Q 2116 1406 1581 1522 
L 1381 1569 
Q 847 1681 609 1914 
Q 372 2147 372 2553 
Q 372 3047 722 3315 
Q 1072 3584 1716 3584 
Q 2034 3584 2315 3537 
Q 2597 3491 2834 3397 
z
" transform="scale(0.015625)"/>
       <path id="DejaVuSans-28" d="M 1984 4856 
Q 1566 4138 1362 3434 
Q 1159 2731 1159 2009 
Q 1159 1288 1364 580 
Q 1569 -128 1984 -844 
L 1484 -844 
Q 1016 -109 783 600 
Q 550 1309 550 2009 
Q 550 2706 781 3412 
Q 1013 4119 1484 4856 
L 1984 4856 
z
" transform="scale(0.015625)"/>
       <path id="DejaVuSans-6b" d="M 581 4863 
L 1159 4863 
L 1159 1991 
L 2875 3500 
L 3609 3500 
L 1753 1863 
L 3688 0 
L 2938 0 
L 1159 1709 
L 1159 0 
L 581 0 
L 581 4863 
z
" transform="scale(0.015625)"/>
       <path id="DejaVuSans-67" d="M 2906 1791 
Q 2906 2416 2648 2759 
Q 2391 3103 1925 3103 
Q 1463 3103 1205 2759 
Q 947 2416 947 1791 
Q 947 1169 1205 825 
Q 1463 481 1925 481 
Q 2391 481 2648 825 
Q 2906 1169 2906 1791 
z
M 3481 434 
Q 3481 -459 3084 -895 
Q 2688 -1331 1869 -1331 
Q 1566 -1331 1297 -1286 
Q 1028 -1241 775 -1147 
L 775 -588 
Q 1028 -725 1275 -790 
Q 1522 -856 1778 -856 
Q 2344 -856 2625 -561 
Q 2906 -266 2906 331 
L 2906 616 
Q 2728 306 2450 153 
Q 2172 0 1784 0 
Q 1141 0 747 490 
Q 353 981 353 1791 
Q 353 2603 747 3093 
Q 1141 3584 1784 3584 
Q 2172 3584 2450 3431 
Q 2728 3278 2906 2969 
L 2906 3500 
L 3481 3500 
L 3481 434 
z
" transform="scale(0.015625)"/>
       <path id="DejaVuSans-29" d="M 513 4856 
L 1013 4856 
Q 1481 4119 1714 3412 
Q 1947 2706 1947 2009 
Q 1947 1309 1714 600 
Q 1481 -109 1013 -844 
L 513 -844 
Q 928 -128 1133 580 
Q 1338 1288 1338 2009 
Q 1338 2731 1133 3434 
Q 928 4138 513 4856 
z
" transform="scale(0.015625)"/>
      </defs>
      <use xlink:href="#DejaVuSans-43"/>
      <use xlink:href="#DejaVuSans-75" x="69.824219"/>
      <use xlink:href="#DejaVuSans-6d" x="133.203125"/>
      <use xlink:href="#DejaVuSans-75" x="230.615234"/>
      <use xlink:href="#DejaVuSans-6c" x="293.994141"/>
      <use xlink:href="#DejaVuSans-61" x="321.777344"/>
      <use xlink:href="#DejaVuSans-74" x="383.056641"/>
      <use xlink:href="#DejaVuSans-69" x="422.265625"/>
      <use xlink:href="#DejaVuSans-76" x="450.048828"/>
      <use xlink:href="#DejaVuSans-65" x="509.228516"/>
      <use xlink:href="#DejaVuSans-20" x="570.751953"/>
      <use xlink:href="#DejaVuSans-50" x="602.539062"/>
      <use xlink:href="#DejaVuSans-61" x="658.341797"/>
      <use xlink:href="#DejaVuSans-79" x="719.621094"/>
      <use xlink:href="#DejaVuSans-6c" x="778.800781"/>
      <use xlink:href="#DejaVuSans-6f" x="806.583984"/>
      <use xlink:href="#DejaVuSans-61" x="867.765625"/>
      <use xlink:href="#DejaVuSans-64" x="929.044922"/>
      <use xlink:href="#DejaVuSans-20" x="992.521484"/>
      <use xlink:href="#DejaVuSans-4d" x="1024.308594"/>
      <use xlink:href="#DejaVuSans-61" x="1110.587891"/>
      <use xlink:href="#DejaVuSans-73" x="1171.867188"/>
      <use xlink:href="#DejaVuSans-73" x="1223.966797"/>
      <use xlink:href="#DejaVuSans-20" x="1276.066406"/>
      <use xlink:href="#DejaVuSans-28" x="1307.853516"/>
      <use xlink:href="#DejaVuSans-6b" x="1346.867188"/>
      <use xlink:href="#DejaVuSans-67" x="1404.777344"/>
      <use xlink:href="#DejaVuSans-29" x="1468.253906"/>
     </g>
    </g>
   </g>
   <g id="line2d_29">
    <path d="M 106.728679 455.7 
L 127.839534 455.7 
L 127.839534 453.362933 
L 186.300363 453.362933 
L 186.300363 452.756756 
L 226.898161 452.756756 
L 226.898161 451.393467 
L 249.632927 451.393467 
L 249.632927 450.103212 
L 301.598109 450.103212 
L 301.598109 450.103212 
L 324.332876 450.103212 
L 324.332876 448.625504 
L 355.187202 448.625504 
L 355.187202 447.966256 
L 387.66544 447.966256 
L 387.66544 447.073058 
L 390.913264 447.073058 
L 390.913264 444.735992 
L 407.152383 444.735992 
L 407.152383 443.090064 
L 472.10886 443.090064 
L 472.10886 442.284262 
L 488.347979 442.284262 
L 488.347979 442.168626 
L 511.082746 442.168626 
L 511.082746 440.953838 
L 563.047927 440.953838 
L 563.047927 438.616772 
L 566.295751 438.616772 
L 566.295751 437.302171 
L 597.150078 437.302171 
L 597.150078 436.450116 
L 671.850026 436.450116 
L 671.850026 435.913321 
L 684.841321 435.913321 
L 684.841321 433.576254 
L 697.832617 433.576254 
L 697.832617 433.576254 
" clip-path="url(#p34708a8ad4)" style="fill: none; stroke: #808080; stroke-width: 1.5; stroke-linecap: square"/>
   </g>
   <g id="line2d_30">
    <path d="M 106.728679 455.7 
L 118.096062 455.7 
L 118.096062 455.7 
L 155.446036 455.7 
L 155.446036 454.67023 
L 165.189508 454.67023 
L 165.189508 454.365924 
L 191.172098 454.365924 
L 191.172098 453.842519 
L 210.659041 453.842519 
L 210.659041 452.359455 
L 249.632927 452.359455 
L 249.632927 450.022388 
L 254.504663 450.022388 
L 254.504663 449.377991 
L 280.487254 449.377991 
L 280.487254 449.289864 
L 317.837228 449.289864 
L 317.837228 448.413464 
L 335.700259 448.413464 
L 335.700259 446.840812 
L 356.811114 446.840812 
L 356.811114 445.530107 
L 397.408912 445.530107 
L 397.408912 444.873538 
L 434.758886 444.873538 
L 434.758886 443.151168 
L 439.630622 443.151168 
L 439.630622 440.814101 
L 460.741477 440.814101 
L 460.741477 439.402123 
L 515.954482 439.402123 
L 515.954482 437.683405 
L 561.424016 437.683405 
L 561.424016 436.953072 
L 623.132668 436.953072 
L 623.132668 435.662816 
L 652.363083 435.662816 
L 652.363083 434.689039 
L 655.610907 434.689039 
L 655.610907 434.080427 
L 684.841321 434.080427 
L 684.841321 433.009272 
L 697.832617 433.009272 
L 697.832617 433.009272 
" clip-path="url(#p34708a8ad4)" style="fill: none; stroke: #90ee90; stroke-width: 1.5; stroke-linecap: square"/>
   </g>
   <g id="line2d_31">
    <path d="M 106.728679 455.7 
L 122.967798 455.7 
L 122.967798 453.362933 
L 191.172098 453.362933 
L 191.172098 452.182227 
L 204.163394 452.182227 
L 204.163394 449.247504 
L 269.11987 449.247504 
L 269.11987 447.673636 
L 306.469845 447.673636 
L 306.469845 447.066242 
L 338.948083 447.066242 
L 338.948083 443.750528 
L 369.802409 443.750528 
L 369.802409 442.728062 
L 390.913264 442.728062 
L 390.913264 441.827317 
L 439.630622 441.827317 
L 439.630622 441.275185 
L 459.117565 441.275185 
L 459.117565 439.692796 
L 616.637021 439.692796 
L 616.637021 435.895062 
L 655.610907 435.895062 
L 655.610907 435.257968 
L 675.09785 435.257968 
L 675.09785 433.564569 
L 697.832617 433.564569 
L 697.832617 433.564569 
" clip-path="url(#p34708a8ad4)" style="fill: none; stroke: #add8e6; stroke-width: 1.5; stroke-linecap: square"/>
   </g>
   <g id="line2d_32">
    <path d="M 106.728679 455.7 
L 116.47215 455.7 
L 116.47215 451.902266 
L 135.959093 451.902266 
L 135.959093 448.968761 
L 152.198212 448.968761 
L 152.198212 445.171027 
L 183.052539 445.171027 
L 183.052539 441.373293 
L 213.906865 441.373293 
L 213.906865 440.892004 
L 231.769896 440.892004 
L 231.769896 437.09427 
L 288.606813 437.09427 
L 288.606813 433.296536 
L 350.315466 433.296536 
L 350.315466 430.246177 
L 358.435026 430.246177 
L 358.435026 426.448443 
L 373.050233 426.448443 
L 373.050233 422.696964 
L 400.656736 422.696964 
L 400.656736 421.647475 
L 433.134974 421.647475 
L 433.134974 420.308531 
L 462.365389 420.308531 
L 462.365389 416.673418 
L 480.22842 416.673418 
L 480.22842 412.914635 
L 499.715363 412.914635 
L 499.715363 412.152654 
L 506.21101 412.152654 
L 506.21101 408.35492 
L 559.800104 408.35492 
L 559.800104 404.557187 
L 579.287047 404.557187 
L 579.287047 400.759453 
L 589.030518 400.759453 
L 589.030518 396.961719 
L 608.517461 396.961719 
L 608.517461 395.91223 
L 626.380492 395.91223 
L 626.380492 392.869175 
L 634.500052 392.869175 
L 634.500052 392.578989 
L 640.995699 392.578989 
L 640.995699 388.781255 
L 658.858731 388.781255 
L 658.858731 388.057738 
L 670.226114 388.057738 
L 670.226114 386.353627 
L 679.969585 386.353627 
L 679.969585 386.353627 
L 699.456528 386.353627 
L 699.456528 386.353627 
" clip-path="url(#p34708a8ad4)" style="fill: none; stroke: #ffc0cb; stroke-width: 1.5; stroke-linecap: square"/>
   </g>
   <g id="line2d_33">
    <path d="M 106.728679 455.7 
L 118.096062 455.7 
L 118.096062 454.847944 
L 137.583005 454.847944 
L 137.583005 451.050211 
L 144.078653 451.050211 
L 144.078653 449.832988 
L 161.941684 449.832988 
L 161.941684 446.035255 
L 181.428627 446.035255 
L 181.428627 442.237521 
L 207.411218 442.237521 
L 207.411218 438.439787 
L 218.778601 438.439787 
L 218.778601 434.642054 
L 223.650337 434.642054 
L 223.650337 430.84432 
L 239.889456 430.84432 
L 239.889456 427.046586 
L 262.624223 427.046586 
L 262.624223 423.248853 
L 288.606813 423.248853 
L 288.606813 420.084075 
L 298.350285 420.084075 
L 298.350285 416.286341 
L 306.469845 416.286341 
L 306.469845 412.488607 
L 314.589404 412.488607 
L 314.589404 408.690874 
L 324.332876 408.690874 
L 324.332876 404.932091 
L 342.195907 404.932091 
L 342.195907 401.134358 
L 355.187202 401.134358 
L 355.187202 400.324174 
L 360.058938 400.324174 
L 360.058938 398.620063 
L 377.921969 398.620063 
L 377.921969 397.565705 
L 399.032824 397.565705 
L 399.032824 397.565705 
L 496.467539 397.565705 
L 496.467539 397.030127 
L 522.45013 397.030127 
L 522.45013 393.802054 
L 525.697953 393.802054 
L 525.697953 390.754373 
L 616.637021 390.754373 
L 616.637021 387.589594 
L 619.884845 387.589594 
L 619.884845 383.78334 
L 637.747876 383.78334 
L 637.747876 383.631431 
L 650.739171 383.631431 
L 650.739171 380.101486 
L 662.106554 380.101486 
L 662.106554 380.022367 
L 676.721762 380.022367 
L 676.721762 376.224633 
L 678.345674 376.224633 
L 678.345674 375.129133 
L 681.593497 375.129133 
L 681.593497 374.401477 
L 697.832617 374.401477 
L 697.832617 374.401477 
" clip-path="url(#p34708a8ad4)" style="fill: none; stroke: #800080; stroke-width: 1.5; stroke-linecap: square"/>
   </g>
   <g id="line2d_34">
    <path d="M 106.728679 455.7 
L 114.848238 455.7 
L 114.848238 452.170055 
L 126.215622 452.170055 
L 126.215622 452.170055 
L 135.959093 452.170055 
L 135.959093 448.640111 
L 155.446036 448.640111 
L 155.446036 448.103315 
L 158.69386 448.103315 
L 158.69386 448.103315 
L 160.317772 448.103315 
L 160.317772 444.573371 
L 189.548187 444.573371 
L 189.548187 441.262526 
L 196.043834 441.262526 
L 196.043834 437.67172 
L 205.787306 437.67172 
L 205.787306 434.287842 
L 215.530777 434.287842 
L 215.530777 430.840668 
L 231.769896 430.840668 
L 231.769896 426.884696 
L 252.880751 426.884696 
L 252.880751 426.884696 
L 264.248135 426.884696 
L 264.248135 423.719918 
L 278.863342 423.719918 
L 278.863342 423.719918 
L 285.35899 423.719918 
L 285.35899 419.763945 
L 295.102461 419.763945 
L 295.102461 416.599167 
L 298.350285 416.599167 
L 298.350285 412.643195 
L 309.717668 412.643195 
L 309.717668 408.687222 
L 321.085052 408.687222 
L 321.085052 404.73125 
L 322.708964 404.73125 
L 322.708964 400.775277 
L 329.204611 400.775277 
L 329.204611 396.819304 
L 340.571995 396.819304 
L 340.571995 396.819304 
L 363.306762 396.819304 
L 363.306762 395.821182 
L 377.921969 395.821182 
L 377.921969 391.86521 
L 379.545881 391.86521 
L 379.545881 390.891432 
L 381.169793 390.891432 
L 381.169793 390.721021 
L 397.408912 390.721021 
L 397.408912 389.868965 
L 410.400207 389.868965 
L 410.400207 385.912992 
L 416.895855 385.912992 
L 416.895855 382.480425 
L 423.391503 382.480425 
L 423.391503 381.830916 
L 426.639326 381.830916 
L 426.639326 377.874943 
L 434.758886 377.874943 
L 434.758886 374.442376 
L 438.00671 374.442376 
L 438.00671 370.486404 
L 455.869741 370.486404 
L 455.869741 370.321105 
L 465.613212 370.321105 
L 465.613212 366.425993 
L 468.861036 366.425993 
L 468.861036 362.993426 
L 480.22842 362.993426 
L 480.22842 359.037454 
L 494.843627 359.037454 
L 494.843627 354.971931 
L 499.715363 354.971931 
L 499.715363 351.51502 
L 507.834922 351.51502 
L 507.834922 347.619908 
L 517.578394 347.619908 
L 517.578394 344.713668 
L 530.569689 344.713668 
L 530.569689 340.648146 
L 538.689249 340.648146 
L 538.689249 336.72869 
L 556.55228 336.72869 
L 556.55228 333.563912 
L 556.55228 333.563912 
L 556.55228 329.644456 
L 561.424016 329.644456 
L 561.424016 327.855139 
L 572.791399 327.855139 
L 572.791399 326.759639 
L 580.910959 326.759639 
L 580.910959 322.694117 
L 593.902254 322.694117 
L 593.902254 318.701627 
L 600.397902 318.701627 
L 600.397902 317.788711 
L 603.645725 317.788711 
L 603.645725 316.69321 
L 618.260933 316.69321 
L 618.260933 315.086477 
L 636.123964 315.086477 
L 636.123964 313.747532 
L 640.995699 313.747532 
L 640.995699 312.88866 
L 660.482642 312.88866 
L 660.482642 311.427994 
L 665.354378 311.427994 
L 665.354378 311.184549 
L 673.473938 311.184549 
L 673.473938 310.648971 
L 673.473938 310.648971 
L 673.473938 309.650849 
L 675.09785 309.650849 
L 675.09785 305.585326 
L 692.960881 305.585326 
L 692.960881 301.519804 
L 696.208705 301.519804 
L 696.208705 301.422426 
L 697.832617 301.422426 
L 697.832617 301.422426 
" clip-path="url(#p34708a8ad4)" style="fill: none; stroke: #ffa500; stroke-width: 1.5; stroke-linecap: square"/>
   </g>
   <g id="line2d_35">
    <path d="M 106.728679 455.7 
L 121.343886 455.7 
L 121.343886 454.239333 
L 129.463446 454.239333 
L 129.463446 453.326416 
L 134.335181 453.326416 
L 134.335181 452.266946 
L 135.959093 452.266946 
L 135.959093 448.615279 
L 147.326477 448.615279 
L 147.326477 444.379345 
L 155.446036 444.379345 
L 155.446036 440.67899 
L 158.69386 440.67899 
L 158.69386 436.662156 
L 166.81342 436.662156 
L 166.81342 435.652835 
L 174.932979 435.652835 
L 174.932979 431.489935 
L 183.052539 431.489935 
L 183.052539 427.619168 
L 184.676451 427.619168 
L 184.676451 426.287527 
L 199.291658 426.287527 
L 199.291658 422.562826 
L 204.163394 422.562826 
L 204.163394 419.398048 
L 205.787306 419.398048 
L 205.787306 415.527281 
L 215.530777 415.527281 
L 215.530777 414.066614 
L 225.274249 414.066614 
L 225.274249 413.372311 
L 228.522073 413.372311 
L 228.522073 407.724399 
L 239.889456 407.724399 
L 239.889456 403.488466 
L 248.009016 403.488466 
L 248.009016 399.252532 
L 262.624223 399.252532 
L 262.624223 397.892164 
L 282.111166 397.892164 
L 282.111166 394.167464 
L 295.102461 394.167464 
L 295.102461 390.734897 
L 296.726373 390.734897 
L 296.726373 389.736775 
L 301.598109 389.736775 
L 301.598109 388.17873 
L 306.469845 388.17873 
L 306.469845 383.942796 
L 316.213316 383.942796 
L 316.213316 380.072029 
L 322.708964 380.072029 
L 322.708964 375.836096 
L 330.828523 375.836096 
L 330.828523 371.91664 
L 332.452435 371.91664 
L 332.452435 370.309906 
L 334.076347 370.309906 
L 334.076347 367.145128 
L 343.819819 367.145128 
L 343.819819 366.049628 
L 350.315466 366.049628 
L 350.315466 362.057139 
L 356.811114 362.057139 
L 356.811114 358.137683 
L 358.435026 358.137683 
L 358.435026 357.333343 
L 369.802409 357.333343 
L 369.802409 353.340853 
L 369.802409 353.340853 
L 379.545881 353.340853 
L 379.545881 352.225878 
L 386.041528 352.225878 
L 386.041528 348.695933 
L 387.66544 348.695933 
L 387.66544 344.459999 
L 400.656736 344.459999 
L 400.656736 343.934159 
L 410.400207 343.934159 
L 410.400207 340.306837 
L 415.271943 340.306837 
L 415.271943 336.387381 
L 425.015415 336.387381 
L 425.015415 332.321858 
L 431.511062 332.321858 
L 431.511062 329.400525 
L 438.00671 329.400525 
L 438.00671 325.481069 
L 444.502358 325.481069 
L 444.502358 321.561613 
L 446.126269 321.561613 
L 446.126269 319.321924 
L 454.245829 319.321924 
L 454.245829 318.089365 
L 460.741477 318.089365 
L 460.741477 314.169909 
L 462.365389 314.169909 
L 462.365389 311.248575 
L 467.237124 311.248575 
L 467.237124 307.329119 
L 476.980596 307.329119 
L 476.980596 303.409663 
L 485.100155 303.409663 
L 485.100155 299.684963 
L 491.595803 299.684963 
L 491.595803 296.520185 
L 493.219715 296.520185 
L 493.219715 292.600729 
L 501.339275 292.600729 
L 501.339275 288.681273 
L 506.21101 288.681273 
L 506.21101 284.956573 
L 514.33057 284.956573 
L 514.33057 281.037117 
L 519.202306 281.037117 
L 519.202306 277.312417 
L 525.697953 277.312417 
L 525.697953 273.392961 
L 532.193601 273.392961 
L 532.193601 269.473505 
L 538.689249 269.473505 
L 538.689249 265.554049 
L 540.313161 265.554049 
L 540.313161 261.829349 
L 548.43272 261.829349 
L 548.43272 257.909893 
L 556.55228 257.909893 
L 556.55228 253.990437 
L 563.047927 253.990437 
L 563.047927 250.265737 
L 569.543575 250.265737 
L 569.543575 245.711378 
L 577.663135 245.711378 
L 577.663135 241.791922 
L 582.53487 241.791922 
L 582.53487 238.067221 
L 584.158782 238.067221 
L 584.158782 233.977354 
L 595.526166 233.977354 
L 595.526166 230.057898 
L 597.150078 230.057898 
L 597.150078 225.968031 
L 605.269637 225.968031 
L 605.269637 221.878164 
L 611.765285 221.878164 
L 611.765285 217.788297 
L 615.013109 217.788297 
L 615.013109 215.469489 
L 618.260933 215.469489 
L 618.260933 214.471367 
L 628.004404 214.471367 
L 628.004404 210.3815 
L 628.004404 210.3815 
L 631.252228 210.3815 
L 631.252228 206.462044 
L 634.500052 206.462044 
L 634.500052 202.372177 
L 644.243523 202.372177 
L 644.243523 198.28231 
L 649.115259 198.28231 
L 649.115259 198.087554 
L 652.363083 198.087554 
L 652.363083 193.997687 
L 658.858731 193.997687 
L 658.858731 189.90782 
L 660.482642 189.90782 
L 660.482642 185.988364 
L 678.345674 185.988364 
L 678.345674 181.898497 
L 684.841321 181.898497 
L 684.841321 177.80863 
L 686.465233 177.80863 
L 686.465233 176.93223 
L 694.584793 176.93223 
L 694.584793 171.296491 
L 697.832617 171.296491 
L 697.832617 171.296491 
" clip-path="url(#p34708a8ad4)" style="fill: none; stroke: #0000ff; stroke-width: 1.5; stroke-linecap: square"/>
   </g>
   <g id="line2d_36">
    <path d="M 106.728679 455.7 
L 109.976503 455.7 
L 109.976503 451.171933 
L 116.47215 451.171933 
L 116.47215 447.009033 
L 127.839534 447.009033 
L 127.839534 442.94351 
L 129.463446 442.94351 
L 129.463446 438.78061 
L 134.335181 438.78061 
L 134.335181 435.615832 
L 144.078653 435.615832 
L 144.078653 431.550309 
L 152.198212 431.550309 
L 152.198212 423.321886 
L 153.822124 423.321886 
L 153.822124 422.414812 
L 168.437332 422.414812 
L 168.437332 422.002417 
L 171.685155 422.002417 
L 171.685155 417.936895 
L 179.804715 417.936895 
L 179.804715 413.401281 
L 187.924275 413.401281 
L 187.924275 412.427503 
L 192.79601 412.427503 
L 192.79601 408.36198 
L 196.043834 408.36198 
L 196.043834 404.101702 
L 202.539482 404.101702 
L 202.539482 399.938802 
L 209.03513 399.938802 
L 209.03513 392.611123 
L 218.778601 392.611123 
L 218.778601 388.448223 
L 220.402513 388.448223 
L 220.402513 384.285323 
L 228.522073 384.285323 
L 228.522073 380.122422 
L 233.393808 380.122422 
L 233.393808 376.154278 
L 236.641632 376.154278 
L 236.641632 375.491865 
L 241.513368 375.491865 
L 241.513368 371.328965 
L 243.13728 371.328965 
L 243.13728 367.166065 
L 251.256839 367.166065 
L 251.256839 365.948842 
L 252.880751 365.948842 
L 252.880751 361.785942 
L 256.128575 361.785942 
L 256.128575 357.720419 
L 261.000311 357.720419 
L 261.000311 353.557519 
L 264.248135 353.557519 
L 264.248135 349.467652 
L 264.248135 349.467652 
L 269.11987 349.467652 
L 269.11987 345.304752 
L 270.743782 345.304752 
L 270.743782 345.012618 
L 273.991606 345.012618 
L 273.991606 340.849718 
L 280.487254 340.849718 
L 280.487254 336.686818 
L 282.111166 336.686818 
L 282.111166 332.523917 
L 290.230725 332.523917 
L 290.230725 328.361017 
L 298.350285 328.361017 
L 298.350285 323.808605 
L 304.845933 323.808605 
L 304.845933 323.443439 
L 306.469845 323.443439 
L 306.469845 319.280538 
L 311.34158 319.280538 
L 311.34158 315.117638 
L 314.589404 315.117638 
L 314.589404 310.954738 
L 317.837228 310.954738 
L 317.837228 306.986593 
L 322.708964 306.986593 
L 322.708964 302.823692 
L 324.332876 302.823692 
L 324.332876 298.855548 
L 330.828523 298.855548 
L 330.828523 294.692647 
L 338.948083 294.692647 
L 338.948083 290.529747 
L 340.571995 290.529747 
L 340.571995 286.366847 
L 347.067642 286.366847 
L 347.067642 281.631852 
L 353.56329 281.631852 
L 353.56329 277.468951 
L 360.058938 277.468951 
L 360.058938 273.500807 
L 364.930674 273.500807 
L 364.930674 265.467139 
L 382.793705 265.467139 
L 382.793705 261.498995 
L 384.417617 261.498995 
L 384.417617 260.281772 
L 389.289352 260.281772 
L 389.289352 256.21625 
L 390.913264 256.21625 
L 390.913264 252.248105 
L 392.537176 252.248105 
L 392.537176 251.030883 
L 395.785 251.030883 
L 395.785 246.867982 
L 405.528472 246.867982 
L 405.528472 242.899837 
L 413.648031 242.899837 
L 413.648031 241.865198 
L 444.502358 241.865198 
L 444.502358 237.702298 
L 446.126269 237.702298 
L 446.126269 229.522564 
L 454.245829 229.522564 
L 454.245829 225.359664 
L 457.493653 225.359664 
L 457.493653 220.257798 
L 467.237124 220.257798 
L 467.237124 216.240964 
L 470.484948 216.240964 
L 470.484948 210.317961 
L 475.356684 210.317961 
L 475.356684 209.952794 
L 483.476244 209.952794 
L 483.476244 205.887271 
L 496.467539 205.887271 
L 496.467539 201.821749 
L 501.339275 201.821749 
L 501.339275 193.690704 
L 509.458834 193.690704 
L 509.458834 189.625181 
L 517.578394 189.625181 
L 517.578394 186.460403 
L 520.826218 186.460403 
L 520.826218 184.634569 
L 522.45013 184.634569 
L 522.45013 180.569047 
L 528.945777 180.569047 
L 528.945777 180.179536 
L 533.817513 180.179536 
L 533.817513 176.211391 
L 541.937073 176.211391 
L 541.937073 172.243246 
L 546.808808 172.243246 
L 546.808808 169.078468 
L 561.424016 169.078468 
L 561.424016 168.808732 
L 572.791399 168.808732 
L 572.791399 167.332241 
L 574.415311 167.332241 
L 574.415311 159.201196 
L 579.287047 159.201196 
L 579.287047 155.233051 
L 582.53487 155.233051 
L 582.53487 154.513916 
L 587.406606 154.513916 
L 587.406606 150.351016 
L 592.278342 150.351016 
L 592.278342 146.285493 
L 598.77399 146.285493 
L 598.77399 138.154448 
L 608.517461 138.154448 
L 608.517461 137.482054 
L 611.765285 137.482054 
L 611.765285 133.319154 
L 615.013109 133.319154 
L 615.013109 129.351009 
L 618.260933 129.351009 
L 618.260933 124.141298 
L 623.132668 124.141298 
L 623.132668 115.912875 
L 628.004404 115.912875 
L 628.004404 114.939097 
L 629.628316 114.939097 
L 629.628316 109.826763 
L 634.500052 109.826763 
L 634.500052 105.566485 
L 639.371788 105.566485 
L 639.371788 101.59834 
L 640.995699 101.59834 
L 640.995699 97.43544 
L 644.243523 97.43544 
L 644.243523 93.175162 
L 649.115259 93.175162 
L 649.115259 84.995428 
L 655.610907 84.995428 
L 655.610907 80.73515 
L 657.234819 80.73515 
L 657.234819 75.062894 
L 662.106554 75.062894 
L 662.106554 70.899993 
L 670.226114 70.899993 
L 670.226114 66.834471 
L 676.721762 66.834471 
L 676.721762 64.947776 
L 683.217409 64.947776 
L 683.217409 64.753021 
L 686.465233 64.753021 
L 686.465233 60.736187 
L 696.208705 60.736187 
L 696.208705 56.281153 
L 699.456528 56.281153 
L 699.456528 56.281153 
L 699.456528 52.26432 
L 699.456528 52.26432 
" clip-path="url(#p34708a8ad4)" style="fill: none; stroke: #008000; stroke-width: 1.5; stroke-linecap: square"/>
   </g>
   <g id="line2d_37">
    <path d="M 106.728679 455.7 
L 111.600415 455.7 
L 111.600415 454.482778 
L 114.848238 454.482778 
L 114.848238 450.2225 
L 118.096062 450.2225 
L 118.096062 446.205666 
L 121.343886 446.205666 
L 121.343886 446.205666 
L 121.343886 442.188832 
L 126.215622 442.188832 
L 126.215622 438.171999 
L 127.839534 438.171999 
L 127.839534 437.68511 
L 129.463446 437.68511 
L 129.463446 437.07236 
L 139.206917 437.07236 
L 139.206917 429.57427 
L 144.078653 429.57427 
L 144.078653 425.41137 
L 148.950389 425.41137 
L 148.950389 421.394536 
L 153.822124 421.394536 
L 153.822124 419.909525 
L 157.069948 419.909525 
L 157.069948 415.844003 
L 161.941684 415.844003 
L 161.941684 411.462002 
L 168.437332 411.462002 
L 168.437332 407.445168 
L 173.309067 407.445168 
L 173.309067 399.265434 
L 179.804715 399.265434 
L 179.804715 395.248601 
L 184.676451 395.248601 
L 184.676451 391.0857 
L 189.548187 391.0857 
L 189.548187 386.9228 
L 192.79601 386.9228 
L 192.79601 382.832933 
L 199.291658 382.832933 
L 199.291658 382.832933 
L 199.291658 378.816099 
L 205.787306 378.816099 
L 205.787306 374.799266 
L 220.402513 374.799266 
L 220.402513 374.614735 
L 222.026425 374.614735 
L 222.026425 370.597901 
L 223.650337 370.597901 
L 223.650337 367.433123 
L 225.274249 367.433123 
L 225.274249 367.433123 
L 225.274249 363.270223 
L 230.145984 363.270223 
L 230.145984 359.107322 
L 243.13728 359.107322 
L 243.13728 355.333933 
L 251.256839 355.333933 
L 251.256839 351.414477 
L 252.880751 351.414477 
L 252.880751 348.249699 
L 257.752487 348.249699 
L 257.752487 344.47631 
L 261.000311 344.47631 
L 261.000311 340.556854 
L 262.624223 340.556854 
L 262.624223 336.783465 
L 272.367694 336.783465 
L 272.367694 332.766631 
L 273.991606 332.766631 
L 273.991606 328.993242 
L 285.35899 328.993242 
L 285.35899 328.257796 
L 291.854637 328.257796 
L 291.854637 324.33834 
L 296.726373 324.33834 
L 296.726373 316.402051 
L 298.350285 316.402051 
L 298.350285 312.239151 
L 303.222021 312.239151 
L 303.222021 308.319695 
L 306.469845 308.319695 
L 306.469845 304.260258 
L 311.34158 304.260258 
L 311.34158 300.340802 
L 316.213316 300.340802 
L 316.213316 292.781852 
L 321.085052 292.781852 
L 321.085052 285.222901 
L 322.708964 285.222901 
L 322.708964 281.303445 
L 325.956788 281.303445 
L 325.956788 277.66395 
L 334.076347 277.66395 
L 334.076347 273.50105 
L 337.324171 273.50105 
L 337.324171 269.727661 
L 338.948083 269.727661 
L 338.948083 265.564761 
L 343.819819 265.564761 
L 343.819819 261.304482 
L 343.819819 261.304482 
L 345.443731 261.304482 
L 345.443731 257.531093 
L 348.691554 257.531093 
L 348.691554 256.47211 
L 350.315466 256.47211 
L 350.315466 252.698721 
L 355.187202 252.698721 
L 355.187202 248.53582 
L 356.811114 248.53582 
L 356.811114 244.762431 
L 361.68285 244.762431 
L 361.68285 243.204386 
L 363.306762 243.204386 
L 363.306762 239.564892 
L 366.554585 239.564892 
L 366.554585 235.401991 
L 371.426321 235.401991 
L 371.426321 227.599596 
L 377.921969 227.599596 
L 377.921969 223.960101 
L 379.545881 223.960101 
L 379.545881 220.040646 
L 387.66544 220.040646 
L 387.66544 216.267256 
L 387.66544 216.267256 
L 390.913264 216.267256 
L 390.913264 209.329089 
L 395.785 209.329089 
L 395.785 201.916205 
L 400.656736 201.916205 
L 400.656736 200.991116 
L 402.280648 200.991116 
L 402.280648 197.217727 
L 412.024119 197.217727 
L 412.024119 193.298271 
L 420.143679 193.298271 
L 420.143679 192.324493 
L 425.015415 192.324493 
L 425.015415 185.085916 
L 429.88715 185.085916 
L 429.88715 180.825637 
L 434.758886 180.825637 
L 434.758886 179.997926 
L 436.382798 179.997926 
L 436.382798 179.773957 
L 441.254534 179.773957 
L 441.254534 175.854501 
L 442.878446 175.854501 
L 442.878446 171.594223 
L 447.750181 171.594223 
L 447.750181 167.674767 
L 449.374093 167.674767 
L 449.374093 164.251938 
L 450.998005 164.251938 
L 450.998005 161.08716 
L 455.869741 161.08716 
L 455.869741 157.167704 
L 467.237124 157.167704 
L 467.237124 153.568621 
L 472.10886 153.568621 
L 472.10886 145.388887 
L 478.604508 145.388887 
L 478.604508 141.128609 
L 485.100155 141.128609 
L 485.100155 135.653543 
L 488.347979 135.653543 
L 488.347979 135.093621 
L 491.595803 135.093621 
L 491.595803 130.86499 
L 493.219715 130.86499 
L 493.219715 126.945535 
L 494.843627 126.945535 
L 494.843627 123.026079 
L 498.091451 123.026079 
L 498.091451 118.765801 
L 499.715363 118.765801 
L 499.715363 114.846345 
L 504.587098 114.846345 
L 504.587098 106.666611 
L 507.834922 106.666611 
L 507.834922 102.747155 
L 509.458834 102.747155 
L 509.458834 98.486877 
L 519.202306 98.486877 
L 519.202306 96.58801 
L 520.826218 96.58801 
L 520.826218 92.327732 
L 522.45013 92.327732 
L 522.45013 91.110509 
L 528.945777 91.110509 
L 528.945777 87.191053 
L 530.569689 87.191053 
L 530.569689 82.930775 
L 533.817513 82.930775 
L 533.817513 79.011319 
L 538.689249 79.011319 
L 538.689249 78.651752 
L 540.313161 78.651752 
L 540.313161 74.732296 
L 541.937073 74.732296 
L 541.937073 70.472018 
L 546.808808 70.472018 
L 546.808808 66.552562 
L 553.304456 66.552562 
L 553.304456 62.633106 
L 559.800104 62.633106 
L 559.800104 58.71365 
L 561.424016 58.71365 
L 561.424016 54.794194 
L 569.543575 54.794194 
L 569.543575 50.899083 
L 571.167487 50.899083 
L 571.167487 47.3 
L 574.415311 47.3 
L 574.415311 47.3 
" clip-path="url(#p34708a8ad4)" style="fill: none; stroke: #ff0000; stroke-width: 1.5; stroke-linecap: square"/>
   </g>
   <g id="patch_3">
    <path d="M 82.37 476.12 
L 82.37 26.88 
" style="fill: none; stroke: #000000; stroke-width: 0.8; stroke-linejoin: miter; stroke-linecap: square"/>
   </g>
   <g id="patch_4">
    <path d="M 709.2 476.12 
L 709.2 26.88 
" style="fill: none; stroke: #000000; stroke-width: 0.8; stroke-linejoin: miter; stroke-linecap: square"/>
   </g>
   <g id="patch_5">
    <path d="M 82.37 476.12 
L 709.2 476.12 
" style="fill: none; stroke: #000000; stroke-width: 0.8; stroke-linejoin: miter; stroke-linecap: square"/>
   </g>
   <g id="patch_6">
    <path d="M 82.37 26.88 
L 709.2 26.88 
" style="fill: none; stroke: #000000; stroke-width: 0.8; stroke-linejoin: miter; stroke-linecap: square"/>
   </g>
   <g id="text_16">
    <!-- Cumulative Payload Mass to Orbit By Year -->
    <g transform="translate(270.179688 20.88) scale(0.12 -0.12)">
     <defs>
      <path id="DejaVuSans-4f" d="M 2522 4238 
Q 1834 4238 1429 3725 
Q 1025 3213 1025 2328 
Q 1025 1447 1429 934 
Q 1834 422 2522 422 
Q 3209 422 3611 934 
Q 4013 1447 4013 2328 
Q 4013 3213 3611 3725 
Q 3209 4238 2522 4238 
z
M 2522 4750 
Q 3503 4750 4090 4092 
Q 4678 3434 4678 2328 
Q 4678 1225 4090 567 
Q 3503 -91 2522 -91 
Q 1538 -91 948 565 
Q 359 1222 359 2328 
Q 359 3434 948 4092 
Q 1538 4750 2522 4750 
z
" transform="scale(0.015625)"/>
      <path id="DejaVuSans-62" d="M 3116 1747 
Q 3116 2381 2855 2742 
Q 2594 3103 2138 3103 
Q 1681 3103 1420 2742 
Q 1159 2381 1159 1747 
Q 1159 1113 1420 752 
Q 1681 391 2138 391 
Q 2594 391 2855 752 
Q 3116 1113 3116 1747 
z
M 1159 2969 
Q 1341 3281 1617 3432 
Q 1894 3584 2278 3584 
Q 2916 3584 3314 3078 
Q 3713 2572 3713 1747 
Q 3713 922 3314 415 
Q 2916 -91 2278 -91 
Q 1894 -91 1617 61 
Q 1341 213 1159 525 
L 1159 0 
L 581 0 
L 581 4863 
L 1159 4863 
L 1159 2969 
z
" transform="scale(0.015625)"/>
      <path id="DejaVuSans-42" d="M 1259 2228 
L 1259 519 
L 2272 519 
Q 2781 519 3026 730 
Q 3272 941 3272 1375 
Q 3272 1813 3026 2020 
Q 2781 2228 2272 2228 
L 1259 2228 
z
M 1259 4147 
L 1259 2741 
L 2194 2741 
Q 2656 2741 2882 2914 
Q 3109 3088 3109 3444 
Q 3109 3797 2882 3972 
Q 2656 4147 2194 4147 
L 1259 4147 
z
M 628 4666 
L 2241 4666 
Q 2963 4666 3353 4366 
Q 3744 4066 3744 3513 
Q 3744 3084 3544 2831 
Q 3344 2578 2956 2516 
Q 3422 2416 3680 2098 
Q 3938 1781 3938 1306 
Q 3938 681 3513 340 
Q 3088 0 2303 0 
L 628 0 
L 628 4666 
z
" transform="scale(0.015625)"/>
      <path id="DejaVuSans-59" d="M -13 4666 
L 666 4666 
L 1959 2747 
L 3244 4666 
L 3922 4666 
L 2272 2222 
L 2272 0 
L 1638 0 
L 1638 2222 
L -13 4666 
z
" transform="scale(0.015625)"/>
     </defs>
     <use xlink:href="#DejaVuSans-43"/>
     <use xlink:href="#DejaVuSans-75" x="69.824219"/>
     <use xlink:href="#DejaVuSans-6d" x="133.203125"/>
     <use xlink:href="#DejaVuSans-75" x="230.615234"/>
     <use xlink:href="#DejaVuSans-6c" x="293.994141"/>
     <use xlink:href="#DejaVuSans-61" x="321.777344"/>
     <use xlink:href="#DejaVuSans-74" x="383.056641"/>
     <use xlink:href="#DejaVuSans-69" x="422.265625"/>
     <use xlink:href="#DejaVuSans-76" x="450.048828"/>
     <use xlink:href="#DejaVuSans-65" x="509.228516"/>
     <use xlink:href="#DejaVuSans-20" x="570.751953"/>
     <use xlink:href="#DejaVuSans-50" x="602.539062"/>
     <use xlink:href="#DejaVuSans-61" x="658.341797"/>
     <use xlink:href="#DejaVuSans-79" x="719.621094"/>
     <use xlink:href="#DejaVuSans-6c" x="778.800781"/>
     <use xlink:href="#DejaVuSans-6f" x="806.583984"/>
     <use xlink:href="#DejaVuSans-61" x="867.765625"/>
     <use xlink:href="#DejaVuSans-64" x="929.044922"/>
     <use xlink:href="#DejaVuSans-20" x="992.521484"/>
     <use xlink:href="#DejaVuSans-4d" x="1024.308594"/>
     <use xlink:href="#DejaVuSans-61" x="1110.587891"/>
     <use xlink:href="#DejaVuSans-73" x="1171.867188"/>
     <use xlink:href="#DejaVuSans-73" x="1223.966797"/>
     <use xlink:href="#DejaVuSans-20" x="1276.066406"/>
     <use xlink:href="#DejaVuSans-74" x="1307.853516"/>
     <use xlink:href="#DejaVuSans-6f" x="1347.0625"/>
     <use xlink:href="#DejaVuSans-20" x="1408.244141"/>
     <use xlink:href="#DejaVuSans-4f" x="1440.03125"/>
     <use xlink:href="#DejaVuSans-72" x="1518.742188"/>
     <use xlink:href="#DejaVuSans-62" x="1559.855469"/>
     <use xlink:href="#DejaVuSans-69" x="1623.332031"/>
     <use xlink:href="#DejaVuSans-74" x="1651.115234"/>
     <use xlink:href="#DejaVuSans-20" x="1690.324219"/>
     <use xlink:href="#DejaVuSans-42" x="1722.111328"/>
     <use xlink:href="#DejaVuSans-79" x="1790.714844"/>
     <use xlink:href="#DejaVuSans-20" x="1849.894531"/>
     <use xlink:href="#DejaVuSans-59" x="1881.681641"/>
     <use xlink:href="#DejaVuSans-65" x="1929.515625"/>
     <use xlink:href="#DejaVuSans-61" x="1991.039062"/>
     <use xlink:href="#DejaVuSans-72" x="2052.318359"/>
    </g>
   </g>
   <g id="legend_1">
    <g id="patch_7">
     <path d="M 89.37 181.66125 
L 146.82 181.66125 
Q 148.82 181.66125 148.82 179.66125 
L 148.82 33.88 
Q 148.82 31.88 146.82 31.88 
L 89.37 31.88 
Q 87.37 31.88 87.37 33.88 
L 87.37 179.66125 
Q 87.37 181.66125 89.37 181.66125 
z
" style="fill: #ffffff; opacity: 0.8; stroke: #cccccc; stroke-linejoin: miter"/>
    </g>
    <g id="text_17">
     <!-- Year -->
     <g transform="translate(107.5075 43.478437) scale(0.1 -0.1)">
      <use xlink:href="#DejaVuSans-59"/>
      <use xlink:href="#DejaVuSans-65" x="47.833984"/>
      <use xlink:href="#DejaVuSans-61" x="109.357422"/>
      <use xlink:href="#DejaVuSans-72" x="170.636719"/>
     </g>
    </g>
    <g id="line2d_38">
     <path d="M 91.37 54.656562 
L 101.37 54.656562 
L 101.37 54.656562 
L 111.37 54.656562 
L 111.37 54.656562 
" style="fill: none; stroke: #808080; stroke-width: 1.5; stroke-linecap: square"/>
    </g>
    <g id="text_18">
     <!-- 2017 -->
     <g transform="translate(119.37 58.156562) scale(0.1 -0.1)">
      <use xlink:href="#DejaVuSans-32"/>
      <use xlink:href="#DejaVuSans-30" x="63.623047"/>
      <use xlink:href="#DejaVuSans-31" x="127.246094"/>
      <use xlink:href="#DejaVuSans-37" x="190.869141"/>
     </g>
    </g>
    <g id="line2d_39">
     <path d="M 91.37 69.334687 
L 101.37 69.334687 
L 101.37 69.334687 
L 111.37 69.334687 
L 111.37 69.334687 
" style="fill: none; stroke: #90ee90; stroke-width: 1.5; stroke-linecap: square"/>
    </g>
    <g id="text_19">
     <!-- 2018 -->
     <g transform="translate(119.37 72.834687) scale(0.1 -0.1)">
      <defs>
       <path id="DejaVuSans-38" d="M 2034 2216 
Q 1584 2216 1326 1975 
Q 1069 1734 1069 1313 
Q 1069 891 1326 650 
Q 1584 409 2034 409 
Q 2484 409 2743 651 
Q 3003 894 3003 1313 
Q 3003 1734 2745 1975 
Q 2488 2216 2034 2216 
z
M 1403 2484 
Q 997 2584 770 2862 
Q 544 3141 544 3541 
Q 544 4100 942 4425 
Q 1341 4750 2034 4750 
Q 2731 4750 3128 4425 
Q 3525 4100 3525 3541 
Q 3525 3141 3298 2862 
Q 3072 2584 2669 2484 
Q 3125 2378 3379 2068 
Q 3634 1759 3634 1313 
Q 3634 634 3220 271 
Q 2806 -91 2034 -91 
Q 1263 -91 848 271 
Q 434 634 434 1313 
Q 434 1759 690 2068 
Q 947 2378 1403 2484 
z
M 1172 3481 
Q 1172 3119 1398 2916 
Q 1625 2713 2034 2713 
Q 2441 2713 2670 2916 
Q 2900 3119 2900 3481 
Q 2900 3844 2670 4047 
Q 2441 4250 2034 4250 
Q 1625 4250 1398 4047 
Q 1172 3844 1172 3481 
z
" transform="scale(0.015625)"/>
      </defs>
      <use xlink:href="#DejaVuSans-32"/>
      <use xlink:href="#DejaVuSans-30" x="63.623047"/>
      <use xlink:href="#DejaVuSans-31" x="127.246094"/>
      <use xlink:href="#DejaVuSans-38" x="190.869141"/>
     </g>
    </g>
    <g id="line2d_40">
     <path d="M 91.37 84.012812 
L 101.37 84.012812 
L 101.37 84.012812 
L 111.37 84.012812 
L 111.37 84.012812 
" style="fill: none; stroke: #add8e6; stroke-width: 1.5; stroke-linecap: square"/>
    </g>
    <g id="text_20">
     <!-- 2019 -->
     <g transform="translate(119.37 87.512812) scale(0.1 -0.1)">
      <defs>
       <path id="DejaVuSans-39" d="M 703 97 
L 703 672 
Q 941 559 1184 500 
Q 1428 441 1663 441 
Q 2288 441 2617 861 
Q 2947 1281 2994 2138 
Q 2813 1869 2534 1725 
Q 2256 1581 1919 1581 
Q 1219 1581 811 2004 
Q 403 2428 403 3163 
Q 403 3881 828 4315 
Q 1253 4750 1959 4750 
Q 2769 4750 3195 4129 
Q 3622 3509 3622 2328 
Q 3622 1225 3098 567 
Q 2575 -91 1691 -91 
Q 1453 -91 1209 -44 
Q 966 3 703 97 
z
M 1959 2075 
Q 2384 2075 2632 2365 
Q 2881 2656 2881 3163 
Q 2881 3666 2632 3958 
Q 2384 4250 1959 4250 
Q 1534 4250 1286 3958 
Q 1038 3666 1038 3163 
Q 1038 2656 1286 2365 
Q 1534 2075 1959 2075 
z
" transform="scale(0.015625)"/>
      </defs>
      <use xlink:href="#DejaVuSans-32"/>
      <use xlink:href="#DejaVuSans-30" x="63.623047"/>
      <use xlink:href="#DejaVuSans-31" x="127.246094"/>
      <use xlink:href="#DejaVuSans-39" x="190.869141"/>
     </g>
    </g>
    <g id="line2d_41">
     <path d="M 91.37 98.690937 
L 101.37 98.690937 
L 101.37 98.690937 
L 111.37 98.690937 
L 111.37 98.690937 
" style="fill: none; stroke: #ffc0cb; stroke-width: 1.5; stroke-linecap: square"/>
    </g>
    <g id="text_21">
     <!-- 2020 -->
     <g transform="translate(119.37 102.190937) scale(0.1 -0.1)">
      <use xlink:href="#DejaVuSans-32"/>
      <use xlink:href="#DejaVuSans-30" x="63.623047"/>
      <use xlink:href="#DejaVuSans-32" x="127.246094"/>
      <use xlink:href="#DejaVuSans-30" x="190.869141"/>
     </g>
    </g>
    <g id="line2d_42">
     <path d="M 91.37 113.369062 
L 101.37 113.369062 
L 101.37 113.369062 
L 111.37 113.369062 
L 111.37 113.369062 
" style="fill: none; stroke: #800080; stroke-width: 1.5; stroke-linecap: square"/>
    </g>
    <g id="text_22">
     <!-- 2021 -->
     <g transform="translate(119.37 116.869062) scale(0.1 -0.1)">
      <use xlink:href="#DejaVuSans-32"/>
      <use xlink:href="#DejaVuSans-30" x="63.623047"/>
      <use xlink:href="#DejaVuSans-32" x="127.246094"/>
      <use xlink:href="#DejaVuSans-31" x="190.869141"/>
     </g>
    </g>
    <g id="line2d_43">
     <path d="M 91.37 128.047187 
L 101.37 128.047187 
L 101.37 128.047187 
L 111.37 128.047187 
L 111.37 128.047187 
" style="fill: none; stroke: #ffa500; stroke-width: 1.5; stroke-linecap: square"/>
    </g>
    <g id="text_23">
     <!-- 2022 -->
     <g transform="translate(119.37 131.547187) scale(0.1 -0.1)">
      <use xlink:href="#DejaVuSans-32"/>
      <use xlink:href="#DejaVuSans-30" x="63.623047"/>
      <use xlink:href="#DejaVuSans-32" x="127.246094"/>
      <use xlink:href="#DejaVuSans-32" x="190.869141"/>
     </g>
    </g>
    <g id="line2d_44">
     <path d="M 91.37 142.725312 
L 101.37 142.725312 
L 101.37 142.725312 
L 111.37 142.725312 
L 111.37 142.725312 
" style="fill: none; stroke: #0000ff; stroke-width: 1.5; stroke-linecap: square"/>
    </g>
    <g id="text_24">
     <!-- 2023 -->
     <g transform="translate(119.37 146.225312) scale(0.1 -0.1)">
      <defs>
       <path id="DejaVuSans-33" d="M 2597 2516 
Q 3050 2419 3304 2112 
Q 3559 1806 3559 1356 
Q 3559 666 3084 287 
Q 2609 -91 1734 -91 
Q 1441 -91 1130 -33 
Q 819 25 488 141 
L 488 750 
Q 750 597 1062 519 
Q 1375 441 1716 441 
Q 2309 441 2620 675 
Q 2931 909 2931 1356 
Q 2931 1769 2642 2001 
Q 2353 2234 1838 2234 
L 1294 2234 
L 1294 2753 
L 1863 2753 
Q 2328 2753 2575 2939 
Q 2822 3125 2822 3475 
Q 2822 3834 2567 4026 
Q 2313 4219 1838 4219 
Q 1578 4219 1281 4162 
Q 984 4106 628 3988 
L 628 4550 
Q 988 4650 1302 4700 
Q 1616 4750 1894 4750 
Q 2613 4750 3031 4423 
Q 3450 4097 3450 3541 
Q 3450 3153 3228 2886 
Q 3006 2619 2597 2516 
z
" transform="scale(0.015625)"/>
      </defs>
      <use xlink:href="#DejaVuSans-32"/>
      <use xlink:href="#DejaVuSans-30" x="63.623047"/>
      <use xlink:href="#DejaVuSans-32" x="127.246094"/>
      <use xlink:href="#DejaVuSans-33" x="190.869141"/>
     </g>
    </g>
    <g id="line2d_45">
     <path d="M 91.37 157.403437 
L 101.37 157.403437 
L 101.37 157.403437 
L 111.37 157.403437 
L 111.37 157.403437 
" style="fill: none; stroke: #008000; stroke-width: 1.5; stroke-linecap: square"/>
    </g>
    <g id="text_25">
     <!-- 2024 -->
     <g transform="translate(119.37 160.903437) scale(0.1 -0.1)">
      <defs>
       <path id="DejaVuSans-34" d="M 2419 4116 
L 825 1625 
L 2419 1625 
L 2419 4116 
z
M 2253 4666 
L 3047 4666 
L 3047 1625 
L 3713 1625 
L 3713 1100 
L 3047 1100 
L 3047 0 
L 2419 0 
L 2419 1100 
L 313 1100 
L 313 1709 
L 2253 4666 
z
" transform="scale(0.015625)"/>
      </defs>
      <use xlink:href="#DejaVuSans-32"/>
      <use xlink:href="#DejaVuSans-30" x="63.623047"/>
      <use xlink:href="#DejaVuSans-32" x="127.246094"/>
      <use xlink:href="#DejaVuSans-34" x="190.869141"/>
     </g>
    </g>
    <g id="line2d_46">
     <path d="M 91.37 172.081562 
L 101.37 172.081562 
L 101.37 172.081562 
L 111.37 172.081562 
L 111.37 172.081562 
" style="fill: none; stroke: #ff0000; stroke-width: 1.5; stroke-linecap: square"/>
    </g>
    <g id="text_26">
     <!-- 2025 -->
     <g transform="translate(119.37 175.581562) scale(0.1 -0.1)">
      <use xlink:href="#DejaVuSans-32"/>
      <use xlink:href="#DejaVuSans-30" x="63.623047"/>
      <use xlink:href="#DejaVuSans-32" x="127.246094"/>
      <use xlink:href="#DejaVuSans-35" x="190.869141"/>
     </g>
    </g>
   </g>
  </g>
 </g>
 <defs>
  <clipPath id="p34708a8ad4">
   <rect x="82.37" y="26.88" width="626.83" height="449.24"/>
  </clipPath>
 </defs>
</svg>
