<?xml version="1.0" encoding="utf-8" standalone="no"?>
<!DOCTYPE svg PUBLIC "-//W3C//DTD SVG 1.1//EN"
  "http://www.w3.org/Graphics/SVG/1.1/DTD/svg11.dtd">
<svg xmlns:xlink="http://www.w3.org/1999/xlink" width="720pt" height="504pt" viewBox="0 0 720 504" xmlns="http://www.w3.org/2000/svg" version="1.1">
 <metadata>
  <rdf:RDF xmlns:dc="http://purl.org/dc/elements/1.1/" xmlns:cc="http://creativecommons.org/ns#" xmlns:rdf="http://www.w3.org/1999/02/22-rdf-syntax-ns#">
   <cc:Work>
    <dc:type rdf:resource="http://purl.org/dc/dcmitype/StillImage"/>
    <dc:date>2024-12-30T21:17:24.587056</dc:date>
    <dc:format>image/svg+xml</dc:format>
    <dc:creator>
     <cc:Agent>
      <dc:title>Matplotlib v3.8.2, https://matplotlib.org/</dc:title>
     </cc:Agent>
    </dc:creator>
   </cc:Work>
  </rdf:RDF>
 </metadata>
 <defs>
  <style type="text/css">*{stroke-linejoin: round; stroke-linecap: butt}</style>
 </defs>
 <g id="figure_1">
  <g id="patch_1">
   <path d="M 0 504 
L 720 504 
L 720 0 
L 0 0 
z
" style="fill: #ffffff"/>
  </g>
  <g id="axes_1">
   <g id="patch_2">
    <path d="M 82.37 476.12 
L 709.2 476.12 
L 709.2 26.88 
L 82.37 26.88 
z
" style="fill: #ffffff"/>
   </g>
   <g id="matplotlib.axis_1">
    <g id="xtick_1">
     <g id="line2d_1">
      <path d="M 106.665736 476.12 
L 106.665736 26.88 
" clip-path="url(#pe386cc305d)" style="fill: none; stroke: #b0b0b0; stroke-width: 0.8; stroke-linecap: square"/>
     </g>
     <g id="line2d_2">
      <defs>
       <path id="m0d14d49fc6" d="M 0 0 
L 0 3.5 
" style="stroke: #000000; stroke-width: 0.8"/>
      </defs>
      <g>
       <use xlink:href="#m0d14d49fc6" x="106.665736" y="476.12" style="stroke: #000000; stroke-width: 0.8"/>
      </g>
     </g>
     <g id="text_1">
      <!-- Jan 1 -->
      <g transform="translate(94.187611 490.718437) scale(0.1 -0.1)">
       <defs>
        <path id="DejaVuSans-4a" d="M 628 4666 
L 1259 4666 
L 1259 325 
Q 1259 -519 939 -900 
Q 619 -1281 -91 -1281 
L -331 -1281 
L -331 -750 
L -134 -750 
Q 284 -750 456 -515 
Q 628 -281 628 325 
L 628 4666 
z
" transform="scale(0.015625)"/>
        <path id="DejaVuSans-61" d="M 2194 1759 
Q 1497 1759 1228 1600 
Q 959 1441 959 1056 
Q 959 750 1161 570 
Q 1363 391 1709 391 
Q 2188 391 2477 730 
Q 2766 1069 2766 1631 
L 2766 1759 
L 2194 1759 
z
M 3341 1997 
L 3341 0 
L 2766 0 
L 2766 531 
Q 2569 213 2275 61 
Q 1981 -91 1556 -91 
Q 1019 -91 701 211 
Q 384 513 384 1019 
Q 384 1609 779 1909 
Q 1175 2209 1959 2209 
L 2766 2209 
L 2766 2266 
Q 2766 2663 2505 2880 
Q 2244 3097 1772 3097 
Q 1472 3097 1187 3025 
Q 903 2953 641 2809 
L 641 3341 
Q 956 3463 1253 3523 
Q 1550 3584 1831 3584 
Q 2591 3584 2966 3190 
Q 3341 2797 3341 1997 
z
" transform="scale(0.015625)"/>
        <path id="DejaVuSans-6e" d="M 3513 2113 
L 3513 0 
L 2938 0 
L 2938 2094 
Q 2938 2591 2744 2837 
Q 2550 3084 2163 3084 
Q 1697 3084 1428 2787 
Q 1159 2491 1159 1978 
L 1159 0 
L 581 0 
L 581 3500 
L 1159 3500 
L 1159 2956 
Q 1366 3272 1645 3428 
Q 1925 3584 2291 3584 
Q 2894 3584 3203 3211 
Q 3513 2838 3513 2113 
z
" transform="scale(0.015625)"/>
        <path id="DejaVuSans-20" transform="scale(0.015625)"/>
        <path id="DejaVuSans-31" d="M 794 531 
L 1825 531 
L 1825 4091 
L 703 3866 
L 703 4441 
L 1819 4666 
L 2450 4666 
L 2450 531 
L 3481 531 
L 3481 0 
L 794 0 
L 794 531 
z
" transform="scale(0.015625)"/>
       </defs>
       <use xlink:href="#DejaVuSans-4a"/>
       <use xlink:href="#DejaVuSans-61" x="29.492188"/>
       <use xlink:href="#DejaVuSans-6e" x="90.771484"/>
       <use xlink:href="#DejaVuSans-20" x="154.150391"/>
       <use xlink:href="#DejaVuSans-31" x="185.9375"/>
      </g>
     </g>
    </g>
    <g id="xtick_2">
     <g id="line2d_3">
      <path d="M 203.848682 476.12 
L 203.848682 26.88 
" clip-path="url(#pe386cc305d)" style="fill: none; stroke: #b0b0b0; stroke-width: 0.8; stroke-linecap: square"/>
     </g>
     <g id="line2d_4">
      <g>
       <use xlink:href="#m0d14d49fc6" x="203.848682" y="476.12" style="stroke: #000000; stroke-width: 0.8"/>
      </g>
     </g>
     <g id="text_2">
      <!-- Mar 1 -->
      <g transform="translate(189.644776 490.718437) scale(0.1 -0.1)">
       <defs>
        <path id="DejaVuSans-4d" d="M 628 4666 
L 1569 4666 
L 2759 1491 
L 3956 4666 
L 4897 4666 
L 4897 0 
L 4281 0 
L 4281 4097 
L 3078 897 
L 2444 897 
L 1241 4097 
L 1241 0 
L 628 0 
L 628 4666 
z
" transform="scale(0.015625)"/>
        <path id="DejaVuSans-72" d="M 2631 2963 
Q 2534 3019 2420 3045 
Q 2306 3072 2169 3072 
Q 1681 3072 1420 2755 
Q 1159 2438 1159 1844 
L 1159 0 
L 581 0 
L 581 3500 
L 1159 3500 
L 1159 2956 
Q 1341 3275 1631 3429 
Q 1922 3584 2338 3584 
Q 2397 3584 2469 3576 
Q 2541 3569 2628 3553 
L 2631 2963 
z
" transform="scale(0.015625)"/>
       </defs>
       <use xlink:href="#DejaVuSans-4d"/>
       <use xlink:href="#DejaVuSans-61" x="86.279297"/>
       <use xlink:href="#DejaVuSans-72" x="147.558594"/>
       <use xlink:href="#DejaVuSans-20" x="188.671875"/>
       <use xlink:href="#DejaVuSans-31" x="220.458984"/>
      </g>
     </g>
    </g>
    <g id="xtick_3">
     <g id="line2d_5">
      <path d="M 302.651344 476.12 
L 302.651344 26.88 
" clip-path="url(#pe386cc305d)" style="fill: none; stroke: #b0b0b0; stroke-width: 0.8; stroke-linecap: square"/>
     </g>
     <g id="line2d_6">
      <g>
       <use xlink:href="#m0d14d49fc6" x="302.651344" y="476.12" style="stroke: #000000; stroke-width: 0.8"/>
      </g>
     </g>
     <g id="text_3">
      <!-- May 1 -->
      <g transform="translate(287.543531 490.718437) scale(0.1 -0.1)">
       <defs>
        <path id="DejaVuSans-79" d="M 2059 -325 
Q 1816 -950 1584 -1140 
Q 1353 -1331 966 -1331 
L 506 -1331 
L 506 -850 
L 844 -850 
Q 1081 -850 1212 -737 
Q 1344 -625 1503 -206 
L 1606 56 
L 191 3500 
L 800 3500 
L 1894 763 
L 2988 3500 
L 3597 3500 
L 2059 -325 
z
" transform="scale(0.015625)"/>
       </defs>
       <use xlink:href="#DejaVuSans-4d"/>
       <use xlink:href="#DejaVuSans-61" x="86.279297"/>
       <use xlink:href="#DejaVuSans-79" x="147.558594"/>
       <use xlink:href="#DejaVuSans-20" x="206.738281"/>
       <use xlink:href="#DejaVuSans-31" x="238.525391"/>
      </g>
     </g>
    </g>
    <g id="xtick_4">
     <g id="line2d_7">
      <path d="M 401.454005 476.12 
L 401.454005 26.88 
" clip-path="url(#pe386cc305d)" style="fill: none; stroke: #b0b0b0; stroke-width: 0.8; stroke-linecap: square"/>
     </g>
     <g id="line2d_8">
      <g>
       <use xlink:href="#m0d14d49fc6" x="401.454005" y="476.12" style="stroke: #000000; stroke-width: 0.8"/>
      </g>
     </g>
     <g id="text_4">
      <!-- Jul 1 -->
      <g transform="translate(390.65088 490.718437) scale(0.1 -0.1)">
       <defs>
        <path id="DejaVuSans-75" d="M 544 1381 
L 544 3500 
L 1119 3500 
L 1119 1403 
Q 1119 906 1312 657 
Q 1506 409 1894 409 
Q 2359 409 2629 706 
Q 2900 1003 2900 1516 
L 2900 3500 
L 3475 3500 
L 3475 0 
L 2900 0 
L 2900 538 
Q 2691 219 2414 64 
Q 2138 -91 1772 -91 
Q 1169 -91 856 284 
Q 544 659 544 1381 
z
M 1991 3584 
L 1991 3584 
z
" transform="scale(0.015625)"/>
        <path id="DejaVuSans-6c" d="M 603 4863 
L 1178 4863 
L 1178 0 
L 603 0 
L 603 4863 
z
" transform="scale(0.015625)"/>
       </defs>
       <use xlink:href="#DejaVuSans-4a"/>
       <use xlink:href="#DejaVuSans-75" x="29.492188"/>
       <use xlink:href="#DejaVuSans-6c" x="92.871094"/>
       <use xlink:href="#DejaVuSans-20" x="120.654297"/>
       <use xlink:href="#DejaVuSans-31" x="152.441406"/>
      </g>
     </g>
    </g>
    <g id="xtick_5">
     <g id="line2d_9">
      <path d="M 501.876382 476.12 
L 501.876382 26.88 
" clip-path="url(#pe386cc305d)" style="fill: none; stroke: #b0b0b0; stroke-width: 0.8; stroke-linecap: square"/>
     </g>
     <g id="line2d_10">
      <g>
       <use xlink:href="#m0d14d49fc6" x="501.876382" y="476.12" style="stroke: #000000; stroke-width: 0.8"/>
      </g>
     </g>
     <g id="text_5">
      <!-- Sep 1 -->
      <g transform="translate(487.68107 490.718437) scale(0.1 -0.1)">
       <defs>
        <path id="DejaVuSans-53" d="M 3425 4513 
L 3425 3897 
Q 3066 4069 2747 4153 
Q 2428 4238 2131 4238 
Q 1616 4238 1336 4038 
Q 1056 3838 1056 3469 
Q 1056 3159 1242 3001 
Q 1428 2844 1947 2747 
L 2328 2669 
Q 3034 2534 3370 2195 
Q 3706 1856 3706 1288 
Q 3706 609 3251 259 
Q 2797 -91 1919 -91 
Q 1588 -91 1214 -16 
Q 841 59 441 206 
L 441 856 
Q 825 641 1194 531 
Q 1563 422 1919 422 
Q 2459 422 2753 634 
Q 3047 847 3047 1241 
Q 3047 1584 2836 1778 
Q 2625 1972 2144 2069 
L 1759 2144 
Q 1053 2284 737 2584 
Q 422 2884 422 3419 
Q 422 4038 858 4394 
Q 1294 4750 2059 4750 
Q 2388 4750 2728 4690 
Q 3069 4631 3425 4513 
z
" transform="scale(0.015625)"/>
        <path id="DejaVuSans-65" d="M 3597 1894 
L 3597 1613 
L 953 1613 
Q 991 1019 1311 708 
Q 1631 397 2203 397 
Q 2534 397 2845 478 
Q 3156 559 3463 722 
L 3463 178 
Q 3153 47 2828 -22 
Q 2503 -91 2169 -91 
Q 1331 -91 842 396 
Q 353 884 353 1716 
Q 353 2575 817 3079 
Q 1281 3584 2069 3584 
Q 2775 3584 3186 3129 
Q 3597 2675 3597 1894 
z
M 3022 2063 
Q 3016 2534 2758 2815 
Q 2500 3097 2075 3097 
Q 1594 3097 1305 2825 
Q 1016 2553 972 2059 
L 3022 2063 
z
" transform="scale(0.015625)"/>
        <path id="DejaVuSans-70" d="M 1159 525 
L 1159 -1331 
L 581 -1331 
L 581 3500 
L 1159 3500 
L 1159 2969 
Q 1341 3281 1617 3432 
Q 1894 3584 2278 3584 
Q 2916 3584 3314 3078 
Q 3713 2572 3713 1747 
Q 3713 922 3314 415 
Q 2916 -91 2278 -91 
Q 1894 -91 1617 61 
Q 1341 213 1159 525 
z
M 3116 1747 
Q 3116 2381 2855 2742 
Q 2594 3103 2138 3103 
Q 1681 3103 1420 2742 
Q 1159 2381 1159 1747 
Q 1159 1113 1420 752 
Q 1681 391 2138 391 
Q 2594 391 2855 752 
Q 3116 1113 3116 1747 
z
" transform="scale(0.015625)"/>
       </defs>
       <use xlink:href="#DejaVuSans-53"/>
       <use xlink:href="#DejaVuSans-65" x="63.476562"/>
       <use xlink:href="#DejaVuSans-70" x="125"/>
       <use xlink:href="#DejaVuSans-20" x="188.476562"/>
       <use xlink:href="#DejaVuSans-31" x="220.263672"/>
      </g>
     </g>
    </g>
    <g id="xtick_6">
     <g id="line2d_11">
      <path d="M 600.679044 476.12 
L 600.679044 26.88 
" clip-path="url(#pe386cc305d)" style="fill: none; stroke: #b0b0b0; stroke-width: 0.8; stroke-linecap: square"/>
     </g>
     <g id="line2d_12">
      <g>
       <use xlink:href="#m0d14d49fc6" x="600.679044" y="476.12" style="stroke: #000000; stroke-width: 0.8"/>
      </g>
     </g>
     <g id="text_6">
      <!-- Nov 1 -->
      <g transform="translate(586.149356 490.718437) scale(0.1 -0.1)">
       <defs>
        <path id="DejaVuSans-4e" d="M 628 4666 
L 1478 4666 
L 3547 763 
L 3547 4666 
L 4159 4666 
L 4159 0 
L 3309 0 
L 1241 3903 
L 1241 0 
L 628 0 
L 628 4666 
z
" transform="scale(0.015625)"/>
        <path id="DejaVuSans-6f" d="M 1959 3097 
Q 1497 3097 1228 2736 
Q 959 2375 959 1747 
Q 959 1119 1226 758 
Q 1494 397 1959 397 
Q 2419 397 2687 759 
Q 2956 1122 2956 1747 
Q 2956 2369 2687 2733 
Q 2419 3097 1959 3097 
z
M 1959 3584 
Q 2709 3584 3137 3096 
Q 3566 2609 3566 1747 
Q 3566 888 3137 398 
Q 2709 -91 1959 -91 
Q 1206 -91 779 398 
Q 353 888 353 1747 
Q 353 2609 779 3096 
Q 1206 3584 1959 3584 
z
" transform="scale(0.015625)"/>
        <path id="DejaVuSans-76" d="M 191 3500 
L 800 3500 
L 1894 563 
L 2988 3500 
L 3597 3500 
L 2284 0 
L 1503 0 
L 191 3500 
z
" transform="scale(0.015625)"/>
       </defs>
       <use xlink:href="#DejaVuSans-4e"/>
       <use xlink:href="#DejaVuSans-6f" x="74.804688"/>
       <use xlink:href="#DejaVuSans-76" x="135.986328"/>
       <use xlink:href="#DejaVuSans-20" x="195.166016"/>
       <use xlink:href="#DejaVuSans-31" x="226.953125"/>
      </g>
     </g>
    </g>
   </g>
   <g id="matplotlib.axis_2">
    <g id="ytick_1">
     <g id="line2d_13">
      <path d="M 82.37 455.7 
L 709.2 455.7 
" clip-path="url(#pe386cc305d)" style="fill: none; stroke: #b0b0b0; stroke-width: 0.8; stroke-linecap: square"/>
     </g>
     <g id="line2d_14">
      <defs>
       <path id="m171866dcdd" d="M 0 0 
L -3.5 0 
" style="stroke: #000000; stroke-width: 0.8"/>
      </defs>
      <g>
       <use xlink:href="#m171866dcdd" x="82.37" y="455.7" style="stroke: #000000; stroke-width: 0.8"/>
      </g>
     </g>
     <g id="text_7">
      <!-- 0 -->
      <g transform="translate(69.0075 459.499219) scale(0.1 -0.1)">
       <defs>
        <path id="DejaVuSans-30" d="M 2034 4250 
Q 1547 4250 1301 3770 
Q 1056 3291 1056 2328 
Q 1056 1369 1301 889 
Q 1547 409 2034 409 
Q 2525 409 2770 889 
Q 3016 1369 3016 2328 
Q 3016 3291 2770 3770 
Q 2525 4250 2034 4250 
z
M 2034 4750 
Q 2819 4750 3233 4129 
Q 3647 3509 3647 2328 
Q 3647 1150 3233 529 
Q 2819 -91 2034 -91 
Q 1250 -91 836 529 
Q 422 1150 422 2328 
Q 422 3509 836 4129 
Q 1250 4750 2034 4750 
z
" transform="scale(0.015625)"/>
       </defs>
       <use xlink:href="#DejaVuSans-30"/>
      </g>
     </g>
    </g>
    <g id="ytick_2">
     <g id="line2d_15">
      <path d="M 82.37 394.082545 
L 709.2 394.082545 
" clip-path="url(#pe386cc305d)" style="fill: none; stroke: #b0b0b0; stroke-width: 0.8; stroke-linecap: square"/>
     </g>
     <g id="line2d_16">
      <g>
       <use xlink:href="#m171866dcdd" x="82.37" y="394.082545" style="stroke: #000000; stroke-width: 0.8"/>
      </g>
     </g>
     <g id="text_8">
      <!-- 250,000 -->
      <g transform="translate(34.016875 397.881764) scale(0.1 -0.1)">
       <defs>
        <path id="DejaVuSans-32" d="M 1228 531 
L 3431 531 
L 3431 0 
L 469 0 
L 469 531 
Q 828 903 1448 1529 
Q 2069 2156 2228 2338 
Q 2531 2678 2651 2914 
Q 2772 3150 2772 3378 
Q 2772 3750 2511 3984 
Q 2250 4219 1831 4219 
Q 1534 4219 1204 4116 
Q 875 4013 500 3803 
L 500 4441 
Q 881 4594 1212 4672 
Q 1544 4750 1819 4750 
Q 2544 4750 2975 4387 
Q 3406 4025 3406 3419 
Q 3406 3131 3298 2873 
Q 3191 2616 2906 2266 
Q 2828 2175 2409 1742 
Q 1991 1309 1228 531 
z
" transform="scale(0.015625)"/>
        <path id="DejaVuSans-35" d="M 691 4666 
L 3169 4666 
L 3169 4134 
L 1269 4134 
L 1269 2991 
Q 1406 3038 1543 3061 
Q 1681 3084 1819 3084 
Q 2600 3084 3056 2656 
Q 3513 2228 3513 1497 
Q 3513 744 3044 326 
Q 2575 -91 1722 -91 
Q 1428 -91 1123 -41 
Q 819 9 494 109 
L 494 744 
Q 775 591 1075 516 
Q 1375 441 1709 441 
Q 2250 441 2565 725 
Q 2881 1009 2881 1497 
Q 2881 1984 2565 2268 
Q 2250 2553 1709 2553 
Q 1456 2553 1204 2497 
Q 953 2441 691 2322 
L 691 4666 
z
" transform="scale(0.015625)"/>
        <path id="DejaVuSans-2c" d="M 750 794 
L 1409 794 
L 1409 256 
L 897 -744 
L 494 -744 
L 750 256 
L 750 794 
z
" transform="scale(0.015625)"/>
       </defs>
       <use xlink:href="#DejaVuSans-32"/>
       <use xlink:href="#DejaVuSans-35" x="63.623047"/>
       <use xlink:href="#DejaVuSans-30" x="127.246094"/>
       <use xlink:href="#DejaVuSans-2c" x="190.869141"/>
       <use xlink:href="#DejaVuSans-30" x="222.65625"/>
       <use xlink:href="#DejaVuSans-30" x="286.279297"/>
       <use xlink:href="#DejaVuSans-30" x="349.902344"/>
      </g>
     </g>
    </g>
    <g id="ytick_3">
     <g id="line2d_17">
      <path d="M 82.37 332.46509 
L 709.2 332.46509 
" clip-path="url(#pe386cc305d)" style="fill: none; stroke: #b0b0b0; stroke-width: 0.8; stroke-linecap: square"/>
     </g>
     <g id="line2d_18">
      <g>
       <use xlink:href="#m171866dcdd" x="82.37" y="332.46509" style="stroke: #000000; stroke-width: 0.8"/>
      </g>
     </g>
     <g id="text_9">
      <!-- 500,000 -->
      <g transform="translate(34.016875 336.264308) scale(0.1 -0.1)">
       <use xlink:href="#DejaVuSans-35"/>
       <use xlink:href="#DejaVuSans-30" x="63.623047"/>
       <use xlink:href="#DejaVuSans-30" x="127.246094"/>
       <use xlink:href="#DejaVuSans-2c" x="190.869141"/>
       <use xlink:href="#DejaVuSans-30" x="222.65625"/>
       <use xlink:href="#DejaVuSans-30" x="286.279297"/>
       <use xlink:href="#DejaVuSans-30" x="349.902344"/>
      </g>
     </g>
    </g>
    <g id="ytick_4">
     <g id="line2d_19">
      <path d="M 82.37 270.847634 
L 709.2 270.847634 
" clip-path="url(#pe386cc305d)" style="fill: none; stroke: #b0b0b0; stroke-width: 0.8; stroke-linecap: square"/>
     </g>
     <g id="line2d_20">
      <g>
       <use xlink:href="#m171866dcdd" x="82.37" y="270.847634" style="stroke: #000000; stroke-width: 0.8"/>
      </g>
     </g>
     <g id="text_10">
      <!-- 750,000 -->
      <g transform="translate(34.016875 274.646853) scale(0.1 -0.1)">
       <defs>
        <path id="DejaVuSans-37" d="M 525 4666 
L 3525 4666 
L 3525 4397 
L 1831 0 
L 1172 0 
L 2766 4134 
L 525 4134 
L 525 4666 
z
" transform="scale(0.015625)"/>
       </defs>
       <use xlink:href="#DejaVuSans-37"/>
       <use xlink:href="#DejaVuSans-35" x="63.623047"/>
       <use xlink:href="#DejaVuSans-30" x="127.246094"/>
       <use xlink:href="#DejaVuSans-2c" x="190.869141"/>
       <use xlink:href="#DejaVuSans-30" x="222.65625"/>
       <use xlink:href="#DejaVuSans-30" x="286.279297"/>
       <use xlink:href="#DejaVuSans-30" x="349.902344"/>
      </g>
     </g>
    </g>
    <g id="ytick_5">
     <g id="line2d_21">
      <path d="M 82.37 209.230179 
L 709.2 209.230179 
" clip-path="url(#pe386cc305d)" style="fill: none; stroke: #b0b0b0; stroke-width: 0.8; stroke-linecap: square"/>
     </g>
     <g id="line2d_22">
      <g>
       <use xlink:href="#m171866dcdd" x="82.37" y="209.230179" style="stroke: #000000; stroke-width: 0.8"/>
      </g>
     </g>
     <g id="text_11">
      <!-- 1,000,000 -->
      <g transform="translate(24.47625 213.029398) scale(0.1 -0.1)">
       <use xlink:href="#DejaVuSans-31"/>
       <use xlink:href="#DejaVuSans-2c" x="63.623047"/>
       <use xlink:href="#DejaVuSans-30" x="95.410156"/>
       <use xlink:href="#DejaVuSans-30" x="159.033203"/>
       <use xlink:href="#DejaVuSans-30" x="222.65625"/>
       <use xlink:href="#DejaVuSans-2c" x="286.279297"/>
       <use xlink:href="#DejaVuSans-30" x="318.066406"/>
       <use xlink:href="#DejaVuSans-30" x="381.689453"/>
       <use xlink:href="#DejaVuSans-30" x="445.3125"/>
      </g>
     </g>
    </g>
    <g id="ytick_6">
     <g id="line2d_23">
      <path d="M 82.37 147.612724 
L 709.2 147.612724 
" clip-path="url(#pe386cc305d)" style="fill: none; stroke: #b0b0b0; stroke-width: 0.8; stroke-linecap: square"/>
     </g>
     <g id="line2d_24">
      <g>
       <use xlink:href="#m171866dcdd" x="82.37" y="147.612724" style="stroke: #000000; stroke-width: 0.8"/>
      </g>
     </g>
     <g id="text_12">
      <!-- 1,250,000 -->
      <g transform="translate(24.47625 151.411943) scale(0.1 -0.1)">
       <use xlink:href="#DejaVuSans-31"/>
       <use xlink:href="#DejaVuSans-2c" x="63.623047"/>
       <use xlink:href="#DejaVuSans-32" x="95.410156"/>
       <use xlink:href="#DejaVuSans-35" x="159.033203"/>
       <use xlink:href="#DejaVuSans-30" x="222.65625"/>
       <use xlink:href="#DejaVuSans-2c" x="286.279297"/>
       <use xlink:href="#DejaVuSans-30" x="318.066406"/>
       <use xlink:href="#DejaVuSans-30" x="381.689453"/>
       <use xlink:href="#DejaVuSans-30" x="445.3125"/>
      </g>
     </g>
    </g>
    <g id="ytick_7">
     <g id="line2d_25">
      <path d="M 82.37 85.995269 
L 709.2 85.995269 
" clip-path="url(#pe386cc305d)" style="fill: none; stroke: #b0b0b0; stroke-width: 0.8; stroke-linecap: square"/>
     </g>
     <g id="line2d_26">
      <g>
       <use xlink:href="#m171866dcdd" x="82.37" y="85.995269" style="stroke: #000000; stroke-width: 0.8"/>
      </g>
     </g>
     <g id="text_13">
      <!-- 1,500,000 -->
      <g transform="translate(24.47625 89.794488) scale(0.1 -0.1)">
       <use xlink:href="#DejaVuSans-31"/>
       <use xlink:href="#DejaVuSans-2c" x="63.623047"/>
       <use xlink:href="#DejaVuSans-35" x="95.410156"/>
       <use xlink:href="#DejaVuSans-30" x="159.033203"/>
       <use xlink:href="#DejaVuSans-30" x="222.65625"/>
       <use xlink:href="#DejaVuSans-2c" x="286.279297"/>
       <use xlink:href="#DejaVuSans-30" x="318.066406"/>
       <use xlink:href="#DejaVuSans-30" x="381.689453"/>
       <use xlink:href="#DejaVuSans-30" x="445.3125"/>
      </g>
     </g>
    </g>
    <g id="text_14">
     <!-- Cumulative Payload Mass (kg) -->
     <g transform="translate(18.396562 326.863281) rotate(-90) scale(0.1 -0.1)">
      <defs>
       <path id="DejaVuSans-43" d="M 4122 4306 
L 4122 3641 
Q 3803 3938 3442 4084 
Q 3081 4231 2675 4231 
Q 1875 4231 1450 3742 
Q 1025 3253 1025 2328 
Q 1025 1406 1450 917 
Q 1875 428 2675 428 
Q 3081 428 3442 575 
Q 3803 722 4122 1019 
L 4122 359 
Q 3791 134 3420 21 
Q 3050 -91 2638 -91 
Q 1578 -91 968 557 
Q 359 1206 359 2328 
Q 359 3453 968 4101 
Q 1578 4750 2638 4750 
Q 3056 4750 3426 4639 
Q 3797 4528 4122 4306 
z
" transform="scale(0.015625)"/>
       <path id="DejaVuSans-6d" d="M 3328 2828 
Q 3544 3216 3844 3400 
Q 4144 3584 4550 3584 
Q 5097 3584 5394 3201 
Q 5691 2819 5691 2113 
L 5691 0 
L 5113 0 
L 5113 2094 
Q 5113 2597 4934 2840 
Q 4756 3084 4391 3084 
Q 3944 3084 3684 2787 
Q 3425 2491 3425 1978 
L 3425 0 
L 2847 0 
L 2847 2094 
Q 2847 2600 2669 2842 
Q 2491 3084 2119 3084 
Q 1678 3084 1418 2786 
Q 1159 2488 1159 1978 
L 1159 0 
L 581 0 
L 581 3500 
L 1159 3500 
L 1159 2956 
Q 1356 3278 1631 3431 
Q 1906 3584 2284 3584 
Q 2666 3584 2933 3390 
Q 3200 3197 3328 2828 
z
" transform="scale(0.015625)"/>
       <path id="DejaVuSans-74" d="M 1172 4494 
L 1172 3500 
L 2356 3500 
L 2356 3053 
L 1172 3053 
L 1172 1153 
Q 1172 725 1289 603 
Q 1406 481 1766 481 
L 2356 481 
L 2356 0 
L 1766 0 
Q 1100 0 847 248 
Q 594 497 594 1153 
L 594 3053 
L 172 3053 
L 172 3500 
L 594 3500 
L 594 4494 
L 1172 4494 
z
" transform="scale(0.015625)"/>
       <path id="DejaVuSans-69" d="M 603 3500 
L 1178 3500 
L 1178 0 
L 603 0 
L 603 3500 
z
M 603 4863 
L 1178 4863 
L 1178 4134 
L 603 4134 
L 603 4863 
z
" transform="scale(0.015625)"/>
       <path id="DejaVuSans-50" d="M 1259 4147 
L 1259 2394 
L 2053 2394 
Q 2494 2394 2734 2622 
Q 2975 2850 2975 3272 
Q 2975 3691 2734 3919 
Q 2494 4147 2053 4147 
L 1259 4147 
z
M 628 4666 
L 2053 4666 
Q 2838 4666 3239 4311 
Q 3641 3956 3641 3272 
Q 3641 2581 3239 2228 
Q 2838 1875 2053 1875 
L 1259 1875 
L 1259 0 
L 628 0 
L 628 4666 
z
" transform="scale(0.015625)"/>
       <path id="DejaVuSans-64" d="M 2906 2969 
L 2906 4863 
L 3481 4863 
L 3481 0 
L 2906 0 
L 2906 525 
Q 2725 213 2448 61 
Q 2172 -91 1784 -91 
Q 1150 -91 751 415 
Q 353 922 353 1747 
Q 353 2572 751 3078 
Q 1150 3584 1784 3584 
Q 2172 3584 2448 3432 
Q 2725 3281 2906 2969 
z
M 947 1747 
Q 947 1113 1208 752 
Q 1469 391 1925 391 
Q 2381 391 2643 752 
Q 2906 1113 2906 1747 
Q 2906 2381 2643 2742 
Q 2381 3103 1925 3103 
Q 1469 3103 1208 2742 
Q 947 2381 947 1747 
z
" transform="scale(0.015625)"/>
       <path id="DejaVuSans-73" d="M 2834 3397 
L 2834 2853 
Q 2591 2978 2328 3040 
Q 2066 3103 1784 3103 
Q 1356 3103 1142 2972 
Q 928 2841 928 2578 
Q 928 2378 1081 2264 
Q 1234 2150 1697 2047 
L 1894 2003 
Q 2506 1872 2764 1633 
Q 3022 1394 3022 966 
Q 3022 478 2636 193 
Q 2250 -91 1575 -91 
Q 1294 -91 989 -36 
Q 684 19 347 128 
L 347 722 
Q 666 556 975 473 
Q 1284 391 1588 391 
Q 1994 391 2212 530 
Q 2431 669 2431 922 
Q 2431 1156 2273 1281 
Q 2116 1406 1581 1522 
L 1381 1569 
Q 847 1681 609 1914 
Q 372 2147 372 2553 
Q 372 3047 722 3315 
Q 1072 3584 1716 3584 
Q 2034 3584 2315 3537 
Q 2597 3491 2834 3397 
z
" transform="scale(0.015625)"/>
       <path id="DejaVuSans-28" d="M 1984 4856 
Q 1566 4138 1362 3434 
Q 1159 2731 1159 2009 
Q 1159 1288 1364 580 
Q 1569 -128 1984 -844 
L 1484 -844 
Q 1016 -109 783 600 
Q 550 1309 550 2009 
Q 550 2706 781 3412 
Q 1013 4119 1484 4856 
L 1984 4856 
z
" transform="scale(0.015625)"/>
       <path id="DejaVuSans-6b" d="M 581 4863 
L 1159 4863 
L 1159 1991 
L 2875 3500 
L 3609 3500 
L 1753 1863 
L 3688 0 
L 2938 0 
L 1159 1709 
L 1159 0 
L 581 0 
L 581 4863 
z
" transform="scale(0.015625)"/>
       <path id="DejaVuSans-67" d="M 2906 1791 
Q 2906 2416 2648 2759 
Q 2391 3103 1925 3103 
Q 1463 3103 1205 2759 
Q 947 2416 947 1791 
Q 947 1169 1205 825 
Q 1463 481 1925 481 
Q 2391 481 2648 825 
Q 2906 1169 2906 1791 
z
M 3481 434 
Q 3481 -459 3084 -895 
Q 2688 -1331 1869 -1331 
Q 1566 -1331 1297 -1286 
Q 1028 -1241 775 -1147 
L 775 -588 
Q 1028 -725 1275 -790 
Q 1522 -856 1778 -856 
Q 2344 -856 2625 -561 
Q 2906 -266 2906 331 
L 2906 616 
Q 2728 306 2450 153 
Q 2172 0 1784 0 
Q 1141 0 747 490 
Q 353 981 353 1791 
Q 353 2603 747 3093 
Q 1141 3584 1784 3584 
Q 2172 3584 2450 3431 
Q 2728 3278 2906 2969 
L 2906 3500 
L 3481 3500 
L 3481 434 
z
" transform="scale(0.015625)"/>
       <path id="DejaVuSans-29" d="M 513 4856 
L 1013 4856 
Q 1481 4119 1714 3412 
Q 1947 2706 1947 2009 
Q 1947 1309 1714 600 
Q 1481 -109 1013 -844 
L 513 -844 
Q 928 -128 1133 580 
Q 1338 1288 1338 2009 
Q 1338 2731 1133 3434 
Q 928 4138 513 4856 
z
" transform="scale(0.015625)"/>
      </defs>
      <use xlink:href="#DejaVuSans-43"/>
      <use xlink:href="#DejaVuSans-75" x="69.824219"/>
      <use xlink:href="#DejaVuSans-6d" x="133.203125"/>
      <use xlink:href="#DejaVuSans-75" x="230.615234"/>
      <use xlink:href="#DejaVuSans-6c" x="293.994141"/>
      <use xlink:href="#DejaVuSans-61" x="321.777344"/>
      <use xlink:href="#DejaVuSans-74" x="383.056641"/>
      <use xlink:href="#DejaVuSans-69" x="422.265625"/>
      <use xlink:href="#DejaVuSans-76" x="450.048828"/>
      <use xlink:href="#DejaVuSans-65" x="509.228516"/>
      <use xlink:href="#DejaVuSans-20" x="570.751953"/>
      <use xlink:href="#DejaVuSans-50" x="602.539062"/>
      <use xlink:href="#DejaVuSans-61" x="658.341797"/>
      <use xlink:href="#DejaVuSans-79" x="719.621094"/>
      <use xlink:href="#DejaVuSans-6c" x="778.800781"/>
      <use xlink:href="#DejaVuSans-6f" x="806.583984"/>
      <use xlink:href="#DejaVuSans-61" x="867.765625"/>
      <use xlink:href="#DejaVuSans-64" x="929.044922"/>
      <use xlink:href="#DejaVuSans-20" x="992.521484"/>
      <use xlink:href="#DejaVuSans-4d" x="1024.308594"/>
      <use xlink:href="#DejaVuSans-61" x="1110.587891"/>
      <use xlink:href="#DejaVuSans-73" x="1171.867188"/>
      <use xlink:href="#DejaVuSans-73" x="1223.966797"/>
      <use xlink:href="#DejaVuSans-20" x="1276.066406"/>
      <use xlink:href="#DejaVuSans-28" x="1307.853516"/>
      <use xlink:href="#DejaVuSans-6b" x="1346.867188"/>
      <use xlink:href="#DejaVuSans-67" x="1404.777344"/>
      <use xlink:href="#DejaVuSans-29" x="1468.253906"/>
     </g>
    </g>
   </g>
   <g id="line2d_27">
    <path d="M 106.665736 455.7 
L 127.722041 455.7 
L 127.722041 453.33389 
L 186.031809 453.33389 
L 186.031809 452.72018 
L 226.524703 452.72018 
L 226.524703 451.339949 
L 249.200724 451.339949 
L 249.200724 450.033659 
L 301.031628 450.033659 
L 301.031628 450.033659 
L 323.707649 450.033659 
L 323.707649 448.537587 
L 354.482248 448.537587 
L 354.482248 447.870147 
L 386.876563 447.870147 
L 386.876563 446.965849 
L 390.115995 446.965849 
L 390.115995 444.599739 
L 406.313152 444.599739 
L 406.313152 442.933356 
L 471.101783 442.933356 
L 471.101783 442.117541 
L 487.298941 442.117541 
L 487.298941 442.000468 
L 509.974961 442.000468 
L 509.974961 440.770584 
L 561.805866 440.770584 
L 561.805866 438.404473 
L 565.045297 438.404473 
L 565.045297 437.073536 
L 595.819897 437.073536 
L 595.819897 436.210892 
L 670.326822 436.210892 
L 670.326822 435.667426 
L 683.284548 435.667426 
L 683.284548 433.301316 
L 696.242274 433.301316 
L 696.242274 433.301316 
" clip-path="url(#pe386cc305d)" style="fill: none; stroke: #90ee90; stroke-width: 1.5; stroke-linecap: square"/>
   </g>
   <g id="line2d_28">
    <path d="M 106.665736 455.7 
L 118.003747 455.7 
L 118.003747 455.7 
L 155.257209 455.7 
L 155.257209 454.657433 
L 164.975504 454.657433 
L 164.975504 454.349345 
L 190.890956 454.349345 
L 190.890956 453.819435 
L 210.327545 453.819435 
L 210.327545 452.317941 
L 249.200724 452.317941 
L 249.200724 449.951831 
L 254.059871 449.951831 
L 254.059871 449.299425 
L 279.975323 449.299425 
L 279.975323 449.210203 
L 317.228786 449.210203 
L 317.228786 448.322912 
L 335.045659 448.322912 
L 335.045659 446.730717 
L 356.101964 446.730717 
L 356.101964 445.403723 
L 396.594858 445.403723 
L 396.594858 444.738994 
L 433.84832 444.738994 
L 433.84832 442.99522 
L 438.707468 442.99522 
L 438.707468 440.62911 
L 459.763773 440.62911 
L 459.763773 439.199585 
L 514.834109 439.199585 
L 514.834109 437.459508 
L 560.18615 437.459508 
L 560.18615 436.720099 
L 621.735349 436.720099 
L 621.735349 435.413808 
L 650.890233 435.413808 
L 650.890233 434.427929 
L 654.129664 434.427929 
L 654.129664 433.811755 
L 683.284548 433.811755 
L 683.284548 432.727287 
L 696.242274 432.727287 
L 696.242274 432.727287 
" clip-path="url(#pe386cc305d)" style="fill: none; stroke: #add8e6; stroke-width: 1.5; stroke-linecap: square"/>
   </g>
   <g id="line2d_29">
    <path d="M 106.665736 455.7 
L 122.862894 455.7 
L 122.862894 453.33389 
L 190.890956 453.33389 
L 190.890956 452.138511 
L 203.848682 452.138511 
L 203.848682 449.167317 
L 268.637313 449.167317 
L 268.637313 447.57389 
L 305.890775 447.57389 
L 305.890775 446.958948 
L 338.28509 446.958948 
L 338.28509 443.602029 
L 369.05969 443.602029 
L 369.05969 442.566856 
L 390.115995 442.566856 
L 390.115995 441.654917 
L 438.707468 441.654917 
L 438.707468 441.095924 
L 458.144057 441.095924 
L 458.144057 439.49387 
L 615.256486 439.49387 
L 615.256486 435.648941 
L 654.129664 435.648941 
L 654.129664 435.003929 
L 673.566253 435.003929 
L 673.566253 433.289485 
L 696.242274 433.289485 
L 696.242274 433.289485 
" clip-path="url(#pe386cc305d)" style="fill: none; stroke: #ffc0cb; stroke-width: 1.5; stroke-linecap: square"/>
   </g>
   <g id="line2d_30">
    <path d="M 106.665736 455.7 
L 116.384031 455.7 
L 116.384031 451.855071 
L 135.82062 451.855071 
L 135.82062 448.885109 
L 152.017778 448.885109 
L 152.017778 445.04018 
L 182.792377 445.04018 
L 182.792377 441.195251 
L 213.566977 441.195251 
L 213.566977 440.70798 
L 231.38385 440.70798 
L 231.38385 436.863051 
L 288.073902 436.863051 
L 288.073902 433.018122 
L 349.623101 433.018122 
L 349.623101 429.929855 
L 357.72168 429.929855 
L 357.72168 426.084926 
L 372.299121 426.084926 
L 372.299121 422.286826 
L 399.834289 422.286826 
L 399.834289 421.224294 
L 432.228605 421.224294 
L 432.228605 419.86871 
L 461.383488 419.86871 
L 461.383488 416.188423 
L 479.200362 416.188423 
L 479.200362 412.382929 
L 498.636951 412.382929 
L 498.636951 411.611478 
L 505.115814 411.611478 
L 505.115814 407.766549 
L 558.566434 407.766549 
L 558.566434 403.92162 
L 578.003023 403.92162 
L 578.003023 400.076691 
L 587.721318 400.076691 
L 587.721318 396.231762 
L 607.157907 396.231762 
L 607.157907 395.16923 
L 624.97478 395.16923 
L 624.97478 392.088357 
L 633.073359 392.088357 
L 633.073359 391.794565 
L 639.552222 391.794565 
L 639.552222 387.949636 
L 657.369096 387.949636 
L 657.369096 387.217128 
L 668.707106 387.217128 
L 668.707106 385.491839 
L 678.425401 385.491839 
L 678.425401 385.491839 
L 697.86199 385.491839 
L 697.86199 385.491839 
" clip-path="url(#pe386cc305d)" style="fill: none; stroke: #800080; stroke-width: 1.5; stroke-linecap: square"/>
   </g>
   <g id="line2d_31">
    <path d="M 106.665736 455.7 
L 118.003747 455.7 
L 118.003747 454.837356 
L 137.440336 454.837356 
L 137.440336 450.992426 
L 143.919199 450.992426 
L 143.919199 449.760077 
L 161.736072 449.760077 
L 161.736072 445.915148 
L 181.172661 445.915148 
L 181.172661 442.070219 
L 207.088114 442.070219 
L 207.088114 438.22529 
L 218.426124 438.22529 
L 218.426124 434.380361 
L 223.285271 434.380361 
L 223.285271 430.535431 
L 239.482429 430.535431 
L 239.482429 426.690502 
L 262.15845 426.690502 
L 262.15845 422.845573 
L 288.073902 422.845573 
L 288.073902 419.641465 
L 297.792196 419.641465 
L 297.792196 415.796536 
L 305.890775 415.796536 
L 305.890775 411.951607 
L 313.989354 411.951607 
L 313.989354 408.106678 
L 323.707649 408.106678 
L 323.707649 404.301184 
L 341.524522 404.301184 
L 341.524522 400.456254 
L 354.482248 400.456254 
L 354.482248 399.636003 
L 359.341395 399.636003 
L 359.341395 397.910714 
L 377.158269 397.910714 
L 377.158269 396.843253 
L 398.214574 396.843253 
L 398.214574 396.843253 
L 495.397519 396.843253 
L 495.397519 396.30102 
L 521.312972 396.30102 
L 521.312972 393.03283 
L 524.552403 393.03283 
L 524.552403 389.947274 
L 615.256486 389.947274 
L 615.256486 386.743166 
L 618.495917 386.743166 
L 618.495917 382.889611 
L 636.312791 382.889611 
L 636.312791 382.735814 
L 649.270517 382.735814 
L 649.270517 379.162001 
L 660.608527 379.162001 
L 660.608527 379.081899 
L 675.185969 379.081899 
L 675.185969 375.236969 
L 676.805685 375.236969 
L 676.805685 374.127855 
L 680.045116 374.127855 
L 680.045116 373.391157 
L 696.242274 373.391157 
L 696.242274 373.391157 
" clip-path="url(#pe386cc305d)" style="fill: none; stroke: #ffa500; stroke-width: 1.5; stroke-linecap: square"/>
   </g>
   <g id="line2d_32">
    <path d="M 106.665736 455.7 
L 114.764315 455.7 
L 114.764315 452.126188 
L 126.102326 452.126188 
L 126.102326 452.126188 
L 135.82062 452.126188 
L 135.82062 448.552375 
L 155.257209 448.552375 
L 155.257209 448.008909 
L 158.496641 448.008909 
L 158.496641 448.008909 
L 160.116357 448.008909 
L 160.116357 444.435097 
L 189.27124 444.435097 
L 189.27124 441.083107 
L 195.750103 441.083107 
L 195.750103 437.447677 
L 205.468398 437.447677 
L 205.468398 434.021747 
L 215.186693 434.021747 
L 215.186693 430.531734 
L 231.38385 430.531734 
L 231.38385 426.5266 
L 252.440155 426.5266 
L 252.440155 426.5266 
L 263.778165 426.5266 
L 263.778165 423.322492 
L 278.355607 423.322492 
L 278.355607 423.322492 
L 284.83447 423.322492 
L 284.83447 419.317357 
L 294.552765 419.317357 
L 294.552765 416.11325 
L 297.792196 416.11325 
L 297.792196 412.108115 
L 309.130207 412.108115 
L 309.130207 408.102981 
L 320.468217 408.102981 
L 320.468217 404.097846 
L 322.087933 404.097846 
L 322.087933 400.092711 
L 328.566796 400.092711 
L 328.566796 396.087577 
L 339.904806 396.087577 
L 339.904806 396.087577 
L 362.580827 396.087577 
L 362.580827 395.077051 
L 377.158269 395.077051 
L 377.158269 391.071916 
L 378.777984 391.071916 
L 378.777984 390.086037 
L 380.3977 390.086037 
L 380.3977 389.913508 
L 396.594858 389.913508 
L 396.594858 389.050863 
L 409.552584 389.050863 
L 409.552584 385.045729 
L 416.031447 385.045729 
L 416.031447 381.570504 
L 422.51031 381.570504 
L 422.51031 380.912923 
L 425.749742 380.912923 
L 425.749742 376.907788 
L 433.84832 376.907788 
L 433.84832 373.432564 
L 437.087752 373.432564 
L 437.087752 369.427429 
L 454.904625 369.427429 
L 454.904625 369.260076 
L 464.62292 369.260076 
L 464.62292 365.316559 
L 467.862351 365.316559 
L 467.862351 361.841335 
L 479.200362 361.841335 
L 479.200362 357.8362 
L 493.777804 357.8362 
L 493.777804 353.720154 
L 498.636951 353.720154 
L 498.636951 350.220283 
L 506.73553 350.220283 
L 506.73553 346.276765 
L 516.453824 346.276765 
L 516.453824 343.334409 
L 529.41155 343.334409 
L 529.41155 339.218363 
L 537.510129 339.218363 
L 537.510129 335.250199 
L 555.327003 335.250199 
L 555.327003 332.046091 
L 555.327003 332.046091 
L 555.327003 328.077927 
L 560.18615 328.077927 
L 560.18615 326.266374 
L 571.52416 326.266374 
L 571.52416 325.157259 
L 579.622739 325.157259 
L 579.622739 321.041213 
L 592.580465 321.041213 
L 592.580465 316.999108 
L 599.059328 316.999108 
L 599.059328 316.074847 
L 602.29876 316.074847 
L 602.29876 314.965732 
L 616.876202 314.965732 
L 616.876202 313.339032 
L 634.693075 313.339032 
L 634.693075 311.983448 
L 639.552222 311.983448 
L 639.552222 311.113902 
L 658.988811 311.113902 
L 658.988811 309.635083 
L 663.847959 309.635083 
L 663.847959 309.388613 
L 671.946537 309.388613 
L 671.946537 308.84638 
L 671.946537 308.84638 
L 671.946537 307.835853 
L 673.566253 307.835853 
L 673.566253 303.719807 
L 691.383127 303.719807 
L 691.383127 299.603761 
L 694.622558 299.603761 
L 694.622558 299.505173 
L 696.242274 299.505173 
L 696.242274 299.505173 
" clip-path="url(#pe386cc305d)" style="fill: none; stroke: #0000ff; stroke-width: 1.5; stroke-linecap: square"/>
   </g>
   <g id="line2d_33">
    <path d="M 106.665736 455.7 
L 121.243178 455.7 
L 121.243178 454.221181 
L 129.341757 454.221181 
L 129.341757 453.296919 
L 134.200904 453.296919 
L 134.200904 452.224283 
L 135.82062 452.224283 
L 135.82062 448.527235 
L 147.15863 448.527235 
L 147.15863 444.23866 
L 155.257209 444.23866 
L 155.257209 440.492319 
L 158.496641 440.492319 
L 158.496641 436.425567 
L 166.59522 436.425567 
L 166.59522 435.403703 
L 174.693798 435.403703 
L 174.693798 431.189069 
L 182.792377 431.189069 
L 182.792377 427.270199 
L 184.412093 427.270199 
L 184.412093 425.922009 
L 198.989535 425.922009 
L 198.989535 422.151021 
L 203.848682 422.151021 
L 203.848682 418.946913 
L 205.468398 418.946913 
L 205.468398 415.028043 
L 215.186693 415.028043 
L 215.186693 413.549224 
L 224.904987 413.549224 
L 224.904987 412.846292 
L 228.144419 412.846292 
L 228.144419 407.128192 
L 239.482429 407.128192 
L 239.482429 402.839618 
L 247.581008 402.839618 
L 247.581008 398.551043 
L 262.15845 398.551043 
L 262.15845 397.173769 
L 281.595039 397.173769 
L 281.595039 393.402781 
L 294.552765 393.402781 
L 294.552765 389.927557 
L 296.172481 389.927557 
L 296.172481 388.91703 
L 301.031628 388.91703 
L 301.031628 387.339623 
L 305.890775 387.339623 
L 305.890775 383.051049 
L 315.60907 383.051049 
L 315.60907 379.132178 
L 322.087933 379.132178 
L 322.087933 374.843604 
L 330.186512 374.843604 
L 330.186512 370.875439 
L 331.806227 370.875439 
L 331.806227 369.248739 
L 333.425943 369.248739 
L 333.425943 366.044631 
L 343.144238 366.044631 
L 343.144238 364.935517 
L 349.623101 364.935517 
L 349.623101 360.893412 
L 356.101964 360.893412 
L 356.101964 356.925248 
L 357.72168 356.925248 
L 357.72168 356.110911 
L 369.05969 356.110911 
L 369.05969 352.068806 
L 369.05969 352.068806 
L 378.777984 352.068806 
L 378.777984 350.939974 
L 385.256848 350.939974 
L 385.256848 347.366162 
L 386.876563 347.366162 
L 386.876563 343.077587 
L 399.834289 343.077587 
L 399.834289 342.545212 
L 409.552584 342.545212 
L 409.552584 338.872812 
L 414.411731 338.872812 
L 414.411731 334.904648 
L 424.130026 334.904648 
L 424.130026 330.788602 
L 430.608889 330.788602 
L 430.608889 327.830964 
L 437.087752 327.830964 
L 437.087752 323.8628 
L 443.566615 323.8628 
L 443.566615 319.894636 
L 445.186331 319.894636 
L 445.186331 317.627113 
L 453.28491 317.627113 
L 453.28491 316.379237 
L 459.763773 316.379237 
L 459.763773 312.411073 
L 461.383488 312.411073 
L 461.383488 309.453435 
L 466.242636 309.453435 
L 466.242636 305.485271 
L 475.96093 305.485271 
L 475.96093 301.517107 
L 484.059509 301.517107 
L 484.059509 297.746118 
L 490.538372 297.746118 
L 490.538372 294.542011 
L 492.158088 294.542011 
L 492.158088 290.573847 
L 500.256667 290.573847 
L 500.256667 286.605682 
L 505.115814 286.605682 
L 505.115814 282.834694 
L 513.214393 282.834694 
L 513.214393 278.86653 
L 518.07354 278.86653 
L 518.07354 275.095542 
L 524.552403 275.095542 
L 524.552403 271.127378 
L 531.031266 271.127378 
L 531.031266 267.159214 
L 537.510129 267.159214 
L 537.510129 263.191049 
L 539.129845 263.191049 
L 539.129845 259.420061 
L 547.228424 259.420061 
L 547.228424 255.451897 
L 555.327003 255.451897 
L 555.327003 251.483733 
L 561.805866 251.483733 
L 561.805866 247.712745 
L 568.284729 247.712745 
L 568.284729 243.101787 
L 576.383307 243.101787 
L 576.383307 239.133623 
L 581.242455 239.133623 
L 581.242455 235.362635 
L 582.862171 235.362635 
L 582.862171 231.221942 
L 594.200181 231.221942 
L 594.200181 227.253778 
L 595.819897 227.253778 
L 595.819897 223.113085 
L 603.918475 223.113085 
L 603.918475 218.972392 
L 610.397339 218.972392 
L 610.397339 214.831699 
L 613.63677 214.831699 
L 613.63677 212.484074 
L 616.876202 212.484074 
L 616.876202 211.473548 
L 626.594496 211.473548 
L 626.594496 207.332855 
L 629.833928 207.332855 
L 629.833928 203.36469 
L 633.073359 203.36469 
L 633.073359 199.223997 
L 642.791654 199.223997 
L 642.791654 195.083305 
L 647.650801 195.083305 
L 647.650801 194.886129 
L 650.890233 194.886129 
L 650.890233 190.745436 
L 657.369096 190.745436 
L 657.369096 186.604743 
L 658.988811 186.604743 
L 658.988811 182.636579 
L 676.805685 182.636579 
L 676.805685 178.495886 
L 683.284548 178.495886 
L 683.284548 174.355193 
L 684.904264 174.355193 
L 684.904264 173.467901 
L 693.002842 173.467901 
L 693.002842 167.762125 
L 696.242274 167.762125 
L 696.242274 167.762125 
" clip-path="url(#pe386cc305d)" style="fill: none; stroke: #008000; stroke-width: 1.5; stroke-linecap: square"/>
   </g>
   <g id="line2d_34">
    <path d="M 106.665736 455.7 
L 109.905168 455.7 
L 109.905168 451.115661 
L 116.384031 451.115661 
L 116.384031 446.901027 
L 127.722041 446.901027 
L 127.722041 442.784981 
L 129.341757 442.784981 
L 129.341757 438.570347 
L 134.200904 438.570347 
L 134.200904 435.36624 
L 143.919199 435.36624 
L 143.919199 431.250194 
L 152.017778 431.250194 
L 152.017778 422.919514 
L 153.637494 422.919514 
L 153.637494 422.001167 
L 168.214935 422.001167 
L 168.214935 421.583647 
L 171.454367 421.583647 
L 171.454367 417.467601 
L 179.552946 417.467601 
L 179.552946 412.875622 
L 187.651525 412.875622 
L 187.651525 411.889743 
L 192.510672 411.889743 
L 192.510672 407.773697 
L 195.750103 407.773697 
L 195.750103 403.460475 
L 202.228966 403.460475 
L 202.228966 399.245841 
L 208.707829 399.245841 
L 208.707829 391.827099 
L 218.426124 391.827099 
L 218.426124 387.612466 
L 220.04584 387.612466 
L 220.04584 383.397832 
L 228.144419 383.397832 
L 228.144419 379.183198 
L 233.003566 379.183198 
L 233.003566 375.16574 
L 236.242997 375.16574 
L 236.242997 374.495095 
L 241.102145 374.495095 
L 241.102145 370.280461 
L 242.72186 370.280461 
L 242.72186 366.065827 
L 250.820439 366.065827 
L 250.820439 364.833478 
L 252.440155 364.833478 
L 252.440155 360.618844 
L 255.679587 360.618844 
L 255.679587 356.502798 
L 260.538734 356.502798 
L 260.538734 352.288164 
L 263.778165 352.288164 
L 263.778165 348.147471 
L 263.778165 348.147471 
L 268.637313 348.147471 
L 268.637313 343.932837 
L 270.257028 343.932837 
L 270.257028 343.637074 
L 273.49646 343.637074 
L 273.49646 339.42244 
L 279.975323 339.42244 
L 279.975323 335.207806 
L 281.595039 335.207806 
L 281.595039 330.993172 
L 289.693618 330.993172 
L 289.693618 326.778538 
L 297.792196 326.778538 
L 297.792196 322.169552 
L 304.271059 322.169552 
L 304.271059 321.799848 
L 305.890775 321.799848 
L 305.890775 317.585214 
L 310.749922 317.585214 
L 310.749922 313.37058 
L 313.989354 313.37058 
L 313.989354 309.155946 
L 317.228786 309.155946 
L 317.228786 305.138488 
L 322.087933 305.138488 
L 322.087933 300.923854 
L 323.707649 300.923854 
L 323.707649 296.906396 
L 330.186512 296.906396 
L 330.186512 292.691762 
L 338.28509 292.691762 
L 338.28509 288.477128 
L 339.904806 288.477128 
L 339.904806 284.262494 
L 346.383669 284.262494 
L 346.383669 279.468656 
L 352.862532 279.468656 
L 352.862532 275.254022 
L 359.341395 275.254022 
L 359.341395 271.236564 
L 364.200543 271.236564 
L 364.200543 263.10306 
L 382.017416 263.10306 
L 382.017416 259.085602 
L 383.637132 259.085602 
L 383.637132 257.853253 
L 388.496279 257.853253 
L 388.496279 253.737207 
L 390.115995 253.737207 
L 390.115995 249.719748 
L 391.735711 249.719748 
L 391.735711 248.487399 
L 394.975142 248.487399 
L 394.975142 244.272765 
L 404.693437 244.272765 
L 404.693437 240.255307 
L 412.792016 240.255307 
L 412.792016 239.207811 
L 419.270879 239.207811 
L 419.270879 235.190353 
L 443.566615 235.190353 
L 443.566615 230.975719 
L 445.186331 230.975719 
L 445.186331 222.694333 
L 453.28491 222.694333 
L 453.28491 218.479699 
L 456.524341 218.479699 
L 456.524341 213.314431 
L 466.242636 213.314431 
L 466.242636 209.247679 
L 469.482067 209.247679 
L 469.482067 203.251068 
L 474.341214 203.251068 
L 474.341214 202.881363 
L 482.439793 202.881363 
L 482.439793 198.765317 
L 495.397519 198.765317 
L 495.397519 194.649271 
L 500.256667 194.649271 
L 500.256667 186.417179 
L 508.355245 186.417179 
L 508.355245 182.301133 
L 516.453824 182.301133 
L 516.453824 179.097025 
L 519.693256 179.097025 
L 519.693256 177.248502 
L 521.312972 177.248502 
L 521.312972 173.132456 
L 527.791835 173.132456 
L 527.791835 172.738104 
L 532.650982 172.738104 
L 532.650982 168.720646 
L 540.749561 168.720646 
L 540.749561 164.703188 
L 545.608708 164.703188 
L 545.608708 161.49908 
L 560.18615 161.49908 
L 560.18615 161.225992 
L 571.52416 161.225992 
L 571.52416 159.731152 
L 573.143876 159.731152 
L 573.143876 151.49906 
L 578.003023 151.49906 
L 578.003023 147.481602 
L 581.242455 147.481602 
L 581.242455 146.75353 
L 586.101602 146.75353 
L 586.101602 142.538896 
L 590.960749 142.538896 
L 590.960749 138.42285 
L 597.439612 138.42285 
L 597.439612 130.190758 
L 607.157907 130.190758 
L 607.157907 129.510009 
L 610.397339 129.510009 
L 610.397339 125.295375 
L 613.63677 125.295375 
L 613.63677 121.277917 
L 616.876202 121.277917 
L 616.876202 116.003463 
L 621.735349 116.003463 
L 621.735349 107.672783 
L 626.594496 107.672783 
L 626.594496 106.686903 
L 628.214212 106.686903 
L 628.214212 101.511037 
L 633.073359 101.511037 
L 633.073359 97.197815 
L 637.932506 97.197815 
L 637.932506 93.180357 
L 639.552222 93.180357 
L 639.552222 88.965723 
L 642.791654 88.965723 
L 642.791654 84.652501 
L 647.650801 84.652501 
L 647.650801 76.371115 
L 654.129664 76.371115 
L 654.129664 72.057893 
L 655.74938 72.057893 
L 655.74938 66.315147 
L 660.608527 66.315147 
L 660.608527 62.100513 
L 668.707106 62.100513 
L 668.707106 57.984467 
L 675.185969 57.984467 
L 675.185969 56.074326 
L 681.664832 56.074326 
L 681.664832 55.87715 
L 684.904264 55.87715 
L 684.904264 51.810398 
L 694.622558 51.810398 
L 694.622558 47.3 
L 696.242274 47.3 
L 696.242274 47.3 
" clip-path="url(#pe386cc305d)" style="fill: none; stroke: #ff0000; stroke-width: 1.5; stroke-linecap: square"/>
   </g>
   <g id="patch_3">
    <path d="M 82.37 476.12 
L 82.37 26.88 
" style="fill: none; stroke: #000000; stroke-width: 0.8; stroke-linejoin: miter; stroke-linecap: square"/>
   </g>
   <g id="patch_4">
    <path d="M 709.2 476.12 
L 709.2 26.88 
" style="fill: none; stroke: #000000; stroke-width: 0.8; stroke-linejoin: miter; stroke-linecap: square"/>
   </g>
   <g id="patch_5">
    <path d="M 82.37 476.12 
L 709.2 476.12 
" style="fill: none; stroke: #000000; stroke-width: 0.8; stroke-linejoin: miter; stroke-linecap: square"/>
   </g>
   <g id="patch_6">
    <path d="M 82.37 26.88 
L 709.2 26.88 
" style="fill: none; stroke: #000000; stroke-width: 0.8; stroke-linejoin: miter; stroke-linecap: square"/>
   </g>
   <g id="text_15">
    <!-- Cumulative Payload Mass to Orbit By Year -->
    <g transform="translate(270.179688 20.88) scale(0.12 -0.12)">
     <defs>
      <path id="DejaVuSans-4f" d="M 2522 4238 
Q 1834 4238 1429 3725 
Q 1025 3213 1025 2328 
Q 1025 1447 1429 934 
Q 1834 422 2522 422 
Q 3209 422 3611 934 
Q 4013 1447 4013 2328 
Q 4013 3213 3611 3725 
Q 3209 4238 2522 4238 
z
M 2522 4750 
Q 3503 4750 4090 4092 
Q 4678 3434 4678 2328 
Q 4678 1225 4090 567 
Q 3503 -91 2522 -91 
Q 1538 -91 948 565 
Q 359 1222 359 2328 
Q 359 3434 948 4092 
Q 1538 4750 2522 4750 
z
" transform="scale(0.015625)"/>
      <path id="DejaVuSans-62" d="M 3116 1747 
Q 3116 2381 2855 2742 
Q 2594 3103 2138 3103 
Q 1681 3103 1420 2742 
Q 1159 2381 1159 1747 
Q 1159 1113 1420 752 
Q 1681 391 2138 391 
Q 2594 391 2855 752 
Q 3116 1113 3116 1747 
z
M 1159 2969 
Q 1341 3281 1617 3432 
Q 1894 3584 2278 3584 
Q 2916 3584 3314 3078 
Q 3713 2572 3713 1747 
Q 3713 922 3314 415 
Q 2916 -91 2278 -91 
Q 1894 -91 1617 61 
Q 1341 213 1159 525 
L 1159 0 
L 581 0 
L 581 4863 
L 1159 4863 
L 1159 2969 
z
" transform="scale(0.015625)"/>
      <path id="DejaVuSans-42" d="M 1259 2228 
L 1259 519 
L 2272 519 
Q 2781 519 3026 730 
Q 3272 941 3272 1375 
Q 3272 1813 3026 2020 
Q 2781 2228 2272 2228 
L 1259 2228 
z
M 1259 4147 
L 1259 2741 
L 2194 2741 
Q 2656 2741 2882 2914 
Q 3109 3088 3109 3444 
Q 3109 3797 2882 3972 
Q 2656 4147 2194 4147 
L 1259 4147 
z
M 628 4666 
L 2241 4666 
Q 2963 4666 3353 4366 
Q 3744 4066 3744 3513 
Q 3744 3084 3544 2831 
Q 3344 2578 2956 2516 
Q 3422 2416 3680 2098 
Q 3938 1781 3938 1306 
Q 3938 681 3513 340 
Q 3088 0 2303 0 
L 628 0 
L 628 4666 
z
" transform="scale(0.015625)"/>
      <path id="DejaVuSans-59" d="M -13 4666 
L 666 4666 
L 1959 2747 
L 3244 4666 
L 3922 4666 
L 2272 2222 
L 2272 0 
L 1638 0 
L 1638 2222 
L -13 4666 
z
" transform="scale(0.015625)"/>
     </defs>
     <use xlink:href="#DejaVuSans-43"/>
     <use xlink:href="#DejaVuSans-75" x="69.824219"/>
     <use xlink:href="#DejaVuSans-6d" x="133.203125"/>
     <use xlink:href="#DejaVuSans-75" x="230.615234"/>
     <use xlink:href="#DejaVuSans-6c" x="293.994141"/>
     <use xlink:href="#DejaVuSans-61" x="321.777344"/>
     <use xlink:href="#DejaVuSans-74" x="383.056641"/>
     <use xlink:href="#DejaVuSans-69" x="422.265625"/>
     <use xlink:href="#DejaVuSans-76" x="450.048828"/>
     <use xlink:href="#DejaVuSans-65" x="509.228516"/>
     <use xlink:href="#DejaVuSans-20" x="570.751953"/>
     <use xlink:href="#DejaVuSans-50" x="602.539062"/>
     <use xlink:href="#DejaVuSans-61" x="658.341797"/>
     <use xlink:href="#DejaVuSans-79" x="719.621094"/>
     <use xlink:href="#DejaVuSans-6c" x="778.800781"/>
     <use xlink:href="#DejaVuSans-6f" x="806.583984"/>
     <use xlink:href="#DejaVuSans-61" x="867.765625"/>
     <use xlink:href="#DejaVuSans-64" x="929.044922"/>
     <use xlink:href="#DejaVuSans-20" x="992.521484"/>
     <use xlink:href="#DejaVuSans-4d" x="1024.308594"/>
     <use xlink:href="#DejaVuSans-61" x="1110.587891"/>
     <use xlink:href="#DejaVuSans-73" x="1171.867188"/>
     <use xlink:href="#DejaVuSans-73" x="1223.966797"/>
     <use xlink:href="#DejaVuSans-20" x="1276.066406"/>
     <use xlink:href="#DejaVuSans-74" x="1307.853516"/>
     <use xlink:href="#DejaVuSans-6f" x="1347.0625"/>
     <use xlink:href="#DejaVuSans-20" x="1408.244141"/>
     <use xlink:href="#DejaVuSans-4f" x="1440.03125"/>
     <use xlink:href="#DejaVuSans-72" x="1518.742188"/>
     <use xlink:href="#DejaVuSans-62" x="1559.855469"/>
     <use xlink:href="#DejaVuSans-69" x="1623.332031"/>
     <use xlink:href="#DejaVuSans-74" x="1651.115234"/>
     <use xlink:href="#DejaVuSans-20" x="1690.324219"/>
     <use xlink:href="#DejaVuSans-42" x="1722.111328"/>
     <use xlink:href="#DejaVuSans-79" x="1790.714844"/>
     <use xlink:href="#DejaVuSans-20" x="1849.894531"/>
     <use xlink:href="#DejaVuSans-59" x="1881.681641"/>
     <use xlink:href="#DejaVuSans-65" x="1929.515625"/>
     <use xlink:href="#DejaVuSans-61" x="1991.039062"/>
     <use xlink:href="#DejaVuSans-72" x="2052.318359"/>
    </g>
   </g>
   <g id="legend_1">
    <g id="patch_7">
     <path d="M 89.37 166.983125 
L 146.82 166.983125 
Q 148.82 166.983125 148.82 164.983125 
L 148.82 33.88 
Q 148.82 31.88 146.82 31.88 
L 89.37 31.88 
Q 87.37 31.88 87.37 33.88 
L 87.37 164.983125 
Q 87.37 166.983125 89.37 166.983125 
z
" style="fill: #ffffff; opacity: 0.8; stroke: #cccccc; stroke-linejoin: miter"/>
    </g>
    <g id="text_16">
     <!-- Year -->
     <g transform="translate(107.5075 43.478437) scale(0.1 -0.1)">
      <use xlink:href="#DejaVuSans-59"/>
      <use xlink:href="#DejaVuSans-65" x="47.833984"/>
      <use xlink:href="#DejaVuSans-61" x="109.357422"/>
      <use xlink:href="#DejaVuSans-72" x="170.636719"/>
     </g>
    </g>
    <g id="line2d_35">
     <path d="M 91.37 54.656562 
L 101.37 54.656562 
L 101.37 54.656562 
L 111.37 54.656562 
L 111.37 54.656562 
" style="fill: none; stroke: #90ee90; stroke-width: 1.5; stroke-linecap: square"/>
    </g>
    <g id="text_17">
     <!-- 2017 -->
     <g transform="translate(119.37 58.156562) scale(0.1 -0.1)">
      <use xlink:href="#DejaVuSans-32"/>
      <use xlink:href="#DejaVuSans-30" x="63.623047"/>
      <use xlink:href="#DejaVuSans-31" x="127.246094"/>
      <use xlink:href="#DejaVuSans-37" x="190.869141"/>
     </g>
    </g>
    <g id="line2d_36">
     <path d="M 91.37 69.334687 
L 101.37 69.334687 
L 101.37 69.334687 
L 111.37 69.334687 
L 111.37 69.334687 
" style="fill: none; stroke: #add8e6; stroke-width: 1.5; stroke-linecap: square"/>
    </g>
    <g id="text_18">
     <!-- 2018 -->
     <g transform="translate(119.37 72.834687) scale(0.1 -0.1)">
      <defs>
       <path id="DejaVuSans-38" d="M 2034 2216 
Q 1584 2216 1326 1975 
Q 1069 1734 1069 1313 
Q 1069 891 1326 650 
Q 1584 409 2034 409 
Q 2484 409 2743 651 
Q 3003 894 3003 1313 
Q 3003 1734 2745 1975 
Q 2488 2216 2034 2216 
z
M 1403 2484 
Q 997 2584 770 2862 
Q 544 3141 544 3541 
Q 544 4100 942 4425 
Q 1341 4750 2034 4750 
Q 2731 4750 3128 4425 
Q 3525 4100 3525 3541 
Q 3525 3141 3298 2862 
Q 3072 2584 2669 2484 
Q 3125 2378 3379 2068 
Q 3634 1759 3634 1313 
Q 3634 634 3220 271 
Q 2806 -91 2034 -91 
Q 1263 -91 848 271 
Q 434 634 434 1313 
Q 434 1759 690 2068 
Q 947 2378 1403 2484 
z
M 1172 3481 
Q 1172 3119 1398 2916 
Q 1625 2713 2034 2713 
Q 2441 2713 2670 2916 
Q 2900 3119 2900 3481 
Q 2900 3844 2670 4047 
Q 2441 4250 2034 4250 
Q 1625 4250 1398 4047 
Q 1172 3844 1172 3481 
z
" transform="scale(0.015625)"/>
      </defs>
      <use xlink:href="#DejaVuSans-32"/>
      <use xlink:href="#DejaVuSans-30" x="63.623047"/>
      <use xlink:href="#DejaVuSans-31" x="127.246094"/>
      <use xlink:href="#DejaVuSans-38" x="190.869141"/>
     </g>
    </g>
    <g id="line2d_37">
     <path d="M 91.37 84.012812 
L 101.37 84.012812 
L 101.37 84.012812 
L 111.37 84.012812 
L 111.37 84.012812 
" style="fill: none; stroke: #ffc0cb; stroke-width: 1.5; stroke-linecap: square"/>
    </g>
    <g id="text_19">
     <!-- 2019 -->
     <g transform="translate(119.37 87.512812) scale(0.1 -0.1)">
      <defs>
       <path id="DejaVuSans-39" d="M 703 97 
L 703 672 
Q 941 559 1184 500 
Q 1428 441 1663 441 
Q 2288 441 2617 861 
Q 2947 1281 2994 2138 
Q 2813 1869 2534 1725 
Q 2256 1581 1919 1581 
Q 1219 1581 811 2004 
Q 403 2428 403 3163 
Q 403 3881 828 4315 
Q 1253 4750 1959 4750 
Q 2769 4750 3195 4129 
Q 3622 3509 3622 2328 
Q 3622 1225 3098 567 
Q 2575 -91 1691 -91 
Q 1453 -91 1209 -44 
Q 966 3 703 97 
z
M 1959 2075 
Q 2384 2075 2632 2365 
Q 2881 2656 2881 3163 
Q 2881 3666 2632 3958 
Q 2384 4250 1959 4250 
Q 1534 4250 1286 3958 
Q 1038 3666 1038 3163 
Q 1038 2656 1286 2365 
Q 1534 2075 1959 2075 
z
" transform="scale(0.015625)"/>
      </defs>
      <use xlink:href="#DejaVuSans-32"/>
      <use xlink:href="#DejaVuSans-30" x="63.623047"/>
      <use xlink:href="#DejaVuSans-31" x="127.246094"/>
      <use xlink:href="#DejaVuSans-39" x="190.869141"/>
     </g>
    </g>
    <g id="line2d_38">
     <path d="M 91.37 98.690937 
L 101.37 98.690937 
L 101.37 98.690937 
L 111.37 98.690937 
L 111.37 98.690937 
" style="fill: none; stroke: #800080; stroke-width: 1.5; stroke-linecap: square"/>
    </g>
    <g id="text_20">
     <!-- 2020 -->
     <g transform="translate(119.37 102.190937) scale(0.1 -0.1)">
      <use xlink:href="#DejaVuSans-32"/>
      <use xlink:href="#DejaVuSans-30" x="63.623047"/>
      <use xlink:href="#DejaVuSans-32" x="127.246094"/>
      <use xlink:href="#DejaVuSans-30" x="190.869141"/>
     </g>
    </g>
    <g id="line2d_39">
     <path d="M 91.37 113.369062 
L 101.37 113.369062 
L 101.37 113.369062 
L 111.37 113.369062 
L 111.37 113.369062 
" style="fill: none; stroke: #ffa500; stroke-width: 1.5; stroke-linecap: square"/>
    </g>
    <g id="text_21">
     <!-- 2021 -->
     <g transform="translate(119.37 116.869062) scale(0.1 -0.1)">
      <use xlink:href="#DejaVuSans-32"/>
      <use xlink:href="#DejaVuSans-30" x="63.623047"/>
      <use xlink:href="#DejaVuSans-32" x="127.246094"/>
      <use xlink:href="#DejaVuSans-31" x="190.869141"/>
     </g>
    </g>
    <g id="line2d_40">
     <path d="M 91.37 128.047187 
L 101.37 128.047187 
L 101.37 128.047187 
L 111.37 128.047187 
L 111.37 128.047187 
" style="fill: none; stroke: #0000ff; stroke-width: 1.5; stroke-linecap: square"/>
    </g>
    <g id="text_22">
     <!-- 2022 -->
     <g transform="translate(119.37 131.547187) scale(0.1 -0.1)">
      <use xlink:href="#DejaVuSans-32"/>
      <use xlink:href="#DejaVuSans-30" x="63.623047"/>
      <use xlink:href="#DejaVuSans-32" x="127.246094"/>
      <use xlink:href="#DejaVuSans-32" x="190.869141"/>
     </g>
    </g>
    <g id="line2d_41">
     <path d="M 91.37 142.725312 
L 101.37 142.725312 
L 101.37 142.725312 
L 111.37 142.725312 
L 111.37 142.725312 
" style="fill: none; stroke: #008000; stroke-width: 1.5; stroke-linecap: square"/>
    </g>
    <g id="text_23">
     <!-- 2023 -->
     <g transform="translate(119.37 146.225312) scale(0.1 -0.1)">
      <defs>
       <path id="DejaVuSans-33" d="M 2597 2516 
Q 3050 2419 3304 2112 
Q 3559 1806 3559 1356 
Q 3559 666 3084 287 
Q 2609 -91 1734 -91 
Q 1441 -91 1130 -33 
Q 819 25 488 141 
L 488 750 
Q 750 597 1062 519 
Q 1375 441 1716 441 
Q 2309 441 2620 675 
Q 2931 909 2931 1356 
Q 2931 1769 2642 2001 
Q 2353 2234 1838 2234 
L 1294 2234 
L 1294 2753 
L 1863 2753 
Q 2328 2753 2575 2939 
Q 2822 3125 2822 3475 
Q 2822 3834 2567 4026 
Q 2313 4219 1838 4219 
Q 1578 4219 1281 4162 
Q 984 4106 628 3988 
L 628 4550 
Q 988 4650 1302 4700 
Q 1616 4750 1894 4750 
Q 2613 4750 3031 4423 
Q 3450 4097 3450 3541 
Q 3450 3153 3228 2886 
Q 3006 2619 2597 2516 
z
" transform="scale(0.015625)"/>
      </defs>
      <use xlink:href="#DejaVuSans-32"/>
      <use xlink:href="#DejaVuSans-30" x="63.623047"/>
      <use xlink:href="#DejaVuSans-32" x="127.246094"/>
      <use xlink:href="#DejaVuSans-33" x="190.869141"/>
     </g>
    </g>
    <g id="line2d_42">
     <path d="M 91.37 157.403437 
L 101.37 157.403437 
L 101.37 157.403437 
L 111.37 157.403437 
L 111.37 157.403437 
" style="fill: none; stroke: #ff0000; stroke-width: 1.5; stroke-linecap: square"/>
    </g>
    <g id="text_24">
     <!-- 2024 -->
     <g transform="translate(119.37 160.903437) scale(0.1 -0.1)">
      <defs>
       <path id="DejaVuSans-34" d="M 2419 4116 
L 825 1625 
L 2419 1625 
L 2419 4116 
z
M 2253 4666 
L 3047 4666 
L 3047 1625 
L 3713 1625 
L 3713 1100 
L 3047 1100 
L 3047 0 
L 2419 0 
L 2419 1100 
L 313 1100 
L 313 1709 
L 2253 4666 
z
" transform="scale(0.015625)"/>
      </defs>
      <use xlink:href="#DejaVuSans-32"/>
      <use xlink:href="#DejaVuSans-30" x="63.623047"/>
      <use xlink:href="#DejaVuSans-32" x="127.246094"/>
      <use xlink:href="#DejaVuSans-34" x="190.869141"/>
     </g>
    </g>
   </g>
  </g>
 </g>
 <defs>
  <clipPath id="pe386cc305d">
   <rect x="82.37" y="26.88" width="626.83" height="449.24"/>
  </clipPath>
 </defs>
</svg>
