<?xml version="1.0" encoding="utf-8" standalone="no"?>
<!DOCTYPE svg PUBLIC "-//W3C//DTD SVG 1.1//EN"
  "http://www.w3.org/Graphics/SVG/1.1/DTD/svg11.dtd">
<svg xmlns:xlink="http://www.w3.org/1999/xlink" width="720pt" height="504pt" viewBox="0 0 720 504" xmlns="http://www.w3.org/2000/svg" version="1.1">
 <metadata>
  <rdf:RDF xmlns:dc="http://purl.org/dc/elements/1.1/" xmlns:cc="http://creativecommons.org/ns#" xmlns:rdf="http://www.w3.org/1999/02/22-rdf-syntax-ns#">
   <cc:Work>
    <dc:type rdf:resource="http://purl.org/dc/dcmitype/StillImage"/>
    <dc:date>2025-01-18T03:37:28.685074</dc:date>
    <dc:format>image/svg+xml</dc:format>
    <dc:creator>
     <cc:Agent>
      <dc:title>Matplotlib v3.8.2, https://matplotlib.org/</dc:title>
     </cc:Agent>
    </dc:creator>
   </cc:Work>
  </rdf:RDF>
 </metadata>
 <defs>
  <style type="text/css">*{stroke-linejoin: round; stroke-linecap: butt}</style>
 </defs>
 <g id="figure_1">
  <g id="patch_1">
   <path d="M 0 504 
L 720 504 
L 720 0 
L 0 0 
z
" style="fill: #ffffff"/>
  </g>
  <g id="axes_1">
   <g id="patch_2">
    <path d="M 88.67 476.12 
L 709.2 476.12 
L 709.2 26.88 
L 88.67 26.88 
z
" style="fill: #ffffff"/>
   </g>
   <g id="matplotlib.axis_1">
    <g id="xtick_1">
     <g id="line2d_1">
      <path d="M 112.78386 476.12 
L 112.78386 26.88 
" clip-path="url(#pcc437123fd)" style="fill: none; stroke: #b0b0b0; stroke-width: 0.8; stroke-linecap: square"/>
     </g>
     <g id="line2d_2">
      <defs>
       <path id="mcfdc46dfb6" d="M 0 0 
L 0 3.5 
" style="stroke: #000000; stroke-width: 0.8"/>
      </defs>
      <g>
       <use xlink:href="#mcfdc46dfb6" x="112.78386" y="476.12" style="stroke: #000000; stroke-width: 0.8"/>
      </g>
     </g>
     <g id="text_1">
      <!-- Jan 1 -->
      <g transform="translate(100.305735 490.718437) scale(0.1 -0.1)">
       <defs>
        <path id="DejaVuSans-4a" d="M 628 4666 
L 1259 4666 
L 1259 325 
Q 1259 -519 939 -900 
Q 619 -1281 -91 -1281 
L -331 -1281 
L -331 -750 
L -134 -750 
Q 284 -750 456 -515 
Q 628 -281 628 325 
L 628 4666 
z
" transform="scale(0.015625)"/>
        <path id="DejaVuSans-61" d="M 2194 1759 
Q 1497 1759 1228 1600 
Q 959 1441 959 1056 
Q 959 750 1161 570 
Q 1363 391 1709 391 
Q 2188 391 2477 730 
Q 2766 1069 2766 1631 
L 2766 1759 
L 2194 1759 
z
M 3341 1997 
L 3341 0 
L 2766 0 
L 2766 531 
Q 2569 213 2275 61 
Q 1981 -91 1556 -91 
Q 1019 -91 701 211 
Q 384 513 384 1019 
Q 384 1609 779 1909 
Q 1175 2209 1959 2209 
L 2766 2209 
L 2766 2266 
Q 2766 2663 2505 2880 
Q 2244 3097 1772 3097 
Q 1472 3097 1187 3025 
Q 903 2953 641 2809 
L 641 3341 
Q 956 3463 1253 3523 
Q 1550 3584 1831 3584 
Q 2591 3584 2966 3190 
Q 3341 2797 3341 1997 
z
" transform="scale(0.015625)"/>
        <path id="DejaVuSans-6e" d="M 3513 2113 
L 3513 0 
L 2938 0 
L 2938 2094 
Q 2938 2591 2744 2837 
Q 2550 3084 2163 3084 
Q 1697 3084 1428 2787 
Q 1159 2491 1159 1978 
L 1159 0 
L 581 0 
L 581 3500 
L 1159 3500 
L 1159 2956 
Q 1366 3272 1645 3428 
Q 1925 3584 2291 3584 
Q 2894 3584 3203 3211 
Q 3513 2838 3513 2113 
z
" transform="scale(0.015625)"/>
        <path id="DejaVuSans-20" transform="scale(0.015625)"/>
        <path id="DejaVuSans-31" d="M 794 531 
L 1825 531 
L 1825 4091 
L 703 3866 
L 703 4441 
L 1819 4666 
L 2450 4666 
L 2450 531 
L 3481 531 
L 3481 0 
L 794 0 
L 794 531 
z
" transform="scale(0.015625)"/>
       </defs>
       <use xlink:href="#DejaVuSans-4a"/>
       <use xlink:href="#DejaVuSans-61" x="29.492188"/>
       <use xlink:href="#DejaVuSans-6e" x="90.771484"/>
       <use xlink:href="#DejaVuSans-20" x="154.150391"/>
       <use xlink:href="#DejaVuSans-31" x="185.9375"/>
      </g>
     </g>
    </g>
    <g id="xtick_2">
     <g id="line2d_3">
      <path d="M 209.239301 476.12 
L 209.239301 26.88 
" clip-path="url(#pcc437123fd)" style="fill: none; stroke: #b0b0b0; stroke-width: 0.8; stroke-linecap: square"/>
     </g>
     <g id="line2d_4">
      <g>
       <use xlink:href="#mcfdc46dfb6" x="209.239301" y="476.12" style="stroke: #000000; stroke-width: 0.8"/>
      </g>
     </g>
     <g id="text_2">
      <!-- Mar 1 -->
      <g transform="translate(195.035394 490.718437) scale(0.1 -0.1)">
       <defs>
        <path id="DejaVuSans-4d" d="M 628 4666 
L 1569 4666 
L 2759 1491 
L 3956 4666 
L 4897 4666 
L 4897 0 
L 4281 0 
L 4281 4097 
L 3078 897 
L 2444 897 
L 1241 4097 
L 1241 0 
L 628 0 
L 628 4666 
z
" transform="scale(0.015625)"/>
        <path id="DejaVuSans-72" d="M 2631 2963 
Q 2534 3019 2420 3045 
Q 2306 3072 2169 3072 
Q 1681 3072 1420 2755 
Q 1159 2438 1159 1844 
L 1159 0 
L 581 0 
L 581 3500 
L 1159 3500 
L 1159 2956 
Q 1341 3275 1631 3429 
Q 1922 3584 2338 3584 
Q 2397 3584 2469 3576 
Q 2541 3569 2628 3553 
L 2631 2963 
z
" transform="scale(0.015625)"/>
       </defs>
       <use xlink:href="#DejaVuSans-4d"/>
       <use xlink:href="#DejaVuSans-61" x="86.279297"/>
       <use xlink:href="#DejaVuSans-72" x="147.558594"/>
       <use xlink:href="#DejaVuSans-20" x="188.671875"/>
       <use xlink:href="#DejaVuSans-31" x="220.458984"/>
      </g>
     </g>
    </g>
    <g id="xtick_3">
     <g id="line2d_5">
      <path d="M 307.302332 476.12 
L 307.302332 26.88 
" clip-path="url(#pcc437123fd)" style="fill: none; stroke: #b0b0b0; stroke-width: 0.8; stroke-linecap: square"/>
     </g>
     <g id="line2d_6">
      <g>
       <use xlink:href="#mcfdc46dfb6" x="307.302332" y="476.12" style="stroke: #000000; stroke-width: 0.8"/>
      </g>
     </g>
     <g id="text_3">
      <!-- May 1 -->
      <g transform="translate(292.194519 490.718437) scale(0.1 -0.1)">
       <defs>
        <path id="DejaVuSans-79" d="M 2059 -325 
Q 1816 -950 1584 -1140 
Q 1353 -1331 966 -1331 
L 506 -1331 
L 506 -850 
L 844 -850 
Q 1081 -850 1212 -737 
Q 1344 -625 1503 -206 
L 1606 56 
L 191 3500 
L 800 3500 
L 1894 763 
L 2988 3500 
L 3597 3500 
L 2059 -325 
z
" transform="scale(0.015625)"/>
       </defs>
       <use xlink:href="#DejaVuSans-4d"/>
       <use xlink:href="#DejaVuSans-61" x="86.279297"/>
       <use xlink:href="#DejaVuSans-79" x="147.558594"/>
       <use xlink:href="#DejaVuSans-20" x="206.738281"/>
       <use xlink:href="#DejaVuSans-31" x="238.525391"/>
      </g>
     </g>
    </g>
    <g id="xtick_4">
     <g id="line2d_7">
      <path d="M 405.365363 476.12 
L 405.365363 26.88 
" clip-path="url(#pcc437123fd)" style="fill: none; stroke: #b0b0b0; stroke-width: 0.8; stroke-linecap: square"/>
     </g>
     <g id="line2d_8">
      <g>
       <use xlink:href="#mcfdc46dfb6" x="405.365363" y="476.12" style="stroke: #000000; stroke-width: 0.8"/>
      </g>
     </g>
     <g id="text_4">
      <!-- Jul 1 -->
      <g transform="translate(394.562238 490.718437) scale(0.1 -0.1)">
       <defs>
        <path id="DejaVuSans-75" d="M 544 1381 
L 544 3500 
L 1119 3500 
L 1119 1403 
Q 1119 906 1312 657 
Q 1506 409 1894 409 
Q 2359 409 2629 706 
Q 2900 1003 2900 1516 
L 2900 3500 
L 3475 3500 
L 3475 0 
L 2900 0 
L 2900 538 
Q 2691 219 2414 64 
Q 2138 -91 1772 -91 
Q 1169 -91 856 284 
Q 544 659 544 1381 
z
M 1991 3584 
L 1991 3584 
z
" transform="scale(0.015625)"/>
        <path id="DejaVuSans-6c" d="M 603 4863 
L 1178 4863 
L 1178 0 
L 603 0 
L 603 4863 
z
" transform="scale(0.015625)"/>
       </defs>
       <use xlink:href="#DejaVuSans-4a"/>
       <use xlink:href="#DejaVuSans-75" x="29.492188"/>
       <use xlink:href="#DejaVuSans-6c" x="92.871094"/>
       <use xlink:href="#DejaVuSans-20" x="120.654297"/>
       <use xlink:href="#DejaVuSans-31" x="152.441406"/>
      </g>
     </g>
    </g>
    <g id="xtick_5">
     <g id="line2d_9">
      <path d="M 505.035984 476.12 
L 505.035984 26.88 
" clip-path="url(#pcc437123fd)" style="fill: none; stroke: #b0b0b0; stroke-width: 0.8; stroke-linecap: square"/>
     </g>
     <g id="line2d_10">
      <g>
       <use xlink:href="#mcfdc46dfb6" x="505.035984" y="476.12" style="stroke: #000000; stroke-width: 0.8"/>
      </g>
     </g>
     <g id="text_5">
      <!-- Sep 1 -->
      <g transform="translate(490.840672 490.718437) scale(0.1 -0.1)">
       <defs>
        <path id="DejaVuSans-53" d="M 3425 4513 
L 3425 3897 
Q 3066 4069 2747 4153 
Q 2428 4238 2131 4238 
Q 1616 4238 1336 4038 
Q 1056 3838 1056 3469 
Q 1056 3159 1242 3001 
Q 1428 2844 1947 2747 
L 2328 2669 
Q 3034 2534 3370 2195 
Q 3706 1856 3706 1288 
Q 3706 609 3251 259 
Q 2797 -91 1919 -91 
Q 1588 -91 1214 -16 
Q 841 59 441 206 
L 441 856 
Q 825 641 1194 531 
Q 1563 422 1919 422 
Q 2459 422 2753 634 
Q 3047 847 3047 1241 
Q 3047 1584 2836 1778 
Q 2625 1972 2144 2069 
L 1759 2144 
Q 1053 2284 737 2584 
Q 422 2884 422 3419 
Q 422 4038 858 4394 
Q 1294 4750 2059 4750 
Q 2388 4750 2728 4690 
Q 3069 4631 3425 4513 
z
" transform="scale(0.015625)"/>
        <path id="DejaVuSans-65" d="M 3597 1894 
L 3597 1613 
L 953 1613 
Q 991 1019 1311 708 
Q 1631 397 2203 397 
Q 2534 397 2845 478 
Q 3156 559 3463 722 
L 3463 178 
Q 3153 47 2828 -22 
Q 2503 -91 2169 -91 
Q 1331 -91 842 396 
Q 353 884 353 1716 
Q 353 2575 817 3079 
Q 1281 3584 2069 3584 
Q 2775 3584 3186 3129 
Q 3597 2675 3597 1894 
z
M 3022 2063 
Q 3016 2534 2758 2815 
Q 2500 3097 2075 3097 
Q 1594 3097 1305 2825 
Q 1016 2553 972 2059 
L 3022 2063 
z
" transform="scale(0.015625)"/>
        <path id="DejaVuSans-70" d="M 1159 525 
L 1159 -1331 
L 581 -1331 
L 581 3500 
L 1159 3500 
L 1159 2969 
Q 1341 3281 1617 3432 
Q 1894 3584 2278 3584 
Q 2916 3584 3314 3078 
Q 3713 2572 3713 1747 
Q 3713 922 3314 415 
Q 2916 -91 2278 -91 
Q 1894 -91 1617 61 
Q 1341 213 1159 525 
z
M 3116 1747 
Q 3116 2381 2855 2742 
Q 2594 3103 2138 3103 
Q 1681 3103 1420 2742 
Q 1159 2381 1159 1747 
Q 1159 1113 1420 752 
Q 1681 391 2138 391 
Q 2594 391 2855 752 
Q 3116 1113 3116 1747 
z
" transform="scale(0.015625)"/>
       </defs>
       <use xlink:href="#DejaVuSans-53"/>
       <use xlink:href="#DejaVuSans-65" x="63.476562"/>
       <use xlink:href="#DejaVuSans-70" x="125"/>
       <use xlink:href="#DejaVuSans-20" x="188.476562"/>
       <use xlink:href="#DejaVuSans-31" x="220.263672"/>
      </g>
     </g>
    </g>
    <g id="xtick_6">
     <g id="line2d_11">
      <path d="M 603.099016 476.12 
L 603.099016 26.88 
" clip-path="url(#pcc437123fd)" style="fill: none; stroke: #b0b0b0; stroke-width: 0.8; stroke-linecap: square"/>
     </g>
     <g id="line2d_12">
      <g>
       <use xlink:href="#mcfdc46dfb6" x="603.099016" y="476.12" style="stroke: #000000; stroke-width: 0.8"/>
      </g>
     </g>
     <g id="text_6">
      <!-- Nov 1 -->
      <g transform="translate(588.569328 490.718437) scale(0.1 -0.1)">
       <defs>
        <path id="DejaVuSans-4e" d="M 628 4666 
L 1478 4666 
L 3547 763 
L 3547 4666 
L 4159 4666 
L 4159 0 
L 3309 0 
L 1241 3903 
L 1241 0 
L 628 0 
L 628 4666 
z
" transform="scale(0.015625)"/>
        <path id="DejaVuSans-6f" d="M 1959 3097 
Q 1497 3097 1228 2736 
Q 959 2375 959 1747 
Q 959 1119 1226 758 
Q 1494 397 1959 397 
Q 2419 397 2687 759 
Q 2956 1122 2956 1747 
Q 2956 2369 2687 2733 
Q 2419 3097 1959 3097 
z
M 1959 3584 
Q 2709 3584 3137 3096 
Q 3566 2609 3566 1747 
Q 3566 888 3137 398 
Q 2709 -91 1959 -91 
Q 1206 -91 779 398 
Q 353 888 353 1747 
Q 353 2609 779 3096 
Q 1206 3584 1959 3584 
z
" transform="scale(0.015625)"/>
        <path id="DejaVuSans-76" d="M 191 3500 
L 800 3500 
L 1894 563 
L 2988 3500 
L 3597 3500 
L 2284 0 
L 1503 0 
L 191 3500 
z
" transform="scale(0.015625)"/>
       </defs>
       <use xlink:href="#DejaVuSans-4e"/>
       <use xlink:href="#DejaVuSans-6f" x="74.804688"/>
       <use xlink:href="#DejaVuSans-76" x="135.986328"/>
       <use xlink:href="#DejaVuSans-20" x="195.166016"/>
       <use xlink:href="#DejaVuSans-31" x="226.953125"/>
      </g>
     </g>
    </g>
   </g>
   <g id="matplotlib.axis_2">
    <g id="ytick_1">
     <g id="line2d_13">
      <path d="M 88.67 455.7 
L 709.2 455.7 
" clip-path="url(#pcc437123fd)" style="fill: none; stroke: #b0b0b0; stroke-width: 0.8; stroke-linecap: square"/>
     </g>
     <g id="line2d_14">
      <defs>
       <path id="mc1affab769" d="M 0 0 
L -3.5 0 
" style="stroke: #000000; stroke-width: 0.8"/>
      </defs>
      <g>
       <use xlink:href="#mc1affab769" x="88.67" y="455.7" style="stroke: #000000; stroke-width: 0.8"/>
      </g>
     </g>
     <g id="text_7">
      <!-- 0 -->
      <g transform="translate(75.3075 459.499219) scale(0.1 -0.1)">
       <defs>
        <path id="DejaVuSans-30" d="M 2034 4250 
Q 1547 4250 1301 3770 
Q 1056 3291 1056 2328 
Q 1056 1369 1301 889 
Q 1547 409 2034 409 
Q 2525 409 2770 889 
Q 3016 1369 3016 2328 
Q 3016 3291 2770 3770 
Q 2525 4250 2034 4250 
z
M 2034 4750 
Q 2819 4750 3233 4129 
Q 3647 3509 3647 2328 
Q 3647 1150 3233 529 
Q 2819 -91 2034 -91 
Q 1250 -91 836 529 
Q 422 1150 422 2328 
Q 422 3509 836 4129 
Q 1250 4750 2034 4750 
z
" transform="scale(0.015625)"/>
       </defs>
       <use xlink:href="#DejaVuSans-30"/>
      </g>
     </g>
    </g>
    <g id="ytick_2">
     <g id="line2d_15">
      <path d="M 88.67 374.467453 
L 709.2 374.467453 
" clip-path="url(#pcc437123fd)" style="fill: none; stroke: #b0b0b0; stroke-width: 0.8; stroke-linecap: square"/>
     </g>
     <g id="line2d_16">
      <g>
       <use xlink:href="#mc1affab769" x="88.67" y="374.467453" style="stroke: #000000; stroke-width: 0.8"/>
      </g>
     </g>
     <g id="text_8">
      <!-- 10,000,000 -->
      <g transform="translate(24.41375 378.266672) scale(0.1 -0.1)">
       <defs>
        <path id="DejaVuSans-2c" d="M 750 794 
L 1409 794 
L 1409 256 
L 897 -744 
L 494 -744 
L 750 256 
L 750 794 
z
" transform="scale(0.015625)"/>
       </defs>
       <use xlink:href="#DejaVuSans-31"/>
       <use xlink:href="#DejaVuSans-30" x="63.623047"/>
       <use xlink:href="#DejaVuSans-2c" x="127.246094"/>
       <use xlink:href="#DejaVuSans-30" x="159.033203"/>
       <use xlink:href="#DejaVuSans-30" x="222.65625"/>
       <use xlink:href="#DejaVuSans-30" x="286.279297"/>
       <use xlink:href="#DejaVuSans-2c" x="349.902344"/>
       <use xlink:href="#DejaVuSans-30" x="381.689453"/>
       <use xlink:href="#DejaVuSans-30" x="445.3125"/>
       <use xlink:href="#DejaVuSans-30" x="508.935547"/>
      </g>
     </g>
    </g>
    <g id="ytick_3">
     <g id="line2d_17">
      <path d="M 88.67 293.234906 
L 709.2 293.234906 
" clip-path="url(#pcc437123fd)" style="fill: none; stroke: #b0b0b0; stroke-width: 0.8; stroke-linecap: square"/>
     </g>
     <g id="line2d_18">
      <g>
       <use xlink:href="#mc1affab769" x="88.67" y="293.234906" style="stroke: #000000; stroke-width: 0.8"/>
      </g>
     </g>
     <g id="text_9">
      <!-- 20,000,000 -->
      <g transform="translate(24.41375 297.034125) scale(0.1 -0.1)">
       <defs>
        <path id="DejaVuSans-32" d="M 1228 531 
L 3431 531 
L 3431 0 
L 469 0 
L 469 531 
Q 828 903 1448 1529 
Q 2069 2156 2228 2338 
Q 2531 2678 2651 2914 
Q 2772 3150 2772 3378 
Q 2772 3750 2511 3984 
Q 2250 4219 1831 4219 
Q 1534 4219 1204 4116 
Q 875 4013 500 3803 
L 500 4441 
Q 881 4594 1212 4672 
Q 1544 4750 1819 4750 
Q 2544 4750 2975 4387 
Q 3406 4025 3406 3419 
Q 3406 3131 3298 2873 
Q 3191 2616 2906 2266 
Q 2828 2175 2409 1742 
Q 1991 1309 1228 531 
z
" transform="scale(0.015625)"/>
       </defs>
       <use xlink:href="#DejaVuSans-32"/>
       <use xlink:href="#DejaVuSans-30" x="63.623047"/>
       <use xlink:href="#DejaVuSans-2c" x="127.246094"/>
       <use xlink:href="#DejaVuSans-30" x="159.033203"/>
       <use xlink:href="#DejaVuSans-30" x="222.65625"/>
       <use xlink:href="#DejaVuSans-30" x="286.279297"/>
       <use xlink:href="#DejaVuSans-2c" x="349.902344"/>
       <use xlink:href="#DejaVuSans-30" x="381.689453"/>
       <use xlink:href="#DejaVuSans-30" x="445.3125"/>
       <use xlink:href="#DejaVuSans-30" x="508.935547"/>
      </g>
     </g>
    </g>
    <g id="ytick_4">
     <g id="line2d_19">
      <path d="M 88.67 212.00236 
L 709.2 212.00236 
" clip-path="url(#pcc437123fd)" style="fill: none; stroke: #b0b0b0; stroke-width: 0.8; stroke-linecap: square"/>
     </g>
     <g id="line2d_20">
      <g>
       <use xlink:href="#mc1affab769" x="88.67" y="212.00236" style="stroke: #000000; stroke-width: 0.8"/>
      </g>
     </g>
     <g id="text_10">
      <!-- 30,000,000 -->
      <g transform="translate(24.41375 215.801578) scale(0.1 -0.1)">
       <defs>
        <path id="DejaVuSans-33" d="M 2597 2516 
Q 3050 2419 3304 2112 
Q 3559 1806 3559 1356 
Q 3559 666 3084 287 
Q 2609 -91 1734 -91 
Q 1441 -91 1130 -33 
Q 819 25 488 141 
L 488 750 
Q 750 597 1062 519 
Q 1375 441 1716 441 
Q 2309 441 2620 675 
Q 2931 909 2931 1356 
Q 2931 1769 2642 2001 
Q 2353 2234 1838 2234 
L 1294 2234 
L 1294 2753 
L 1863 2753 
Q 2328 2753 2575 2939 
Q 2822 3125 2822 3475 
Q 2822 3834 2567 4026 
Q 2313 4219 1838 4219 
Q 1578 4219 1281 4162 
Q 984 4106 628 3988 
L 628 4550 
Q 988 4650 1302 4700 
Q 1616 4750 1894 4750 
Q 2613 4750 3031 4423 
Q 3450 4097 3450 3541 
Q 3450 3153 3228 2886 
Q 3006 2619 2597 2516 
z
" transform="scale(0.015625)"/>
       </defs>
       <use xlink:href="#DejaVuSans-33"/>
       <use xlink:href="#DejaVuSans-30" x="63.623047"/>
       <use xlink:href="#DejaVuSans-2c" x="127.246094"/>
       <use xlink:href="#DejaVuSans-30" x="159.033203"/>
       <use xlink:href="#DejaVuSans-30" x="222.65625"/>
       <use xlink:href="#DejaVuSans-30" x="286.279297"/>
       <use xlink:href="#DejaVuSans-2c" x="349.902344"/>
       <use xlink:href="#DejaVuSans-30" x="381.689453"/>
       <use xlink:href="#DejaVuSans-30" x="445.3125"/>
       <use xlink:href="#DejaVuSans-30" x="508.935547"/>
      </g>
     </g>
    </g>
    <g id="ytick_5">
     <g id="line2d_21">
      <path d="M 88.67 130.769813 
L 709.2 130.769813 
" clip-path="url(#pcc437123fd)" style="fill: none; stroke: #b0b0b0; stroke-width: 0.8; stroke-linecap: square"/>
     </g>
     <g id="line2d_22">
      <g>
       <use xlink:href="#mc1affab769" x="88.67" y="130.769813" style="stroke: #000000; stroke-width: 0.8"/>
      </g>
     </g>
     <g id="text_11">
      <!-- 40,000,000 -->
      <g transform="translate(24.41375 134.569032) scale(0.1 -0.1)">
       <defs>
        <path id="DejaVuSans-34" d="M 2419 4116 
L 825 1625 
L 2419 1625 
L 2419 4116 
z
M 2253 4666 
L 3047 4666 
L 3047 1625 
L 3713 1625 
L 3713 1100 
L 3047 1100 
L 3047 0 
L 2419 0 
L 2419 1100 
L 313 1100 
L 313 1709 
L 2253 4666 
z
" transform="scale(0.015625)"/>
       </defs>
       <use xlink:href="#DejaVuSans-34"/>
       <use xlink:href="#DejaVuSans-30" x="63.623047"/>
       <use xlink:href="#DejaVuSans-2c" x="127.246094"/>
       <use xlink:href="#DejaVuSans-30" x="159.033203"/>
       <use xlink:href="#DejaVuSans-30" x="222.65625"/>
       <use xlink:href="#DejaVuSans-30" x="286.279297"/>
       <use xlink:href="#DejaVuSans-2c" x="349.902344"/>
       <use xlink:href="#DejaVuSans-30" x="381.689453"/>
       <use xlink:href="#DejaVuSans-30" x="445.3125"/>
       <use xlink:href="#DejaVuSans-30" x="508.935547"/>
      </g>
     </g>
    </g>
    <g id="ytick_6">
     <g id="line2d_23">
      <path d="M 88.67 49.537266 
L 709.2 49.537266 
" clip-path="url(#pcc437123fd)" style="fill: none; stroke: #b0b0b0; stroke-width: 0.8; stroke-linecap: square"/>
     </g>
     <g id="line2d_24">
      <g>
       <use xlink:href="#mc1affab769" x="88.67" y="49.537266" style="stroke: #000000; stroke-width: 0.8"/>
      </g>
     </g>
     <g id="text_12">
      <!-- 50,000,000 -->
      <g transform="translate(24.41375 53.336485) scale(0.1 -0.1)">
       <defs>
        <path id="DejaVuSans-35" d="M 691 4666 
L 3169 4666 
L 3169 4134 
L 1269 4134 
L 1269 2991 
Q 1406 3038 1543 3061 
Q 1681 3084 1819 3084 
Q 2600 3084 3056 2656 
Q 3513 2228 3513 1497 
Q 3513 744 3044 326 
Q 2575 -91 1722 -91 
Q 1428 -91 1123 -41 
Q 819 9 494 109 
L 494 744 
Q 775 591 1075 516 
Q 1375 441 1709 441 
Q 2250 441 2565 725 
Q 2881 1009 2881 1497 
Q 2881 1984 2565 2268 
Q 2250 2553 1709 2553 
Q 1456 2553 1204 2497 
Q 953 2441 691 2322 
L 691 4666 
z
" transform="scale(0.015625)"/>
       </defs>
       <use xlink:href="#DejaVuSans-35"/>
       <use xlink:href="#DejaVuSans-30" x="63.623047"/>
       <use xlink:href="#DejaVuSans-2c" x="127.246094"/>
       <use xlink:href="#DejaVuSans-30" x="159.033203"/>
       <use xlink:href="#DejaVuSans-30" x="222.65625"/>
       <use xlink:href="#DejaVuSans-30" x="286.279297"/>
       <use xlink:href="#DejaVuSans-2c" x="349.902344"/>
       <use xlink:href="#DejaVuSans-30" x="381.689453"/>
       <use xlink:href="#DejaVuSans-30" x="445.3125"/>
       <use xlink:href="#DejaVuSans-30" x="508.935547"/>
      </g>
     </g>
    </g>
    <g id="text_13">
     <!-- Cumulative Payload Mass (kg) -->
     <g transform="translate(18.334063 326.863281) rotate(-90) scale(0.1 -0.1)">
      <defs>
       <path id="DejaVuSans-43" d="M 4122 4306 
L 4122 3641 
Q 3803 3938 3442 4084 
Q 3081 4231 2675 4231 
Q 1875 4231 1450 3742 
Q 1025 3253 1025 2328 
Q 1025 1406 1450 917 
Q 1875 428 2675 428 
Q 3081 428 3442 575 
Q 3803 722 4122 1019 
L 4122 359 
Q 3791 134 3420 21 
Q 3050 -91 2638 -91 
Q 1578 -91 968 557 
Q 359 1206 359 2328 
Q 359 3453 968 4101 
Q 1578 4750 2638 4750 
Q 3056 4750 3426 4639 
Q 3797 4528 4122 4306 
z
" transform="scale(0.015625)"/>
       <path id="DejaVuSans-6d" d="M 3328 2828 
Q 3544 3216 3844 3400 
Q 4144 3584 4550 3584 
Q 5097 3584 5394 3201 
Q 5691 2819 5691 2113 
L 5691 0 
L 5113 0 
L 5113 2094 
Q 5113 2597 4934 2840 
Q 4756 3084 4391 3084 
Q 3944 3084 3684 2787 
Q 3425 2491 3425 1978 
L 3425 0 
L 2847 0 
L 2847 2094 
Q 2847 2600 2669 2842 
Q 2491 3084 2119 3084 
Q 1678 3084 1418 2786 
Q 1159 2488 1159 1978 
L 1159 0 
L 581 0 
L 581 3500 
L 1159 3500 
L 1159 2956 
Q 1356 3278 1631 3431 
Q 1906 3584 2284 3584 
Q 2666 3584 2933 3390 
Q 3200 3197 3328 2828 
z
" transform="scale(0.015625)"/>
       <path id="DejaVuSans-74" d="M 1172 4494 
L 1172 3500 
L 2356 3500 
L 2356 3053 
L 1172 3053 
L 1172 1153 
Q 1172 725 1289 603 
Q 1406 481 1766 481 
L 2356 481 
L 2356 0 
L 1766 0 
Q 1100 0 847 248 
Q 594 497 594 1153 
L 594 3053 
L 172 3053 
L 172 3500 
L 594 3500 
L 594 4494 
L 1172 4494 
z
" transform="scale(0.015625)"/>
       <path id="DejaVuSans-69" d="M 603 3500 
L 1178 3500 
L 1178 0 
L 603 0 
L 603 3500 
z
M 603 4863 
L 1178 4863 
L 1178 4134 
L 603 4134 
L 603 4863 
z
" transform="scale(0.015625)"/>
       <path id="DejaVuSans-50" d="M 1259 4147 
L 1259 2394 
L 2053 2394 
Q 2494 2394 2734 2622 
Q 2975 2850 2975 3272 
Q 2975 3691 2734 3919 
Q 2494 4147 2053 4147 
L 1259 4147 
z
M 628 4666 
L 2053 4666 
Q 2838 4666 3239 4311 
Q 3641 3956 3641 3272 
Q 3641 2581 3239 2228 
Q 2838 1875 2053 1875 
L 1259 1875 
L 1259 0 
L 628 0 
L 628 4666 
z
" transform="scale(0.015625)"/>
       <path id="DejaVuSans-64" d="M 2906 2969 
L 2906 4863 
L 3481 4863 
L 3481 0 
L 2906 0 
L 2906 525 
Q 2725 213 2448 61 
Q 2172 -91 1784 -91 
Q 1150 -91 751 415 
Q 353 922 353 1747 
Q 353 2572 751 3078 
Q 1150 3584 1784 3584 
Q 2172 3584 2448 3432 
Q 2725 3281 2906 2969 
z
M 947 1747 
Q 947 1113 1208 752 
Q 1469 391 1925 391 
Q 2381 391 2643 752 
Q 2906 1113 2906 1747 
Q 2906 2381 2643 2742 
Q 2381 3103 1925 3103 
Q 1469 3103 1208 2742 
Q 947 2381 947 1747 
z
" transform="scale(0.015625)"/>
       <path id="DejaVuSans-73" d="M 2834 3397 
L 2834 2853 
Q 2591 2978 2328 3040 
Q 2066 3103 1784 3103 
Q 1356 3103 1142 2972 
Q 928 2841 928 2578 
Q 928 2378 1081 2264 
Q 1234 2150 1697 2047 
L 1894 2003 
Q 2506 1872 2764 1633 
Q 3022 1394 3022 966 
Q 3022 478 2636 193 
Q 2250 -91 1575 -91 
Q 1294 -91 989 -36 
Q 684 19 347 128 
L 347 722 
Q 666 556 975 473 
Q 1284 391 1588 391 
Q 1994 391 2212 530 
Q 2431 669 2431 922 
Q 2431 1156 2273 1281 
Q 2116 1406 1581 1522 
L 1381 1569 
Q 847 1681 609 1914 
Q 372 2147 372 2553 
Q 372 3047 722 3315 
Q 1072 3584 1716 3584 
Q 2034 3584 2315 3537 
Q 2597 3491 2834 3397 
z
" transform="scale(0.015625)"/>
       <path id="DejaVuSans-28" d="M 1984 4856 
Q 1566 4138 1362 3434 
Q 1159 2731 1159 2009 
Q 1159 1288 1364 580 
Q 1569 -128 1984 -844 
L 1484 -844 
Q 1016 -109 783 600 
Q 550 1309 550 2009 
Q 550 2706 781 3412 
Q 1013 4119 1484 4856 
L 1984 4856 
z
" transform="scale(0.015625)"/>
       <path id="DejaVuSans-6b" d="M 581 4863 
L 1159 4863 
L 1159 1991 
L 2875 3500 
L 3609 3500 
L 1753 1863 
L 3688 0 
L 2938 0 
L 1159 1709 
L 1159 0 
L 581 0 
L 581 4863 
z
" transform="scale(0.015625)"/>
       <path id="DejaVuSans-67" d="M 2906 1791 
Q 2906 2416 2648 2759 
Q 2391 3103 1925 3103 
Q 1463 3103 1205 2759 
Q 947 2416 947 1791 
Q 947 1169 1205 825 
Q 1463 481 1925 481 
Q 2391 481 2648 825 
Q 2906 1169 2906 1791 
z
M 3481 434 
Q 3481 -459 3084 -895 
Q 2688 -1331 1869 -1331 
Q 1566 -1331 1297 -1286 
Q 1028 -1241 775 -1147 
L 775 -588 
Q 1028 -725 1275 -790 
Q 1522 -856 1778 -856 
Q 2344 -856 2625 -561 
Q 2906 -266 2906 331 
L 2906 616 
Q 2728 306 2450 153 
Q 2172 0 1784 0 
Q 1141 0 747 490 
Q 353 981 353 1791 
Q 353 2603 747 3093 
Q 1141 3584 1784 3584 
Q 2172 3584 2450 3431 
Q 2728 3278 2906 2969 
L 2906 3500 
L 3481 3500 
L 3481 434 
z
" transform="scale(0.015625)"/>
       <path id="DejaVuSans-29" d="M 513 4856 
L 1013 4856 
Q 1481 4119 1714 3412 
Q 1947 2706 1947 2009 
Q 1947 1309 1714 600 
Q 1481 -109 1013 -844 
L 513 -844 
Q 928 -128 1133 580 
Q 1338 1288 1338 2009 
Q 1338 2731 1133 3434 
Q 928 4138 513 4856 
z
" transform="scale(0.015625)"/>
      </defs>
      <use xlink:href="#DejaVuSans-43"/>
      <use xlink:href="#DejaVuSans-75" x="69.824219"/>
      <use xlink:href="#DejaVuSans-6d" x="133.203125"/>
      <use xlink:href="#DejaVuSans-75" x="230.615234"/>
      <use xlink:href="#DejaVuSans-6c" x="293.994141"/>
      <use xlink:href="#DejaVuSans-61" x="321.777344"/>
      <use xlink:href="#DejaVuSans-74" x="383.056641"/>
      <use xlink:href="#DejaVuSans-69" x="422.265625"/>
      <use xlink:href="#DejaVuSans-76" x="450.048828"/>
      <use xlink:href="#DejaVuSans-65" x="509.228516"/>
      <use xlink:href="#DejaVuSans-20" x="570.751953"/>
      <use xlink:href="#DejaVuSans-50" x="602.539062"/>
      <use xlink:href="#DejaVuSans-61" x="658.341797"/>
      <use xlink:href="#DejaVuSans-79" x="719.621094"/>
      <use xlink:href="#DejaVuSans-6c" x="778.800781"/>
      <use xlink:href="#DejaVuSans-6f" x="806.583984"/>
      <use xlink:href="#DejaVuSans-61" x="867.765625"/>
      <use xlink:href="#DejaVuSans-64" x="929.044922"/>
      <use xlink:href="#DejaVuSans-20" x="992.521484"/>
      <use xlink:href="#DejaVuSans-4d" x="1024.308594"/>
      <use xlink:href="#DejaVuSans-61" x="1110.587891"/>
      <use xlink:href="#DejaVuSans-73" x="1171.867188"/>
      <use xlink:href="#DejaVuSans-73" x="1223.966797"/>
      <use xlink:href="#DejaVuSans-20" x="1276.066406"/>
      <use xlink:href="#DejaVuSans-28" x="1307.853516"/>
      <use xlink:href="#DejaVuSans-6b" x="1346.867188"/>
      <use xlink:href="#DejaVuSans-67" x="1404.777344"/>
      <use xlink:href="#DejaVuSans-29" x="1468.253906"/>
     </g>
    </g>
   </g>
   <g id="line2d_25">
    <path d="M 112.78386 455.7 
L 133.682539 455.7 
L 133.682539 455.622017 
L 191.555803 455.622017 
L 191.555803 455.60179 
L 231.74557 455.60179 
L 231.74557 455.5563 
L 254.251839 455.5563 
L 254.251839 455.513246 
L 305.694741 455.513246 
L 305.694741 455.513246 
L 328.20101 455.513246 
L 328.20101 455.463938 
L 358.745233 455.463938 
L 358.745233 455.44194 
L 390.897047 455.44194 
L 390.897047 455.412136 
L 394.112228 455.412136 
L 394.112228 455.334153 
L 410.188135 455.334153 
L 410.188135 455.279232 
L 474.491762 455.279232 
L 474.491762 455.252344 
L 490.567668 455.252344 
L 490.567668 455.248485 
L 513.073938 455.248485 
L 513.073938 455.20795 
L 564.516839 455.20795 
L 564.516839 455.129967 
L 567.732021 455.129967 
L 567.732021 455.086101 
L 598.276244 455.086101 
L 598.276244 455.05767 
L 672.225415 455.05767 
L 672.225415 455.039758 
L 685.08614 455.039758 
L 685.08614 454.961775 
L 697.946865 454.961775 
L 697.946865 454.961775 
" clip-path="url(#pcc437123fd)" style="fill: none; stroke: #808080; stroke-width: 1.5; stroke-linecap: square"/>
   </g>
   <g id="line2d_26">
    <path d="M 112.78386 455.7 
L 124.036995 455.7 
L 124.036995 455.7 
L 161.01158 455.7 
L 161.01158 455.665639 
L 170.657124 455.665639 
L 170.657124 455.655485 
L 196.378575 455.655485 
L 196.378575 455.63802 
L 215.669663 455.63802 
L 215.669663 455.588533 
L 254.251839 455.588533 
L 254.251839 455.510549 
L 259.074611 455.510549 
L 259.074611 455.489047 
L 284.796062 455.489047 
L 284.796062 455.486107 
L 321.770648 455.486107 
L 321.770648 455.456863 
L 339.454145 455.456863 
L 339.454145 455.404387 
L 360.352824 455.404387 
L 360.352824 455.360651 
L 400.542591 455.360651 
L 400.542591 455.338743 
L 437.517176 455.338743 
L 437.517176 455.281271 
L 442.339948 455.281271 
L 442.339948 455.203287 
L 463.238627 455.203287 
L 463.238627 455.156172 
L 517.89671 455.156172 
L 517.89671 455.098822 
L 562.909249 455.098822 
L 562.909249 455.074453 
L 623.997694 455.074453 
L 623.997694 455.031399 
L 652.934326 455.031399 
L 652.934326 454.998906 
L 656.149508 454.998906 
L 656.149508 454.978598 
L 685.08614 454.978598 
L 685.08614 454.942856 
L 697.946865 454.942856 
L 697.946865 454.942856 
" clip-path="url(#pcc437123fd)" style="fill: none; stroke: #90ee90; stroke-width: 1.5; stroke-linecap: square"/>
   </g>
   <g id="line2d_27">
    <path d="M 112.78386 455.7 
L 128.859767 455.7 
L 128.859767 455.622017 
L 196.378575 455.622017 
L 196.378575 455.582619 
L 209.239301 455.582619 
L 209.239301 455.484693 
L 273.542927 455.484693 
L 273.542927 455.432176 
L 310.517513 455.432176 
L 310.517513 455.411909 
L 342.669326 455.411909 
L 342.669326 455.30127 
L 373.213549 455.30127 
L 373.213549 455.267152 
L 394.112228 455.267152 
L 394.112228 455.237096 
L 442.339948 455.237096 
L 442.339948 455.218673 
L 461.631036 455.218673 
L 461.631036 455.165872 
L 617.567332 455.165872 
L 617.567332 455.039149 
L 656.149508 455.039149 
L 656.149508 455.01789 
L 675.440596 455.01789 
L 675.440596 454.961385 
L 697.946865 454.961385 
L 697.946865 454.961385 
" clip-path="url(#pcc437123fd)" style="fill: none; stroke: #add8e6; stroke-width: 1.5; stroke-linecap: square"/>
   </g>
   <g id="line2d_28">
    <path d="M 112.78386 455.7 
L 122.429404 455.7 
L 122.429404 455.573277 
L 141.720492 455.573277 
L 141.720492 455.475392 
L 157.796399 455.475392 
L 157.796399 455.348669 
L 188.340622 455.348669 
L 188.340622 455.221946 
L 218.884845 455.221946 
L 218.884845 455.205887 
L 236.568342 455.205887 
L 236.568342 455.079164 
L 292.834016 455.079164 
L 292.834016 454.952441 
L 353.922461 454.952441 
L 353.922461 454.850657 
L 361.960415 454.850657 
L 361.960415 454.723934 
L 376.428731 454.723934 
L 376.428731 454.598755 
L 403.757772 454.598755 
L 403.757772 454.563735 
L 435.909585 454.563735 
L 435.909585 48.352262 
L 464.846218 48.352262 
L 464.846218 48.230966 
L 482.529715 48.230966 
L 482.529715 48.186288 
L 501.820803 48.186288 
L 501.820803 48.160862 
L 508.251166 48.160862 
L 508.251166 48.034139 
L 561.301658 48.034139 
L 561.301658 47.907416 
L 580.592746 47.907416 
L 580.592746 47.780694 
L 590.23829 47.780694 
L 590.23829 47.653971 
L 609.529378 47.653971 
L 609.529378 47.618951 
L 627.212876 47.618951 
L 627.212876 47.517411 
L 635.250829 47.517411 
L 635.250829 47.507728 
L 641.681192 47.507728 
L 641.681192 47.381005 
L 659.364689 47.381005 
L 659.364689 47.356863 
L 670.617824 47.356863 
L 670.617824 47.3 
L 680.263368 47.3 
L 680.263368 47.3 
L 699.554456 47.3 
L 699.554456 47.3 
" clip-path="url(#pcc437123fd)" style="fill: none; stroke: #ffc0cb; stroke-width: 1.5; stroke-linecap: square"/>
   </g>
   <g id="line2d_29">
    <path d="M 112.78386 455.7 
L 124.036995 455.7 
L 124.036995 455.671569 
L 143.328083 455.671569 
L 143.328083 455.544846 
L 149.758446 455.544846 
L 149.758446 455.50423 
L 167.441943 455.50423 
L 167.441943 455.377507 
L 186.733031 455.377507 
L 186.733031 455.250784 
L 212.454482 455.250784 
L 212.454482 455.124061 
L 223.707617 455.124061 
L 223.707617 454.997338 
L 228.530389 454.997338 
L 228.530389 454.870616 
L 244.606295 454.870616 
L 244.606295 454.743893 
L 267.112565 454.743893 
L 267.112565 454.61717 
L 292.834016 454.61717 
L 292.834016 454.511568 
L 302.47956 454.511568 
L 302.47956 454.384845 
L 310.517513 454.384845 
L 310.517513 454.258122 
L 318.555466 454.258122 
L 318.555466 454.1314 
L 328.20101 454.1314 
L 328.20101 454.005976 
L 345.884508 454.005976 
L 345.884508 453.879254 
L 358.745233 453.879254 
L 358.745233 453.85222 
L 363.568005 453.85222 
L 363.568005 453.795357 
L 381.251503 453.795357 
L 381.251503 453.760175 
L 402.150181 453.760175 
L 402.150181 453.760175 
L 498.605622 453.760175 
L 498.605622 453.742304 
L 524.327073 453.742304 
L 524.327073 453.634589 
L 527.542254 453.634589 
L 527.542254 453.532894 
L 617.567332 453.532894 
L 617.567332 453.427292 
L 620.782513 453.427292 
L 620.782513 453.300285 
L 638.46601 453.300285 
L 638.46601 453.295216 
L 651.326736 453.295216 
L 651.326736 453.177429 
L 662.57987 453.177429 
L 662.57987 453.174789 
L 677.048187 453.174789 
L 677.048187 453.048066 
L 678.655777 453.048066 
L 678.655777 453.011511 
L 681.870959 453.011511 
L 681.870959 452.987231 
L 697.946865 452.987231 
L 697.946865 452.987231 
" clip-path="url(#pcc437123fd)" style="fill: none; stroke: #800080; stroke-width: 1.5; stroke-linecap: square"/>
   </g>
   <g id="line2d_30">
    <path d="M 112.78386 455.7 
L 120.821813 455.7 
L 120.821813 455.582213 
L 132.074948 455.582213 
L 132.074948 455.582213 
L 141.720492 455.582213 
L 141.720492 455.464426 
L 161.01158 455.464426 
L 161.01158 455.446514 
L 164.226762 455.446514 
L 164.226762 455.446514 
L 165.834352 455.446514 
L 165.834352 455.328727 
L 194.770984 455.328727 
L 194.770984 455.21825 
L 201.201347 455.21825 
L 201.201347 455.098432 
L 210.846891 455.098432 
L 210.846891 454.985519 
L 220.492435 454.985519 
L 220.492435 454.870494 
L 236.568342 454.870494 
L 236.568342 454.738491 
L 257.467021 454.738491 
L 257.467021 454.738491 
L 268.720155 454.738491 
L 268.720155 454.632889 
L 283.188472 454.632889 
L 283.188472 454.632889 
L 289.618834 454.632889 
L 289.618834 454.500886 
L 299.264378 454.500886 
L 299.264378 454.395283 
L 302.47956 454.395283 
L 302.47956 454.263281 
L 313.732694 454.263281 
L 313.732694 454.131278 
L 324.985829 454.131278 
L 324.985829 453.999275 
L 326.59342 453.999275 
L 326.59342 453.867272 
L 333.023782 453.867272 
L 333.023782 453.735269 
L 344.276917 453.735269 
L 344.276917 453.735269 
L 366.783187 453.735269 
L 366.783187 453.701964 
L 381.251503 453.701964 
L 381.251503 453.569961 
L 382.859093 453.569961 
L 382.859093 453.537468 
L 384.466684 453.537468 
L 384.466684 453.531781 
L 400.542591 453.531781 
L 400.542591 453.50335 
L 413.403316 453.50335 
L 413.403316 453.371347 
L 419.833679 453.371347 
L 419.833679 453.256809 
L 426.264041 453.256809 
L 426.264041 453.235136 
L 429.479223 453.235136 
L 429.479223 453.103134 
L 437.517176 453.103134 
L 437.517176 452.988596 
L 440.732358 452.988596 
L 440.732358 452.856593 
L 458.415855 452.856593 
L 458.415855 452.851077 
L 468.061399 452.851077 
L 468.061399 452.721105 
L 471.27658 452.721105 
L 471.27658 452.606567 
L 482.529715 452.606567 
L 482.529715 452.474564 
L 496.998031 452.474564 
L 496.998031 452.338906 
L 501.820803 452.338906 
L 501.820803 452.223556 
L 509.858756 452.223556 
L 509.858756 452.093584 
L 519.504301 452.093584 
L 519.504301 451.996608 
L 532.365026 451.996608 
L 532.365026 451.86095 
L 540.402979 451.86095 
L 540.402979 451.730165 
L 558.086477 451.730165 
L 558.086477 451.624563 
L 558.086477 451.624563 
L 558.086477 451.493779 
L 562.909249 451.493779 
L 562.909249 451.434073 
L 574.162383 451.434073 
L 574.162383 451.397518 
L 582.200337 451.397518 
L 582.200337 451.26186 
L 595.061062 451.26186 
L 595.061062 451.128638 
L 601.491425 451.128638 
L 601.491425 451.098176 
L 604.706606 451.098176 
L 604.706606 451.061622 
L 619.174922 451.061622 
L 619.174922 451.008008 
L 636.85842 451.008008 
L 636.85842 450.96333 
L 641.681192 450.96333 
L 641.681192 450.934671 
L 660.97228 450.934671 
L 660.97228 450.885932 
L 665.795052 450.885932 
L 665.795052 450.877809 
L 673.833005 450.877809 
L 673.833005 450.859937 
L 673.833005 450.859937 
L 673.833005 450.826632 
L 675.440596 450.826632 
L 675.440596 450.690974 
L 693.124093 450.690974 
L 693.124093 450.555315 
L 696.339275 450.555315 
L 696.339275 450.552066 
L 697.946865 450.552066 
L 697.946865 450.552066 
" clip-path="url(#pcc437123fd)" style="fill: none; stroke: #ffa500; stroke-width: 1.5; stroke-linecap: square"/>
   </g>
   <g id="line2d_31">
    <path d="M 112.78386 455.7 
L 140.112902 455.620798 
L 140.112902 455.585446 
L 141.720492 455.585446 
L 141.720492 455.463597 
L 152.973627 455.463597 
L 152.973627 455.322252 
L 161.01158 455.322252 
L 161.01158 455.198779 
L 164.226762 455.198779 
L 164.226762 455.064745 
L 180.302668 455.031066 
L 180.302668 454.892159 
L 188.340622 454.892159 
L 188.340622 454.762999 
L 204.416528 454.718565 
L 204.416528 454.594279 
L 210.846891 454.488677 
L 210.846891 454.359517 
L 233.353161 454.28761 
L 233.353161 454.09915 
L 244.606295 454.09915 
L 244.606295 453.957806 
L 252.644249 453.957806 
L 252.644249 453.816461 
L 286.403653 453.771068 
L 286.403653 453.646782 
L 299.264378 453.646782 
L 299.264378 453.532245 
L 310.517513 453.44695 
L 310.517513 453.305606 
L 320.163057 453.305606 
L 320.163057 453.176446 
L 326.59342 453.176446 
L 326.59342 453.035101 
L 334.631373 453.035101 
L 334.631373 452.904317 
L 337.846554 452.850703 
L 337.846554 452.745101 
L 353.922461 452.708546 
L 353.922461 452.575325 
L 360.352824 452.575325 
L 360.352824 452.444541 
L 373.213549 452.417701 
L 373.213549 452.28448 
L 373.213549 452.28448 
L 389.289456 452.247276 
L 389.289456 452.129488 
L 390.897047 452.129488 
L 390.897047 451.988144 
L 413.403316 451.970598 
L 413.403316 451.849561 
L 418.226088 451.849561 
L 418.226088 451.718777 
L 427.871632 451.718777 
L 427.871632 451.583118 
L 440.732358 451.485639 
L 440.732358 451.354855 
L 447.16272 451.354855 
L 447.16272 451.22407 
L 456.808264 451.149336 
L 456.808264 451.108208 
L 463.238627 451.108208 
L 463.238627 450.977424 
L 469.66899 450.879945 
L 469.66899 450.749161 
L 479.314534 450.749161 
L 479.314534 450.618376 
L 487.352487 450.618376 
L 487.352487 450.49409 
L 495.39044 450.388488 
L 495.39044 450.257704 
L 503.428394 450.257704 
L 503.428394 450.126919 
L 508.251166 450.126919 
L 508.251166 450.002633 
L 516.289119 450.002633 
L 516.289119 449.871849 
L 521.111891 449.871849 
L 521.111891 449.747563 
L 527.542254 449.747563 
L 527.542254 449.616779 
L 533.972617 449.616779 
L 533.972617 449.485994 
L 540.402979 449.485994 
L 540.402979 449.35521 
L 542.01057 449.35521 
L 542.01057 449.230924 
L 550.048523 449.230924 
L 550.048523 449.10014 
L 558.086477 449.10014 
L 558.086477 448.969355 
L 564.516839 448.969355 
L 564.516839 448.84507 
L 570.947202 448.84507 
L 570.947202 448.823884 
L 570.947202 448.6931 
L 578.985155 448.6931 
L 578.985155 448.562315 
L 583.807927 448.562315 
L 583.807927 448.43803 
L 585.415518 448.43803 
L 585.415518 448.301559 
L 596.668653 448.301559 
L 596.668653 448.170775 
L 598.276244 448.170775 
L 598.276244 448.034304 
L 606.314197 448.034304 
L 606.314197 447.897833 
L 612.74456 447.897833 
L 612.74456 447.761363 
L 628.820466 447.650683 
L 628.820466 447.514213 
L 632.035648 447.514213 
L 632.035648 447.383428 
L 635.250829 447.383428 
L 635.250829 447.246957 
L 644.896373 447.246957 
L 644.896373 447.110487 
L 652.934326 447.103988 
L 652.934326 446.967517 
L 659.364689 446.967517 
L 659.364689 446.831047 
L 660.97228 446.831047 
L 660.97228 446.700262 
L 678.655777 446.700262 
L 678.655777 446.563792 
L 685.08614 446.563792 
L 685.08614 446.427321 
L 694.731684 446.398077 
L 694.731684 446.346495 
L 694.731684 446.210024 
L 697.946865 446.210024 
L 697.946865 446.210024 
" clip-path="url(#pcc437123fd)" style="fill: none; stroke: #0000ff; stroke-width: 1.5; stroke-linecap: square"/>
   </g>
   <g id="line2d_32">
    <path d="M 112.78386 455.7 
L 115.999041 455.7 
L 115.999041 455.548907 
L 122.429404 455.548907 
L 122.429404 455.41 
L 133.682539 455.41 
L 133.682539 455.274341 
L 135.29013 455.274341 
L 135.29013 455.135434 
L 149.758446 455.029831 
L 149.758446 454.894173 
L 157.796399 454.894173 
L 157.796399 454.619607 
L 177.087487 454.575579 
L 177.087487 454.439921 
L 185.12544 454.439921 
L 185.12544 454.424235 
L 185.12544 454.288576 
L 197.986166 454.256083 
L 197.986166 454.120425 
L 201.201347 454.120425 
L 201.201347 453.978268 
L 207.63171 453.978268 
L 207.63171 453.83936 
L 214.062073 453.733758 
L 214.062073 453.733758 
L 214.062073 453.59485 
L 223.707617 453.59485 
L 223.707617 453.455943 
L 225.315207 453.455943 
L 225.315207 453.317035 
L 233.353161 453.317035 
L 233.353161 453.178127 
L 238.175933 453.178127 
L 238.175933 453.045718 
L 246.213886 453.023615 
L 246.213886 452.884707 
L 247.821477 452.884707 
L 247.821477 452.7458 
L 257.467021 452.705183 
L 257.467021 452.566276 
L 260.682202 452.566276 
L 260.682202 452.430617 
L 265.504974 452.430617 
L 265.504974 452.29171 
L 268.720155 452.29171 
L 268.720155 452.155239 
L 268.720155 452.155239 
L 273.542927 452.155239 
L 273.542927 452.016331 
L 278.365699 452.006584 
L 278.365699 451.867676 
L 284.796062 451.867676 
L 284.796062 451.728768 
L 286.403653 451.728768 
L 286.403653 451.589861 
L 294.441606 451.589861 
L 294.441606 451.450953 
L 302.47956 451.450953 
L 302.47956 451.437956 
L 302.47956 451.299048 
L 310.517513 451.286863 
L 310.517513 451.147956 
L 315.340285 451.147956 
L 315.340285 451.009048 
L 318.555466 451.009048 
L 318.555466 450.87014 
L 321.770648 450.87014 
L 321.770648 450.737731 
L 326.59342 450.737731 
L 326.59342 450.598824 
L 328.20101 450.598824 
L 328.20101 450.466414 
L 334.631373 450.466414 
L 334.631373 450.327507 
L 342.669326 450.327507 
L 342.669326 450.188599 
L 344.276917 450.188599 
L 344.276917 450.049691 
L 350.70728 450.049691 
L 350.70728 449.891694 
L 357.137642 449.891694 
L 357.137642 449.752787 
L 363.568005 449.752787 
L 363.568005 449.620377 
L 368.390777 449.620377 
L 368.390777 449.35231 
L 386.074275 449.35231 
L 386.074275 449.219901 
L 392.504637 449.179285 
L 392.504637 449.043626 
L 394.112228 449.043626 
L 394.112228 448.911217 
L 398.935 448.870601 
L 398.935 448.731693 
L 408.580544 448.731693 
L 408.580544 448.599284 
L 447.16272 448.564761 
L 447.16272 448.425853 
L 448.770311 448.425853 
L 448.770311 448.152912 
L 456.808264 448.152912 
L 456.808264 448.014004 
L 460.023446 448.014004 
L 460.023446 447.843765 
L 469.66899 447.843765 
L 469.66899 447.709731 
L 472.884171 447.709731 
L 472.884171 447.651 
L 472.884171 447.512092 
L 485.744896 447.499907 
L 485.744896 447.364249 
L 498.605622 447.364249 
L 498.605622 447.228591 
L 503.428394 447.228591 
L 503.428394 446.957274 
L 511.466347 446.957274 
L 511.466347 446.821616 
L 522.719482 446.716013 
L 522.719482 446.655089 
L 524.327073 446.655089 
L 524.327073 446.519431 
L 535.580207 446.506433 
L 535.580207 446.374024 
L 543.618161 446.374024 
L 543.618161 446.241615 
L 562.909249 446.136013 
L 562.909249 446.127012 
L 575.769974 446.077745 
L 575.769974 445.806428 
L 580.592746 445.806428 
L 580.592746 445.674019 
L 588.630699 445.650023 
L 588.630699 445.511115 
L 593.453472 445.511115 
L 593.453472 445.375457 
L 599.883834 445.375457 
L 599.883834 445.10414 
L 612.74456 445.081704 
L 612.74456 444.942796 
L 615.959741 444.942796 
L 615.959741 444.810387 
L 619.174922 444.810387 
L 619.174922 444.778706 
L 619.174922 444.63655 
L 623.997694 444.63655 
L 623.997694 444.361984 
L 630.428057 444.329491 
L 630.428057 444.158902 
L 635.250829 444.158902 
L 635.250829 444.016745 
L 640.073601 444.016745 
L 640.073601 443.884336 
L 641.681192 443.884336 
L 641.681192 443.745429 
L 644.896373 443.745429 
L 644.896373 443.603272 
L 649.719145 443.603272 
L 649.719145 443.33033 
L 656.149508 443.33033 
L 656.149508 443.188173 
L 657.757098 443.188173 
L 657.757098 442.998901 
L 662.57987 442.998901 
L 662.57987 442.859994 
L 670.617824 442.859994 
L 670.617824 442.724335 
L 686.693731 442.654882 
L 686.693731 442.520848 
L 696.339275 442.520848 
L 696.339275 442.372192 
L 699.554456 442.372192 
L 699.554456 442.372192 
L 699.554456 442.238159 
L 699.554456 442.238159 
" clip-path="url(#pcc437123fd)" style="fill: none; stroke: #008000; stroke-width: 1.5; stroke-linecap: square"/>
   </g>
   <g id="line2d_33">
    <path d="M 112.78386 455.7 
L 117.606632 455.7 
L 117.606632 455.659384 
L 120.821813 455.659384 
L 120.821813 455.517227 
L 124.036995 455.517227 
L 124.036995 455.383193 
L 127.252176 455.383193 
L 127.252176 455.383193 
L 127.252176 455.383193 
L 127.252176 455.249159 
L 132.074948 455.249159 
L 132.074948 455.115126 
L 133.682539 455.115126 
L 133.682539 455.115126 
L 135.29013 455.115126 
L 135.29013 455.094679 
L 140.112902 455.094679 
L 140.112902 455.094679 
" clip-path="url(#pcc437123fd)" style="fill: none; stroke: #ff0000; stroke-width: 1.5; stroke-linecap: square"/>
   </g>
   <g id="patch_3">
    <path d="M 88.67 476.12 
L 88.67 26.88 
" style="fill: none; stroke: #000000; stroke-width: 0.8; stroke-linejoin: miter; stroke-linecap: square"/>
   </g>
   <g id="patch_4">
    <path d="M 709.2 476.12 
L 709.2 26.88 
" style="fill: none; stroke: #000000; stroke-width: 0.8; stroke-linejoin: miter; stroke-linecap: square"/>
   </g>
   <g id="patch_5">
    <path d="M 88.67 476.12 
L 709.2 476.12 
" style="fill: none; stroke: #000000; stroke-width: 0.8; stroke-linejoin: miter; stroke-linecap: square"/>
   </g>
   <g id="patch_6">
    <path d="M 88.67 26.88 
L 709.2 26.88 
" style="fill: none; stroke: #000000; stroke-width: 0.8; stroke-linejoin: miter; stroke-linecap: square"/>
   </g>
   <g id="text_14">
    <!-- Cumulative Payload Mass to Orbit By Year -->
    <g transform="translate(273.329687 20.88) scale(0.12 -0.12)">
     <defs>
      <path id="DejaVuSans-4f" d="M 2522 4238 
Q 1834 4238 1429 3725 
Q 1025 3213 1025 2328 
Q 1025 1447 1429 934 
Q 1834 422 2522 422 
Q 3209 422 3611 934 
Q 4013 1447 4013 2328 
Q 4013 3213 3611 3725 
Q 3209 4238 2522 4238 
z
M 2522 4750 
Q 3503 4750 4090 4092 
Q 4678 3434 4678 2328 
Q 4678 1225 4090 567 
Q 3503 -91 2522 -91 
Q 1538 -91 948 565 
Q 359 1222 359 2328 
Q 359 3434 948 4092 
Q 1538 4750 2522 4750 
z
" transform="scale(0.015625)"/>
      <path id="DejaVuSans-62" d="M 3116 1747 
Q 3116 2381 2855 2742 
Q 2594 3103 2138 3103 
Q 1681 3103 1420 2742 
Q 1159 2381 1159 1747 
Q 1159 1113 1420 752 
Q 1681 391 2138 391 
Q 2594 391 2855 752 
Q 3116 1113 3116 1747 
z
M 1159 2969 
Q 1341 3281 1617 3432 
Q 1894 3584 2278 3584 
Q 2916 3584 3314 3078 
Q 3713 2572 3713 1747 
Q 3713 922 3314 415 
Q 2916 -91 2278 -91 
Q 1894 -91 1617 61 
Q 1341 213 1159 525 
L 1159 0 
L 581 0 
L 581 4863 
L 1159 4863 
L 1159 2969 
z
" transform="scale(0.015625)"/>
      <path id="DejaVuSans-42" d="M 1259 2228 
L 1259 519 
L 2272 519 
Q 2781 519 3026 730 
Q 3272 941 3272 1375 
Q 3272 1813 3026 2020 
Q 2781 2228 2272 2228 
L 1259 2228 
z
M 1259 4147 
L 1259 2741 
L 2194 2741 
Q 2656 2741 2882 2914 
Q 3109 3088 3109 3444 
Q 3109 3797 2882 3972 
Q 2656 4147 2194 4147 
L 1259 4147 
z
M 628 4666 
L 2241 4666 
Q 2963 4666 3353 4366 
Q 3744 4066 3744 3513 
Q 3744 3084 3544 2831 
Q 3344 2578 2956 2516 
Q 3422 2416 3680 2098 
Q 3938 1781 3938 1306 
Q 3938 681 3513 340 
Q 3088 0 2303 0 
L 628 0 
L 628 4666 
z
" transform="scale(0.015625)"/>
      <path id="DejaVuSans-59" d="M -13 4666 
L 666 4666 
L 1959 2747 
L 3244 4666 
L 3922 4666 
L 2272 2222 
L 2272 0 
L 1638 0 
L 1638 2222 
L -13 4666 
z
" transform="scale(0.015625)"/>
     </defs>
     <use xlink:href="#DejaVuSans-43"/>
     <use xlink:href="#DejaVuSans-75" x="69.824219"/>
     <use xlink:href="#DejaVuSans-6d" x="133.203125"/>
     <use xlink:href="#DejaVuSans-75" x="230.615234"/>
     <use xlink:href="#DejaVuSans-6c" x="293.994141"/>
     <use xlink:href="#DejaVuSans-61" x="321.777344"/>
     <use xlink:href="#DejaVuSans-74" x="383.056641"/>
     <use xlink:href="#DejaVuSans-69" x="422.265625"/>
     <use xlink:href="#DejaVuSans-76" x="450.048828"/>
     <use xlink:href="#DejaVuSans-65" x="509.228516"/>
     <use xlink:href="#DejaVuSans-20" x="570.751953"/>
     <use xlink:href="#DejaVuSans-50" x="602.539062"/>
     <use xlink:href="#DejaVuSans-61" x="658.341797"/>
     <use xlink:href="#DejaVuSans-79" x="719.621094"/>
     <use xlink:href="#DejaVuSans-6c" x="778.800781"/>
     <use xlink:href="#DejaVuSans-6f" x="806.583984"/>
     <use xlink:href="#DejaVuSans-61" x="867.765625"/>
     <use xlink:href="#DejaVuSans-64" x="929.044922"/>
     <use xlink:href="#DejaVuSans-20" x="992.521484"/>
     <use xlink:href="#DejaVuSans-4d" x="1024.308594"/>
     <use xlink:href="#DejaVuSans-61" x="1110.587891"/>
     <use xlink:href="#DejaVuSans-73" x="1171.867188"/>
     <use xlink:href="#DejaVuSans-73" x="1223.966797"/>
     <use xlink:href="#DejaVuSans-20" x="1276.066406"/>
     <use xlink:href="#DejaVuSans-74" x="1307.853516"/>
     <use xlink:href="#DejaVuSans-6f" x="1347.0625"/>
     <use xlink:href="#DejaVuSans-20" x="1408.244141"/>
     <use xlink:href="#DejaVuSans-4f" x="1440.03125"/>
     <use xlink:href="#DejaVuSans-72" x="1518.742188"/>
     <use xlink:href="#DejaVuSans-62" x="1559.855469"/>
     <use xlink:href="#DejaVuSans-69" x="1623.332031"/>
     <use xlink:href="#DejaVuSans-74" x="1651.115234"/>
     <use xlink:href="#DejaVuSans-20" x="1690.324219"/>
     <use xlink:href="#DejaVuSans-42" x="1722.111328"/>
     <use xlink:href="#DejaVuSans-79" x="1790.714844"/>
     <use xlink:href="#DejaVuSans-20" x="1849.894531"/>
     <use xlink:href="#DejaVuSans-59" x="1881.681641"/>
     <use xlink:href="#DejaVuSans-65" x="1929.515625"/>
     <use xlink:href="#DejaVuSans-61" x="1991.039062"/>
     <use xlink:href="#DejaVuSans-72" x="2052.318359"/>
    </g>
   </g>
   <g id="legend_1">
    <g id="patch_7">
     <path d="M 95.67 181.66125 
L 153.12 181.66125 
Q 155.12 181.66125 155.12 179.66125 
L 155.12 33.88 
Q 155.12 31.88 153.12 31.88 
L 95.67 31.88 
Q 93.67 31.88 93.67 33.88 
L 93.67 179.66125 
Q 93.67 181.66125 95.67 181.66125 
z
" style="fill: #ffffff; opacity: 0.8; stroke: #cccccc; stroke-linejoin: miter"/>
    </g>
    <g id="text_15">
     <!-- Year -->
     <g transform="translate(113.8075 43.478437) scale(0.1 -0.1)">
      <use xlink:href="#DejaVuSans-59"/>
      <use xlink:href="#DejaVuSans-65" x="47.833984"/>
      <use xlink:href="#DejaVuSans-61" x="109.357422"/>
      <use xlink:href="#DejaVuSans-72" x="170.636719"/>
     </g>
    </g>
    <g id="line2d_34">
     <path d="M 97.67 54.656562 
L 107.67 54.656562 
L 107.67 54.656562 
L 117.67 54.656562 
L 117.67 54.656562 
" style="fill: none; stroke: #808080; stroke-width: 1.5; stroke-linecap: square"/>
    </g>
    <g id="text_16">
     <!-- 2017 -->
     <g transform="translate(125.67 58.156562) scale(0.1 -0.1)">
      <defs>
       <path id="DejaVuSans-37" d="M 525 4666 
L 3525 4666 
L 3525 4397 
L 1831 0 
L 1172 0 
L 2766 4134 
L 525 4134 
L 525 4666 
z
" transform="scale(0.015625)"/>
      </defs>
      <use xlink:href="#DejaVuSans-32"/>
      <use xlink:href="#DejaVuSans-30" x="63.623047"/>
      <use xlink:href="#DejaVuSans-31" x="127.246094"/>
      <use xlink:href="#DejaVuSans-37" x="190.869141"/>
     </g>
    </g>
    <g id="line2d_35">
     <path d="M 97.67 69.334687 
L 107.67 69.334687 
L 107.67 69.334687 
L 117.67 69.334687 
L 117.67 69.334687 
" style="fill: none; stroke: #90ee90; stroke-width: 1.5; stroke-linecap: square"/>
    </g>
    <g id="text_17">
     <!-- 2018 -->
     <g transform="translate(125.67 72.834687) scale(0.1 -0.1)">
      <defs>
       <path id="DejaVuSans-38" d="M 2034 2216 
Q 1584 2216 1326 1975 
Q 1069 1734 1069 1313 
Q 1069 891 1326 650 
Q 1584 409 2034 409 
Q 2484 409 2743 651 
Q 3003 894 3003 1313 
Q 3003 1734 2745 1975 
Q 2488 2216 2034 2216 
z
M 1403 2484 
Q 997 2584 770 2862 
Q 544 3141 544 3541 
Q 544 4100 942 4425 
Q 1341 4750 2034 4750 
Q 2731 4750 3128 4425 
Q 3525 4100 3525 3541 
Q 3525 3141 3298 2862 
Q 3072 2584 2669 2484 
Q 3125 2378 3379 2068 
Q 3634 1759 3634 1313 
Q 3634 634 3220 271 
Q 2806 -91 2034 -91 
Q 1263 -91 848 271 
Q 434 634 434 1313 
Q 434 1759 690 2068 
Q 947 2378 1403 2484 
z
M 1172 3481 
Q 1172 3119 1398 2916 
Q 1625 2713 2034 2713 
Q 2441 2713 2670 2916 
Q 2900 3119 2900 3481 
Q 2900 3844 2670 4047 
Q 2441 4250 2034 4250 
Q 1625 4250 1398 4047 
Q 1172 3844 1172 3481 
z
" transform="scale(0.015625)"/>
      </defs>
      <use xlink:href="#DejaVuSans-32"/>
      <use xlink:href="#DejaVuSans-30" x="63.623047"/>
      <use xlink:href="#DejaVuSans-31" x="127.246094"/>
      <use xlink:href="#DejaVuSans-38" x="190.869141"/>
     </g>
    </g>
    <g id="line2d_36">
     <path d="M 97.67 84.012812 
L 107.67 84.012812 
L 107.67 84.012812 
L 117.67 84.012812 
L 117.67 84.012812 
" style="fill: none; stroke: #add8e6; stroke-width: 1.5; stroke-linecap: square"/>
    </g>
    <g id="text_18">
     <!-- 2019 -->
     <g transform="translate(125.67 87.512812) scale(0.1 -0.1)">
      <defs>
       <path id="DejaVuSans-39" d="M 703 97 
L 703 672 
Q 941 559 1184 500 
Q 1428 441 1663 441 
Q 2288 441 2617 861 
Q 2947 1281 2994 2138 
Q 2813 1869 2534 1725 
Q 2256 1581 1919 1581 
Q 1219 1581 811 2004 
Q 403 2428 403 3163 
Q 403 3881 828 4315 
Q 1253 4750 1959 4750 
Q 2769 4750 3195 4129 
Q 3622 3509 3622 2328 
Q 3622 1225 3098 567 
Q 2575 -91 1691 -91 
Q 1453 -91 1209 -44 
Q 966 3 703 97 
z
M 1959 2075 
Q 2384 2075 2632 2365 
Q 2881 2656 2881 3163 
Q 2881 3666 2632 3958 
Q 2384 4250 1959 4250 
Q 1534 4250 1286 3958 
Q 1038 3666 1038 3163 
Q 1038 2656 1286 2365 
Q 1534 2075 1959 2075 
z
" transform="scale(0.015625)"/>
      </defs>
      <use xlink:href="#DejaVuSans-32"/>
      <use xlink:href="#DejaVuSans-30" x="63.623047"/>
      <use xlink:href="#DejaVuSans-31" x="127.246094"/>
      <use xlink:href="#DejaVuSans-39" x="190.869141"/>
     </g>
    </g>
    <g id="line2d_37">
     <path d="M 97.67 98.690937 
L 107.67 98.690937 
L 107.67 98.690937 
L 117.67 98.690937 
L 117.67 98.690937 
" style="fill: none; stroke: #ffc0cb; stroke-width: 1.5; stroke-linecap: square"/>
    </g>
    <g id="text_19">
     <!-- 2020 -->
     <g transform="translate(125.67 102.190937) scale(0.1 -0.1)">
      <use xlink:href="#DejaVuSans-32"/>
      <use xlink:href="#DejaVuSans-30" x="63.623047"/>
      <use xlink:href="#DejaVuSans-32" x="127.246094"/>
      <use xlink:href="#DejaVuSans-30" x="190.869141"/>
     </g>
    </g>
    <g id="line2d_38">
     <path d="M 97.67 113.369062 
L 107.67 113.369062 
L 107.67 113.369062 
L 117.67 113.369062 
L 117.67 113.369062 
" style="fill: none; stroke: #800080; stroke-width: 1.5; stroke-linecap: square"/>
    </g>
    <g id="text_20">
     <!-- 2021 -->
     <g transform="translate(125.67 116.869062) scale(0.1 -0.1)">
      <use xlink:href="#DejaVuSans-32"/>
      <use xlink:href="#DejaVuSans-30" x="63.623047"/>
      <use xlink:href="#DejaVuSans-32" x="127.246094"/>
      <use xlink:href="#DejaVuSans-31" x="190.869141"/>
     </g>
    </g>
    <g id="line2d_39">
     <path d="M 97.67 128.047187 
L 107.67 128.047187 
L 107.67 128.047187 
L 117.67 128.047187 
L 117.67 128.047187 
" style="fill: none; stroke: #ffa500; stroke-width: 1.5; stroke-linecap: square"/>
    </g>
    <g id="text_21">
     <!-- 2022 -->
     <g transform="translate(125.67 131.547187) scale(0.1 -0.1)">
      <use xlink:href="#DejaVuSans-32"/>
      <use xlink:href="#DejaVuSans-30" x="63.623047"/>
      <use xlink:href="#DejaVuSans-32" x="127.246094"/>
      <use xlink:href="#DejaVuSans-32" x="190.869141"/>
     </g>
    </g>
    <g id="line2d_40">
     <path d="M 97.67 142.725312 
L 107.67 142.725312 
L 107.67 142.725312 
L 117.67 142.725312 
L 117.67 142.725312 
" style="fill: none; stroke: #0000ff; stroke-width: 1.5; stroke-linecap: square"/>
    </g>
    <g id="text_22">
     <!-- 2023 -->
     <g transform="translate(125.67 146.225312) scale(0.1 -0.1)">
      <use xlink:href="#DejaVuSans-32"/>
      <use xlink:href="#DejaVuSans-30" x="63.623047"/>
      <use xlink:href="#DejaVuSans-32" x="127.246094"/>
      <use xlink:href="#DejaVuSans-33" x="190.869141"/>
     </g>
    </g>
    <g id="line2d_41">
     <path d="M 97.67 157.403437 
L 107.67 157.403437 
L 107.67 157.403437 
L 117.67 157.403437 
L 117.67 157.403437 
" style="fill: none; stroke: #008000; stroke-width: 1.5; stroke-linecap: square"/>
    </g>
    <g id="text_23">
     <!-- 2024 -->
     <g transform="translate(125.67 160.903437) scale(0.1 -0.1)">
      <use xlink:href="#DejaVuSans-32"/>
      <use xlink:href="#DejaVuSans-30" x="63.623047"/>
      <use xlink:href="#DejaVuSans-32" x="127.246094"/>
      <use xlink:href="#DejaVuSans-34" x="190.869141"/>
     </g>
    </g>
    <g id="line2d_42">
     <path d="M 97.67 172.081562 
L 107.67 172.081562 
L 107.67 172.081562 
L 117.67 172.081562 
L 117.67 172.081562 
" style="fill: none; stroke: #ff0000; stroke-width: 1.5; stroke-linecap: square"/>
    </g>
    <g id="text_24">
     <!-- 2025 -->
     <g transform="translate(125.67 175.581562) scale(0.1 -0.1)">
      <use xlink:href="#DejaVuSans-32"/>
      <use xlink:href="#DejaVuSans-30" x="63.623047"/>
      <use xlink:href="#DejaVuSans-32" x="127.246094"/>
      <use xlink:href="#DejaVuSans-35" x="190.869141"/>
     </g>
    </g>
   </g>
  </g>
 </g>
 <defs>
  <clipPath id="pcc437123fd">
   <rect x="88.67" y="26.88" width="620.53" height="449.24"/>
  </clipPath>
 </defs>
</svg>
