<?xml version="1.0" encoding="utf-8" standalone="no"?>
<!DOCTYPE svg PUBLIC "-//W3C//DTD SVG 1.1//EN"
  "http://www.w3.org/Graphics/SVG/1.1/DTD/svg11.dtd">
<svg xmlns:xlink="http://www.w3.org/1999/xlink" width="720pt" height="504pt" viewBox="0 0 720 504" xmlns="http://www.w3.org/2000/svg" version="1.1">
 <metadata>
  <rdf:RDF xmlns:dc="http://purl.org/dc/elements/1.1/" xmlns:cc="http://creativecommons.org/ns#" xmlns:rdf="http://www.w3.org/1999/02/22-rdf-syntax-ns#">
   <cc:Work>
    <dc:type rdf:resource="http://purl.org/dc/dcmitype/StillImage"/>
    <dc:date>2025-12-17T11:29:55.204698</dc:date>
    <dc:format>image/svg+xml</dc:format>
    <dc:creator>
     <cc:Agent>
      <dc:title>Matplotlib v3.8.2, https://matplotlib.org/</dc:title>
     </cc:Agent>
    </dc:creator>
   </cc:Work>
  </rdf:RDF>
 </metadata>
 <defs>
  <style type="text/css">*{stroke-linejoin: round; stroke-linecap: butt}</style>
 </defs>
 <g id="figure_1">
  <g id="patch_1">
   <path d="M 0 504 
L 720 504 
L 720 0 
L 0 0 
z
" style="fill: #ffffff"/>
  </g>
  <g id="axes_1">
   <g id="patch_2">
    <path d="M 82.37 476.12 
L 709.2 476.12 
L 709.2 26.88 
L 82.37 26.88 
z
" style="fill: #ffffff"/>
   </g>
   <g id="matplotlib.axis_1">
    <g id="xtick_1">
     <g id="line2d_1">
      <path d="M 106.728679 476.12 
L 106.728679 26.88 
" clip-path="url(#p3601353e11)" style="fill: none; stroke: #b0b0b0; stroke-width: 0.8; stroke-linecap: square"/>
     </g>
     <g id="line2d_2">
      <defs>
       <path id="m95fc3762a5" d="M 0 0 
L 0 3.5 
" style="stroke: #000000; stroke-width: 0.8"/>
      </defs>
      <g>
       <use xlink:href="#m95fc3762a5" x="106.728679" y="476.12" style="stroke: #000000; stroke-width: 0.8"/>
      </g>
     </g>
     <g id="text_1">
      <!-- Jan 1 -->
      <g transform="translate(94.250554 490.718437) scale(0.1 -0.1)">
       <defs>
        <path id="DejaVuSans-4a" d="M 628 4666 
L 1259 4666 
L 1259 325 
Q 1259 -519 939 -900 
Q 619 -1281 -91 -1281 
L -331 -1281 
L -331 -750 
L -134 -750 
Q 284 -750 456 -515 
Q 628 -281 628 325 
L 628 4666 
z
" transform="scale(0.015625)"/>
        <path id="DejaVuSans-61" d="M 2194 1759 
Q 1497 1759 1228 1600 
Q 959 1441 959 1056 
Q 959 750 1161 570 
Q 1363 391 1709 391 
Q 2188 391 2477 730 
Q 2766 1069 2766 1631 
L 2766 1759 
L 2194 1759 
z
M 3341 1997 
L 3341 0 
L 2766 0 
L 2766 531 
Q 2569 213 2275 61 
Q 1981 -91 1556 -91 
Q 1019 -91 701 211 
Q 384 513 384 1019 
Q 384 1609 779 1909 
Q 1175 2209 1959 2209 
L 2766 2209 
L 2766 2266 
Q 2766 2663 2505 2880 
Q 2244 3097 1772 3097 
Q 1472 3097 1187 3025 
Q 903 2953 641 2809 
L 641 3341 
Q 956 3463 1253 3523 
Q 1550 3584 1831 3584 
Q 2591 3584 2966 3190 
Q 3341 2797 3341 1997 
z
" transform="scale(0.015625)"/>
        <path id="DejaVuSans-6e" d="M 3513 2113 
L 3513 0 
L 2938 0 
L 2938 2094 
Q 2938 2591 2744 2837 
Q 2550 3084 2163 3084 
Q 1697 3084 1428 2787 
Q 1159 2491 1159 1978 
L 1159 0 
L 581 0 
L 581 3500 
L 1159 3500 
L 1159 2956 
Q 1366 3272 1645 3428 
Q 1925 3584 2291 3584 
Q 2894 3584 3203 3211 
Q 3513 2838 3513 2113 
z
" transform="scale(0.015625)"/>
        <path id="DejaVuSans-20" transform="scale(0.015625)"/>
        <path id="DejaVuSans-31" d="M 794 531 
L 1825 531 
L 1825 4091 
L 703 3866 
L 703 4441 
L 1819 4666 
L 2450 4666 
L 2450 531 
L 3481 531 
L 3481 0 
L 794 0 
L 794 531 
z
" transform="scale(0.015625)"/>
       </defs>
       <use xlink:href="#DejaVuSans-4a"/>
       <use xlink:href="#DejaVuSans-61" x="29.492188"/>
       <use xlink:href="#DejaVuSans-6e" x="90.771484"/>
       <use xlink:href="#DejaVuSans-20" x="154.150391"/>
       <use xlink:href="#DejaVuSans-31" x="185.9375"/>
      </g>
     </g>
    </g>
    <g id="xtick_2">
     <g id="line2d_3">
      <path d="M 204.163394 476.12 
L 204.163394 26.88 
" clip-path="url(#p3601353e11)" style="fill: none; stroke: #b0b0b0; stroke-width: 0.8; stroke-linecap: square"/>
     </g>
     <g id="line2d_4">
      <g>
       <use xlink:href="#m95fc3762a5" x="204.163394" y="476.12" style="stroke: #000000; stroke-width: 0.8"/>
      </g>
     </g>
     <g id="text_2">
      <!-- Mar 1 -->
      <g transform="translate(189.959488 490.718437) scale(0.1 -0.1)">
       <defs>
        <path id="DejaVuSans-4d" d="M 628 4666 
L 1569 4666 
L 2759 1491 
L 3956 4666 
L 4897 4666 
L 4897 0 
L 4281 0 
L 4281 4097 
L 3078 897 
L 2444 897 
L 1241 4097 
L 1241 0 
L 628 0 
L 628 4666 
z
" transform="scale(0.015625)"/>
        <path id="DejaVuSans-72" d="M 2631 2963 
Q 2534 3019 2420 3045 
Q 2306 3072 2169 3072 
Q 1681 3072 1420 2755 
Q 1159 2438 1159 1844 
L 1159 0 
L 581 0 
L 581 3500 
L 1159 3500 
L 1159 2956 
Q 1341 3275 1631 3429 
Q 1922 3584 2338 3584 
Q 2397 3584 2469 3576 
Q 2541 3569 2628 3553 
L 2631 2963 
z
" transform="scale(0.015625)"/>
       </defs>
       <use xlink:href="#DejaVuSans-4d"/>
       <use xlink:href="#DejaVuSans-61" x="86.279297"/>
       <use xlink:href="#DejaVuSans-72" x="147.558594"/>
       <use xlink:href="#DejaVuSans-20" x="188.671875"/>
       <use xlink:href="#DejaVuSans-31" x="220.458984"/>
      </g>
     </g>
    </g>
    <g id="xtick_3">
     <g id="line2d_5">
      <path d="M 303.222021 476.12 
L 303.222021 26.88 
" clip-path="url(#p3601353e11)" style="fill: none; stroke: #b0b0b0; stroke-width: 0.8; stroke-linecap: square"/>
     </g>
     <g id="line2d_6">
      <g>
       <use xlink:href="#m95fc3762a5" x="303.222021" y="476.12" style="stroke: #000000; stroke-width: 0.8"/>
      </g>
     </g>
     <g id="text_3">
      <!-- May 1 -->
      <g transform="translate(288.114208 490.718437) scale(0.1 -0.1)">
       <defs>
        <path id="DejaVuSans-79" d="M 2059 -325 
Q 1816 -950 1584 -1140 
Q 1353 -1331 966 -1331 
L 506 -1331 
L 506 -850 
L 844 -850 
Q 1081 -850 1212 -737 
Q 1344 -625 1503 -206 
L 1606 56 
L 191 3500 
L 800 3500 
L 1894 763 
L 2988 3500 
L 3597 3500 
L 2059 -325 
z
" transform="scale(0.015625)"/>
       </defs>
       <use xlink:href="#DejaVuSans-4d"/>
       <use xlink:href="#DejaVuSans-61" x="86.279297"/>
       <use xlink:href="#DejaVuSans-79" x="147.558594"/>
       <use xlink:href="#DejaVuSans-20" x="206.738281"/>
       <use xlink:href="#DejaVuSans-31" x="238.525391"/>
      </g>
     </g>
    </g>
    <g id="xtick_4">
     <g id="line2d_7">
      <path d="M 402.280648 476.12 
L 402.280648 26.88 
" clip-path="url(#p3601353e11)" style="fill: none; stroke: #b0b0b0; stroke-width: 0.8; stroke-linecap: square"/>
     </g>
     <g id="line2d_8">
      <g>
       <use xlink:href="#m95fc3762a5" x="402.280648" y="476.12" style="stroke: #000000; stroke-width: 0.8"/>
      </g>
     </g>
     <g id="text_4">
      <!-- Jul 1 -->
      <g transform="translate(391.477523 490.718437) scale(0.1 -0.1)">
       <defs>
        <path id="DejaVuSans-75" d="M 544 1381 
L 544 3500 
L 1119 3500 
L 1119 1403 
Q 1119 906 1312 657 
Q 1506 409 1894 409 
Q 2359 409 2629 706 
Q 2900 1003 2900 1516 
L 2900 3500 
L 3475 3500 
L 3475 0 
L 2900 0 
L 2900 538 
Q 2691 219 2414 64 
Q 2138 -91 1772 -91 
Q 1169 -91 856 284 
Q 544 659 544 1381 
z
M 1991 3584 
L 1991 3584 
z
" transform="scale(0.015625)"/>
        <path id="DejaVuSans-6c" d="M 603 4863 
L 1178 4863 
L 1178 0 
L 603 0 
L 603 4863 
z
" transform="scale(0.015625)"/>
       </defs>
       <use xlink:href="#DejaVuSans-4a"/>
       <use xlink:href="#DejaVuSans-75" x="29.492188"/>
       <use xlink:href="#DejaVuSans-6c" x="92.871094"/>
       <use xlink:href="#DejaVuSans-20" x="120.654297"/>
       <use xlink:href="#DejaVuSans-31" x="152.441406"/>
      </g>
     </g>
    </g>
    <g id="xtick_5">
     <g id="line2d_9">
      <path d="M 502.963187 476.12 
L 502.963187 26.88 
" clip-path="url(#p3601353e11)" style="fill: none; stroke: #b0b0b0; stroke-width: 0.8; stroke-linecap: square"/>
     </g>
     <g id="line2d_10">
      <g>
       <use xlink:href="#m95fc3762a5" x="502.963187" y="476.12" style="stroke: #000000; stroke-width: 0.8"/>
      </g>
     </g>
     <g id="text_5">
      <!-- Sep 1 -->
      <g transform="translate(488.767874 490.718437) scale(0.1 -0.1)">
       <defs>
        <path id="DejaVuSans-53" d="M 3425 4513 
L 3425 3897 
Q 3066 4069 2747 4153 
Q 2428 4238 2131 4238 
Q 1616 4238 1336 4038 
Q 1056 3838 1056 3469 
Q 1056 3159 1242 3001 
Q 1428 2844 1947 2747 
L 2328 2669 
Q 3034 2534 3370 2195 
Q 3706 1856 3706 1288 
Q 3706 609 3251 259 
Q 2797 -91 1919 -91 
Q 1588 -91 1214 -16 
Q 841 59 441 206 
L 441 856 
Q 825 641 1194 531 
Q 1563 422 1919 422 
Q 2459 422 2753 634 
Q 3047 847 3047 1241 
Q 3047 1584 2836 1778 
Q 2625 1972 2144 2069 
L 1759 2144 
Q 1053 2284 737 2584 
Q 422 2884 422 3419 
Q 422 4038 858 4394 
Q 1294 4750 2059 4750 
Q 2388 4750 2728 4690 
Q 3069 4631 3425 4513 
z
" transform="scale(0.015625)"/>
        <path id="DejaVuSans-65" d="M 3597 1894 
L 3597 1613 
L 953 1613 
Q 991 1019 1311 708 
Q 1631 397 2203 397 
Q 2534 397 2845 478 
Q 3156 559 3463 722 
L 3463 178 
Q 3153 47 2828 -22 
Q 2503 -91 2169 -91 
Q 1331 -91 842 396 
Q 353 884 353 1716 
Q 353 2575 817 3079 
Q 1281 3584 2069 3584 
Q 2775 3584 3186 3129 
Q 3597 2675 3597 1894 
z
M 3022 2063 
Q 3016 2534 2758 2815 
Q 2500 3097 2075 3097 
Q 1594 3097 1305 2825 
Q 1016 2553 972 2059 
L 3022 2063 
z
" transform="scale(0.015625)"/>
        <path id="DejaVuSans-70" d="M 1159 525 
L 1159 -1331 
L 581 -1331 
L 581 3500 
L 1159 3500 
L 1159 2969 
Q 1341 3281 1617 3432 
Q 1894 3584 2278 3584 
Q 2916 3584 3314 3078 
Q 3713 2572 3713 1747 
Q 3713 922 3314 415 
Q 2916 -91 2278 -91 
Q 1894 -91 1617 61 
Q 1341 213 1159 525 
z
M 3116 1747 
Q 3116 2381 2855 2742 
Q 2594 3103 2138 3103 
Q 1681 3103 1420 2742 
Q 1159 2381 1159 1747 
Q 1159 1113 1420 752 
Q 1681 391 2138 391 
Q 2594 391 2855 752 
Q 3116 1113 3116 1747 
z
" transform="scale(0.015625)"/>
       </defs>
       <use xlink:href="#DejaVuSans-53"/>
       <use xlink:href="#DejaVuSans-65" x="63.476562"/>
       <use xlink:href="#DejaVuSans-70" x="125"/>
       <use xlink:href="#DejaVuSans-20" x="188.476562"/>
       <use xlink:href="#DejaVuSans-31" x="220.263672"/>
      </g>
     </g>
    </g>
    <g id="xtick_6">
     <g id="line2d_11">
      <path d="M 602.021813 476.12 
L 602.021813 26.88 
" clip-path="url(#p3601353e11)" style="fill: none; stroke: #b0b0b0; stroke-width: 0.8; stroke-linecap: square"/>
     </g>
     <g id="line2d_12">
      <g>
       <use xlink:href="#m95fc3762a5" x="602.021813" y="476.12" style="stroke: #000000; stroke-width: 0.8"/>
      </g>
     </g>
     <g id="text_6">
      <!-- Nov 1 -->
      <g transform="translate(587.492126 490.718437) scale(0.1 -0.1)">
       <defs>
        <path id="DejaVuSans-4e" d="M 628 4666 
L 1478 4666 
L 3547 763 
L 3547 4666 
L 4159 4666 
L 4159 0 
L 3309 0 
L 1241 3903 
L 1241 0 
L 628 0 
L 628 4666 
z
" transform="scale(0.015625)"/>
        <path id="DejaVuSans-6f" d="M 1959 3097 
Q 1497 3097 1228 2736 
Q 959 2375 959 1747 
Q 959 1119 1226 758 
Q 1494 397 1959 397 
Q 2419 397 2687 759 
Q 2956 1122 2956 1747 
Q 2956 2369 2687 2733 
Q 2419 3097 1959 3097 
z
M 1959 3584 
Q 2709 3584 3137 3096 
Q 3566 2609 3566 1747 
Q 3566 888 3137 398 
Q 2709 -91 1959 -91 
Q 1206 -91 779 398 
Q 353 888 353 1747 
Q 353 2609 779 3096 
Q 1206 3584 1959 3584 
z
" transform="scale(0.015625)"/>
        <path id="DejaVuSans-76" d="M 191 3500 
L 800 3500 
L 1894 563 
L 2988 3500 
L 3597 3500 
L 2284 0 
L 1503 0 
L 191 3500 
z
" transform="scale(0.015625)"/>
       </defs>
       <use xlink:href="#DejaVuSans-4e"/>
       <use xlink:href="#DejaVuSans-6f" x="74.804688"/>
       <use xlink:href="#DejaVuSans-76" x="135.986328"/>
       <use xlink:href="#DejaVuSans-20" x="195.166016"/>
       <use xlink:href="#DejaVuSans-31" x="226.953125"/>
      </g>
     </g>
    </g>
   </g>
   <g id="matplotlib.axis_2">
    <g id="ytick_1">
     <g id="line2d_13">
      <path d="M 82.37 455.7 
L 709.2 455.7 
" clip-path="url(#p3601353e11)" style="fill: none; stroke: #b0b0b0; stroke-width: 0.8; stroke-linecap: square"/>
     </g>
     <g id="line2d_14">
      <defs>
       <path id="m58500eb6b7" d="M 0 0 
L -3.5 0 
" style="stroke: #000000; stroke-width: 0.8"/>
      </defs>
      <g>
       <use xlink:href="#m58500eb6b7" x="82.37" y="455.7" style="stroke: #000000; stroke-width: 0.8"/>
      </g>
     </g>
     <g id="text_7">
      <!-- 0 -->
      <g transform="translate(69.0075 459.499219) scale(0.1 -0.1)">
       <defs>
        <path id="DejaVuSans-30" d="M 2034 4250 
Q 1547 4250 1301 3770 
Q 1056 3291 1056 2328 
Q 1056 1369 1301 889 
Q 1547 409 2034 409 
Q 2525 409 2770 889 
Q 3016 1369 3016 2328 
Q 3016 3291 2770 3770 
Q 2525 4250 2034 4250 
z
M 2034 4750 
Q 2819 4750 3233 4129 
Q 3647 3509 3647 2328 
Q 3647 1150 3233 529 
Q 2819 -91 2034 -91 
Q 1250 -91 836 529 
Q 422 1150 422 2328 
Q 422 3509 836 4129 
Q 1250 4750 2034 4750 
z
" transform="scale(0.015625)"/>
       </defs>
       <use xlink:href="#DejaVuSans-30"/>
      </g>
     </g>
    </g>
    <g id="ytick_2">
     <g id="line2d_15">
      <path d="M 82.37 361.090911 
L 709.2 361.090911 
" clip-path="url(#p3601353e11)" style="fill: none; stroke: #b0b0b0; stroke-width: 0.8; stroke-linecap: square"/>
     </g>
     <g id="line2d_16">
      <g>
       <use xlink:href="#m58500eb6b7" x="82.37" y="361.090911" style="stroke: #000000; stroke-width: 0.8"/>
      </g>
     </g>
     <g id="text_8">
      <!-- 500,000 -->
      <g transform="translate(34.016875 364.89013) scale(0.1 -0.1)">
       <defs>
        <path id="DejaVuSans-35" d="M 691 4666 
L 3169 4666 
L 3169 4134 
L 1269 4134 
L 1269 2991 
Q 1406 3038 1543 3061 
Q 1681 3084 1819 3084 
Q 2600 3084 3056 2656 
Q 3513 2228 3513 1497 
Q 3513 744 3044 326 
Q 2575 -91 1722 -91 
Q 1428 -91 1123 -41 
Q 819 9 494 109 
L 494 744 
Q 775 591 1075 516 
Q 1375 441 1709 441 
Q 2250 441 2565 725 
Q 2881 1009 2881 1497 
Q 2881 1984 2565 2268 
Q 2250 2553 1709 2553 
Q 1456 2553 1204 2497 
Q 953 2441 691 2322 
L 691 4666 
z
" transform="scale(0.015625)"/>
        <path id="DejaVuSans-2c" d="M 750 794 
L 1409 794 
L 1409 256 
L 897 -744 
L 494 -744 
L 750 256 
L 750 794 
z
" transform="scale(0.015625)"/>
       </defs>
       <use xlink:href="#DejaVuSans-35"/>
       <use xlink:href="#DejaVuSans-30" x="63.623047"/>
       <use xlink:href="#DejaVuSans-30" x="127.246094"/>
       <use xlink:href="#DejaVuSans-2c" x="190.869141"/>
       <use xlink:href="#DejaVuSans-30" x="222.65625"/>
       <use xlink:href="#DejaVuSans-30" x="286.279297"/>
       <use xlink:href="#DejaVuSans-30" x="349.902344"/>
      </g>
     </g>
    </g>
    <g id="ytick_3">
     <g id="line2d_17">
      <path d="M 82.37 266.481822 
L 709.2 266.481822 
" clip-path="url(#p3601353e11)" style="fill: none; stroke: #b0b0b0; stroke-width: 0.8; stroke-linecap: square"/>
     </g>
     <g id="line2d_18">
      <g>
       <use xlink:href="#m58500eb6b7" x="82.37" y="266.481822" style="stroke: #000000; stroke-width: 0.8"/>
      </g>
     </g>
     <g id="text_9">
      <!-- 1,000,000 -->
      <g transform="translate(24.47625 270.281041) scale(0.1 -0.1)">
       <use xlink:href="#DejaVuSans-31"/>
       <use xlink:href="#DejaVuSans-2c" x="63.623047"/>
       <use xlink:href="#DejaVuSans-30" x="95.410156"/>
       <use xlink:href="#DejaVuSans-30" x="159.033203"/>
       <use xlink:href="#DejaVuSans-30" x="222.65625"/>
       <use xlink:href="#DejaVuSans-2c" x="286.279297"/>
       <use xlink:href="#DejaVuSans-30" x="318.066406"/>
       <use xlink:href="#DejaVuSans-30" x="381.689453"/>
       <use xlink:href="#DejaVuSans-30" x="445.3125"/>
      </g>
     </g>
    </g>
    <g id="ytick_4">
     <g id="line2d_19">
      <path d="M 82.37 171.872733 
L 709.2 171.872733 
" clip-path="url(#p3601353e11)" style="fill: none; stroke: #b0b0b0; stroke-width: 0.8; stroke-linecap: square"/>
     </g>
     <g id="line2d_20">
      <g>
       <use xlink:href="#m58500eb6b7" x="82.37" y="171.872733" style="stroke: #000000; stroke-width: 0.8"/>
      </g>
     </g>
     <g id="text_10">
      <!-- 1,500,000 -->
      <g transform="translate(24.47625 175.671952) scale(0.1 -0.1)">
       <use xlink:href="#DejaVuSans-31"/>
       <use xlink:href="#DejaVuSans-2c" x="63.623047"/>
       <use xlink:href="#DejaVuSans-35" x="95.410156"/>
       <use xlink:href="#DejaVuSans-30" x="159.033203"/>
       <use xlink:href="#DejaVuSans-30" x="222.65625"/>
       <use xlink:href="#DejaVuSans-2c" x="286.279297"/>
       <use xlink:href="#DejaVuSans-30" x="318.066406"/>
       <use xlink:href="#DejaVuSans-30" x="381.689453"/>
       <use xlink:href="#DejaVuSans-30" x="445.3125"/>
      </g>
     </g>
    </g>
    <g id="ytick_5">
     <g id="line2d_21">
      <path d="M 82.37 77.263645 
L 709.2 77.263645 
" clip-path="url(#p3601353e11)" style="fill: none; stroke: #b0b0b0; stroke-width: 0.8; stroke-linecap: square"/>
     </g>
     <g id="line2d_22">
      <g>
       <use xlink:href="#m58500eb6b7" x="82.37" y="77.263645" style="stroke: #000000; stroke-width: 0.8"/>
      </g>
     </g>
     <g id="text_11">
      <!-- 2,000,000 -->
      <g transform="translate(24.47625 81.062863) scale(0.1 -0.1)">
       <defs>
        <path id="DejaVuSans-32" d="M 1228 531 
L 3431 531 
L 3431 0 
L 469 0 
L 469 531 
Q 828 903 1448 1529 
Q 2069 2156 2228 2338 
Q 2531 2678 2651 2914 
Q 2772 3150 2772 3378 
Q 2772 3750 2511 3984 
Q 2250 4219 1831 4219 
Q 1534 4219 1204 4116 
Q 875 4013 500 3803 
L 500 4441 
Q 881 4594 1212 4672 
Q 1544 4750 1819 4750 
Q 2544 4750 2975 4387 
Q 3406 4025 3406 3419 
Q 3406 3131 3298 2873 
Q 3191 2616 2906 2266 
Q 2828 2175 2409 1742 
Q 1991 1309 1228 531 
z
" transform="scale(0.015625)"/>
       </defs>
       <use xlink:href="#DejaVuSans-32"/>
       <use xlink:href="#DejaVuSans-2c" x="63.623047"/>
       <use xlink:href="#DejaVuSans-30" x="95.410156"/>
       <use xlink:href="#DejaVuSans-30" x="159.033203"/>
       <use xlink:href="#DejaVuSans-30" x="222.65625"/>
       <use xlink:href="#DejaVuSans-2c" x="286.279297"/>
       <use xlink:href="#DejaVuSans-30" x="318.066406"/>
       <use xlink:href="#DejaVuSans-30" x="381.689453"/>
       <use xlink:href="#DejaVuSans-30" x="445.3125"/>
      </g>
     </g>
    </g>
    <g id="text_12">
     <!-- Cumulative Payload Mass (kg) -->
     <g transform="translate(18.396562 326.863281) rotate(-90) scale(0.1 -0.1)">
      <defs>
       <path id="DejaVuSans-43" d="M 4122 4306 
L 4122 3641 
Q 3803 3938 3442 4084 
Q 3081 4231 2675 4231 
Q 1875 4231 1450 3742 
Q 1025 3253 1025 2328 
Q 1025 1406 1450 917 
Q 1875 428 2675 428 
Q 3081 428 3442 575 
Q 3803 722 4122 1019 
L 4122 359 
Q 3791 134 3420 21 
Q 3050 -91 2638 -91 
Q 1578 -91 968 557 
Q 359 1206 359 2328 
Q 359 3453 968 4101 
Q 1578 4750 2638 4750 
Q 3056 4750 3426 4639 
Q 3797 4528 4122 4306 
z
" transform="scale(0.015625)"/>
       <path id="DejaVuSans-6d" d="M 3328 2828 
Q 3544 3216 3844 3400 
Q 4144 3584 4550 3584 
Q 5097 3584 5394 3201 
Q 5691 2819 5691 2113 
L 5691 0 
L 5113 0 
L 5113 2094 
Q 5113 2597 4934 2840 
Q 4756 3084 4391 3084 
Q 3944 3084 3684 2787 
Q 3425 2491 3425 1978 
L 3425 0 
L 2847 0 
L 2847 2094 
Q 2847 2600 2669 2842 
Q 2491 3084 2119 3084 
Q 1678 3084 1418 2786 
Q 1159 2488 1159 1978 
L 1159 0 
L 581 0 
L 581 3500 
L 1159 3500 
L 1159 2956 
Q 1356 3278 1631 3431 
Q 1906 3584 2284 3584 
Q 2666 3584 2933 3390 
Q 3200 3197 3328 2828 
z
" transform="scale(0.015625)"/>
       <path id="DejaVuSans-74" d="M 1172 4494 
L 1172 3500 
L 2356 3500 
L 2356 3053 
L 1172 3053 
L 1172 1153 
Q 1172 725 1289 603 
Q 1406 481 1766 481 
L 2356 481 
L 2356 0 
L 1766 0 
Q 1100 0 847 248 
Q 594 497 594 1153 
L 594 3053 
L 172 3053 
L 172 3500 
L 594 3500 
L 594 4494 
L 1172 4494 
z
" transform="scale(0.015625)"/>
       <path id="DejaVuSans-69" d="M 603 3500 
L 1178 3500 
L 1178 0 
L 603 0 
L 603 3500 
z
M 603 4863 
L 1178 4863 
L 1178 4134 
L 603 4134 
L 603 4863 
z
" transform="scale(0.015625)"/>
       <path id="DejaVuSans-50" d="M 1259 4147 
L 1259 2394 
L 2053 2394 
Q 2494 2394 2734 2622 
Q 2975 2850 2975 3272 
Q 2975 3691 2734 3919 
Q 2494 4147 2053 4147 
L 1259 4147 
z
M 628 4666 
L 2053 4666 
Q 2838 4666 3239 4311 
Q 3641 3956 3641 3272 
Q 3641 2581 3239 2228 
Q 2838 1875 2053 1875 
L 1259 1875 
L 1259 0 
L 628 0 
L 628 4666 
z
" transform="scale(0.015625)"/>
       <path id="DejaVuSans-64" d="M 2906 2969 
L 2906 4863 
L 3481 4863 
L 3481 0 
L 2906 0 
L 2906 525 
Q 2725 213 2448 61 
Q 2172 -91 1784 -91 
Q 1150 -91 751 415 
Q 353 922 353 1747 
Q 353 2572 751 3078 
Q 1150 3584 1784 3584 
Q 2172 3584 2448 3432 
Q 2725 3281 2906 2969 
z
M 947 1747 
Q 947 1113 1208 752 
Q 1469 391 1925 391 
Q 2381 391 2643 752 
Q 2906 1113 2906 1747 
Q 2906 2381 2643 2742 
Q 2381 3103 1925 3103 
Q 1469 3103 1208 2742 
Q 947 2381 947 1747 
z
" transform="scale(0.015625)"/>
       <path id="DejaVuSans-73" d="M 2834 3397 
L 2834 2853 
Q 2591 2978 2328 3040 
Q 2066 3103 1784 3103 
Q 1356 3103 1142 2972 
Q 928 2841 928 2578 
Q 928 2378 1081 2264 
Q 1234 2150 1697 2047 
L 1894 2003 
Q 2506 1872 2764 1633 
Q 3022 1394 3022 966 
Q 3022 478 2636 193 
Q 2250 -91 1575 -91 
Q 1294 -91 989 -36 
Q 684 19 347 128 
L 347 722 
Q 666 556 975 473 
Q 1284 391 1588 391 
Q 1994 391 2212 530 
Q 2431 669 2431 922 
Q 2431 1156 2273 1281 
Q 2116 1406 1581 1522 
L 1381 1569 
Q 847 1681 609 1914 
Q 372 2147 372 2553 
Q 372 3047 722 3315 
Q 1072 3584 1716 3584 
Q 2034 3584 2315 3537 
Q 2597 3491 2834 3397 
z
" transform="scale(0.015625)"/>
       <path id="DejaVuSans-28" d="M 1984 4856 
Q 1566 4138 1362 3434 
Q 1159 2731 1159 2009 
Q 1159 1288 1364 580 
Q 1569 -128 1984 -844 
L 1484 -844 
Q 1016 -109 783 600 
Q 550 1309 550 2009 
Q 550 2706 781 3412 
Q 1013 4119 1484 4856 
L 1984 4856 
z
" transform="scale(0.015625)"/>
       <path id="DejaVuSans-6b" d="M 581 4863 
L 1159 4863 
L 1159 1991 
L 2875 3500 
L 3609 3500 
L 1753 1863 
L 3688 0 
L 2938 0 
L 1159 1709 
L 1159 0 
L 581 0 
L 581 4863 
z
" transform="scale(0.015625)"/>
       <path id="DejaVuSans-67" d="M 2906 1791 
Q 2906 2416 2648 2759 
Q 2391 3103 1925 3103 
Q 1463 3103 1205 2759 
Q 947 2416 947 1791 
Q 947 1169 1205 825 
Q 1463 481 1925 481 
Q 2391 481 2648 825 
Q 2906 1169 2906 1791 
z
M 3481 434 
Q 3481 -459 3084 -895 
Q 2688 -1331 1869 -1331 
Q 1566 -1331 1297 -1286 
Q 1028 -1241 775 -1147 
L 775 -588 
Q 1028 -725 1275 -790 
Q 1522 -856 1778 -856 
Q 2344 -856 2625 -561 
Q 2906 -266 2906 331 
L 2906 616 
Q 2728 306 2450 153 
Q 2172 0 1784 0 
Q 1141 0 747 490 
Q 353 981 353 1791 
Q 353 2603 747 3093 
Q 1141 3584 1784 3584 
Q 2172 3584 2450 3431 
Q 2728 3278 2906 2969 
L 2906 3500 
L 3481 3500 
L 3481 434 
z
" transform="scale(0.015625)"/>
       <path id="DejaVuSans-29" d="M 513 4856 
L 1013 4856 
Q 1481 4119 1714 3412 
Q 1947 2706 1947 2009 
Q 1947 1309 1714 600 
Q 1481 -109 1013 -844 
L 513 -844 
Q 928 -128 1133 580 
Q 1338 1288 1338 2009 
Q 1338 2731 1133 3434 
Q 928 4138 513 4856 
z
" transform="scale(0.015625)"/>
      </defs>
      <use xlink:href="#DejaVuSans-43"/>
      <use xlink:href="#DejaVuSans-75" x="69.824219"/>
      <use xlink:href="#DejaVuSans-6d" x="133.203125"/>
      <use xlink:href="#DejaVuSans-75" x="230.615234"/>
      <use xlink:href="#DejaVuSans-6c" x="293.994141"/>
      <use xlink:href="#DejaVuSans-61" x="321.777344"/>
      <use xlink:href="#DejaVuSans-74" x="383.056641"/>
      <use xlink:href="#DejaVuSans-69" x="422.265625"/>
      <use xlink:href="#DejaVuSans-76" x="450.048828"/>
      <use xlink:href="#DejaVuSans-65" x="509.228516"/>
      <use xlink:href="#DejaVuSans-20" x="570.751953"/>
      <use xlink:href="#DejaVuSans-50" x="602.539062"/>
      <use xlink:href="#DejaVuSans-61" x="658.341797"/>
      <use xlink:href="#DejaVuSans-79" x="719.621094"/>
      <use xlink:href="#DejaVuSans-6c" x="778.800781"/>
      <use xlink:href="#DejaVuSans-6f" x="806.583984"/>
      <use xlink:href="#DejaVuSans-61" x="867.765625"/>
      <use xlink:href="#DejaVuSans-64" x="929.044922"/>
      <use xlink:href="#DejaVuSans-20" x="992.521484"/>
      <use xlink:href="#DejaVuSans-4d" x="1024.308594"/>
      <use xlink:href="#DejaVuSans-61" x="1110.587891"/>
      <use xlink:href="#DejaVuSans-73" x="1171.867188"/>
      <use xlink:href="#DejaVuSans-73" x="1223.966797"/>
      <use xlink:href="#DejaVuSans-20" x="1276.066406"/>
      <use xlink:href="#DejaVuSans-28" x="1307.853516"/>
      <use xlink:href="#DejaVuSans-6b" x="1346.867188"/>
      <use xlink:href="#DejaVuSans-67" x="1404.777344"/>
      <use xlink:href="#DejaVuSans-29" x="1468.253906"/>
     </g>
    </g>
   </g>
   <g id="line2d_23">
    <path d="M 106.728679 455.7 
L 127.839534 455.7 
L 127.839534 453.883505 
L 186.300363 453.883505 
L 186.300363 453.412352 
L 226.898161 453.412352 
L 226.898161 452.35273 
L 249.632927 452.35273 
L 249.632927 451.349874 
L 301.598109 451.349874 
L 301.598109 451.349874 
L 324.332876 451.349874 
L 324.332876 450.20132 
L 355.187202 450.20132 
L 355.187202 449.688917 
L 387.66544 449.688917 
L 387.66544 448.994675 
L 390.913264 448.994675 
L 390.913264 447.178181 
L 407.152383 447.178181 
L 407.152383 445.898877 
L 472.10886 445.898877 
L 472.10886 445.272565 
L 488.347979 445.272565 
L 488.347979 445.182686 
L 511.082746 445.182686 
L 511.082746 444.238487 
L 563.047927 444.238487 
L 563.047927 442.421993 
L 566.295751 442.421993 
L 566.295751 441.400215 
L 597.150078 441.400215 
L 597.150078 440.737951 
L 671.850026 440.737951 
L 671.850026 440.320725 
L 684.841321 440.320725 
L 684.841321 438.50423 
L 697.832617 438.50423 
L 697.832617 438.50423 
" clip-path="url(#p3601353e11)" style="fill: none; stroke: #808080; stroke-width: 1.5; stroke-linecap: square"/>
   </g>
   <g id="line2d_24">
    <path d="M 106.728679 455.7 
L 118.096062 455.7 
L 118.096062 455.7 
L 155.446036 455.7 
L 155.446036 454.899607 
L 165.189508 454.899607 
L 165.189508 454.663084 
L 191.172098 454.663084 
L 191.172098 454.256265 
L 210.659041 454.256265 
L 210.659041 453.103548 
L 249.632927 453.103548 
L 249.632927 451.287054 
L 254.504663 451.287054 
L 254.504663 450.786193 
L 280.487254 450.786193 
L 280.487254 450.717696 
L 317.837228 450.717696 
L 317.837228 450.036511 
L 335.700259 450.036511 
L 335.700259 448.814161 
L 356.811114 448.814161 
L 356.811114 447.795411 
L 397.408912 447.795411 
L 397.408912 447.285089 
L 434.758886 447.285089 
L 434.758886 445.946371 
L 439.630622 445.946371 
L 439.630622 444.129876 
L 460.741477 444.129876 
L 460.741477 443.032411 
L 515.954482 443.032411 
L 515.954482 441.69653 
L 561.424016 441.69653 
L 561.424016 441.128876 
L 623.132668 441.128876 
L 623.132668 440.126019 
L 652.363083 440.126019 
L 652.363083 439.369147 
L 655.610907 439.369147 
L 655.610907 438.896101 
L 684.841321 438.896101 
L 684.841321 438.063541 
L 697.832617 438.063541 
L 697.832617 438.063541 
" clip-path="url(#p3601353e11)" style="fill: none; stroke: #90ee90; stroke-width: 1.5; stroke-linecap: square"/>
   </g>
   <g id="line2d_25">
    <path d="M 106.728679 455.7 
L 122.967798 455.7 
L 122.967798 453.883505 
L 191.172098 453.883505 
L 191.172098 452.965797 
L 204.163394 452.965797 
L 204.163394 450.684772 
L 269.11987 450.684772 
L 269.11987 449.461477 
L 306.469845 449.461477 
L 306.469845 448.989377 
L 338.948083 448.989377 
L 338.948083 446.412226 
L 369.802409 446.412226 
L 369.802409 445.617509 
L 390.913264 445.617509 
L 390.913264 444.917402 
L 439.630622 444.917402 
L 439.630622 444.488255 
L 459.117565 444.488255 
L 459.117565 443.258337 
L 616.637021 443.258337 
L 616.637021 440.306534 
L 655.610907 440.306534 
L 655.610907 439.81135 
L 675.09785 439.81135 
L 675.09785 438.495148 
L 697.832617 438.495148 
L 697.832617 438.495148 
" clip-path="url(#p3601353e11)" style="fill: none; stroke: #add8e6; stroke-width: 1.5; stroke-linecap: square"/>
   </g>
   <g id="line2d_26">
    <path d="M 106.728679 455.7 
L 116.47215 455.7 
L 116.47215 452.748196 
L 135.959093 452.748196 
L 135.959093 450.468117 
L 152.198212 450.468117 
L 152.198212 447.516314 
L 183.052539 447.516314 
L 183.052539 444.56451 
L 213.906865 444.56451 
L 213.906865 444.190426 
L 231.769896 444.190426 
L 231.769896 441.238622 
L 288.606813 441.238622 
L 288.606813 438.286819 
L 350.315466 438.286819 
L 350.315466 435.915915 
L 358.435026 435.915915 
L 358.435026 432.964111 
L 373.050233 432.964111 
L 373.050233 430.048259 
L 400.656736 430.048259 
L 400.656736 429.23254 
L 433.134974 429.23254 
L 433.134974 428.19184 
L 462.365389 428.19184 
L 462.365389 425.366434 
L 480.22842 425.366434 
L 480.22842 422.444905 
L 499.715363 422.444905 
L 499.715363 421.852652 
L 506.21101 421.852652 
L 506.21101 418.900849 
L 559.800104 418.900849 
L 559.800104 415.949045 
L 579.287047 415.949045 
L 579.287047 412.997242 
L 589.030518 412.997242 
L 589.030518 410.045438 
L 608.517461 410.045438 
L 608.517461 409.229719 
L 626.380492 409.229719 
L 626.380492 406.864491 
L 634.500052 406.864491 
L 634.500052 406.638943 
L 640.995699 406.638943 
L 640.995699 403.68714 
L 658.858731 403.68714 
L 658.858731 403.124783 
L 670.226114 403.124783 
L 670.226114 401.800256 
L 679.969585 401.800256 
L 679.969585 401.800256 
L 699.456528 401.800256 
L 699.456528 401.800256 
" clip-path="url(#p3601353e11)" style="fill: none; stroke: #ffc0cb; stroke-width: 1.5; stroke-linecap: square"/>
   </g>
   <g id="line2d_27">
    <path d="M 106.728679 455.7 
L 118.096062 455.7 
L 118.096062 455.037736 
L 137.583005 455.037736 
L 137.583005 452.085933 
L 144.078653 452.085933 
L 144.078653 451.139842 
L 161.941684 451.139842 
L 161.941684 448.188038 
L 181.428627 448.188038 
L 181.428627 445.236235 
L 207.411218 445.236235 
L 207.411218 442.284431 
L 218.778601 442.284431 
L 218.778601 439.332628 
L 223.650337 439.332628 
L 223.650337 436.380824 
L 239.889456 436.380824 
L 239.889456 433.42902 
L 262.624223 433.42902 
L 262.624223 430.477217 
L 288.606813 430.477217 
L 288.606813 428.017381 
L 298.350285 428.017381 
L 298.350285 425.065577 
L 306.469845 425.065577 
L 306.469845 422.113773 
L 314.589404 422.113773 
L 314.589404 419.16197 
L 324.332876 419.16197 
L 324.332876 416.240441 
L 342.195907 416.240441 
L 342.195907 413.288638 
L 355.187202 413.288638 
L 355.187202 412.65892 
L 360.058938 412.65892 
L 360.058938 411.334392 
L 377.921969 411.334392 
L 377.921969 410.514888 
L 399.032824 410.514888 
L 399.032824 410.514888 
L 496.467539 410.514888 
L 496.467539 410.098608 
L 522.45013 410.098608 
L 522.45013 407.589575 
L 525.697953 407.589575 
L 525.697953 405.220753 
L 616.637021 405.220753 
L 616.637021 402.760917 
L 619.884845 402.760917 
L 619.884845 399.80249 
L 637.747876 399.80249 
L 637.747876 399.684418 
L 650.739171 399.684418 
L 650.739171 396.940755 
L 662.106554 396.940755 
L 662.106554 396.879259 
L 676.721762 396.879259 
L 676.721762 393.927455 
L 678.345674 393.927455 
L 678.345674 393.075973 
L 681.593497 393.075973 
L 681.593497 392.5104 
L 697.832617 392.5104 
L 697.832617 392.5104 
" clip-path="url(#p3601353e11)" style="fill: none; stroke: #800080; stroke-width: 1.5; stroke-linecap: square"/>
   </g>
   <g id="line2d_28">
    <path d="M 106.728679 455.7 
L 114.848238 455.7 
L 114.848238 452.956336 
L 126.215622 452.956336 
L 126.215622 452.956336 
L 135.959093 452.956336 
L 135.959093 450.212673 
L 155.446036 450.212673 
L 155.446036 449.795447 
L 158.69386 449.795447 
L 158.69386 449.795447 
L 160.317772 449.795447 
L 160.317772 447.051783 
L 189.548187 447.051783 
L 189.548187 444.478416 
L 196.043834 444.478416 
L 196.043834 441.687448 
L 205.787306 441.687448 
L 205.787306 439.057315 
L 215.530777 439.057315 
L 215.530777 436.377986 
L 231.769896 436.377986 
L 231.769896 433.30319 
L 252.880751 433.30319 
L 252.880751 433.30319 
L 264.248135 433.30319 
L 264.248135 430.843354 
L 278.863342 430.843354 
L 278.863342 430.843354 
L 285.35899 430.843354 
L 285.35899 427.768559 
L 295.102461 427.768559 
L 295.102461 425.308722 
L 298.350285 425.308722 
L 298.350285 422.233927 
L 309.717668 422.233927 
L 309.717668 419.159132 
L 321.085052 419.159132 
L 321.085052 416.084336 
L 322.708964 416.084336 
L 322.708964 413.009541 
L 329.204611 413.009541 
L 329.204611 409.934745 
L 340.571995 409.934745 
L 340.571995 409.934745 
L 363.306762 409.934745 
L 363.306762 409.158951 
L 377.921969 409.158951 
L 377.921969 406.084156 
L 379.545881 406.084156 
L 379.545881 405.327283 
L 381.169793 405.327283 
L 381.169793 405.19483 
L 397.408912 405.19483 
L 397.408912 404.532566 
L 410.400207 404.532566 
L 410.400207 401.457771 
L 416.895855 401.457771 
L 416.895855 398.789795 
L 423.391503 398.789795 
L 423.391503 398.284961 
L 426.639326 398.284961 
L 426.639326 395.210165 
L 434.758886 395.210165 
L 434.758886 392.542189 
L 438.00671 392.542189 
L 438.00671 389.467394 
L 455.869741 389.467394 
L 455.869741 389.338914 
L 465.613212 389.338914 
L 465.613212 386.311424 
L 468.861036 386.311424 
L 468.861036 383.643447 
L 480.22842 383.643447 
L 480.22842 380.568652 
L 494.843627 380.568652 
L 494.843627 377.408708 
L 499.715363 377.408708 
L 499.715363 374.72181 
L 507.834922 374.72181 
L 507.834922 371.694319 
L 517.578394 371.694319 
L 517.578394 369.435433 
L 530.569689 369.435433 
L 530.569689 366.275489 
L 538.689249 366.275489 
L 538.689249 363.229077 
L 556.55228 363.229077 
L 556.55228 360.76924 
L 556.55228 360.76924 
L 556.55228 357.722828 
L 561.424016 357.722828 
L 561.424016 356.332074 
L 572.791399 356.332074 
L 572.791399 355.480592 
L 580.910959 355.480592 
L 580.910959 352.320649 
L 593.902254 352.320649 
L 593.902254 349.21747 
L 600.397902 349.21747 
L 600.397902 348.507902 
L 603.645725 348.507902 
L 603.645725 347.656421 
L 618.260933 347.656421 
L 618.260933 346.407581 
L 636.123964 346.407581 
L 636.123964 345.366881 
L 640.995699 345.366881 
L 640.995699 344.699319 
L 660.482642 344.699319 
L 660.482642 343.56401 
L 665.354378 343.56401 
L 665.354378 343.374792 
L 673.473938 343.374792 
L 673.473938 342.958512 
L 673.473938 342.958512 
L 673.473938 342.182717 
L 675.09785 342.182717 
L 675.09785 339.022774 
L 692.960881 339.022774 
L 692.960881 335.86283 
L 696.208705 335.86283 
L 696.208705 335.787143 
L 697.832617 335.787143 
L 697.832617 335.787143 
" clip-path="url(#p3601353e11)" style="fill: none; stroke: #ffa500; stroke-width: 1.5; stroke-linecap: square"/>
   </g>
   <g id="line2d_29">
    <path d="M 106.728679 455.7 
L 121.343886 455.7 
L 121.343886 454.564691 
L 129.463446 454.564691 
L 129.463446 453.855123 
L 134.335181 453.855123 
L 134.335181 453.031645 
L 135.959093 453.031645 
L 135.959093 450.193373 
L 147.326477 450.193373 
L 147.326477 446.900976 
L 155.446036 446.900976 
L 155.446036 444.02486 
L 158.69386 444.02486 
L 158.69386 440.90276 
L 166.81342 440.90276 
L 166.81342 440.118262 
L 174.932979 440.118262 
L 174.932979 436.882631 
L 183.052539 436.882631 
L 183.052539 433.874062 
L 184.676451 433.874062 
L 184.676451 432.839038 
L 199.291658 432.839038 
L 199.291658 429.944 
L 204.163394 429.944 
L 204.163394 427.484164 
L 205.787306 427.484164 
L 205.787306 424.475595 
L 215.530777 424.475595 
L 215.530777 423.340286 
L 225.274249 423.340286 
L 225.274249 422.800635 
L 228.522073 422.800635 
L 228.522073 418.410774 
L 239.889456 418.410774 
L 239.889456 415.118377 
L 248.009016 415.118377 
L 248.009016 411.825981 
L 262.624223 411.825981 
L 262.624223 410.76863 
L 282.111166 410.76863 
L 282.111166 407.873592 
L 295.102461 407.873592 
L 295.102461 405.205616 
L 296.726373 405.205616 
L 296.726373 404.429821 
L 301.598109 404.429821 
L 301.598109 403.218825 
L 306.469845 403.218825 
L 306.469845 399.926428 
L 316.213316 399.926428 
L 316.213316 396.917859 
L 322.708964 396.917859 
L 322.708964 393.625463 
L 330.828523 393.625463 
L 330.828523 390.57905 
L 332.452435 390.57905 
L 332.452435 389.33021 
L 334.076347 389.33021 
L 334.076347 386.870374 
L 343.819819 386.870374 
L 343.819819 386.018892 
L 350.315466 386.018892 
L 350.315466 382.915714 
L 356.811114 382.915714 
L 356.811114 379.869302 
L 358.435026 379.869302 
L 358.435026 379.244125 
L 369.802409 379.244125 
L 369.802409 376.140947 
L 369.802409 376.140947 
L 379.545881 376.140947 
L 379.545881 375.274327 
L 386.041528 375.274327 
L 386.041528 372.530664 
L 387.66544 372.530664 
L 387.66544 369.238267 
L 400.656736 369.238267 
L 400.656736 368.829556 
L 410.400207 368.829556 
L 410.400207 366.010205 
L 415.271943 366.010205 
L 415.271943 362.963793 
L 425.015415 362.963793 
L 425.015415 359.803849 
L 431.511062 359.803849 
L 431.511062 357.533231 
L 438.00671 357.533231 
L 438.00671 354.486818 
L 444.502358 354.486818 
L 444.502358 351.440406 
L 446.126269 351.440406 
L 446.126269 349.699598 
L 454.245829 349.699598 
L 454.245829 348.741587 
L 460.741477 348.741587 
L 460.741477 345.695174 
L 462.365389 345.695174 
L 462.365389 343.424556 
L 467.237124 343.424556 
L 467.237124 340.378143 
L 476.980596 340.378143 
L 476.980596 337.331731 
L 485.100155 337.331731 
L 485.100155 334.436693 
L 491.595803 334.436693 
L 491.595803 331.976856 
L 493.219715 331.976856 
L 493.219715 328.930444 
L 501.339275 328.930444 
L 501.339275 325.884031 
L 506.21101 325.884031 
L 506.21101 322.988993 
L 514.33057 322.988993 
L 514.33057 319.94258 
L 519.202306 319.94258 
L 519.202306 317.047542 
L 525.697953 317.047542 
L 525.697953 314.001129 
L 532.193601 314.001129 
L 532.193601 310.954717 
L 538.689249 310.954717 
L 538.689249 307.908304 
L 540.313161 307.908304 
L 540.313161 305.013266 
L 548.43272 305.013266 
L 548.43272 301.966853 
L 556.55228 301.966853 
L 556.55228 298.920441 
L 563.047927 298.920441 
L 563.047927 296.025402 
L 569.543575 296.025402 
L 569.543575 292.485509 
L 577.663135 292.485509 
L 577.663135 289.439096 
L 582.53487 289.439096 
L 582.53487 286.544058 
L 584.158782 286.544058 
L 584.158782 283.365193 
L 595.526166 283.365193 
L 595.526166 280.31878 
L 597.150078 280.31878 
L 597.150078 277.139915 
L 605.269637 277.139915 
L 605.269637 273.961049 
L 611.765285 273.961049 
L 611.765285 270.782184 
L 615.013109 270.782184 
L 615.013109 268.979881 
L 618.260933 268.979881 
L 618.260933 268.204086 
L 628.004404 268.204086 
L 628.004404 265.025221 
L 628.004404 265.025221 
L 631.252228 265.025221 
L 631.252228 261.978808 
L 634.500052 261.978808 
L 634.500052 258.799943 
L 644.243523 258.799943 
L 644.243523 255.621077 
L 649.115259 255.621077 
L 649.115259 255.469703 
L 652.363083 255.469703 
L 652.363083 252.290837 
L 658.858731 252.290837 
L 658.858731 249.111972 
L 660.482642 249.111972 
L 660.482642 246.065559 
L 678.345674 246.065559 
L 678.345674 242.886694 
L 684.841321 242.886694 
L 684.841321 239.707829 
L 686.465233 239.707829 
L 686.465233 239.026643 
L 694.584793 239.026643 
L 694.584793 234.646242 
L 697.832617 234.646242 
L 697.832617 234.646242 
" clip-path="url(#p3601353e11)" style="fill: none; stroke: #0000ff; stroke-width: 1.5; stroke-linecap: square"/>
   </g>
   <g id="line2d_30">
    <path d="M 106.728679 455.7 
L 109.976503 455.7 
L 109.976503 452.180542 
L 116.47215 452.180542 
L 116.47215 448.944911 
L 127.839534 448.944911 
L 127.839534 445.784967 
L 129.463446 445.784967 
L 129.463446 442.549337 
L 134.335181 442.549337 
L 134.335181 440.0895 
L 144.078653 440.0895 
L 144.078653 436.929557 
L 152.198212 436.929557 
L 152.198212 430.533982 
L 153.822124 430.533982 
L 153.822124 429.828955 
L 168.437332 429.828955 
L 168.437332 429.50842 
L 171.685155 429.50842 
L 171.685155 426.348476 
L 179.804715 426.348476 
L 179.804715 422.823152 
L 187.924275 422.823152 
L 187.924275 422.06628 
L 192.79601 422.06628 
L 192.79601 418.906336 
L 196.043834 418.906336 
L 196.043834 415.595018 
L 202.539482 415.595018 
L 202.539482 412.359387 
L 209.03513 412.359387 
L 209.03513 406.66392 
L 218.778601 406.66392 
L 218.778601 403.428289 
L 220.402513 403.428289 
L 220.402513 400.192658 
L 228.522073 400.192658 
L 228.522073 396.957028 
L 233.393808 396.957028 
L 233.393808 393.872771 
L 236.641632 393.872771 
L 236.641632 393.357909 
L 241.513368 393.357909 
L 241.513368 390.122278 
L 243.13728 390.122278 
L 243.13728 386.886647 
L 251.256839 386.886647 
L 251.256839 385.940556 
L 252.880751 385.940556 
L 252.880751 382.704925 
L 256.128575 382.704925 
L 256.128575 379.544982 
L 261.000311 379.544982 
L 261.000311 376.309351 
L 264.248135 376.309351 
L 264.248135 373.130485 
L 264.248135 373.130485 
L 269.11987 373.130485 
L 269.11987 369.894855 
L 270.743782 369.894855 
L 270.743782 369.667793 
L 273.991606 369.667793 
L 273.991606 366.432162 
L 280.487254 366.432162 
L 280.487254 363.196531 
L 282.111166 363.196531 
L 282.111166 359.9609 
L 290.230725 359.9609 
L 290.230725 356.725269 
L 298.350285 356.725269 
L 298.350285 353.186889 
L 304.845933 353.186889 
L 304.845933 352.903062 
L 306.469845 352.903062 
L 306.469845 349.667431 
L 311.34158 349.667431 
L 311.34158 346.4318 
L 314.589404 346.4318 
L 314.589404 343.19617 
L 317.837228 343.19617 
L 317.837228 340.111913 
L 322.708964 340.111913 
L 322.708964 336.876282 
L 324.332876 336.876282 
L 324.332876 333.792026 
L 330.828523 333.792026 
L 330.828523 330.556395 
L 338.948083 330.556395 
L 338.948083 327.320765 
L 340.571995 327.320765 
L 340.571995 324.085134 
L 347.067642 324.085134 
L 347.067642 320.40484 
L 353.56329 320.40484 
L 353.56329 317.169209 
L 360.058938 317.169209 
L 360.058938 314.084953 
L 364.930674 314.084953 
L 364.930674 307.840753 
L 382.793705 307.840753 
L 382.793705 304.756497 
L 384.417617 304.756497 
L 384.417617 303.810406 
L 389.289352 303.810406 
L 389.289352 300.650462 
L 390.913264 300.650462 
L 390.913264 297.566206 
L 392.537176 297.566206 
L 392.537176 296.620115 
L 395.785 296.620115 
L 395.785 293.384484 
L 405.528472 293.384484 
L 405.528472 290.300228 
L 413.648031 290.300228 
L 413.648031 289.496051 
L 444.502358 289.496051 
L 444.502358 286.26042 
L 446.126269 286.26042 
L 446.126269 279.902689 
L 454.245829 279.902689 
L 454.245829 276.667058 
L 457.493653 276.667058 
L 457.493653 272.701613 
L 467.237124 272.701613 
L 467.237124 269.579513 
L 470.484948 269.579513 
L 470.484948 264.975835 
L 475.356684 264.975835 
L 475.356684 264.692008 
L 483.476244 264.692008 
L 483.476244 261.532064 
L 496.467539 261.532064 
L 496.467539 258.37212 
L 501.339275 258.37212 
L 501.339275 252.052233 
L 509.458834 252.052233 
L 509.458834 248.89229 
L 517.578394 248.89229 
L 517.578394 246.432453 
L 520.826218 246.432453 
L 520.826218 245.013317 
L 522.45013 245.013317 
L 522.45013 241.853373 
L 528.945777 241.853373 
L 528.945777 241.550624 
L 533.817513 241.550624 
L 533.817513 238.466368 
L 541.937073 238.466368 
L 541.937073 235.382112 
L 546.808808 235.382112 
L 546.808808 232.922275 
L 561.424016 232.922275 
L 561.424016 232.712622 
L 572.791399 232.712622 
L 572.791399 231.565013 
L 574.415311 231.565013 
L 574.415311 225.245126 
L 579.287047 225.245126 
L 579.287047 222.16087 
L 582.53487 222.16087 
L 582.53487 221.60192 
L 587.406606 221.60192 
L 587.406606 218.366289 
L 592.278342 218.366289 
L 592.278342 215.206345 
L 598.77399 215.206345 
L 598.77399 208.886458 
L 608.517461 208.886458 
L 608.517461 208.363837 
L 611.765285 208.363837 
L 611.765285 205.128207 
L 615.013109 205.128207 
L 615.013109 202.04395 
L 618.260933 202.04395 
L 618.260933 198.070369 
L 623.132668 198.070369 
L 623.132668 191.674794 
L 628.004404 191.674794 
L 628.004404 190.917921 
L 629.628316 190.917921 
L 629.628316 186.94434 
L 634.500052 186.94434 
L 634.500052 183.633022 
L 639.371788 183.633022 
L 639.371788 180.548765 
L 640.995699 180.548765 
L 640.995699 177.313134 
L 644.243523 177.313134 
L 644.243523 174.001816 
L 649.115259 174.001816 
L 649.115259 167.644086 
L 655.610907 167.644086 
L 655.610907 164.332767 
L 657.234819 164.332767 
L 657.234819 159.923984 
L 662.106554 159.923984 
L 662.106554 156.688353 
L 670.226114 156.688353 
L 670.226114 153.52841 
L 676.721762 153.52841 
L 676.721762 152.061969 
L 683.217409 152.061969 
L 683.217409 151.910594 
L 686.465233 151.910594 
L 686.465233 148.788494 
L 696.208705 148.788494 
L 696.208705 145.325802 
L 699.456528 145.325802 
L 699.456528 145.325802 
L 699.456528 142.203702 
L 699.456528 142.203702 
" clip-path="url(#p3601353e11)" style="fill: none; stroke: #008000; stroke-width: 1.5; stroke-linecap: square"/>
   </g>
   <g id="line2d_31">
    <path d="M 106.728679 455.7 
L 111.600415 455.7 
L 111.600415 454.753909 
L 114.848238 454.753909 
L 114.848238 451.442591 
L 118.096062 451.442591 
L 118.096062 448.320491 
L 121.343886 448.320491 
L 121.343886 448.320491 
L 121.343886 445.198391 
L 126.215622 445.198391 
L 126.215622 442.076291 
L 127.839534 442.076291 
L 127.839534 441.697855 
L 129.463446 441.697855 
L 129.463446 441.221593 
L 139.206917 441.221593 
L 139.206917 435.393673 
L 144.078653 435.393673 
L 144.078653 432.158042 
L 148.950389 432.158042 
L 148.950389 429.035942 
L 153.822124 429.035942 
L 153.822124 427.881711 
L 157.069948 427.881711 
L 157.069948 424.721768 
L 161.941684 424.721768 
L 161.941684 421.31584 
L 168.437332 421.31584 
L 168.437332 418.19374 
L 173.309067 418.19374 
L 173.309067 411.83601 
L 179.804715 411.83601 
L 179.804715 408.71391 
L 184.676451 408.71391 
L 184.676451 405.478279 
L 189.548187 405.478279 
L 189.548187 402.242648 
L 192.79601 402.242648 
L 192.79601 399.063783 
L 199.291658 399.063783 
L 199.291658 399.063783 
L 199.291658 395.941683 
L 205.787306 395.941683 
L 205.787306 392.819583 
L 220.402513 392.819583 
L 220.402513 392.676155 
L 222.026425 392.676155 
L 222.026425 389.554056 
L 223.650337 389.554056 
L 223.650337 387.094219 
L 225.274249 387.094219 
L 225.274249 387.094219 
L 225.274249 383.858588 
L 230.145984 383.858588 
L 230.145984 380.622958 
L 243.13728 380.622958 
L 243.13728 377.690076 
L 251.256839 377.690076 
L 251.256839 374.643663 
L 252.880751 374.643663 
L 252.880751 372.183827 
L 257.752487 372.183827 
L 257.752487 369.250945 
L 261.000311 369.250945 
L 261.000311 366.204532 
L 262.624223 366.204532 
L 262.624223 363.271651 
L 272.367694 363.271651 
L 272.367694 360.149551 
L 273.991606 360.149551 
L 273.991606 357.216669 
L 285.35899 357.216669 
L 285.35899 356.645041 
L 291.854637 356.645041 
L 291.854637 353.598628 
L 296.726373 353.598628 
L 296.726373 347.430116 
L 298.350285 347.430116 
L 298.350285 344.194485 
L 303.222021 344.194485 
L 303.222021 341.148072 
L 306.469845 341.148072 
L 306.469845 337.992859 
L 311.34158 337.992859 
L 311.34158 334.946446 
L 316.213316 334.946446 
L 316.213316 329.071222 
L 321.085052 329.071222 
L 321.085052 323.195997 
L 322.708964 323.195997 
L 322.708964 320.149585 
L 325.956788 320.149585 
L 325.956788 317.320773 
L 334.076347 317.320773 
L 334.076347 314.085142 
L 337.324171 314.085142 
L 337.324171 311.15226 
L 338.948083 311.15226 
L 338.948083 307.91663 
L 343.819819 307.91663 
L 343.819819 304.605311 
L 343.819819 304.605311 
L 345.443731 304.605311 
L 345.443731 301.67243 
L 348.691554 301.67243 
L 348.691554 300.849331 
L 350.315466 300.849331 
L 350.315466 297.916449 
L 355.187202 297.916449 
L 355.187202 294.680818 
L 356.811114 294.680818 
L 356.811114 291.747936 
L 361.68285 291.747936 
L 361.68285 290.53694 
L 363.306762 290.53694 
L 363.306762 287.708128 
L 366.554585 287.708128 
L 366.554585 284.472497 
L 371.426321 284.472497 
L 371.426321 278.408055 
L 377.921969 278.408055 
L 377.921969 275.579243 
L 379.545881 275.579243 
L 379.545881 272.53283 
L 387.66544 272.53283 
L 387.66544 269.599949 
L 387.66544 269.599949 
L 390.913264 269.599949 
L 390.913264 264.207231 
L 395.785 264.207231 
L 395.785 258.445537 
L 400.656736 258.445537 
L 400.656736 257.726508 
L 402.280648 257.726508 
L 402.280648 254.793626 
L 412.024119 254.793626 
L 412.024119 251.747214 
L 420.143679 251.747214 
L 420.143679 250.990341 
L 425.015415 250.990341 
L 425.015415 245.364128 
L 429.88715 245.364128 
L 429.88715 242.052809 
L 434.758886 242.052809 
L 434.758886 241.409468 
L 436.382798 241.409468 
L 436.382798 241.235387 
L 441.254534 241.235387 
L 441.254534 238.188974 
L 442.878446 238.188974 
L 442.878446 234.877656 
L 447.750181 234.877656 
L 447.750181 231.831243 
L 449.374093 231.831243 
L 449.374093 229.170836 
L 450.998005 229.170836 
L 450.998005 226.711 
L 455.869741 226.711 
L 455.869741 223.664587 
L 467.237124 223.664587 
L 467.237124 220.867185 
L 472.10886 220.867185 
L 472.10886 214.509455 
L 478.604508 214.509455 
L 478.604508 211.198136 
L 485.100155 211.198136 
L 485.100155 206.94262 
L 488.347979 206.94262 
L 488.347979 206.507418 
L 491.595803 206.507418 
L 491.595803 203.220698 
L 493.219715 203.220698 
L 493.219715 200.174285 
L 494.843627 200.174285 
L 494.843627 197.127873 
L 498.091451 197.127873 
L 498.091451 193.816555 
L 499.715363 193.816555 
L 499.715363 190.770142 
L 504.587098 190.770142 
L 504.587098 184.412411 
L 507.834922 184.412411 
L 507.834922 181.365999 
L 509.458834 181.365999 
L 509.458834 178.05468 
L 519.202306 178.05468 
L 519.202306 176.578779 
L 520.826218 176.578779 
L 520.826218 173.267461 
L 522.45013 173.267461 
L 522.45013 172.32137 
L 528.945777 172.32137 
L 528.945777 169.274957 
L 530.569689 169.274957 
L 530.569689 165.963639 
L 533.817513 165.963639 
L 533.817513 162.917226 
L 538.689249 162.917226 
L 538.689249 162.637751 
L 540.313161 162.637751 
L 540.313161 159.591338 
L 541.937073 159.591338 
L 541.937073 156.28002 
L 546.808808 156.28002 
L 546.808808 153.233608 
L 553.304456 153.233608 
L 553.304456 150.187195 
L 559.800104 150.187195 
L 559.800104 147.140782 
L 561.424016 147.140782 
L 561.424016 144.09437 
L 569.543575 144.09437 
L 569.543575 141.066879 
L 571.167487 141.066879 
L 571.167487 138.269477 
L 574.415311 138.269477 
L 574.415311 135.223065 
L 579.287047 135.223065 
L 579.287047 129.130239 
L 584.158782 129.130239 
L 584.158782 126.083827 
L 587.406606 126.083827 
L 587.406606 124.929596 
L 589.030518 124.929596 
L 589.030518 121.883183 
L 590.65443 121.883183 
L 590.65443 118.83677 
L 593.902254 118.83677 
L 593.902254 115.790358 
L 595.526166 115.790358 
L 595.526166 112.635145 
L 598.77399 112.635145 
L 598.77399 109.588732 
L 608.517461 109.588732 
L 608.517461 103.387106 
L 613.389197 103.387106 
L 613.389197 100.231893 
L 616.637021 100.231893 
L 616.637021 97.07668 
L 623.132668 97.07668 
L 623.132668 90.766254 
L 626.380492 90.766254 
L 626.380492 90.49378 
L 629.628316 90.49378 
L 629.628316 87.338566 
L 632.87614 87.338566 
L 632.87614 84.183353 
L 634.500052 84.183353 
L 634.500052 81.02814 
L 636.123964 81.02814 
L 636.123964 77.981728 
L 649.115259 77.981728 
L 649.115259 74.826514 
L 650.739171 74.826514 
L 650.739171 68.733689 
L 653.986995 68.733689 
L 653.986995 65.687276 
L 658.858731 65.687276 
L 658.858731 62.640864 
L 660.482642 62.640864 
L 660.482642 59.485651 
L 663.730466 59.485651 
L 663.730466 56.548038 
L 665.354378 56.548038 
L 665.354378 53.392825 
L 670.226114 53.392825 
L 670.226114 50.455213 
L 671.850026 50.455213 
L 671.850026 47.3 
L 675.09785 47.3 
L 675.09785 47.3 
" clip-path="url(#p3601353e11)" style="fill: none; stroke: #ff0000; stroke-width: 1.5; stroke-linecap: square"/>
   </g>
   <g id="patch_3">
    <path d="M 82.37 476.12 
L 82.37 26.88 
" style="fill: none; stroke: #000000; stroke-width: 0.8; stroke-linejoin: miter; stroke-linecap: square"/>
   </g>
   <g id="patch_4">
    <path d="M 709.2 476.12 
L 709.2 26.88 
" style="fill: none; stroke: #000000; stroke-width: 0.8; stroke-linejoin: miter; stroke-linecap: square"/>
   </g>
   <g id="patch_5">
    <path d="M 82.37 476.12 
L 709.2 476.12 
" style="fill: none; stroke: #000000; stroke-width: 0.8; stroke-linejoin: miter; stroke-linecap: square"/>
   </g>
   <g id="patch_6">
    <path d="M 82.37 26.88 
L 709.2 26.88 
" style="fill: none; stroke: #000000; stroke-width: 0.8; stroke-linejoin: miter; stroke-linecap: square"/>
   </g>
   <g id="text_13">
    <!-- Cumulative Payload Mass to Orbit By Year -->
    <g transform="translate(270.179688 20.88) scale(0.12 -0.12)">
     <defs>
      <path id="DejaVuSans-4f" d="M 2522 4238 
Q 1834 4238 1429 3725 
Q 1025 3213 1025 2328 
Q 1025 1447 1429 934 
Q 1834 422 2522 422 
Q 3209 422 3611 934 
Q 4013 1447 4013 2328 
Q 4013 3213 3611 3725 
Q 3209 4238 2522 4238 
z
M 2522 4750 
Q 3503 4750 4090 4092 
Q 4678 3434 4678 2328 
Q 4678 1225 4090 567 
Q 3503 -91 2522 -91 
Q 1538 -91 948 565 
Q 359 1222 359 2328 
Q 359 3434 948 4092 
Q 1538 4750 2522 4750 
z
" transform="scale(0.015625)"/>
      <path id="DejaVuSans-62" d="M 3116 1747 
Q 3116 2381 2855 2742 
Q 2594 3103 2138 3103 
Q 1681 3103 1420 2742 
Q 1159 2381 1159 1747 
Q 1159 1113 1420 752 
Q 1681 391 2138 391 
Q 2594 391 2855 752 
Q 3116 1113 3116 1747 
z
M 1159 2969 
Q 1341 3281 1617 3432 
Q 1894 3584 2278 3584 
Q 2916 3584 3314 3078 
Q 3713 2572 3713 1747 
Q 3713 922 3314 415 
Q 2916 -91 2278 -91 
Q 1894 -91 1617 61 
Q 1341 213 1159 525 
L 1159 0 
L 581 0 
L 581 4863 
L 1159 4863 
L 1159 2969 
z
" transform="scale(0.015625)"/>
      <path id="DejaVuSans-42" d="M 1259 2228 
L 1259 519 
L 2272 519 
Q 2781 519 3026 730 
Q 3272 941 3272 1375 
Q 3272 1813 3026 2020 
Q 2781 2228 2272 2228 
L 1259 2228 
z
M 1259 4147 
L 1259 2741 
L 2194 2741 
Q 2656 2741 2882 2914 
Q 3109 3088 3109 3444 
Q 3109 3797 2882 3972 
Q 2656 4147 2194 4147 
L 1259 4147 
z
M 628 4666 
L 2241 4666 
Q 2963 4666 3353 4366 
Q 3744 4066 3744 3513 
Q 3744 3084 3544 2831 
Q 3344 2578 2956 2516 
Q 3422 2416 3680 2098 
Q 3938 1781 3938 1306 
Q 3938 681 3513 340 
Q 3088 0 2303 0 
L 628 0 
L 628 4666 
z
" transform="scale(0.015625)"/>
      <path id="DejaVuSans-59" d="M -13 4666 
L 666 4666 
L 1959 2747 
L 3244 4666 
L 3922 4666 
L 2272 2222 
L 2272 0 
L 1638 0 
L 1638 2222 
L -13 4666 
z
" transform="scale(0.015625)"/>
     </defs>
     <use xlink:href="#DejaVuSans-43"/>
     <use xlink:href="#DejaVuSans-75" x="69.824219"/>
     <use xlink:href="#DejaVuSans-6d" x="133.203125"/>
     <use xlink:href="#DejaVuSans-75" x="230.615234"/>
     <use xlink:href="#DejaVuSans-6c" x="293.994141"/>
     <use xlink:href="#DejaVuSans-61" x="321.777344"/>
     <use xlink:href="#DejaVuSans-74" x="383.056641"/>
     <use xlink:href="#DejaVuSans-69" x="422.265625"/>
     <use xlink:href="#DejaVuSans-76" x="450.048828"/>
     <use xlink:href="#DejaVuSans-65" x="509.228516"/>
     <use xlink:href="#DejaVuSans-20" x="570.751953"/>
     <use xlink:href="#DejaVuSans-50" x="602.539062"/>
     <use xlink:href="#DejaVuSans-61" x="658.341797"/>
     <use xlink:href="#DejaVuSans-79" x="719.621094"/>
     <use xlink:href="#DejaVuSans-6c" x="778.800781"/>
     <use xlink:href="#DejaVuSans-6f" x="806.583984"/>
     <use xlink:href="#DejaVuSans-61" x="867.765625"/>
     <use xlink:href="#DejaVuSans-64" x="929.044922"/>
     <use xlink:href="#DejaVuSans-20" x="992.521484"/>
     <use xlink:href="#DejaVuSans-4d" x="1024.308594"/>
     <use xlink:href="#DejaVuSans-61" x="1110.587891"/>
     <use xlink:href="#DejaVuSans-73" x="1171.867188"/>
     <use xlink:href="#DejaVuSans-73" x="1223.966797"/>
     <use xlink:href="#DejaVuSans-20" x="1276.066406"/>
     <use xlink:href="#DejaVuSans-74" x="1307.853516"/>
     <use xlink:href="#DejaVuSans-6f" x="1347.0625"/>
     <use xlink:href="#DejaVuSans-20" x="1408.244141"/>
     <use xlink:href="#DejaVuSans-4f" x="1440.03125"/>
     <use xlink:href="#DejaVuSans-72" x="1518.742188"/>
     <use xlink:href="#DejaVuSans-62" x="1559.855469"/>
     <use xlink:href="#DejaVuSans-69" x="1623.332031"/>
     <use xlink:href="#DejaVuSans-74" x="1651.115234"/>
     <use xlink:href="#DejaVuSans-20" x="1690.324219"/>
     <use xlink:href="#DejaVuSans-42" x="1722.111328"/>
     <use xlink:href="#DejaVuSans-79" x="1790.714844"/>
     <use xlink:href="#DejaVuSans-20" x="1849.894531"/>
     <use xlink:href="#DejaVuSans-59" x="1881.681641"/>
     <use xlink:href="#DejaVuSans-65" x="1929.515625"/>
     <use xlink:href="#DejaVuSans-61" x="1991.039062"/>
     <use xlink:href="#DejaVuSans-72" x="2052.318359"/>
    </g>
   </g>
   <g id="legend_1">
    <g id="patch_7">
     <path d="M 89.37 181.66125 
L 146.82 181.66125 
Q 148.82 181.66125 148.82 179.66125 
L 148.82 33.88 
Q 148.82 31.88 146.82 31.88 
L 89.37 31.88 
Q 87.37 31.88 87.37 33.88 
L 87.37 179.66125 
Q 87.37 181.66125 89.37 181.66125 
z
" style="fill: #ffffff; opacity: 0.8; stroke: #cccccc; stroke-linejoin: miter"/>
    </g>
    <g id="text_14">
     <!-- Year -->
     <g transform="translate(107.5075 43.478437) scale(0.1 -0.1)">
      <use xlink:href="#DejaVuSans-59"/>
      <use xlink:href="#DejaVuSans-65" x="47.833984"/>
      <use xlink:href="#DejaVuSans-61" x="109.357422"/>
      <use xlink:href="#DejaVuSans-72" x="170.636719"/>
     </g>
    </g>
    <g id="line2d_32">
     <path d="M 91.37 54.656562 
L 101.37 54.656562 
L 101.37 54.656562 
L 111.37 54.656562 
L 111.37 54.656562 
" style="fill: none; stroke: #808080; stroke-width: 1.5; stroke-linecap: square"/>
    </g>
    <g id="text_15">
     <!-- 2017 -->
     <g transform="translate(119.37 58.156562) scale(0.1 -0.1)">
      <defs>
       <path id="DejaVuSans-37" d="M 525 4666 
L 3525 4666 
L 3525 4397 
L 1831 0 
L 1172 0 
L 2766 4134 
L 525 4134 
L 525 4666 
z
" transform="scale(0.015625)"/>
      </defs>
      <use xlink:href="#DejaVuSans-32"/>
      <use xlink:href="#DejaVuSans-30" x="63.623047"/>
      <use xlink:href="#DejaVuSans-31" x="127.246094"/>
      <use xlink:href="#DejaVuSans-37" x="190.869141"/>
     </g>
    </g>
    <g id="line2d_33">
     <path d="M 91.37 69.334687 
L 101.37 69.334687 
L 101.37 69.334687 
L 111.37 69.334687 
L 111.37 69.334687 
" style="fill: none; stroke: #90ee90; stroke-width: 1.5; stroke-linecap: square"/>
    </g>
    <g id="text_16">
     <!-- 2018 -->
     <g transform="translate(119.37 72.834687) scale(0.1 -0.1)">
      <defs>
       <path id="DejaVuSans-38" d="M 2034 2216 
Q 1584 2216 1326 1975 
Q 1069 1734 1069 1313 
Q 1069 891 1326 650 
Q 1584 409 2034 409 
Q 2484 409 2743 651 
Q 3003 894 3003 1313 
Q 3003 1734 2745 1975 
Q 2488 2216 2034 2216 
z
M 1403 2484 
Q 997 2584 770 2862 
Q 544 3141 544 3541 
Q 544 4100 942 4425 
Q 1341 4750 2034 4750 
Q 2731 4750 3128 4425 
Q 3525 4100 3525 3541 
Q 3525 3141 3298 2862 
Q 3072 2584 2669 2484 
Q 3125 2378 3379 2068 
Q 3634 1759 3634 1313 
Q 3634 634 3220 271 
Q 2806 -91 2034 -91 
Q 1263 -91 848 271 
Q 434 634 434 1313 
Q 434 1759 690 2068 
Q 947 2378 1403 2484 
z
M 1172 3481 
Q 1172 3119 1398 2916 
Q 1625 2713 2034 2713 
Q 2441 2713 2670 2916 
Q 2900 3119 2900 3481 
Q 2900 3844 2670 4047 
Q 2441 4250 2034 4250 
Q 1625 4250 1398 4047 
Q 1172 3844 1172 3481 
z
" transform="scale(0.015625)"/>
      </defs>
      <use xlink:href="#DejaVuSans-32"/>
      <use xlink:href="#DejaVuSans-30" x="63.623047"/>
      <use xlink:href="#DejaVuSans-31" x="127.246094"/>
      <use xlink:href="#DejaVuSans-38" x="190.869141"/>
     </g>
    </g>
    <g id="line2d_34">
     <path d="M 91.37 84.012812 
L 101.37 84.012812 
L 101.37 84.012812 
L 111.37 84.012812 
L 111.37 84.012812 
" style="fill: none; stroke: #add8e6; stroke-width: 1.5; stroke-linecap: square"/>
    </g>
    <g id="text_17">
     <!-- 2019 -->
     <g transform="translate(119.37 87.512812) scale(0.1 -0.1)">
      <defs>
       <path id="DejaVuSans-39" d="M 703 97 
L 703 672 
Q 941 559 1184 500 
Q 1428 441 1663 441 
Q 2288 441 2617 861 
Q 2947 1281 2994 2138 
Q 2813 1869 2534 1725 
Q 2256 1581 1919 1581 
Q 1219 1581 811 2004 
Q 403 2428 403 3163 
Q 403 3881 828 4315 
Q 1253 4750 1959 4750 
Q 2769 4750 3195 4129 
Q 3622 3509 3622 2328 
Q 3622 1225 3098 567 
Q 2575 -91 1691 -91 
Q 1453 -91 1209 -44 
Q 966 3 703 97 
z
M 1959 2075 
Q 2384 2075 2632 2365 
Q 2881 2656 2881 3163 
Q 2881 3666 2632 3958 
Q 2384 4250 1959 4250 
Q 1534 4250 1286 3958 
Q 1038 3666 1038 3163 
Q 1038 2656 1286 2365 
Q 1534 2075 1959 2075 
z
" transform="scale(0.015625)"/>
      </defs>
      <use xlink:href="#DejaVuSans-32"/>
      <use xlink:href="#DejaVuSans-30" x="63.623047"/>
      <use xlink:href="#DejaVuSans-31" x="127.246094"/>
      <use xlink:href="#DejaVuSans-39" x="190.869141"/>
     </g>
    </g>
    <g id="line2d_35">
     <path d="M 91.37 98.690937 
L 101.37 98.690937 
L 101.37 98.690937 
L 111.37 98.690937 
L 111.37 98.690937 
" style="fill: none; stroke: #ffc0cb; stroke-width: 1.5; stroke-linecap: square"/>
    </g>
    <g id="text_18">
     <!-- 2020 -->
     <g transform="translate(119.37 102.190937) scale(0.1 -0.1)">
      <use xlink:href="#DejaVuSans-32"/>
      <use xlink:href="#DejaVuSans-30" x="63.623047"/>
      <use xlink:href="#DejaVuSans-32" x="127.246094"/>
      <use xlink:href="#DejaVuSans-30" x="190.869141"/>
     </g>
    </g>
    <g id="line2d_36">
     <path d="M 91.37 113.369062 
L 101.37 113.369062 
L 101.37 113.369062 
L 111.37 113.369062 
L 111.37 113.369062 
" style="fill: none; stroke: #800080; stroke-width: 1.5; stroke-linecap: square"/>
    </g>
    <g id="text_19">
     <!-- 2021 -->
     <g transform="translate(119.37 116.869062) scale(0.1 -0.1)">
      <use xlink:href="#DejaVuSans-32"/>
      <use xlink:href="#DejaVuSans-30" x="63.623047"/>
      <use xlink:href="#DejaVuSans-32" x="127.246094"/>
      <use xlink:href="#DejaVuSans-31" x="190.869141"/>
     </g>
    </g>
    <g id="line2d_37">
     <path d="M 91.37 128.047187 
L 101.37 128.047187 
L 101.37 128.047187 
L 111.37 128.047187 
L 111.37 128.047187 
" style="fill: none; stroke: #ffa500; stroke-width: 1.5; stroke-linecap: square"/>
    </g>
    <g id="text_20">
     <!-- 2022 -->
     <g transform="translate(119.37 131.547187) scale(0.1 -0.1)">
      <use xlink:href="#DejaVuSans-32"/>
      <use xlink:href="#DejaVuSans-30" x="63.623047"/>
      <use xlink:href="#DejaVuSans-32" x="127.246094"/>
      <use xlink:href="#DejaVuSans-32" x="190.869141"/>
     </g>
    </g>
    <g id="line2d_38">
     <path d="M 91.37 142.725312 
L 101.37 142.725312 
L 101.37 142.725312 
L 111.37 142.725312 
L 111.37 142.725312 
" style="fill: none; stroke: #0000ff; stroke-width: 1.5; stroke-linecap: square"/>
    </g>
    <g id="text_21">
     <!-- 2023 -->
     <g transform="translate(119.37 146.225312) scale(0.1 -0.1)">
      <defs>
       <path id="DejaVuSans-33" d="M 2597 2516 
Q 3050 2419 3304 2112 
Q 3559 1806 3559 1356 
Q 3559 666 3084 287 
Q 2609 -91 1734 -91 
Q 1441 -91 1130 -33 
Q 819 25 488 141 
L 488 750 
Q 750 597 1062 519 
Q 1375 441 1716 441 
Q 2309 441 2620 675 
Q 2931 909 2931 1356 
Q 2931 1769 2642 2001 
Q 2353 2234 1838 2234 
L 1294 2234 
L 1294 2753 
L 1863 2753 
Q 2328 2753 2575 2939 
Q 2822 3125 2822 3475 
Q 2822 3834 2567 4026 
Q 2313 4219 1838 4219 
Q 1578 4219 1281 4162 
Q 984 4106 628 3988 
L 628 4550 
Q 988 4650 1302 4700 
Q 1616 4750 1894 4750 
Q 2613 4750 3031 4423 
Q 3450 4097 3450 3541 
Q 3450 3153 3228 2886 
Q 3006 2619 2597 2516 
z
" transform="scale(0.015625)"/>
      </defs>
      <use xlink:href="#DejaVuSans-32"/>
      <use xlink:href="#DejaVuSans-30" x="63.623047"/>
      <use xlink:href="#DejaVuSans-32" x="127.246094"/>
      <use xlink:href="#DejaVuSans-33" x="190.869141"/>
     </g>
    </g>
    <g id="line2d_39">
     <path d="M 91.37 157.403437 
L 101.37 157.403437 
L 101.37 157.403437 
L 111.37 157.403437 
L 111.37 157.403437 
" style="fill: none; stroke: #008000; stroke-width: 1.5; stroke-linecap: square"/>
    </g>
    <g id="text_22">
     <!-- 2024 -->
     <g transform="translate(119.37 160.903437) scale(0.1 -0.1)">
      <defs>
       <path id="DejaVuSans-34" d="M 2419 4116 
L 825 1625 
L 2419 1625 
L 2419 4116 
z
M 2253 4666 
L 3047 4666 
L 3047 1625 
L 3713 1625 
L 3713 1100 
L 3047 1100 
L 3047 0 
L 2419 0 
L 2419 1100 
L 313 1100 
L 313 1709 
L 2253 4666 
z
" transform="scale(0.015625)"/>
      </defs>
      <use xlink:href="#DejaVuSans-32"/>
      <use xlink:href="#DejaVuSans-30" x="63.623047"/>
      <use xlink:href="#DejaVuSans-32" x="127.246094"/>
      <use xlink:href="#DejaVuSans-34" x="190.869141"/>
     </g>
    </g>
    <g id="line2d_40">
     <path d="M 91.37 172.081562 
L 101.37 172.081562 
L 101.37 172.081562 
L 111.37 172.081562 
L 111.37 172.081562 
" style="fill: none; stroke: #ff0000; stroke-width: 1.5; stroke-linecap: square"/>
    </g>
    <g id="text_23">
     <!-- 2025 -->
     <g transform="translate(119.37 175.581562) scale(0.1 -0.1)">
      <use xlink:href="#DejaVuSans-32"/>
      <use xlink:href="#DejaVuSans-30" x="63.623047"/>
      <use xlink:href="#DejaVuSans-32" x="127.246094"/>
      <use xlink:href="#DejaVuSans-35" x="190.869141"/>
     </g>
    </g>
   </g>
  </g>
 </g>
 <defs>
  <clipPath id="p3601353e11">
   <rect x="82.37" y="26.88" width="626.83" height="449.24"/>
  </clipPath>
 </defs>
</svg>
