<?xml version="1.0" encoding="utf-8" standalone="no"?>
<!DOCTYPE svg PUBLIC "-//W3C//DTD SVG 1.1//EN"
  "http://www.w3.org/Graphics/SVG/1.1/DTD/svg11.dtd">
<svg xmlns:xlink="http://www.w3.org/1999/xlink" width="720pt" height="504pt" viewBox="0 0 720 504" xmlns="http://www.w3.org/2000/svg" version="1.1">
 <metadata>
  <rdf:RDF xmlns:dc="http://purl.org/dc/elements/1.1/" xmlns:cc="http://creativecommons.org/ns#" xmlns:rdf="http://www.w3.org/1999/02/22-rdf-syntax-ns#">
   <cc:Work>
    <dc:type rdf:resource="http://purl.org/dc/dcmitype/StillImage"/>
    <dc:date>2025-11-07T11:24:45.646089</dc:date>
    <dc:format>image/svg+xml</dc:format>
    <dc:creator>
     <cc:Agent>
      <dc:title>Matplotlib v3.8.2, https://matplotlib.org/</dc:title>
     </cc:Agent>
    </dc:creator>
   </cc:Work>
  </rdf:RDF>
 </metadata>
 <defs>
  <style type="text/css">*{stroke-linejoin: round; stroke-linecap: butt}</style>
 </defs>
 <g id="figure_1">
  <g id="patch_1">
   <path d="M 0 504 
L 720 504 
L 720 0 
L 0 0 
z
" style="fill: #ffffff"/>
  </g>
  <g id="axes_1">
   <g id="patch_2">
    <path d="M 82.37 476.12 
L 709.2 476.12 
L 709.2 26.88 
L 82.37 26.88 
z
" style="fill: #ffffff"/>
   </g>
   <g id="matplotlib.axis_1">
    <g id="xtick_1">
     <g id="line2d_1">
      <path d="M 106.728679 476.12 
L 106.728679 26.88 
" clip-path="url(#p9debf81ca9)" style="fill: none; stroke: #b0b0b0; stroke-width: 0.8; stroke-linecap: square"/>
     </g>
     <g id="line2d_2">
      <defs>
       <path id="m4925b25811" d="M 0 0 
L 0 3.5 
" style="stroke: #000000; stroke-width: 0.8"/>
      </defs>
      <g>
       <use xlink:href="#m4925b25811" x="106.728679" y="476.12" style="stroke: #000000; stroke-width: 0.8"/>
      </g>
     </g>
     <g id="text_1">
      <!-- Jan 1 -->
      <g transform="translate(94.250554 490.718437) scale(0.1 -0.1)">
       <defs>
        <path id="DejaVuSans-4a" d="M 628 4666 
L 1259 4666 
L 1259 325 
Q 1259 -519 939 -900 
Q 619 -1281 -91 -1281 
L -331 -1281 
L -331 -750 
L -134 -750 
Q 284 -750 456 -515 
Q 628 -281 628 325 
L 628 4666 
z
" transform="scale(0.015625)"/>
        <path id="DejaVuSans-61" d="M 2194 1759 
Q 1497 1759 1228 1600 
Q 959 1441 959 1056 
Q 959 750 1161 570 
Q 1363 391 1709 391 
Q 2188 391 2477 730 
Q 2766 1069 2766 1631 
L 2766 1759 
L 2194 1759 
z
M 3341 1997 
L 3341 0 
L 2766 0 
L 2766 531 
Q 2569 213 2275 61 
Q 1981 -91 1556 -91 
Q 1019 -91 701 211 
Q 384 513 384 1019 
Q 384 1609 779 1909 
Q 1175 2209 1959 2209 
L 2766 2209 
L 2766 2266 
Q 2766 2663 2505 2880 
Q 2244 3097 1772 3097 
Q 1472 3097 1187 3025 
Q 903 2953 641 2809 
L 641 3341 
Q 956 3463 1253 3523 
Q 1550 3584 1831 3584 
Q 2591 3584 2966 3190 
Q 3341 2797 3341 1997 
z
" transform="scale(0.015625)"/>
        <path id="DejaVuSans-6e" d="M 3513 2113 
L 3513 0 
L 2938 0 
L 2938 2094 
Q 2938 2591 2744 2837 
Q 2550 3084 2163 3084 
Q 1697 3084 1428 2787 
Q 1159 2491 1159 1978 
L 1159 0 
L 581 0 
L 581 3500 
L 1159 3500 
L 1159 2956 
Q 1366 3272 1645 3428 
Q 1925 3584 2291 3584 
Q 2894 3584 3203 3211 
Q 3513 2838 3513 2113 
z
" transform="scale(0.015625)"/>
        <path id="DejaVuSans-20" transform="scale(0.015625)"/>
        <path id="DejaVuSans-31" d="M 794 531 
L 1825 531 
L 1825 4091 
L 703 3866 
L 703 4441 
L 1819 4666 
L 2450 4666 
L 2450 531 
L 3481 531 
L 3481 0 
L 794 0 
L 794 531 
z
" transform="scale(0.015625)"/>
       </defs>
       <use xlink:href="#DejaVuSans-4a"/>
       <use xlink:href="#DejaVuSans-61" x="29.492188"/>
       <use xlink:href="#DejaVuSans-6e" x="90.771484"/>
       <use xlink:href="#DejaVuSans-20" x="154.150391"/>
       <use xlink:href="#DejaVuSans-31" x="185.9375"/>
      </g>
     </g>
    </g>
    <g id="xtick_2">
     <g id="line2d_3">
      <path d="M 204.163394 476.12 
L 204.163394 26.88 
" clip-path="url(#p9debf81ca9)" style="fill: none; stroke: #b0b0b0; stroke-width: 0.8; stroke-linecap: square"/>
     </g>
     <g id="line2d_4">
      <g>
       <use xlink:href="#m4925b25811" x="204.163394" y="476.12" style="stroke: #000000; stroke-width: 0.8"/>
      </g>
     </g>
     <g id="text_2">
      <!-- Mar 1 -->
      <g transform="translate(189.959488 490.718437) scale(0.1 -0.1)">
       <defs>
        <path id="DejaVuSans-4d" d="M 628 4666 
L 1569 4666 
L 2759 1491 
L 3956 4666 
L 4897 4666 
L 4897 0 
L 4281 0 
L 4281 4097 
L 3078 897 
L 2444 897 
L 1241 4097 
L 1241 0 
L 628 0 
L 628 4666 
z
" transform="scale(0.015625)"/>
        <path id="DejaVuSans-72" d="M 2631 2963 
Q 2534 3019 2420 3045 
Q 2306 3072 2169 3072 
Q 1681 3072 1420 2755 
Q 1159 2438 1159 1844 
L 1159 0 
L 581 0 
L 581 3500 
L 1159 3500 
L 1159 2956 
Q 1341 3275 1631 3429 
Q 1922 3584 2338 3584 
Q 2397 3584 2469 3576 
Q 2541 3569 2628 3553 
L 2631 2963 
z
" transform="scale(0.015625)"/>
       </defs>
       <use xlink:href="#DejaVuSans-4d"/>
       <use xlink:href="#DejaVuSans-61" x="86.279297"/>
       <use xlink:href="#DejaVuSans-72" x="147.558594"/>
       <use xlink:href="#DejaVuSans-20" x="188.671875"/>
       <use xlink:href="#DejaVuSans-31" x="220.458984"/>
      </g>
     </g>
    </g>
    <g id="xtick_3">
     <g id="line2d_5">
      <path d="M 303.222021 476.12 
L 303.222021 26.88 
" clip-path="url(#p9debf81ca9)" style="fill: none; stroke: #b0b0b0; stroke-width: 0.8; stroke-linecap: square"/>
     </g>
     <g id="line2d_6">
      <g>
       <use xlink:href="#m4925b25811" x="303.222021" y="476.12" style="stroke: #000000; stroke-width: 0.8"/>
      </g>
     </g>
     <g id="text_3">
      <!-- May 1 -->
      <g transform="translate(288.114208 490.718437) scale(0.1 -0.1)">
       <defs>
        <path id="DejaVuSans-79" d="M 2059 -325 
Q 1816 -950 1584 -1140 
Q 1353 -1331 966 -1331 
L 506 -1331 
L 506 -850 
L 844 -850 
Q 1081 -850 1212 -737 
Q 1344 -625 1503 -206 
L 1606 56 
L 191 3500 
L 800 3500 
L 1894 763 
L 2988 3500 
L 3597 3500 
L 2059 -325 
z
" transform="scale(0.015625)"/>
       </defs>
       <use xlink:href="#DejaVuSans-4d"/>
       <use xlink:href="#DejaVuSans-61" x="86.279297"/>
       <use xlink:href="#DejaVuSans-79" x="147.558594"/>
       <use xlink:href="#DejaVuSans-20" x="206.738281"/>
       <use xlink:href="#DejaVuSans-31" x="238.525391"/>
      </g>
     </g>
    </g>
    <g id="xtick_4">
     <g id="line2d_7">
      <path d="M 402.280648 476.12 
L 402.280648 26.88 
" clip-path="url(#p9debf81ca9)" style="fill: none; stroke: #b0b0b0; stroke-width: 0.8; stroke-linecap: square"/>
     </g>
     <g id="line2d_8">
      <g>
       <use xlink:href="#m4925b25811" x="402.280648" y="476.12" style="stroke: #000000; stroke-width: 0.8"/>
      </g>
     </g>
     <g id="text_4">
      <!-- Jul 1 -->
      <g transform="translate(391.477523 490.718437) scale(0.1 -0.1)">
       <defs>
        <path id="DejaVuSans-75" d="M 544 1381 
L 544 3500 
L 1119 3500 
L 1119 1403 
Q 1119 906 1312 657 
Q 1506 409 1894 409 
Q 2359 409 2629 706 
Q 2900 1003 2900 1516 
L 2900 3500 
L 3475 3500 
L 3475 0 
L 2900 0 
L 2900 538 
Q 2691 219 2414 64 
Q 2138 -91 1772 -91 
Q 1169 -91 856 284 
Q 544 659 544 1381 
z
M 1991 3584 
L 1991 3584 
z
" transform="scale(0.015625)"/>
        <path id="DejaVuSans-6c" d="M 603 4863 
L 1178 4863 
L 1178 0 
L 603 0 
L 603 4863 
z
" transform="scale(0.015625)"/>
       </defs>
       <use xlink:href="#DejaVuSans-4a"/>
       <use xlink:href="#DejaVuSans-75" x="29.492188"/>
       <use xlink:href="#DejaVuSans-6c" x="92.871094"/>
       <use xlink:href="#DejaVuSans-20" x="120.654297"/>
       <use xlink:href="#DejaVuSans-31" x="152.441406"/>
      </g>
     </g>
    </g>
    <g id="xtick_5">
     <g id="line2d_9">
      <path d="M 502.963187 476.12 
L 502.963187 26.88 
" clip-path="url(#p9debf81ca9)" style="fill: none; stroke: #b0b0b0; stroke-width: 0.8; stroke-linecap: square"/>
     </g>
     <g id="line2d_10">
      <g>
       <use xlink:href="#m4925b25811" x="502.963187" y="476.12" style="stroke: #000000; stroke-width: 0.8"/>
      </g>
     </g>
     <g id="text_5">
      <!-- Sep 1 -->
      <g transform="translate(488.767874 490.718437) scale(0.1 -0.1)">
       <defs>
        <path id="DejaVuSans-53" d="M 3425 4513 
L 3425 3897 
Q 3066 4069 2747 4153 
Q 2428 4238 2131 4238 
Q 1616 4238 1336 4038 
Q 1056 3838 1056 3469 
Q 1056 3159 1242 3001 
Q 1428 2844 1947 2747 
L 2328 2669 
Q 3034 2534 3370 2195 
Q 3706 1856 3706 1288 
Q 3706 609 3251 259 
Q 2797 -91 1919 -91 
Q 1588 -91 1214 -16 
Q 841 59 441 206 
L 441 856 
Q 825 641 1194 531 
Q 1563 422 1919 422 
Q 2459 422 2753 634 
Q 3047 847 3047 1241 
Q 3047 1584 2836 1778 
Q 2625 1972 2144 2069 
L 1759 2144 
Q 1053 2284 737 2584 
Q 422 2884 422 3419 
Q 422 4038 858 4394 
Q 1294 4750 2059 4750 
Q 2388 4750 2728 4690 
Q 3069 4631 3425 4513 
z
" transform="scale(0.015625)"/>
        <path id="DejaVuSans-65" d="M 3597 1894 
L 3597 1613 
L 953 1613 
Q 991 1019 1311 708 
Q 1631 397 2203 397 
Q 2534 397 2845 478 
Q 3156 559 3463 722 
L 3463 178 
Q 3153 47 2828 -22 
Q 2503 -91 2169 -91 
Q 1331 -91 842 396 
Q 353 884 353 1716 
Q 353 2575 817 3079 
Q 1281 3584 2069 3584 
Q 2775 3584 3186 3129 
Q 3597 2675 3597 1894 
z
M 3022 2063 
Q 3016 2534 2758 2815 
Q 2500 3097 2075 3097 
Q 1594 3097 1305 2825 
Q 1016 2553 972 2059 
L 3022 2063 
z
" transform="scale(0.015625)"/>
        <path id="DejaVuSans-70" d="M 1159 525 
L 1159 -1331 
L 581 -1331 
L 581 3500 
L 1159 3500 
L 1159 2969 
Q 1341 3281 1617 3432 
Q 1894 3584 2278 3584 
Q 2916 3584 3314 3078 
Q 3713 2572 3713 1747 
Q 3713 922 3314 415 
Q 2916 -91 2278 -91 
Q 1894 -91 1617 61 
Q 1341 213 1159 525 
z
M 3116 1747 
Q 3116 2381 2855 2742 
Q 2594 3103 2138 3103 
Q 1681 3103 1420 2742 
Q 1159 2381 1159 1747 
Q 1159 1113 1420 752 
Q 1681 391 2138 391 
Q 2594 391 2855 752 
Q 3116 1113 3116 1747 
z
" transform="scale(0.015625)"/>
       </defs>
       <use xlink:href="#DejaVuSans-53"/>
       <use xlink:href="#DejaVuSans-65" x="63.476562"/>
       <use xlink:href="#DejaVuSans-70" x="125"/>
       <use xlink:href="#DejaVuSans-20" x="188.476562"/>
       <use xlink:href="#DejaVuSans-31" x="220.263672"/>
      </g>
     </g>
    </g>
    <g id="xtick_6">
     <g id="line2d_11">
      <path d="M 602.021813 476.12 
L 602.021813 26.88 
" clip-path="url(#p9debf81ca9)" style="fill: none; stroke: #b0b0b0; stroke-width: 0.8; stroke-linecap: square"/>
     </g>
     <g id="line2d_12">
      <g>
       <use xlink:href="#m4925b25811" x="602.021813" y="476.12" style="stroke: #000000; stroke-width: 0.8"/>
      </g>
     </g>
     <g id="text_6">
      <!-- Nov 1 -->
      <g transform="translate(587.492126 490.718437) scale(0.1 -0.1)">
       <defs>
        <path id="DejaVuSans-4e" d="M 628 4666 
L 1478 4666 
L 3547 763 
L 3547 4666 
L 4159 4666 
L 4159 0 
L 3309 0 
L 1241 3903 
L 1241 0 
L 628 0 
L 628 4666 
z
" transform="scale(0.015625)"/>
        <path id="DejaVuSans-6f" d="M 1959 3097 
Q 1497 3097 1228 2736 
Q 959 2375 959 1747 
Q 959 1119 1226 758 
Q 1494 397 1959 397 
Q 2419 397 2687 759 
Q 2956 1122 2956 1747 
Q 2956 2369 2687 2733 
Q 2419 3097 1959 3097 
z
M 1959 3584 
Q 2709 3584 3137 3096 
Q 3566 2609 3566 1747 
Q 3566 888 3137 398 
Q 2709 -91 1959 -91 
Q 1206 -91 779 398 
Q 353 888 353 1747 
Q 353 2609 779 3096 
Q 1206 3584 1959 3584 
z
" transform="scale(0.015625)"/>
        <path id="DejaVuSans-76" d="M 191 3500 
L 800 3500 
L 1894 563 
L 2988 3500 
L 3597 3500 
L 2284 0 
L 1503 0 
L 191 3500 
z
" transform="scale(0.015625)"/>
       </defs>
       <use xlink:href="#DejaVuSans-4e"/>
       <use xlink:href="#DejaVuSans-6f" x="74.804688"/>
       <use xlink:href="#DejaVuSans-76" x="135.986328"/>
       <use xlink:href="#DejaVuSans-20" x="195.166016"/>
       <use xlink:href="#DejaVuSans-31" x="226.953125"/>
      </g>
     </g>
    </g>
   </g>
   <g id="matplotlib.axis_2">
    <g id="ytick_1">
     <g id="line2d_13">
      <path d="M 82.37 455.7 
L 709.2 455.7 
" clip-path="url(#p9debf81ca9)" style="fill: none; stroke: #b0b0b0; stroke-width: 0.8; stroke-linecap: square"/>
     </g>
     <g id="line2d_14">
      <defs>
       <path id="mbcc7f192eb" d="M 0 0 
L -3.5 0 
" style="stroke: #000000; stroke-width: 0.8"/>
      </defs>
      <g>
       <use xlink:href="#mbcc7f192eb" x="82.37" y="455.7" style="stroke: #000000; stroke-width: 0.8"/>
      </g>
     </g>
     <g id="text_7">
      <!-- 0 -->
      <g transform="translate(69.0075 459.499219) scale(0.1 -0.1)">
       <defs>
        <path id="DejaVuSans-30" d="M 2034 4250 
Q 1547 4250 1301 3770 
Q 1056 3291 1056 2328 
Q 1056 1369 1301 889 
Q 1547 409 2034 409 
Q 2525 409 2770 889 
Q 3016 1369 3016 2328 
Q 3016 3291 2770 3770 
Q 2525 4250 2034 4250 
z
M 2034 4750 
Q 2819 4750 3233 4129 
Q 3647 3509 3647 2328 
Q 3647 1150 3233 529 
Q 2819 -91 2034 -91 
Q 1250 -91 836 529 
Q 422 1150 422 2328 
Q 422 3509 836 4129 
Q 1250 4750 2034 4750 
z
" transform="scale(0.015625)"/>
       </defs>
       <use xlink:href="#DejaVuSans-30"/>
      </g>
     </g>
    </g>
    <g id="ytick_2">
     <g id="line2d_15">
      <path d="M 82.37 400.864721 
L 709.2 400.864721 
" clip-path="url(#p9debf81ca9)" style="fill: none; stroke: #b0b0b0; stroke-width: 0.8; stroke-linecap: square"/>
     </g>
     <g id="line2d_16">
      <g>
       <use xlink:href="#mbcc7f192eb" x="82.37" y="400.864721" style="stroke: #000000; stroke-width: 0.8"/>
      </g>
     </g>
     <g id="text_8">
      <!-- 250,000 -->
      <g transform="translate(34.016875 404.663939) scale(0.1 -0.1)">
       <defs>
        <path id="DejaVuSans-32" d="M 1228 531 
L 3431 531 
L 3431 0 
L 469 0 
L 469 531 
Q 828 903 1448 1529 
Q 2069 2156 2228 2338 
Q 2531 2678 2651 2914 
Q 2772 3150 2772 3378 
Q 2772 3750 2511 3984 
Q 2250 4219 1831 4219 
Q 1534 4219 1204 4116 
Q 875 4013 500 3803 
L 500 4441 
Q 881 4594 1212 4672 
Q 1544 4750 1819 4750 
Q 2544 4750 2975 4387 
Q 3406 4025 3406 3419 
Q 3406 3131 3298 2873 
Q 3191 2616 2906 2266 
Q 2828 2175 2409 1742 
Q 1991 1309 1228 531 
z
" transform="scale(0.015625)"/>
        <path id="DejaVuSans-35" d="M 691 4666 
L 3169 4666 
L 3169 4134 
L 1269 4134 
L 1269 2991 
Q 1406 3038 1543 3061 
Q 1681 3084 1819 3084 
Q 2600 3084 3056 2656 
Q 3513 2228 3513 1497 
Q 3513 744 3044 326 
Q 2575 -91 1722 -91 
Q 1428 -91 1123 -41 
Q 819 9 494 109 
L 494 744 
Q 775 591 1075 516 
Q 1375 441 1709 441 
Q 2250 441 2565 725 
Q 2881 1009 2881 1497 
Q 2881 1984 2565 2268 
Q 2250 2553 1709 2553 
Q 1456 2553 1204 2497 
Q 953 2441 691 2322 
L 691 4666 
z
" transform="scale(0.015625)"/>
        <path id="DejaVuSans-2c" d="M 750 794 
L 1409 794 
L 1409 256 
L 897 -744 
L 494 -744 
L 750 256 
L 750 794 
z
" transform="scale(0.015625)"/>
       </defs>
       <use xlink:href="#DejaVuSans-32"/>
       <use xlink:href="#DejaVuSans-35" x="63.623047"/>
       <use xlink:href="#DejaVuSans-30" x="127.246094"/>
       <use xlink:href="#DejaVuSans-2c" x="190.869141"/>
       <use xlink:href="#DejaVuSans-30" x="222.65625"/>
       <use xlink:href="#DejaVuSans-30" x="286.279297"/>
       <use xlink:href="#DejaVuSans-30" x="349.902344"/>
      </g>
     </g>
    </g>
    <g id="ytick_3">
     <g id="line2d_17">
      <path d="M 82.37 346.029441 
L 709.2 346.029441 
" clip-path="url(#p9debf81ca9)" style="fill: none; stroke: #b0b0b0; stroke-width: 0.8; stroke-linecap: square"/>
     </g>
     <g id="line2d_18">
      <g>
       <use xlink:href="#mbcc7f192eb" x="82.37" y="346.029441" style="stroke: #000000; stroke-width: 0.8"/>
      </g>
     </g>
     <g id="text_9">
      <!-- 500,000 -->
      <g transform="translate(34.016875 349.82866) scale(0.1 -0.1)">
       <use xlink:href="#DejaVuSans-35"/>
       <use xlink:href="#DejaVuSans-30" x="63.623047"/>
       <use xlink:href="#DejaVuSans-30" x="127.246094"/>
       <use xlink:href="#DejaVuSans-2c" x="190.869141"/>
       <use xlink:href="#DejaVuSans-30" x="222.65625"/>
       <use xlink:href="#DejaVuSans-30" x="286.279297"/>
       <use xlink:href="#DejaVuSans-30" x="349.902344"/>
      </g>
     </g>
    </g>
    <g id="ytick_4">
     <g id="line2d_19">
      <path d="M 82.37 291.194162 
L 709.2 291.194162 
" clip-path="url(#p9debf81ca9)" style="fill: none; stroke: #b0b0b0; stroke-width: 0.8; stroke-linecap: square"/>
     </g>
     <g id="line2d_20">
      <g>
       <use xlink:href="#mbcc7f192eb" x="82.37" y="291.194162" style="stroke: #000000; stroke-width: 0.8"/>
      </g>
     </g>
     <g id="text_10">
      <!-- 750,000 -->
      <g transform="translate(34.016875 294.993381) scale(0.1 -0.1)">
       <defs>
        <path id="DejaVuSans-37" d="M 525 4666 
L 3525 4666 
L 3525 4397 
L 1831 0 
L 1172 0 
L 2766 4134 
L 525 4134 
L 525 4666 
z
" transform="scale(0.015625)"/>
       </defs>
       <use xlink:href="#DejaVuSans-37"/>
       <use xlink:href="#DejaVuSans-35" x="63.623047"/>
       <use xlink:href="#DejaVuSans-30" x="127.246094"/>
       <use xlink:href="#DejaVuSans-2c" x="190.869141"/>
       <use xlink:href="#DejaVuSans-30" x="222.65625"/>
       <use xlink:href="#DejaVuSans-30" x="286.279297"/>
       <use xlink:href="#DejaVuSans-30" x="349.902344"/>
      </g>
     </g>
    </g>
    <g id="ytick_5">
     <g id="line2d_21">
      <path d="M 82.37 236.358883 
L 709.2 236.358883 
" clip-path="url(#p9debf81ca9)" style="fill: none; stroke: #b0b0b0; stroke-width: 0.8; stroke-linecap: square"/>
     </g>
     <g id="line2d_22">
      <g>
       <use xlink:href="#mbcc7f192eb" x="82.37" y="236.358883" style="stroke: #000000; stroke-width: 0.8"/>
      </g>
     </g>
     <g id="text_11">
      <!-- 1,000,000 -->
      <g transform="translate(24.47625 240.158101) scale(0.1 -0.1)">
       <use xlink:href="#DejaVuSans-31"/>
       <use xlink:href="#DejaVuSans-2c" x="63.623047"/>
       <use xlink:href="#DejaVuSans-30" x="95.410156"/>
       <use xlink:href="#DejaVuSans-30" x="159.033203"/>
       <use xlink:href="#DejaVuSans-30" x="222.65625"/>
       <use xlink:href="#DejaVuSans-2c" x="286.279297"/>
       <use xlink:href="#DejaVuSans-30" x="318.066406"/>
       <use xlink:href="#DejaVuSans-30" x="381.689453"/>
       <use xlink:href="#DejaVuSans-30" x="445.3125"/>
      </g>
     </g>
    </g>
    <g id="ytick_6">
     <g id="line2d_23">
      <path d="M 82.37 181.523603 
L 709.2 181.523603 
" clip-path="url(#p9debf81ca9)" style="fill: none; stroke: #b0b0b0; stroke-width: 0.8; stroke-linecap: square"/>
     </g>
     <g id="line2d_24">
      <g>
       <use xlink:href="#mbcc7f192eb" x="82.37" y="181.523603" style="stroke: #000000; stroke-width: 0.8"/>
      </g>
     </g>
     <g id="text_12">
      <!-- 1,250,000 -->
      <g transform="translate(24.47625 185.322822) scale(0.1 -0.1)">
       <use xlink:href="#DejaVuSans-31"/>
       <use xlink:href="#DejaVuSans-2c" x="63.623047"/>
       <use xlink:href="#DejaVuSans-32" x="95.410156"/>
       <use xlink:href="#DejaVuSans-35" x="159.033203"/>
       <use xlink:href="#DejaVuSans-30" x="222.65625"/>
       <use xlink:href="#DejaVuSans-2c" x="286.279297"/>
       <use xlink:href="#DejaVuSans-30" x="318.066406"/>
       <use xlink:href="#DejaVuSans-30" x="381.689453"/>
       <use xlink:href="#DejaVuSans-30" x="445.3125"/>
      </g>
     </g>
    </g>
    <g id="ytick_7">
     <g id="line2d_25">
      <path d="M 82.37 126.688324 
L 709.2 126.688324 
" clip-path="url(#p9debf81ca9)" style="fill: none; stroke: #b0b0b0; stroke-width: 0.8; stroke-linecap: square"/>
     </g>
     <g id="line2d_26">
      <g>
       <use xlink:href="#mbcc7f192eb" x="82.37" y="126.688324" style="stroke: #000000; stroke-width: 0.8"/>
      </g>
     </g>
     <g id="text_13">
      <!-- 1,500,000 -->
      <g transform="translate(24.47625 130.487543) scale(0.1 -0.1)">
       <use xlink:href="#DejaVuSans-31"/>
       <use xlink:href="#DejaVuSans-2c" x="63.623047"/>
       <use xlink:href="#DejaVuSans-35" x="95.410156"/>
       <use xlink:href="#DejaVuSans-30" x="159.033203"/>
       <use xlink:href="#DejaVuSans-30" x="222.65625"/>
       <use xlink:href="#DejaVuSans-2c" x="286.279297"/>
       <use xlink:href="#DejaVuSans-30" x="318.066406"/>
       <use xlink:href="#DejaVuSans-30" x="381.689453"/>
       <use xlink:href="#DejaVuSans-30" x="445.3125"/>
      </g>
     </g>
    </g>
    <g id="ytick_8">
     <g id="line2d_27">
      <path d="M 82.37 71.853045 
L 709.2 71.853045 
" clip-path="url(#p9debf81ca9)" style="fill: none; stroke: #b0b0b0; stroke-width: 0.8; stroke-linecap: square"/>
     </g>
     <g id="line2d_28">
      <g>
       <use xlink:href="#mbcc7f192eb" x="82.37" y="71.853045" style="stroke: #000000; stroke-width: 0.8"/>
      </g>
     </g>
     <g id="text_14">
      <!-- 1,750,000 -->
      <g transform="translate(24.47625 75.652263) scale(0.1 -0.1)">
       <use xlink:href="#DejaVuSans-31"/>
       <use xlink:href="#DejaVuSans-2c" x="63.623047"/>
       <use xlink:href="#DejaVuSans-37" x="95.410156"/>
       <use xlink:href="#DejaVuSans-35" x="159.033203"/>
       <use xlink:href="#DejaVuSans-30" x="222.65625"/>
       <use xlink:href="#DejaVuSans-2c" x="286.279297"/>
       <use xlink:href="#DejaVuSans-30" x="318.066406"/>
       <use xlink:href="#DejaVuSans-30" x="381.689453"/>
       <use xlink:href="#DejaVuSans-30" x="445.3125"/>
      </g>
     </g>
    </g>
    <g id="text_15">
     <!-- Cumulative Payload Mass (kg) -->
     <g transform="translate(18.396562 326.863281) rotate(-90) scale(0.1 -0.1)">
      <defs>
       <path id="DejaVuSans-43" d="M 4122 4306 
L 4122 3641 
Q 3803 3938 3442 4084 
Q 3081 4231 2675 4231 
Q 1875 4231 1450 3742 
Q 1025 3253 1025 2328 
Q 1025 1406 1450 917 
Q 1875 428 2675 428 
Q 3081 428 3442 575 
Q 3803 722 4122 1019 
L 4122 359 
Q 3791 134 3420 21 
Q 3050 -91 2638 -91 
Q 1578 -91 968 557 
Q 359 1206 359 2328 
Q 359 3453 968 4101 
Q 1578 4750 2638 4750 
Q 3056 4750 3426 4639 
Q 3797 4528 4122 4306 
z
" transform="scale(0.015625)"/>
       <path id="DejaVuSans-6d" d="M 3328 2828 
Q 3544 3216 3844 3400 
Q 4144 3584 4550 3584 
Q 5097 3584 5394 3201 
Q 5691 2819 5691 2113 
L 5691 0 
L 5113 0 
L 5113 2094 
Q 5113 2597 4934 2840 
Q 4756 3084 4391 3084 
Q 3944 3084 3684 2787 
Q 3425 2491 3425 1978 
L 3425 0 
L 2847 0 
L 2847 2094 
Q 2847 2600 2669 2842 
Q 2491 3084 2119 3084 
Q 1678 3084 1418 2786 
Q 1159 2488 1159 1978 
L 1159 0 
L 581 0 
L 581 3500 
L 1159 3500 
L 1159 2956 
Q 1356 3278 1631 3431 
Q 1906 3584 2284 3584 
Q 2666 3584 2933 3390 
Q 3200 3197 3328 2828 
z
" transform="scale(0.015625)"/>
       <path id="DejaVuSans-74" d="M 1172 4494 
L 1172 3500 
L 2356 3500 
L 2356 3053 
L 1172 3053 
L 1172 1153 
Q 1172 725 1289 603 
Q 1406 481 1766 481 
L 2356 481 
L 2356 0 
L 1766 0 
Q 1100 0 847 248 
Q 594 497 594 1153 
L 594 3053 
L 172 3053 
L 172 3500 
L 594 3500 
L 594 4494 
L 1172 4494 
z
" transform="scale(0.015625)"/>
       <path id="DejaVuSans-69" d="M 603 3500 
L 1178 3500 
L 1178 0 
L 603 0 
L 603 3500 
z
M 603 4863 
L 1178 4863 
L 1178 4134 
L 603 4134 
L 603 4863 
z
" transform="scale(0.015625)"/>
       <path id="DejaVuSans-50" d="M 1259 4147 
L 1259 2394 
L 2053 2394 
Q 2494 2394 2734 2622 
Q 2975 2850 2975 3272 
Q 2975 3691 2734 3919 
Q 2494 4147 2053 4147 
L 1259 4147 
z
M 628 4666 
L 2053 4666 
Q 2838 4666 3239 4311 
Q 3641 3956 3641 3272 
Q 3641 2581 3239 2228 
Q 2838 1875 2053 1875 
L 1259 1875 
L 1259 0 
L 628 0 
L 628 4666 
z
" transform="scale(0.015625)"/>
       <path id="DejaVuSans-64" d="M 2906 2969 
L 2906 4863 
L 3481 4863 
L 3481 0 
L 2906 0 
L 2906 525 
Q 2725 213 2448 61 
Q 2172 -91 1784 -91 
Q 1150 -91 751 415 
Q 353 922 353 1747 
Q 353 2572 751 3078 
Q 1150 3584 1784 3584 
Q 2172 3584 2448 3432 
Q 2725 3281 2906 2969 
z
M 947 1747 
Q 947 1113 1208 752 
Q 1469 391 1925 391 
Q 2381 391 2643 752 
Q 2906 1113 2906 1747 
Q 2906 2381 2643 2742 
Q 2381 3103 1925 3103 
Q 1469 3103 1208 2742 
Q 947 2381 947 1747 
z
" transform="scale(0.015625)"/>
       <path id="DejaVuSans-73" d="M 2834 3397 
L 2834 2853 
Q 2591 2978 2328 3040 
Q 2066 3103 1784 3103 
Q 1356 3103 1142 2972 
Q 928 2841 928 2578 
Q 928 2378 1081 2264 
Q 1234 2150 1697 2047 
L 1894 2003 
Q 2506 1872 2764 1633 
Q 3022 1394 3022 966 
Q 3022 478 2636 193 
Q 2250 -91 1575 -91 
Q 1294 -91 989 -36 
Q 684 19 347 128 
L 347 722 
Q 666 556 975 473 
Q 1284 391 1588 391 
Q 1994 391 2212 530 
Q 2431 669 2431 922 
Q 2431 1156 2273 1281 
Q 2116 1406 1581 1522 
L 1381 1569 
Q 847 1681 609 1914 
Q 372 2147 372 2553 
Q 372 3047 722 3315 
Q 1072 3584 1716 3584 
Q 2034 3584 2315 3537 
Q 2597 3491 2834 3397 
z
" transform="scale(0.015625)"/>
       <path id="DejaVuSans-28" d="M 1984 4856 
Q 1566 4138 1362 3434 
Q 1159 2731 1159 2009 
Q 1159 1288 1364 580 
Q 1569 -128 1984 -844 
L 1484 -844 
Q 1016 -109 783 600 
Q 550 1309 550 2009 
Q 550 2706 781 3412 
Q 1013 4119 1484 4856 
L 1984 4856 
z
" transform="scale(0.015625)"/>
       <path id="DejaVuSans-6b" d="M 581 4863 
L 1159 4863 
L 1159 1991 
L 2875 3500 
L 3609 3500 
L 1753 1863 
L 3688 0 
L 2938 0 
L 1159 1709 
L 1159 0 
L 581 0 
L 581 4863 
z
" transform="scale(0.015625)"/>
       <path id="DejaVuSans-67" d="M 2906 1791 
Q 2906 2416 2648 2759 
Q 2391 3103 1925 3103 
Q 1463 3103 1205 2759 
Q 947 2416 947 1791 
Q 947 1169 1205 825 
Q 1463 481 1925 481 
Q 2391 481 2648 825 
Q 2906 1169 2906 1791 
z
M 3481 434 
Q 3481 -459 3084 -895 
Q 2688 -1331 1869 -1331 
Q 1566 -1331 1297 -1286 
Q 1028 -1241 775 -1147 
L 775 -588 
Q 1028 -725 1275 -790 
Q 1522 -856 1778 -856 
Q 2344 -856 2625 -561 
Q 2906 -266 2906 331 
L 2906 616 
Q 2728 306 2450 153 
Q 2172 0 1784 0 
Q 1141 0 747 490 
Q 353 981 353 1791 
Q 353 2603 747 3093 
Q 1141 3584 1784 3584 
Q 2172 3584 2450 3431 
Q 2728 3278 2906 2969 
L 2906 3500 
L 3481 3500 
L 3481 434 
z
" transform="scale(0.015625)"/>
       <path id="DejaVuSans-29" d="M 513 4856 
L 1013 4856 
Q 1481 4119 1714 3412 
Q 1947 2706 1947 2009 
Q 1947 1309 1714 600 
Q 1481 -109 1013 -844 
L 513 -844 
Q 928 -128 1133 580 
Q 1338 1288 1338 2009 
Q 1338 2731 1133 3434 
Q 928 4138 513 4856 
z
" transform="scale(0.015625)"/>
      </defs>
      <use xlink:href="#DejaVuSans-43"/>
      <use xlink:href="#DejaVuSans-75" x="69.824219"/>
      <use xlink:href="#DejaVuSans-6d" x="133.203125"/>
      <use xlink:href="#DejaVuSans-75" x="230.615234"/>
      <use xlink:href="#DejaVuSans-6c" x="293.994141"/>
      <use xlink:href="#DejaVuSans-61" x="321.777344"/>
      <use xlink:href="#DejaVuSans-74" x="383.056641"/>
      <use xlink:href="#DejaVuSans-69" x="422.265625"/>
      <use xlink:href="#DejaVuSans-76" x="450.048828"/>
      <use xlink:href="#DejaVuSans-65" x="509.228516"/>
      <use xlink:href="#DejaVuSans-20" x="570.751953"/>
      <use xlink:href="#DejaVuSans-50" x="602.539062"/>
      <use xlink:href="#DejaVuSans-61" x="658.341797"/>
      <use xlink:href="#DejaVuSans-79" x="719.621094"/>
      <use xlink:href="#DejaVuSans-6c" x="778.800781"/>
      <use xlink:href="#DejaVuSans-6f" x="806.583984"/>
      <use xlink:href="#DejaVuSans-61" x="867.765625"/>
      <use xlink:href="#DejaVuSans-64" x="929.044922"/>
      <use xlink:href="#DejaVuSans-20" x="992.521484"/>
      <use xlink:href="#DejaVuSans-4d" x="1024.308594"/>
      <use xlink:href="#DejaVuSans-61" x="1110.587891"/>
      <use xlink:href="#DejaVuSans-73" x="1171.867188"/>
      <use xlink:href="#DejaVuSans-73" x="1223.966797"/>
      <use xlink:href="#DejaVuSans-20" x="1276.066406"/>
      <use xlink:href="#DejaVuSans-28" x="1307.853516"/>
      <use xlink:href="#DejaVuSans-6b" x="1346.867188"/>
      <use xlink:href="#DejaVuSans-67" x="1404.777344"/>
      <use xlink:href="#DejaVuSans-29" x="1468.253906"/>
     </g>
    </g>
   </g>
   <g id="line2d_29">
    <path d="M 106.728679 455.7 
L 127.839534 455.7 
L 127.839534 453.594325 
L 186.300363 453.594325 
L 186.300363 453.048166 
L 226.898161 453.048166 
L 226.898161 451.819856 
L 249.632927 451.819856 
L 249.632927 450.657348 
L 301.598109 450.657348 
L 301.598109 450.657348 
L 324.332876 450.657348 
L 324.332876 449.325947 
L 355.187202 449.325947 
L 355.187202 448.731971 
L 387.66544 448.731971 
L 387.66544 447.927209 
L 390.913264 447.927209 
L 390.913264 445.821534 
L 407.152383 445.821534 
L 407.152383 444.338569 
L 472.10886 444.338569 
L 472.10886 443.61255 
L 488.347979 443.61255 
L 488.347979 443.508363 
L 511.082746 443.508363 
L 511.082746 442.413851 
L 563.047927 442.413851 
L 563.047927 440.308176 
L 566.295751 440.308176 
L 566.295751 439.123734 
L 597.150078 439.123734 
L 597.150078 438.35604 
L 671.850026 438.35604 
L 671.850026 437.872393 
L 684.841321 437.872393 
L 684.841321 435.766718 
L 697.832617 435.766718 
L 697.832617 435.766718 
" clip-path="url(#p9debf81ca9)" style="fill: none; stroke: #808080; stroke-width: 1.5; stroke-linecap: square"/>
   </g>
   <g id="line2d_30">
    <path d="M 106.728679 455.7 
L 118.096062 455.7 
L 118.096062 455.7 
L 155.446036 455.7 
L 155.446036 454.772187 
L 165.189508 454.772187 
L 165.189508 454.498011 
L 191.172098 454.498011 
L 191.172098 454.026427 
L 210.659041 454.026427 
L 210.659041 452.690201 
L 249.632927 452.690201 
L 249.632927 450.584526 
L 254.504663 450.584526 
L 254.504663 450.003931 
L 280.487254 450.003931 
L 280.487254 449.924529 
L 317.837228 449.924529 
L 317.837228 449.134901 
L 335.700259 449.134901 
L 335.700259 447.717957 
L 356.811114 447.717957 
L 356.811114 446.537025 
L 397.408912 446.537025 
L 397.408912 445.945462 
L 434.758886 445.945462 
L 434.758886 444.393623 
L 439.630622 444.393623 
L 439.630622 442.287949 
L 460.741477 442.287949 
L 460.741477 441.01577 
L 515.954482 441.01577 
L 515.954482 439.467222 
L 561.424016 439.467222 
L 561.424016 438.809199 
L 623.132668 438.809199 
L 623.132668 437.646691 
L 652.363083 437.646691 
L 652.363083 436.769326 
L 655.610907 436.769326 
L 655.610907 436.220973 
L 684.841321 436.220973 
L 684.841321 435.255872 
L 697.832617 435.255872 
L 697.832617 435.255872 
" clip-path="url(#p9debf81ca9)" style="fill: none; stroke: #90ee90; stroke-width: 1.5; stroke-linecap: square"/>
   </g>
   <g id="line2d_31">
    <path d="M 106.728679 455.7 
L 122.967798 455.7 
L 122.967798 453.594325 
L 191.172098 453.594325 
L 191.172098 452.530521 
L 204.163394 452.530521 
L 204.163394 449.886364 
L 269.11987 449.886364 
L 269.11987 448.468323 
L 306.469845 448.468323 
L 306.469845 447.921067 
L 338.948083 447.921067 
L 338.948083 444.933641 
L 369.802409 444.933641 
L 369.802409 444.012409 
L 390.913264 444.012409 
L 390.913264 443.200846 
L 439.630622 443.200846 
L 439.630622 442.703381 
L 459.117565 442.703381 
L 459.117565 441.277664 
L 616.637021 441.277664 
L 616.637021 437.855942 
L 655.610907 437.855942 
L 655.610907 437.281926 
L 675.09785 437.281926 
L 675.09785 435.75619 
L 697.832617 435.75619 
L 697.832617 435.75619 
" clip-path="url(#p9debf81ca9)" style="fill: none; stroke: #add8e6; stroke-width: 1.5; stroke-linecap: square"/>
   </g>
   <g id="line2d_32">
    <path d="M 106.728679 455.7 
L 116.47215 455.7 
L 116.47215 452.278279 
L 135.959093 452.278279 
L 135.959093 449.635218 
L 152.198212 449.635218 
L 152.198212 446.213497 
L 183.052539 446.213497 
L 183.052539 442.791775 
L 213.906865 442.791775 
L 213.906865 442.358138 
L 231.769896 442.358138 
L 231.769896 438.936416 
L 288.606813 438.936416 
L 288.606813 435.514695 
L 350.315466 435.514695 
L 350.315466 432.766351 
L 358.435026 432.766351 
L 358.435026 429.344629 
L 373.050233 429.344629 
L 373.050233 425.964583 
L 400.656736 425.964583 
L 400.656736 425.019003 
L 433.134974 425.019003 
L 433.134974 423.812627 
L 462.365389 423.812627 
L 462.365389 420.537425 
L 480.22842 420.537425 
L 480.22842 417.150799 
L 499.715363 417.150799 
L 499.715363 416.464261 
L 506.21101 416.464261 
L 506.21101 413.04254 
L 559.800104 413.04254 
L 559.800104 409.620818 
L 579.287047 409.620818 
L 579.287047 406.199097 
L 589.030518 406.199097 
L 589.030518 402.777375 
L 608.517461 402.777375 
L 608.517461 401.831796 
L 626.380492 401.831796 
L 626.380492 399.090032 
L 634.500052 399.090032 
L 634.500052 398.828577 
L 640.995699 398.828577 
L 640.995699 395.406856 
L 658.858731 395.406856 
L 658.858731 394.754974 
L 670.226114 394.754974 
L 670.226114 393.219586 
L 679.969585 393.219586 
L 679.969585 393.219586 
L 699.456528 393.219586 
L 699.456528 393.219586 
" clip-path="url(#p9debf81ca9)" style="fill: none; stroke: #ffc0cb; stroke-width: 1.5; stroke-linecap: square"/>
   </g>
   <g id="line2d_33">
    <path d="M 106.728679 455.7 
L 118.096062 455.7 
L 118.096062 454.932306 
L 137.583005 454.932306 
L 137.583005 451.510585 
L 144.078653 451.510585 
L 144.078653 450.413879 
L 161.941684 450.413879 
L 161.941684 446.992158 
L 181.428627 446.992158 
L 181.428627 443.570436 
L 207.411218 443.570436 
L 207.411218 440.148715 
L 218.778601 440.148715 
L 218.778601 436.726993 
L 223.650337 436.726993 
L 223.650337 433.305272 
L 239.889456 433.305272 
L 239.889456 429.88355 
L 262.624223 429.88355 
L 262.624223 426.461829 
L 288.606813 426.461829 
L 288.606813 423.610395 
L 298.350285 423.610395 
L 298.350285 420.188673 
L 306.469845 420.188673 
L 306.469845 416.766952 
L 314.589404 416.766952 
L 314.589404 413.34523 
L 324.332876 413.34523 
L 324.332876 409.958603 
L 342.195907 409.958603 
L 342.195907 406.536882 
L 355.187202 406.536882 
L 355.187202 405.806915 
L 360.058938 405.806915 
L 360.058938 404.271527 
L 377.921969 404.271527 
L 377.921969 403.321561 
L 399.032824 403.321561 
L 399.032824 403.321561 
L 496.467539 403.321561 
L 496.467539 402.83901 
L 522.45013 402.83901 
L 522.45013 399.930547 
L 525.697953 399.930547 
L 525.697953 397.184615 
L 616.637021 397.184615 
L 616.637021 394.333181 
L 619.884845 394.333181 
L 619.884845 390.903783 
L 637.747876 390.903783 
L 637.747876 390.766914 
L 650.739171 390.766914 
L 650.739171 387.586467 
L 662.106554 387.586467 
L 662.106554 387.515182 
L 676.721762 387.515182 
L 676.721762 384.09346 
L 678.345674 384.09346 
L 678.345674 383.106425 
L 681.593497 383.106425 
L 681.593497 382.450815 
L 697.832617 382.450815 
L 697.832617 382.450815 
" clip-path="url(#p9debf81ca9)" style="fill: none; stroke: #800080; stroke-width: 1.5; stroke-linecap: square"/>
   </g>
   <g id="line2d_34">
    <path d="M 106.728679 455.7 
L 114.848238 455.7 
L 114.848238 452.519554 
L 126.215622 452.519554 
L 126.215622 452.519554 
L 135.959093 452.519554 
L 135.959093 449.339108 
L 155.446036 449.339108 
L 155.446036 448.85546 
L 158.69386 448.85546 
L 158.69386 448.85546 
L 160.317772 448.85546 
L 160.317772 445.675014 
L 189.548187 445.675014 
L 189.548187 442.691975 
L 196.043834 442.691975 
L 196.043834 439.456694 
L 205.787306 439.456694 
L 205.787306 436.407852 
L 215.530777 436.407852 
L 215.530777 433.301982 
L 231.769896 433.301982 
L 231.769896 429.737689 
L 252.880751 429.737689 
L 252.880751 429.737689 
L 264.248135 429.737689 
L 264.248135 426.886254 
L 278.863342 426.886254 
L 278.863342 426.886254 
L 285.35899 426.886254 
L 285.35899 423.321961 
L 295.102461 423.321961 
L 295.102461 420.470526 
L 298.350285 420.470526 
L 298.350285 416.906233 
L 309.717668 416.906233 
L 309.717668 413.34194 
L 321.085052 413.34194 
L 321.085052 409.777647 
L 322.708964 409.777647 
L 322.708964 406.213354 
L 329.204611 406.213354 
L 329.204611 402.649061 
L 340.571995 402.649061 
L 340.571995 402.649061 
L 363.306762 402.649061 
L 363.306762 401.749762 
L 377.921969 401.749762 
L 377.921969 398.185469 
L 379.545881 398.185469 
L 379.545881 397.308104 
L 381.169793 397.308104 
L 381.169793 397.154566 
L 397.408912 397.154566 
L 397.408912 396.386872 
L 410.400207 396.386872 
L 410.400207 392.822579 
L 416.895855 392.822579 
L 416.895855 389.729869 
L 423.391503 389.729869 
L 423.391503 389.144667 
L 426.639326 389.144667 
L 426.639326 385.580374 
L 434.758886 385.580374 
L 434.758886 382.487664 
L 438.00671 382.487664 
L 438.00671 378.923371 
L 455.869741 378.923371 
L 455.869741 378.774438 
L 465.613212 378.774438 
L 465.613212 375.26498 
L 468.861036 375.26498 
L 468.861036 372.17227 
L 480.22842 372.17227 
L 480.22842 368.607977 
L 494.843627 368.607977 
L 494.843627 364.944981 
L 499.715363 364.944981 
L 499.715363 361.830337 
L 507.834922 361.830337 
L 507.834922 358.320879 
L 517.578394 358.320879 
L 517.578394 355.702385 
L 530.569689 355.702385 
L 530.569689 352.039388 
L 538.689249 352.039388 
L 538.689249 348.507996 
L 556.55228 348.507996 
L 556.55228 345.656561 
L 556.55228 345.656561 
L 556.55228 342.125169 
L 561.424016 342.125169 
L 561.424016 340.513012 
L 572.791399 340.513012 
L 572.791399 339.525977 
L 580.910959 339.525977 
L 580.910959 335.862981 
L 593.902254 335.862981 
L 593.902254 332.265786 
L 600.397902 332.265786 
L 600.397902 331.443257 
L 603.645725 331.443257 
L 603.645725 330.456222 
L 618.260933 330.456222 
L 618.260933 329.008571 
L 636.123964 329.008571 
L 636.123964 327.802194 
L 640.995699 327.802194 
L 640.995699 327.028359 
L 660.482642 327.028359 
L 660.482642 325.712312 
L 665.354378 325.712312 
L 665.354378 325.492971 
L 673.473938 325.492971 
L 673.473938 325.010421 
L 673.473938 325.010421 
L 673.473938 324.111122 
L 675.09785 324.111122 
L 675.09785 320.448126 
L 692.960881 320.448126 
L 692.960881 316.785129 
L 696.208705 316.785129 
L 696.208705 316.697392 
L 697.832617 316.697392 
L 697.832617 316.697392 
" clip-path="url(#p9debf81ca9)" style="fill: none; stroke: #ffa500; stroke-width: 1.5; stroke-linecap: square"/>
   </g>
   <g id="line2d_35">
    <path d="M 106.728679 455.7 
L 121.343886 455.7 
L 121.343886 454.383953 
L 129.463446 454.383953 
L 129.463446 453.561424 
L 134.335181 453.561424 
L 134.335181 452.606852 
L 135.959093 452.606852 
L 135.959093 449.316735 
L 147.326477 449.316735 
L 147.326477 445.500199 
L 155.446036 445.500199 
L 155.446036 442.166214 
L 158.69386 442.166214 
L 158.69386 438.547086 
L 166.81342 438.547086 
L 166.81342 437.637698 
L 174.932979 437.637698 
L 174.932979 433.886965 
L 183.052539 433.886965 
L 183.052539 430.399441 
L 184.676451 430.399441 
L 184.676451 429.199645 
L 199.291658 429.199645 
L 199.291658 425.843726 
L 204.163394 425.843726 
L 204.163394 422.992291 
L 205.787306 422.992291 
L 205.787306 419.504768 
L 215.530777 419.504768 
L 215.530777 418.188721 
L 225.274249 418.188721 
L 225.274249 417.56316 
L 228.522073 417.56316 
L 228.522073 412.474446 
L 239.889456 412.474446 
L 239.889456 408.657911 
L 248.009016 408.657911 
L 248.009016 404.841375 
L 262.624223 404.841375 
L 262.624223 403.615697 
L 282.111166 403.615697 
L 282.111166 400.259778 
L 295.102461 400.259778 
L 295.102461 397.167068 
L 296.726373 397.167068 
L 296.726373 396.26777 
L 301.598109 396.26777 
L 301.598109 394.863986 
L 306.469845 394.863986 
L 306.469845 391.047451 
L 316.213316 391.047451 
L 316.213316 387.559927 
L 322.708964 387.559927 
L 322.708964 383.743392 
L 330.828523 383.743392 
L 330.828523 380.212 
L 332.452435 380.212 
L 332.452435 378.764348 
L 334.076347 378.764348 
L 334.076347 375.912914 
L 343.819819 375.912914 
L 343.819819 374.925879 
L 350.315466 374.925879 
L 350.315466 371.328684 
L 356.811114 371.328684 
L 356.811114 367.797293 
L 358.435026 367.797293 
L 358.435026 367.072589 
L 369.802409 367.072589 
L 369.802409 363.475395 
L 369.802409 363.475395 
L 379.545881 363.475395 
L 379.545881 362.470813 
L 386.041528 362.470813 
L 386.041528 359.290367 
L 387.66544 359.290367 
L 387.66544 355.473831 
L 400.656736 355.473831 
L 400.656736 355.000054 
L 410.400207 355.000054 
L 410.400207 351.731872 
L 415.271943 351.731872 
L 415.271943 348.20048 
L 425.015415 348.20048 
L 425.015415 344.537483 
L 431.511062 344.537483 
L 431.511062 341.90539 
L 438.00671 341.90539 
L 438.00671 338.373998 
L 444.502358 338.373998 
L 444.502358 334.842606 
L 446.126269 334.842606 
L 446.126269 332.824667 
L 454.245829 332.824667 
L 454.245829 331.714143 
L 460.741477 331.714143 
L 460.741477 328.182751 
L 462.365389 328.182751 
L 462.365389 325.550658 
L 467.237124 325.550658 
L 467.237124 322.019266 
L 476.980596 322.019266 
L 476.980596 318.487874 
L 485.100155 318.487874 
L 485.100155 315.131955 
L 491.595803 315.131955 
L 491.595803 312.28052 
L 493.219715 312.28052 
L 493.219715 308.749128 
L 501.339275 308.749128 
L 501.339275 305.217736 
L 506.21101 305.217736 
L 506.21101 301.861817 
L 514.33057 301.861817 
L 514.33057 298.330425 
L 519.202306 298.330425 
L 519.202306 294.974506 
L 525.697953 294.974506 
L 525.697953 291.443114 
L 532.193601 291.443114 
L 532.193601 287.911722 
L 538.689249 287.911722 
L 538.689249 284.38033 
L 540.313161 284.38033 
L 540.313161 281.024411 
L 548.43272 281.024411 
L 548.43272 277.493019 
L 556.55228 277.493019 
L 556.55228 273.961627 
L 563.047927 273.961627 
L 563.047927 270.605708 
L 569.543575 270.605708 
L 569.543575 266.502274 
L 577.663135 266.502274 
L 577.663135 262.970882 
L 582.53487 262.970882 
L 582.53487 259.614963 
L 584.158782 259.614963 
L 584.158782 255.930033 
L 595.526166 255.930033 
L 595.526166 252.398641 
L 597.150078 252.398641 
L 597.150078 248.71371 
L 605.269637 248.71371 
L 605.269637 245.028779 
L 611.765285 245.028779 
L 611.765285 241.343848 
L 615.013109 241.343848 
L 615.013109 239.254624 
L 618.260933 239.254624 
L 618.260933 238.355326 
L 628.004404 238.355326 
L 628.004404 234.670395 
L 628.004404 234.670395 
L 631.252228 234.670395 
L 631.252228 231.139003 
L 634.500052 231.139003 
L 634.500052 227.454072 
L 644.243523 227.454072 
L 644.243523 223.769141 
L 649.115259 223.769141 
L 649.115259 223.593668 
L 652.363083 223.593668 
L 652.363083 219.908738 
L 658.858731 219.908738 
L 658.858731 216.223807 
L 660.482642 216.223807 
L 660.482642 212.692415 
L 678.345674 212.692415 
L 678.345674 209.007484 
L 684.841321 209.007484 
L 684.841321 205.322553 
L 686.465233 205.322553 
L 686.465233 204.532925 
L 694.584793 204.532925 
L 694.584793 199.455178 
L 697.832617 199.455178 
L 697.832617 199.455178 
" clip-path="url(#p9debf81ca9)" style="fill: none; stroke: #0000ff; stroke-width: 1.5; stroke-linecap: square"/>
   </g>
   <g id="line2d_36">
    <path d="M 106.728679 455.7 
L 109.976503 455.7 
L 109.976503 451.620255 
L 116.47215 451.620255 
L 116.47215 447.869522 
L 127.839534 447.869522 
L 127.839534 444.206525 
L 129.463446 444.206525 
L 129.463446 440.455792 
L 134.335181 440.455792 
L 134.335181 437.604358 
L 144.078653 437.604358 
L 144.078653 433.941361 
L 152.198212 433.941361 
L 152.198212 426.527631 
L 153.822124 426.527631 
L 153.822124 425.710366 
L 168.437332 425.710366 
L 168.437332 425.338803 
L 171.685155 425.338803 
L 171.685155 421.675806 
L 179.804715 421.675806 
L 179.804715 417.589262 
L 187.924275 417.589262 
L 187.924275 416.711897 
L 192.79601 416.711897 
L 192.79601 413.0489 
L 196.043834 413.0489 
L 196.043834 409.210431 
L 202.539482 409.210431 
L 202.539482 405.459698 
L 209.03513 405.459698 
L 209.03513 398.85753 
L 218.778601 398.85753 
L 218.778601 395.106797 
L 220.402513 395.106797 
L 220.402513 391.356064 
L 228.522073 391.356064 
L 228.522073 387.605331 
L 233.393808 387.605331 
L 233.393808 384.030071 
L 236.641632 384.030071 
L 236.641632 383.433243 
L 241.513368 383.433243 
L 241.513368 379.68251 
L 243.13728 379.68251 
L 243.13728 375.931777 
L 251.256839 375.931777 
L 251.256839 374.835072 
L 252.880751 374.835072 
L 252.880751 371.084338 
L 256.128575 371.084338 
L 256.128575 367.421342 
L 261.000311 367.421342 
L 261.000311 363.670609 
L 264.248135 363.670609 
L 264.248135 359.985678 
L 264.248135 359.985678 
L 269.11987 359.985678 
L 269.11987 356.234945 
L 270.743782 356.234945 
L 270.743782 355.971736 
L 273.991606 355.971736 
L 273.991606 352.221002 
L 280.487254 352.221002 
L 280.487254 348.470269 
L 282.111166 348.470269 
L 282.111166 344.719536 
L 290.230725 344.719536 
L 290.230725 340.968803 
L 298.350285 340.968803 
L 298.350285 336.867124 
L 304.845933 336.867124 
L 304.845933 336.538113 
L 306.469845 336.538113 
L 306.469845 332.787379 
L 311.34158 332.787379 
L 311.34158 329.036646 
L 314.589404 329.036646 
L 314.589404 325.285913 
L 317.837228 325.285913 
L 317.837228 321.710653 
L 322.708964 321.710653 
L 322.708964 317.95992 
L 324.332876 317.95992 
L 324.332876 314.38466 
L 330.828523 314.38466 
L 330.828523 310.633927 
L 338.948083 310.633927 
L 338.948083 306.883193 
L 340.571995 306.883193 
L 340.571995 303.13246 
L 347.067642 303.13246 
L 347.067642 298.866276 
L 353.56329 298.866276 
L 353.56329 295.115542 
L 360.058938 295.115542 
L 360.058938 291.540282 
L 364.930674 291.540282 
L 364.930674 284.302025 
L 382.793705 284.302025 
L 382.793705 280.726765 
L 384.417617 280.726765 
L 384.417617 279.63006 
L 389.289352 279.63006 
L 389.289352 275.967063 
L 390.913264 275.967063 
L 390.913264 272.391803 
L 392.537176 272.391803 
L 392.537176 271.295097 
L 395.785 271.295097 
L 395.785 267.544364 
L 405.528472 267.544364 
L 405.528472 263.969104 
L 413.648031 263.969104 
L 413.648031 263.036904 
L 444.502358 263.036904 
L 444.502358 259.286171 
L 446.126269 259.286171 
L 446.126269 251.916309 
L 454.245829 251.916309 
L 454.245829 248.165576 
L 457.493653 248.165576 
L 457.493653 243.568845 
L 467.237124 243.568845 
L 467.237124 239.949716 
L 470.484948 239.949716 
L 470.484948 234.613147 
L 475.356684 234.613147 
L 475.356684 234.284135 
L 483.476244 234.284135 
L 483.476244 230.621138 
L 496.467539 230.621138 
L 496.467539 226.958142 
L 501.339275 226.958142 
L 501.339275 219.632148 
L 509.458834 219.632148 
L 509.458834 215.969152 
L 517.578394 215.969152 
L 517.578394 213.117717 
L 520.826218 213.117717 
L 520.826218 211.472659 
L 522.45013 211.472659 
L 522.45013 207.809662 
L 528.945777 207.809662 
L 528.945777 207.458716 
L 533.817513 207.458716 
L 533.817513 203.883456 
L 541.937073 203.883456 
L 541.937073 200.308196 
L 546.808808 200.308196 
L 546.808808 197.456761 
L 561.424016 197.456761 
L 561.424016 197.213731 
L 572.791399 197.213731 
L 572.791399 195.883428 
L 574.415311 195.883428 
L 574.415311 188.557434 
L 579.287047 188.557434 
L 579.287047 184.982174 
L 582.53487 184.982174 
L 582.53487 184.33424 
L 587.406606 184.33424 
L 587.406606 180.583507 
L 592.278342 180.583507 
L 592.278342 176.920511 
L 598.77399 176.920511 
L 598.77399 169.594517 
L 608.517461 169.594517 
L 608.517461 168.988697 
L 611.765285 168.988697 
L 611.765285 165.237964 
L 615.013109 165.237964 
L 615.013109 161.662704 
L 618.260933 161.662704 
L 618.260933 157.05654 
L 623.132668 157.05654 
L 623.132668 149.642811 
L 628.004404 149.642811 
L 628.004404 148.765446 
L 629.628316 148.765446 
L 629.628316 144.159283 
L 634.500052 144.159283 
L 634.500052 140.320813 
L 639.371788 140.320813 
L 639.371788 136.745553 
L 640.995699 136.745553 
L 640.995699 132.99482 
L 644.243523 132.99482 
L 644.243523 129.15635 
L 649.115259 129.15635 
L 649.115259 121.786489 
L 655.610907 121.786489 
L 655.610907 117.948019 
L 657.234819 117.948019 
L 657.234819 112.837371 
L 662.106554 112.837371 
L 662.106554 109.086638 
L 670.226114 109.086638 
L 670.226114 105.423641 
L 676.721762 105.423641 
L 676.721762 103.723748 
L 683.217409 103.723748 
L 683.217409 103.548275 
L 686.465233 103.548275 
L 686.465233 99.929146 
L 696.208705 99.929146 
L 696.208705 95.915204 
L 699.456528 95.915204 
L 699.456528 95.915204 
L 699.456528 92.296075 
L 699.456528 92.296075 
" clip-path="url(#p9debf81ca9)" style="fill: none; stroke: #008000; stroke-width: 1.5; stroke-linecap: square"/>
   </g>
   <g id="line2d_37">
    <path d="M 106.728679 455.7 
L 111.600415 455.7 
L 111.600415 454.603294 
L 114.848238 454.603294 
L 114.848238 450.764825 
L 118.096062 450.764825 
L 118.096062 447.145696 
L 121.343886 447.145696 
L 121.343886 447.145696 
L 121.343886 443.526568 
L 126.215622 443.526568 
L 126.215622 439.90744 
L 127.839534 439.90744 
L 127.839534 439.468757 
L 129.463446 439.468757 
L 129.463446 438.916676 
L 139.206917 438.916676 
L 139.206917 432.160969 
L 144.078653 432.160969 
L 144.078653 428.410236 
L 148.950389 428.410236 
L 148.950389 424.791108 
L 153.822124 424.791108 
L 153.822124 423.453127 
L 157.069948 423.453127 
L 157.069948 419.79013 
L 161.941684 419.79013 
L 161.941684 415.84199 
L 168.437332 415.84199 
L 168.437332 412.222862 
L 173.309067 412.222862 
L 173.309067 404.853 
L 179.804715 404.853 
L 179.804715 401.233872 
L 184.676451 401.233872 
L 184.676451 397.483139 
L 189.548187 397.483139 
L 189.548187 393.732406 
L 192.79601 393.732406 
L 192.79601 390.047475 
L 199.291658 390.047475 
L 199.291658 390.047475 
L 199.291658 386.428346 
L 205.787306 386.428346 
L 205.787306 382.809218 
L 220.402513 382.809218 
L 220.402513 382.642957 
L 222.026425 382.642957 
L 222.026425 379.023829 
L 223.650337 379.023829 
L 223.650337 376.172394 
L 225.274249 376.172394 
L 225.274249 376.172394 
L 225.274249 372.421661 
L 230.145984 372.421661 
L 230.145984 368.670928 
L 243.13728 368.670928 
L 243.13728 365.271141 
L 251.256839 365.271141 
L 251.256839 361.739749 
L 252.880751 361.739749 
L 252.880751 358.888314 
L 257.752487 358.888314 
L 257.752487 355.488527 
L 261.000311 355.488527 
L 261.000311 351.957135 
L 262.624223 351.957135 
L 262.624223 348.557348 
L 272.367694 348.557348 
L 272.367694 344.938219 
L 273.991606 344.938219 
L 273.991606 341.538432 
L 285.35899 341.538432 
L 285.35899 340.875802 
L 291.854637 340.875802 
L 291.854637 337.34441 
L 296.726373 337.34441 
L 296.726373 330.19389 
L 298.350285 330.19389 
L 298.350285 326.443157 
L 303.222021 326.443157 
L 303.222021 322.911765 
L 306.469845 322.911765 
L 306.469845 319.254252 
L 311.34158 319.254252 
L 311.34158 315.72286 
L 316.213316 315.72286 
L 316.213316 308.912318 
L 321.085052 308.912318 
L 321.085052 302.101776 
L 322.708964 302.101776 
L 322.708964 298.570384 
L 325.956788 298.570384 
L 325.956788 295.291235 
L 334.076347 295.291235 
L 334.076347 291.540502 
L 337.324171 291.540502 
L 337.324171 288.140714 
L 338.948083 288.140714 
L 338.948083 284.389981 
L 343.819819 284.389981 
L 343.819819 280.551512 
L 343.819819 280.551512 
L 345.443731 280.551512 
L 345.443731 277.151724 
L 348.691554 277.151724 
L 348.691554 276.19759 
L 350.315466 276.19759 
L 350.315466 272.797803 
L 355.187202 272.797803 
L 355.187202 269.04707 
L 356.811114 269.04707 
L 356.811114 265.647283 
L 361.68285 265.647283 
L 361.68285 264.2435 
L 363.306762 264.2435 
L 363.306762 260.96435 
L 366.554585 260.96435 
L 366.554585 257.213617 
L 371.426321 257.213617 
L 371.426321 250.183734 
L 377.921969 250.183734 
L 377.921969 246.904584 
L 379.545881 246.904584 
L 379.545881 243.373192 
L 387.66544 243.373192 
L 387.66544 239.973405 
L 387.66544 239.973405 
L 390.913264 239.973405 
L 390.913264 233.722183 
L 395.785 233.722183 
L 395.785 227.043246 
L 400.656736 227.043246 
L 400.656736 226.20975 
L 402.280648 226.20975 
L 402.280648 222.809963 
L 412.024119 222.809963 
L 412.024119 219.278571 
L 420.143679 219.278571 
L 420.143679 218.401206 
L 425.015415 218.401206 
L 425.015415 211.879317 
L 429.88715 211.879317 
L 429.88715 208.040848 
L 434.758886 208.040848 
L 434.758886 207.295088 
L 436.382798 207.295088 
L 436.382798 207.093294 
L 441.254534 207.093294 
L 441.254534 203.561902 
L 442.878446 203.561902 
L 442.878446 199.723433 
L 447.750181 199.723433 
L 447.750181 196.192041 
L 449.374093 196.192041 
L 449.374093 193.108104 
L 450.998005 193.108104 
L 450.998005 190.25667 
L 455.869741 190.25667 
L 455.869741 186.725278 
L 467.237124 186.725278 
L 467.237124 183.482539 
L 472.10886 183.482539 
L 472.10886 176.112677 
L 478.604508 176.112677 
L 478.604508 172.274208 
L 485.100155 172.274208 
L 485.100155 167.341226 
L 488.347979 167.341226 
L 488.347979 166.836741 
L 491.595803 166.836741 
L 491.595803 163.026786 
L 493.219715 163.026786 
L 493.219715 159.495394 
L 494.843627 159.495394 
L 494.843627 155.964002 
L 498.091451 155.964002 
L 498.091451 152.125533 
L 499.715363 152.125533 
L 499.715363 148.594141 
L 504.587098 148.594141 
L 504.587098 141.224279 
L 507.834922 141.224279 
L 507.834922 137.692887 
L 509.458834 137.692887 
L 509.458834 133.854418 
L 519.202306 133.854418 
L 519.202306 132.143557 
L 520.826218 132.143557 
L 520.826218 128.305087 
L 522.45013 128.305087 
L 522.45013 127.208382 
L 528.945777 127.208382 
L 528.945777 123.67699 
L 530.569689 123.67699 
L 530.569689 119.83852 
L 533.817513 119.83852 
L 533.817513 116.307128 
L 538.689249 116.307128 
L 538.689249 115.983161 
L 540.313161 115.983161 
L 540.313161 112.451769 
L 541.937073 112.451769 
L 541.937073 108.6133 
L 546.808808 108.6133 
L 546.808808 105.081908 
L 553.304456 105.081908 
L 553.304456 101.550516 
L 559.800104 101.550516 
L 559.800104 98.019124 
L 561.424016 98.019124 
L 561.424016 94.487732 
L 569.543575 94.487732 
L 569.543575 90.978274 
L 571.167487 90.978274 
L 571.167487 87.735535 
L 574.415311 87.735535 
L 574.415311 84.204143 
L 579.287047 84.204143 
L 579.287047 77.141359 
L 584.158782 77.141359 
L 584.158782 73.609967 
L 587.406606 73.609967 
L 587.406606 72.271986 
L 589.030518 72.271986 
L 589.030518 68.740594 
L 590.65443 68.740594 
L 590.65443 65.209202 
L 593.902254 65.209202 
L 593.902254 61.67781 
L 595.526166 61.67781 
L 595.526166 58.020297 
L 598.77399 58.020297 
L 598.77399 54.488905 
L 608.517461 54.488905 
L 608.517461 47.3 
L 610.141373 47.3 
L 610.141373 47.3 
" clip-path="url(#p9debf81ca9)" style="fill: none; stroke: #ff0000; stroke-width: 1.5; stroke-linecap: square"/>
   </g>
   <g id="patch_3">
    <path d="M 82.37 476.12 
L 82.37 26.88 
" style="fill: none; stroke: #000000; stroke-width: 0.8; stroke-linejoin: miter; stroke-linecap: square"/>
   </g>
   <g id="patch_4">
    <path d="M 709.2 476.12 
L 709.2 26.88 
" style="fill: none; stroke: #000000; stroke-width: 0.8; stroke-linejoin: miter; stroke-linecap: square"/>
   </g>
   <g id="patch_5">
    <path d="M 82.37 476.12 
L 709.2 476.12 
" style="fill: none; stroke: #000000; stroke-width: 0.8; stroke-linejoin: miter; stroke-linecap: square"/>
   </g>
   <g id="patch_6">
    <path d="M 82.37 26.88 
L 709.2 26.88 
" style="fill: none; stroke: #000000; stroke-width: 0.8; stroke-linejoin: miter; stroke-linecap: square"/>
   </g>
   <g id="text_16">
    <!-- Cumulative Payload Mass to Orbit By Year -->
    <g transform="translate(270.179688 20.88) scale(0.12 -0.12)">
     <defs>
      <path id="DejaVuSans-4f" d="M 2522 4238 
Q 1834 4238 1429 3725 
Q 1025 3213 1025 2328 
Q 1025 1447 1429 934 
Q 1834 422 2522 422 
Q 3209 422 3611 934 
Q 4013 1447 4013 2328 
Q 4013 3213 3611 3725 
Q 3209 4238 2522 4238 
z
M 2522 4750 
Q 3503 4750 4090 4092 
Q 4678 3434 4678 2328 
Q 4678 1225 4090 567 
Q 3503 -91 2522 -91 
Q 1538 -91 948 565 
Q 359 1222 359 2328 
Q 359 3434 948 4092 
Q 1538 4750 2522 4750 
z
" transform="scale(0.015625)"/>
      <path id="DejaVuSans-62" d="M 3116 1747 
Q 3116 2381 2855 2742 
Q 2594 3103 2138 3103 
Q 1681 3103 1420 2742 
Q 1159 2381 1159 1747 
Q 1159 1113 1420 752 
Q 1681 391 2138 391 
Q 2594 391 2855 752 
Q 3116 1113 3116 1747 
z
M 1159 2969 
Q 1341 3281 1617 3432 
Q 1894 3584 2278 3584 
Q 2916 3584 3314 3078 
Q 3713 2572 3713 1747 
Q 3713 922 3314 415 
Q 2916 -91 2278 -91 
Q 1894 -91 1617 61 
Q 1341 213 1159 525 
L 1159 0 
L 581 0 
L 581 4863 
L 1159 4863 
L 1159 2969 
z
" transform="scale(0.015625)"/>
      <path id="DejaVuSans-42" d="M 1259 2228 
L 1259 519 
L 2272 519 
Q 2781 519 3026 730 
Q 3272 941 3272 1375 
Q 3272 1813 3026 2020 
Q 2781 2228 2272 2228 
L 1259 2228 
z
M 1259 4147 
L 1259 2741 
L 2194 2741 
Q 2656 2741 2882 2914 
Q 3109 3088 3109 3444 
Q 3109 3797 2882 3972 
Q 2656 4147 2194 4147 
L 1259 4147 
z
M 628 4666 
L 2241 4666 
Q 2963 4666 3353 4366 
Q 3744 4066 3744 3513 
Q 3744 3084 3544 2831 
Q 3344 2578 2956 2516 
Q 3422 2416 3680 2098 
Q 3938 1781 3938 1306 
Q 3938 681 3513 340 
Q 3088 0 2303 0 
L 628 0 
L 628 4666 
z
" transform="scale(0.015625)"/>
      <path id="DejaVuSans-59" d="M -13 4666 
L 666 4666 
L 1959 2747 
L 3244 4666 
L 3922 4666 
L 2272 2222 
L 2272 0 
L 1638 0 
L 1638 2222 
L -13 4666 
z
" transform="scale(0.015625)"/>
     </defs>
     <use xlink:href="#DejaVuSans-43"/>
     <use xlink:href="#DejaVuSans-75" x="69.824219"/>
     <use xlink:href="#DejaVuSans-6d" x="133.203125"/>
     <use xlink:href="#DejaVuSans-75" x="230.615234"/>
     <use xlink:href="#DejaVuSans-6c" x="293.994141"/>
     <use xlink:href="#DejaVuSans-61" x="321.777344"/>
     <use xlink:href="#DejaVuSans-74" x="383.056641"/>
     <use xlink:href="#DejaVuSans-69" x="422.265625"/>
     <use xlink:href="#DejaVuSans-76" x="450.048828"/>
     <use xlink:href="#DejaVuSans-65" x="509.228516"/>
     <use xlink:href="#DejaVuSans-20" x="570.751953"/>
     <use xlink:href="#DejaVuSans-50" x="602.539062"/>
     <use xlink:href="#DejaVuSans-61" x="658.341797"/>
     <use xlink:href="#DejaVuSans-79" x="719.621094"/>
     <use xlink:href="#DejaVuSans-6c" x="778.800781"/>
     <use xlink:href="#DejaVuSans-6f" x="806.583984"/>
     <use xlink:href="#DejaVuSans-61" x="867.765625"/>
     <use xlink:href="#DejaVuSans-64" x="929.044922"/>
     <use xlink:href="#DejaVuSans-20" x="992.521484"/>
     <use xlink:href="#DejaVuSans-4d" x="1024.308594"/>
     <use xlink:href="#DejaVuSans-61" x="1110.587891"/>
     <use xlink:href="#DejaVuSans-73" x="1171.867188"/>
     <use xlink:href="#DejaVuSans-73" x="1223.966797"/>
     <use xlink:href="#DejaVuSans-20" x="1276.066406"/>
     <use xlink:href="#DejaVuSans-74" x="1307.853516"/>
     <use xlink:href="#DejaVuSans-6f" x="1347.0625"/>
     <use xlink:href="#DejaVuSans-20" x="1408.244141"/>
     <use xlink:href="#DejaVuSans-4f" x="1440.03125"/>
     <use xlink:href="#DejaVuSans-72" x="1518.742188"/>
     <use xlink:href="#DejaVuSans-62" x="1559.855469"/>
     <use xlink:href="#DejaVuSans-69" x="1623.332031"/>
     <use xlink:href="#DejaVuSans-74" x="1651.115234"/>
     <use xlink:href="#DejaVuSans-20" x="1690.324219"/>
     <use xlink:href="#DejaVuSans-42" x="1722.111328"/>
     <use xlink:href="#DejaVuSans-79" x="1790.714844"/>
     <use xlink:href="#DejaVuSans-20" x="1849.894531"/>
     <use xlink:href="#DejaVuSans-59" x="1881.681641"/>
     <use xlink:href="#DejaVuSans-65" x="1929.515625"/>
     <use xlink:href="#DejaVuSans-61" x="1991.039062"/>
     <use xlink:href="#DejaVuSans-72" x="2052.318359"/>
    </g>
   </g>
   <g id="legend_1">
    <g id="patch_7">
     <path d="M 89.37 181.66125 
L 146.82 181.66125 
Q 148.82 181.66125 148.82 179.66125 
L 148.82 33.88 
Q 148.82 31.88 146.82 31.88 
L 89.37 31.88 
Q 87.37 31.88 87.37 33.88 
L 87.37 179.66125 
Q 87.37 181.66125 89.37 181.66125 
z
" style="fill: #ffffff; opacity: 0.8; stroke: #cccccc; stroke-linejoin: miter"/>
    </g>
    <g id="text_17">
     <!-- Year -->
     <g transform="translate(107.5075 43.478437) scale(0.1 -0.1)">
      <use xlink:href="#DejaVuSans-59"/>
      <use xlink:href="#DejaVuSans-65" x="47.833984"/>
      <use xlink:href="#DejaVuSans-61" x="109.357422"/>
      <use xlink:href="#DejaVuSans-72" x="170.636719"/>
     </g>
    </g>
    <g id="line2d_38">
     <path d="M 91.37 54.656562 
L 101.37 54.656562 
L 101.37 54.656562 
L 111.37 54.656562 
L 111.37 54.656562 
" style="fill: none; stroke: #808080; stroke-width: 1.5; stroke-linecap: square"/>
    </g>
    <g id="text_18">
     <!-- 2017 -->
     <g transform="translate(119.37 58.156562) scale(0.1 -0.1)">
      <use xlink:href="#DejaVuSans-32"/>
      <use xlink:href="#DejaVuSans-30" x="63.623047"/>
      <use xlink:href="#DejaVuSans-31" x="127.246094"/>
      <use xlink:href="#DejaVuSans-37" x="190.869141"/>
     </g>
    </g>
    <g id="line2d_39">
     <path d="M 91.37 69.334687 
L 101.37 69.334687 
L 101.37 69.334687 
L 111.37 69.334687 
L 111.37 69.334687 
" style="fill: none; stroke: #90ee90; stroke-width: 1.5; stroke-linecap: square"/>
    </g>
    <g id="text_19">
     <!-- 2018 -->
     <g transform="translate(119.37 72.834687) scale(0.1 -0.1)">
      <defs>
       <path id="DejaVuSans-38" d="M 2034 2216 
Q 1584 2216 1326 1975 
Q 1069 1734 1069 1313 
Q 1069 891 1326 650 
Q 1584 409 2034 409 
Q 2484 409 2743 651 
Q 3003 894 3003 1313 
Q 3003 1734 2745 1975 
Q 2488 2216 2034 2216 
z
M 1403 2484 
Q 997 2584 770 2862 
Q 544 3141 544 3541 
Q 544 4100 942 4425 
Q 1341 4750 2034 4750 
Q 2731 4750 3128 4425 
Q 3525 4100 3525 3541 
Q 3525 3141 3298 2862 
Q 3072 2584 2669 2484 
Q 3125 2378 3379 2068 
Q 3634 1759 3634 1313 
Q 3634 634 3220 271 
Q 2806 -91 2034 -91 
Q 1263 -91 848 271 
Q 434 634 434 1313 
Q 434 1759 690 2068 
Q 947 2378 1403 2484 
z
M 1172 3481 
Q 1172 3119 1398 2916 
Q 1625 2713 2034 2713 
Q 2441 2713 2670 2916 
Q 2900 3119 2900 3481 
Q 2900 3844 2670 4047 
Q 2441 4250 2034 4250 
Q 1625 4250 1398 4047 
Q 1172 3844 1172 3481 
z
" transform="scale(0.015625)"/>
      </defs>
      <use xlink:href="#DejaVuSans-32"/>
      <use xlink:href="#DejaVuSans-30" x="63.623047"/>
      <use xlink:href="#DejaVuSans-31" x="127.246094"/>
      <use xlink:href="#DejaVuSans-38" x="190.869141"/>
     </g>
    </g>
    <g id="line2d_40">
     <path d="M 91.37 84.012812 
L 101.37 84.012812 
L 101.37 84.012812 
L 111.37 84.012812 
L 111.37 84.012812 
" style="fill: none; stroke: #add8e6; stroke-width: 1.5; stroke-linecap: square"/>
    </g>
    <g id="text_20">
     <!-- 2019 -->
     <g transform="translate(119.37 87.512812) scale(0.1 -0.1)">
      <defs>
       <path id="DejaVuSans-39" d="M 703 97 
L 703 672 
Q 941 559 1184 500 
Q 1428 441 1663 441 
Q 2288 441 2617 861 
Q 2947 1281 2994 2138 
Q 2813 1869 2534 1725 
Q 2256 1581 1919 1581 
Q 1219 1581 811 2004 
Q 403 2428 403 3163 
Q 403 3881 828 4315 
Q 1253 4750 1959 4750 
Q 2769 4750 3195 4129 
Q 3622 3509 3622 2328 
Q 3622 1225 3098 567 
Q 2575 -91 1691 -91 
Q 1453 -91 1209 -44 
Q 966 3 703 97 
z
M 1959 2075 
Q 2384 2075 2632 2365 
Q 2881 2656 2881 3163 
Q 2881 3666 2632 3958 
Q 2384 4250 1959 4250 
Q 1534 4250 1286 3958 
Q 1038 3666 1038 3163 
Q 1038 2656 1286 2365 
Q 1534 2075 1959 2075 
z
" transform="scale(0.015625)"/>
      </defs>
      <use xlink:href="#DejaVuSans-32"/>
      <use xlink:href="#DejaVuSans-30" x="63.623047"/>
      <use xlink:href="#DejaVuSans-31" x="127.246094"/>
      <use xlink:href="#DejaVuSans-39" x="190.869141"/>
     </g>
    </g>
    <g id="line2d_41">
     <path d="M 91.37 98.690937 
L 101.37 98.690937 
L 101.37 98.690937 
L 111.37 98.690937 
L 111.37 98.690937 
" style="fill: none; stroke: #ffc0cb; stroke-width: 1.5; stroke-linecap: square"/>
    </g>
    <g id="text_21">
     <!-- 2020 -->
     <g transform="translate(119.37 102.190937) scale(0.1 -0.1)">
      <use xlink:href="#DejaVuSans-32"/>
      <use xlink:href="#DejaVuSans-30" x="63.623047"/>
      <use xlink:href="#DejaVuSans-32" x="127.246094"/>
      <use xlink:href="#DejaVuSans-30" x="190.869141"/>
     </g>
    </g>
    <g id="line2d_42">
     <path d="M 91.37 113.369062 
L 101.37 113.369062 
L 101.37 113.369062 
L 111.37 113.369062 
L 111.37 113.369062 
" style="fill: none; stroke: #800080; stroke-width: 1.5; stroke-linecap: square"/>
    </g>
    <g id="text_22">
     <!-- 2021 -->
     <g transform="translate(119.37 116.869062) scale(0.1 -0.1)">
      <use xlink:href="#DejaVuSans-32"/>
      <use xlink:href="#DejaVuSans-30" x="63.623047"/>
      <use xlink:href="#DejaVuSans-32" x="127.246094"/>
      <use xlink:href="#DejaVuSans-31" x="190.869141"/>
     </g>
    </g>
    <g id="line2d_43">
     <path d="M 91.37 128.047187 
L 101.37 128.047187 
L 101.37 128.047187 
L 111.37 128.047187 
L 111.37 128.047187 
" style="fill: none; stroke: #ffa500; stroke-width: 1.5; stroke-linecap: square"/>
    </g>
    <g id="text_23">
     <!-- 2022 -->
     <g transform="translate(119.37 131.547187) scale(0.1 -0.1)">
      <use xlink:href="#DejaVuSans-32"/>
      <use xlink:href="#DejaVuSans-30" x="63.623047"/>
      <use xlink:href="#DejaVuSans-32" x="127.246094"/>
      <use xlink:href="#DejaVuSans-32" x="190.869141"/>
     </g>
    </g>
    <g id="line2d_44">
     <path d="M 91.37 142.725312 
L 101.37 142.725312 
L 101.37 142.725312 
L 111.37 142.725312 
L 111.37 142.725312 
" style="fill: none; stroke: #0000ff; stroke-width: 1.5; stroke-linecap: square"/>
    </g>
    <g id="text_24">
     <!-- 2023 -->
     <g transform="translate(119.37 146.225312) scale(0.1 -0.1)">
      <defs>
       <path id="DejaVuSans-33" d="M 2597 2516 
Q 3050 2419 3304 2112 
Q 3559 1806 3559 1356 
Q 3559 666 3084 287 
Q 2609 -91 1734 -91 
Q 1441 -91 1130 -33 
Q 819 25 488 141 
L 488 750 
Q 750 597 1062 519 
Q 1375 441 1716 441 
Q 2309 441 2620 675 
Q 2931 909 2931 1356 
Q 2931 1769 2642 2001 
Q 2353 2234 1838 2234 
L 1294 2234 
L 1294 2753 
L 1863 2753 
Q 2328 2753 2575 2939 
Q 2822 3125 2822 3475 
Q 2822 3834 2567 4026 
Q 2313 4219 1838 4219 
Q 1578 4219 1281 4162 
Q 984 4106 628 3988 
L 628 4550 
Q 988 4650 1302 4700 
Q 1616 4750 1894 4750 
Q 2613 4750 3031 4423 
Q 3450 4097 3450 3541 
Q 3450 3153 3228 2886 
Q 3006 2619 2597 2516 
z
" transform="scale(0.015625)"/>
      </defs>
      <use xlink:href="#DejaVuSans-32"/>
      <use xlink:href="#DejaVuSans-30" x="63.623047"/>
      <use xlink:href="#DejaVuSans-32" x="127.246094"/>
      <use xlink:href="#DejaVuSans-33" x="190.869141"/>
     </g>
    </g>
    <g id="line2d_45">
     <path d="M 91.37 157.403437 
L 101.37 157.403437 
L 101.37 157.403437 
L 111.37 157.403437 
L 111.37 157.403437 
" style="fill: none; stroke: #008000; stroke-width: 1.5; stroke-linecap: square"/>
    </g>
    <g id="text_25">
     <!-- 2024 -->
     <g transform="translate(119.37 160.903437) scale(0.1 -0.1)">
      <defs>
       <path id="DejaVuSans-34" d="M 2419 4116 
L 825 1625 
L 2419 1625 
L 2419 4116 
z
M 2253 4666 
L 3047 4666 
L 3047 1625 
L 3713 1625 
L 3713 1100 
L 3047 1100 
L 3047 0 
L 2419 0 
L 2419 1100 
L 313 1100 
L 313 1709 
L 2253 4666 
z
" transform="scale(0.015625)"/>
      </defs>
      <use xlink:href="#DejaVuSans-32"/>
      <use xlink:href="#DejaVuSans-30" x="63.623047"/>
      <use xlink:href="#DejaVuSans-32" x="127.246094"/>
      <use xlink:href="#DejaVuSans-34" x="190.869141"/>
     </g>
    </g>
    <g id="line2d_46">
     <path d="M 91.37 172.081562 
L 101.37 172.081562 
L 101.37 172.081562 
L 111.37 172.081562 
L 111.37 172.081562 
" style="fill: none; stroke: #ff0000; stroke-width: 1.5; stroke-linecap: square"/>
    </g>
    <g id="text_26">
     <!-- 2025 -->
     <g transform="translate(119.37 175.581562) scale(0.1 -0.1)">
      <use xlink:href="#DejaVuSans-32"/>
      <use xlink:href="#DejaVuSans-30" x="63.623047"/>
      <use xlink:href="#DejaVuSans-32" x="127.246094"/>
      <use xlink:href="#DejaVuSans-35" x="190.869141"/>
     </g>
    </g>
   </g>
  </g>
 </g>
 <defs>
  <clipPath id="p9debf81ca9">
   <rect x="82.37" y="26.88" width="626.83" height="449.24"/>
  </clipPath>
 </defs>
</svg>
