<?xml version="1.0" encoding="utf-8" standalone="no"?>
<!DOCTYPE svg PUBLIC "-//W3C//DTD SVG 1.1//EN"
  "http://www.w3.org/Graphics/SVG/1.1/DTD/svg11.dtd">
<svg xmlns:xlink="http://www.w3.org/1999/xlink" width="720pt" height="504pt" viewBox="0 0 720 504" xmlns="http://www.w3.org/2000/svg" version="1.1">
 <metadata>
  <rdf:RDF xmlns:dc="http://purl.org/dc/elements/1.1/" xmlns:cc="http://creativecommons.org/ns#" xmlns:rdf="http://www.w3.org/1999/02/22-rdf-syntax-ns#">
   <cc:Work>
    <dc:type rdf:resource="http://purl.org/dc/dcmitype/StillImage"/>
    <dc:date>2025-10-25T11:21:40.803221</dc:date>
    <dc:format>image/svg+xml</dc:format>
    <dc:creator>
     <cc:Agent>
      <dc:title>Matplotlib v3.8.2, https://matplotlib.org/</dc:title>
     </cc:Agent>
    </dc:creator>
   </cc:Work>
  </rdf:RDF>
 </metadata>
 <defs>
  <style type="text/css">*{stroke-linejoin: round; stroke-linecap: butt}</style>
 </defs>
 <g id="figure_1">
  <g id="patch_1">
   <path d="M 0 504 
L 720 504 
L 720 0 
L 0 0 
z
" style="fill: #ffffff"/>
  </g>
  <g id="axes_1">
   <g id="patch_2">
    <path d="M 82.37 476.12 
L 709.2 476.12 
L 709.2 26.88 
L 82.37 26.88 
z
" style="fill: #ffffff"/>
   </g>
   <g id="matplotlib.axis_1">
    <g id="xtick_1">
     <g id="line2d_1">
      <path d="M 106.728679 476.12 
L 106.728679 26.88 
" clip-path="url(#p0e8ab000d9)" style="fill: none; stroke: #b0b0b0; stroke-width: 0.8; stroke-linecap: square"/>
     </g>
     <g id="line2d_2">
      <defs>
       <path id="m413f949c19" d="M 0 0 
L 0 3.5 
" style="stroke: #000000; stroke-width: 0.8"/>
      </defs>
      <g>
       <use xlink:href="#m413f949c19" x="106.728679" y="476.12" style="stroke: #000000; stroke-width: 0.8"/>
      </g>
     </g>
     <g id="text_1">
      <!-- Jan 1 -->
      <g transform="translate(94.250554 490.718437) scale(0.1 -0.1)">
       <defs>
        <path id="DejaVuSans-4a" d="M 628 4666 
L 1259 4666 
L 1259 325 
Q 1259 -519 939 -900 
Q 619 -1281 -91 -1281 
L -331 -1281 
L -331 -750 
L -134 -750 
Q 284 -750 456 -515 
Q 628 -281 628 325 
L 628 4666 
z
" transform="scale(0.015625)"/>
        <path id="DejaVuSans-61" d="M 2194 1759 
Q 1497 1759 1228 1600 
Q 959 1441 959 1056 
Q 959 750 1161 570 
Q 1363 391 1709 391 
Q 2188 391 2477 730 
Q 2766 1069 2766 1631 
L 2766 1759 
L 2194 1759 
z
M 3341 1997 
L 3341 0 
L 2766 0 
L 2766 531 
Q 2569 213 2275 61 
Q 1981 -91 1556 -91 
Q 1019 -91 701 211 
Q 384 513 384 1019 
Q 384 1609 779 1909 
Q 1175 2209 1959 2209 
L 2766 2209 
L 2766 2266 
Q 2766 2663 2505 2880 
Q 2244 3097 1772 3097 
Q 1472 3097 1187 3025 
Q 903 2953 641 2809 
L 641 3341 
Q 956 3463 1253 3523 
Q 1550 3584 1831 3584 
Q 2591 3584 2966 3190 
Q 3341 2797 3341 1997 
z
" transform="scale(0.015625)"/>
        <path id="DejaVuSans-6e" d="M 3513 2113 
L 3513 0 
L 2938 0 
L 2938 2094 
Q 2938 2591 2744 2837 
Q 2550 3084 2163 3084 
Q 1697 3084 1428 2787 
Q 1159 2491 1159 1978 
L 1159 0 
L 581 0 
L 581 3500 
L 1159 3500 
L 1159 2956 
Q 1366 3272 1645 3428 
Q 1925 3584 2291 3584 
Q 2894 3584 3203 3211 
Q 3513 2838 3513 2113 
z
" transform="scale(0.015625)"/>
        <path id="DejaVuSans-20" transform="scale(0.015625)"/>
        <path id="DejaVuSans-31" d="M 794 531 
L 1825 531 
L 1825 4091 
L 703 3866 
L 703 4441 
L 1819 4666 
L 2450 4666 
L 2450 531 
L 3481 531 
L 3481 0 
L 794 0 
L 794 531 
z
" transform="scale(0.015625)"/>
       </defs>
       <use xlink:href="#DejaVuSans-4a"/>
       <use xlink:href="#DejaVuSans-61" x="29.492188"/>
       <use xlink:href="#DejaVuSans-6e" x="90.771484"/>
       <use xlink:href="#DejaVuSans-20" x="154.150391"/>
       <use xlink:href="#DejaVuSans-31" x="185.9375"/>
      </g>
     </g>
    </g>
    <g id="xtick_2">
     <g id="line2d_3">
      <path d="M 204.163394 476.12 
L 204.163394 26.88 
" clip-path="url(#p0e8ab000d9)" style="fill: none; stroke: #b0b0b0; stroke-width: 0.8; stroke-linecap: square"/>
     </g>
     <g id="line2d_4">
      <g>
       <use xlink:href="#m413f949c19" x="204.163394" y="476.12" style="stroke: #000000; stroke-width: 0.8"/>
      </g>
     </g>
     <g id="text_2">
      <!-- Mar 1 -->
      <g transform="translate(189.959488 490.718437) scale(0.1 -0.1)">
       <defs>
        <path id="DejaVuSans-4d" d="M 628 4666 
L 1569 4666 
L 2759 1491 
L 3956 4666 
L 4897 4666 
L 4897 0 
L 4281 0 
L 4281 4097 
L 3078 897 
L 2444 897 
L 1241 4097 
L 1241 0 
L 628 0 
L 628 4666 
z
" transform="scale(0.015625)"/>
        <path id="DejaVuSans-72" d="M 2631 2963 
Q 2534 3019 2420 3045 
Q 2306 3072 2169 3072 
Q 1681 3072 1420 2755 
Q 1159 2438 1159 1844 
L 1159 0 
L 581 0 
L 581 3500 
L 1159 3500 
L 1159 2956 
Q 1341 3275 1631 3429 
Q 1922 3584 2338 3584 
Q 2397 3584 2469 3576 
Q 2541 3569 2628 3553 
L 2631 2963 
z
" transform="scale(0.015625)"/>
       </defs>
       <use xlink:href="#DejaVuSans-4d"/>
       <use xlink:href="#DejaVuSans-61" x="86.279297"/>
       <use xlink:href="#DejaVuSans-72" x="147.558594"/>
       <use xlink:href="#DejaVuSans-20" x="188.671875"/>
       <use xlink:href="#DejaVuSans-31" x="220.458984"/>
      </g>
     </g>
    </g>
    <g id="xtick_3">
     <g id="line2d_5">
      <path d="M 303.222021 476.12 
L 303.222021 26.88 
" clip-path="url(#p0e8ab000d9)" style="fill: none; stroke: #b0b0b0; stroke-width: 0.8; stroke-linecap: square"/>
     </g>
     <g id="line2d_6">
      <g>
       <use xlink:href="#m413f949c19" x="303.222021" y="476.12" style="stroke: #000000; stroke-width: 0.8"/>
      </g>
     </g>
     <g id="text_3">
      <!-- May 1 -->
      <g transform="translate(288.114208 490.718437) scale(0.1 -0.1)">
       <defs>
        <path id="DejaVuSans-79" d="M 2059 -325 
Q 1816 -950 1584 -1140 
Q 1353 -1331 966 -1331 
L 506 -1331 
L 506 -850 
L 844 -850 
Q 1081 -850 1212 -737 
Q 1344 -625 1503 -206 
L 1606 56 
L 191 3500 
L 800 3500 
L 1894 763 
L 2988 3500 
L 3597 3500 
L 2059 -325 
z
" transform="scale(0.015625)"/>
       </defs>
       <use xlink:href="#DejaVuSans-4d"/>
       <use xlink:href="#DejaVuSans-61" x="86.279297"/>
       <use xlink:href="#DejaVuSans-79" x="147.558594"/>
       <use xlink:href="#DejaVuSans-20" x="206.738281"/>
       <use xlink:href="#DejaVuSans-31" x="238.525391"/>
      </g>
     </g>
    </g>
    <g id="xtick_4">
     <g id="line2d_7">
      <path d="M 402.280648 476.12 
L 402.280648 26.88 
" clip-path="url(#p0e8ab000d9)" style="fill: none; stroke: #b0b0b0; stroke-width: 0.8; stroke-linecap: square"/>
     </g>
     <g id="line2d_8">
      <g>
       <use xlink:href="#m413f949c19" x="402.280648" y="476.12" style="stroke: #000000; stroke-width: 0.8"/>
      </g>
     </g>
     <g id="text_4">
      <!-- Jul 1 -->
      <g transform="translate(391.477523 490.718437) scale(0.1 -0.1)">
       <defs>
        <path id="DejaVuSans-75" d="M 544 1381 
L 544 3500 
L 1119 3500 
L 1119 1403 
Q 1119 906 1312 657 
Q 1506 409 1894 409 
Q 2359 409 2629 706 
Q 2900 1003 2900 1516 
L 2900 3500 
L 3475 3500 
L 3475 0 
L 2900 0 
L 2900 538 
Q 2691 219 2414 64 
Q 2138 -91 1772 -91 
Q 1169 -91 856 284 
Q 544 659 544 1381 
z
M 1991 3584 
L 1991 3584 
z
" transform="scale(0.015625)"/>
        <path id="DejaVuSans-6c" d="M 603 4863 
L 1178 4863 
L 1178 0 
L 603 0 
L 603 4863 
z
" transform="scale(0.015625)"/>
       </defs>
       <use xlink:href="#DejaVuSans-4a"/>
       <use xlink:href="#DejaVuSans-75" x="29.492188"/>
       <use xlink:href="#DejaVuSans-6c" x="92.871094"/>
       <use xlink:href="#DejaVuSans-20" x="120.654297"/>
       <use xlink:href="#DejaVuSans-31" x="152.441406"/>
      </g>
     </g>
    </g>
    <g id="xtick_5">
     <g id="line2d_9">
      <path d="M 502.963187 476.12 
L 502.963187 26.88 
" clip-path="url(#p0e8ab000d9)" style="fill: none; stroke: #b0b0b0; stroke-width: 0.8; stroke-linecap: square"/>
     </g>
     <g id="line2d_10">
      <g>
       <use xlink:href="#m413f949c19" x="502.963187" y="476.12" style="stroke: #000000; stroke-width: 0.8"/>
      </g>
     </g>
     <g id="text_5">
      <!-- Sep 1 -->
      <g transform="translate(488.767874 490.718437) scale(0.1 -0.1)">
       <defs>
        <path id="DejaVuSans-53" d="M 3425 4513 
L 3425 3897 
Q 3066 4069 2747 4153 
Q 2428 4238 2131 4238 
Q 1616 4238 1336 4038 
Q 1056 3838 1056 3469 
Q 1056 3159 1242 3001 
Q 1428 2844 1947 2747 
L 2328 2669 
Q 3034 2534 3370 2195 
Q 3706 1856 3706 1288 
Q 3706 609 3251 259 
Q 2797 -91 1919 -91 
Q 1588 -91 1214 -16 
Q 841 59 441 206 
L 441 856 
Q 825 641 1194 531 
Q 1563 422 1919 422 
Q 2459 422 2753 634 
Q 3047 847 3047 1241 
Q 3047 1584 2836 1778 
Q 2625 1972 2144 2069 
L 1759 2144 
Q 1053 2284 737 2584 
Q 422 2884 422 3419 
Q 422 4038 858 4394 
Q 1294 4750 2059 4750 
Q 2388 4750 2728 4690 
Q 3069 4631 3425 4513 
z
" transform="scale(0.015625)"/>
        <path id="DejaVuSans-65" d="M 3597 1894 
L 3597 1613 
L 953 1613 
Q 991 1019 1311 708 
Q 1631 397 2203 397 
Q 2534 397 2845 478 
Q 3156 559 3463 722 
L 3463 178 
Q 3153 47 2828 -22 
Q 2503 -91 2169 -91 
Q 1331 -91 842 396 
Q 353 884 353 1716 
Q 353 2575 817 3079 
Q 1281 3584 2069 3584 
Q 2775 3584 3186 3129 
Q 3597 2675 3597 1894 
z
M 3022 2063 
Q 3016 2534 2758 2815 
Q 2500 3097 2075 3097 
Q 1594 3097 1305 2825 
Q 1016 2553 972 2059 
L 3022 2063 
z
" transform="scale(0.015625)"/>
        <path id="DejaVuSans-70" d="M 1159 525 
L 1159 -1331 
L 581 -1331 
L 581 3500 
L 1159 3500 
L 1159 2969 
Q 1341 3281 1617 3432 
Q 1894 3584 2278 3584 
Q 2916 3584 3314 3078 
Q 3713 2572 3713 1747 
Q 3713 922 3314 415 
Q 2916 -91 2278 -91 
Q 1894 -91 1617 61 
Q 1341 213 1159 525 
z
M 3116 1747 
Q 3116 2381 2855 2742 
Q 2594 3103 2138 3103 
Q 1681 3103 1420 2742 
Q 1159 2381 1159 1747 
Q 1159 1113 1420 752 
Q 1681 391 2138 391 
Q 2594 391 2855 752 
Q 3116 1113 3116 1747 
z
" transform="scale(0.015625)"/>
       </defs>
       <use xlink:href="#DejaVuSans-53"/>
       <use xlink:href="#DejaVuSans-65" x="63.476562"/>
       <use xlink:href="#DejaVuSans-70" x="125"/>
       <use xlink:href="#DejaVuSans-20" x="188.476562"/>
       <use xlink:href="#DejaVuSans-31" x="220.263672"/>
      </g>
     </g>
    </g>
    <g id="xtick_6">
     <g id="line2d_11">
      <path d="M 602.021813 476.12 
L 602.021813 26.88 
" clip-path="url(#p0e8ab000d9)" style="fill: none; stroke: #b0b0b0; stroke-width: 0.8; stroke-linecap: square"/>
     </g>
     <g id="line2d_12">
      <g>
       <use xlink:href="#m413f949c19" x="602.021813" y="476.12" style="stroke: #000000; stroke-width: 0.8"/>
      </g>
     </g>
     <g id="text_6">
      <!-- Nov 1 -->
      <g transform="translate(587.492126 490.718437) scale(0.1 -0.1)">
       <defs>
        <path id="DejaVuSans-4e" d="M 628 4666 
L 1478 4666 
L 3547 763 
L 3547 4666 
L 4159 4666 
L 4159 0 
L 3309 0 
L 1241 3903 
L 1241 0 
L 628 0 
L 628 4666 
z
" transform="scale(0.015625)"/>
        <path id="DejaVuSans-6f" d="M 1959 3097 
Q 1497 3097 1228 2736 
Q 959 2375 959 1747 
Q 959 1119 1226 758 
Q 1494 397 1959 397 
Q 2419 397 2687 759 
Q 2956 1122 2956 1747 
Q 2956 2369 2687 2733 
Q 2419 3097 1959 3097 
z
M 1959 3584 
Q 2709 3584 3137 3096 
Q 3566 2609 3566 1747 
Q 3566 888 3137 398 
Q 2709 -91 1959 -91 
Q 1206 -91 779 398 
Q 353 888 353 1747 
Q 353 2609 779 3096 
Q 1206 3584 1959 3584 
z
" transform="scale(0.015625)"/>
        <path id="DejaVuSans-76" d="M 191 3500 
L 800 3500 
L 1894 563 
L 2988 3500 
L 3597 3500 
L 2284 0 
L 1503 0 
L 191 3500 
z
" transform="scale(0.015625)"/>
       </defs>
       <use xlink:href="#DejaVuSans-4e"/>
       <use xlink:href="#DejaVuSans-6f" x="74.804688"/>
       <use xlink:href="#DejaVuSans-76" x="135.986328"/>
       <use xlink:href="#DejaVuSans-20" x="195.166016"/>
       <use xlink:href="#DejaVuSans-31" x="226.953125"/>
      </g>
     </g>
    </g>
   </g>
   <g id="matplotlib.axis_2">
    <g id="ytick_1">
     <g id="line2d_13">
      <path d="M 82.37 455.7 
L 709.2 455.7 
" clip-path="url(#p0e8ab000d9)" style="fill: none; stroke: #b0b0b0; stroke-width: 0.8; stroke-linecap: square"/>
     </g>
     <g id="line2d_14">
      <defs>
       <path id="m7d29c301c4" d="M 0 0 
L -3.5 0 
" style="stroke: #000000; stroke-width: 0.8"/>
      </defs>
      <g>
       <use xlink:href="#m7d29c301c4" x="82.37" y="455.7" style="stroke: #000000; stroke-width: 0.8"/>
      </g>
     </g>
     <g id="text_7">
      <!-- 0 -->
      <g transform="translate(69.0075 459.499219) scale(0.1 -0.1)">
       <defs>
        <path id="DejaVuSans-30" d="M 2034 4250 
Q 1547 4250 1301 3770 
Q 1056 3291 1056 2328 
Q 1056 1369 1301 889 
Q 1547 409 2034 409 
Q 2525 409 2770 889 
Q 3016 1369 3016 2328 
Q 3016 3291 2770 3770 
Q 2525 4250 2034 4250 
z
M 2034 4750 
Q 2819 4750 3233 4129 
Q 3647 3509 3647 2328 
Q 3647 1150 3233 529 
Q 2819 -91 2034 -91 
Q 1250 -91 836 529 
Q 422 1150 422 2328 
Q 422 3509 836 4129 
Q 1250 4750 2034 4750 
z
" transform="scale(0.015625)"/>
       </defs>
       <use xlink:href="#DejaVuSans-30"/>
      </g>
     </g>
    </g>
    <g id="ytick_2">
     <g id="line2d_15">
      <path d="M 82.37 397.293396 
L 709.2 397.293396 
" clip-path="url(#p0e8ab000d9)" style="fill: none; stroke: #b0b0b0; stroke-width: 0.8; stroke-linecap: square"/>
     </g>
     <g id="line2d_16">
      <g>
       <use xlink:href="#m7d29c301c4" x="82.37" y="397.293396" style="stroke: #000000; stroke-width: 0.8"/>
      </g>
     </g>
     <g id="text_8">
      <!-- 250,000 -->
      <g transform="translate(34.016875 401.092615) scale(0.1 -0.1)">
       <defs>
        <path id="DejaVuSans-32" d="M 1228 531 
L 3431 531 
L 3431 0 
L 469 0 
L 469 531 
Q 828 903 1448 1529 
Q 2069 2156 2228 2338 
Q 2531 2678 2651 2914 
Q 2772 3150 2772 3378 
Q 2772 3750 2511 3984 
Q 2250 4219 1831 4219 
Q 1534 4219 1204 4116 
Q 875 4013 500 3803 
L 500 4441 
Q 881 4594 1212 4672 
Q 1544 4750 1819 4750 
Q 2544 4750 2975 4387 
Q 3406 4025 3406 3419 
Q 3406 3131 3298 2873 
Q 3191 2616 2906 2266 
Q 2828 2175 2409 1742 
Q 1991 1309 1228 531 
z
" transform="scale(0.015625)"/>
        <path id="DejaVuSans-35" d="M 691 4666 
L 3169 4666 
L 3169 4134 
L 1269 4134 
L 1269 2991 
Q 1406 3038 1543 3061 
Q 1681 3084 1819 3084 
Q 2600 3084 3056 2656 
Q 3513 2228 3513 1497 
Q 3513 744 3044 326 
Q 2575 -91 1722 -91 
Q 1428 -91 1123 -41 
Q 819 9 494 109 
L 494 744 
Q 775 591 1075 516 
Q 1375 441 1709 441 
Q 2250 441 2565 725 
Q 2881 1009 2881 1497 
Q 2881 1984 2565 2268 
Q 2250 2553 1709 2553 
Q 1456 2553 1204 2497 
Q 953 2441 691 2322 
L 691 4666 
z
" transform="scale(0.015625)"/>
        <path id="DejaVuSans-2c" d="M 750 794 
L 1409 794 
L 1409 256 
L 897 -744 
L 494 -744 
L 750 256 
L 750 794 
z
" transform="scale(0.015625)"/>
       </defs>
       <use xlink:href="#DejaVuSans-32"/>
       <use xlink:href="#DejaVuSans-35" x="63.623047"/>
       <use xlink:href="#DejaVuSans-30" x="127.246094"/>
       <use xlink:href="#DejaVuSans-2c" x="190.869141"/>
       <use xlink:href="#DejaVuSans-30" x="222.65625"/>
       <use xlink:href="#DejaVuSans-30" x="286.279297"/>
       <use xlink:href="#DejaVuSans-30" x="349.902344"/>
      </g>
     </g>
    </g>
    <g id="ytick_3">
     <g id="line2d_17">
      <path d="M 82.37 338.886792 
L 709.2 338.886792 
" clip-path="url(#p0e8ab000d9)" style="fill: none; stroke: #b0b0b0; stroke-width: 0.8; stroke-linecap: square"/>
     </g>
     <g id="line2d_18">
      <g>
       <use xlink:href="#m7d29c301c4" x="82.37" y="338.886792" style="stroke: #000000; stroke-width: 0.8"/>
      </g>
     </g>
     <g id="text_9">
      <!-- 500,000 -->
      <g transform="translate(34.016875 342.686011) scale(0.1 -0.1)">
       <use xlink:href="#DejaVuSans-35"/>
       <use xlink:href="#DejaVuSans-30" x="63.623047"/>
       <use xlink:href="#DejaVuSans-30" x="127.246094"/>
       <use xlink:href="#DejaVuSans-2c" x="190.869141"/>
       <use xlink:href="#DejaVuSans-30" x="222.65625"/>
       <use xlink:href="#DejaVuSans-30" x="286.279297"/>
       <use xlink:href="#DejaVuSans-30" x="349.902344"/>
      </g>
     </g>
    </g>
    <g id="ytick_4">
     <g id="line2d_19">
      <path d="M 82.37 280.480189 
L 709.2 280.480189 
" clip-path="url(#p0e8ab000d9)" style="fill: none; stroke: #b0b0b0; stroke-width: 0.8; stroke-linecap: square"/>
     </g>
     <g id="line2d_20">
      <g>
       <use xlink:href="#m7d29c301c4" x="82.37" y="280.480189" style="stroke: #000000; stroke-width: 0.8"/>
      </g>
     </g>
     <g id="text_10">
      <!-- 750,000 -->
      <g transform="translate(34.016875 284.279407) scale(0.1 -0.1)">
       <defs>
        <path id="DejaVuSans-37" d="M 525 4666 
L 3525 4666 
L 3525 4397 
L 1831 0 
L 1172 0 
L 2766 4134 
L 525 4134 
L 525 4666 
z
" transform="scale(0.015625)"/>
       </defs>
       <use xlink:href="#DejaVuSans-37"/>
       <use xlink:href="#DejaVuSans-35" x="63.623047"/>
       <use xlink:href="#DejaVuSans-30" x="127.246094"/>
       <use xlink:href="#DejaVuSans-2c" x="190.869141"/>
       <use xlink:href="#DejaVuSans-30" x="222.65625"/>
       <use xlink:href="#DejaVuSans-30" x="286.279297"/>
       <use xlink:href="#DejaVuSans-30" x="349.902344"/>
      </g>
     </g>
    </g>
    <g id="ytick_5">
     <g id="line2d_21">
      <path d="M 82.37 222.073585 
L 709.2 222.073585 
" clip-path="url(#p0e8ab000d9)" style="fill: none; stroke: #b0b0b0; stroke-width: 0.8; stroke-linecap: square"/>
     </g>
     <g id="line2d_22">
      <g>
       <use xlink:href="#m7d29c301c4" x="82.37" y="222.073585" style="stroke: #000000; stroke-width: 0.8"/>
      </g>
     </g>
     <g id="text_11">
      <!-- 1,000,000 -->
      <g transform="translate(24.47625 225.872804) scale(0.1 -0.1)">
       <use xlink:href="#DejaVuSans-31"/>
       <use xlink:href="#DejaVuSans-2c" x="63.623047"/>
       <use xlink:href="#DejaVuSans-30" x="95.410156"/>
       <use xlink:href="#DejaVuSans-30" x="159.033203"/>
       <use xlink:href="#DejaVuSans-30" x="222.65625"/>
       <use xlink:href="#DejaVuSans-2c" x="286.279297"/>
       <use xlink:href="#DejaVuSans-30" x="318.066406"/>
       <use xlink:href="#DejaVuSans-30" x="381.689453"/>
       <use xlink:href="#DejaVuSans-30" x="445.3125"/>
      </g>
     </g>
    </g>
    <g id="ytick_6">
     <g id="line2d_23">
      <path d="M 82.37 163.666981 
L 709.2 163.666981 
" clip-path="url(#p0e8ab000d9)" style="fill: none; stroke: #b0b0b0; stroke-width: 0.8; stroke-linecap: square"/>
     </g>
     <g id="line2d_24">
      <g>
       <use xlink:href="#m7d29c301c4" x="82.37" y="163.666981" style="stroke: #000000; stroke-width: 0.8"/>
      </g>
     </g>
     <g id="text_12">
      <!-- 1,250,000 -->
      <g transform="translate(24.47625 167.4662) scale(0.1 -0.1)">
       <use xlink:href="#DejaVuSans-31"/>
       <use xlink:href="#DejaVuSans-2c" x="63.623047"/>
       <use xlink:href="#DejaVuSans-32" x="95.410156"/>
       <use xlink:href="#DejaVuSans-35" x="159.033203"/>
       <use xlink:href="#DejaVuSans-30" x="222.65625"/>
       <use xlink:href="#DejaVuSans-2c" x="286.279297"/>
       <use xlink:href="#DejaVuSans-30" x="318.066406"/>
       <use xlink:href="#DejaVuSans-30" x="381.689453"/>
       <use xlink:href="#DejaVuSans-30" x="445.3125"/>
      </g>
     </g>
    </g>
    <g id="ytick_7">
     <g id="line2d_25">
      <path d="M 82.37 105.260377 
L 709.2 105.260377 
" clip-path="url(#p0e8ab000d9)" style="fill: none; stroke: #b0b0b0; stroke-width: 0.8; stroke-linecap: square"/>
     </g>
     <g id="line2d_26">
      <g>
       <use xlink:href="#m7d29c301c4" x="82.37" y="105.260377" style="stroke: #000000; stroke-width: 0.8"/>
      </g>
     </g>
     <g id="text_13">
      <!-- 1,500,000 -->
      <g transform="translate(24.47625 109.059596) scale(0.1 -0.1)">
       <use xlink:href="#DejaVuSans-31"/>
       <use xlink:href="#DejaVuSans-2c" x="63.623047"/>
       <use xlink:href="#DejaVuSans-35" x="95.410156"/>
       <use xlink:href="#DejaVuSans-30" x="159.033203"/>
       <use xlink:href="#DejaVuSans-30" x="222.65625"/>
       <use xlink:href="#DejaVuSans-2c" x="286.279297"/>
       <use xlink:href="#DejaVuSans-30" x="318.066406"/>
       <use xlink:href="#DejaVuSans-30" x="381.689453"/>
       <use xlink:href="#DejaVuSans-30" x="445.3125"/>
      </g>
     </g>
    </g>
    <g id="ytick_8">
     <g id="line2d_27">
      <path d="M 82.37 46.853774 
L 709.2 46.853774 
" clip-path="url(#p0e8ab000d9)" style="fill: none; stroke: #b0b0b0; stroke-width: 0.8; stroke-linecap: square"/>
     </g>
     <g id="line2d_28">
      <g>
       <use xlink:href="#m7d29c301c4" x="82.37" y="46.853774" style="stroke: #000000; stroke-width: 0.8"/>
      </g>
     </g>
     <g id="text_14">
      <!-- 1,750,000 -->
      <g transform="translate(24.47625 50.652992) scale(0.1 -0.1)">
       <use xlink:href="#DejaVuSans-31"/>
       <use xlink:href="#DejaVuSans-2c" x="63.623047"/>
       <use xlink:href="#DejaVuSans-37" x="95.410156"/>
       <use xlink:href="#DejaVuSans-35" x="159.033203"/>
       <use xlink:href="#DejaVuSans-30" x="222.65625"/>
       <use xlink:href="#DejaVuSans-2c" x="286.279297"/>
       <use xlink:href="#DejaVuSans-30" x="318.066406"/>
       <use xlink:href="#DejaVuSans-30" x="381.689453"/>
       <use xlink:href="#DejaVuSans-30" x="445.3125"/>
      </g>
     </g>
    </g>
    <g id="text_15">
     <!-- Cumulative Payload Mass (kg) -->
     <g transform="translate(18.396562 326.863281) rotate(-90) scale(0.1 -0.1)">
      <defs>
       <path id="DejaVuSans-43" d="M 4122 4306 
L 4122 3641 
Q 3803 3938 3442 4084 
Q 3081 4231 2675 4231 
Q 1875 4231 1450 3742 
Q 1025 3253 1025 2328 
Q 1025 1406 1450 917 
Q 1875 428 2675 428 
Q 3081 428 3442 575 
Q 3803 722 4122 1019 
L 4122 359 
Q 3791 134 3420 21 
Q 3050 -91 2638 -91 
Q 1578 -91 968 557 
Q 359 1206 359 2328 
Q 359 3453 968 4101 
Q 1578 4750 2638 4750 
Q 3056 4750 3426 4639 
Q 3797 4528 4122 4306 
z
" transform="scale(0.015625)"/>
       <path id="DejaVuSans-6d" d="M 3328 2828 
Q 3544 3216 3844 3400 
Q 4144 3584 4550 3584 
Q 5097 3584 5394 3201 
Q 5691 2819 5691 2113 
L 5691 0 
L 5113 0 
L 5113 2094 
Q 5113 2597 4934 2840 
Q 4756 3084 4391 3084 
Q 3944 3084 3684 2787 
Q 3425 2491 3425 1978 
L 3425 0 
L 2847 0 
L 2847 2094 
Q 2847 2600 2669 2842 
Q 2491 3084 2119 3084 
Q 1678 3084 1418 2786 
Q 1159 2488 1159 1978 
L 1159 0 
L 581 0 
L 581 3500 
L 1159 3500 
L 1159 2956 
Q 1356 3278 1631 3431 
Q 1906 3584 2284 3584 
Q 2666 3584 2933 3390 
Q 3200 3197 3328 2828 
z
" transform="scale(0.015625)"/>
       <path id="DejaVuSans-74" d="M 1172 4494 
L 1172 3500 
L 2356 3500 
L 2356 3053 
L 1172 3053 
L 1172 1153 
Q 1172 725 1289 603 
Q 1406 481 1766 481 
L 2356 481 
L 2356 0 
L 1766 0 
Q 1100 0 847 248 
Q 594 497 594 1153 
L 594 3053 
L 172 3053 
L 172 3500 
L 594 3500 
L 594 4494 
L 1172 4494 
z
" transform="scale(0.015625)"/>
       <path id="DejaVuSans-69" d="M 603 3500 
L 1178 3500 
L 1178 0 
L 603 0 
L 603 3500 
z
M 603 4863 
L 1178 4863 
L 1178 4134 
L 603 4134 
L 603 4863 
z
" transform="scale(0.015625)"/>
       <path id="DejaVuSans-50" d="M 1259 4147 
L 1259 2394 
L 2053 2394 
Q 2494 2394 2734 2622 
Q 2975 2850 2975 3272 
Q 2975 3691 2734 3919 
Q 2494 4147 2053 4147 
L 1259 4147 
z
M 628 4666 
L 2053 4666 
Q 2838 4666 3239 4311 
Q 3641 3956 3641 3272 
Q 3641 2581 3239 2228 
Q 2838 1875 2053 1875 
L 1259 1875 
L 1259 0 
L 628 0 
L 628 4666 
z
" transform="scale(0.015625)"/>
       <path id="DejaVuSans-64" d="M 2906 2969 
L 2906 4863 
L 3481 4863 
L 3481 0 
L 2906 0 
L 2906 525 
Q 2725 213 2448 61 
Q 2172 -91 1784 -91 
Q 1150 -91 751 415 
Q 353 922 353 1747 
Q 353 2572 751 3078 
Q 1150 3584 1784 3584 
Q 2172 3584 2448 3432 
Q 2725 3281 2906 2969 
z
M 947 1747 
Q 947 1113 1208 752 
Q 1469 391 1925 391 
Q 2381 391 2643 752 
Q 2906 1113 2906 1747 
Q 2906 2381 2643 2742 
Q 2381 3103 1925 3103 
Q 1469 3103 1208 2742 
Q 947 2381 947 1747 
z
" transform="scale(0.015625)"/>
       <path id="DejaVuSans-73" d="M 2834 3397 
L 2834 2853 
Q 2591 2978 2328 3040 
Q 2066 3103 1784 3103 
Q 1356 3103 1142 2972 
Q 928 2841 928 2578 
Q 928 2378 1081 2264 
Q 1234 2150 1697 2047 
L 1894 2003 
Q 2506 1872 2764 1633 
Q 3022 1394 3022 966 
Q 3022 478 2636 193 
Q 2250 -91 1575 -91 
Q 1294 -91 989 -36 
Q 684 19 347 128 
L 347 722 
Q 666 556 975 473 
Q 1284 391 1588 391 
Q 1994 391 2212 530 
Q 2431 669 2431 922 
Q 2431 1156 2273 1281 
Q 2116 1406 1581 1522 
L 1381 1569 
Q 847 1681 609 1914 
Q 372 2147 372 2553 
Q 372 3047 722 3315 
Q 1072 3584 1716 3584 
Q 2034 3584 2315 3537 
Q 2597 3491 2834 3397 
z
" transform="scale(0.015625)"/>
       <path id="DejaVuSans-28" d="M 1984 4856 
Q 1566 4138 1362 3434 
Q 1159 2731 1159 2009 
Q 1159 1288 1364 580 
Q 1569 -128 1984 -844 
L 1484 -844 
Q 1016 -109 783 600 
Q 550 1309 550 2009 
Q 550 2706 781 3412 
Q 1013 4119 1484 4856 
L 1984 4856 
z
" transform="scale(0.015625)"/>
       <path id="DejaVuSans-6b" d="M 581 4863 
L 1159 4863 
L 1159 1991 
L 2875 3500 
L 3609 3500 
L 1753 1863 
L 3688 0 
L 2938 0 
L 1159 1709 
L 1159 0 
L 581 0 
L 581 4863 
z
" transform="scale(0.015625)"/>
       <path id="DejaVuSans-67" d="M 2906 1791 
Q 2906 2416 2648 2759 
Q 2391 3103 1925 3103 
Q 1463 3103 1205 2759 
Q 947 2416 947 1791 
Q 947 1169 1205 825 
Q 1463 481 1925 481 
Q 2391 481 2648 825 
Q 2906 1169 2906 1791 
z
M 3481 434 
Q 3481 -459 3084 -895 
Q 2688 -1331 1869 -1331 
Q 1566 -1331 1297 -1286 
Q 1028 -1241 775 -1147 
L 775 -588 
Q 1028 -725 1275 -790 
Q 1522 -856 1778 -856 
Q 2344 -856 2625 -561 
Q 2906 -266 2906 331 
L 2906 616 
Q 2728 306 2450 153 
Q 2172 0 1784 0 
Q 1141 0 747 490 
Q 353 981 353 1791 
Q 353 2603 747 3093 
Q 1141 3584 1784 3584 
Q 2172 3584 2450 3431 
Q 2728 3278 2906 2969 
L 2906 3500 
L 3481 3500 
L 3481 434 
z
" transform="scale(0.015625)"/>
       <path id="DejaVuSans-29" d="M 513 4856 
L 1013 4856 
Q 1481 4119 1714 3412 
Q 1947 2706 1947 2009 
Q 1947 1309 1714 600 
Q 1481 -109 1013 -844 
L 513 -844 
Q 928 -128 1133 580 
Q 1338 1288 1338 2009 
Q 1338 2731 1133 3434 
Q 928 4138 513 4856 
z
" transform="scale(0.015625)"/>
      </defs>
      <use xlink:href="#DejaVuSans-43"/>
      <use xlink:href="#DejaVuSans-75" x="69.824219"/>
      <use xlink:href="#DejaVuSans-6d" x="133.203125"/>
      <use xlink:href="#DejaVuSans-75" x="230.615234"/>
      <use xlink:href="#DejaVuSans-6c" x="293.994141"/>
      <use xlink:href="#DejaVuSans-61" x="321.777344"/>
      <use xlink:href="#DejaVuSans-74" x="383.056641"/>
      <use xlink:href="#DejaVuSans-69" x="422.265625"/>
      <use xlink:href="#DejaVuSans-76" x="450.048828"/>
      <use xlink:href="#DejaVuSans-65" x="509.228516"/>
      <use xlink:href="#DejaVuSans-20" x="570.751953"/>
      <use xlink:href="#DejaVuSans-50" x="602.539062"/>
      <use xlink:href="#DejaVuSans-61" x="658.341797"/>
      <use xlink:href="#DejaVuSans-79" x="719.621094"/>
      <use xlink:href="#DejaVuSans-6c" x="778.800781"/>
      <use xlink:href="#DejaVuSans-6f" x="806.583984"/>
      <use xlink:href="#DejaVuSans-61" x="867.765625"/>
      <use xlink:href="#DejaVuSans-64" x="929.044922"/>
      <use xlink:href="#DejaVuSans-20" x="992.521484"/>
      <use xlink:href="#DejaVuSans-4d" x="1024.308594"/>
      <use xlink:href="#DejaVuSans-61" x="1110.587891"/>
      <use xlink:href="#DejaVuSans-73" x="1171.867188"/>
      <use xlink:href="#DejaVuSans-73" x="1223.966797"/>
      <use xlink:href="#DejaVuSans-20" x="1276.066406"/>
      <use xlink:href="#DejaVuSans-28" x="1307.853516"/>
      <use xlink:href="#DejaVuSans-6b" x="1346.867188"/>
      <use xlink:href="#DejaVuSans-67" x="1404.777344"/>
      <use xlink:href="#DejaVuSans-29" x="1468.253906"/>
     </g>
    </g>
   </g>
   <g id="line2d_29">
    <path d="M 106.728679 455.7 
L 127.839534 455.7 
L 127.839534 453.457186 
L 186.300363 453.457186 
L 186.300363 452.875457 
L 226.898161 452.875457 
L 226.898161 451.567149 
L 249.632927 451.567149 
L 249.632927 450.328929 
L 301.598109 450.328929 
L 301.598109 450.328929 
L 324.332876 450.328929 
L 324.332876 448.910816 
L 355.187202 448.910816 
L 355.187202 448.278156 
L 387.66544 448.278156 
L 387.66544 447.420981 
L 390.913264 447.420981 
L 390.913264 445.178167 
L 407.152383 445.178167 
L 407.152383 443.598619 
L 472.10886 443.598619 
L 472.10886 442.825316 
L 488.347979 442.825316 
L 488.347979 442.714343 
L 511.082746 442.714343 
L 511.082746 441.548547 
L 563.047927 441.548547 
L 563.047927 439.305734 
L 566.295751 439.305734 
L 566.295751 438.044151 
L 597.150078 438.044151 
L 597.150078 437.226458 
L 671.850026 437.226458 
L 671.850026 436.711312 
L 684.841321 436.711312 
L 684.841321 434.468499 
L 697.832617 434.468499 
L 697.832617 434.468499 
" clip-path="url(#p0e8ab000d9)" style="fill: none; stroke: #808080; stroke-width: 1.5; stroke-linecap: square"/>
   </g>
   <g id="line2d_30">
    <path d="M 106.728679 455.7 
L 118.096062 455.7 
L 118.096062 455.7 
L 155.446036 455.7 
L 155.446036 454.71176 
L 165.189508 454.71176 
L 165.189508 454.419727 
L 191.172098 454.419727 
L 191.172098 453.91743 
L 210.659041 453.91743 
L 210.659041 452.494178 
L 249.632927 452.494178 
L 249.632927 450.251365 
L 254.504663 450.251365 
L 254.504663 449.632956 
L 280.487254 449.632956 
L 280.487254 449.548383 
L 317.837228 449.548383 
L 317.837228 448.707328 
L 335.700259 448.707328 
L 335.700259 447.198101 
L 356.811114 447.198101 
L 356.811114 445.940257 
L 397.408912 445.940257 
L 397.408912 445.310166 
L 434.758886 445.310166 
L 434.758886 443.657259 
L 439.630622 443.657259 
L 439.630622 441.414446 
L 460.741477 441.414446 
L 460.741477 440.059412 
L 515.954482 440.059412 
L 515.954482 438.41001 
L 561.424016 438.41001 
L 561.424016 437.709131 
L 623.132668 437.709131 
L 623.132668 436.470911 
L 652.363083 436.470911 
L 652.363083 435.536405 
L 655.610907 435.536405 
L 655.610907 434.952339 
L 684.841321 434.952339 
L 684.841321 433.924383 
L 697.832617 433.924383 
L 697.832617 433.924383 
" clip-path="url(#p0e8ab000d9)" style="fill: none; stroke: #90ee90; stroke-width: 1.5; stroke-linecap: square"/>
   </g>
   <g id="line2d_31">
    <path d="M 106.728679 455.7 
L 122.967798 455.7 
L 122.967798 453.457186 
L 191.172098 453.457186 
L 191.172098 452.324098 
L 204.163394 452.324098 
L 204.163394 449.507732 
L 269.11987 449.507732 
L 269.11987 447.997337 
L 306.469845 447.997337 
L 306.469845 447.414439 
L 338.948083 447.414439 
L 338.948083 444.232447 
L 369.802409 444.232447 
L 369.802409 443.251216 
L 390.913264 443.251216 
L 390.913264 442.386799 
L 439.630622 442.386799 
L 439.630622 441.856934 
L 459.117565 441.856934 
L 459.117565 440.338362 
L 616.637021 440.338362 
L 616.637021 436.69379 
L 655.610907 436.69379 
L 655.610907 436.08239 
L 675.09785 436.08239 
L 675.09785 434.457285 
L 697.832617 434.457285 
L 697.832617 434.457285 
" clip-path="url(#p0e8ab000d9)" style="fill: none; stroke: #add8e6; stroke-width: 1.5; stroke-linecap: square"/>
   </g>
   <g id="line2d_32">
    <path d="M 106.728679 455.7 
L 116.47215 455.7 
L 116.47215 452.055428 
L 135.959093 452.055428 
L 135.959093 449.24023 
L 152.198212 449.24023 
L 152.198212 445.595658 
L 183.052539 445.595658 
L 183.052539 441.951085 
L 213.906865 441.951085 
L 213.906865 441.489206 
L 231.769896 441.489206 
L 231.769896 437.844634 
L 288.606813 437.844634 
L 288.606813 434.200062 
L 350.315466 434.200062 
L 350.315466 431.272723 
L 358.435026 431.272723 
L 358.435026 427.628151 
L 373.050233 427.628151 
L 373.050233 424.027968 
L 400.656736 424.027968 
L 400.656736 423.020804 
L 433.134974 423.020804 
L 433.134974 421.735859 
L 462.365389 421.735859 
L 462.365389 418.247349 
L 480.22842 418.247349 
L 480.22842 414.640158 
L 499.715363 414.640158 
L 499.715363 413.908907 
L 506.21101 413.908907 
L 506.21101 410.264335 
L 559.800104 410.264335 
L 559.800104 406.619763 
L 579.287047 406.619763 
L 579.287047 402.975191 
L 589.030518 402.975191 
L 589.030518 399.330619 
L 608.517461 399.330619 
L 608.517461 398.323455 
L 626.380492 398.323455 
L 626.380492 395.403125 
L 634.500052 395.403125 
L 634.500052 395.124642 
L 640.995699 395.124642 
L 640.995699 391.48007 
L 658.858731 391.48007 
L 658.858731 390.785732 
L 670.226114 390.785732 
L 670.226114 389.150348 
L 679.969585 389.150348 
L 679.969585 389.150348 
L 699.456528 389.150348 
L 699.456528 389.150348 
" clip-path="url(#p0e8ab000d9)" style="fill: none; stroke: #ffc0cb; stroke-width: 1.5; stroke-linecap: square"/>
   </g>
   <g id="line2d_33">
    <path d="M 106.728679 455.7 
L 118.096062 455.7 
L 118.096062 454.882308 
L 137.583005 454.882308 
L 137.583005 451.237735 
L 144.078653 451.237735 
L 144.078653 450.069603 
L 161.941684 450.069603 
L 161.941684 446.425031 
L 181.428627 446.425031 
L 181.428627 442.780459 
L 207.411218 442.780459 
L 207.411218 439.135887 
L 218.778601 439.135887 
L 218.778601 435.491315 
L 223.650337 435.491315 
L 223.650337 431.846743 
L 239.889456 431.846743 
L 239.889456 428.202171 
L 262.624223 428.202171 
L 262.624223 424.557599 
L 288.606813 424.557599 
L 288.606813 421.520455 
L 298.350285 421.520455 
L 298.350285 417.875883 
L 306.469845 417.875883 
L 306.469845 414.231311 
L 314.589404 414.231311 
L 314.589404 410.586739 
L 324.332876 410.586739 
L 324.332876 406.979547 
L 342.195907 406.979547 
L 342.195907 403.334975 
L 355.187202 403.334975 
L 355.187202 402.557467 
L 360.058938 402.557467 
L 360.058938 400.922082 
L 377.921969 400.922082 
L 377.921969 399.910246 
L 399.032824 399.910246 
L 399.032824 399.910246 
L 496.467539 399.910246 
L 496.467539 399.396268 
L 522.45013 399.396268 
L 522.45013 396.298381 
L 525.697953 396.298381 
L 525.697953 393.373612 
L 616.637021 393.373612 
L 616.637021 390.336469 
L 619.884845 390.336469 
L 619.884845 386.68372 
L 637.747876 386.68372 
L 637.747876 386.537937 
L 650.739171 386.537937 
L 650.739171 383.150354 
L 662.106554 383.150354 
L 662.106554 383.074425 
L 676.721762 383.074425 
L 676.721762 379.429853 
L 678.345674 379.429853 
L 678.345674 378.378534 
L 681.593497 378.378534 
L 681.593497 377.680225 
L 697.832617 377.680225 
L 697.832617 377.680225 
" clip-path="url(#p0e8ab000d9)" style="fill: none; stroke: #800080; stroke-width: 1.5; stroke-linecap: square"/>
   </g>
   <g id="line2d_34">
    <path d="M 106.728679 455.7 
L 114.848238 455.7 
L 114.848238 452.312417 
L 126.215622 452.312417 
L 126.215622 452.312417 
L 135.959093 452.312417 
L 135.959093 448.924834 
L 155.446036 448.924834 
L 155.446036 448.409688 
L 158.69386 448.409688 
L 158.69386 448.409688 
L 160.317772 448.409688 
L 160.317772 445.022105 
L 189.548187 445.022105 
L 189.548187 441.844785 
L 196.043834 441.844785 
L 196.043834 438.398796 
L 205.787306 438.398796 
L 205.787306 435.151389 
L 215.530777 435.151389 
L 215.530777 431.843239 
L 231.769896 431.843239 
L 231.769896 428.046809 
L 252.880751 428.046809 
L 252.880751 428.046809 
L 264.248135 428.046809 
L 264.248135 425.009666 
L 278.863342 425.009666 
L 278.863342 425.009666 
L 285.35899 425.009666 
L 285.35899 421.213237 
L 295.102461 421.213237 
L 295.102461 418.176093 
L 298.350285 418.176093 
L 298.350285 414.379664 
L 309.717668 414.379664 
L 309.717668 410.583235 
L 321.085052 410.583235 
L 321.085052 406.786806 
L 322.708964 406.786806 
L 322.708964 402.990376 
L 329.204611 402.990376 
L 329.204611 399.193947 
L 340.571995 399.193947 
L 340.571995 399.193947 
L 363.306762 399.193947 
L 363.306762 398.236079 
L 377.921969 398.236079 
L 377.921969 394.43965 
L 379.545881 394.43965 
L 379.545881 393.505144 
L 381.169793 393.505144 
L 381.169793 393.341605 
L 397.408912 393.341605 
L 397.408912 392.523913 
L 410.400207 392.523913 
L 410.400207 388.727484 
L 416.895855 388.727484 
L 416.895855 385.433351 
L 423.391503 385.433351 
L 423.391503 384.810036 
L 426.639326 384.810036 
L 426.639326 381.013607 
L 434.758886 381.013607 
L 434.758886 377.719474 
L 438.00671 377.719474 
L 438.00671 373.923045 
L 455.869741 373.923045 
L 455.869741 373.764413 
L 465.613212 373.764413 
L 465.613212 370.02639 
L 468.861036 370.02639 
L 468.861036 366.732258 
L 480.22842 366.732258 
L 480.22842 362.935828 
L 494.843627 362.935828 
L 494.843627 359.034267 
L 499.715363 359.034267 
L 499.715363 355.716772 
L 507.834922 355.716772 
L 507.834922 351.978749 
L 517.578394 351.978749 
L 517.578394 349.189717 
L 530.569689 349.189717 
L 530.569689 345.288156 
L 538.689249 345.288156 
L 538.689249 341.526771 
L 556.55228 341.526771 
L 556.55228 338.489628 
L 556.55228 338.489628 
L 556.55228 334.728242 
L 561.424016 334.728242 
L 561.424016 333.011088 
L 572.791399 333.011088 
L 572.791399 331.959769 
L 580.910959 331.959769 
L 580.910959 328.058208 
L 593.902254 328.058208 
L 593.902254 324.226735 
L 600.397902 324.226735 
L 600.397902 323.350636 
L 603.645725 323.350636 
L 603.645725 322.299317 
L 618.260933 322.299317 
L 618.260933 320.757383 
L 636.123964 320.757383 
L 636.123964 319.472437 
L 640.995699 319.472437 
L 640.995699 318.648203 
L 660.482642 318.648203 
L 660.482642 317.246445 
L 665.354378 317.246445 
L 665.354378 317.012818 
L 673.473938 317.012818 
L 673.473938 316.49884 
L 673.473938 316.49884 
L 673.473938 315.540972 
L 675.09785 315.540972 
L 675.09785 311.639411 
L 692.960881 311.639411 
L 692.960881 307.73785 
L 696.208705 307.73785 
L 696.208705 307.644399 
L 697.832617 307.644399 
L 697.832617 307.644399 
" clip-path="url(#p0e8ab000d9)" style="fill: none; stroke: #ffa500; stroke-width: 1.5; stroke-linecap: square"/>
   </g>
   <g id="line2d_35">
    <path d="M 106.728679 455.7 
L 121.343886 455.7 
L 121.343886 454.298242 
L 129.463446 454.298242 
L 129.463446 453.422142 
L 134.335181 453.422142 
L 134.335181 452.4054 
L 135.959093 452.4054 
L 135.959093 448.901004 
L 147.326477 448.901004 
L 147.326477 444.835904 
L 155.446036 444.835904 
L 155.446036 441.284783 
L 158.69386 441.284783 
L 158.69386 437.429947 
L 166.81342 437.429947 
L 166.81342 436.461332 
L 174.932979 436.461332 
L 174.932979 432.46632 
L 183.052539 432.46632 
L 183.052539 428.75166 
L 184.676451 428.75166 
L 184.676451 427.473724 
L 199.291658 427.473724 
L 199.291658 423.89924 
L 204.163394 423.89924 
L 204.163394 420.862096 
L 205.787306 420.862096 
L 205.787306 417.147436 
L 215.530777 417.147436 
L 215.530777 415.745678 
L 225.274249 415.745678 
L 225.274249 415.079375 
L 228.522073 415.079375 
L 228.522073 409.659242 
L 239.889456 409.659242 
L 239.889456 405.594143 
L 248.009016 405.594143 
L 248.009016 401.529043 
L 262.624223 401.529043 
L 262.624223 400.223539 
L 282.111166 400.223539 
L 282.111166 396.649055 
L 295.102461 396.649055 
L 295.102461 393.354922 
L 296.726373 393.354922 
L 296.726373 392.397054 
L 301.598109 392.397054 
L 301.598109 390.901845 
L 306.469845 390.901845 
L 306.469845 386.836745 
L 316.213316 386.836745 
L 316.213316 383.122085 
L 322.708964 383.122085 
L 322.708964 379.056986 
L 330.828523 379.056986 
L 330.828523 375.2956 
L 332.452435 375.2956 
L 332.452435 373.753666 
L 334.076347 373.753666 
L 334.076347 370.716522 
L 343.819819 370.716522 
L 343.819819 369.665204 
L 350.315466 369.665204 
L 350.315466 365.83373 
L 356.811114 365.83373 
L 356.811114 362.072345 
L 358.435026 362.072345 
L 358.435026 361.300443 
L 369.802409 361.300443 
L 369.802409 357.46897 
L 369.802409 357.46897 
L 379.545881 357.46897 
L 379.545881 356.398961 
L 386.041528 356.398961 
L 386.041528 353.011378 
L 387.66544 353.011378 
L 387.66544 348.946279 
L 400.656736 348.946279 
L 400.656736 348.441646 
L 410.400207 348.441646 
L 410.400207 344.960612 
L 415.271943 344.960612 
L 415.271943 341.199227 
L 425.015415 341.199227 
L 425.015415 337.297666 
L 431.511062 337.297666 
L 431.511062 334.494149 
L 438.00671 334.494149 
L 438.00671 330.732763 
L 444.502358 330.732763 
L 444.502358 326.971378 
L 446.126269 326.971378 
L 446.126269 324.822015 
L 454.245829 324.822015 
L 454.245829 323.639164 
L 460.741477 323.639164 
L 460.741477 319.877779 
L 462.365389 319.877779 
L 462.365389 317.074262 
L 467.237124 317.074262 
L 467.237124 313.312877 
L 476.980596 313.312877 
L 476.980596 309.551492 
L 485.100155 309.551492 
L 485.100155 305.977007 
L 491.595803 305.977007 
L 491.595803 302.939864 
L 493.219715 302.939864 
L 493.219715 299.178479 
L 501.339275 299.178479 
L 501.339275 295.417094 
L 506.21101 295.417094 
L 506.21101 291.842609 
L 514.33057 291.842609 
L 514.33057 288.081224 
L 519.202306 288.081224 
L 519.202306 284.50674 
L 525.697953 284.50674 
L 525.697953 280.745355 
L 532.193601 280.745355 
L 532.193601 276.983969 
L 538.689249 276.983969 
L 538.689249 273.222584 
L 540.313161 273.222584 
L 540.313161 269.6481 
L 548.43272 269.6481 
L 548.43272 265.886715 
L 556.55228 265.886715 
L 556.55228 262.125329 
L 563.047927 262.125329 
L 563.047927 258.550845 
L 569.543575 258.550845 
L 569.543575 254.180162 
L 577.663135 254.180162 
L 577.663135 250.418777 
L 582.53487 250.418777 
L 582.53487 246.844293 
L 584.158782 246.844293 
L 584.158782 242.919369 
L 595.526166 242.919369 
L 595.526166 239.157984 
L 597.150078 239.157984 
L 597.150078 235.23306 
L 605.269637 235.23306 
L 605.269637 231.308136 
L 611.765285 231.308136 
L 611.765285 227.383212 
L 615.013109 227.383212 
L 615.013109 225.157921 
L 618.260933 225.157921 
L 618.260933 224.200053 
L 628.004404 224.200053 
L 628.004404 220.275129 
L 628.004404 220.275129 
L 631.252228 220.275129 
L 631.252228 216.513743 
L 634.500052 216.513743 
L 634.500052 212.58882 
L 644.243523 212.58882 
L 644.243523 208.663896 
L 649.115259 208.663896 
L 649.115259 208.476995 
L 652.363083 208.476995 
L 652.363083 204.552071 
L 658.858731 204.552071 
L 658.858731 200.627147 
L 660.482642 200.627147 
L 660.482642 196.865762 
L 678.345674 196.865762 
L 678.345674 192.940838 
L 684.841321 192.940838 
L 684.841321 189.015914 
L 686.465233 189.015914 
L 686.465233 188.174859 
L 694.584793 188.174859 
L 694.584793 182.766408 
L 697.832617 182.766408 
L 697.832617 182.766408 
" clip-path="url(#p0e8ab000d9)" style="fill: none; stroke: #0000ff; stroke-width: 1.5; stroke-linecap: square"/>
   </g>
   <g id="line2d_36">
    <path d="M 106.728679 455.7 
L 109.976503 455.7 
L 109.976503 451.354549 
L 116.47215 451.354549 
L 116.47215 447.359537 
L 127.839534 447.359537 
L 127.839534 443.457976 
L 129.463446 443.457976 
L 129.463446 439.462964 
L 134.335181 439.462964 
L 134.335181 436.425821 
L 144.078653 436.425821 
L 144.078653 432.52426 
L 152.198212 432.52426 
L 152.198212 424.627687 
L 153.822124 424.627687 
L 153.822124 423.757195 
L 168.437332 423.757195 
L 168.437332 423.361432 
L 171.685155 423.361432 
L 171.685155 419.45987 
L 179.804715 419.45987 
L 179.804715 415.107177 
L 187.924275 415.107177 
L 187.924275 414.172671 
L 192.79601 414.172671 
L 192.79601 410.27111 
L 196.043834 410.27111 
L 196.043834 406.182648 
L 202.539482 406.182648 
L 202.539482 402.187636 
L 209.03513 402.187636 
L 209.03513 395.155481 
L 218.778601 395.155481 
L 218.778601 391.160469 
L 220.402513 391.160469 
L 220.402513 387.165457 
L 228.522073 387.165457 
L 228.522073 383.170446 
L 233.393808 383.170446 
L 233.393808 379.362335 
L 236.641632 379.362335 
L 236.641632 378.726638 
L 241.513368 378.726638 
L 241.513368 374.731626 
L 243.13728 374.731626 
L 243.13728 370.736614 
L 251.256839 370.736614 
L 251.256839 369.568482 
L 252.880751 369.568482 
L 252.880751 365.573471 
L 256.128575 365.573471 
L 256.128575 361.671909 
L 261.000311 361.671909 
L 261.000311 357.676898 
L 264.248135 357.676898 
L 264.248135 353.751974 
L 264.248135 353.751974 
L 269.11987 353.751974 
L 269.11987 349.756962 
L 270.743782 349.756962 
L 270.743782 349.476611 
L 273.991606 349.476611 
L 273.991606 345.481599 
L 280.487254 345.481599 
L 280.487254 341.486587 
L 282.111166 341.486587 
L 282.111166 337.491575 
L 290.230725 337.491575 
L 290.230725 333.496564 
L 298.350285 333.496564 
L 298.350285 329.12775 
L 304.845933 329.12775 
L 304.845933 328.77731 
L 306.469845 328.77731 
L 306.469845 324.782299 
L 311.34158 324.782299 
L 311.34158 320.787287 
L 314.589404 320.787287 
L 314.589404 316.792275 
L 317.837228 316.792275 
L 317.837228 312.984165 
L 322.708964 312.984165 
L 322.708964 308.989153 
L 324.332876 308.989153 
L 324.332876 305.181042 
L 330.828523 305.181042 
L 330.828523 301.186031 
L 338.948083 301.186031 
L 338.948083 297.191019 
L 340.571995 297.191019 
L 340.571995 293.196007 
L 347.067642 293.196007 
L 347.067642 288.651973 
L 353.56329 288.651973 
L 353.56329 284.656962 
L 360.058938 284.656962 
L 360.058938 280.848851 
L 364.930674 280.848851 
L 364.930674 273.139179 
L 382.793705 273.139179 
L 382.793705 269.331069 
L 384.417617 269.331069 
L 384.417617 268.162937 
L 389.289352 268.162937 
L 389.289352 264.261376 
L 390.913264 264.261376 
L 390.913264 260.453265 
L 392.537176 260.453265 
L 392.537176 259.285133 
L 395.785 259.285133 
L 395.785 255.290121 
L 405.528472 255.290121 
L 405.528472 251.482011 
L 413.648031 251.482011 
L 413.648031 250.489099 
L 444.502358 250.489099 
L 444.502358 246.494087 
L 446.126269 246.494087 
L 446.126269 238.644239 
L 454.245829 238.644239 
L 454.245829 234.649228 
L 457.493653 234.649228 
L 457.493653 229.753119 
L 467.237124 229.753119 
L 467.237124 225.898283 
L 470.484948 225.898283 
L 470.484948 220.214152 
L 475.356684 220.214152 
L 475.356684 219.863713 
L 483.476244 219.863713 
L 483.476244 215.962151 
L 496.467539 215.962151 
L 496.467539 212.06059 
L 501.339275 212.06059 
L 501.339275 204.257468 
L 509.458834 204.257468 
L 509.458834 200.355907 
L 517.578394 200.355907 
L 517.578394 197.318764 
L 520.826218 197.318764 
L 520.826218 195.566565 
L 522.45013 195.566565 
L 522.45013 191.665004 
L 528.945777 191.665004 
L 528.945777 191.291202 
L 533.817513 191.291202 
L 533.817513 187.483091 
L 541.937073 187.483091 
L 541.937073 183.674981 
L 546.808808 183.674981 
L 546.808808 180.637838 
L 561.424016 180.637838 
L 561.424016 180.378979 
L 572.791399 180.378979 
L 572.791399 178.962035 
L 574.415311 178.962035 
L 574.415311 171.158913 
L 579.287047 171.158913 
L 579.287047 167.350802 
L 582.53487 167.350802 
L 582.53487 166.66067 
L 587.406606 166.66067 
L 587.406606 162.665658 
L 592.278342 162.665658 
L 592.278342 158.764097 
L 598.77399 158.764097 
L 598.77399 150.960975 
L 608.517461 150.960975 
L 608.517461 150.315699 
L 611.765285 150.315699 
L 611.765285 146.320687 
L 615.013109 146.320687 
L 615.013109 142.512576 
L 618.260933 142.512576 
L 618.260933 137.512971 
L 623.132668 137.512971 
L 623.132668 129.616398 
L 628.004404 129.616398 
L 628.004404 128.681893 
L 629.628316 128.681893 
L 629.628316 123.775738 
L 634.500052 123.775738 
L 634.500052 119.687276 
L 639.371788 119.687276 
L 639.371788 115.879165 
L 640.995699 115.879165 
L 640.995699 111.884153 
L 644.243523 111.884153 
L 644.243523 107.795691 
L 649.115259 107.795691 
L 649.115259 99.945844 
L 655.610907 99.945844 
L 655.610907 95.857381 
L 657.234819 95.857381 
L 657.234819 90.413886 
L 662.106554 90.413886 
L 662.106554 86.418874 
L 670.226114 86.418874 
L 670.226114 82.517313 
L 676.721762 82.517313 
L 676.721762 80.706708 
L 683.217409 80.706708 
L 683.217409 80.519807 
L 686.465233 80.519807 
L 686.465233 76.664971 
L 696.208705 76.664971 
L 696.208705 72.389608 
L 699.456528 72.389608 
L 699.456528 72.389608 
L 699.456528 68.534772 
L 699.456528 68.534772 
" clip-path="url(#p0e8ab000d9)" style="fill: none; stroke: #008000; stroke-width: 1.5; stroke-linecap: square"/>
   </g>
   <g id="line2d_37">
    <path d="M 106.728679 455.7 
L 111.600415 455.7 
L 111.600415 454.531868 
L 114.848238 454.531868 
L 114.848238 450.443406 
L 118.096062 450.443406 
L 118.096062 446.58857 
L 121.343886 446.58857 
L 121.343886 446.58857 
L 121.343886 442.733734 
L 126.215622 442.733734 
L 126.215622 438.878898 
L 127.839534 438.878898 
L 127.839534 438.411645 
L 129.463446 438.411645 
L 129.463446 437.823608 
L 139.206917 437.823608 
L 139.206917 430.627914 
L 144.078653 430.627914 
L 144.078653 426.632902 
L 148.950389 426.632902 
L 148.950389 422.778066 
L 153.822124 422.778066 
L 153.822124 421.352945 
L 157.069948 421.352945 
L 157.069948 417.451384 
L 161.941684 417.451384 
L 161.941684 413.246109 
L 168.437332 413.246109 
L 168.437332 409.391273 
L 173.309067 409.391273 
L 173.309067 401.541425 
L 179.804715 401.541425 
L 179.804715 397.686589 
L 184.676451 397.686589 
L 184.676451 393.691578 
L 189.548187 393.691578 
L 189.548187 389.696566 
L 192.79601 389.696566 
L 192.79601 385.771642 
L 199.291658 385.771642 
L 199.291658 385.771642 
L 199.291658 381.916806 
L 205.787306 381.916806 
L 205.787306 378.061971 
L 220.402513 378.061971 
L 220.402513 377.884882 
L 222.026425 377.884882 
L 222.026425 374.030046 
L 223.650337 374.030046 
L 223.650337 370.992903 
L 225.274249 370.992903 
L 225.274249 370.992903 
L 225.274249 366.997891 
L 230.145984 366.997891 
L 230.145984 363.002879 
L 243.13728 363.002879 
L 243.13728 359.38167 
L 251.256839 359.38167 
L 251.256839 355.620284 
L 252.880751 355.620284 
L 252.880751 352.583141 
L 257.752487 352.583141 
L 257.752487 348.961932 
L 261.000311 348.961932 
L 261.000311 345.200546 
L 262.624223 345.200546 
L 262.624223 341.579337 
L 272.367694 341.579337 
L 272.367694 337.724501 
L 273.991606 337.724501 
L 273.991606 334.103292 
L 285.35899 334.103292 
L 285.35899 333.397506 
L 291.854637 333.397506 
L 291.854637 329.636121 
L 296.726373 329.636121 
L 296.726373 322.0199 
L 298.350285 322.0199 
L 298.350285 318.024888 
L 303.222021 318.024888 
L 303.222021 314.263503 
L 306.469845 314.263503 
L 306.469845 310.367782 
L 311.34158 310.367782 
L 311.34158 306.606397 
L 316.213316 306.606397 
L 316.213316 299.352297 
L 321.085052 299.352297 
L 321.085052 292.098197 
L 322.708964 292.098197 
L 322.708964 288.336811 
L 325.956788 288.336811 
L 325.956788 284.844096 
L 334.076347 284.844096 
L 334.076347 280.849085 
L 337.324171 280.849085 
L 337.324171 277.227875 
L 338.948083 277.227875 
L 338.948083 273.232864 
L 343.819819 273.232864 
L 343.819819 269.144401 
L 343.819819 269.144401 
L 345.443731 269.144401 
L 345.443731 265.523192 
L 348.691554 265.523192 
L 348.691554 264.506917 
L 350.315466 264.506917 
L 350.315466 260.885708 
L 355.187202 260.885708 
L 355.187202 256.890696 
L 356.811114 256.890696 
L 356.811114 253.269486 
L 361.68285 253.269486 
L 361.68285 251.774277 
L 363.306762 251.774277 
L 363.306762 248.281563 
L 366.554585 248.281563 
L 366.554585 244.286551 
L 371.426321 244.286551 
L 371.426321 236.798824 
L 377.921969 236.798824 
L 377.921969 233.306109 
L 379.545881 233.306109 
L 379.545881 229.544724 
L 387.66544 229.544724 
L 387.66544 225.923515 
L 387.66544 225.923515 
L 390.913264 225.923515 
L 390.913264 219.265162 
L 395.785 219.265162 
L 395.785 212.151237 
L 400.656736 212.151237 
L 400.656736 211.263457 
L 402.280648 211.263457 
L 402.280648 207.642248 
L 412.024119 207.642248 
L 412.024119 203.880862 
L 420.143679 203.880862 
L 420.143679 202.946357 
L 425.015415 202.946357 
L 425.015415 195.999709 
L 429.88715 195.999709 
L 429.88715 191.911247 
L 434.758886 191.911247 
L 434.758886 191.116917 
L 436.382798 191.116917 
L 436.382798 190.90198 
L 441.254534 190.90198 
L 441.254534 187.140595 
L 442.878446 187.140595 
L 442.878446 183.052133 
L 447.750181 183.052133 
L 447.750181 179.290748 
L 449.374093 179.290748 
L 449.374093 176.00596 
L 450.998005 176.00596 
L 450.998005 172.968817 
L 455.869741 172.968817 
L 455.869741 169.207432 
L 467.237124 169.207432 
L 467.237124 165.753499 
L 472.10886 165.753499 
L 472.10886 157.903651 
L 478.604508 157.903651 
L 478.604508 153.815189 
L 485.100155 153.815189 
L 485.100155 148.560931 
L 488.347979 148.560931 
L 488.347979 148.02359 
L 491.595803 148.02359 
L 491.595803 143.965499 
L 493.219715 143.965499 
L 493.219715 140.204114 
L 494.843627 140.204114 
L 494.843627 136.442729 
L 498.091451 136.442729 
L 498.091451 132.354266 
L 499.715363 132.354266 
L 499.715363 128.592881 
L 504.587098 128.592881 
L 504.587098 120.743033 
L 507.834922 120.743033 
L 507.834922 116.981648 
L 509.458834 116.981648 
L 509.458834 112.893186 
L 519.202306 112.893186 
L 519.202306 111.0709 
L 520.826218 111.0709 
L 520.826218 106.982438 
L 522.45013 106.982438 
L 522.45013 105.814306 
L 528.945777 105.814306 
L 528.945777 102.05292 
L 530.569689 102.05292 
L 530.569689 97.964458 
L 533.817513 97.964458 
L 533.817513 94.203073 
L 538.689249 94.203073 
L 538.689249 93.858007 
L 540.313161 93.858007 
L 540.313161 90.096621 
L 541.937073 90.096621 
L 541.937073 86.008159 
L 546.808808 86.008159 
L 546.808808 82.246774 
L 553.304456 82.246774 
L 553.304456 78.485388 
L 559.800104 78.485388 
L 559.800104 74.724003 
L 561.424016 74.724003 
L 561.424016 70.962618 
L 569.543575 70.962618 
L 569.543575 67.224595 
L 571.167487 67.224595 
L 571.167487 63.770662 
L 574.415311 63.770662 
L 574.415311 60.009277 
L 579.287047 60.009277 
L 579.287047 52.486506 
L 584.158782 52.486506 
L 584.158782 48.725121 
L 587.406606 48.725121 
L 587.406606 47.3 
L 589.030518 47.3 
L 589.030518 47.3 
" clip-path="url(#p0e8ab000d9)" style="fill: none; stroke: #ff0000; stroke-width: 1.5; stroke-linecap: square"/>
   </g>
   <g id="patch_3">
    <path d="M 82.37 476.12 
L 82.37 26.88 
" style="fill: none; stroke: #000000; stroke-width: 0.8; stroke-linejoin: miter; stroke-linecap: square"/>
   </g>
   <g id="patch_4">
    <path d="M 709.2 476.12 
L 709.2 26.88 
" style="fill: none; stroke: #000000; stroke-width: 0.8; stroke-linejoin: miter; stroke-linecap: square"/>
   </g>
   <g id="patch_5">
    <path d="M 82.37 476.12 
L 709.2 476.12 
" style="fill: none; stroke: #000000; stroke-width: 0.8; stroke-linejoin: miter; stroke-linecap: square"/>
   </g>
   <g id="patch_6">
    <path d="M 82.37 26.88 
L 709.2 26.88 
" style="fill: none; stroke: #000000; stroke-width: 0.8; stroke-linejoin: miter; stroke-linecap: square"/>
   </g>
   <g id="text_16">
    <!-- Cumulative Payload Mass to Orbit By Year -->
    <g transform="translate(270.179688 20.88) scale(0.12 -0.12)">
     <defs>
      <path id="DejaVuSans-4f" d="M 2522 4238 
Q 1834 4238 1429 3725 
Q 1025 3213 1025 2328 
Q 1025 1447 1429 934 
Q 1834 422 2522 422 
Q 3209 422 3611 934 
Q 4013 1447 4013 2328 
Q 4013 3213 3611 3725 
Q 3209 4238 2522 4238 
z
M 2522 4750 
Q 3503 4750 4090 4092 
Q 4678 3434 4678 2328 
Q 4678 1225 4090 567 
Q 3503 -91 2522 -91 
Q 1538 -91 948 565 
Q 359 1222 359 2328 
Q 359 3434 948 4092 
Q 1538 4750 2522 4750 
z
" transform="scale(0.015625)"/>
      <path id="DejaVuSans-62" d="M 3116 1747 
Q 3116 2381 2855 2742 
Q 2594 3103 2138 3103 
Q 1681 3103 1420 2742 
Q 1159 2381 1159 1747 
Q 1159 1113 1420 752 
Q 1681 391 2138 391 
Q 2594 391 2855 752 
Q 3116 1113 3116 1747 
z
M 1159 2969 
Q 1341 3281 1617 3432 
Q 1894 3584 2278 3584 
Q 2916 3584 3314 3078 
Q 3713 2572 3713 1747 
Q 3713 922 3314 415 
Q 2916 -91 2278 -91 
Q 1894 -91 1617 61 
Q 1341 213 1159 525 
L 1159 0 
L 581 0 
L 581 4863 
L 1159 4863 
L 1159 2969 
z
" transform="scale(0.015625)"/>
      <path id="DejaVuSans-42" d="M 1259 2228 
L 1259 519 
L 2272 519 
Q 2781 519 3026 730 
Q 3272 941 3272 1375 
Q 3272 1813 3026 2020 
Q 2781 2228 2272 2228 
L 1259 2228 
z
M 1259 4147 
L 1259 2741 
L 2194 2741 
Q 2656 2741 2882 2914 
Q 3109 3088 3109 3444 
Q 3109 3797 2882 3972 
Q 2656 4147 2194 4147 
L 1259 4147 
z
M 628 4666 
L 2241 4666 
Q 2963 4666 3353 4366 
Q 3744 4066 3744 3513 
Q 3744 3084 3544 2831 
Q 3344 2578 2956 2516 
Q 3422 2416 3680 2098 
Q 3938 1781 3938 1306 
Q 3938 681 3513 340 
Q 3088 0 2303 0 
L 628 0 
L 628 4666 
z
" transform="scale(0.015625)"/>
      <path id="DejaVuSans-59" d="M -13 4666 
L 666 4666 
L 1959 2747 
L 3244 4666 
L 3922 4666 
L 2272 2222 
L 2272 0 
L 1638 0 
L 1638 2222 
L -13 4666 
z
" transform="scale(0.015625)"/>
     </defs>
     <use xlink:href="#DejaVuSans-43"/>
     <use xlink:href="#DejaVuSans-75" x="69.824219"/>
     <use xlink:href="#DejaVuSans-6d" x="133.203125"/>
     <use xlink:href="#DejaVuSans-75" x="230.615234"/>
     <use xlink:href="#DejaVuSans-6c" x="293.994141"/>
     <use xlink:href="#DejaVuSans-61" x="321.777344"/>
     <use xlink:href="#DejaVuSans-74" x="383.056641"/>
     <use xlink:href="#DejaVuSans-69" x="422.265625"/>
     <use xlink:href="#DejaVuSans-76" x="450.048828"/>
     <use xlink:href="#DejaVuSans-65" x="509.228516"/>
     <use xlink:href="#DejaVuSans-20" x="570.751953"/>
     <use xlink:href="#DejaVuSans-50" x="602.539062"/>
     <use xlink:href="#DejaVuSans-61" x="658.341797"/>
     <use xlink:href="#DejaVuSans-79" x="719.621094"/>
     <use xlink:href="#DejaVuSans-6c" x="778.800781"/>
     <use xlink:href="#DejaVuSans-6f" x="806.583984"/>
     <use xlink:href="#DejaVuSans-61" x="867.765625"/>
     <use xlink:href="#DejaVuSans-64" x="929.044922"/>
     <use xlink:href="#DejaVuSans-20" x="992.521484"/>
     <use xlink:href="#DejaVuSans-4d" x="1024.308594"/>
     <use xlink:href="#DejaVuSans-61" x="1110.587891"/>
     <use xlink:href="#DejaVuSans-73" x="1171.867188"/>
     <use xlink:href="#DejaVuSans-73" x="1223.966797"/>
     <use xlink:href="#DejaVuSans-20" x="1276.066406"/>
     <use xlink:href="#DejaVuSans-74" x="1307.853516"/>
     <use xlink:href="#DejaVuSans-6f" x="1347.0625"/>
     <use xlink:href="#DejaVuSans-20" x="1408.244141"/>
     <use xlink:href="#DejaVuSans-4f" x="1440.03125"/>
     <use xlink:href="#DejaVuSans-72" x="1518.742188"/>
     <use xlink:href="#DejaVuSans-62" x="1559.855469"/>
     <use xlink:href="#DejaVuSans-69" x="1623.332031"/>
     <use xlink:href="#DejaVuSans-74" x="1651.115234"/>
     <use xlink:href="#DejaVuSans-20" x="1690.324219"/>
     <use xlink:href="#DejaVuSans-42" x="1722.111328"/>
     <use xlink:href="#DejaVuSans-79" x="1790.714844"/>
     <use xlink:href="#DejaVuSans-20" x="1849.894531"/>
     <use xlink:href="#DejaVuSans-59" x="1881.681641"/>
     <use xlink:href="#DejaVuSans-65" x="1929.515625"/>
     <use xlink:href="#DejaVuSans-61" x="1991.039062"/>
     <use xlink:href="#DejaVuSans-72" x="2052.318359"/>
    </g>
   </g>
   <g id="legend_1">
    <g id="patch_7">
     <path d="M 89.37 181.66125 
L 146.82 181.66125 
Q 148.82 181.66125 148.82 179.66125 
L 148.82 33.88 
Q 148.82 31.88 146.82 31.88 
L 89.37 31.88 
Q 87.37 31.88 87.37 33.88 
L 87.37 179.66125 
Q 87.37 181.66125 89.37 181.66125 
z
" style="fill: #ffffff; opacity: 0.8; stroke: #cccccc; stroke-linejoin: miter"/>
    </g>
    <g id="text_17">
     <!-- Year -->
     <g transform="translate(107.5075 43.478437) scale(0.1 -0.1)">
      <use xlink:href="#DejaVuSans-59"/>
      <use xlink:href="#DejaVuSans-65" x="47.833984"/>
      <use xlink:href="#DejaVuSans-61" x="109.357422"/>
      <use xlink:href="#DejaVuSans-72" x="170.636719"/>
     </g>
    </g>
    <g id="line2d_38">
     <path d="M 91.37 54.656562 
L 101.37 54.656562 
L 101.37 54.656562 
L 111.37 54.656562 
L 111.37 54.656562 
" style="fill: none; stroke: #808080; stroke-width: 1.5; stroke-linecap: square"/>
    </g>
    <g id="text_18">
     <!-- 2017 -->
     <g transform="translate(119.37 58.156562) scale(0.1 -0.1)">
      <use xlink:href="#DejaVuSans-32"/>
      <use xlink:href="#DejaVuSans-30" x="63.623047"/>
      <use xlink:href="#DejaVuSans-31" x="127.246094"/>
      <use xlink:href="#DejaVuSans-37" x="190.869141"/>
     </g>
    </g>
    <g id="line2d_39">
     <path d="M 91.37 69.334687 
L 101.37 69.334687 
L 101.37 69.334687 
L 111.37 69.334687 
L 111.37 69.334687 
" style="fill: none; stroke: #90ee90; stroke-width: 1.5; stroke-linecap: square"/>
    </g>
    <g id="text_19">
     <!-- 2018 -->
     <g transform="translate(119.37 72.834687) scale(0.1 -0.1)">
      <defs>
       <path id="DejaVuSans-38" d="M 2034 2216 
Q 1584 2216 1326 1975 
Q 1069 1734 1069 1313 
Q 1069 891 1326 650 
Q 1584 409 2034 409 
Q 2484 409 2743 651 
Q 3003 894 3003 1313 
Q 3003 1734 2745 1975 
Q 2488 2216 2034 2216 
z
M 1403 2484 
Q 997 2584 770 2862 
Q 544 3141 544 3541 
Q 544 4100 942 4425 
Q 1341 4750 2034 4750 
Q 2731 4750 3128 4425 
Q 3525 4100 3525 3541 
Q 3525 3141 3298 2862 
Q 3072 2584 2669 2484 
Q 3125 2378 3379 2068 
Q 3634 1759 3634 1313 
Q 3634 634 3220 271 
Q 2806 -91 2034 -91 
Q 1263 -91 848 271 
Q 434 634 434 1313 
Q 434 1759 690 2068 
Q 947 2378 1403 2484 
z
M 1172 3481 
Q 1172 3119 1398 2916 
Q 1625 2713 2034 2713 
Q 2441 2713 2670 2916 
Q 2900 3119 2900 3481 
Q 2900 3844 2670 4047 
Q 2441 4250 2034 4250 
Q 1625 4250 1398 4047 
Q 1172 3844 1172 3481 
z
" transform="scale(0.015625)"/>
      </defs>
      <use xlink:href="#DejaVuSans-32"/>
      <use xlink:href="#DejaVuSans-30" x="63.623047"/>
      <use xlink:href="#DejaVuSans-31" x="127.246094"/>
      <use xlink:href="#DejaVuSans-38" x="190.869141"/>
     </g>
    </g>
    <g id="line2d_40">
     <path d="M 91.37 84.012812 
L 101.37 84.012812 
L 101.37 84.012812 
L 111.37 84.012812 
L 111.37 84.012812 
" style="fill: none; stroke: #add8e6; stroke-width: 1.5; stroke-linecap: square"/>
    </g>
    <g id="text_20">
     <!-- 2019 -->
     <g transform="translate(119.37 87.512812) scale(0.1 -0.1)">
      <defs>
       <path id="DejaVuSans-39" d="M 703 97 
L 703 672 
Q 941 559 1184 500 
Q 1428 441 1663 441 
Q 2288 441 2617 861 
Q 2947 1281 2994 2138 
Q 2813 1869 2534 1725 
Q 2256 1581 1919 1581 
Q 1219 1581 811 2004 
Q 403 2428 403 3163 
Q 403 3881 828 4315 
Q 1253 4750 1959 4750 
Q 2769 4750 3195 4129 
Q 3622 3509 3622 2328 
Q 3622 1225 3098 567 
Q 2575 -91 1691 -91 
Q 1453 -91 1209 -44 
Q 966 3 703 97 
z
M 1959 2075 
Q 2384 2075 2632 2365 
Q 2881 2656 2881 3163 
Q 2881 3666 2632 3958 
Q 2384 4250 1959 4250 
Q 1534 4250 1286 3958 
Q 1038 3666 1038 3163 
Q 1038 2656 1286 2365 
Q 1534 2075 1959 2075 
z
" transform="scale(0.015625)"/>
      </defs>
      <use xlink:href="#DejaVuSans-32"/>
      <use xlink:href="#DejaVuSans-30" x="63.623047"/>
      <use xlink:href="#DejaVuSans-31" x="127.246094"/>
      <use xlink:href="#DejaVuSans-39" x="190.869141"/>
     </g>
    </g>
    <g id="line2d_41">
     <path d="M 91.37 98.690937 
L 101.37 98.690937 
L 101.37 98.690937 
L 111.37 98.690937 
L 111.37 98.690937 
" style="fill: none; stroke: #ffc0cb; stroke-width: 1.5; stroke-linecap: square"/>
    </g>
    <g id="text_21">
     <!-- 2020 -->
     <g transform="translate(119.37 102.190937) scale(0.1 -0.1)">
      <use xlink:href="#DejaVuSans-32"/>
      <use xlink:href="#DejaVuSans-30" x="63.623047"/>
      <use xlink:href="#DejaVuSans-32" x="127.246094"/>
      <use xlink:href="#DejaVuSans-30" x="190.869141"/>
     </g>
    </g>
    <g id="line2d_42">
     <path d="M 91.37 113.369062 
L 101.37 113.369062 
L 101.37 113.369062 
L 111.37 113.369062 
L 111.37 113.369062 
" style="fill: none; stroke: #800080; stroke-width: 1.5; stroke-linecap: square"/>
    </g>
    <g id="text_22">
     <!-- 2021 -->
     <g transform="translate(119.37 116.869062) scale(0.1 -0.1)">
      <use xlink:href="#DejaVuSans-32"/>
      <use xlink:href="#DejaVuSans-30" x="63.623047"/>
      <use xlink:href="#DejaVuSans-32" x="127.246094"/>
      <use xlink:href="#DejaVuSans-31" x="190.869141"/>
     </g>
    </g>
    <g id="line2d_43">
     <path d="M 91.37 128.047187 
L 101.37 128.047187 
L 101.37 128.047187 
L 111.37 128.047187 
L 111.37 128.047187 
" style="fill: none; stroke: #ffa500; stroke-width: 1.5; stroke-linecap: square"/>
    </g>
    <g id="text_23">
     <!-- 2022 -->
     <g transform="translate(119.37 131.547187) scale(0.1 -0.1)">
      <use xlink:href="#DejaVuSans-32"/>
      <use xlink:href="#DejaVuSans-30" x="63.623047"/>
      <use xlink:href="#DejaVuSans-32" x="127.246094"/>
      <use xlink:href="#DejaVuSans-32" x="190.869141"/>
     </g>
    </g>
    <g id="line2d_44">
     <path d="M 91.37 142.725312 
L 101.37 142.725312 
L 101.37 142.725312 
L 111.37 142.725312 
L 111.37 142.725312 
" style="fill: none; stroke: #0000ff; stroke-width: 1.5; stroke-linecap: square"/>
    </g>
    <g id="text_24">
     <!-- 2023 -->
     <g transform="translate(119.37 146.225312) scale(0.1 -0.1)">
      <defs>
       <path id="DejaVuSans-33" d="M 2597 2516 
Q 3050 2419 3304 2112 
Q 3559 1806 3559 1356 
Q 3559 666 3084 287 
Q 2609 -91 1734 -91 
Q 1441 -91 1130 -33 
Q 819 25 488 141 
L 488 750 
Q 750 597 1062 519 
Q 1375 441 1716 441 
Q 2309 441 2620 675 
Q 2931 909 2931 1356 
Q 2931 1769 2642 2001 
Q 2353 2234 1838 2234 
L 1294 2234 
L 1294 2753 
L 1863 2753 
Q 2328 2753 2575 2939 
Q 2822 3125 2822 3475 
Q 2822 3834 2567 4026 
Q 2313 4219 1838 4219 
Q 1578 4219 1281 4162 
Q 984 4106 628 3988 
L 628 4550 
Q 988 4650 1302 4700 
Q 1616 4750 1894 4750 
Q 2613 4750 3031 4423 
Q 3450 4097 3450 3541 
Q 3450 3153 3228 2886 
Q 3006 2619 2597 2516 
z
" transform="scale(0.015625)"/>
      </defs>
      <use xlink:href="#DejaVuSans-32"/>
      <use xlink:href="#DejaVuSans-30" x="63.623047"/>
      <use xlink:href="#DejaVuSans-32" x="127.246094"/>
      <use xlink:href="#DejaVuSans-33" x="190.869141"/>
     </g>
    </g>
    <g id="line2d_45">
     <path d="M 91.37 157.403437 
L 101.37 157.403437 
L 101.37 157.403437 
L 111.37 157.403437 
L 111.37 157.403437 
" style="fill: none; stroke: #008000; stroke-width: 1.5; stroke-linecap: square"/>
    </g>
    <g id="text_25">
     <!-- 2024 -->
     <g transform="translate(119.37 160.903437) scale(0.1 -0.1)">
      <defs>
       <path id="DejaVuSans-34" d="M 2419 4116 
L 825 1625 
L 2419 1625 
L 2419 4116 
z
M 2253 4666 
L 3047 4666 
L 3047 1625 
L 3713 1625 
L 3713 1100 
L 3047 1100 
L 3047 0 
L 2419 0 
L 2419 1100 
L 313 1100 
L 313 1709 
L 2253 4666 
z
" transform="scale(0.015625)"/>
      </defs>
      <use xlink:href="#DejaVuSans-32"/>
      <use xlink:href="#DejaVuSans-30" x="63.623047"/>
      <use xlink:href="#DejaVuSans-32" x="127.246094"/>
      <use xlink:href="#DejaVuSans-34" x="190.869141"/>
     </g>
    </g>
    <g id="line2d_46">
     <path d="M 91.37 172.081562 
L 101.37 172.081562 
L 101.37 172.081562 
L 111.37 172.081562 
L 111.37 172.081562 
" style="fill: none; stroke: #ff0000; stroke-width: 1.5; stroke-linecap: square"/>
    </g>
    <g id="text_26">
     <!-- 2025 -->
     <g transform="translate(119.37 175.581562) scale(0.1 -0.1)">
      <use xlink:href="#DejaVuSans-32"/>
      <use xlink:href="#DejaVuSans-30" x="63.623047"/>
      <use xlink:href="#DejaVuSans-32" x="127.246094"/>
      <use xlink:href="#DejaVuSans-35" x="190.869141"/>
     </g>
    </g>
   </g>
  </g>
 </g>
 <defs>
  <clipPath id="p0e8ab000d9">
   <rect x="82.37" y="26.88" width="626.83" height="449.24"/>
  </clipPath>
 </defs>
</svg>
